G04 #@! TF.GenerationSoftware,KiCad,Pcbnew,7.0.0-da2b9df05c~163~ubuntu22.04.1*
G04 #@! TF.CreationDate,2023-03-12T18:54:23+00:00*
G04 #@! TF.ProjectId,userioswitchhdr,75736572-696f-4737-9769-746368686472,rev?*
G04 #@! TF.SameCoordinates,Original*
G04 #@! TF.FileFunction,Copper,L1,Top*
G04 #@! TF.FilePolarity,Positive*
%FSLAX46Y46*%
G04 Gerber Fmt 4.6, Leading zero omitted, Abs format (unit mm)*
G04 Created by KiCad (PCBNEW 7.0.0-da2b9df05c~163~ubuntu22.04.1) date 2023-03-12 18:54:23*
%MOMM*%
%LPD*%
G01*
G04 APERTURE LIST*
G04 Aperture macros list*
%AMRoundRect*
0 Rectangle with rounded corners*
0 $1 Rounding radius*
0 $2 $3 $4 $5 $6 $7 $8 $9 X,Y pos of 4 corners*
0 Add a 4 corners polygon primitive as box body*
4,1,4,$2,$3,$4,$5,$6,$7,$8,$9,$2,$3,0*
0 Add four circle primitives for the rounded corners*
1,1,$1+$1,$2,$3*
1,1,$1+$1,$4,$5*
1,1,$1+$1,$6,$7*
1,1,$1+$1,$8,$9*
0 Add four rect primitives between the rounded corners*
20,1,$1+$1,$2,$3,$4,$5,0*
20,1,$1+$1,$4,$5,$6,$7,0*
20,1,$1+$1,$6,$7,$8,$9,0*
20,1,$1+$1,$8,$9,$2,$3,0*%
G04 Aperture macros list end*
G04 #@! TA.AperFunction,ComponentPad*
%ADD10R,1.700000X1.700000*%
G04 #@! TD*
G04 #@! TA.AperFunction,ComponentPad*
%ADD11O,1.700000X1.700000*%
G04 #@! TD*
G04 #@! TA.AperFunction,SMDPad,CuDef*
%ADD12RoundRect,0.250000X0.250000X0.475000X-0.250000X0.475000X-0.250000X-0.475000X0.250000X-0.475000X0*%
G04 #@! TD*
G04 #@! TA.AperFunction,ComponentPad*
%ADD13C,3.600000*%
G04 #@! TD*
G04 #@! TA.AperFunction,ConnectorPad*
%ADD14C,6.400000*%
G04 #@! TD*
G04 #@! TA.AperFunction,SMDPad,CuDef*
%ADD15R,1.475000X0.450000*%
G04 #@! TD*
G04 #@! TA.AperFunction,SMDPad,CuDef*
%ADD16RoundRect,0.250000X0.450000X-0.262500X0.450000X0.262500X-0.450000X0.262500X-0.450000X-0.262500X0*%
G04 #@! TD*
G04 #@! TA.AperFunction,ViaPad*
%ADD17C,0.800000*%
G04 #@! TD*
G04 #@! TA.AperFunction,Conductor*
%ADD18C,0.250000*%
G04 #@! TD*
G04 #@! TA.AperFunction,Conductor*
%ADD19C,0.400000*%
G04 #@! TD*
G04 #@! TA.AperFunction,Conductor*
%ADD20C,0.600000*%
G04 #@! TD*
G04 #@! TA.AperFunction,Conductor*
%ADD21C,0.500000*%
G04 #@! TD*
G04 APERTURE END LIST*
D10*
G04 #@! TO.P,J1,1,Pin_1*
G04 #@! TO.N,/D3*
X194919999Y-106552999D03*
D11*
G04 #@! TO.P,J1,2,Pin_2*
G04 #@! TO.N,GND*
X194919999Y-104012999D03*
G04 #@! TO.P,J1,3,Pin_3*
G04 #@! TO.N,/D4*
X197459999Y-106552999D03*
G04 #@! TO.P,J1,4,Pin_4*
G04 #@! TO.N,GND*
X197459999Y-104012999D03*
G04 #@! TO.P,J1,5,Pin_5*
G04 #@! TO.N,/D2*
X199999999Y-106552999D03*
G04 #@! TO.P,J1,6,Pin_6*
G04 #@! TO.N,GND*
X199999999Y-104012999D03*
G04 #@! TO.P,J1,7,Pin_7*
G04 #@! TO.N,/D5*
X202539999Y-106552999D03*
G04 #@! TO.P,J1,8,Pin_8*
G04 #@! TO.N,GND*
X202539999Y-104012999D03*
G04 #@! TO.P,J1,9,Pin_9*
G04 #@! TO.N,/D1*
X205079999Y-106552999D03*
G04 #@! TO.P,J1,10,Pin_10*
G04 #@! TO.N,GND*
X205079999Y-104012999D03*
G04 #@! TO.P,J1,11,Pin_11*
G04 #@! TO.N,/D6*
X207619999Y-106552999D03*
G04 #@! TO.P,J1,12,Pin_12*
G04 #@! TO.N,GND*
X207619999Y-104012999D03*
G04 #@! TO.P,J1,13,Pin_13*
G04 #@! TO.N,/D7*
X210159999Y-106552999D03*
G04 #@! TO.P,J1,14,Pin_14*
G04 #@! TO.N,VBUS*
X210159999Y-104012999D03*
G04 #@! TD*
D10*
G04 #@! TO.P,J2,1,Pin_1*
G04 #@! TO.N,GND*
X199389999Y-86867999D03*
D11*
G04 #@! TO.P,J2,2,Pin_2*
G04 #@! TO.N,/SEL*
X199389999Y-84327999D03*
G04 #@! TO.P,J2,3,Pin_3*
G04 #@! TO.N,VBUS*
X201929999Y-86867999D03*
G04 #@! TO.P,J2,4,Pin_4*
G04 #@! TO.N,/VBUSA*
X201929999Y-84327999D03*
G04 #@! TO.P,J2,5,Pin_5*
G04 #@! TO.N,VBUS*
X204469999Y-86867999D03*
G04 #@! TO.P,J2,6,Pin_6*
G04 #@! TO.N,/VBUSB*
X204469999Y-84327999D03*
G04 #@! TD*
D12*
G04 #@! TO.P,C2,1*
G04 #@! TO.N,VBUS*
X212532000Y-91948000D03*
G04 #@! TO.P,C2,2*
G04 #@! TO.N,GND*
X210632000Y-91948000D03*
G04 #@! TD*
D13*
G04 #@! TO.P,H1,1,1*
G04 #@! TO.N,GND*
X181730000Y-75000000D03*
D14*
X181730000Y-75000000D03*
G04 #@! TD*
D10*
G04 #@! TO.P,J3,1,Pin_1*
G04 #@! TO.N,/S3A*
X182999999Y-97744999D03*
D11*
G04 #@! TO.P,J3,2,Pin_2*
G04 #@! TO.N,GND*
X180459999Y-97744999D03*
G04 #@! TO.P,J3,3,Pin_3*
G04 #@! TO.N,/S4A*
X182999999Y-95204999D03*
G04 #@! TO.P,J3,4,Pin_4*
G04 #@! TO.N,GND*
X180459999Y-95204999D03*
G04 #@! TO.P,J3,5,Pin_5*
G04 #@! TO.N,/S2A*
X182999999Y-92664999D03*
G04 #@! TO.P,J3,6,Pin_6*
G04 #@! TO.N,GND*
X180459999Y-92664999D03*
G04 #@! TO.P,J3,7,Pin_7*
G04 #@! TO.N,/S5A*
X182999999Y-90124999D03*
G04 #@! TO.P,J3,8,Pin_8*
G04 #@! TO.N,GND*
X180459999Y-90124999D03*
G04 #@! TO.P,J3,9,Pin_9*
G04 #@! TO.N,/S1A*
X182999999Y-87584999D03*
G04 #@! TO.P,J3,10,Pin_10*
G04 #@! TO.N,GND*
X180459999Y-87584999D03*
G04 #@! TO.P,J3,11,Pin_11*
G04 #@! TO.N,/S6A*
X182999999Y-85044999D03*
G04 #@! TO.P,J3,12,Pin_12*
G04 #@! TO.N,GND*
X180459999Y-85044999D03*
G04 #@! TO.P,J3,13,Pin_13*
G04 #@! TO.N,/S7A*
X182999999Y-82504999D03*
G04 #@! TO.P,J3,14,Pin_14*
G04 #@! TO.N,/VBUSA*
X180459999Y-82504999D03*
G04 #@! TD*
D15*
G04 #@! TO.P,IC2,1,SEL*
G04 #@! TO.N,/SEL*
X206611999Y-93990999D03*
G04 #@! TO.P,IC2,2,S1A*
G04 #@! TO.N,/S1A*
X206611999Y-94640999D03*
G04 #@! TO.P,IC2,3,S1B*
G04 #@! TO.N,/S1B*
X206611999Y-95290999D03*
G04 #@! TO.P,IC2,4,D1*
G04 #@! TO.N,/D1*
X206611999Y-95940999D03*
G04 #@! TO.P,IC2,5,S2A*
G04 #@! TO.N,/S5A*
X206611999Y-96590999D03*
G04 #@! TO.P,IC2,6,S2B*
G04 #@! TO.N,/S5B*
X206611999Y-97240999D03*
G04 #@! TO.P,IC2,7,D2*
G04 #@! TO.N,/D5*
X206611999Y-97890999D03*
G04 #@! TO.P,IC2,8,GND*
G04 #@! TO.N,GND*
X206611999Y-98540999D03*
G04 #@! TO.P,IC2,9,D3*
G04 #@! TO.N,/D7*
X212487999Y-98540999D03*
G04 #@! TO.P,IC2,10,S3B*
G04 #@! TO.N,/S7B*
X212487999Y-97890999D03*
G04 #@! TO.P,IC2,11,S3A*
G04 #@! TO.N,/S7A*
X212487999Y-97240999D03*
G04 #@! TO.P,IC2,12,D4*
G04 #@! TO.N,/D6*
X212487999Y-96590999D03*
G04 #@! TO.P,IC2,13,S4B*
G04 #@! TO.N,/S6B*
X212487999Y-95940999D03*
G04 #@! TO.P,IC2,14,S4A*
G04 #@! TO.N,/S6A*
X212487999Y-95290999D03*
G04 #@! TO.P,IC2,15,~{EN}*
G04 #@! TO.N,GND*
X212487999Y-94640999D03*
G04 #@! TO.P,IC2,16,VDD*
G04 #@! TO.N,VBUS*
X212487999Y-93990999D03*
G04 #@! TD*
D13*
G04 #@! TO.P,H4,1,1*
G04 #@! TO.N,GND*
X223350000Y-75000000D03*
D14*
X223350000Y-75000000D03*
G04 #@! TD*
D11*
G04 #@! TO.P,J4,14,Pin_14*
G04 #@! TO.N,/VBUSB*
X224619999Y-97834999D03*
G04 #@! TO.P,J4,13,Pin_13*
G04 #@! TO.N,/S7B*
X222079999Y-97834999D03*
G04 #@! TO.P,J4,12,Pin_12*
G04 #@! TO.N,GND*
X224619999Y-95294999D03*
G04 #@! TO.P,J4,11,Pin_11*
G04 #@! TO.N,/S6B*
X222079999Y-95294999D03*
G04 #@! TO.P,J4,10,Pin_10*
G04 #@! TO.N,GND*
X224619999Y-92754999D03*
G04 #@! TO.P,J4,9,Pin_9*
G04 #@! TO.N,/S1B*
X222079999Y-92754999D03*
G04 #@! TO.P,J4,8,Pin_8*
G04 #@! TO.N,GND*
X224619999Y-90214999D03*
G04 #@! TO.P,J4,7,Pin_7*
G04 #@! TO.N,/S5B*
X222079999Y-90214999D03*
G04 #@! TO.P,J4,6,Pin_6*
G04 #@! TO.N,GND*
X224619999Y-87674999D03*
G04 #@! TO.P,J4,5,Pin_5*
G04 #@! TO.N,/S2B*
X222079999Y-87674999D03*
G04 #@! TO.P,J4,4,Pin_4*
G04 #@! TO.N,GND*
X224619999Y-85134999D03*
G04 #@! TO.P,J4,3,Pin_3*
G04 #@! TO.N,/S4B*
X222079999Y-85134999D03*
G04 #@! TO.P,J4,2,Pin_2*
G04 #@! TO.N,GND*
X224619999Y-82594999D03*
D10*
G04 #@! TO.P,J4,1,Pin_1*
G04 #@! TO.N,/S3B*
X222079999Y-82594999D03*
G04 #@! TD*
D13*
G04 #@! TO.P,H2,1,1*
G04 #@! TO.N,GND*
X181730000Y-105250000D03*
D14*
X181730000Y-105250000D03*
G04 #@! TD*
D15*
G04 #@! TO.P,IC1,1,SEL*
G04 #@! TO.N,/SEL*
X192387999Y-93990999D03*
G04 #@! TO.P,IC1,2,S1A*
G04 #@! TO.N,/S4A*
X192387999Y-94640999D03*
G04 #@! TO.P,IC1,3,S1B*
G04 #@! TO.N,/S4B*
X192387999Y-95290999D03*
G04 #@! TO.P,IC1,4,D1*
G04 #@! TO.N,/D4*
X192387999Y-95940999D03*
G04 #@! TO.P,IC1,5,S2A*
G04 #@! TO.N,/S3A*
X192387999Y-96590999D03*
G04 #@! TO.P,IC1,6,S2B*
G04 #@! TO.N,/S3B*
X192387999Y-97240999D03*
G04 #@! TO.P,IC1,7,D2*
G04 #@! TO.N,/D3*
X192387999Y-97890999D03*
G04 #@! TO.P,IC1,8,GND*
G04 #@! TO.N,GND*
X192387999Y-98540999D03*
G04 #@! TO.P,IC1,9,D3*
G04 #@! TO.N,/D2*
X198263999Y-98540999D03*
G04 #@! TO.P,IC1,10,S3B*
G04 #@! TO.N,/S2B*
X198263999Y-97890999D03*
G04 #@! TO.P,IC1,11,S3A*
G04 #@! TO.N,/S2A*
X198263999Y-97240999D03*
G04 #@! TO.P,IC1,12,D4*
G04 #@! TO.N,GND*
X198263999Y-96590999D03*
G04 #@! TO.P,IC1,13,S4B*
X198263999Y-95940999D03*
G04 #@! TO.P,IC1,14,S4A*
X198263999Y-95290999D03*
G04 #@! TO.P,IC1,15,~{EN}*
X198263999Y-94640999D03*
G04 #@! TO.P,IC1,16,VDD*
G04 #@! TO.N,VBUS*
X198263999Y-93990999D03*
G04 #@! TD*
D13*
G04 #@! TO.P,H3,1,1*
G04 #@! TO.N,GND*
X223350000Y-105250000D03*
D14*
X223350000Y-105250000D03*
G04 #@! TD*
D12*
G04 #@! TO.P,C1,1*
G04 #@! TO.N,VBUS*
X198308000Y-91948000D03*
G04 #@! TO.P,C1,2*
G04 #@! TO.N,GND*
X196408000Y-91948000D03*
G04 #@! TD*
D16*
G04 #@! TO.P,R1,1*
G04 #@! TO.N,VBUS*
X195961000Y-86129500D03*
G04 #@! TO.P,R1,2*
G04 #@! TO.N,/SEL*
X195961000Y-84304500D03*
G04 #@! TD*
D17*
G04 #@! TO.N,GND*
X191897000Y-86995000D03*
X209423000Y-92202000D03*
G04 #@! TO.N,VBUS*
X198247000Y-90424000D03*
X199517000Y-91948000D03*
G04 #@! TO.N,GND*
X205232000Y-88900000D03*
X188341000Y-93853000D03*
X199644000Y-94615000D03*
X204978000Y-100076000D03*
X210566000Y-94234000D03*
X210566000Y-90207500D03*
X195072000Y-91948000D03*
X187579000Y-95631000D03*
X196469000Y-90504500D03*
X213868000Y-94615000D03*
X196596000Y-94615000D03*
X190754000Y-95631000D03*
G04 #@! TO.N,/SEL*
X191008000Y-93853000D03*
X194504261Y-88434501D03*
G04 #@! TO.N,/S5B*
X208153000Y-97282000D03*
G04 #@! TO.N,/S7A*
X210837799Y-98278299D03*
G04 #@! TO.N,/S1B*
X208029083Y-95216500D03*
X215646000Y-92710000D03*
G04 #@! TO.N,/S2B*
X200025000Y-97917000D03*
G04 #@! TO.N,/S3B*
X194056000Y-97155000D03*
G04 #@! TO.N,/S4B*
X193929000Y-95123000D03*
X211455000Y-85135000D03*
G04 #@! TD*
D18*
G04 #@! TO.N,/S3A*
X192388000Y-96591000D02*
X184154000Y-96591000D01*
X184154000Y-96591000D02*
X183000000Y-97745000D01*
G04 #@! TO.N,/S4A*
X183000000Y-95205000D02*
X183564000Y-94641000D01*
X183564000Y-94641000D02*
X192388000Y-94641000D01*
G04 #@! TO.N,/S2A*
X198264000Y-97241000D02*
X197250500Y-97241000D01*
X197250500Y-97241000D02*
X192674500Y-92665000D01*
X192674500Y-92665000D02*
X183000000Y-92665000D01*
G04 #@! TO.N,/S5A*
X206612000Y-96591000D02*
X205624500Y-96591000D01*
X205624500Y-96591000D02*
X198642002Y-89608502D01*
X198642002Y-89608502D02*
X195961000Y-89608502D01*
X195961000Y-89608502D02*
X195444502Y-90125000D01*
X195444502Y-90125000D02*
X183000000Y-90125000D01*
G04 #@! TO.N,/S1A*
X206612000Y-94641000D02*
X205624500Y-94641000D01*
X200142501Y-89159001D02*
X184574001Y-89159001D01*
X205624500Y-94641000D02*
X200142501Y-89159001D01*
X184574001Y-89159001D02*
X183000000Y-87585000D01*
G04 #@! TO.N,/S6A*
X212488000Y-95291000D02*
X209719380Y-95291000D01*
X202566380Y-88138000D02*
X195962380Y-88138000D01*
X209719380Y-95291000D02*
X202566380Y-88138000D01*
X195962380Y-88138000D02*
X192869380Y-85045000D01*
X192869380Y-85045000D02*
X183000000Y-85045000D01*
D19*
G04 #@! TO.N,/VBUSA*
X180460000Y-82505000D02*
X182066000Y-80899000D01*
X182066000Y-80899000D02*
X198501000Y-80899000D01*
X198501000Y-80899000D02*
X201930000Y-84328000D01*
G04 #@! TO.N,/VBUSB*
X204470000Y-84328000D02*
X208280000Y-80518000D01*
X208280000Y-80518000D02*
X225552000Y-80518000D01*
X225552000Y-80518000D02*
X226441000Y-81407000D01*
X226441000Y-81407000D02*
X226441000Y-96014000D01*
X226441000Y-96014000D02*
X224620000Y-97835000D01*
D18*
G04 #@! TO.N,/S7B*
X212488000Y-97891000D02*
X213475500Y-97891000D01*
X213475500Y-97891000D02*
X213531500Y-97835000D01*
X213531500Y-97835000D02*
X222080000Y-97835000D01*
G04 #@! TO.N,/S6B*
X212488000Y-95941000D02*
X216797500Y-95941000D01*
X216797500Y-95941000D02*
X217443500Y-95295000D01*
X217443500Y-95295000D02*
X222080000Y-95295000D01*
G04 #@! TO.N,/S1B*
X222080000Y-92755000D02*
X215691000Y-92755000D01*
X215691000Y-92755000D02*
X215646000Y-92710000D01*
G04 #@! TO.N,/S4B*
X211455000Y-85135000D02*
X222080000Y-85135000D01*
G04 #@! TO.N,/D1*
X206612000Y-95941000D02*
X208150152Y-95941000D01*
X206445000Y-101403000D02*
X206445000Y-105188000D01*
X208150152Y-95941000D02*
X208915000Y-96705848D01*
X208915000Y-96705848D02*
X208915000Y-98933000D01*
X208915000Y-98933000D02*
X206445000Y-101403000D01*
X206445000Y-105188000D02*
X205080000Y-106553000D01*
G04 #@! TO.N,/D3*
X192388000Y-97891000D02*
X193375500Y-97891000D01*
X193375500Y-97891000D02*
X193548000Y-98063500D01*
X193548000Y-98063500D02*
X193548000Y-105181000D01*
X193548000Y-105181000D02*
X194920000Y-106553000D01*
G04 #@! TO.N,/D4*
X192388000Y-95941000D02*
X194002903Y-95941000D01*
X194002903Y-95941000D02*
X196095000Y-98033097D01*
X196095000Y-98033097D02*
X196095000Y-105188000D01*
X196095000Y-105188000D02*
X197460000Y-106553000D01*
G04 #@! TO.N,/D2*
X198264000Y-98541000D02*
X198825000Y-99102000D01*
X198825000Y-99102000D02*
X198825000Y-105378000D01*
X198825000Y-105378000D02*
X200000000Y-106553000D01*
G04 #@! TO.N,/D5*
X206612000Y-97891000D02*
X205624500Y-97891000D01*
X205624500Y-97891000D02*
X203905000Y-99610500D01*
X203905000Y-99610500D02*
X203905000Y-105188000D01*
X203905000Y-105188000D02*
X202540000Y-106553000D01*
G04 #@! TO.N,/D6*
X212488000Y-96591000D02*
X211500500Y-96591000D01*
X211500500Y-96591000D02*
X209491501Y-98599999D01*
X209491501Y-98599999D02*
X209491501Y-100515499D01*
X209491501Y-100515499D02*
X208915000Y-101092000D01*
X208915000Y-101092000D02*
X208915000Y-105258000D01*
X208915000Y-105258000D02*
X207620000Y-106553000D01*
G04 #@! TO.N,/S7A*
X212488000Y-97241000D02*
X211500500Y-97241000D01*
X211500500Y-97241000D02*
X210837799Y-97903701D01*
X210837799Y-97903701D02*
X210837799Y-98278299D01*
G04 #@! TO.N,/D7*
X212488000Y-98541000D02*
X212488000Y-104225000D01*
X212488000Y-104225000D02*
X210160000Y-106553000D01*
G04 #@! TO.N,/SEL*
X194715760Y-88646000D02*
X194504261Y-88434501D01*
X206612000Y-93991000D02*
X201267000Y-88646000D01*
X201267000Y-88646000D02*
X194715760Y-88646000D01*
D20*
G04 #@! TO.N,VBUS*
X204470000Y-86868000D02*
X208915000Y-86868000D01*
X208915000Y-86868000D02*
X212532000Y-90485000D01*
X212532000Y-90485000D02*
X212532000Y-91948000D01*
D21*
X212532000Y-91948000D02*
X212532000Y-93947000D01*
X198308000Y-91948000D02*
X198308000Y-93947000D01*
D19*
X196472500Y-85618000D02*
X200680000Y-85618000D01*
X198308000Y-90485000D02*
X198247000Y-90424000D01*
X198308000Y-93947000D02*
X198264000Y-93991000D01*
X212532000Y-93947000D02*
X212488000Y-93991000D01*
X200680000Y-85618000D02*
X201930000Y-86868000D01*
X195961000Y-86129500D02*
X196472500Y-85618000D01*
D20*
X198308000Y-91948000D02*
X199517000Y-91948000D01*
X198308000Y-91948000D02*
X198308000Y-90485000D01*
D19*
G04 #@! TO.N,GND*
X206513000Y-98541000D02*
X204978000Y-100076000D01*
X206612000Y-98541000D02*
X206513000Y-98541000D01*
D18*
G04 #@! TO.N,/SEL*
X191008000Y-93853000D02*
X192250000Y-93853000D01*
X195961000Y-84304500D02*
X195984500Y-84328000D01*
X195984500Y-84328000D02*
X199390000Y-84328000D01*
X192250000Y-93853000D02*
X192388000Y-93991000D01*
G04 #@! TO.N,/S5B*
X206612000Y-97241000D02*
X208153000Y-97282000D01*
G04 #@! TO.N,/S1B*
X206612000Y-95291000D02*
X207958346Y-95291000D01*
G04 #@! TO.N,/S2B*
X200025000Y-97917000D02*
X198290000Y-97917000D01*
X198290000Y-97917000D02*
X198264000Y-97891000D01*
G04 #@! TO.N,/S3B*
X193970000Y-97241000D02*
X194056000Y-97155000D01*
X192388000Y-97241000D02*
X193970000Y-97241000D01*
G04 #@! TO.N,/S4B*
X193634000Y-95291000D02*
X193802000Y-95123000D01*
X192388000Y-95291000D02*
X193634000Y-95291000D01*
G04 #@! TD*
G04 #@! TA.AperFunction,Conductor*
G04 #@! TO.N,GND*
G36*
X198223000Y-86089381D02*
G01*
X198269119Y-86135500D01*
X198286000Y-86198500D01*
X198286000Y-86597410D01*
X198289506Y-86610493D01*
X198302590Y-86614000D01*
X200477409Y-86614000D01*
X200490492Y-86610493D01*
X200493999Y-86597410D01*
X200493999Y-86378951D01*
X200507732Y-86321748D01*
X200545938Y-86277015D01*
X200600288Y-86254502D01*
X200658935Y-86259118D01*
X200709094Y-86289856D01*
X200841289Y-86422051D01*
X200874148Y-86479472D01*
X200873385Y-86545626D01*
X200841248Y-86658578D01*
X200841246Y-86658584D01*
X200839655Y-86664179D01*
X200839118Y-86669972D01*
X200839116Y-86669984D01*
X200823112Y-86842703D01*
X200820768Y-86868000D01*
X200821306Y-86873806D01*
X200839116Y-87066015D01*
X200839117Y-87066025D01*
X200839655Y-87071821D01*
X200841249Y-87077426D01*
X200841250Y-87077427D01*
X200871657Y-87184299D01*
X200895672Y-87268701D01*
X200986912Y-87451935D01*
X200990421Y-87456582D01*
X200990422Y-87456583D01*
X201065927Y-87556568D01*
X201090840Y-87620874D01*
X201078168Y-87688663D01*
X201031707Y-87739627D01*
X200965377Y-87758500D01*
X200620000Y-87758500D01*
X200557000Y-87741619D01*
X200510881Y-87695500D01*
X200494000Y-87632500D01*
X200494000Y-87138590D01*
X200490493Y-87125506D01*
X200477410Y-87122000D01*
X198302591Y-87122000D01*
X198289507Y-87125506D01*
X198286001Y-87138590D01*
X198286001Y-87632500D01*
X198269120Y-87695500D01*
X198223001Y-87741619D01*
X198160001Y-87758500D01*
X196171764Y-87758500D01*
X196123546Y-87748909D01*
X196082669Y-87721595D01*
X195472668Y-87111594D01*
X195441930Y-87061435D01*
X195437314Y-87002788D01*
X195459827Y-86948438D01*
X195504560Y-86910232D01*
X195561759Y-86896499D01*
X196459254Y-86896499D01*
X196519342Y-86890040D01*
X196655267Y-86839342D01*
X196771404Y-86752404D01*
X196858342Y-86636267D01*
X196909040Y-86500342D01*
X196915500Y-86440255D01*
X196915499Y-86198499D01*
X196932380Y-86135500D01*
X196978499Y-86089381D01*
X197041499Y-86072500D01*
X198160000Y-86072500D01*
X198223000Y-86089381D01*
G37*
G04 #@! TD.AperFunction*
G04 #@! TA.AperFunction,Conductor*
G36*
X194819521Y-97315991D02*
G01*
X194872952Y-97347743D01*
X195678595Y-98153386D01*
X195705909Y-98194263D01*
X195715500Y-98242481D01*
X195715500Y-102980847D01*
X195698131Y-103044685D01*
X195650812Y-103090923D01*
X195586590Y-103106813D01*
X195523170Y-103087975D01*
X195419153Y-103023571D01*
X195408771Y-103018401D01*
X195228853Y-102948700D01*
X195217692Y-102945524D01*
X195187641Y-102939907D01*
X195176440Y-102940295D01*
X195174000Y-102951237D01*
X195174000Y-105074763D01*
X195176440Y-105085704D01*
X195187641Y-105086092D01*
X195217692Y-105080475D01*
X195228853Y-105077299D01*
X195408771Y-105007598D01*
X195419153Y-105002428D01*
X195523170Y-104938025D01*
X195586590Y-104919187D01*
X195650812Y-104935077D01*
X195698131Y-104981315D01*
X195715500Y-105045153D01*
X195715500Y-105135574D01*
X195712818Y-105161430D01*
X195710581Y-105172100D01*
X195711872Y-105182457D01*
X195711872Y-105182460D01*
X195714532Y-105203796D01*
X195714858Y-105209057D01*
X195715070Y-105209040D01*
X195715500Y-105214233D01*
X195715500Y-105219443D01*
X195716356Y-105224574D01*
X195716357Y-105224584D01*
X195718956Y-105240160D01*
X195719705Y-105245303D01*
X195726248Y-105297781D01*
X195725341Y-105297894D01*
X195727994Y-105344523D01*
X195704943Y-105397820D01*
X195660439Y-105435120D01*
X195603934Y-105448500D01*
X194404384Y-105448500D01*
X194356166Y-105438909D01*
X194315289Y-105411595D01*
X193964405Y-105060711D01*
X193937091Y-105019834D01*
X193927500Y-104971616D01*
X193927500Y-104887473D01*
X193940709Y-104831310D01*
X193977568Y-104786923D01*
X194030348Y-104763618D01*
X194087982Y-104766283D01*
X194138386Y-104794358D01*
X194247533Y-104893859D01*
X194256796Y-104900854D01*
X194420846Y-105002428D01*
X194431228Y-105007598D01*
X194611146Y-105077299D01*
X194622307Y-105080475D01*
X194652358Y-105086092D01*
X194663559Y-105085704D01*
X194666000Y-105074763D01*
X194666000Y-102951237D01*
X194663559Y-102940295D01*
X194652358Y-102939907D01*
X194622307Y-102945524D01*
X194611146Y-102948700D01*
X194431228Y-103018401D01*
X194420846Y-103023571D01*
X194256796Y-103125145D01*
X194247533Y-103132140D01*
X194138386Y-103231642D01*
X194087982Y-103259717D01*
X194030348Y-103262382D01*
X193977568Y-103239077D01*
X193940709Y-103194690D01*
X193927500Y-103138527D01*
X193927500Y-98115926D01*
X193930182Y-98090067D01*
X193932419Y-98079400D01*
X193928468Y-98047704D01*
X193928141Y-98042447D01*
X193927931Y-98042465D01*
X193927500Y-98037269D01*
X193927500Y-98032057D01*
X193924039Y-98011317D01*
X193923294Y-98006201D01*
X193922833Y-98002506D01*
X193916752Y-97953718D01*
X193916751Y-97953717D01*
X193919213Y-97953410D01*
X193916937Y-97913491D01*
X193939985Y-97860188D01*
X193984490Y-97822883D01*
X194041000Y-97809500D01*
X194127854Y-97809500D01*
X194135471Y-97809500D01*
X194289793Y-97771463D01*
X194430529Y-97697599D01*
X194549498Y-97592201D01*
X194639787Y-97461395D01*
X194666044Y-97392159D01*
X194701737Y-97341275D01*
X194757412Y-97313644D01*
X194819521Y-97315991D01*
G37*
G04 #@! TD.AperFunction*
G04 #@! TA.AperFunction,Conductor*
G36*
X227276500Y-71277381D02*
G01*
X227322619Y-71323500D01*
X227339500Y-71386500D01*
X227339500Y-109113500D01*
X227322619Y-109176500D01*
X227276500Y-109222619D01*
X227213500Y-109239500D01*
X177866500Y-109239500D01*
X177803500Y-109222619D01*
X177757381Y-109176500D01*
X177740500Y-109113500D01*
X177740500Y-107867911D01*
X179476383Y-107867911D01*
X179483481Y-107879589D01*
X179488159Y-107884020D01*
X179493363Y-107888441D01*
X179786089Y-108110966D01*
X179791745Y-108114801D01*
X180106821Y-108304376D01*
X180112830Y-108307562D01*
X180446565Y-108461964D01*
X180452907Y-108464490D01*
X180801363Y-108581899D01*
X180807935Y-108583724D01*
X181167052Y-108662771D01*
X181173776Y-108663873D01*
X181539331Y-108703630D01*
X181546145Y-108704000D01*
X181913855Y-108704000D01*
X181920668Y-108703630D01*
X182286223Y-108663873D01*
X182292947Y-108662771D01*
X182652064Y-108583724D01*
X182658636Y-108581899D01*
X183007092Y-108464490D01*
X183013434Y-108461964D01*
X183347169Y-108307562D01*
X183353178Y-108304376D01*
X183668254Y-108114801D01*
X183673910Y-108110966D01*
X183966643Y-107888435D01*
X183971829Y-107884031D01*
X183976521Y-107879586D01*
X183983616Y-107867913D01*
X183983615Y-107867911D01*
X221096383Y-107867911D01*
X221103481Y-107879589D01*
X221108159Y-107884020D01*
X221113363Y-107888441D01*
X221406089Y-108110966D01*
X221411745Y-108114801D01*
X221726821Y-108304376D01*
X221732830Y-108307562D01*
X222066565Y-108461964D01*
X222072907Y-108464490D01*
X222421363Y-108581899D01*
X222427935Y-108583724D01*
X222787052Y-108662771D01*
X222793776Y-108663873D01*
X223159331Y-108703630D01*
X223166145Y-108704000D01*
X223533855Y-108704000D01*
X223540668Y-108703630D01*
X223906223Y-108663873D01*
X223912947Y-108662771D01*
X224272064Y-108583724D01*
X224278636Y-108581899D01*
X224627092Y-108464490D01*
X224633434Y-108461964D01*
X224967169Y-108307562D01*
X224973178Y-108304376D01*
X225288254Y-108114801D01*
X225293910Y-108110966D01*
X225586643Y-107888435D01*
X225591829Y-107884031D01*
X225596521Y-107879586D01*
X225603616Y-107867913D01*
X225596835Y-107856045D01*
X223361729Y-105620939D01*
X223350000Y-105614167D01*
X223338270Y-105620939D01*
X221103162Y-107856046D01*
X221096383Y-107867911D01*
X183983615Y-107867911D01*
X183976835Y-107856045D01*
X181741729Y-105620939D01*
X181730000Y-105614167D01*
X181718270Y-105620939D01*
X179483162Y-107856046D01*
X179476383Y-107867911D01*
X177740500Y-107867911D01*
X177740500Y-105253412D01*
X178271112Y-105253412D01*
X178291018Y-105620572D01*
X178291757Y-105627369D01*
X178351245Y-105990224D01*
X178352712Y-105996892D01*
X178451086Y-106351200D01*
X178453261Y-106357656D01*
X178589368Y-106699260D01*
X178592224Y-106705435D01*
X178764471Y-107030327D01*
X178767979Y-107036157D01*
X178974340Y-107340516D01*
X178978469Y-107345947D01*
X179103287Y-107492895D01*
X179114814Y-107500634D01*
X179126935Y-107493853D01*
X181359060Y-105261729D01*
X181365832Y-105250000D01*
X181365831Y-105249999D01*
X182094167Y-105249999D01*
X182100939Y-105261729D01*
X184333063Y-107493853D01*
X184345184Y-107500634D01*
X184356711Y-107492894D01*
X184481531Y-107345947D01*
X184485659Y-107340516D01*
X184692020Y-107036157D01*
X184695528Y-107030327D01*
X184867775Y-106705435D01*
X184870631Y-106699260D01*
X185006738Y-106357656D01*
X185008913Y-106351200D01*
X185107287Y-105996892D01*
X185108754Y-105990224D01*
X185168242Y-105627369D01*
X185168981Y-105620572D01*
X185188888Y-105253412D01*
X185188888Y-105246588D01*
X185168981Y-104879427D01*
X185168242Y-104872630D01*
X185108754Y-104509775D01*
X185107287Y-104503107D01*
X185008913Y-104148799D01*
X185006738Y-104142343D01*
X184870631Y-103800739D01*
X184867775Y-103794564D01*
X184695528Y-103469672D01*
X184692020Y-103463842D01*
X184485659Y-103159483D01*
X184481531Y-103154052D01*
X184356711Y-103007103D01*
X184345184Y-102999364D01*
X184333063Y-103006145D01*
X182100939Y-105238270D01*
X182094167Y-105249999D01*
X181365831Y-105249999D01*
X181359060Y-105238270D01*
X179126934Y-103006144D01*
X179114814Y-102999363D01*
X179103288Y-103007103D01*
X178978469Y-103154051D01*
X178974338Y-103159485D01*
X178767979Y-103463842D01*
X178764471Y-103469672D01*
X178592224Y-103794564D01*
X178589368Y-103800739D01*
X178453261Y-104142343D01*
X178451086Y-104148799D01*
X178352712Y-104503107D01*
X178351245Y-104509775D01*
X178291757Y-104872630D01*
X178291018Y-104879427D01*
X178271112Y-105246588D01*
X178271112Y-105253412D01*
X177740500Y-105253412D01*
X177740500Y-102632086D01*
X179476382Y-102632086D01*
X179483161Y-102643951D01*
X181718270Y-104879060D01*
X181730000Y-104885832D01*
X181741729Y-104879060D01*
X183976836Y-102643952D01*
X183983615Y-102632087D01*
X183976517Y-102620409D01*
X183971840Y-102615979D01*
X183966636Y-102611558D01*
X183673910Y-102389033D01*
X183668254Y-102385198D01*
X183353178Y-102195623D01*
X183347169Y-102192437D01*
X183013434Y-102038035D01*
X183007092Y-102035509D01*
X182658636Y-101918100D01*
X182652064Y-101916275D01*
X182292947Y-101837228D01*
X182286223Y-101836126D01*
X181920668Y-101796369D01*
X181913855Y-101796000D01*
X181546145Y-101796000D01*
X181539331Y-101796369D01*
X181173776Y-101836126D01*
X181167052Y-101837228D01*
X180807935Y-101916275D01*
X180801363Y-101918100D01*
X180452907Y-102035509D01*
X180446565Y-102038035D01*
X180112830Y-102192437D01*
X180106821Y-102195623D01*
X179791745Y-102385198D01*
X179786089Y-102389033D01*
X179493360Y-102611560D01*
X179488167Y-102615971D01*
X179483478Y-102620412D01*
X179476382Y-102632086D01*
X177740500Y-102632086D01*
X177740500Y-98001620D01*
X179387922Y-98001620D01*
X179388451Y-98013061D01*
X179424546Y-98139918D01*
X179428734Y-98150729D01*
X179514742Y-98323456D01*
X179520850Y-98333321D01*
X179637126Y-98487296D01*
X179644944Y-98495872D01*
X179787533Y-98625859D01*
X179796796Y-98632854D01*
X179960846Y-98734428D01*
X179971228Y-98739598D01*
X180151146Y-98809299D01*
X180162307Y-98812475D01*
X180192358Y-98818092D01*
X180203559Y-98817704D01*
X180206000Y-98806763D01*
X180714000Y-98806763D01*
X180716440Y-98817704D01*
X180727641Y-98818092D01*
X180757692Y-98812475D01*
X180768853Y-98809299D01*
X180948771Y-98739598D01*
X180959153Y-98734428D01*
X181123203Y-98632854D01*
X181132466Y-98625859D01*
X181275055Y-98495872D01*
X181282873Y-98487296D01*
X181399149Y-98333321D01*
X181405257Y-98323456D01*
X181491265Y-98150729D01*
X181495453Y-98139918D01*
X181531548Y-98013061D01*
X181532077Y-98001620D01*
X181520933Y-97999000D01*
X180730590Y-97999000D01*
X180717506Y-98002506D01*
X180714000Y-98015590D01*
X180714000Y-98806763D01*
X180206000Y-98806763D01*
X180206000Y-98015590D01*
X180202493Y-98002506D01*
X180189410Y-97999000D01*
X179399067Y-97999000D01*
X179387922Y-98001620D01*
X177740500Y-98001620D01*
X177740500Y-97488379D01*
X179387922Y-97488379D01*
X179399067Y-97491000D01*
X180189410Y-97491000D01*
X180202493Y-97487493D01*
X180206000Y-97474410D01*
X180714000Y-97474410D01*
X180717506Y-97487493D01*
X180730590Y-97491000D01*
X181520933Y-97491000D01*
X181532077Y-97488379D01*
X181531548Y-97476938D01*
X181495453Y-97350081D01*
X181491265Y-97339270D01*
X181405257Y-97166543D01*
X181399149Y-97156678D01*
X181282873Y-97002703D01*
X181275055Y-96994127D01*
X181132466Y-96864140D01*
X181123203Y-96857145D01*
X180959153Y-96755571D01*
X180948771Y-96750401D01*
X180768853Y-96680700D01*
X180757692Y-96677524D01*
X180727641Y-96671907D01*
X180716440Y-96672295D01*
X180714000Y-96683237D01*
X180714000Y-97474410D01*
X180206000Y-97474410D01*
X180206000Y-96683237D01*
X180203559Y-96672295D01*
X180192358Y-96671907D01*
X180162307Y-96677524D01*
X180151146Y-96680700D01*
X179971228Y-96750401D01*
X179960846Y-96755571D01*
X179796796Y-96857145D01*
X179787533Y-96864140D01*
X179644944Y-96994127D01*
X179637126Y-97002703D01*
X179520850Y-97156678D01*
X179514742Y-97166543D01*
X179428734Y-97339270D01*
X179424546Y-97350081D01*
X179388451Y-97476938D01*
X179387922Y-97488379D01*
X177740500Y-97488379D01*
X177740500Y-95461620D01*
X179387922Y-95461620D01*
X179388451Y-95473061D01*
X179424546Y-95599918D01*
X179428734Y-95610729D01*
X179514742Y-95783456D01*
X179520850Y-95793321D01*
X179637126Y-95947296D01*
X179644944Y-95955872D01*
X179787533Y-96085859D01*
X179796796Y-96092854D01*
X179960846Y-96194428D01*
X179971228Y-96199598D01*
X180151146Y-96269299D01*
X180162307Y-96272475D01*
X180192358Y-96278092D01*
X180203559Y-96277704D01*
X180206000Y-96266763D01*
X180714000Y-96266763D01*
X180716440Y-96277704D01*
X180727641Y-96278092D01*
X180757692Y-96272475D01*
X180768853Y-96269299D01*
X180948771Y-96199598D01*
X180959153Y-96194428D01*
X181123203Y-96092854D01*
X181132466Y-96085859D01*
X181275055Y-95955872D01*
X181282873Y-95947296D01*
X181399149Y-95793321D01*
X181405257Y-95783456D01*
X181491265Y-95610729D01*
X181495453Y-95599918D01*
X181531548Y-95473061D01*
X181532077Y-95461620D01*
X181520933Y-95459000D01*
X180730590Y-95459000D01*
X180717506Y-95462506D01*
X180714000Y-95475590D01*
X180714000Y-96266763D01*
X180206000Y-96266763D01*
X180206000Y-95475590D01*
X180202493Y-95462506D01*
X180189410Y-95459000D01*
X179399067Y-95459000D01*
X179387922Y-95461620D01*
X177740500Y-95461620D01*
X177740500Y-95205000D01*
X181890768Y-95205000D01*
X181891306Y-95210806D01*
X181909116Y-95403015D01*
X181909117Y-95403025D01*
X181909655Y-95408821D01*
X181911249Y-95414426D01*
X181911250Y-95414427D01*
X181964026Y-95599918D01*
X181965672Y-95605701D01*
X181999930Y-95674500D01*
X182049250Y-95773549D01*
X182056912Y-95788935D01*
X182060421Y-95793582D01*
X182060422Y-95793583D01*
X182176755Y-95947634D01*
X182176759Y-95947638D01*
X182180268Y-95952285D01*
X182184570Y-95956207D01*
X182184573Y-95956210D01*
X182235397Y-96002542D01*
X182331538Y-96090186D01*
X182336489Y-96093251D01*
X182336491Y-96093253D01*
X182410992Y-96139382D01*
X182505573Y-96197944D01*
X182696444Y-96271888D01*
X182897653Y-96309500D01*
X183096519Y-96309500D01*
X183102347Y-96309500D01*
X183303556Y-96271888D01*
X183494427Y-96197944D01*
X183668462Y-96090186D01*
X183819732Y-95952285D01*
X183943088Y-95788935D01*
X184034328Y-95605701D01*
X184090345Y-95408821D01*
X184109232Y-95205000D01*
X184104888Y-95158125D01*
X184117559Y-95090338D01*
X184164019Y-95039373D01*
X184230350Y-95020500D01*
X191270000Y-95020500D01*
X191333000Y-95037381D01*
X191379119Y-95083500D01*
X191396000Y-95146500D01*
X191396000Y-95534877D01*
X191396000Y-95534887D01*
X191396001Y-95541066D01*
X191399807Y-95560201D01*
X191406016Y-95591421D01*
X191406015Y-95640577D01*
X191397207Y-95684859D01*
X191397205Y-95684870D01*
X191396000Y-95690933D01*
X191396000Y-95697118D01*
X191396000Y-95697119D01*
X191396001Y-96085500D01*
X191379120Y-96148500D01*
X191333001Y-96194619D01*
X191270001Y-96211500D01*
X184206422Y-96211500D01*
X184180565Y-96208818D01*
X184180119Y-96208724D01*
X184180114Y-96208723D01*
X184169900Y-96206582D01*
X184159541Y-96207873D01*
X184159539Y-96207873D01*
X184138211Y-96210532D01*
X184132942Y-96210859D01*
X184132960Y-96211070D01*
X184127766Y-96211500D01*
X184122557Y-96211500D01*
X184117427Y-96212355D01*
X184117414Y-96212357D01*
X184101821Y-96214959D01*
X184096677Y-96215708D01*
X184054573Y-96220957D01*
X184054572Y-96220957D01*
X184044217Y-96222248D01*
X184036996Y-96225777D01*
X184029073Y-96227100D01*
X184019900Y-96232063D01*
X184019891Y-96232067D01*
X183982567Y-96252265D01*
X183977943Y-96254646D01*
X183942676Y-96271888D01*
X183930432Y-96277874D01*
X183924747Y-96283558D01*
X183917684Y-96287381D01*
X183910619Y-96295055D01*
X183910613Y-96295060D01*
X183881868Y-96326285D01*
X183878264Y-96330040D01*
X183604709Y-96603595D01*
X183563832Y-96630909D01*
X183515614Y-96640500D01*
X182131122Y-96640500D01*
X182131111Y-96640500D01*
X182124934Y-96640501D01*
X182118868Y-96641707D01*
X182118862Y-96641708D01*
X182062874Y-96652844D01*
X182062871Y-96652844D01*
X182050699Y-96655266D01*
X182040379Y-96662161D01*
X182040378Y-96662162D01*
X181976832Y-96704622D01*
X181976829Y-96704624D01*
X181966516Y-96711516D01*
X181959624Y-96721829D01*
X181959622Y-96721832D01*
X181917161Y-96785379D01*
X181917159Y-96785381D01*
X181910266Y-96795699D01*
X181907845Y-96807867D01*
X181907844Y-96807871D01*
X181897874Y-96857996D01*
X181895500Y-96869933D01*
X181895500Y-96876118D01*
X181895500Y-96876119D01*
X181895500Y-98613877D01*
X181895500Y-98613887D01*
X181895501Y-98620066D01*
X181896707Y-98626132D01*
X181896708Y-98626137D01*
X181907844Y-98682125D01*
X181910266Y-98694301D01*
X181917162Y-98704621D01*
X181952289Y-98757193D01*
X181966516Y-98778484D01*
X182050699Y-98834734D01*
X182124933Y-98849500D01*
X183875066Y-98849499D01*
X183949301Y-98834734D01*
X184023990Y-98784828D01*
X191396501Y-98784828D01*
X191397708Y-98797087D01*
X191408815Y-98852930D01*
X191418133Y-98875426D01*
X191460483Y-98938808D01*
X191477691Y-98956016D01*
X191541074Y-98998367D01*
X191563566Y-99007684D01*
X191619414Y-99018792D01*
X191631670Y-99020000D01*
X192146410Y-99020000D01*
X192159493Y-99016493D01*
X192163000Y-99003410D01*
X192163000Y-98782590D01*
X192159493Y-98769506D01*
X192146410Y-98766000D01*
X191413091Y-98766000D01*
X191400007Y-98769506D01*
X191396501Y-98782590D01*
X191396501Y-98784828D01*
X184023990Y-98784828D01*
X184033484Y-98778484D01*
X184089734Y-98694301D01*
X184104500Y-98620067D01*
X184104499Y-97229384D01*
X184114090Y-97181167D01*
X184141404Y-97140289D01*
X184274290Y-97007404D01*
X184315167Y-96980091D01*
X184363385Y-96970500D01*
X191270000Y-96970500D01*
X191333000Y-96987381D01*
X191379119Y-97033500D01*
X191396000Y-97096500D01*
X191396000Y-97484877D01*
X191396000Y-97484887D01*
X191396001Y-97491066D01*
X191399506Y-97508687D01*
X191406016Y-97541421D01*
X191406015Y-97590577D01*
X191397207Y-97634859D01*
X191397205Y-97634870D01*
X191396000Y-97640933D01*
X191396000Y-97647118D01*
X191396000Y-97647119D01*
X191396000Y-98134877D01*
X191396000Y-98134887D01*
X191396001Y-98141066D01*
X191397206Y-98147128D01*
X191397207Y-98147130D01*
X191406271Y-98192701D01*
X191406271Y-98241858D01*
X191397706Y-98284919D01*
X191396500Y-98297170D01*
X191396500Y-98299410D01*
X191400006Y-98312493D01*
X191413090Y-98316000D01*
X191453511Y-98316000D01*
X191490088Y-98321426D01*
X191523514Y-98337236D01*
X191540879Y-98348839D01*
X191540881Y-98348840D01*
X191551199Y-98355734D01*
X191625433Y-98370500D01*
X192487001Y-98370499D01*
X192550000Y-98387380D01*
X192596119Y-98433499D01*
X192613000Y-98496499D01*
X192613000Y-99003409D01*
X192616506Y-99016492D01*
X192629590Y-99019999D01*
X193042500Y-99019999D01*
X193105500Y-99036880D01*
X193151619Y-99082999D01*
X193168500Y-99145999D01*
X193168500Y-105128574D01*
X193165818Y-105154430D01*
X193163581Y-105165100D01*
X193164872Y-105175457D01*
X193164872Y-105175460D01*
X193167532Y-105196796D01*
X193167858Y-105202057D01*
X193168070Y-105202040D01*
X193168500Y-105207233D01*
X193168500Y-105212443D01*
X193169356Y-105217574D01*
X193169357Y-105217584D01*
X193171956Y-105233160D01*
X193172705Y-105238303D01*
X193174589Y-105253412D01*
X193179248Y-105290783D01*
X193182777Y-105298003D01*
X193184100Y-105305927D01*
X193189065Y-105315102D01*
X193189066Y-105315104D01*
X193209255Y-105352410D01*
X193211638Y-105357039D01*
X193230290Y-105395193D01*
X193230292Y-105395196D01*
X193234874Y-105404568D01*
X193240558Y-105410252D01*
X193244381Y-105417316D01*
X193252061Y-105424386D01*
X193283284Y-105453129D01*
X193287041Y-105456735D01*
X193778595Y-105948289D01*
X193805909Y-105989166D01*
X193815500Y-106037384D01*
X193815500Y-107421877D01*
X193815500Y-107421887D01*
X193815501Y-107428066D01*
X193816707Y-107434132D01*
X193816708Y-107434137D01*
X193827844Y-107490125D01*
X193830266Y-107502301D01*
X193886516Y-107586484D01*
X193970699Y-107642734D01*
X194044933Y-107657500D01*
X195795066Y-107657499D01*
X195869301Y-107642734D01*
X195953484Y-107586484D01*
X196009734Y-107502301D01*
X196024500Y-107428067D01*
X196024499Y-105958382D01*
X196038232Y-105901180D01*
X196076438Y-105856447D01*
X196130788Y-105833934D01*
X196189435Y-105838550D01*
X196239594Y-105869288D01*
X196395099Y-106024793D01*
X196422036Y-106064771D01*
X196431989Y-106111939D01*
X196424812Y-106152054D01*
X196425672Y-106152299D01*
X196369655Y-106349179D01*
X196369118Y-106354972D01*
X196369116Y-106354984D01*
X196351306Y-106547194D01*
X196350768Y-106553000D01*
X196351306Y-106558806D01*
X196369116Y-106751015D01*
X196369117Y-106751025D01*
X196369655Y-106756821D01*
X196425672Y-106953701D01*
X196516912Y-107136935D01*
X196520421Y-107141582D01*
X196520422Y-107141583D01*
X196636755Y-107295634D01*
X196636759Y-107295638D01*
X196640268Y-107300285D01*
X196644570Y-107304207D01*
X196644573Y-107304210D01*
X196684399Y-107340516D01*
X196791538Y-107438186D01*
X196965573Y-107545944D01*
X197156444Y-107619888D01*
X197357653Y-107657500D01*
X197556519Y-107657500D01*
X197562347Y-107657500D01*
X197763556Y-107619888D01*
X197954427Y-107545944D01*
X198128462Y-107438186D01*
X198279732Y-107300285D01*
X198403088Y-107136935D01*
X198494328Y-106953701D01*
X198550345Y-106756821D01*
X198569232Y-106553000D01*
X198550345Y-106349179D01*
X198494328Y-106152299D01*
X198403088Y-105969065D01*
X198279732Y-105805715D01*
X198275429Y-105801792D01*
X198275426Y-105801789D01*
X198132764Y-105671736D01*
X198132765Y-105671736D01*
X198128462Y-105667814D01*
X198123512Y-105664749D01*
X198123508Y-105664746D01*
X197959387Y-105563127D01*
X197959386Y-105563126D01*
X197954427Y-105560056D01*
X197920793Y-105547026D01*
X197768989Y-105488216D01*
X197768981Y-105488213D01*
X197763556Y-105486112D01*
X197757839Y-105485043D01*
X197757831Y-105485041D01*
X197568073Y-105449570D01*
X197568069Y-105449569D01*
X197562347Y-105448500D01*
X197357653Y-105448500D01*
X197351931Y-105449569D01*
X197351926Y-105449570D01*
X197162165Y-105485042D01*
X197162159Y-105485043D01*
X197156444Y-105486112D01*
X197151024Y-105488211D01*
X197151012Y-105488215D01*
X197069644Y-105519737D01*
X197022188Y-105528230D01*
X196975016Y-105518279D01*
X196935034Y-105491340D01*
X196511405Y-105067711D01*
X196484091Y-105026834D01*
X196474500Y-104978616D01*
X196474500Y-104893854D01*
X196487709Y-104837691D01*
X196524568Y-104793304D01*
X196577348Y-104769999D01*
X196634982Y-104772664D01*
X196685386Y-104800739D01*
X196787533Y-104893859D01*
X196796796Y-104900854D01*
X196960846Y-105002428D01*
X196971228Y-105007598D01*
X197151146Y-105077299D01*
X197162307Y-105080475D01*
X197192358Y-105086092D01*
X197203559Y-105085704D01*
X197206000Y-105074763D01*
X197206000Y-102951237D01*
X197203559Y-102940295D01*
X197192358Y-102939907D01*
X197162307Y-102945524D01*
X197151146Y-102948700D01*
X196971228Y-103018401D01*
X196960846Y-103023571D01*
X196796796Y-103125145D01*
X196787533Y-103132140D01*
X196685386Y-103225261D01*
X196634982Y-103253336D01*
X196577348Y-103256001D01*
X196524568Y-103232696D01*
X196487709Y-103188309D01*
X196474500Y-103132146D01*
X196474500Y-98085523D01*
X196477182Y-98059664D01*
X196479419Y-98048997D01*
X196475468Y-98017301D01*
X196475141Y-98012043D01*
X196474931Y-98012061D01*
X196474500Y-98006864D01*
X196474500Y-98001654D01*
X196471038Y-97980914D01*
X196470302Y-97975865D01*
X196463752Y-97923314D01*
X196460222Y-97916093D01*
X196458900Y-97908170D01*
X196453933Y-97898991D01*
X196453931Y-97898986D01*
X196433734Y-97861666D01*
X196431363Y-97857062D01*
X196408126Y-97809529D01*
X196402441Y-97803844D01*
X196398619Y-97796781D01*
X196359714Y-97760966D01*
X196355957Y-97757360D01*
X194377320Y-95778723D01*
X194344076Y-95719782D01*
X194346120Y-95652142D01*
X194382861Y-95595316D01*
X194422498Y-95560201D01*
X194512787Y-95429395D01*
X194550758Y-95329273D01*
X194586450Y-95278391D01*
X194642125Y-95250760D01*
X194704234Y-95253107D01*
X194757665Y-95284859D01*
X196945081Y-97472275D01*
X196961463Y-97492446D01*
X196967432Y-97501582D01*
X196990458Y-97519504D01*
X196992639Y-97521201D01*
X196996589Y-97524689D01*
X196996726Y-97524528D01*
X197000699Y-97527893D01*
X197004386Y-97531580D01*
X197008626Y-97534607D01*
X197021478Y-97543783D01*
X197025655Y-97546898D01*
X197067381Y-97579375D01*
X197074980Y-97581984D01*
X197081520Y-97586653D01*
X197091522Y-97589630D01*
X197091525Y-97589632D01*
X197117132Y-97597255D01*
X197132194Y-97601739D01*
X197137138Y-97603322D01*
X197186913Y-97620410D01*
X197231337Y-97646882D01*
X197261387Y-97688969D01*
X197272000Y-97739583D01*
X197272000Y-98134877D01*
X197272000Y-98134887D01*
X197272001Y-98141066D01*
X197278226Y-98172368D01*
X197282016Y-98191421D01*
X197282015Y-98240577D01*
X197273207Y-98284859D01*
X197273205Y-98284870D01*
X197272000Y-98290933D01*
X197272000Y-98297118D01*
X197272000Y-98297119D01*
X197272000Y-98784877D01*
X197272000Y-98784887D01*
X197272001Y-98791066D01*
X197273207Y-98797132D01*
X197273208Y-98797137D01*
X197280686Y-98834734D01*
X197286766Y-98865301D01*
X197343016Y-98949484D01*
X197427199Y-99005734D01*
X197501433Y-99020500D01*
X198154615Y-99020499D01*
X198202833Y-99030090D01*
X198243710Y-99057404D01*
X198408595Y-99222289D01*
X198435909Y-99263166D01*
X198445500Y-99311384D01*
X198445500Y-103132146D01*
X198432291Y-103188309D01*
X198395432Y-103232696D01*
X198342652Y-103256001D01*
X198285018Y-103253336D01*
X198234614Y-103225261D01*
X198132466Y-103132140D01*
X198123203Y-103125145D01*
X197959153Y-103023571D01*
X197948771Y-103018401D01*
X197768853Y-102948700D01*
X197757692Y-102945524D01*
X197727641Y-102939907D01*
X197716440Y-102940295D01*
X197714000Y-102951237D01*
X197714000Y-105074763D01*
X197716440Y-105085704D01*
X197727641Y-105086092D01*
X197757692Y-105080475D01*
X197768853Y-105077299D01*
X197948771Y-105007598D01*
X197959153Y-105002428D01*
X198123203Y-104900854D01*
X198132466Y-104893859D01*
X198234614Y-104800739D01*
X198285018Y-104772664D01*
X198342652Y-104769999D01*
X198395432Y-104793304D01*
X198432291Y-104837691D01*
X198445500Y-104893854D01*
X198445500Y-105325574D01*
X198442818Y-105351430D01*
X198440581Y-105362100D01*
X198441872Y-105372457D01*
X198441872Y-105372460D01*
X198444532Y-105393796D01*
X198444858Y-105399057D01*
X198445070Y-105399040D01*
X198445500Y-105404233D01*
X198445500Y-105409443D01*
X198446356Y-105414574D01*
X198446357Y-105414584D01*
X198448956Y-105430160D01*
X198449705Y-105435303D01*
X198451484Y-105449570D01*
X198456248Y-105487783D01*
X198459777Y-105495003D01*
X198461100Y-105502927D01*
X198466065Y-105512102D01*
X198466066Y-105512104D01*
X198486255Y-105549410D01*
X198488638Y-105554039D01*
X198507290Y-105592193D01*
X198507292Y-105592196D01*
X198511874Y-105601568D01*
X198517558Y-105607252D01*
X198521381Y-105614316D01*
X198529061Y-105621386D01*
X198560284Y-105650129D01*
X198564041Y-105653735D01*
X198935099Y-106024793D01*
X198962036Y-106064771D01*
X198971989Y-106111939D01*
X198964812Y-106152054D01*
X198965672Y-106152299D01*
X198909655Y-106349179D01*
X198909118Y-106354972D01*
X198909116Y-106354984D01*
X198891306Y-106547194D01*
X198890768Y-106553000D01*
X198891306Y-106558806D01*
X198909116Y-106751015D01*
X198909117Y-106751025D01*
X198909655Y-106756821D01*
X198965672Y-106953701D01*
X199056912Y-107136935D01*
X199060421Y-107141582D01*
X199060422Y-107141583D01*
X199176755Y-107295634D01*
X199176759Y-107295638D01*
X199180268Y-107300285D01*
X199184570Y-107304207D01*
X199184573Y-107304210D01*
X199224399Y-107340516D01*
X199331538Y-107438186D01*
X199505573Y-107545944D01*
X199696444Y-107619888D01*
X199897653Y-107657500D01*
X200096519Y-107657500D01*
X200102347Y-107657500D01*
X200303556Y-107619888D01*
X200494427Y-107545944D01*
X200668462Y-107438186D01*
X200819732Y-107300285D01*
X200943088Y-107136935D01*
X201034328Y-106953701D01*
X201090345Y-106756821D01*
X201109232Y-106553000D01*
X201090345Y-106349179D01*
X201034328Y-106152299D01*
X200943088Y-105969065D01*
X200819732Y-105805715D01*
X200815429Y-105801792D01*
X200815426Y-105801789D01*
X200672764Y-105671736D01*
X200672765Y-105671736D01*
X200668462Y-105667814D01*
X200663512Y-105664749D01*
X200663508Y-105664746D01*
X200499387Y-105563127D01*
X200499386Y-105563126D01*
X200494427Y-105560056D01*
X200460793Y-105547026D01*
X200308989Y-105488216D01*
X200308981Y-105488213D01*
X200303556Y-105486112D01*
X200297839Y-105485043D01*
X200297831Y-105485041D01*
X200108073Y-105449570D01*
X200108069Y-105449569D01*
X200102347Y-105448500D01*
X199897653Y-105448500D01*
X199891931Y-105449569D01*
X199891926Y-105449570D01*
X199702165Y-105485042D01*
X199702159Y-105485043D01*
X199696444Y-105486112D01*
X199691024Y-105488211D01*
X199691012Y-105488215D01*
X199609644Y-105519737D01*
X199562188Y-105528230D01*
X199515016Y-105518279D01*
X199475034Y-105491340D01*
X199241405Y-105257711D01*
X199214091Y-105216834D01*
X199204500Y-105168616D01*
X199204500Y-105045153D01*
X199221869Y-104981315D01*
X199269188Y-104935077D01*
X199333410Y-104919187D01*
X199396830Y-104938025D01*
X199500846Y-105002428D01*
X199511228Y-105007598D01*
X199691146Y-105077299D01*
X199702307Y-105080475D01*
X199732358Y-105086092D01*
X199743559Y-105085704D01*
X199746000Y-105074763D01*
X200254000Y-105074763D01*
X200256440Y-105085704D01*
X200267641Y-105086092D01*
X200297692Y-105080475D01*
X200308853Y-105077299D01*
X200488771Y-105007598D01*
X200499153Y-105002428D01*
X200663203Y-104900854D01*
X200672466Y-104893859D01*
X200815055Y-104763872D01*
X200822873Y-104755296D01*
X200939149Y-104601321D01*
X200945257Y-104591456D01*
X201031265Y-104418729D01*
X201035453Y-104407918D01*
X201071548Y-104281061D01*
X201072077Y-104269620D01*
X201467922Y-104269620D01*
X201468451Y-104281061D01*
X201504546Y-104407918D01*
X201508734Y-104418729D01*
X201594742Y-104591456D01*
X201600850Y-104601321D01*
X201717126Y-104755296D01*
X201724944Y-104763872D01*
X201867533Y-104893859D01*
X201876796Y-104900854D01*
X202040846Y-105002428D01*
X202051228Y-105007598D01*
X202231146Y-105077299D01*
X202242307Y-105080475D01*
X202272358Y-105086092D01*
X202283559Y-105085704D01*
X202286000Y-105074763D01*
X202286000Y-104283590D01*
X202282493Y-104270506D01*
X202269410Y-104267000D01*
X201479067Y-104267000D01*
X201467922Y-104269620D01*
X201072077Y-104269620D01*
X201060933Y-104267000D01*
X200270590Y-104267000D01*
X200257506Y-104270506D01*
X200254000Y-104283590D01*
X200254000Y-105074763D01*
X199746000Y-105074763D01*
X199746000Y-103742410D01*
X200254000Y-103742410D01*
X200257506Y-103755493D01*
X200270590Y-103759000D01*
X201060933Y-103759000D01*
X201072077Y-103756379D01*
X201467922Y-103756379D01*
X201479067Y-103759000D01*
X202269410Y-103759000D01*
X202282493Y-103755493D01*
X202286000Y-103742410D01*
X202286000Y-102951237D01*
X202283559Y-102940295D01*
X202272358Y-102939907D01*
X202242307Y-102945524D01*
X202231146Y-102948700D01*
X202051228Y-103018401D01*
X202040846Y-103023571D01*
X201876796Y-103125145D01*
X201867533Y-103132140D01*
X201724944Y-103262127D01*
X201717126Y-103270703D01*
X201600850Y-103424678D01*
X201594742Y-103434543D01*
X201508734Y-103607270D01*
X201504546Y-103618081D01*
X201468451Y-103744938D01*
X201467922Y-103756379D01*
X201072077Y-103756379D01*
X201071548Y-103744938D01*
X201035453Y-103618081D01*
X201031265Y-103607270D01*
X200945257Y-103434543D01*
X200939149Y-103424678D01*
X200822873Y-103270703D01*
X200815055Y-103262127D01*
X200672466Y-103132140D01*
X200663203Y-103125145D01*
X200499153Y-103023571D01*
X200488771Y-103018401D01*
X200308853Y-102948700D01*
X200297692Y-102945524D01*
X200267641Y-102939907D01*
X200256440Y-102940295D01*
X200254000Y-102951237D01*
X200254000Y-103742410D01*
X199746000Y-103742410D01*
X199746000Y-102951237D01*
X199743559Y-102940295D01*
X199732358Y-102939907D01*
X199702307Y-102945524D01*
X199691146Y-102948700D01*
X199511228Y-103018401D01*
X199500846Y-103023571D01*
X199396830Y-103087975D01*
X199333410Y-103106813D01*
X199269188Y-103090923D01*
X199221869Y-103044685D01*
X199204500Y-102980847D01*
X199204500Y-99154426D01*
X199207182Y-99128567D01*
X199209419Y-99117900D01*
X199205468Y-99086204D01*
X199205141Y-99080947D01*
X199204931Y-99080965D01*
X199204500Y-99075769D01*
X199204500Y-99070557D01*
X199201039Y-99049817D01*
X199200294Y-99044701D01*
X199199381Y-99037380D01*
X199193752Y-98992218D01*
X199193751Y-98992217D01*
X199196492Y-98991875D01*
X199194063Y-98957468D01*
X199213894Y-98906217D01*
X199241234Y-98865301D01*
X199256000Y-98791067D01*
X199255999Y-98422499D01*
X199272880Y-98359500D01*
X199318999Y-98313381D01*
X199381999Y-98296500D01*
X199425544Y-98296500D01*
X199484099Y-98310932D01*
X199520769Y-98343419D01*
X199522119Y-98342224D01*
X199527171Y-98347927D01*
X199531502Y-98354201D01*
X199650471Y-98459599D01*
X199791207Y-98533463D01*
X199945529Y-98571500D01*
X200096854Y-98571500D01*
X200104471Y-98571500D01*
X200258793Y-98533463D01*
X200399529Y-98459599D01*
X200518498Y-98354201D01*
X200608787Y-98223395D01*
X200665149Y-98074782D01*
X200684307Y-97917000D01*
X200665149Y-97759218D01*
X200618791Y-97636982D01*
X200611489Y-97617729D01*
X200611488Y-97617727D01*
X200608787Y-97610605D01*
X200518498Y-97479799D01*
X200427004Y-97398742D01*
X200405235Y-97379456D01*
X200405234Y-97379455D01*
X200399529Y-97374401D01*
X200288238Y-97315991D01*
X200265546Y-97304081D01*
X200265544Y-97304080D01*
X200258793Y-97300537D01*
X200251395Y-97298713D01*
X200251391Y-97298712D01*
X200111864Y-97264322D01*
X200111862Y-97264321D01*
X200104471Y-97262500D01*
X199945529Y-97262500D01*
X199938138Y-97264321D01*
X199938135Y-97264322D01*
X199798608Y-97298712D01*
X199798601Y-97298714D01*
X199791207Y-97300537D01*
X199784458Y-97304078D01*
X199784453Y-97304081D01*
X199657223Y-97370857D01*
X199657221Y-97370858D01*
X199650471Y-97374401D01*
X199644769Y-97379452D01*
X199644764Y-97379456D01*
X199537207Y-97474744D01*
X199537203Y-97474747D01*
X199531502Y-97479799D01*
X199527172Y-97486071D01*
X199522119Y-97491776D01*
X199520769Y-97490580D01*
X199484099Y-97523068D01*
X199425544Y-97537500D01*
X199382000Y-97537500D01*
X199319000Y-97520619D01*
X199272881Y-97474500D01*
X199256000Y-97411500D01*
X199255999Y-96997122D01*
X199255999Y-96990934D01*
X199245729Y-96939299D01*
X199245729Y-96890139D01*
X199254292Y-96847084D01*
X199255500Y-96834830D01*
X199255500Y-96832590D01*
X199251993Y-96819506D01*
X199238910Y-96816000D01*
X199198489Y-96816000D01*
X199161912Y-96810574D01*
X199128486Y-96794764D01*
X199111120Y-96783160D01*
X199111115Y-96783158D01*
X199100801Y-96776266D01*
X199070385Y-96770216D01*
X199032635Y-96762707D01*
X199026567Y-96761500D01*
X199020380Y-96761500D01*
X199012478Y-96761500D01*
X198164998Y-96761500D01*
X198102000Y-96744620D01*
X198055881Y-96698501D01*
X198039000Y-96635501D01*
X198039000Y-96349410D01*
X198489000Y-96349410D01*
X198492506Y-96362493D01*
X198505590Y-96366000D01*
X199238909Y-96366000D01*
X199251992Y-96362493D01*
X199255499Y-96349410D01*
X199255499Y-96347172D01*
X199254291Y-96334912D01*
X199245474Y-96290580D01*
X199245474Y-96241419D01*
X199254293Y-96197082D01*
X199255500Y-96184830D01*
X199255500Y-96182590D01*
X199251993Y-96169506D01*
X199238910Y-96166000D01*
X198505590Y-96166000D01*
X198492506Y-96169506D01*
X198489000Y-96182590D01*
X198489000Y-96349410D01*
X198039000Y-96349410D01*
X198039000Y-96182590D01*
X198035493Y-96169506D01*
X198022410Y-96166000D01*
X197289091Y-96166000D01*
X197276007Y-96169506D01*
X197272501Y-96182590D01*
X197272501Y-96184828D01*
X197273708Y-96197082D01*
X197282526Y-96241421D01*
X197282525Y-96290577D01*
X197273707Y-96334909D01*
X197272500Y-96347170D01*
X197272500Y-96422116D01*
X197258767Y-96479319D01*
X197220561Y-96524052D01*
X197166211Y-96546565D01*
X197107564Y-96541949D01*
X197057405Y-96511211D01*
X196245604Y-95699410D01*
X197272500Y-95699410D01*
X197276006Y-95712493D01*
X197289090Y-95716000D01*
X198022410Y-95716000D01*
X198035493Y-95712493D01*
X198039000Y-95699410D01*
X198489000Y-95699410D01*
X198492506Y-95712493D01*
X198505590Y-95716000D01*
X199238909Y-95716000D01*
X199251992Y-95712493D01*
X199255499Y-95699410D01*
X199255499Y-95697172D01*
X199254291Y-95684912D01*
X199245474Y-95640580D01*
X199245474Y-95591419D01*
X199254293Y-95547082D01*
X199255500Y-95534830D01*
X199255500Y-95532590D01*
X199251993Y-95519506D01*
X199238910Y-95516000D01*
X198505590Y-95516000D01*
X198492506Y-95519506D01*
X198489000Y-95532590D01*
X198489000Y-95699410D01*
X198039000Y-95699410D01*
X198039000Y-95532590D01*
X198035493Y-95519506D01*
X198022410Y-95516000D01*
X197289091Y-95516000D01*
X197276007Y-95519506D01*
X197272501Y-95532590D01*
X197272501Y-95534828D01*
X197273708Y-95547082D01*
X197282526Y-95591421D01*
X197282525Y-95640577D01*
X197273707Y-95684909D01*
X197272500Y-95697170D01*
X197272500Y-95699410D01*
X196245604Y-95699410D01*
X195595604Y-95049410D01*
X197272500Y-95049410D01*
X197276006Y-95062493D01*
X197289090Y-95066000D01*
X198022410Y-95066000D01*
X198035493Y-95062493D01*
X198039000Y-95049410D01*
X198489000Y-95049410D01*
X198492506Y-95062493D01*
X198505590Y-95066000D01*
X199238909Y-95066000D01*
X199251992Y-95062493D01*
X199255499Y-95049410D01*
X199255499Y-95047172D01*
X199254291Y-95034912D01*
X199245474Y-94990580D01*
X199245474Y-94941419D01*
X199254293Y-94897082D01*
X199255500Y-94884830D01*
X199255500Y-94882590D01*
X199251993Y-94869506D01*
X199238910Y-94866000D01*
X198505590Y-94866000D01*
X198492506Y-94869506D01*
X198489000Y-94882590D01*
X198489000Y-95049410D01*
X198039000Y-95049410D01*
X198039000Y-94882590D01*
X198035493Y-94869506D01*
X198022410Y-94866000D01*
X197289091Y-94866000D01*
X197276007Y-94869506D01*
X197272501Y-94882590D01*
X197272501Y-94884828D01*
X197273708Y-94897082D01*
X197282526Y-94941421D01*
X197282525Y-94990577D01*
X197273707Y-95034909D01*
X197272500Y-95047170D01*
X197272500Y-95049410D01*
X195595604Y-95049410D01*
X193014034Y-92467840D01*
X195654001Y-92467840D01*
X195654361Y-92474564D01*
X195659610Y-92523393D01*
X195663209Y-92538624D01*
X195707949Y-92658575D01*
X195716503Y-92674242D01*
X195792554Y-92775835D01*
X195805164Y-92788445D01*
X195906757Y-92864496D01*
X195922424Y-92873050D01*
X196042373Y-92917789D01*
X196057608Y-92921390D01*
X196106438Y-92926639D01*
X196113158Y-92927000D01*
X196137410Y-92927000D01*
X196150493Y-92923493D01*
X196154000Y-92910410D01*
X196154000Y-92910409D01*
X196662000Y-92910409D01*
X196665506Y-92923492D01*
X196678590Y-92926999D01*
X196702840Y-92926999D01*
X196709564Y-92926638D01*
X196758393Y-92921389D01*
X196773624Y-92917790D01*
X196893575Y-92873050D01*
X196909242Y-92864496D01*
X197010835Y-92788445D01*
X197023445Y-92775835D01*
X197099496Y-92674242D01*
X197108050Y-92658575D01*
X197152789Y-92538626D01*
X197156390Y-92523391D01*
X197161639Y-92474561D01*
X197162000Y-92467842D01*
X197162000Y-92218590D01*
X197158493Y-92205506D01*
X197145410Y-92202000D01*
X196678590Y-92202000D01*
X196665506Y-92205506D01*
X196662000Y-92218590D01*
X196662000Y-92910409D01*
X196154000Y-92910409D01*
X196154000Y-92218590D01*
X196150493Y-92205506D01*
X196137410Y-92202000D01*
X195670591Y-92202000D01*
X195657507Y-92205506D01*
X195654001Y-92218590D01*
X195654001Y-92467840D01*
X193014034Y-92467840D01*
X192979918Y-92433724D01*
X192963532Y-92413548D01*
X192957568Y-92404418D01*
X192949325Y-92398002D01*
X192949324Y-92398001D01*
X192932354Y-92384792D01*
X192928408Y-92381307D01*
X192928271Y-92381470D01*
X192924302Y-92378108D01*
X192920613Y-92374419D01*
X192916370Y-92371389D01*
X192916366Y-92371386D01*
X192903534Y-92362224D01*
X192899363Y-92359114D01*
X192865859Y-92333037D01*
X192865853Y-92333034D01*
X192857619Y-92326625D01*
X192850017Y-92324015D01*
X192843479Y-92319347D01*
X192792802Y-92304260D01*
X192787876Y-92302682D01*
X192737827Y-92285500D01*
X192729789Y-92285500D01*
X192722090Y-92283208D01*
X192711661Y-92283639D01*
X192711659Y-92283639D01*
X192669286Y-92285392D01*
X192664079Y-92285500D01*
X184122900Y-92285500D01*
X184056570Y-92266627D01*
X184010111Y-92215665D01*
X183943088Y-92081065D01*
X183900860Y-92025146D01*
X183823244Y-91922365D01*
X183823241Y-91922361D01*
X183819732Y-91917715D01*
X183815429Y-91913792D01*
X183815426Y-91913789D01*
X183710969Y-91818564D01*
X183668462Y-91779814D01*
X183663512Y-91776749D01*
X183663508Y-91776746D01*
X183503074Y-91677410D01*
X195654000Y-91677410D01*
X195657506Y-91690493D01*
X195670590Y-91694000D01*
X196137410Y-91694000D01*
X196150493Y-91690493D01*
X196154000Y-91677410D01*
X196662000Y-91677410D01*
X196665506Y-91690493D01*
X196678590Y-91694000D01*
X197145409Y-91694000D01*
X197158492Y-91690493D01*
X197161999Y-91677410D01*
X197161999Y-91428160D01*
X197161638Y-91421435D01*
X197156389Y-91372606D01*
X197152790Y-91357375D01*
X197108050Y-91237424D01*
X197099496Y-91221757D01*
X197023445Y-91120164D01*
X197010835Y-91107554D01*
X196909242Y-91031503D01*
X196893575Y-91022949D01*
X196773626Y-90978210D01*
X196758391Y-90974609D01*
X196709561Y-90969360D01*
X196702842Y-90969000D01*
X196678590Y-90969000D01*
X196665506Y-90972506D01*
X196662000Y-90985590D01*
X196662000Y-91677410D01*
X196154000Y-91677410D01*
X196154000Y-90985591D01*
X196150493Y-90972507D01*
X196137410Y-90969001D01*
X196113160Y-90969001D01*
X196106435Y-90969361D01*
X196057606Y-90974610D01*
X196042375Y-90978209D01*
X195922424Y-91022949D01*
X195906757Y-91031503D01*
X195805164Y-91107554D01*
X195792554Y-91120164D01*
X195716503Y-91221757D01*
X195707949Y-91237424D01*
X195663210Y-91357373D01*
X195659609Y-91372608D01*
X195654360Y-91421438D01*
X195654000Y-91428158D01*
X195654000Y-91677410D01*
X183503074Y-91677410D01*
X183499387Y-91675127D01*
X183499386Y-91675126D01*
X183494427Y-91672056D01*
X183438785Y-91650500D01*
X183308989Y-91600216D01*
X183308981Y-91600213D01*
X183303556Y-91598112D01*
X183297839Y-91597043D01*
X183297831Y-91597041D01*
X183108073Y-91561570D01*
X183108069Y-91561569D01*
X183102347Y-91560500D01*
X182897653Y-91560500D01*
X182891931Y-91561569D01*
X182891926Y-91561570D01*
X182702168Y-91597041D01*
X182702157Y-91597043D01*
X182696444Y-91598112D01*
X182691021Y-91600212D01*
X182691010Y-91600216D01*
X182511011Y-91669949D01*
X182511008Y-91669950D01*
X182505573Y-91672056D01*
X182500617Y-91675124D01*
X182500612Y-91675127D01*
X182336491Y-91776746D01*
X182336481Y-91776752D01*
X182331538Y-91779814D01*
X182327239Y-91783732D01*
X182327235Y-91783736D01*
X182184573Y-91913789D01*
X182184565Y-91913797D01*
X182180268Y-91917715D01*
X182176763Y-91922355D01*
X182176755Y-91922365D01*
X182060422Y-92076416D01*
X182060418Y-92076421D01*
X182056912Y-92081065D01*
X182054319Y-92086273D01*
X182054314Y-92086281D01*
X181968271Y-92259079D01*
X181965672Y-92264299D01*
X181964078Y-92269899D01*
X181964076Y-92269906D01*
X181911250Y-92455572D01*
X181909655Y-92461179D01*
X181909118Y-92466972D01*
X181909116Y-92466984D01*
X181891363Y-92658575D01*
X181890768Y-92665000D01*
X181891306Y-92670806D01*
X181909116Y-92863015D01*
X181909117Y-92863025D01*
X181909655Y-92868821D01*
X181911249Y-92874426D01*
X181911250Y-92874427D01*
X181964026Y-93059918D01*
X181965672Y-93065701D01*
X181968271Y-93070920D01*
X182050960Y-93236983D01*
X182056912Y-93248935D01*
X182060421Y-93253582D01*
X182060422Y-93253583D01*
X182176755Y-93407634D01*
X182176759Y-93407638D01*
X182180268Y-93412285D01*
X182184570Y-93416207D01*
X182184573Y-93416210D01*
X182267185Y-93491520D01*
X182331538Y-93550186D01*
X182336489Y-93553251D01*
X182336491Y-93553253D01*
X182383753Y-93582516D01*
X182505573Y-93657944D01*
X182696444Y-93731888D01*
X182897653Y-93769500D01*
X183096519Y-93769500D01*
X183102347Y-93769500D01*
X183303556Y-93731888D01*
X183494427Y-93657944D01*
X183668462Y-93550186D01*
X183819732Y-93412285D01*
X183943088Y-93248935D01*
X184010111Y-93114334D01*
X184056570Y-93063373D01*
X184122900Y-93044500D01*
X190628902Y-93044500D01*
X190692779Y-93061892D01*
X190739022Y-93109266D01*
X190754865Y-93173545D01*
X190735935Y-93236983D01*
X190687457Y-93282067D01*
X190640223Y-93306857D01*
X190640221Y-93306858D01*
X190633471Y-93310401D01*
X190627769Y-93315452D01*
X190627764Y-93315456D01*
X190520207Y-93410744D01*
X190520203Y-93410747D01*
X190514502Y-93415799D01*
X190510175Y-93422066D01*
X190510171Y-93422072D01*
X190428542Y-93540332D01*
X190428538Y-93540337D01*
X190424213Y-93546605D01*
X190421514Y-93553720D01*
X190421510Y-93553729D01*
X190370552Y-93688094D01*
X190370550Y-93688100D01*
X190367851Y-93695218D01*
X190366932Y-93702779D01*
X190366932Y-93702783D01*
X190353093Y-93816763D01*
X190348693Y-93853000D01*
X190349612Y-93860569D01*
X190357727Y-93927408D01*
X190367851Y-94010782D01*
X190370551Y-94017903D01*
X190370553Y-94017908D01*
X190398205Y-94090820D01*
X190405474Y-94150688D01*
X190384089Y-94207076D01*
X190338948Y-94247067D01*
X190280393Y-94261500D01*
X183616422Y-94261500D01*
X183590559Y-94258817D01*
X183586610Y-94257989D01*
X183581046Y-94256822D01*
X183540580Y-94240632D01*
X183499385Y-94215125D01*
X183499377Y-94215121D01*
X183494427Y-94212056D01*
X183488996Y-94209952D01*
X183488994Y-94209951D01*
X183308989Y-94140216D01*
X183308981Y-94140213D01*
X183303556Y-94138112D01*
X183297839Y-94137043D01*
X183297831Y-94137041D01*
X183108073Y-94101570D01*
X183108069Y-94101569D01*
X183102347Y-94100500D01*
X182897653Y-94100500D01*
X182891931Y-94101569D01*
X182891926Y-94101570D01*
X182702168Y-94137041D01*
X182702157Y-94137043D01*
X182696444Y-94138112D01*
X182691021Y-94140212D01*
X182691010Y-94140216D01*
X182511011Y-94209949D01*
X182511008Y-94209950D01*
X182505573Y-94212056D01*
X182500617Y-94215124D01*
X182500612Y-94215127D01*
X182336491Y-94316746D01*
X182336481Y-94316752D01*
X182331538Y-94319814D01*
X182327239Y-94323732D01*
X182327235Y-94323736D01*
X182184573Y-94453789D01*
X182184565Y-94453797D01*
X182180268Y-94457715D01*
X182176763Y-94462355D01*
X182176755Y-94462365D01*
X182060422Y-94616416D01*
X182060418Y-94616421D01*
X182056912Y-94621065D01*
X182054317Y-94626274D01*
X182054314Y-94626281D01*
X181968271Y-94799079D01*
X181965672Y-94804299D01*
X181964078Y-94809899D01*
X181964076Y-94809906D01*
X181911250Y-94995572D01*
X181909655Y-95001179D01*
X181909118Y-95006972D01*
X181909116Y-95006984D01*
X181897657Y-95130656D01*
X181890768Y-95205000D01*
X177740500Y-95205000D01*
X177740500Y-94948379D01*
X179387922Y-94948379D01*
X179399067Y-94951000D01*
X180189410Y-94951000D01*
X180202493Y-94947493D01*
X180206000Y-94934410D01*
X180714000Y-94934410D01*
X180717506Y-94947493D01*
X180730590Y-94951000D01*
X181520933Y-94951000D01*
X181532077Y-94948379D01*
X181531548Y-94936938D01*
X181495453Y-94810081D01*
X181491265Y-94799270D01*
X181405257Y-94626543D01*
X181399149Y-94616678D01*
X181282873Y-94462703D01*
X181275055Y-94454127D01*
X181132466Y-94324140D01*
X181123203Y-94317145D01*
X180959153Y-94215571D01*
X180948771Y-94210401D01*
X180768853Y-94140700D01*
X180757692Y-94137524D01*
X180727641Y-94131907D01*
X180716440Y-94132295D01*
X180714000Y-94143237D01*
X180714000Y-94934410D01*
X180206000Y-94934410D01*
X180206000Y-94143237D01*
X180203559Y-94132295D01*
X180192358Y-94131907D01*
X180162307Y-94137524D01*
X180151146Y-94140700D01*
X179971228Y-94210401D01*
X179960846Y-94215571D01*
X179796796Y-94317145D01*
X179787533Y-94324140D01*
X179644944Y-94454127D01*
X179637126Y-94462703D01*
X179520850Y-94616678D01*
X179514742Y-94626543D01*
X179428734Y-94799270D01*
X179424546Y-94810081D01*
X179388451Y-94936938D01*
X179387922Y-94948379D01*
X177740500Y-94948379D01*
X177740500Y-92921620D01*
X179387922Y-92921620D01*
X179388451Y-92933061D01*
X179424546Y-93059918D01*
X179428734Y-93070729D01*
X179514742Y-93243456D01*
X179520850Y-93253321D01*
X179637126Y-93407296D01*
X179644944Y-93415872D01*
X179787533Y-93545859D01*
X179796796Y-93552854D01*
X179960846Y-93654428D01*
X179971228Y-93659598D01*
X180151146Y-93729299D01*
X180162307Y-93732475D01*
X180192358Y-93738092D01*
X180203559Y-93737704D01*
X180206000Y-93726763D01*
X180714000Y-93726763D01*
X180716440Y-93737704D01*
X180727641Y-93738092D01*
X180757692Y-93732475D01*
X180768853Y-93729299D01*
X180948771Y-93659598D01*
X180959153Y-93654428D01*
X181123203Y-93552854D01*
X181132466Y-93545859D01*
X181275055Y-93415872D01*
X181282873Y-93407296D01*
X181399149Y-93253321D01*
X181405257Y-93243456D01*
X181491265Y-93070729D01*
X181495453Y-93059918D01*
X181531548Y-92933061D01*
X181532077Y-92921620D01*
X181520933Y-92919000D01*
X180730590Y-92919000D01*
X180717506Y-92922506D01*
X180714000Y-92935590D01*
X180714000Y-93726763D01*
X180206000Y-93726763D01*
X180206000Y-92935590D01*
X180202493Y-92922506D01*
X180189410Y-92919000D01*
X179399067Y-92919000D01*
X179387922Y-92921620D01*
X177740500Y-92921620D01*
X177740500Y-92408379D01*
X179387922Y-92408379D01*
X179399067Y-92411000D01*
X180189410Y-92411000D01*
X180202493Y-92407493D01*
X180206000Y-92394410D01*
X180714000Y-92394410D01*
X180717506Y-92407493D01*
X180730590Y-92411000D01*
X181520933Y-92411000D01*
X181532077Y-92408379D01*
X181531548Y-92396938D01*
X181495453Y-92270081D01*
X181491265Y-92259270D01*
X181405257Y-92086543D01*
X181399149Y-92076678D01*
X181282873Y-91922703D01*
X181275055Y-91914127D01*
X181132466Y-91784140D01*
X181123203Y-91777145D01*
X180959153Y-91675571D01*
X180948771Y-91670401D01*
X180768853Y-91600700D01*
X180757692Y-91597524D01*
X180727641Y-91591907D01*
X180716440Y-91592295D01*
X180714000Y-91603237D01*
X180714000Y-92394410D01*
X180206000Y-92394410D01*
X180206000Y-91603237D01*
X180203559Y-91592295D01*
X180192358Y-91591907D01*
X180162307Y-91597524D01*
X180151146Y-91600700D01*
X179971228Y-91670401D01*
X179960846Y-91675571D01*
X179796796Y-91777145D01*
X179787533Y-91784140D01*
X179644944Y-91914127D01*
X179637126Y-91922703D01*
X179520850Y-92076678D01*
X179514742Y-92086543D01*
X179428734Y-92259270D01*
X179424546Y-92270081D01*
X179388451Y-92396938D01*
X179387922Y-92408379D01*
X177740500Y-92408379D01*
X177740500Y-90381620D01*
X179387922Y-90381620D01*
X179388451Y-90393061D01*
X179424546Y-90519918D01*
X179428734Y-90530729D01*
X179514742Y-90703456D01*
X179520850Y-90713321D01*
X179637126Y-90867296D01*
X179644944Y-90875872D01*
X179787533Y-91005859D01*
X179796796Y-91012854D01*
X179960846Y-91114428D01*
X179971228Y-91119598D01*
X180151146Y-91189299D01*
X180162307Y-91192475D01*
X180192358Y-91198092D01*
X180203559Y-91197704D01*
X180206000Y-91186763D01*
X180714000Y-91186763D01*
X180716440Y-91197704D01*
X180727641Y-91198092D01*
X180757692Y-91192475D01*
X180768853Y-91189299D01*
X180948771Y-91119598D01*
X180959153Y-91114428D01*
X181123203Y-91012854D01*
X181132466Y-91005859D01*
X181275055Y-90875872D01*
X181282873Y-90867296D01*
X181399149Y-90713321D01*
X181405257Y-90703456D01*
X181491265Y-90530729D01*
X181495453Y-90519918D01*
X181531548Y-90393061D01*
X181532077Y-90381620D01*
X181520933Y-90379000D01*
X180730590Y-90379000D01*
X180717506Y-90382506D01*
X180714000Y-90395590D01*
X180714000Y-91186763D01*
X180206000Y-91186763D01*
X180206000Y-90395590D01*
X180202493Y-90382506D01*
X180189410Y-90379000D01*
X179399067Y-90379000D01*
X179387922Y-90381620D01*
X177740500Y-90381620D01*
X177740500Y-89868379D01*
X179387922Y-89868379D01*
X179399067Y-89871000D01*
X180189410Y-89871000D01*
X180202493Y-89867493D01*
X180206000Y-89854410D01*
X180714000Y-89854410D01*
X180717506Y-89867493D01*
X180730590Y-89871000D01*
X181520933Y-89871000D01*
X181532077Y-89868379D01*
X181531548Y-89856938D01*
X181495453Y-89730081D01*
X181491265Y-89719270D01*
X181405257Y-89546543D01*
X181399149Y-89536678D01*
X181282873Y-89382703D01*
X181275055Y-89374127D01*
X181132466Y-89244140D01*
X181123203Y-89237145D01*
X180959153Y-89135571D01*
X180948771Y-89130401D01*
X180768853Y-89060700D01*
X180757692Y-89057524D01*
X180727641Y-89051907D01*
X180716440Y-89052295D01*
X180714000Y-89063237D01*
X180714000Y-89854410D01*
X180206000Y-89854410D01*
X180206000Y-89063237D01*
X180203559Y-89052295D01*
X180192358Y-89051907D01*
X180162307Y-89057524D01*
X180151146Y-89060700D01*
X179971228Y-89130401D01*
X179960846Y-89135571D01*
X179796796Y-89237145D01*
X179787533Y-89244140D01*
X179644944Y-89374127D01*
X179637126Y-89382703D01*
X179520850Y-89536678D01*
X179514742Y-89546543D01*
X179428734Y-89719270D01*
X179424546Y-89730081D01*
X179388451Y-89856938D01*
X179387922Y-89868379D01*
X177740500Y-89868379D01*
X177740500Y-87841620D01*
X179387922Y-87841620D01*
X179388451Y-87853061D01*
X179424546Y-87979918D01*
X179428734Y-87990729D01*
X179514742Y-88163456D01*
X179520850Y-88173321D01*
X179637126Y-88327296D01*
X179644944Y-88335872D01*
X179787533Y-88465859D01*
X179796796Y-88472854D01*
X179960846Y-88574428D01*
X179971228Y-88579598D01*
X180151146Y-88649299D01*
X180162307Y-88652475D01*
X180192358Y-88658092D01*
X180203559Y-88657704D01*
X180206000Y-88646763D01*
X180714000Y-88646763D01*
X180716440Y-88657704D01*
X180727641Y-88658092D01*
X180757692Y-88652475D01*
X180768853Y-88649299D01*
X180948771Y-88579598D01*
X180959153Y-88574428D01*
X181123203Y-88472854D01*
X181132466Y-88465859D01*
X181275055Y-88335872D01*
X181282873Y-88327296D01*
X181399149Y-88173321D01*
X181405257Y-88163456D01*
X181491265Y-87990729D01*
X181495453Y-87979918D01*
X181531548Y-87853061D01*
X181532077Y-87841620D01*
X181520933Y-87839000D01*
X180730590Y-87839000D01*
X180717506Y-87842506D01*
X180714000Y-87855590D01*
X180714000Y-88646763D01*
X180206000Y-88646763D01*
X180206000Y-87855590D01*
X180202493Y-87842506D01*
X180189410Y-87839000D01*
X179399067Y-87839000D01*
X179387922Y-87841620D01*
X177740500Y-87841620D01*
X177740500Y-87328379D01*
X179387922Y-87328379D01*
X179399067Y-87331000D01*
X180189410Y-87331000D01*
X180202493Y-87327493D01*
X180206000Y-87314410D01*
X180714000Y-87314410D01*
X180717506Y-87327493D01*
X180730590Y-87331000D01*
X181520933Y-87331000D01*
X181532077Y-87328379D01*
X181531548Y-87316938D01*
X181495453Y-87190081D01*
X181491265Y-87179270D01*
X181405257Y-87006543D01*
X181399149Y-86996678D01*
X181282873Y-86842703D01*
X181275055Y-86834127D01*
X181132466Y-86704140D01*
X181123203Y-86697145D01*
X180959153Y-86595571D01*
X180948771Y-86590401D01*
X180768853Y-86520700D01*
X180757692Y-86517524D01*
X180727641Y-86511907D01*
X180716440Y-86512295D01*
X180714000Y-86523237D01*
X180714000Y-87314410D01*
X180206000Y-87314410D01*
X180206000Y-86523237D01*
X180203559Y-86512295D01*
X180192358Y-86511907D01*
X180162307Y-86517524D01*
X180151146Y-86520700D01*
X179971228Y-86590401D01*
X179960846Y-86595571D01*
X179796796Y-86697145D01*
X179787533Y-86704140D01*
X179644944Y-86834127D01*
X179637126Y-86842703D01*
X179520850Y-86996678D01*
X179514742Y-87006543D01*
X179428734Y-87179270D01*
X179424546Y-87190081D01*
X179388451Y-87316938D01*
X179387922Y-87328379D01*
X177740500Y-87328379D01*
X177740500Y-85301620D01*
X179387922Y-85301620D01*
X179388451Y-85313061D01*
X179424546Y-85439918D01*
X179428734Y-85450729D01*
X179514742Y-85623456D01*
X179520850Y-85633321D01*
X179637126Y-85787296D01*
X179644944Y-85795872D01*
X179787533Y-85925859D01*
X179796796Y-85932854D01*
X179960846Y-86034428D01*
X179971228Y-86039598D01*
X180151146Y-86109299D01*
X180162307Y-86112475D01*
X180192358Y-86118092D01*
X180203559Y-86117704D01*
X180206000Y-86106763D01*
X180714000Y-86106763D01*
X180716440Y-86117704D01*
X180727641Y-86118092D01*
X180757692Y-86112475D01*
X180768853Y-86109299D01*
X180948771Y-86039598D01*
X180959153Y-86034428D01*
X181123203Y-85932854D01*
X181132466Y-85925859D01*
X181275055Y-85795872D01*
X181282873Y-85787296D01*
X181399149Y-85633321D01*
X181405257Y-85623456D01*
X181491265Y-85450729D01*
X181495453Y-85439918D01*
X181531548Y-85313061D01*
X181532077Y-85301620D01*
X181520933Y-85299000D01*
X180730590Y-85299000D01*
X180717506Y-85302506D01*
X180714000Y-85315590D01*
X180714000Y-86106763D01*
X180206000Y-86106763D01*
X180206000Y-85315590D01*
X180202493Y-85302506D01*
X180189410Y-85299000D01*
X179399067Y-85299000D01*
X179387922Y-85301620D01*
X177740500Y-85301620D01*
X177740500Y-84788379D01*
X179387922Y-84788379D01*
X179399067Y-84791000D01*
X180189410Y-84791000D01*
X180202493Y-84787493D01*
X180206000Y-84774410D01*
X180714000Y-84774410D01*
X180717506Y-84787493D01*
X180730590Y-84791000D01*
X181520933Y-84791000D01*
X181532077Y-84788379D01*
X181531548Y-84776938D01*
X181495453Y-84650081D01*
X181491265Y-84639270D01*
X181405257Y-84466543D01*
X181399149Y-84456678D01*
X181282873Y-84302703D01*
X181275055Y-84294127D01*
X181132466Y-84164140D01*
X181123203Y-84157145D01*
X180959153Y-84055571D01*
X180948771Y-84050401D01*
X180768853Y-83980700D01*
X180757692Y-83977524D01*
X180727641Y-83971907D01*
X180716440Y-83972295D01*
X180714000Y-83983237D01*
X180714000Y-84774410D01*
X180206000Y-84774410D01*
X180206000Y-83983237D01*
X180203559Y-83972295D01*
X180192358Y-83971907D01*
X180162307Y-83977524D01*
X180151146Y-83980700D01*
X179971228Y-84050401D01*
X179960846Y-84055571D01*
X179796796Y-84157145D01*
X179787533Y-84164140D01*
X179644944Y-84294127D01*
X179637126Y-84302703D01*
X179520850Y-84456678D01*
X179514742Y-84466543D01*
X179428734Y-84639270D01*
X179424546Y-84650081D01*
X179388451Y-84776938D01*
X179387922Y-84788379D01*
X177740500Y-84788379D01*
X177740500Y-82505000D01*
X179350768Y-82505000D01*
X179351306Y-82510806D01*
X179369116Y-82703015D01*
X179369117Y-82703025D01*
X179369655Y-82708821D01*
X179371249Y-82714426D01*
X179371250Y-82714427D01*
X179410536Y-82852506D01*
X179425672Y-82905701D01*
X179516912Y-83088935D01*
X179520421Y-83093582D01*
X179520422Y-83093583D01*
X179636755Y-83247634D01*
X179636759Y-83247638D01*
X179640268Y-83252285D01*
X179644570Y-83256207D01*
X179644573Y-83256210D01*
X179728752Y-83332949D01*
X179791538Y-83390186D01*
X179965573Y-83497944D01*
X180156444Y-83571888D01*
X180357653Y-83609500D01*
X180556519Y-83609500D01*
X180562347Y-83609500D01*
X180763556Y-83571888D01*
X180954427Y-83497944D01*
X181128462Y-83390186D01*
X181279732Y-83252285D01*
X181403088Y-83088935D01*
X181494328Y-82905701D01*
X181550345Y-82708821D01*
X181569232Y-82505000D01*
X181550345Y-82301179D01*
X181516613Y-82182626D01*
X181515850Y-82116473D01*
X181548709Y-82059051D01*
X181869816Y-81737944D01*
X181915209Y-81692551D01*
X181968889Y-81660726D01*
X182031258Y-81658564D01*
X182087015Y-81686595D01*
X182122481Y-81737944D01*
X182128957Y-81800014D01*
X182104854Y-81857578D01*
X182060421Y-81916417D01*
X182060416Y-81916424D01*
X182056912Y-81921065D01*
X182054317Y-81926274D01*
X182054314Y-81926281D01*
X182009369Y-82016543D01*
X181965672Y-82104299D01*
X181964078Y-82109899D01*
X181964076Y-82109906D01*
X181911250Y-82295572D01*
X181909655Y-82301179D01*
X181909118Y-82306972D01*
X181909116Y-82306984D01*
X181891306Y-82499194D01*
X181890768Y-82505000D01*
X181891306Y-82510806D01*
X181909116Y-82703015D01*
X181909117Y-82703025D01*
X181909655Y-82708821D01*
X181911249Y-82714426D01*
X181911250Y-82714427D01*
X181950536Y-82852506D01*
X181965672Y-82905701D01*
X182056912Y-83088935D01*
X182060421Y-83093582D01*
X182060422Y-83093583D01*
X182176755Y-83247634D01*
X182176759Y-83247638D01*
X182180268Y-83252285D01*
X182184570Y-83256207D01*
X182184573Y-83256210D01*
X182268752Y-83332949D01*
X182331538Y-83390186D01*
X182505573Y-83497944D01*
X182696444Y-83571888D01*
X182897653Y-83609500D01*
X183096519Y-83609500D01*
X183102347Y-83609500D01*
X183303556Y-83571888D01*
X183494427Y-83497944D01*
X183668462Y-83390186D01*
X183819732Y-83252285D01*
X183943088Y-83088935D01*
X184034328Y-82905701D01*
X184090345Y-82708821D01*
X184109232Y-82505000D01*
X184090345Y-82301179D01*
X184034328Y-82104299D01*
X183943088Y-81921065D01*
X183895145Y-81857578D01*
X183823244Y-81762365D01*
X183823241Y-81762361D01*
X183819732Y-81757715D01*
X183815429Y-81753792D01*
X183815426Y-81753789D01*
X183672764Y-81623736D01*
X183672765Y-81623736D01*
X183668462Y-81619814D01*
X183614862Y-81586626D01*
X183570555Y-81539793D01*
X183555215Y-81477172D01*
X183572858Y-81415161D01*
X183618866Y-81369995D01*
X183681193Y-81353500D01*
X198260550Y-81353500D01*
X198308768Y-81363091D01*
X198349645Y-81390405D01*
X200192735Y-83233495D01*
X200224001Y-83285318D01*
X200227495Y-83345742D01*
X200202410Y-83400824D01*
X200154534Y-83437854D01*
X200094915Y-83448288D01*
X200037310Y-83429717D01*
X199889387Y-83338127D01*
X199889386Y-83338126D01*
X199884427Y-83335056D01*
X199860898Y-83325941D01*
X199698989Y-83263216D01*
X199698981Y-83263213D01*
X199693556Y-83261112D01*
X199687839Y-83260043D01*
X199687831Y-83260041D01*
X199498073Y-83224570D01*
X199498069Y-83224569D01*
X199492347Y-83223500D01*
X199287653Y-83223500D01*
X199281931Y-83224569D01*
X199281926Y-83224570D01*
X199092168Y-83260041D01*
X199092157Y-83260043D01*
X199086444Y-83261112D01*
X199081021Y-83263212D01*
X199081010Y-83263216D01*
X198901011Y-83332949D01*
X198901008Y-83332950D01*
X198895573Y-83335056D01*
X198890617Y-83338124D01*
X198890612Y-83338127D01*
X198726491Y-83439746D01*
X198726481Y-83439752D01*
X198721538Y-83442814D01*
X198717239Y-83446732D01*
X198717235Y-83446736D01*
X198574573Y-83576789D01*
X198574565Y-83576797D01*
X198570268Y-83580715D01*
X198566763Y-83585355D01*
X198566755Y-83585365D01*
X198450422Y-83739416D01*
X198450418Y-83739421D01*
X198446912Y-83744065D01*
X198379888Y-83878665D01*
X198333430Y-83929627D01*
X198267100Y-83948500D01*
X197002058Y-83948500D01*
X196952458Y-83938327D01*
X196910867Y-83909450D01*
X196884004Y-83866535D01*
X196858342Y-83797733D01*
X196771404Y-83681596D01*
X196753365Y-83668092D01*
X196662484Y-83600060D01*
X196662481Y-83600058D01*
X196655267Y-83594658D01*
X196646818Y-83591506D01*
X196646817Y-83591506D01*
X196526728Y-83546714D01*
X196526721Y-83546712D01*
X196519342Y-83543960D01*
X196511508Y-83543117D01*
X196511505Y-83543117D01*
X196467962Y-83538436D01*
X196459255Y-83537500D01*
X196455887Y-83537500D01*
X195466116Y-83537500D01*
X195466097Y-83537500D01*
X195462746Y-83537501D01*
X195459401Y-83537860D01*
X195459392Y-83537861D01*
X195410499Y-83543117D01*
X195410497Y-83543117D01*
X195402658Y-83543960D01*
X195395270Y-83546715D01*
X195395268Y-83546716D01*
X195275182Y-83591506D01*
X195275178Y-83591508D01*
X195266733Y-83594658D01*
X195259521Y-83600056D01*
X195259515Y-83600060D01*
X195157807Y-83676197D01*
X195157803Y-83676200D01*
X195150596Y-83681596D01*
X195145200Y-83688803D01*
X195145197Y-83688807D01*
X195069060Y-83790515D01*
X195069056Y-83790521D01*
X195063658Y-83797733D01*
X195060508Y-83806178D01*
X195060506Y-83806182D01*
X195015714Y-83926271D01*
X195015711Y-83926280D01*
X195012960Y-83933658D01*
X195012118Y-83941489D01*
X195012117Y-83941494D01*
X195007902Y-83980700D01*
X195006500Y-83993745D01*
X195006500Y-83997111D01*
X195006500Y-83997112D01*
X195006500Y-84611883D01*
X195006500Y-84611901D01*
X195006501Y-84615254D01*
X195006860Y-84618599D01*
X195006861Y-84618607D01*
X195011902Y-84665500D01*
X195012960Y-84675342D01*
X195015716Y-84682731D01*
X195056098Y-84791000D01*
X195063658Y-84811267D01*
X195069058Y-84818481D01*
X195069060Y-84818484D01*
X195145197Y-84920192D01*
X195150596Y-84927404D01*
X195157807Y-84932802D01*
X195217140Y-84977218D01*
X195266733Y-85014342D01*
X195333363Y-85039194D01*
X195395271Y-85062285D01*
X195395272Y-85062285D01*
X195402658Y-85065040D01*
X195462745Y-85071500D01*
X196072049Y-85071499D01*
X196129251Y-85085232D01*
X196173984Y-85123438D01*
X196196497Y-85177788D01*
X196191881Y-85236435D01*
X196161143Y-85286594D01*
X196158802Y-85288935D01*
X196155410Y-85292203D01*
X196115901Y-85328863D01*
X196076232Y-85353790D01*
X196030198Y-85362500D01*
X195466116Y-85362500D01*
X195466097Y-85362500D01*
X195462746Y-85362501D01*
X195459401Y-85362860D01*
X195459392Y-85362861D01*
X195410499Y-85368117D01*
X195410497Y-85368117D01*
X195402658Y-85368960D01*
X195395270Y-85371715D01*
X195395268Y-85371716D01*
X195275182Y-85416506D01*
X195275178Y-85416508D01*
X195266733Y-85419658D01*
X195259521Y-85425056D01*
X195259515Y-85425060D01*
X195157807Y-85501197D01*
X195157803Y-85501200D01*
X195150596Y-85506596D01*
X195145200Y-85513803D01*
X195145197Y-85513807D01*
X195069060Y-85615515D01*
X195069056Y-85615521D01*
X195063658Y-85622733D01*
X195060508Y-85631178D01*
X195060506Y-85631182D01*
X195015714Y-85751271D01*
X195015711Y-85751280D01*
X195012960Y-85758658D01*
X195012118Y-85766489D01*
X195012117Y-85766494D01*
X195008169Y-85803217D01*
X195006500Y-85818745D01*
X195006500Y-85822111D01*
X195006500Y-85822112D01*
X195006500Y-86341236D01*
X194992767Y-86398439D01*
X194954561Y-86443172D01*
X194900211Y-86465685D01*
X194841564Y-86461069D01*
X194791405Y-86430331D01*
X193174798Y-84813724D01*
X193158412Y-84793548D01*
X193152448Y-84784418D01*
X193144205Y-84778002D01*
X193144204Y-84778001D01*
X193127234Y-84764792D01*
X193123288Y-84761307D01*
X193123151Y-84761470D01*
X193119182Y-84758108D01*
X193115493Y-84754419D01*
X193111250Y-84751389D01*
X193111246Y-84751386D01*
X193098414Y-84742224D01*
X193094243Y-84739114D01*
X193060739Y-84713037D01*
X193060733Y-84713034D01*
X193052499Y-84706625D01*
X193044897Y-84704015D01*
X193038359Y-84699347D01*
X192987682Y-84684260D01*
X192982756Y-84682682D01*
X192932707Y-84665500D01*
X192924669Y-84665500D01*
X192916970Y-84663208D01*
X192906541Y-84663639D01*
X192906539Y-84663639D01*
X192864166Y-84665392D01*
X192858959Y-84665500D01*
X184122900Y-84665500D01*
X184056570Y-84646627D01*
X184010111Y-84595665D01*
X183943088Y-84461065D01*
X183900860Y-84405146D01*
X183823244Y-84302365D01*
X183823241Y-84302361D01*
X183819732Y-84297715D01*
X183815429Y-84293792D01*
X183815426Y-84293789D01*
X183672764Y-84163736D01*
X183672765Y-84163736D01*
X183668462Y-84159814D01*
X183663512Y-84156749D01*
X183663508Y-84156746D01*
X183499387Y-84055127D01*
X183499386Y-84055126D01*
X183494427Y-84052056D01*
X183438785Y-84030500D01*
X183308989Y-83980216D01*
X183308981Y-83980213D01*
X183303556Y-83978112D01*
X183297839Y-83977043D01*
X183297831Y-83977041D01*
X183108073Y-83941570D01*
X183108069Y-83941569D01*
X183102347Y-83940500D01*
X182897653Y-83940500D01*
X182891931Y-83941569D01*
X182891926Y-83941570D01*
X182702168Y-83977041D01*
X182702157Y-83977043D01*
X182696444Y-83978112D01*
X182691021Y-83980212D01*
X182691010Y-83980216D01*
X182511011Y-84049949D01*
X182511008Y-84049950D01*
X182505573Y-84052056D01*
X182500617Y-84055124D01*
X182500612Y-84055127D01*
X182336491Y-84156746D01*
X182336481Y-84156752D01*
X182331538Y-84159814D01*
X182327239Y-84163732D01*
X182327235Y-84163736D01*
X182184573Y-84293789D01*
X182184565Y-84293797D01*
X182180268Y-84297715D01*
X182176763Y-84302355D01*
X182176755Y-84302365D01*
X182060422Y-84456416D01*
X182060418Y-84456421D01*
X182056912Y-84461065D01*
X182054319Y-84466273D01*
X182054314Y-84466281D01*
X181978465Y-84618607D01*
X181965672Y-84644299D01*
X181964078Y-84649899D01*
X181964076Y-84649906D01*
X181911250Y-84835572D01*
X181909655Y-84841179D01*
X181909118Y-84846972D01*
X181909116Y-84846984D01*
X181893609Y-85014342D01*
X181890768Y-85045000D01*
X181891306Y-85050806D01*
X181909116Y-85243015D01*
X181909117Y-85243025D01*
X181909655Y-85248821D01*
X181911249Y-85254426D01*
X181911250Y-85254427D01*
X181964026Y-85439918D01*
X181965672Y-85445701D01*
X181968271Y-85450920D01*
X182050229Y-85615515D01*
X182056912Y-85628935D01*
X182060421Y-85633582D01*
X182060422Y-85633583D01*
X182176755Y-85787634D01*
X182176759Y-85787638D01*
X182180268Y-85792285D01*
X182184570Y-85796207D01*
X182184573Y-85796210D01*
X182268752Y-85872949D01*
X182331538Y-85930186D01*
X182505573Y-86037944D01*
X182696444Y-86111888D01*
X182897653Y-86149500D01*
X183096519Y-86149500D01*
X183102347Y-86149500D01*
X183303556Y-86111888D01*
X183494427Y-86037944D01*
X183668462Y-85930186D01*
X183819732Y-85792285D01*
X183943088Y-85628935D01*
X184010111Y-85494334D01*
X184056570Y-85443373D01*
X184122900Y-85424500D01*
X192659996Y-85424500D01*
X192708214Y-85434091D01*
X192749091Y-85461405D01*
X194926444Y-87638758D01*
X194960381Y-87700664D01*
X194955692Y-87771106D01*
X194913851Y-87827970D01*
X194847994Y-87853403D01*
X194778794Y-87839420D01*
X194744807Y-87821582D01*
X194744805Y-87821581D01*
X194738054Y-87818038D01*
X194730656Y-87816214D01*
X194730652Y-87816213D01*
X194591125Y-87781823D01*
X194591123Y-87781822D01*
X194583732Y-87780001D01*
X194424790Y-87780001D01*
X194417399Y-87781822D01*
X194417396Y-87781823D01*
X194277869Y-87816213D01*
X194277862Y-87816215D01*
X194270468Y-87818038D01*
X194263719Y-87821579D01*
X194263714Y-87821582D01*
X194136484Y-87888358D01*
X194136482Y-87888359D01*
X194129732Y-87891902D01*
X194124030Y-87896953D01*
X194124025Y-87896957D01*
X194016468Y-87992245D01*
X194016464Y-87992248D01*
X194010763Y-87997300D01*
X194006436Y-88003567D01*
X194006432Y-88003573D01*
X193924803Y-88121833D01*
X193924799Y-88121838D01*
X193920474Y-88128106D01*
X193917775Y-88135221D01*
X193917771Y-88135230D01*
X193866813Y-88269595D01*
X193866811Y-88269601D01*
X193864112Y-88276719D01*
X193863193Y-88284280D01*
X193863193Y-88284284D01*
X193847043Y-88417296D01*
X193844954Y-88434501D01*
X193845873Y-88442070D01*
X193862626Y-88580050D01*
X193864112Y-88592283D01*
X193866812Y-88599402D01*
X193866814Y-88599410D01*
X193870383Y-88608819D01*
X193877654Y-88668687D01*
X193856269Y-88725076D01*
X193811128Y-88765068D01*
X193752572Y-88779501D01*
X184783385Y-88779501D01*
X184735167Y-88769910D01*
X184694290Y-88742596D01*
X184064900Y-88113206D01*
X184037958Y-88073216D01*
X184028010Y-88026035D01*
X184035191Y-87985946D01*
X184034328Y-87985701D01*
X184038389Y-87971429D01*
X184090345Y-87788821D01*
X184109232Y-87585000D01*
X184090345Y-87381179D01*
X184034328Y-87184299D01*
X183943088Y-87001065D01*
X183900860Y-86945146D01*
X183823244Y-86842365D01*
X183823241Y-86842361D01*
X183819732Y-86837715D01*
X183815429Y-86833792D01*
X183815426Y-86833789D01*
X183672764Y-86703736D01*
X183672765Y-86703736D01*
X183668462Y-86699814D01*
X183663512Y-86696749D01*
X183663508Y-86696746D01*
X183499387Y-86595127D01*
X183499386Y-86595126D01*
X183494427Y-86592056D01*
X183438785Y-86570500D01*
X183308989Y-86520216D01*
X183308981Y-86520213D01*
X183303556Y-86518112D01*
X183297839Y-86517043D01*
X183297831Y-86517041D01*
X183108073Y-86481570D01*
X183108069Y-86481569D01*
X183102347Y-86480500D01*
X182897653Y-86480500D01*
X182891931Y-86481569D01*
X182891926Y-86481570D01*
X182702168Y-86517041D01*
X182702157Y-86517043D01*
X182696444Y-86518112D01*
X182691021Y-86520212D01*
X182691010Y-86520216D01*
X182511011Y-86589949D01*
X182511008Y-86589950D01*
X182505573Y-86592056D01*
X182500617Y-86595124D01*
X182500612Y-86595127D01*
X182336491Y-86696746D01*
X182336481Y-86696752D01*
X182331538Y-86699814D01*
X182327239Y-86703732D01*
X182327235Y-86703736D01*
X182184573Y-86833789D01*
X182184565Y-86833797D01*
X182180268Y-86837715D01*
X182176763Y-86842355D01*
X182176755Y-86842365D01*
X182060422Y-86996416D01*
X182060418Y-86996421D01*
X182056912Y-87001065D01*
X182054317Y-87006274D01*
X182054314Y-87006281D01*
X181988432Y-87138590D01*
X181965672Y-87184299D01*
X181964078Y-87189899D01*
X181964076Y-87189906D01*
X181923932Y-87331000D01*
X181909655Y-87381179D01*
X181909118Y-87386972D01*
X181909116Y-87386984D01*
X181901315Y-87471179D01*
X181890768Y-87585000D01*
X181891306Y-87590806D01*
X181909116Y-87783015D01*
X181909117Y-87783025D01*
X181909655Y-87788821D01*
X181911249Y-87794426D01*
X181911250Y-87794427D01*
X181964026Y-87979918D01*
X181965672Y-87985701D01*
X181968271Y-87990920D01*
X182036581Y-88128106D01*
X182056912Y-88168935D01*
X182060421Y-88173582D01*
X182060422Y-88173583D01*
X182176755Y-88327634D01*
X182176759Y-88327638D01*
X182180268Y-88332285D01*
X182184570Y-88336207D01*
X182184573Y-88336210D01*
X182272466Y-88416335D01*
X182331538Y-88470186D01*
X182505573Y-88577944D01*
X182696444Y-88651888D01*
X182897653Y-88689500D01*
X183096519Y-88689500D01*
X183102347Y-88689500D01*
X183303556Y-88651888D01*
X183390357Y-88618260D01*
X183437808Y-88609768D01*
X183484982Y-88619719D01*
X183524964Y-88646658D01*
X184268582Y-89390276D01*
X184284964Y-89410447D01*
X184290933Y-89419583D01*
X184299174Y-89425997D01*
X184316140Y-89439202D01*
X184320090Y-89442690D01*
X184320227Y-89442529D01*
X184324201Y-89445895D01*
X184327888Y-89449582D01*
X184345000Y-89461800D01*
X184349142Y-89464889D01*
X184390882Y-89497376D01*
X184398483Y-89499985D01*
X184405022Y-89504654D01*
X184413196Y-89507087D01*
X184462452Y-89550583D01*
X184482862Y-89614292D01*
X184467784Y-89679469D01*
X184421468Y-89727741D01*
X184356970Y-89745500D01*
X184122900Y-89745500D01*
X184056570Y-89726627D01*
X184010111Y-89675665D01*
X183943088Y-89541065D01*
X183900860Y-89485146D01*
X183823244Y-89382365D01*
X183823241Y-89382361D01*
X183819732Y-89377715D01*
X183815429Y-89373792D01*
X183815426Y-89373789D01*
X183672764Y-89243736D01*
X183672765Y-89243736D01*
X183668462Y-89239814D01*
X183663512Y-89236749D01*
X183663508Y-89236746D01*
X183499387Y-89135127D01*
X183499386Y-89135126D01*
X183494427Y-89132056D01*
X183438785Y-89110500D01*
X183308989Y-89060216D01*
X183308981Y-89060213D01*
X183303556Y-89058112D01*
X183297839Y-89057043D01*
X183297831Y-89057041D01*
X183108073Y-89021570D01*
X183108069Y-89021569D01*
X183102347Y-89020500D01*
X182897653Y-89020500D01*
X182891931Y-89021569D01*
X182891926Y-89021570D01*
X182702168Y-89057041D01*
X182702157Y-89057043D01*
X182696444Y-89058112D01*
X182691021Y-89060212D01*
X182691010Y-89060216D01*
X182511011Y-89129949D01*
X182511008Y-89129950D01*
X182505573Y-89132056D01*
X182500617Y-89135124D01*
X182500612Y-89135127D01*
X182336491Y-89236746D01*
X182336481Y-89236752D01*
X182331538Y-89239814D01*
X182327239Y-89243732D01*
X182327235Y-89243736D01*
X182184573Y-89373789D01*
X182184565Y-89373797D01*
X182180268Y-89377715D01*
X182176763Y-89382355D01*
X182176755Y-89382365D01*
X182060422Y-89536416D01*
X182060418Y-89536421D01*
X182056912Y-89541065D01*
X182054319Y-89546273D01*
X182054314Y-89546281D01*
X181976060Y-89703437D01*
X181965672Y-89724299D01*
X181964078Y-89729899D01*
X181964076Y-89729906D01*
X181923932Y-89871000D01*
X181909655Y-89921179D01*
X181909118Y-89926972D01*
X181909116Y-89926984D01*
X181895314Y-90075942D01*
X181890768Y-90125000D01*
X181891306Y-90130806D01*
X181909116Y-90323015D01*
X181909117Y-90323025D01*
X181909655Y-90328821D01*
X181911249Y-90334426D01*
X181911250Y-90334427D01*
X181964026Y-90519918D01*
X181965672Y-90525701D01*
X182056912Y-90708935D01*
X182060421Y-90713582D01*
X182060422Y-90713583D01*
X182176755Y-90867634D01*
X182176759Y-90867638D01*
X182180268Y-90872285D01*
X182184570Y-90876207D01*
X182184573Y-90876210D01*
X182272466Y-90956335D01*
X182331538Y-91010186D01*
X182505573Y-91117944D01*
X182696444Y-91191888D01*
X182897653Y-91229500D01*
X183096519Y-91229500D01*
X183102347Y-91229500D01*
X183303556Y-91191888D01*
X183494427Y-91117944D01*
X183668462Y-91010186D01*
X183819732Y-90872285D01*
X183943088Y-90708935D01*
X184010111Y-90574334D01*
X184056570Y-90523373D01*
X184122900Y-90504500D01*
X195392076Y-90504500D01*
X195417932Y-90507181D01*
X195428602Y-90509419D01*
X195460297Y-90505468D01*
X195465555Y-90505141D01*
X195465538Y-90504930D01*
X195470725Y-90504500D01*
X195475945Y-90504500D01*
X195496689Y-90501037D01*
X195501752Y-90500299D01*
X195554285Y-90493752D01*
X195561505Y-90490222D01*
X195569429Y-90488900D01*
X195615913Y-90463742D01*
X195620545Y-90461359D01*
X195668070Y-90438126D01*
X195673754Y-90432441D01*
X195680818Y-90428619D01*
X195716645Y-90389699D01*
X195720203Y-90385991D01*
X196081289Y-90024906D01*
X196122167Y-89997593D01*
X196170385Y-89988002D01*
X197529822Y-89988002D01*
X197588377Y-90002435D01*
X197633518Y-90042426D01*
X197654903Y-90098815D01*
X197647634Y-90158683D01*
X197609552Y-90259094D01*
X197609550Y-90259100D01*
X197606851Y-90266218D01*
X197605932Y-90273779D01*
X197605932Y-90273783D01*
X197589697Y-90407497D01*
X197587693Y-90424000D01*
X197588612Y-90431569D01*
X197602437Y-90545435D01*
X197606851Y-90581782D01*
X197609551Y-90588901D01*
X197609552Y-90588905D01*
X197660510Y-90723270D01*
X197660512Y-90723275D01*
X197663213Y-90730395D01*
X197667541Y-90736665D01*
X197667542Y-90736667D01*
X197731196Y-90828885D01*
X197747795Y-90862976D01*
X197753500Y-90900461D01*
X197753500Y-91007676D01*
X197740172Y-91064077D01*
X197710244Y-91099885D01*
X197711182Y-91100823D01*
X197704805Y-91107198D01*
X197697596Y-91112596D01*
X197692200Y-91119803D01*
X197692197Y-91119807D01*
X197616060Y-91221515D01*
X197616056Y-91221521D01*
X197610658Y-91228733D01*
X197607508Y-91237178D01*
X197607506Y-91237182D01*
X197562714Y-91357271D01*
X197562711Y-91357280D01*
X197559960Y-91364658D01*
X197559118Y-91372489D01*
X197559117Y-91372494D01*
X197553860Y-91421392D01*
X197553500Y-91424745D01*
X197553500Y-91428111D01*
X197553500Y-91428112D01*
X197553500Y-92467883D01*
X197553500Y-92467901D01*
X197553501Y-92471254D01*
X197553860Y-92474599D01*
X197553861Y-92474607D01*
X197559117Y-92523500D01*
X197559960Y-92531342D01*
X197562715Y-92538728D01*
X197562716Y-92538731D01*
X197583080Y-92593330D01*
X197610658Y-92667267D01*
X197616058Y-92674481D01*
X197616060Y-92674484D01*
X197690039Y-92773309D01*
X197697596Y-92783404D01*
X197704807Y-92788802D01*
X197704810Y-92788805D01*
X197753008Y-92824885D01*
X197790172Y-92869354D01*
X197803500Y-92925754D01*
X197803500Y-93385501D01*
X197786619Y-93448501D01*
X197740500Y-93494620D01*
X197677500Y-93511501D01*
X197501434Y-93511501D01*
X197495368Y-93512707D01*
X197495362Y-93512708D01*
X197439374Y-93523844D01*
X197439371Y-93523844D01*
X197427199Y-93526266D01*
X197416879Y-93533161D01*
X197416878Y-93533162D01*
X197353332Y-93575622D01*
X197353329Y-93575624D01*
X197343016Y-93582516D01*
X197336124Y-93592829D01*
X197336122Y-93592832D01*
X197293661Y-93656379D01*
X197293659Y-93656381D01*
X197286766Y-93666699D01*
X197284345Y-93678867D01*
X197284344Y-93678871D01*
X197273207Y-93734864D01*
X197272000Y-93740933D01*
X197272000Y-93747118D01*
X197272000Y-93747119D01*
X197272000Y-94234877D01*
X197272000Y-94234887D01*
X197272001Y-94241066D01*
X197273206Y-94247128D01*
X197273207Y-94247130D01*
X197282271Y-94292701D01*
X197282271Y-94341858D01*
X197273706Y-94384919D01*
X197272500Y-94397170D01*
X197272500Y-94399410D01*
X197276006Y-94412493D01*
X197289090Y-94416000D01*
X197329511Y-94416000D01*
X197366088Y-94421426D01*
X197399514Y-94437236D01*
X197416879Y-94448839D01*
X197416881Y-94448840D01*
X197427199Y-94455734D01*
X197501433Y-94470500D01*
X199026566Y-94470499D01*
X199100801Y-94455734D01*
X199111120Y-94448838D01*
X199111122Y-94448838D01*
X199128486Y-94437236D01*
X199161912Y-94421426D01*
X199198489Y-94416000D01*
X199238909Y-94416000D01*
X199251992Y-94412493D01*
X199255499Y-94399410D01*
X199255499Y-94397172D01*
X199254291Y-94384912D01*
X199245729Y-94341862D01*
X199245729Y-94292701D01*
X199245793Y-94292381D01*
X199256000Y-94241067D01*
X199255999Y-93740934D01*
X199241234Y-93666699D01*
X199184984Y-93582516D01*
X199141189Y-93553253D01*
X199111120Y-93533161D01*
X199111119Y-93533160D01*
X199100801Y-93526266D01*
X199088631Y-93523845D01*
X199088628Y-93523844D01*
X199032635Y-93512707D01*
X199026567Y-93511500D01*
X199020380Y-93511500D01*
X198938500Y-93511500D01*
X198875500Y-93494619D01*
X198829381Y-93448500D01*
X198812500Y-93385500D01*
X198812500Y-92925754D01*
X198825828Y-92869354D01*
X198862992Y-92824885D01*
X198911189Y-92788805D01*
X198911188Y-92788805D01*
X198918404Y-92783404D01*
X199005342Y-92667267D01*
X199032920Y-92593326D01*
X199074912Y-92536910D01*
X199140605Y-92511789D01*
X199209529Y-92525794D01*
X199276462Y-92560923D01*
X199283207Y-92564463D01*
X199437529Y-92602500D01*
X199588854Y-92602500D01*
X199596471Y-92602500D01*
X199750793Y-92564463D01*
X199891529Y-92490599D01*
X200010498Y-92385201D01*
X200100787Y-92254395D01*
X200157149Y-92105782D01*
X200174186Y-91965462D01*
X200201267Y-91901456D01*
X200258165Y-91861543D01*
X200327569Y-91857871D01*
X200388362Y-91891556D01*
X205319081Y-96822275D01*
X205335463Y-96842446D01*
X205341432Y-96851582D01*
X205349673Y-96857996D01*
X205366639Y-96871201D01*
X205370589Y-96874689D01*
X205370726Y-96874528D01*
X205374699Y-96877893D01*
X205378386Y-96881580D01*
X205382626Y-96884607D01*
X205395478Y-96893783D01*
X205399655Y-96896898D01*
X205441381Y-96929375D01*
X205448980Y-96931984D01*
X205455520Y-96936653D01*
X205465522Y-96939630D01*
X205465523Y-96939631D01*
X205506197Y-96951739D01*
X205511124Y-96953317D01*
X205534915Y-96961485D01*
X205579337Y-96987954D01*
X205609387Y-97030042D01*
X205620000Y-97080656D01*
X205620000Y-97398742D01*
X205608679Y-97450941D01*
X205576751Y-97493759D01*
X205529952Y-97519504D01*
X205525069Y-97520957D01*
X205514717Y-97522248D01*
X205507496Y-97525777D01*
X205499573Y-97527100D01*
X205490400Y-97532063D01*
X205490391Y-97532067D01*
X205453067Y-97552265D01*
X205448443Y-97554646D01*
X205410979Y-97572962D01*
X205400932Y-97577874D01*
X205395247Y-97583558D01*
X205388184Y-97587381D01*
X205381119Y-97595055D01*
X205381113Y-97595060D01*
X205352368Y-97626285D01*
X205348764Y-97630040D01*
X203673724Y-99305080D01*
X203653553Y-99321462D01*
X203653161Y-99321717D01*
X203653151Y-99321725D01*
X203644418Y-99327432D01*
X203638007Y-99335667D01*
X203638003Y-99335672D01*
X203624789Y-99352649D01*
X203621324Y-99356616D01*
X203621464Y-99356735D01*
X203618105Y-99360699D01*
X203614419Y-99364387D01*
X203611395Y-99368621D01*
X203611389Y-99368629D01*
X203602211Y-99381483D01*
X203599105Y-99385647D01*
X203573036Y-99419141D01*
X203573031Y-99419150D01*
X203566625Y-99427381D01*
X203564015Y-99434982D01*
X203559347Y-99441521D01*
X203556371Y-99451514D01*
X203556369Y-99451520D01*
X203544259Y-99492195D01*
X203542672Y-99497150D01*
X203528887Y-99537304D01*
X203528886Y-99537309D01*
X203525500Y-99547173D01*
X203525500Y-99555211D01*
X203523208Y-99562910D01*
X203523639Y-99573337D01*
X203523639Y-99573340D01*
X203525392Y-99615714D01*
X203525500Y-99620921D01*
X203525500Y-103132146D01*
X203512291Y-103188309D01*
X203475432Y-103232696D01*
X203422652Y-103256001D01*
X203365018Y-103253336D01*
X203314614Y-103225261D01*
X203212466Y-103132140D01*
X203203203Y-103125145D01*
X203039153Y-103023571D01*
X203028771Y-103018401D01*
X202848853Y-102948700D01*
X202837692Y-102945524D01*
X202807641Y-102939907D01*
X202796440Y-102940295D01*
X202794000Y-102951237D01*
X202794000Y-105074763D01*
X202796440Y-105085704D01*
X202807641Y-105086092D01*
X202837692Y-105080475D01*
X202848853Y-105077299D01*
X203028771Y-105007598D01*
X203039153Y-105002428D01*
X203203203Y-104900854D01*
X203212466Y-104893859D01*
X203314614Y-104800739D01*
X203365018Y-104772664D01*
X203422652Y-104769999D01*
X203475432Y-104793304D01*
X203512291Y-104837691D01*
X203525500Y-104893854D01*
X203525500Y-104978615D01*
X203515909Y-105026833D01*
X203488595Y-105067711D01*
X203064964Y-105491341D01*
X203024982Y-105518279D01*
X202977810Y-105528230D01*
X202930353Y-105519737D01*
X202848983Y-105488214D01*
X202848979Y-105488212D01*
X202843556Y-105486112D01*
X202837837Y-105485043D01*
X202837834Y-105485042D01*
X202648073Y-105449570D01*
X202648069Y-105449569D01*
X202642347Y-105448500D01*
X202437653Y-105448500D01*
X202431931Y-105449569D01*
X202431926Y-105449570D01*
X202242168Y-105485041D01*
X202242157Y-105485043D01*
X202236444Y-105486112D01*
X202231021Y-105488212D01*
X202231010Y-105488216D01*
X202051011Y-105557949D01*
X202051008Y-105557950D01*
X202045573Y-105560056D01*
X202040617Y-105563124D01*
X202040612Y-105563127D01*
X201876491Y-105664746D01*
X201876481Y-105664752D01*
X201871538Y-105667814D01*
X201867239Y-105671732D01*
X201867235Y-105671736D01*
X201724573Y-105801789D01*
X201724565Y-105801797D01*
X201720268Y-105805715D01*
X201716763Y-105810355D01*
X201716755Y-105810365D01*
X201600422Y-105964416D01*
X201600418Y-105964421D01*
X201596912Y-105969065D01*
X201594317Y-105974274D01*
X201594314Y-105974281D01*
X201537894Y-106087588D01*
X201505672Y-106152299D01*
X201504078Y-106157899D01*
X201504076Y-106157906D01*
X201451250Y-106343572D01*
X201449655Y-106349179D01*
X201449118Y-106354972D01*
X201449116Y-106354984D01*
X201431306Y-106547194D01*
X201430768Y-106553000D01*
X201431306Y-106558806D01*
X201449116Y-106751015D01*
X201449117Y-106751025D01*
X201449655Y-106756821D01*
X201505672Y-106953701D01*
X201596912Y-107136935D01*
X201600421Y-107141582D01*
X201600422Y-107141583D01*
X201716755Y-107295634D01*
X201716759Y-107295638D01*
X201720268Y-107300285D01*
X201724570Y-107304207D01*
X201724573Y-107304210D01*
X201764399Y-107340516D01*
X201871538Y-107438186D01*
X202045573Y-107545944D01*
X202236444Y-107619888D01*
X202437653Y-107657500D01*
X202636519Y-107657500D01*
X202642347Y-107657500D01*
X202843556Y-107619888D01*
X203034427Y-107545944D01*
X203208462Y-107438186D01*
X203359732Y-107300285D01*
X203483088Y-107136935D01*
X203574328Y-106953701D01*
X203630345Y-106756821D01*
X203649232Y-106553000D01*
X203630345Y-106349179D01*
X203574328Y-106152299D01*
X203575188Y-106152054D01*
X203568010Y-106111949D01*
X203577960Y-106064775D01*
X203604897Y-106024795D01*
X204136276Y-105493416D01*
X204156456Y-105477029D01*
X204165582Y-105471068D01*
X204185206Y-105445853D01*
X204188714Y-105441937D01*
X204188524Y-105441776D01*
X204191882Y-105437810D01*
X204195581Y-105434113D01*
X204207794Y-105417005D01*
X204210865Y-105412887D01*
X204243375Y-105371119D01*
X204245984Y-105363517D01*
X204250653Y-105356979D01*
X204265749Y-105306265D01*
X204267315Y-105301380D01*
X204284500Y-105251327D01*
X204284500Y-105243289D01*
X204286792Y-105235590D01*
X204284607Y-105182775D01*
X204284500Y-105177570D01*
X204284500Y-105045153D01*
X204301869Y-104981315D01*
X204349188Y-104935077D01*
X204413410Y-104919187D01*
X204476830Y-104938025D01*
X204580846Y-105002428D01*
X204591228Y-105007598D01*
X204771146Y-105077299D01*
X204782307Y-105080475D01*
X204812358Y-105086092D01*
X204823559Y-105085704D01*
X204826000Y-105074763D01*
X204826000Y-102951237D01*
X204823559Y-102940295D01*
X204812358Y-102939907D01*
X204782307Y-102945524D01*
X204771146Y-102948700D01*
X204591228Y-103018401D01*
X204580846Y-103023571D01*
X204476830Y-103087975D01*
X204413410Y-103106813D01*
X204349188Y-103090923D01*
X204301869Y-103044685D01*
X204284500Y-102980847D01*
X204284500Y-99819885D01*
X204294091Y-99771667D01*
X204321404Y-99730790D01*
X204499532Y-99552662D01*
X205405409Y-98646783D01*
X205455563Y-98616049D01*
X205514210Y-98611433D01*
X205568560Y-98633945D01*
X205606766Y-98678678D01*
X205620500Y-98735880D01*
X205620500Y-98784826D01*
X205621708Y-98797087D01*
X205632815Y-98852930D01*
X205642133Y-98875426D01*
X205684483Y-98938808D01*
X205701691Y-98956016D01*
X205765074Y-98998367D01*
X205787566Y-99007684D01*
X205843414Y-99018792D01*
X205855670Y-99020000D01*
X206370410Y-99020000D01*
X206383493Y-99016493D01*
X206387000Y-99003410D01*
X206387000Y-99003409D01*
X206837000Y-99003409D01*
X206840506Y-99016492D01*
X206853590Y-99019999D01*
X207368328Y-99019999D01*
X207380587Y-99018791D01*
X207436430Y-99007684D01*
X207458926Y-98998366D01*
X207522308Y-98956016D01*
X207539516Y-98938808D01*
X207581867Y-98875425D01*
X207591184Y-98852933D01*
X207602292Y-98797085D01*
X207603500Y-98784830D01*
X207603500Y-98782590D01*
X207599993Y-98769506D01*
X207586910Y-98766000D01*
X206853590Y-98766000D01*
X206840506Y-98769506D01*
X206837000Y-98782590D01*
X206837000Y-99003409D01*
X206387000Y-99003409D01*
X206387000Y-98496500D01*
X206403881Y-98433500D01*
X206450000Y-98387381D01*
X206513000Y-98370500D01*
X207360472Y-98370499D01*
X207374566Y-98370499D01*
X207448801Y-98355734D01*
X207459120Y-98348838D01*
X207459122Y-98348838D01*
X207476486Y-98337236D01*
X207509912Y-98321426D01*
X207546489Y-98316000D01*
X207586909Y-98316000D01*
X207599992Y-98312493D01*
X207603499Y-98299410D01*
X207603499Y-98297172D01*
X207602291Y-98284912D01*
X207593729Y-98241862D01*
X207593729Y-98192701D01*
X207593984Y-98191421D01*
X207604000Y-98141067D01*
X207603999Y-97941456D01*
X207620251Y-97879560D01*
X207664814Y-97833630D01*
X207726193Y-97815515D01*
X207788554Y-97829891D01*
X207919207Y-97898463D01*
X208073529Y-97936500D01*
X208224854Y-97936500D01*
X208232471Y-97936500D01*
X208248483Y-97932553D01*
X208379347Y-97900299D01*
X208435945Y-97899444D01*
X208487207Y-97923453D01*
X208522785Y-97967479D01*
X208535500Y-98022638D01*
X208535500Y-98723616D01*
X208525909Y-98771834D01*
X208498595Y-98812711D01*
X206213724Y-101097580D01*
X206193553Y-101113962D01*
X206193161Y-101114217D01*
X206193151Y-101114225D01*
X206184418Y-101119932D01*
X206178007Y-101128167D01*
X206178003Y-101128172D01*
X206164789Y-101145149D01*
X206161324Y-101149116D01*
X206161464Y-101149235D01*
X206158105Y-101153199D01*
X206154419Y-101156887D01*
X206151395Y-101161121D01*
X206151389Y-101161129D01*
X206142211Y-101173983D01*
X206139105Y-101178147D01*
X206113036Y-101211641D01*
X206113031Y-101211650D01*
X206106625Y-101219881D01*
X206104015Y-101227482D01*
X206099347Y-101234021D01*
X206096371Y-101244014D01*
X206096369Y-101244020D01*
X206084259Y-101284695D01*
X206082672Y-101289650D01*
X206068887Y-101329804D01*
X206068886Y-101329809D01*
X206065500Y-101339673D01*
X206065500Y-101347711D01*
X206063208Y-101355410D01*
X206063639Y-101365837D01*
X206063639Y-101365840D01*
X206065392Y-101408214D01*
X206065500Y-101413421D01*
X206065500Y-103132146D01*
X206052291Y-103188309D01*
X206015432Y-103232696D01*
X205962652Y-103256001D01*
X205905018Y-103253336D01*
X205854614Y-103225261D01*
X205752466Y-103132140D01*
X205743203Y-103125145D01*
X205579153Y-103023571D01*
X205568771Y-103018401D01*
X205388853Y-102948700D01*
X205377692Y-102945524D01*
X205347641Y-102939907D01*
X205336440Y-102940295D01*
X205334000Y-102951237D01*
X205334000Y-105074763D01*
X205336440Y-105085704D01*
X205347641Y-105086092D01*
X205377692Y-105080475D01*
X205388853Y-105077299D01*
X205568771Y-105007598D01*
X205579153Y-105002428D01*
X205743203Y-104900854D01*
X205752466Y-104893859D01*
X205854614Y-104800739D01*
X205905018Y-104772664D01*
X205962652Y-104769999D01*
X206015432Y-104793304D01*
X206052291Y-104837691D01*
X206065500Y-104893854D01*
X206065500Y-104978615D01*
X206055909Y-105026833D01*
X206028595Y-105067711D01*
X205604964Y-105491341D01*
X205564982Y-105518279D01*
X205517810Y-105528230D01*
X205470353Y-105519737D01*
X205388983Y-105488214D01*
X205388979Y-105488212D01*
X205383556Y-105486112D01*
X205377837Y-105485043D01*
X205377834Y-105485042D01*
X205188073Y-105449570D01*
X205188069Y-105449569D01*
X205182347Y-105448500D01*
X204977653Y-105448500D01*
X204971931Y-105449569D01*
X204971926Y-105449570D01*
X204782168Y-105485041D01*
X204782157Y-105485043D01*
X204776444Y-105486112D01*
X204771021Y-105488212D01*
X204771010Y-105488216D01*
X204591011Y-105557949D01*
X204591008Y-105557950D01*
X204585573Y-105560056D01*
X204580617Y-105563124D01*
X204580612Y-105563127D01*
X204416491Y-105664746D01*
X204416481Y-105664752D01*
X204411538Y-105667814D01*
X204407239Y-105671732D01*
X204407235Y-105671736D01*
X204264573Y-105801789D01*
X204264565Y-105801797D01*
X204260268Y-105805715D01*
X204256763Y-105810355D01*
X204256755Y-105810365D01*
X204140422Y-105964416D01*
X204140418Y-105964421D01*
X204136912Y-105969065D01*
X204134317Y-105974274D01*
X204134314Y-105974281D01*
X204077894Y-106087588D01*
X204045672Y-106152299D01*
X204044078Y-106157899D01*
X204044076Y-106157906D01*
X203991250Y-106343572D01*
X203989655Y-106349179D01*
X203989118Y-106354972D01*
X203989116Y-106354984D01*
X203971306Y-106547194D01*
X203970768Y-106553000D01*
X203971306Y-106558806D01*
X203989116Y-106751015D01*
X203989117Y-106751025D01*
X203989655Y-106756821D01*
X204045672Y-106953701D01*
X204136912Y-107136935D01*
X204140421Y-107141582D01*
X204140422Y-107141583D01*
X204256755Y-107295634D01*
X204256759Y-107295638D01*
X204260268Y-107300285D01*
X204264570Y-107304207D01*
X204264573Y-107304210D01*
X204304399Y-107340516D01*
X204411538Y-107438186D01*
X204585573Y-107545944D01*
X204776444Y-107619888D01*
X204977653Y-107657500D01*
X205176519Y-107657500D01*
X205182347Y-107657500D01*
X205383556Y-107619888D01*
X205574427Y-107545944D01*
X205748462Y-107438186D01*
X205899732Y-107300285D01*
X206023088Y-107136935D01*
X206114328Y-106953701D01*
X206170345Y-106756821D01*
X206189232Y-106553000D01*
X206170345Y-106349179D01*
X206114328Y-106152299D01*
X206115188Y-106152054D01*
X206108010Y-106111949D01*
X206117960Y-106064775D01*
X206144897Y-106024795D01*
X206676276Y-105493416D01*
X206696456Y-105477029D01*
X206705582Y-105471068D01*
X206725206Y-105445853D01*
X206728714Y-105441937D01*
X206728524Y-105441776D01*
X206731882Y-105437810D01*
X206735581Y-105434113D01*
X206747794Y-105417005D01*
X206750865Y-105412887D01*
X206783375Y-105371119D01*
X206785984Y-105363517D01*
X206790653Y-105356979D01*
X206805749Y-105306265D01*
X206807315Y-105301380D01*
X206824500Y-105251327D01*
X206824500Y-105243289D01*
X206826792Y-105235590D01*
X206824607Y-105182775D01*
X206824500Y-105177570D01*
X206824500Y-105045153D01*
X206841869Y-104981315D01*
X206889188Y-104935077D01*
X206953410Y-104919187D01*
X207016830Y-104938025D01*
X207120846Y-105002428D01*
X207131228Y-105007598D01*
X207311146Y-105077299D01*
X207322307Y-105080475D01*
X207352358Y-105086092D01*
X207363559Y-105085704D01*
X207366000Y-105074763D01*
X207366000Y-102951237D01*
X207363559Y-102940295D01*
X207352358Y-102939907D01*
X207322307Y-102945524D01*
X207311146Y-102948700D01*
X207131228Y-103018401D01*
X207120846Y-103023571D01*
X207016830Y-103087975D01*
X206953410Y-103106813D01*
X206889188Y-103090923D01*
X206841869Y-103044685D01*
X206824500Y-102980847D01*
X206824500Y-101612384D01*
X206834091Y-101564166D01*
X206861405Y-101523289D01*
X208896906Y-99487788D01*
X208947065Y-99457050D01*
X209005712Y-99452434D01*
X209060062Y-99474947D01*
X209098268Y-99519680D01*
X209112001Y-99576883D01*
X209112001Y-100306114D01*
X209102410Y-100354332D01*
X209075096Y-100395210D01*
X208683722Y-100786582D01*
X208663554Y-100802962D01*
X208663159Y-100803219D01*
X208663152Y-100803225D01*
X208654418Y-100808932D01*
X208648007Y-100817167D01*
X208648003Y-100817172D01*
X208634789Y-100834149D01*
X208631324Y-100838116D01*
X208631464Y-100838235D01*
X208628105Y-100842199D01*
X208624419Y-100845887D01*
X208621395Y-100850121D01*
X208621389Y-100850129D01*
X208612211Y-100862983D01*
X208609105Y-100867147D01*
X208583036Y-100900641D01*
X208583031Y-100900650D01*
X208576625Y-100908881D01*
X208574015Y-100916482D01*
X208569347Y-100923021D01*
X208566371Y-100933014D01*
X208566369Y-100933020D01*
X208554259Y-100973695D01*
X208552672Y-100978650D01*
X208538887Y-101018804D01*
X208538886Y-101018809D01*
X208535500Y-101028673D01*
X208535500Y-101036711D01*
X208533208Y-101044410D01*
X208533639Y-101054837D01*
X208533639Y-101054840D01*
X208535392Y-101097214D01*
X208535500Y-101102421D01*
X208535500Y-103068332D01*
X208522291Y-103124495D01*
X208485432Y-103168882D01*
X208432653Y-103192187D01*
X208375019Y-103189522D01*
X208324615Y-103161447D01*
X208292472Y-103132145D01*
X208283203Y-103125145D01*
X208119153Y-103023571D01*
X208108771Y-103018401D01*
X207928853Y-102948700D01*
X207917692Y-102945524D01*
X207887641Y-102939907D01*
X207876440Y-102940295D01*
X207874000Y-102951237D01*
X207874000Y-105074763D01*
X207876440Y-105085704D01*
X207887641Y-105086092D01*
X207917692Y-105080475D01*
X207928853Y-105077299D01*
X208108771Y-105007598D01*
X208119153Y-105002428D01*
X208283203Y-104900854D01*
X208292472Y-104893854D01*
X208324615Y-104864553D01*
X208375019Y-104836478D01*
X208432653Y-104833813D01*
X208485432Y-104857118D01*
X208522291Y-104901505D01*
X208535500Y-104957668D01*
X208535500Y-105048615D01*
X208525909Y-105096833D01*
X208498595Y-105137711D01*
X208144964Y-105491341D01*
X208104982Y-105518279D01*
X208057810Y-105528230D01*
X208010353Y-105519737D01*
X207928983Y-105488214D01*
X207928979Y-105488212D01*
X207923556Y-105486112D01*
X207917837Y-105485043D01*
X207917834Y-105485042D01*
X207728073Y-105449570D01*
X207728069Y-105449569D01*
X207722347Y-105448500D01*
X207517653Y-105448500D01*
X207511931Y-105449569D01*
X207511926Y-105449570D01*
X207322168Y-105485041D01*
X207322157Y-105485043D01*
X207316444Y-105486112D01*
X207311021Y-105488212D01*
X207311010Y-105488216D01*
X207131011Y-105557949D01*
X207131008Y-105557950D01*
X207125573Y-105560056D01*
X207120617Y-105563124D01*
X207120612Y-105563127D01*
X206956491Y-105664746D01*
X206956481Y-105664752D01*
X206951538Y-105667814D01*
X206947239Y-105671732D01*
X206947235Y-105671736D01*
X206804573Y-105801789D01*
X206804565Y-105801797D01*
X206800268Y-105805715D01*
X206796763Y-105810355D01*
X206796755Y-105810365D01*
X206680422Y-105964416D01*
X206680418Y-105964421D01*
X206676912Y-105969065D01*
X206674317Y-105974274D01*
X206674314Y-105974281D01*
X206617894Y-106087588D01*
X206585672Y-106152299D01*
X206584078Y-106157899D01*
X206584076Y-106157906D01*
X206531250Y-106343572D01*
X206529655Y-106349179D01*
X206529118Y-106354972D01*
X206529116Y-106354984D01*
X206511306Y-106547194D01*
X206510768Y-106553000D01*
X206511306Y-106558806D01*
X206529116Y-106751015D01*
X206529117Y-106751025D01*
X206529655Y-106756821D01*
X206585672Y-106953701D01*
X206676912Y-107136935D01*
X206680421Y-107141582D01*
X206680422Y-107141583D01*
X206796755Y-107295634D01*
X206796759Y-107295638D01*
X206800268Y-107300285D01*
X206804570Y-107304207D01*
X206804573Y-107304210D01*
X206844399Y-107340516D01*
X206951538Y-107438186D01*
X207125573Y-107545944D01*
X207316444Y-107619888D01*
X207517653Y-107657500D01*
X207716519Y-107657500D01*
X207722347Y-107657500D01*
X207923556Y-107619888D01*
X208114427Y-107545944D01*
X208288462Y-107438186D01*
X208439732Y-107300285D01*
X208563088Y-107136935D01*
X208654328Y-106953701D01*
X208710345Y-106756821D01*
X208729232Y-106553000D01*
X208710345Y-106349179D01*
X208654328Y-106152299D01*
X208655188Y-106152054D01*
X208648010Y-106111949D01*
X208657960Y-106064775D01*
X208684897Y-106024795D01*
X209146276Y-105563416D01*
X209166456Y-105547029D01*
X209175582Y-105541068D01*
X209195206Y-105515853D01*
X209198714Y-105511937D01*
X209198524Y-105511776D01*
X209201882Y-105507810D01*
X209205581Y-105504113D01*
X209217794Y-105487005D01*
X209220865Y-105482887D01*
X209253375Y-105441119D01*
X209255984Y-105433517D01*
X209260653Y-105426979D01*
X209275749Y-105376265D01*
X209277315Y-105371380D01*
X209294500Y-105321327D01*
X209294500Y-105313289D01*
X209296792Y-105305590D01*
X209294607Y-105252775D01*
X209294500Y-105247570D01*
X209294500Y-105001758D01*
X209313372Y-104935429D01*
X209364335Y-104888969D01*
X209432122Y-104876295D01*
X209490976Y-104899093D01*
X209491538Y-104898186D01*
X209665573Y-105005944D01*
X209856444Y-105079888D01*
X210057653Y-105117500D01*
X210256519Y-105117500D01*
X210262347Y-105117500D01*
X210463556Y-105079888D01*
X210654427Y-105005944D01*
X210828462Y-104898186D01*
X210979732Y-104760285D01*
X211103088Y-104596935D01*
X211194328Y-104413701D01*
X211250345Y-104216821D01*
X211269232Y-104013000D01*
X211250345Y-103809179D01*
X211194328Y-103612299D01*
X211103088Y-103429065D01*
X210979732Y-103265715D01*
X210975429Y-103261792D01*
X210975426Y-103261789D01*
X210852475Y-103149705D01*
X210828462Y-103127814D01*
X210823512Y-103124749D01*
X210823508Y-103124746D01*
X210659387Y-103023127D01*
X210659386Y-103023126D01*
X210654427Y-103020056D01*
X210601015Y-102999364D01*
X210468989Y-102948216D01*
X210468981Y-102948213D01*
X210463556Y-102946112D01*
X210457839Y-102945043D01*
X210457831Y-102945041D01*
X210268073Y-102909570D01*
X210268069Y-102909569D01*
X210262347Y-102908500D01*
X210057653Y-102908500D01*
X210051931Y-102909569D01*
X210051926Y-102909570D01*
X209862168Y-102945041D01*
X209862157Y-102945043D01*
X209856444Y-102946112D01*
X209851021Y-102948212D01*
X209851010Y-102948216D01*
X209671011Y-103017949D01*
X209671008Y-103017950D01*
X209665573Y-103020056D01*
X209660617Y-103023124D01*
X209660612Y-103023127D01*
X209496492Y-103124746D01*
X209496487Y-103124749D01*
X209496393Y-103124807D01*
X209496390Y-103124809D01*
X209491538Y-103127814D01*
X209490976Y-103126906D01*
X209432122Y-103149705D01*
X209364335Y-103137031D01*
X209313372Y-103090571D01*
X209294500Y-103024242D01*
X209294500Y-101301385D01*
X209304091Y-101253167D01*
X209331404Y-101212290D01*
X209423762Y-101119932D01*
X209722779Y-100820913D01*
X209742960Y-100804526D01*
X209752083Y-100798567D01*
X209771707Y-100773352D01*
X209775215Y-100769436D01*
X209775025Y-100769275D01*
X209778383Y-100765309D01*
X209782082Y-100761612D01*
X209794295Y-100744504D01*
X209797366Y-100740386D01*
X209829876Y-100698618D01*
X209832485Y-100691016D01*
X209837154Y-100684478D01*
X209852250Y-100633764D01*
X209853816Y-100628879D01*
X209871001Y-100578826D01*
X209871001Y-100570788D01*
X209873293Y-100563089D01*
X209871108Y-100510274D01*
X209871001Y-100505069D01*
X209871001Y-98809384D01*
X209880592Y-98761166D01*
X209907905Y-98720289D01*
X209946069Y-98682125D01*
X210061153Y-98567039D01*
X210110913Y-98536434D01*
X210169132Y-98531560D01*
X210223291Y-98553470D01*
X210251878Y-98586166D01*
X210254012Y-98584694D01*
X210336791Y-98704621D01*
X210344301Y-98715500D01*
X210463270Y-98820898D01*
X210604006Y-98894762D01*
X210758328Y-98932799D01*
X210909653Y-98932799D01*
X210917270Y-98932799D01*
X211071592Y-98894762D01*
X211212328Y-98820898D01*
X211294239Y-98748330D01*
X211352742Y-98719158D01*
X211417991Y-98723228D01*
X211472418Y-98759446D01*
X211501370Y-98818062D01*
X211507382Y-98848291D01*
X211510766Y-98865301D01*
X211567016Y-98949484D01*
X211651199Y-99005734D01*
X211725433Y-99020500D01*
X211982500Y-99020500D01*
X212045500Y-99037381D01*
X212091619Y-99083500D01*
X212108500Y-99146500D01*
X212108500Y-104015616D01*
X212098909Y-104063834D01*
X212071597Y-104104708D01*
X211027664Y-105148641D01*
X210684964Y-105491341D01*
X210644982Y-105518279D01*
X210597810Y-105528230D01*
X210550353Y-105519737D01*
X210468983Y-105488214D01*
X210468979Y-105488212D01*
X210463556Y-105486112D01*
X210457837Y-105485043D01*
X210457834Y-105485042D01*
X210268073Y-105449570D01*
X210268069Y-105449569D01*
X210262347Y-105448500D01*
X210057653Y-105448500D01*
X210051931Y-105449569D01*
X210051926Y-105449570D01*
X209862168Y-105485041D01*
X209862157Y-105485043D01*
X209856444Y-105486112D01*
X209851021Y-105488212D01*
X209851010Y-105488216D01*
X209671011Y-105557949D01*
X209671008Y-105557950D01*
X209665573Y-105560056D01*
X209660617Y-105563124D01*
X209660612Y-105563127D01*
X209496491Y-105664746D01*
X209496481Y-105664752D01*
X209491538Y-105667814D01*
X209487239Y-105671732D01*
X209487235Y-105671736D01*
X209344573Y-105801789D01*
X209344565Y-105801797D01*
X209340268Y-105805715D01*
X209336763Y-105810355D01*
X209336755Y-105810365D01*
X209220422Y-105964416D01*
X209220418Y-105964421D01*
X209216912Y-105969065D01*
X209214317Y-105974274D01*
X209214314Y-105974281D01*
X209157894Y-106087588D01*
X209125672Y-106152299D01*
X209124078Y-106157899D01*
X209124076Y-106157906D01*
X209071250Y-106343572D01*
X209069655Y-106349179D01*
X209069118Y-106354972D01*
X209069116Y-106354984D01*
X209051306Y-106547194D01*
X209050768Y-106553000D01*
X209051306Y-106558806D01*
X209069116Y-106751015D01*
X209069117Y-106751025D01*
X209069655Y-106756821D01*
X209125672Y-106953701D01*
X209216912Y-107136935D01*
X209220421Y-107141582D01*
X209220422Y-107141583D01*
X209336755Y-107295634D01*
X209336759Y-107295638D01*
X209340268Y-107300285D01*
X209344570Y-107304207D01*
X209344573Y-107304210D01*
X209384399Y-107340516D01*
X209491538Y-107438186D01*
X209665573Y-107545944D01*
X209856444Y-107619888D01*
X210057653Y-107657500D01*
X210256519Y-107657500D01*
X210262347Y-107657500D01*
X210463556Y-107619888D01*
X210654427Y-107545944D01*
X210828462Y-107438186D01*
X210979732Y-107300285D01*
X211103088Y-107136935D01*
X211194328Y-106953701D01*
X211250345Y-106756821D01*
X211269232Y-106553000D01*
X211250345Y-106349179D01*
X211194328Y-106152299D01*
X211195188Y-106152054D01*
X211188010Y-106111949D01*
X211197960Y-106064775D01*
X211224897Y-106024795D01*
X211996280Y-105253412D01*
X219891112Y-105253412D01*
X219911018Y-105620572D01*
X219911757Y-105627369D01*
X219971245Y-105990224D01*
X219972712Y-105996892D01*
X220071086Y-106351200D01*
X220073261Y-106357656D01*
X220209368Y-106699260D01*
X220212224Y-106705435D01*
X220384471Y-107030327D01*
X220387979Y-107036157D01*
X220594340Y-107340516D01*
X220598469Y-107345947D01*
X220723287Y-107492895D01*
X220734814Y-107500634D01*
X220746935Y-107493853D01*
X222979060Y-105261729D01*
X222985832Y-105250000D01*
X223714167Y-105250000D01*
X223720939Y-105261729D01*
X225953063Y-107493853D01*
X225965184Y-107500634D01*
X225976711Y-107492894D01*
X226101531Y-107345947D01*
X226105659Y-107340516D01*
X226312020Y-107036157D01*
X226315528Y-107030327D01*
X226487775Y-106705435D01*
X226490631Y-106699260D01*
X226626738Y-106357656D01*
X226628913Y-106351200D01*
X226727287Y-105996892D01*
X226728754Y-105990224D01*
X226788242Y-105627369D01*
X226788981Y-105620572D01*
X226808888Y-105253412D01*
X226808888Y-105246588D01*
X226788981Y-104879427D01*
X226788242Y-104872630D01*
X226728754Y-104509775D01*
X226727287Y-104503107D01*
X226628913Y-104148799D01*
X226626738Y-104142343D01*
X226490631Y-103800739D01*
X226487775Y-103794564D01*
X226315528Y-103469672D01*
X226312020Y-103463842D01*
X226105659Y-103159483D01*
X226101531Y-103154052D01*
X225976711Y-103007103D01*
X225965184Y-102999364D01*
X225953063Y-103006145D01*
X223720939Y-105238270D01*
X223714167Y-105250000D01*
X222985832Y-105250000D01*
X222979060Y-105238270D01*
X220746934Y-103006144D01*
X220734814Y-102999363D01*
X220723288Y-103007103D01*
X220598469Y-103154051D01*
X220594338Y-103159485D01*
X220387979Y-103463842D01*
X220384471Y-103469672D01*
X220212224Y-103794564D01*
X220209368Y-103800739D01*
X220073261Y-104142343D01*
X220071086Y-104148799D01*
X219972712Y-104503107D01*
X219971245Y-104509775D01*
X219911757Y-104872630D01*
X219911018Y-104879427D01*
X219891112Y-105246588D01*
X219891112Y-105253412D01*
X211996280Y-105253412D01*
X212719276Y-104530416D01*
X212739456Y-104514029D01*
X212748582Y-104508068D01*
X212768206Y-104482853D01*
X212771712Y-104478940D01*
X212771522Y-104478779D01*
X212774886Y-104474807D01*
X212778580Y-104471114D01*
X212790774Y-104454033D01*
X212793880Y-104449867D01*
X212826375Y-104408119D01*
X212828984Y-104400519D01*
X212833653Y-104393980D01*
X212848752Y-104343260D01*
X212850318Y-104338373D01*
X212867500Y-104288327D01*
X212867500Y-104280290D01*
X212869792Y-104272591D01*
X212867608Y-104219787D01*
X212867500Y-104214580D01*
X212867500Y-102632086D01*
X221096382Y-102632086D01*
X221103161Y-102643951D01*
X223338270Y-104879060D01*
X223350000Y-104885832D01*
X223361729Y-104879060D01*
X225596836Y-102643952D01*
X225603615Y-102632087D01*
X225596517Y-102620409D01*
X225591840Y-102615979D01*
X225586636Y-102611558D01*
X225293910Y-102389033D01*
X225288254Y-102385198D01*
X224973178Y-102195623D01*
X224967169Y-102192437D01*
X224633434Y-102038035D01*
X224627092Y-102035509D01*
X224278636Y-101918100D01*
X224272064Y-101916275D01*
X223912947Y-101837228D01*
X223906223Y-101836126D01*
X223540668Y-101796369D01*
X223533855Y-101796000D01*
X223166145Y-101796000D01*
X223159331Y-101796369D01*
X222793776Y-101836126D01*
X222787052Y-101837228D01*
X222427935Y-101916275D01*
X222421363Y-101918100D01*
X222072907Y-102035509D01*
X222066565Y-102038035D01*
X221732830Y-102192437D01*
X221726821Y-102195623D01*
X221411745Y-102385198D01*
X221406089Y-102389033D01*
X221113360Y-102611560D01*
X221108167Y-102615971D01*
X221103478Y-102620412D01*
X221096382Y-102632086D01*
X212867500Y-102632086D01*
X212867500Y-99146499D01*
X212884381Y-99083499D01*
X212930500Y-99037380D01*
X212993500Y-99020499D01*
X213244378Y-99020499D01*
X213250566Y-99020499D01*
X213324801Y-99005734D01*
X213408984Y-98949484D01*
X213465234Y-98865301D01*
X213480000Y-98791067D01*
X213479999Y-98383255D01*
X213491319Y-98331060D01*
X213523245Y-98288242D01*
X213570040Y-98262496D01*
X213574915Y-98261044D01*
X213585283Y-98259752D01*
X213592503Y-98256222D01*
X213600427Y-98254900D01*
X213646924Y-98229736D01*
X213652228Y-98227026D01*
X213652336Y-98226974D01*
X213706997Y-98214500D01*
X220957100Y-98214500D01*
X221023430Y-98233373D01*
X221069888Y-98284334D01*
X221136912Y-98418935D01*
X221140421Y-98423582D01*
X221140422Y-98423583D01*
X221256755Y-98577634D01*
X221256759Y-98577638D01*
X221260268Y-98582285D01*
X221264570Y-98586207D01*
X221264573Y-98586210D01*
X221301713Y-98620067D01*
X221411538Y-98720186D01*
X221416489Y-98723251D01*
X221416491Y-98723253D01*
X221442889Y-98739598D01*
X221585573Y-98827944D01*
X221739512Y-98887580D01*
X221758049Y-98894762D01*
X221776444Y-98901888D01*
X221977653Y-98939500D01*
X222176519Y-98939500D01*
X222182347Y-98939500D01*
X222383556Y-98901888D01*
X222574427Y-98827944D01*
X222748462Y-98720186D01*
X222899732Y-98582285D01*
X223023088Y-98418935D01*
X223114328Y-98235701D01*
X223170345Y-98038821D01*
X223181477Y-97918693D01*
X223188694Y-97840806D01*
X223189232Y-97835000D01*
X223186172Y-97801982D01*
X223170883Y-97636984D01*
X223170883Y-97636982D01*
X223170345Y-97631179D01*
X223114328Y-97434299D01*
X223023088Y-97251065D01*
X222959260Y-97166543D01*
X222903244Y-97092365D01*
X222903241Y-97092361D01*
X222899732Y-97087715D01*
X222895429Y-97083792D01*
X222895426Y-97083789D01*
X222781674Y-96980091D01*
X222748462Y-96949814D01*
X222743512Y-96946749D01*
X222743508Y-96946746D01*
X222579387Y-96845127D01*
X222579386Y-96845126D01*
X222574427Y-96842056D01*
X222550898Y-96832941D01*
X222388989Y-96770216D01*
X222388981Y-96770213D01*
X222383556Y-96768112D01*
X222377839Y-96767043D01*
X222377831Y-96767041D01*
X222188073Y-96731570D01*
X222188069Y-96731569D01*
X222182347Y-96730500D01*
X221977653Y-96730500D01*
X221971931Y-96731569D01*
X221971926Y-96731570D01*
X221782168Y-96767041D01*
X221782157Y-96767043D01*
X221776444Y-96768112D01*
X221771021Y-96770212D01*
X221771010Y-96770216D01*
X221591011Y-96839949D01*
X221591008Y-96839950D01*
X221585573Y-96842056D01*
X221580617Y-96845124D01*
X221580612Y-96845127D01*
X221416491Y-96946746D01*
X221416481Y-96946752D01*
X221411538Y-96949814D01*
X221407239Y-96953732D01*
X221407235Y-96953736D01*
X221264573Y-97083789D01*
X221264565Y-97083797D01*
X221260268Y-97087715D01*
X221256763Y-97092355D01*
X221256755Y-97092365D01*
X221140422Y-97246416D01*
X221140418Y-97246421D01*
X221136912Y-97251065D01*
X221069888Y-97385665D01*
X221023430Y-97436627D01*
X220957100Y-97455500D01*
X213605999Y-97455500D01*
X213542999Y-97438619D01*
X213496880Y-97392500D01*
X213479999Y-97329500D01*
X213479999Y-96997122D01*
X213479999Y-96990934D01*
X213469983Y-96940575D01*
X213469983Y-96891421D01*
X213480000Y-96841067D01*
X213479999Y-96446499D01*
X213496880Y-96383500D01*
X213542999Y-96337381D01*
X213605999Y-96320500D01*
X216745074Y-96320500D01*
X216770930Y-96323181D01*
X216781600Y-96325419D01*
X216813295Y-96321468D01*
X216818553Y-96321141D01*
X216818536Y-96320930D01*
X216823723Y-96320500D01*
X216828943Y-96320500D01*
X216849687Y-96317037D01*
X216854750Y-96316299D01*
X216907283Y-96309752D01*
X216914503Y-96306222D01*
X216922427Y-96304900D01*
X216968911Y-96279742D01*
X216973543Y-96277359D01*
X217021068Y-96254126D01*
X217026752Y-96248441D01*
X217033816Y-96244619D01*
X217069643Y-96205699D01*
X217073201Y-96201991D01*
X217563789Y-95711404D01*
X217604667Y-95684091D01*
X217652885Y-95674500D01*
X220957100Y-95674500D01*
X221023430Y-95693373D01*
X221069888Y-95744334D01*
X221136912Y-95878935D01*
X221140421Y-95883582D01*
X221140422Y-95883583D01*
X221256755Y-96037634D01*
X221256759Y-96037638D01*
X221260268Y-96042285D01*
X221264570Y-96046207D01*
X221264573Y-96046210D01*
X221322184Y-96098729D01*
X221411538Y-96180186D01*
X221416489Y-96183251D01*
X221416491Y-96183253D01*
X221477385Y-96220957D01*
X221585573Y-96287944D01*
X221722356Y-96340934D01*
X221767543Y-96358440D01*
X221776444Y-96361888D01*
X221977653Y-96399500D01*
X222176519Y-96399500D01*
X222182347Y-96399500D01*
X222383556Y-96361888D01*
X222574427Y-96287944D01*
X222748462Y-96180186D01*
X222899732Y-96042285D01*
X223023088Y-95878935D01*
X223114328Y-95695701D01*
X223155322Y-95551620D01*
X223547922Y-95551620D01*
X223548451Y-95563061D01*
X223584546Y-95689918D01*
X223588734Y-95700729D01*
X223674742Y-95873456D01*
X223680850Y-95883321D01*
X223797126Y-96037296D01*
X223804944Y-96045872D01*
X223947533Y-96175859D01*
X223956796Y-96182854D01*
X224120846Y-96284428D01*
X224131228Y-96289598D01*
X224311146Y-96359299D01*
X224322307Y-96362475D01*
X224352358Y-96368092D01*
X224363559Y-96367704D01*
X224366000Y-96356763D01*
X224366000Y-95565590D01*
X224362493Y-95552506D01*
X224349410Y-95549000D01*
X223559067Y-95549000D01*
X223547922Y-95551620D01*
X223155322Y-95551620D01*
X223170345Y-95498821D01*
X223189232Y-95295000D01*
X223188292Y-95284859D01*
X223170883Y-95096984D01*
X223170882Y-95096983D01*
X223170345Y-95091179D01*
X223155322Y-95038379D01*
X223547922Y-95038379D01*
X223559067Y-95041000D01*
X224349410Y-95041000D01*
X224362493Y-95037493D01*
X224366000Y-95024410D01*
X224874000Y-95024410D01*
X224877506Y-95037493D01*
X224890590Y-95041000D01*
X225680933Y-95041000D01*
X225692077Y-95038379D01*
X225691548Y-95026938D01*
X225655453Y-94900081D01*
X225651265Y-94889270D01*
X225565257Y-94716543D01*
X225559149Y-94706678D01*
X225442873Y-94552703D01*
X225435055Y-94544127D01*
X225292466Y-94414140D01*
X225283203Y-94407145D01*
X225119153Y-94305571D01*
X225108771Y-94300401D01*
X224928853Y-94230700D01*
X224917692Y-94227524D01*
X224887641Y-94221907D01*
X224876440Y-94222295D01*
X224874000Y-94233237D01*
X224874000Y-95024410D01*
X224366000Y-95024410D01*
X224366000Y-94233237D01*
X224363559Y-94222295D01*
X224352358Y-94221907D01*
X224322307Y-94227524D01*
X224311146Y-94230700D01*
X224131228Y-94300401D01*
X224120846Y-94305571D01*
X223956796Y-94407145D01*
X223947533Y-94414140D01*
X223804944Y-94544127D01*
X223797126Y-94552703D01*
X223680850Y-94706678D01*
X223674742Y-94716543D01*
X223588734Y-94889270D01*
X223584546Y-94900081D01*
X223548451Y-95026938D01*
X223547922Y-95038379D01*
X223155322Y-95038379D01*
X223114328Y-94894299D01*
X223023088Y-94711065D01*
X222952769Y-94617947D01*
X222903244Y-94552365D01*
X222903241Y-94552361D01*
X222899732Y-94547715D01*
X222895429Y-94543792D01*
X222895426Y-94543789D01*
X222752764Y-94413736D01*
X222752765Y-94413736D01*
X222748462Y-94409814D01*
X222743512Y-94406749D01*
X222743508Y-94406746D01*
X222579387Y-94305127D01*
X222579386Y-94305126D01*
X222574427Y-94302056D01*
X222546967Y-94291418D01*
X222388989Y-94230216D01*
X222388981Y-94230213D01*
X222383556Y-94228112D01*
X222377839Y-94227043D01*
X222377831Y-94227041D01*
X222188073Y-94191570D01*
X222188069Y-94191569D01*
X222182347Y-94190500D01*
X221977653Y-94190500D01*
X221971931Y-94191569D01*
X221971926Y-94191570D01*
X221782168Y-94227041D01*
X221782157Y-94227043D01*
X221776444Y-94228112D01*
X221771021Y-94230212D01*
X221771010Y-94230216D01*
X221591011Y-94299949D01*
X221591008Y-94299950D01*
X221585573Y-94302056D01*
X221580617Y-94305124D01*
X221580612Y-94305127D01*
X221416491Y-94406746D01*
X221416481Y-94406752D01*
X221411538Y-94409814D01*
X221407239Y-94413732D01*
X221407235Y-94413736D01*
X221264573Y-94543789D01*
X221264565Y-94543797D01*
X221260268Y-94547715D01*
X221256763Y-94552355D01*
X221256755Y-94552365D01*
X221140422Y-94706416D01*
X221140418Y-94706421D01*
X221136912Y-94711065D01*
X221069888Y-94845665D01*
X221023430Y-94896627D01*
X220957100Y-94915500D01*
X217495926Y-94915500D01*
X217470069Y-94912818D01*
X217469763Y-94912754D01*
X217469616Y-94912723D01*
X217469615Y-94912722D01*
X217459400Y-94910581D01*
X217449042Y-94911872D01*
X217449039Y-94911872D01*
X217427704Y-94914532D01*
X217422443Y-94914858D01*
X217422461Y-94915070D01*
X217417268Y-94915500D01*
X217412057Y-94915500D01*
X217406922Y-94916356D01*
X217406918Y-94916357D01*
X217391343Y-94918956D01*
X217386198Y-94919705D01*
X217344072Y-94924957D01*
X217344071Y-94924957D01*
X217333717Y-94926248D01*
X217326496Y-94929777D01*
X217318573Y-94931100D01*
X217309400Y-94936063D01*
X217309391Y-94936067D01*
X217272067Y-94956265D01*
X217267443Y-94958646D01*
X217229306Y-94977291D01*
X217219932Y-94981874D01*
X217214247Y-94987558D01*
X217207184Y-94991381D01*
X217200119Y-94999055D01*
X217200113Y-94999060D01*
X217171380Y-95030272D01*
X217167777Y-95034027D01*
X216677211Y-95524595D01*
X216636333Y-95551909D01*
X216588115Y-95561500D01*
X213606000Y-95561500D01*
X213543000Y-95544619D01*
X213496881Y-95498500D01*
X213480000Y-95435500D01*
X213479999Y-95047122D01*
X213479999Y-95040934D01*
X213469729Y-94989299D01*
X213469729Y-94940139D01*
X213478292Y-94897084D01*
X213479500Y-94884830D01*
X213479500Y-94882590D01*
X213475993Y-94869506D01*
X213462910Y-94866000D01*
X213422489Y-94866000D01*
X213385912Y-94860574D01*
X213352486Y-94844764D01*
X213335120Y-94833160D01*
X213335115Y-94833158D01*
X213324801Y-94826266D01*
X213250567Y-94811500D01*
X213244380Y-94811500D01*
X211731622Y-94811500D01*
X211731611Y-94811500D01*
X211725434Y-94811501D01*
X211719368Y-94812707D01*
X211719362Y-94812708D01*
X211663371Y-94823844D01*
X211663366Y-94823846D01*
X211651199Y-94826266D01*
X211640884Y-94833157D01*
X211640877Y-94833161D01*
X211623514Y-94844764D01*
X211590088Y-94860574D01*
X211553511Y-94866000D01*
X211513091Y-94866000D01*
X211498721Y-94869850D01*
X211493977Y-94874595D01*
X211453100Y-94901909D01*
X211404882Y-94911500D01*
X209928764Y-94911500D01*
X209880546Y-94901909D01*
X209839669Y-94874595D01*
X207432914Y-92467840D01*
X209878001Y-92467840D01*
X209878361Y-92474564D01*
X209883610Y-92523393D01*
X209887209Y-92538624D01*
X209931949Y-92658575D01*
X209940503Y-92674242D01*
X210016554Y-92775835D01*
X210029164Y-92788445D01*
X210130757Y-92864496D01*
X210146424Y-92873050D01*
X210266373Y-92917789D01*
X210281608Y-92921390D01*
X210330438Y-92926639D01*
X210337158Y-92927000D01*
X210361410Y-92927000D01*
X210374493Y-92923493D01*
X210378000Y-92910410D01*
X210378000Y-92910409D01*
X210886000Y-92910409D01*
X210889506Y-92923492D01*
X210902590Y-92926999D01*
X210926840Y-92926999D01*
X210933564Y-92926638D01*
X210982393Y-92921389D01*
X210997624Y-92917790D01*
X211117575Y-92873050D01*
X211133242Y-92864496D01*
X211234835Y-92788445D01*
X211247445Y-92775835D01*
X211323496Y-92674242D01*
X211332050Y-92658575D01*
X211376789Y-92538626D01*
X211380390Y-92523391D01*
X211385639Y-92474561D01*
X211386000Y-92467842D01*
X211386000Y-92218590D01*
X211382493Y-92205506D01*
X211369410Y-92202000D01*
X210902590Y-92202000D01*
X210889506Y-92205506D01*
X210886000Y-92218590D01*
X210886000Y-92910409D01*
X210378000Y-92910409D01*
X210378000Y-92218590D01*
X210374493Y-92205506D01*
X210361410Y-92202000D01*
X209894591Y-92202000D01*
X209881507Y-92205506D01*
X209878001Y-92218590D01*
X209878001Y-92467840D01*
X207432914Y-92467840D01*
X206642484Y-91677410D01*
X209878000Y-91677410D01*
X209881506Y-91690493D01*
X209894590Y-91694000D01*
X210361410Y-91694000D01*
X210374493Y-91690493D01*
X210378000Y-91677410D01*
X210886000Y-91677410D01*
X210889506Y-91690493D01*
X210902590Y-91694000D01*
X211369409Y-91694000D01*
X211382492Y-91690493D01*
X211385999Y-91677410D01*
X211385999Y-91428160D01*
X211385638Y-91421435D01*
X211380389Y-91372606D01*
X211376790Y-91357375D01*
X211332050Y-91237424D01*
X211323496Y-91221757D01*
X211247445Y-91120164D01*
X211234835Y-91107554D01*
X211133242Y-91031503D01*
X211117575Y-91022949D01*
X210997626Y-90978210D01*
X210982391Y-90974609D01*
X210933561Y-90969360D01*
X210926842Y-90969000D01*
X210902590Y-90969000D01*
X210889506Y-90972506D01*
X210886000Y-90985590D01*
X210886000Y-91677410D01*
X210378000Y-91677410D01*
X210378000Y-90985591D01*
X210374493Y-90972507D01*
X210361410Y-90969001D01*
X210337160Y-90969001D01*
X210330435Y-90969361D01*
X210281606Y-90974610D01*
X210266375Y-90978209D01*
X210146424Y-91022949D01*
X210130757Y-91031503D01*
X210029164Y-91107554D01*
X210016554Y-91120164D01*
X209940503Y-91221757D01*
X209931949Y-91237424D01*
X209887210Y-91357373D01*
X209883609Y-91372608D01*
X209878360Y-91421438D01*
X209878000Y-91428158D01*
X209878000Y-91677410D01*
X206642484Y-91677410D01*
X202871798Y-87906724D01*
X202855412Y-87886548D01*
X202849448Y-87877418D01*
X202841205Y-87871002D01*
X202841204Y-87871001D01*
X202824234Y-87857792D01*
X202820288Y-87854307D01*
X202820151Y-87854470D01*
X202816182Y-87851108D01*
X202812493Y-87847419D01*
X202808250Y-87844389D01*
X202808246Y-87844386D01*
X202795414Y-87835224D01*
X202791242Y-87832113D01*
X202758397Y-87806549D01*
X202717858Y-87751489D01*
X202712047Y-87683362D01*
X202742673Y-87622231D01*
X202745428Y-87619208D01*
X202749732Y-87615285D01*
X202873088Y-87451935D01*
X202964328Y-87268701D01*
X203020345Y-87071821D01*
X203039232Y-86868000D01*
X203360768Y-86868000D01*
X203361306Y-86873806D01*
X203379116Y-87066015D01*
X203379117Y-87066025D01*
X203379655Y-87071821D01*
X203381249Y-87077426D01*
X203381250Y-87077427D01*
X203411657Y-87184299D01*
X203435672Y-87268701D01*
X203526912Y-87451935D01*
X203530421Y-87456582D01*
X203530422Y-87456583D01*
X203646755Y-87610634D01*
X203646759Y-87610638D01*
X203650268Y-87615285D01*
X203654570Y-87619207D01*
X203654573Y-87619210D01*
X203709403Y-87669194D01*
X203801538Y-87753186D01*
X203806489Y-87756251D01*
X203806491Y-87756253D01*
X203847788Y-87781823D01*
X203975573Y-87860944D01*
X204166444Y-87934888D01*
X204367653Y-87972500D01*
X204566519Y-87972500D01*
X204572347Y-87972500D01*
X204773556Y-87934888D01*
X204964427Y-87860944D01*
X205138462Y-87753186D01*
X205289732Y-87615285D01*
X205397506Y-87472568D01*
X205441894Y-87435709D01*
X205498057Y-87422500D01*
X208633129Y-87422500D01*
X208681347Y-87432091D01*
X208722224Y-87459405D01*
X211940595Y-90677777D01*
X211967909Y-90718654D01*
X211977500Y-90766872D01*
X211977500Y-91007676D01*
X211964172Y-91064077D01*
X211934244Y-91099885D01*
X211935182Y-91100823D01*
X211928805Y-91107198D01*
X211921596Y-91112596D01*
X211916200Y-91119803D01*
X211916197Y-91119807D01*
X211840060Y-91221515D01*
X211840056Y-91221521D01*
X211834658Y-91228733D01*
X211831508Y-91237178D01*
X211831506Y-91237182D01*
X211786714Y-91357271D01*
X211786711Y-91357280D01*
X211783960Y-91364658D01*
X211783118Y-91372489D01*
X211783117Y-91372494D01*
X211777860Y-91421392D01*
X211777500Y-91424745D01*
X211777500Y-91428111D01*
X211777500Y-91428112D01*
X211777500Y-92467883D01*
X211777500Y-92467901D01*
X211777501Y-92471254D01*
X211777860Y-92474599D01*
X211777861Y-92474607D01*
X211783117Y-92523500D01*
X211783960Y-92531342D01*
X211786715Y-92538728D01*
X211786716Y-92538731D01*
X211807080Y-92593330D01*
X211834658Y-92667267D01*
X211840058Y-92674481D01*
X211840060Y-92674484D01*
X211914039Y-92773309D01*
X211921596Y-92783404D01*
X211928807Y-92788802D01*
X211928810Y-92788805D01*
X211977008Y-92824885D01*
X212014172Y-92869354D01*
X212027500Y-92925754D01*
X212027500Y-93385501D01*
X212010619Y-93448501D01*
X211964500Y-93494620D01*
X211901500Y-93511501D01*
X211725434Y-93511501D01*
X211719368Y-93512707D01*
X211719362Y-93512708D01*
X211663374Y-93523844D01*
X211663371Y-93523844D01*
X211651199Y-93526266D01*
X211640879Y-93533161D01*
X211640878Y-93533162D01*
X211577332Y-93575622D01*
X211577329Y-93575624D01*
X211567016Y-93582516D01*
X211560124Y-93592829D01*
X211560122Y-93592832D01*
X211517661Y-93656379D01*
X211517659Y-93656381D01*
X211510766Y-93666699D01*
X211508345Y-93678867D01*
X211508344Y-93678871D01*
X211497207Y-93734864D01*
X211496000Y-93740933D01*
X211496000Y-93747118D01*
X211496000Y-93747119D01*
X211496000Y-94234877D01*
X211496000Y-94234887D01*
X211496001Y-94241066D01*
X211497206Y-94247128D01*
X211497207Y-94247130D01*
X211506271Y-94292701D01*
X211506271Y-94341858D01*
X211497706Y-94384919D01*
X211496500Y-94397170D01*
X211496500Y-94399410D01*
X211500006Y-94412493D01*
X211513090Y-94416000D01*
X211553511Y-94416000D01*
X211590088Y-94421426D01*
X211623514Y-94437236D01*
X211640879Y-94448839D01*
X211640881Y-94448840D01*
X211651199Y-94455734D01*
X211725433Y-94470500D01*
X213250566Y-94470499D01*
X213324801Y-94455734D01*
X213335120Y-94448838D01*
X213335122Y-94448838D01*
X213352486Y-94437236D01*
X213385912Y-94421426D01*
X213422489Y-94416000D01*
X213462909Y-94416000D01*
X213475992Y-94412493D01*
X213479499Y-94399410D01*
X213479499Y-94397172D01*
X213478291Y-94384912D01*
X213469729Y-94341862D01*
X213469729Y-94292701D01*
X213469793Y-94292381D01*
X213480000Y-94241067D01*
X213479999Y-93740934D01*
X213465234Y-93666699D01*
X213408984Y-93582516D01*
X213365189Y-93553253D01*
X213335120Y-93533161D01*
X213335119Y-93533160D01*
X213324801Y-93526266D01*
X213312631Y-93523845D01*
X213312628Y-93523844D01*
X213256635Y-93512707D01*
X213250567Y-93511500D01*
X213244380Y-93511500D01*
X213162500Y-93511500D01*
X213099500Y-93494619D01*
X213053381Y-93448500D01*
X213036500Y-93385500D01*
X213036500Y-92925754D01*
X213049828Y-92869354D01*
X213086992Y-92824885D01*
X213135189Y-92788805D01*
X213135188Y-92788805D01*
X213142404Y-92783404D01*
X213197353Y-92710000D01*
X214986693Y-92710000D01*
X214987612Y-92717569D01*
X214996261Y-92788805D01*
X215005851Y-92867782D01*
X215008551Y-92874901D01*
X215008552Y-92874905D01*
X215059510Y-93009270D01*
X215059512Y-93009275D01*
X215062213Y-93016395D01*
X215066541Y-93022665D01*
X215066542Y-93022667D01*
X215129817Y-93114337D01*
X215152502Y-93147201D01*
X215271471Y-93252599D01*
X215412207Y-93326463D01*
X215566529Y-93364500D01*
X215717854Y-93364500D01*
X215725471Y-93364500D01*
X215879793Y-93326463D01*
X216020529Y-93252599D01*
X216118066Y-93166187D01*
X216156940Y-93142688D01*
X216201620Y-93134500D01*
X220957100Y-93134500D01*
X221023430Y-93153373D01*
X221069888Y-93204334D01*
X221136912Y-93338935D01*
X221140421Y-93343582D01*
X221140422Y-93343583D01*
X221256755Y-93497634D01*
X221256759Y-93497638D01*
X221260268Y-93502285D01*
X221264570Y-93506207D01*
X221264573Y-93506210D01*
X221312813Y-93550186D01*
X221411538Y-93640186D01*
X221416489Y-93643251D01*
X221416491Y-93643253D01*
X221440218Y-93657944D01*
X221585573Y-93747944D01*
X221776444Y-93821888D01*
X221977653Y-93859500D01*
X222176519Y-93859500D01*
X222182347Y-93859500D01*
X222383556Y-93821888D01*
X222574427Y-93747944D01*
X222748462Y-93640186D01*
X222899732Y-93502285D01*
X223023088Y-93338935D01*
X223114328Y-93155701D01*
X223155322Y-93011620D01*
X223547922Y-93011620D01*
X223548451Y-93023061D01*
X223584546Y-93149918D01*
X223588734Y-93160729D01*
X223674742Y-93333456D01*
X223680850Y-93343321D01*
X223797126Y-93497296D01*
X223804944Y-93505872D01*
X223947533Y-93635859D01*
X223956796Y-93642854D01*
X224120846Y-93744428D01*
X224131228Y-93749598D01*
X224311146Y-93819299D01*
X224322307Y-93822475D01*
X224352358Y-93828092D01*
X224363559Y-93827704D01*
X224366000Y-93816763D01*
X224874000Y-93816763D01*
X224876440Y-93827704D01*
X224887641Y-93828092D01*
X224917692Y-93822475D01*
X224928853Y-93819299D01*
X225108771Y-93749598D01*
X225119153Y-93744428D01*
X225283203Y-93642854D01*
X225292466Y-93635859D01*
X225435055Y-93505872D01*
X225442873Y-93497296D01*
X225559149Y-93343321D01*
X225565257Y-93333456D01*
X225651265Y-93160729D01*
X225655453Y-93149918D01*
X225691548Y-93023061D01*
X225692077Y-93011620D01*
X225680933Y-93009000D01*
X224890590Y-93009000D01*
X224877506Y-93012506D01*
X224874000Y-93025590D01*
X224874000Y-93816763D01*
X224366000Y-93816763D01*
X224366000Y-93025590D01*
X224362493Y-93012506D01*
X224349410Y-93009000D01*
X223559067Y-93009000D01*
X223547922Y-93011620D01*
X223155322Y-93011620D01*
X223170345Y-92958821D01*
X223189232Y-92755000D01*
X223171248Y-92560923D01*
X223170883Y-92556984D01*
X223170882Y-92556983D01*
X223170345Y-92551179D01*
X223155322Y-92498379D01*
X223547922Y-92498379D01*
X223559067Y-92501000D01*
X224349410Y-92501000D01*
X224362493Y-92497493D01*
X224366000Y-92484410D01*
X224874000Y-92484410D01*
X224877506Y-92497493D01*
X224890590Y-92501000D01*
X225680933Y-92501000D01*
X225692077Y-92498379D01*
X225691548Y-92486938D01*
X225655453Y-92360081D01*
X225651265Y-92349270D01*
X225565257Y-92176543D01*
X225559149Y-92166678D01*
X225442873Y-92012703D01*
X225435055Y-92004127D01*
X225292466Y-91874140D01*
X225283203Y-91867145D01*
X225119153Y-91765571D01*
X225108771Y-91760401D01*
X224928853Y-91690700D01*
X224917692Y-91687524D01*
X224887641Y-91681907D01*
X224876440Y-91682295D01*
X224874000Y-91693237D01*
X224874000Y-92484410D01*
X224366000Y-92484410D01*
X224366000Y-91693237D01*
X224363559Y-91682295D01*
X224352358Y-91681907D01*
X224322307Y-91687524D01*
X224311146Y-91690700D01*
X224131228Y-91760401D01*
X224120846Y-91765571D01*
X223956796Y-91867145D01*
X223947533Y-91874140D01*
X223804944Y-92004127D01*
X223797126Y-92012703D01*
X223680850Y-92166678D01*
X223674742Y-92176543D01*
X223588734Y-92349270D01*
X223584546Y-92360081D01*
X223548451Y-92486938D01*
X223547922Y-92498379D01*
X223155322Y-92498379D01*
X223114328Y-92354299D01*
X223023088Y-92171065D01*
X222964542Y-92093537D01*
X222903244Y-92012365D01*
X222903241Y-92012361D01*
X222899732Y-92007715D01*
X222895429Y-92003792D01*
X222895426Y-92003789D01*
X222752764Y-91873736D01*
X222752765Y-91873736D01*
X222748462Y-91869814D01*
X222743512Y-91866749D01*
X222743508Y-91866746D01*
X222579387Y-91765127D01*
X222579386Y-91765126D01*
X222574427Y-91762056D01*
X222550898Y-91752941D01*
X222388989Y-91690216D01*
X222388981Y-91690213D01*
X222383556Y-91688112D01*
X222377839Y-91687043D01*
X222377831Y-91687041D01*
X222188073Y-91651570D01*
X222188069Y-91651569D01*
X222182347Y-91650500D01*
X221977653Y-91650500D01*
X221971931Y-91651569D01*
X221971926Y-91651570D01*
X221782168Y-91687041D01*
X221782157Y-91687043D01*
X221776444Y-91688112D01*
X221771021Y-91690212D01*
X221771010Y-91690216D01*
X221591011Y-91759949D01*
X221591008Y-91759950D01*
X221585573Y-91762056D01*
X221580617Y-91765124D01*
X221580612Y-91765127D01*
X221416491Y-91866746D01*
X221416481Y-91866752D01*
X221411538Y-91869814D01*
X221407239Y-91873732D01*
X221407235Y-91873736D01*
X221264573Y-92003789D01*
X221264565Y-92003797D01*
X221260268Y-92007715D01*
X221256763Y-92012355D01*
X221256755Y-92012365D01*
X221140422Y-92166416D01*
X221140418Y-92166421D01*
X221136912Y-92171065D01*
X221069888Y-92305665D01*
X221023430Y-92356627D01*
X220957100Y-92375500D01*
X216276517Y-92375500D01*
X216217962Y-92361067D01*
X216172821Y-92321076D01*
X216143828Y-92279072D01*
X216143827Y-92279071D01*
X216139498Y-92272799D01*
X216020529Y-92167401D01*
X215903124Y-92105782D01*
X215886546Y-92097081D01*
X215886544Y-92097080D01*
X215879793Y-92093537D01*
X215872395Y-92091713D01*
X215872391Y-92091712D01*
X215732864Y-92057322D01*
X215732862Y-92057321D01*
X215725471Y-92055500D01*
X215566529Y-92055500D01*
X215559138Y-92057321D01*
X215559135Y-92057322D01*
X215419608Y-92091712D01*
X215419601Y-92091714D01*
X215412207Y-92093537D01*
X215405458Y-92097078D01*
X215405453Y-92097081D01*
X215278223Y-92163857D01*
X215278221Y-92163858D01*
X215271471Y-92167401D01*
X215265769Y-92172452D01*
X215265764Y-92172456D01*
X215158207Y-92267744D01*
X215158203Y-92267747D01*
X215152502Y-92272799D01*
X215148175Y-92279066D01*
X215148171Y-92279072D01*
X215066542Y-92397332D01*
X215066538Y-92397337D01*
X215062213Y-92403605D01*
X215059514Y-92410720D01*
X215059510Y-92410729D01*
X215008552Y-92545094D01*
X215008550Y-92545100D01*
X215005851Y-92552218D01*
X215004932Y-92559779D01*
X215004932Y-92559783D01*
X214992937Y-92658575D01*
X214986693Y-92710000D01*
X213197353Y-92710000D01*
X213229342Y-92667267D01*
X213280040Y-92531342D01*
X213286500Y-92471255D01*
X213286499Y-91424746D01*
X213280040Y-91364658D01*
X213229342Y-91228733D01*
X213202561Y-91192958D01*
X213147802Y-91119807D01*
X213142404Y-91112596D01*
X213135192Y-91107197D01*
X213128818Y-91100823D01*
X213129755Y-91099885D01*
X213099828Y-91064077D01*
X213086500Y-91007676D01*
X213086500Y-90496611D01*
X213086573Y-90492309D01*
X213086689Y-90488900D01*
X213088778Y-90427761D01*
X213078989Y-90387596D01*
X213076584Y-90374936D01*
X213072131Y-90342532D01*
X213072130Y-90342531D01*
X213070957Y-90333991D01*
X213063790Y-90317492D01*
X213056945Y-90297135D01*
X213052688Y-90279666D01*
X213032434Y-90243644D01*
X213026696Y-90232091D01*
X213019272Y-90215000D01*
X220970768Y-90215000D01*
X220971306Y-90220806D01*
X220989116Y-90413015D01*
X220989117Y-90413025D01*
X220989655Y-90418821D01*
X220991249Y-90424426D01*
X220991250Y-90424427D01*
X221044026Y-90609918D01*
X221045672Y-90615701D01*
X221136912Y-90798935D01*
X221140421Y-90803582D01*
X221140422Y-90803583D01*
X221256755Y-90957634D01*
X221256759Y-90957638D01*
X221260268Y-90962285D01*
X221264570Y-90966207D01*
X221264573Y-90966210D01*
X221310059Y-91007676D01*
X221411538Y-91100186D01*
X221416489Y-91103251D01*
X221416491Y-91103253D01*
X221457370Y-91128564D01*
X221585573Y-91207944D01*
X221776444Y-91281888D01*
X221977653Y-91319500D01*
X222176519Y-91319500D01*
X222182347Y-91319500D01*
X222383556Y-91281888D01*
X222574427Y-91207944D01*
X222748462Y-91100186D01*
X222899732Y-90962285D01*
X223023088Y-90798935D01*
X223114328Y-90615701D01*
X223155322Y-90471620D01*
X223547922Y-90471620D01*
X223548451Y-90483061D01*
X223584546Y-90609918D01*
X223588734Y-90620729D01*
X223674742Y-90793456D01*
X223680850Y-90803321D01*
X223797126Y-90957296D01*
X223804944Y-90965872D01*
X223947533Y-91095859D01*
X223956796Y-91102854D01*
X224120846Y-91204428D01*
X224131228Y-91209598D01*
X224311146Y-91279299D01*
X224322307Y-91282475D01*
X224352358Y-91288092D01*
X224363559Y-91287704D01*
X224366000Y-91276763D01*
X224874000Y-91276763D01*
X224876440Y-91287704D01*
X224887641Y-91288092D01*
X224917692Y-91282475D01*
X224928853Y-91279299D01*
X225108771Y-91209598D01*
X225119153Y-91204428D01*
X225283203Y-91102854D01*
X225292466Y-91095859D01*
X225435055Y-90965872D01*
X225442873Y-90957296D01*
X225559149Y-90803321D01*
X225565257Y-90793456D01*
X225651265Y-90620729D01*
X225655453Y-90609918D01*
X225691548Y-90483061D01*
X225692077Y-90471620D01*
X225680933Y-90469000D01*
X224890590Y-90469000D01*
X224877506Y-90472506D01*
X224874000Y-90485590D01*
X224874000Y-91276763D01*
X224366000Y-91276763D01*
X224366000Y-90485590D01*
X224362493Y-90472506D01*
X224349410Y-90469000D01*
X223559067Y-90469000D01*
X223547922Y-90471620D01*
X223155322Y-90471620D01*
X223170345Y-90418821D01*
X223189232Y-90215000D01*
X223175385Y-90065572D01*
X223170883Y-90016984D01*
X223170882Y-90016983D01*
X223170345Y-90011179D01*
X223155322Y-89958379D01*
X223547922Y-89958379D01*
X223559067Y-89961000D01*
X224349410Y-89961000D01*
X224362493Y-89957493D01*
X224366000Y-89944410D01*
X224874000Y-89944410D01*
X224877506Y-89957493D01*
X224890590Y-89961000D01*
X225680933Y-89961000D01*
X225692077Y-89958379D01*
X225691548Y-89946938D01*
X225655453Y-89820081D01*
X225651265Y-89809270D01*
X225565257Y-89636543D01*
X225559149Y-89626678D01*
X225442873Y-89472703D01*
X225435055Y-89464127D01*
X225292466Y-89334140D01*
X225283203Y-89327145D01*
X225119153Y-89225571D01*
X225108771Y-89220401D01*
X224928853Y-89150700D01*
X224917692Y-89147524D01*
X224887641Y-89141907D01*
X224876440Y-89142295D01*
X224874000Y-89153237D01*
X224874000Y-89944410D01*
X224366000Y-89944410D01*
X224366000Y-89153237D01*
X224363559Y-89142295D01*
X224352358Y-89141907D01*
X224322307Y-89147524D01*
X224311146Y-89150700D01*
X224131228Y-89220401D01*
X224120846Y-89225571D01*
X223956796Y-89327145D01*
X223947533Y-89334140D01*
X223804944Y-89464127D01*
X223797126Y-89472703D01*
X223680850Y-89626678D01*
X223674742Y-89636543D01*
X223588734Y-89809270D01*
X223584546Y-89820081D01*
X223548451Y-89946938D01*
X223547922Y-89958379D01*
X223155322Y-89958379D01*
X223114328Y-89814299D01*
X223023088Y-89631065D01*
X222953187Y-89538501D01*
X222903244Y-89472365D01*
X222903241Y-89472361D01*
X222899732Y-89467715D01*
X222895429Y-89463792D01*
X222895426Y-89463789D01*
X222752764Y-89333736D01*
X222752765Y-89333736D01*
X222748462Y-89329814D01*
X222743512Y-89326749D01*
X222743508Y-89326746D01*
X222579387Y-89225127D01*
X222579386Y-89225126D01*
X222574427Y-89222056D01*
X222492807Y-89190436D01*
X222388989Y-89150216D01*
X222388981Y-89150213D01*
X222383556Y-89148112D01*
X222377839Y-89147043D01*
X222377831Y-89147041D01*
X222188073Y-89111570D01*
X222188069Y-89111569D01*
X222182347Y-89110500D01*
X221977653Y-89110500D01*
X221971931Y-89111569D01*
X221971926Y-89111570D01*
X221782168Y-89147041D01*
X221782157Y-89147043D01*
X221776444Y-89148112D01*
X221771021Y-89150212D01*
X221771010Y-89150216D01*
X221591011Y-89219949D01*
X221591008Y-89219950D01*
X221585573Y-89222056D01*
X221580617Y-89225124D01*
X221580612Y-89225127D01*
X221416491Y-89326746D01*
X221416481Y-89326752D01*
X221411538Y-89329814D01*
X221407239Y-89333732D01*
X221407235Y-89333736D01*
X221264573Y-89463789D01*
X221264565Y-89463797D01*
X221260268Y-89467715D01*
X221256763Y-89472355D01*
X221256755Y-89472365D01*
X221140422Y-89626416D01*
X221140418Y-89626421D01*
X221136912Y-89631065D01*
X221134317Y-89636274D01*
X221134314Y-89636281D01*
X221048271Y-89809079D01*
X221045672Y-89814299D01*
X221044078Y-89819899D01*
X221044076Y-89819906D01*
X220992143Y-90002435D01*
X220989655Y-90011179D01*
X220989118Y-90016972D01*
X220989116Y-90016984D01*
X220973989Y-90180239D01*
X220970768Y-90215000D01*
X213019272Y-90215000D01*
X213010230Y-90194182D01*
X212998885Y-90180238D01*
X212986795Y-90162475D01*
X212977982Y-90146800D01*
X212948756Y-90117574D01*
X212940112Y-90107996D01*
X212919474Y-90082629D01*
X212914034Y-90075942D01*
X212906993Y-90070972D01*
X212906990Y-90070969D01*
X212899344Y-90065572D01*
X212882912Y-90051730D01*
X210506181Y-87675000D01*
X220970768Y-87675000D01*
X220971306Y-87680806D01*
X220989116Y-87873015D01*
X220989117Y-87873025D01*
X220989655Y-87878821D01*
X220991249Y-87884426D01*
X220991250Y-87884427D01*
X221044026Y-88069918D01*
X221045672Y-88075701D01*
X221136912Y-88258935D01*
X221140421Y-88263582D01*
X221140422Y-88263583D01*
X221256755Y-88417634D01*
X221256759Y-88417638D01*
X221260268Y-88422285D01*
X221264570Y-88426207D01*
X221264573Y-88426210D01*
X221312813Y-88470186D01*
X221411538Y-88560186D01*
X221416489Y-88563251D01*
X221416491Y-88563253D01*
X221463376Y-88592283D01*
X221585573Y-88667944D01*
X221776444Y-88741888D01*
X221977653Y-88779500D01*
X222176519Y-88779500D01*
X222182347Y-88779500D01*
X222383556Y-88741888D01*
X222574427Y-88667944D01*
X222748462Y-88560186D01*
X222899732Y-88422285D01*
X223023088Y-88258935D01*
X223114328Y-88075701D01*
X223155322Y-87931620D01*
X223547922Y-87931620D01*
X223548451Y-87943061D01*
X223584546Y-88069918D01*
X223588734Y-88080729D01*
X223674742Y-88253456D01*
X223680850Y-88263321D01*
X223797126Y-88417296D01*
X223804944Y-88425872D01*
X223947533Y-88555859D01*
X223956796Y-88562854D01*
X224120846Y-88664428D01*
X224131228Y-88669598D01*
X224311146Y-88739299D01*
X224322307Y-88742475D01*
X224352358Y-88748092D01*
X224363559Y-88747704D01*
X224366000Y-88736763D01*
X224874000Y-88736763D01*
X224876440Y-88747704D01*
X224887641Y-88748092D01*
X224917692Y-88742475D01*
X224928853Y-88739299D01*
X225108771Y-88669598D01*
X225119153Y-88664428D01*
X225283203Y-88562854D01*
X225292466Y-88555859D01*
X225435055Y-88425872D01*
X225442873Y-88417296D01*
X225559149Y-88263321D01*
X225565257Y-88253456D01*
X225651265Y-88080729D01*
X225655453Y-88069918D01*
X225691548Y-87943061D01*
X225692077Y-87931620D01*
X225680933Y-87929000D01*
X224890590Y-87929000D01*
X224877506Y-87932506D01*
X224874000Y-87945590D01*
X224874000Y-88736763D01*
X224366000Y-88736763D01*
X224366000Y-87945590D01*
X224362493Y-87932506D01*
X224349410Y-87929000D01*
X223559067Y-87929000D01*
X223547922Y-87931620D01*
X223155322Y-87931620D01*
X223170345Y-87878821D01*
X223189232Y-87675000D01*
X223170345Y-87471179D01*
X223155322Y-87418379D01*
X223547922Y-87418379D01*
X223559067Y-87421000D01*
X224349410Y-87421000D01*
X224362493Y-87417493D01*
X224366000Y-87404410D01*
X224874000Y-87404410D01*
X224877506Y-87417493D01*
X224890590Y-87421000D01*
X225680933Y-87421000D01*
X225692077Y-87418379D01*
X225691548Y-87406938D01*
X225655453Y-87280081D01*
X225651265Y-87269270D01*
X225565257Y-87096543D01*
X225559149Y-87086678D01*
X225442873Y-86932703D01*
X225435055Y-86924127D01*
X225292466Y-86794140D01*
X225283203Y-86787145D01*
X225119153Y-86685571D01*
X225108771Y-86680401D01*
X224928853Y-86610700D01*
X224917692Y-86607524D01*
X224887641Y-86601907D01*
X224876440Y-86602295D01*
X224874000Y-86613237D01*
X224874000Y-87404410D01*
X224366000Y-87404410D01*
X224366000Y-86613237D01*
X224363559Y-86602295D01*
X224352358Y-86601907D01*
X224322307Y-86607524D01*
X224311146Y-86610700D01*
X224131228Y-86680401D01*
X224120846Y-86685571D01*
X223956796Y-86787145D01*
X223947533Y-86794140D01*
X223804944Y-86924127D01*
X223797126Y-86932703D01*
X223680850Y-87086678D01*
X223674742Y-87096543D01*
X223588734Y-87269270D01*
X223584546Y-87280081D01*
X223548451Y-87406938D01*
X223547922Y-87418379D01*
X223155322Y-87418379D01*
X223114328Y-87274299D01*
X223023088Y-87091065D01*
X222959062Y-87006281D01*
X222903244Y-86932365D01*
X222903241Y-86932361D01*
X222899732Y-86927715D01*
X222895429Y-86923792D01*
X222895426Y-86923789D01*
X222752764Y-86793736D01*
X222752765Y-86793736D01*
X222748462Y-86789814D01*
X222743512Y-86786749D01*
X222743508Y-86786746D01*
X222579387Y-86685127D01*
X222579386Y-86685126D01*
X222574427Y-86682056D01*
X222543266Y-86669984D01*
X222388989Y-86610216D01*
X222388981Y-86610213D01*
X222383556Y-86608112D01*
X222377839Y-86607043D01*
X222377831Y-86607041D01*
X222188073Y-86571570D01*
X222188069Y-86571569D01*
X222182347Y-86570500D01*
X221977653Y-86570500D01*
X221971931Y-86571569D01*
X221971926Y-86571570D01*
X221782168Y-86607041D01*
X221782157Y-86607043D01*
X221776444Y-86608112D01*
X221771021Y-86610212D01*
X221771010Y-86610216D01*
X221591011Y-86679949D01*
X221591008Y-86679950D01*
X221585573Y-86682056D01*
X221580617Y-86685124D01*
X221580612Y-86685127D01*
X221416491Y-86786746D01*
X221416481Y-86786752D01*
X221411538Y-86789814D01*
X221407239Y-86793732D01*
X221407235Y-86793736D01*
X221264573Y-86923789D01*
X221264565Y-86923797D01*
X221260268Y-86927715D01*
X221256763Y-86932355D01*
X221256755Y-86932365D01*
X221140422Y-87086416D01*
X221140418Y-87086421D01*
X221136912Y-87091065D01*
X221134317Y-87096274D01*
X221134314Y-87096281D01*
X221051252Y-87263093D01*
X221045672Y-87274299D01*
X221044078Y-87279899D01*
X221044076Y-87279906D01*
X220995130Y-87451935D01*
X220989655Y-87471179D01*
X220989118Y-87476972D01*
X220989116Y-87476984D01*
X220975658Y-87622231D01*
X220970768Y-87675000D01*
X210506181Y-87675000D01*
X209315321Y-86484140D01*
X209312330Y-86481046D01*
X209274110Y-86440122D01*
X209274109Y-86440121D01*
X209268228Y-86433824D01*
X209260866Y-86429347D01*
X209260860Y-86429342D01*
X209232911Y-86412346D01*
X209222256Y-86405095D01*
X209189321Y-86380120D01*
X209181309Y-86376960D01*
X209181305Y-86376958D01*
X209172589Y-86373521D01*
X209153355Y-86363967D01*
X209145361Y-86359106D01*
X209145353Y-86359102D01*
X209137990Y-86354625D01*
X209129694Y-86352300D01*
X209129684Y-86352296D01*
X209098192Y-86343472D01*
X209085970Y-86339362D01*
X209055536Y-86327361D01*
X209055529Y-86327359D01*
X209047520Y-86324201D01*
X209035528Y-86322968D01*
X209029627Y-86322361D01*
X209008530Y-86318351D01*
X208999511Y-86315824D01*
X208999507Y-86315823D01*
X208991214Y-86313500D01*
X208982599Y-86313500D01*
X208949883Y-86313500D01*
X208936999Y-86312839D01*
X208932091Y-86312334D01*
X208904468Y-86309494D01*
X208904462Y-86309494D01*
X208895891Y-86308613D01*
X208887401Y-86310076D01*
X208887395Y-86310077D01*
X208878173Y-86311668D01*
X208856764Y-86313500D01*
X205498057Y-86313500D01*
X205441894Y-86300291D01*
X205397507Y-86263432D01*
X205293244Y-86125365D01*
X205293241Y-86125361D01*
X205289732Y-86120715D01*
X205285429Y-86116792D01*
X205285426Y-86116789D01*
X205142764Y-85986736D01*
X205142765Y-85986736D01*
X205138462Y-85982814D01*
X205133512Y-85979749D01*
X205133508Y-85979746D01*
X204969387Y-85878127D01*
X204969386Y-85878126D01*
X204964427Y-85875056D01*
X204940898Y-85865941D01*
X204778989Y-85803216D01*
X204778981Y-85803213D01*
X204773556Y-85801112D01*
X204767839Y-85800043D01*
X204767831Y-85800041D01*
X204578073Y-85764570D01*
X204578069Y-85764569D01*
X204572347Y-85763500D01*
X204367653Y-85763500D01*
X204361931Y-85764569D01*
X204361926Y-85764570D01*
X204172168Y-85800041D01*
X204172157Y-85800043D01*
X204166444Y-85801112D01*
X204161021Y-85803212D01*
X204161010Y-85803216D01*
X203981011Y-85872949D01*
X203981008Y-85872950D01*
X203975573Y-85875056D01*
X203970617Y-85878124D01*
X203970612Y-85878127D01*
X203806491Y-85979746D01*
X203806481Y-85979752D01*
X203801538Y-85982814D01*
X203797239Y-85986732D01*
X203797235Y-85986736D01*
X203654573Y-86116789D01*
X203654565Y-86116797D01*
X203650268Y-86120715D01*
X203646763Y-86125355D01*
X203646755Y-86125365D01*
X203530422Y-86279416D01*
X203530418Y-86279421D01*
X203526912Y-86284065D01*
X203524317Y-86289274D01*
X203524314Y-86289281D01*
X203449139Y-86440254D01*
X203435672Y-86467299D01*
X203434078Y-86472899D01*
X203434076Y-86472906D01*
X203385543Y-86643484D01*
X203379655Y-86664179D01*
X203379118Y-86669972D01*
X203379116Y-86669984D01*
X203363112Y-86842703D01*
X203360768Y-86868000D01*
X203039232Y-86868000D01*
X203020345Y-86664179D01*
X202964328Y-86467299D01*
X202873088Y-86284065D01*
X202808473Y-86198501D01*
X202753244Y-86125365D01*
X202753241Y-86125361D01*
X202749732Y-86120715D01*
X202745429Y-86116792D01*
X202745426Y-86116789D01*
X202602764Y-85986736D01*
X202602765Y-85986736D01*
X202598462Y-85982814D01*
X202593512Y-85979749D01*
X202593508Y-85979746D01*
X202429387Y-85878127D01*
X202429386Y-85878126D01*
X202424427Y-85875056D01*
X202400898Y-85865941D01*
X202238989Y-85803216D01*
X202238981Y-85803213D01*
X202233556Y-85801112D01*
X202227839Y-85800043D01*
X202227831Y-85800041D01*
X202038073Y-85764570D01*
X202038069Y-85764569D01*
X202032347Y-85763500D01*
X201827653Y-85763500D01*
X201821931Y-85764569D01*
X201821926Y-85764570D01*
X201632165Y-85800042D01*
X201632159Y-85800043D01*
X201626444Y-85801112D01*
X201621027Y-85803210D01*
X201621004Y-85803217D01*
X201616083Y-85805124D01*
X201568630Y-85813613D01*
X201521462Y-85803660D01*
X201481483Y-85776723D01*
X201127268Y-85422507D01*
X201096003Y-85370683D01*
X201092509Y-85310259D01*
X201117595Y-85255178D01*
X201165470Y-85218148D01*
X201225089Y-85207714D01*
X201282692Y-85226284D01*
X201435573Y-85320944D01*
X201626444Y-85394888D01*
X201827653Y-85432500D01*
X202026519Y-85432500D01*
X202032347Y-85432500D01*
X202233556Y-85394888D01*
X202424427Y-85320944D01*
X202598462Y-85213186D01*
X202749732Y-85075285D01*
X202873088Y-84911935D01*
X202964328Y-84728701D01*
X203020345Y-84531821D01*
X203039232Y-84328000D01*
X203360768Y-84328000D01*
X203361306Y-84333806D01*
X203379116Y-84526015D01*
X203379117Y-84526025D01*
X203379655Y-84531821D01*
X203381249Y-84537426D01*
X203381250Y-84537427D01*
X203429639Y-84707500D01*
X203435672Y-84728701D01*
X203526912Y-84911935D01*
X203530421Y-84916582D01*
X203530422Y-84916583D01*
X203646755Y-85070634D01*
X203646759Y-85070638D01*
X203650268Y-85075285D01*
X203654570Y-85079207D01*
X203654573Y-85079210D01*
X203683544Y-85105620D01*
X203801538Y-85213186D01*
X203806489Y-85216251D01*
X203806491Y-85216253D01*
X203856569Y-85247260D01*
X203975573Y-85320944D01*
X204166444Y-85394888D01*
X204367653Y-85432500D01*
X204566519Y-85432500D01*
X204572347Y-85432500D01*
X204773556Y-85394888D01*
X204964427Y-85320944D01*
X205138462Y-85213186D01*
X205224228Y-85135000D01*
X210795693Y-85135000D01*
X210796612Y-85142569D01*
X210809814Y-85251303D01*
X210814851Y-85292782D01*
X210817551Y-85299901D01*
X210817552Y-85299905D01*
X210868510Y-85434270D01*
X210868512Y-85434275D01*
X210871213Y-85441395D01*
X210875541Y-85447665D01*
X210875542Y-85447667D01*
X210954059Y-85561419D01*
X210961502Y-85572201D01*
X211080471Y-85677599D01*
X211221207Y-85751463D01*
X211375529Y-85789500D01*
X211526854Y-85789500D01*
X211534471Y-85789500D01*
X211688793Y-85751463D01*
X211829529Y-85677599D01*
X211948498Y-85572201D01*
X211952829Y-85565925D01*
X211957881Y-85560224D01*
X211959230Y-85561419D01*
X211995901Y-85528932D01*
X212054456Y-85514500D01*
X220957100Y-85514500D01*
X221023430Y-85533373D01*
X221069888Y-85584334D01*
X221136912Y-85718935D01*
X221140421Y-85723582D01*
X221140422Y-85723583D01*
X221256755Y-85877634D01*
X221256759Y-85877638D01*
X221260268Y-85882285D01*
X221264570Y-85886207D01*
X221264573Y-85886210D01*
X221312813Y-85930186D01*
X221411538Y-86020186D01*
X221416489Y-86023251D01*
X221416491Y-86023253D01*
X221440218Y-86037944D01*
X221585573Y-86127944D01*
X221739512Y-86187580D01*
X221767698Y-86198500D01*
X221776444Y-86201888D01*
X221977653Y-86239500D01*
X222176519Y-86239500D01*
X222182347Y-86239500D01*
X222383556Y-86201888D01*
X222574427Y-86127944D01*
X222748462Y-86020186D01*
X222899732Y-85882285D01*
X223023088Y-85718935D01*
X223114328Y-85535701D01*
X223155322Y-85391620D01*
X223547922Y-85391620D01*
X223548451Y-85403061D01*
X223584546Y-85529918D01*
X223588734Y-85540729D01*
X223674742Y-85713456D01*
X223680850Y-85723321D01*
X223797126Y-85877296D01*
X223804944Y-85885872D01*
X223947533Y-86015859D01*
X223956796Y-86022854D01*
X224120846Y-86124428D01*
X224131228Y-86129598D01*
X224311146Y-86199299D01*
X224322307Y-86202475D01*
X224352358Y-86208092D01*
X224363559Y-86207704D01*
X224366000Y-86196763D01*
X224874000Y-86196763D01*
X224876440Y-86207704D01*
X224887641Y-86208092D01*
X224917692Y-86202475D01*
X224928853Y-86199299D01*
X225108771Y-86129598D01*
X225119153Y-86124428D01*
X225283203Y-86022854D01*
X225292466Y-86015859D01*
X225435055Y-85885872D01*
X225442873Y-85877296D01*
X225559149Y-85723321D01*
X225565257Y-85713456D01*
X225651265Y-85540729D01*
X225655453Y-85529918D01*
X225691548Y-85403061D01*
X225692077Y-85391620D01*
X225680933Y-85389000D01*
X224890590Y-85389000D01*
X224877506Y-85392506D01*
X224874000Y-85405590D01*
X224874000Y-86196763D01*
X224366000Y-86196763D01*
X224366000Y-85405590D01*
X224362493Y-85392506D01*
X224349410Y-85389000D01*
X223559067Y-85389000D01*
X223547922Y-85391620D01*
X223155322Y-85391620D01*
X223170345Y-85338821D01*
X223189232Y-85135000D01*
X223170345Y-84931179D01*
X223155322Y-84878379D01*
X223547922Y-84878379D01*
X223559067Y-84881000D01*
X224349410Y-84881000D01*
X224362493Y-84877493D01*
X224366000Y-84864410D01*
X224874000Y-84864410D01*
X224877506Y-84877493D01*
X224890590Y-84881000D01*
X225680933Y-84881000D01*
X225692077Y-84878379D01*
X225691548Y-84866938D01*
X225655453Y-84740081D01*
X225651265Y-84729270D01*
X225565257Y-84556543D01*
X225559149Y-84546678D01*
X225442873Y-84392703D01*
X225435055Y-84384127D01*
X225292466Y-84254140D01*
X225283203Y-84247145D01*
X225119153Y-84145571D01*
X225108771Y-84140401D01*
X224928853Y-84070700D01*
X224917692Y-84067524D01*
X224887641Y-84061907D01*
X224876440Y-84062295D01*
X224874000Y-84073237D01*
X224874000Y-84864410D01*
X224366000Y-84864410D01*
X224366000Y-84073237D01*
X224363559Y-84062295D01*
X224352358Y-84061907D01*
X224322307Y-84067524D01*
X224311146Y-84070700D01*
X224131228Y-84140401D01*
X224120846Y-84145571D01*
X223956796Y-84247145D01*
X223947533Y-84254140D01*
X223804944Y-84384127D01*
X223797126Y-84392703D01*
X223680850Y-84546678D01*
X223674742Y-84556543D01*
X223588734Y-84729270D01*
X223584546Y-84740081D01*
X223548451Y-84866938D01*
X223547922Y-84878379D01*
X223155322Y-84878379D01*
X223114328Y-84734299D01*
X223023088Y-84551065D01*
X222955123Y-84461065D01*
X222903244Y-84392365D01*
X222903241Y-84392361D01*
X222899732Y-84387715D01*
X222895429Y-84383792D01*
X222895426Y-84383789D01*
X222752764Y-84253736D01*
X222752765Y-84253736D01*
X222748462Y-84249814D01*
X222743512Y-84246749D01*
X222743508Y-84246746D01*
X222579387Y-84145127D01*
X222579386Y-84145126D01*
X222574427Y-84142056D01*
X222543266Y-84129984D01*
X222388989Y-84070216D01*
X222388981Y-84070213D01*
X222383556Y-84068112D01*
X222377839Y-84067043D01*
X222377831Y-84067041D01*
X222188073Y-84031570D01*
X222188069Y-84031569D01*
X222182347Y-84030500D01*
X221977653Y-84030500D01*
X221971931Y-84031569D01*
X221971926Y-84031570D01*
X221782168Y-84067041D01*
X221782157Y-84067043D01*
X221776444Y-84068112D01*
X221771021Y-84070212D01*
X221771010Y-84070216D01*
X221591011Y-84139949D01*
X221591008Y-84139950D01*
X221585573Y-84142056D01*
X221580617Y-84145124D01*
X221580612Y-84145127D01*
X221416491Y-84246746D01*
X221416481Y-84246752D01*
X221411538Y-84249814D01*
X221407239Y-84253732D01*
X221407235Y-84253736D01*
X221264573Y-84383789D01*
X221264565Y-84383797D01*
X221260268Y-84387715D01*
X221256763Y-84392355D01*
X221256755Y-84392365D01*
X221140422Y-84546416D01*
X221140418Y-84546421D01*
X221136912Y-84551065D01*
X221069888Y-84685665D01*
X221023430Y-84736627D01*
X220957100Y-84755500D01*
X212054456Y-84755500D01*
X211995901Y-84741068D01*
X211959230Y-84708580D01*
X211957881Y-84709776D01*
X211952828Y-84704072D01*
X211948498Y-84697799D01*
X211855325Y-84615254D01*
X211835235Y-84597456D01*
X211835234Y-84597455D01*
X211829529Y-84592401D01*
X211714104Y-84531821D01*
X211695546Y-84522081D01*
X211695544Y-84522080D01*
X211688793Y-84518537D01*
X211681395Y-84516713D01*
X211681391Y-84516712D01*
X211541864Y-84482322D01*
X211541862Y-84482321D01*
X211534471Y-84480500D01*
X211375529Y-84480500D01*
X211368138Y-84482321D01*
X211368135Y-84482322D01*
X211228608Y-84516712D01*
X211228601Y-84516714D01*
X211221207Y-84518537D01*
X211214458Y-84522078D01*
X211214453Y-84522081D01*
X211087223Y-84588857D01*
X211087221Y-84588858D01*
X211080471Y-84592401D01*
X211074769Y-84597452D01*
X211074764Y-84597456D01*
X210967207Y-84692744D01*
X210967203Y-84692747D01*
X210961502Y-84697799D01*
X210957175Y-84704066D01*
X210957171Y-84704072D01*
X210875542Y-84822332D01*
X210875538Y-84822337D01*
X210871213Y-84828605D01*
X210868514Y-84835720D01*
X210868510Y-84835729D01*
X210817552Y-84970094D01*
X210817550Y-84970100D01*
X210814851Y-84977218D01*
X210813932Y-84984779D01*
X210813932Y-84984783D01*
X210802467Y-85079210D01*
X210795693Y-85135000D01*
X205224228Y-85135000D01*
X205289732Y-85075285D01*
X205413088Y-84911935D01*
X205504328Y-84728701D01*
X205560345Y-84531821D01*
X205579232Y-84328000D01*
X205560345Y-84124179D01*
X205526612Y-84005624D01*
X205525849Y-83939472D01*
X205558706Y-83882052D01*
X205976871Y-83463887D01*
X220975500Y-83463887D01*
X220975501Y-83470066D01*
X220976707Y-83476132D01*
X220976708Y-83476137D01*
X220987844Y-83532125D01*
X220990266Y-83544301D01*
X221007293Y-83569783D01*
X221033115Y-83608429D01*
X221046516Y-83628484D01*
X221130699Y-83684734D01*
X221204933Y-83699500D01*
X222955066Y-83699499D01*
X223029301Y-83684734D01*
X223113484Y-83628484D01*
X223169734Y-83544301D01*
X223184500Y-83470067D01*
X223184499Y-82851620D01*
X223547922Y-82851620D01*
X223548451Y-82863061D01*
X223584546Y-82989918D01*
X223588734Y-83000729D01*
X223674742Y-83173456D01*
X223680850Y-83183321D01*
X223797126Y-83337296D01*
X223804944Y-83345872D01*
X223947533Y-83475859D01*
X223956796Y-83482854D01*
X224120846Y-83584428D01*
X224131228Y-83589598D01*
X224311146Y-83659299D01*
X224322307Y-83662475D01*
X224352358Y-83668092D01*
X224363559Y-83667704D01*
X224366000Y-83656763D01*
X224874000Y-83656763D01*
X224876440Y-83667704D01*
X224887641Y-83668092D01*
X224917692Y-83662475D01*
X224928853Y-83659299D01*
X225108771Y-83589598D01*
X225119153Y-83584428D01*
X225283203Y-83482854D01*
X225292466Y-83475859D01*
X225435055Y-83345872D01*
X225442873Y-83337296D01*
X225559149Y-83183321D01*
X225565257Y-83173456D01*
X225651265Y-83000729D01*
X225655453Y-82989918D01*
X225691548Y-82863061D01*
X225692077Y-82851620D01*
X225680933Y-82849000D01*
X224890590Y-82849000D01*
X224877506Y-82852506D01*
X224874000Y-82865590D01*
X224874000Y-83656763D01*
X224366000Y-83656763D01*
X224366000Y-82865590D01*
X224362493Y-82852506D01*
X224349410Y-82849000D01*
X223559067Y-82849000D01*
X223547922Y-82851620D01*
X223184499Y-82851620D01*
X223184499Y-82338379D01*
X223547922Y-82338379D01*
X223559067Y-82341000D01*
X224349410Y-82341000D01*
X224362493Y-82337493D01*
X224366000Y-82324410D01*
X224874000Y-82324410D01*
X224877506Y-82337493D01*
X224890590Y-82341000D01*
X225680933Y-82341000D01*
X225692077Y-82338379D01*
X225691548Y-82326938D01*
X225655453Y-82200081D01*
X225651265Y-82189270D01*
X225565257Y-82016543D01*
X225559149Y-82006678D01*
X225442873Y-81852703D01*
X225435055Y-81844127D01*
X225292466Y-81714140D01*
X225283203Y-81707145D01*
X225119153Y-81605571D01*
X225108771Y-81600401D01*
X224928853Y-81530700D01*
X224917692Y-81527524D01*
X224887641Y-81521907D01*
X224876440Y-81522295D01*
X224874000Y-81533237D01*
X224874000Y-82324410D01*
X224366000Y-82324410D01*
X224366000Y-81533237D01*
X224363559Y-81522295D01*
X224352358Y-81521907D01*
X224322307Y-81527524D01*
X224311146Y-81530700D01*
X224131228Y-81600401D01*
X224120846Y-81605571D01*
X223956796Y-81707145D01*
X223947533Y-81714140D01*
X223804944Y-81844127D01*
X223797126Y-81852703D01*
X223680850Y-82006678D01*
X223674742Y-82016543D01*
X223588734Y-82189270D01*
X223584546Y-82200081D01*
X223548451Y-82326938D01*
X223547922Y-82338379D01*
X223184499Y-82338379D01*
X223184499Y-81719934D01*
X223169734Y-81645699D01*
X223113484Y-81561516D01*
X223054786Y-81522295D01*
X223039620Y-81512161D01*
X223039619Y-81512160D01*
X223029301Y-81505266D01*
X223017131Y-81502845D01*
X223017128Y-81502844D01*
X222961135Y-81491707D01*
X222955067Y-81490500D01*
X222948880Y-81490500D01*
X221211122Y-81490500D01*
X221211111Y-81490500D01*
X221204934Y-81490501D01*
X221198868Y-81491707D01*
X221198862Y-81491708D01*
X221142874Y-81502844D01*
X221142871Y-81502844D01*
X221130699Y-81505266D01*
X221120379Y-81512161D01*
X221120378Y-81512162D01*
X221056832Y-81554622D01*
X221056829Y-81554624D01*
X221046516Y-81561516D01*
X221039624Y-81571829D01*
X221039622Y-81571832D01*
X220997161Y-81635379D01*
X220997159Y-81635381D01*
X220990266Y-81645699D01*
X220987845Y-81657867D01*
X220987844Y-81657871D01*
X220976707Y-81713864D01*
X220975500Y-81719933D01*
X220975500Y-81726118D01*
X220975500Y-81726119D01*
X220975500Y-83463877D01*
X220975500Y-83463887D01*
X205976871Y-83463887D01*
X208431354Y-81009405D01*
X208472232Y-80982091D01*
X208520450Y-80972500D01*
X225311550Y-80972500D01*
X225359768Y-80982091D01*
X225400645Y-81009405D01*
X225949595Y-81558355D01*
X225976909Y-81599232D01*
X225986500Y-81647450D01*
X225986500Y-95773549D01*
X225976909Y-95821767D01*
X225949595Y-95862645D01*
X225702232Y-96110007D01*
X225648550Y-96141832D01*
X225586181Y-96143994D01*
X225530424Y-96115962D01*
X225494958Y-96064612D01*
X225488483Y-96002542D01*
X225512587Y-95944979D01*
X225559149Y-95883321D01*
X225565257Y-95873456D01*
X225651265Y-95700729D01*
X225655453Y-95689918D01*
X225691548Y-95563061D01*
X225692077Y-95551620D01*
X225680933Y-95549000D01*
X224890590Y-95549000D01*
X224877506Y-95552506D01*
X224874000Y-95565590D01*
X224874000Y-96356763D01*
X224876440Y-96367704D01*
X224887641Y-96368092D01*
X224917692Y-96362475D01*
X224928853Y-96359299D01*
X225108771Y-96289598D01*
X225119153Y-96284429D01*
X225268847Y-96191743D01*
X225326452Y-96173173D01*
X225386071Y-96183607D01*
X225433947Y-96220637D01*
X225459032Y-96275719D01*
X225455538Y-96336143D01*
X225424272Y-96387967D01*
X225068513Y-96743725D01*
X225028530Y-96770664D01*
X224981356Y-96780614D01*
X224933900Y-96772119D01*
X224931771Y-96771294D01*
X224928986Y-96770215D01*
X224928980Y-96770213D01*
X224923556Y-96768112D01*
X224917839Y-96767043D01*
X224917831Y-96767041D01*
X224728073Y-96731570D01*
X224728069Y-96731569D01*
X224722347Y-96730500D01*
X224517653Y-96730500D01*
X224511931Y-96731569D01*
X224511926Y-96731570D01*
X224322168Y-96767041D01*
X224322157Y-96767043D01*
X224316444Y-96768112D01*
X224311021Y-96770212D01*
X224311010Y-96770216D01*
X224131011Y-96839949D01*
X224131008Y-96839950D01*
X224125573Y-96842056D01*
X224120617Y-96845124D01*
X224120612Y-96845127D01*
X223956491Y-96946746D01*
X223956481Y-96946752D01*
X223951538Y-96949814D01*
X223947239Y-96953732D01*
X223947235Y-96953736D01*
X223804573Y-97083789D01*
X223804565Y-97083797D01*
X223800268Y-97087715D01*
X223796763Y-97092355D01*
X223796755Y-97092365D01*
X223680422Y-97246416D01*
X223680418Y-97246421D01*
X223676912Y-97251065D01*
X223674319Y-97256273D01*
X223674314Y-97256281D01*
X223588271Y-97429079D01*
X223585672Y-97434299D01*
X223584078Y-97439899D01*
X223584076Y-97439906D01*
X223533482Y-97617729D01*
X223529655Y-97631179D01*
X223529118Y-97636972D01*
X223529116Y-97636984D01*
X223512386Y-97817537D01*
X223510768Y-97835000D01*
X223511306Y-97840806D01*
X223529116Y-98033015D01*
X223529117Y-98033025D01*
X223529655Y-98038821D01*
X223531249Y-98044426D01*
X223531250Y-98044427D01*
X223583623Y-98228502D01*
X223585672Y-98235701D01*
X223613174Y-98290933D01*
X223646646Y-98358154D01*
X223676912Y-98418935D01*
X223680421Y-98423582D01*
X223680422Y-98423583D01*
X223796755Y-98577634D01*
X223796759Y-98577638D01*
X223800268Y-98582285D01*
X223804570Y-98586207D01*
X223804573Y-98586210D01*
X223841713Y-98620067D01*
X223951538Y-98720186D01*
X223956489Y-98723251D01*
X223956491Y-98723253D01*
X223982889Y-98739598D01*
X224125573Y-98827944D01*
X224279512Y-98887580D01*
X224298049Y-98894762D01*
X224316444Y-98901888D01*
X224517653Y-98939500D01*
X224716519Y-98939500D01*
X224722347Y-98939500D01*
X224923556Y-98901888D01*
X225114427Y-98827944D01*
X225288462Y-98720186D01*
X225439732Y-98582285D01*
X225563088Y-98418935D01*
X225654328Y-98235701D01*
X225710345Y-98038821D01*
X225721477Y-97918693D01*
X225728694Y-97840806D01*
X225729232Y-97835000D01*
X225710345Y-97631179D01*
X225676612Y-97512624D01*
X225675849Y-97446472D01*
X225708706Y-97389052D01*
X226739327Y-96358431D01*
X226749842Y-96349033D01*
X226777936Y-96326631D01*
X226810431Y-96278967D01*
X226813146Y-96275142D01*
X226814758Y-96272958D01*
X226847369Y-96228773D01*
X226850231Y-96220592D01*
X226855116Y-96213428D01*
X226872113Y-96158318D01*
X226873572Y-96153885D01*
X226892621Y-96099451D01*
X226892945Y-96090787D01*
X226895500Y-96082505D01*
X226895500Y-96024868D01*
X226895588Y-96020157D01*
X226896247Y-96002542D01*
X226897744Y-95962537D01*
X226895929Y-95955765D01*
X226895500Y-95948113D01*
X226895500Y-81439609D01*
X226896292Y-81425502D01*
X226898988Y-81401570D01*
X226900313Y-81389814D01*
X226889588Y-81333136D01*
X226888805Y-81328525D01*
X226881622Y-81280863D01*
X226881621Y-81280862D01*
X226880214Y-81271521D01*
X226876452Y-81263710D01*
X226874841Y-81255193D01*
X226847869Y-81204161D01*
X226845804Y-81200068D01*
X226820767Y-81148079D01*
X226814870Y-81141724D01*
X226810820Y-81134060D01*
X226770076Y-81093316D01*
X226766806Y-81089923D01*
X226733993Y-81054559D01*
X226727577Y-81047644D01*
X226721509Y-81044140D01*
X226715789Y-81039029D01*
X225896430Y-80219669D01*
X225887015Y-80209133D01*
X225870520Y-80188449D01*
X225870521Y-80188449D01*
X225864631Y-80181064D01*
X225816979Y-80148575D01*
X225813142Y-80145852D01*
X225812731Y-80145549D01*
X225766773Y-80111631D01*
X225758592Y-80108768D01*
X225751428Y-80103884D01*
X225742407Y-80101101D01*
X225742402Y-80101099D01*
X225696341Y-80086892D01*
X225691865Y-80085419D01*
X225646358Y-80069495D01*
X225646353Y-80069494D01*
X225637451Y-80066379D01*
X225628787Y-80066054D01*
X225620505Y-80063500D01*
X225611065Y-80063500D01*
X225562868Y-80063500D01*
X225558157Y-80063412D01*
X225509972Y-80061609D01*
X225500537Y-80061256D01*
X225493765Y-80063070D01*
X225486113Y-80063500D01*
X208312609Y-80063500D01*
X208298502Y-80062708D01*
X208272195Y-80059743D01*
X208272188Y-80059743D01*
X208262814Y-80058687D01*
X208253545Y-80060440D01*
X208253537Y-80060441D01*
X208206163Y-80069405D01*
X208201521Y-80070193D01*
X208153858Y-80077377D01*
X208153847Y-80077380D01*
X208144521Y-80078786D01*
X208136710Y-80082547D01*
X208128193Y-80084159D01*
X208119848Y-80088569D01*
X208119846Y-80088570D01*
X208077222Y-80111097D01*
X208073021Y-80113218D01*
X208029581Y-80134138D01*
X208029578Y-80134139D01*
X208021079Y-80138233D01*
X208014725Y-80144128D01*
X208007061Y-80148179D01*
X208000394Y-80154845D01*
X208000387Y-80154851D01*
X207966301Y-80188937D01*
X207962912Y-80192201D01*
X207927562Y-80225002D01*
X207927556Y-80225009D01*
X207920644Y-80231423D01*
X207917141Y-80237488D01*
X207912027Y-80243211D01*
X204918514Y-83236723D01*
X204878533Y-83263661D01*
X204831362Y-83273613D01*
X204783907Y-83265121D01*
X204778990Y-83263216D01*
X204778979Y-83263212D01*
X204773556Y-83261112D01*
X204767837Y-83260043D01*
X204767834Y-83260042D01*
X204578073Y-83224570D01*
X204578069Y-83224569D01*
X204572347Y-83223500D01*
X204367653Y-83223500D01*
X204361931Y-83224569D01*
X204361926Y-83224570D01*
X204172168Y-83260041D01*
X204172157Y-83260043D01*
X204166444Y-83261112D01*
X204161021Y-83263212D01*
X204161010Y-83263216D01*
X203981011Y-83332949D01*
X203981008Y-83332950D01*
X203975573Y-83335056D01*
X203970617Y-83338124D01*
X203970612Y-83338127D01*
X203806491Y-83439746D01*
X203806481Y-83439752D01*
X203801538Y-83442814D01*
X203797239Y-83446732D01*
X203797235Y-83446736D01*
X203654573Y-83576789D01*
X203654565Y-83576797D01*
X203650268Y-83580715D01*
X203646763Y-83585355D01*
X203646755Y-83585365D01*
X203530422Y-83739416D01*
X203530418Y-83739421D01*
X203526912Y-83744065D01*
X203524319Y-83749273D01*
X203524314Y-83749281D01*
X203438271Y-83922079D01*
X203435672Y-83927299D01*
X203434078Y-83932899D01*
X203434076Y-83932906D01*
X203394871Y-84070700D01*
X203379655Y-84124179D01*
X203379118Y-84129972D01*
X203379116Y-84129984D01*
X203367612Y-84254140D01*
X203360768Y-84328000D01*
X203039232Y-84328000D01*
X203020345Y-84124179D01*
X202964328Y-83927299D01*
X202873088Y-83744065D01*
X202791011Y-83635377D01*
X202753244Y-83585365D01*
X202753241Y-83585361D01*
X202749732Y-83580715D01*
X202745429Y-83576792D01*
X202745426Y-83576789D01*
X202621567Y-83463877D01*
X202598462Y-83442814D01*
X202593512Y-83439749D01*
X202593508Y-83439746D01*
X202429387Y-83338127D01*
X202429386Y-83338126D01*
X202424427Y-83335056D01*
X202400898Y-83325941D01*
X202238989Y-83263216D01*
X202238981Y-83263213D01*
X202233556Y-83261112D01*
X202227839Y-83260043D01*
X202227831Y-83260041D01*
X202038073Y-83224570D01*
X202038069Y-83224569D01*
X202032347Y-83223500D01*
X201827653Y-83223500D01*
X201821931Y-83224569D01*
X201821926Y-83224570D01*
X201632165Y-83260042D01*
X201632159Y-83260043D01*
X201626444Y-83261112D01*
X201621026Y-83263210D01*
X201621008Y-83263216D01*
X201616093Y-83265121D01*
X201568637Y-83273614D01*
X201521465Y-83263663D01*
X201481484Y-83236724D01*
X200171041Y-81926281D01*
X198845435Y-80600674D01*
X198836019Y-80590138D01*
X198822513Y-80573202D01*
X198813631Y-80562064D01*
X198765979Y-80529575D01*
X198762142Y-80526852D01*
X198761731Y-80526549D01*
X198715773Y-80492631D01*
X198707592Y-80489768D01*
X198700428Y-80484884D01*
X198691407Y-80482101D01*
X198691402Y-80482099D01*
X198645341Y-80467892D01*
X198640865Y-80466419D01*
X198595358Y-80450495D01*
X198595353Y-80450494D01*
X198586451Y-80447379D01*
X198577787Y-80447054D01*
X198569505Y-80444500D01*
X198560065Y-80444500D01*
X198511868Y-80444500D01*
X198507157Y-80444412D01*
X198458972Y-80442609D01*
X198449537Y-80442256D01*
X198442765Y-80444070D01*
X198435113Y-80444500D01*
X182098609Y-80444500D01*
X182084502Y-80443708D01*
X182058195Y-80440743D01*
X182058188Y-80440743D01*
X182048814Y-80439687D01*
X182039545Y-80441440D01*
X182039537Y-80441441D01*
X181992163Y-80450405D01*
X181987521Y-80451193D01*
X181939858Y-80458377D01*
X181939847Y-80458380D01*
X181930521Y-80459786D01*
X181922710Y-80463547D01*
X181914193Y-80465159D01*
X181905852Y-80469567D01*
X181905844Y-80469570D01*
X181863213Y-80492100D01*
X181859015Y-80494220D01*
X181815782Y-80515041D01*
X181807079Y-80519233D01*
X181800724Y-80525129D01*
X181793060Y-80529180D01*
X181786393Y-80535846D01*
X181786386Y-80535852D01*
X181752300Y-80569938D01*
X181748911Y-80573202D01*
X181713562Y-80606002D01*
X181713556Y-80606009D01*
X181706644Y-80612423D01*
X181703141Y-80618488D01*
X181698027Y-80624211D01*
X180908514Y-81413724D01*
X180868532Y-81440663D01*
X180821360Y-81450614D01*
X180773905Y-81442121D01*
X180763556Y-81438112D01*
X180757839Y-81437043D01*
X180757831Y-81437041D01*
X180568073Y-81401570D01*
X180568069Y-81401569D01*
X180562347Y-81400500D01*
X180357653Y-81400500D01*
X180351931Y-81401569D01*
X180351926Y-81401570D01*
X180162168Y-81437041D01*
X180162157Y-81437043D01*
X180156444Y-81438112D01*
X180151021Y-81440212D01*
X180151010Y-81440216D01*
X179971011Y-81509949D01*
X179971008Y-81509950D01*
X179965573Y-81512056D01*
X179960617Y-81515124D01*
X179960612Y-81515127D01*
X179796491Y-81616746D01*
X179796481Y-81616752D01*
X179791538Y-81619814D01*
X179787239Y-81623732D01*
X179787235Y-81623736D01*
X179644573Y-81753789D01*
X179644565Y-81753797D01*
X179640268Y-81757715D01*
X179636763Y-81762355D01*
X179636755Y-81762365D01*
X179520422Y-81916416D01*
X179520418Y-81916421D01*
X179516912Y-81921065D01*
X179514317Y-81926274D01*
X179514314Y-81926281D01*
X179469369Y-82016543D01*
X179425672Y-82104299D01*
X179424078Y-82109899D01*
X179424076Y-82109906D01*
X179371250Y-82295572D01*
X179369655Y-82301179D01*
X179369118Y-82306972D01*
X179369116Y-82306984D01*
X179351306Y-82499194D01*
X179350768Y-82505000D01*
X177740500Y-82505000D01*
X177740500Y-77617911D01*
X179476383Y-77617911D01*
X179483481Y-77629589D01*
X179488159Y-77634020D01*
X179493363Y-77638441D01*
X179786089Y-77860966D01*
X179791745Y-77864801D01*
X180106821Y-78054376D01*
X180112830Y-78057562D01*
X180446565Y-78211964D01*
X180452907Y-78214490D01*
X180801363Y-78331899D01*
X180807935Y-78333724D01*
X181167052Y-78412771D01*
X181173776Y-78413873D01*
X181539331Y-78453630D01*
X181546145Y-78454000D01*
X181913855Y-78454000D01*
X181920668Y-78453630D01*
X182286223Y-78413873D01*
X182292947Y-78412771D01*
X182652064Y-78333724D01*
X182658636Y-78331899D01*
X183007092Y-78214490D01*
X183013434Y-78211964D01*
X183347169Y-78057562D01*
X183353178Y-78054376D01*
X183668254Y-77864801D01*
X183673910Y-77860966D01*
X183966643Y-77638435D01*
X183971829Y-77634031D01*
X183976521Y-77629586D01*
X183983616Y-77617913D01*
X183983615Y-77617911D01*
X221096383Y-77617911D01*
X221103481Y-77629589D01*
X221108159Y-77634020D01*
X221113363Y-77638441D01*
X221406089Y-77860966D01*
X221411745Y-77864801D01*
X221726821Y-78054376D01*
X221732830Y-78057562D01*
X222066565Y-78211964D01*
X222072907Y-78214490D01*
X222421363Y-78331899D01*
X222427935Y-78333724D01*
X222787052Y-78412771D01*
X222793776Y-78413873D01*
X223159331Y-78453630D01*
X223166145Y-78454000D01*
X223533855Y-78454000D01*
X223540668Y-78453630D01*
X223906223Y-78413873D01*
X223912947Y-78412771D01*
X224272064Y-78333724D01*
X224278636Y-78331899D01*
X224627092Y-78214490D01*
X224633434Y-78211964D01*
X224967169Y-78057562D01*
X224973178Y-78054376D01*
X225288254Y-77864801D01*
X225293910Y-77860966D01*
X225586643Y-77638435D01*
X225591829Y-77634031D01*
X225596521Y-77629586D01*
X225603616Y-77617913D01*
X225596835Y-77606045D01*
X223361729Y-75370939D01*
X223350000Y-75364167D01*
X223338270Y-75370939D01*
X221103162Y-77606046D01*
X221096383Y-77617911D01*
X183983615Y-77617911D01*
X183976835Y-77606045D01*
X181741729Y-75370939D01*
X181730000Y-75364167D01*
X181718270Y-75370939D01*
X179483162Y-77606046D01*
X179476383Y-77617911D01*
X177740500Y-77617911D01*
X177740500Y-75003412D01*
X178271112Y-75003412D01*
X178291018Y-75370572D01*
X178291757Y-75377369D01*
X178351245Y-75740224D01*
X178352712Y-75746892D01*
X178451086Y-76101200D01*
X178453261Y-76107656D01*
X178589368Y-76449260D01*
X178592224Y-76455435D01*
X178764471Y-76780327D01*
X178767979Y-76786157D01*
X178974340Y-77090516D01*
X178978469Y-77095947D01*
X179103287Y-77242895D01*
X179114814Y-77250634D01*
X179126935Y-77243853D01*
X181359060Y-75011729D01*
X181365832Y-75000000D01*
X182094167Y-75000000D01*
X182100939Y-75011729D01*
X184333063Y-77243853D01*
X184345184Y-77250634D01*
X184356711Y-77242894D01*
X184481531Y-77095947D01*
X184485659Y-77090516D01*
X184692020Y-76786157D01*
X184695528Y-76780327D01*
X184867775Y-76455435D01*
X184870631Y-76449260D01*
X185006738Y-76107656D01*
X185008913Y-76101200D01*
X185107287Y-75746892D01*
X185108754Y-75740224D01*
X185168242Y-75377369D01*
X185168981Y-75370572D01*
X185188888Y-75003412D01*
X219891112Y-75003412D01*
X219911018Y-75370572D01*
X219911757Y-75377369D01*
X219971245Y-75740224D01*
X219972712Y-75746892D01*
X220071086Y-76101200D01*
X220073261Y-76107656D01*
X220209368Y-76449260D01*
X220212224Y-76455435D01*
X220384471Y-76780327D01*
X220387979Y-76786157D01*
X220594340Y-77090516D01*
X220598469Y-77095947D01*
X220723287Y-77242895D01*
X220734814Y-77250634D01*
X220746935Y-77243853D01*
X222979060Y-75011729D01*
X222985832Y-75000000D01*
X223714167Y-75000000D01*
X223720939Y-75011729D01*
X225953063Y-77243853D01*
X225965184Y-77250634D01*
X225976711Y-77242894D01*
X226101531Y-77095947D01*
X226105659Y-77090516D01*
X226312020Y-76786157D01*
X226315528Y-76780327D01*
X226487775Y-76455435D01*
X226490631Y-76449260D01*
X226626738Y-76107656D01*
X226628913Y-76101200D01*
X226727287Y-75746892D01*
X226728754Y-75740224D01*
X226788242Y-75377369D01*
X226788981Y-75370572D01*
X226808888Y-75003412D01*
X226808888Y-74996588D01*
X226788981Y-74629427D01*
X226788242Y-74622630D01*
X226728754Y-74259775D01*
X226727287Y-74253107D01*
X226628913Y-73898799D01*
X226626738Y-73892343D01*
X226490631Y-73550739D01*
X226487775Y-73544564D01*
X226315528Y-73219672D01*
X226312020Y-73213842D01*
X226105659Y-72909483D01*
X226101531Y-72904052D01*
X225976711Y-72757103D01*
X225965184Y-72749364D01*
X225953063Y-72756145D01*
X223720939Y-74988270D01*
X223714167Y-75000000D01*
X222985832Y-75000000D01*
X222979060Y-74988270D01*
X220746934Y-72756144D01*
X220734814Y-72749363D01*
X220723288Y-72757103D01*
X220598469Y-72904051D01*
X220594338Y-72909485D01*
X220387979Y-73213842D01*
X220384471Y-73219672D01*
X220212224Y-73544564D01*
X220209368Y-73550739D01*
X220073261Y-73892343D01*
X220071086Y-73898799D01*
X219972712Y-74253107D01*
X219971245Y-74259775D01*
X219911757Y-74622630D01*
X219911018Y-74629427D01*
X219891112Y-74996588D01*
X219891112Y-75003412D01*
X185188888Y-75003412D01*
X185188888Y-74996588D01*
X185168981Y-74629427D01*
X185168242Y-74622630D01*
X185108754Y-74259775D01*
X185107287Y-74253107D01*
X185008913Y-73898799D01*
X185006738Y-73892343D01*
X184870631Y-73550739D01*
X184867775Y-73544564D01*
X184695528Y-73219672D01*
X184692020Y-73213842D01*
X184485659Y-72909483D01*
X184481531Y-72904052D01*
X184356711Y-72757103D01*
X184345184Y-72749364D01*
X184333063Y-72756145D01*
X182100939Y-74988270D01*
X182094167Y-75000000D01*
X181365832Y-75000000D01*
X181359060Y-74988270D01*
X179126934Y-72756144D01*
X179114814Y-72749363D01*
X179103288Y-72757103D01*
X178978469Y-72904051D01*
X178974338Y-72909485D01*
X178767979Y-73213842D01*
X178764471Y-73219672D01*
X178592224Y-73544564D01*
X178589368Y-73550739D01*
X178453261Y-73892343D01*
X178451086Y-73898799D01*
X178352712Y-74253107D01*
X178351245Y-74259775D01*
X178291757Y-74622630D01*
X178291018Y-74629427D01*
X178271112Y-74996588D01*
X178271112Y-75003412D01*
X177740500Y-75003412D01*
X177740500Y-72382086D01*
X179476382Y-72382086D01*
X179483161Y-72393951D01*
X181718270Y-74629060D01*
X181730000Y-74635832D01*
X181741729Y-74629060D01*
X183976836Y-72393952D01*
X183983615Y-72382087D01*
X183983614Y-72382086D01*
X221096382Y-72382086D01*
X221103161Y-72393951D01*
X223338270Y-74629060D01*
X223350000Y-74635832D01*
X223361729Y-74629060D01*
X225596836Y-72393952D01*
X225603615Y-72382087D01*
X225596517Y-72370409D01*
X225591840Y-72365979D01*
X225586636Y-72361558D01*
X225293910Y-72139033D01*
X225288254Y-72135198D01*
X224973178Y-71945623D01*
X224967169Y-71942437D01*
X224633434Y-71788035D01*
X224627092Y-71785509D01*
X224278636Y-71668100D01*
X224272064Y-71666275D01*
X223912947Y-71587228D01*
X223906223Y-71586126D01*
X223540668Y-71546369D01*
X223533855Y-71546000D01*
X223166145Y-71546000D01*
X223159331Y-71546369D01*
X222793776Y-71586126D01*
X222787052Y-71587228D01*
X222427935Y-71666275D01*
X222421363Y-71668100D01*
X222072907Y-71785509D01*
X222066565Y-71788035D01*
X221732830Y-71942437D01*
X221726821Y-71945623D01*
X221411745Y-72135198D01*
X221406089Y-72139033D01*
X221113360Y-72361560D01*
X221108167Y-72365971D01*
X221103478Y-72370412D01*
X221096382Y-72382086D01*
X183983614Y-72382086D01*
X183976517Y-72370409D01*
X183971840Y-72365979D01*
X183966636Y-72361558D01*
X183673910Y-72139033D01*
X183668254Y-72135198D01*
X183353178Y-71945623D01*
X183347169Y-71942437D01*
X183013434Y-71788035D01*
X183007092Y-71785509D01*
X182658636Y-71668100D01*
X182652064Y-71666275D01*
X182292947Y-71587228D01*
X182286223Y-71586126D01*
X181920668Y-71546369D01*
X181913855Y-71546000D01*
X181546145Y-71546000D01*
X181539331Y-71546369D01*
X181173776Y-71586126D01*
X181167052Y-71587228D01*
X180807935Y-71666275D01*
X180801363Y-71668100D01*
X180452907Y-71785509D01*
X180446565Y-71788035D01*
X180112830Y-71942437D01*
X180106821Y-71945623D01*
X179791745Y-72135198D01*
X179786089Y-72139033D01*
X179493360Y-72361560D01*
X179488167Y-72365971D01*
X179483478Y-72370412D01*
X179476382Y-72382086D01*
X177740500Y-72382086D01*
X177740500Y-71386500D01*
X177757381Y-71323500D01*
X177803500Y-71277381D01*
X177866500Y-71260500D01*
X227213500Y-71260500D01*
X227276500Y-71277381D01*
G37*
G04 #@! TD.AperFunction*
G04 #@! TD*
M02*
