G04 #@! TF.GenerationSoftware,KiCad,Pcbnew,7.0.0-da2b9df05c~163~ubuntu22.04.1*
G04 #@! TF.CreationDate,2023-03-12T18:54:24+00:00*
G04 #@! TF.ProjectId,userioswitchhdr,75736572-696f-4737-9769-746368686472,rev?*
G04 #@! TF.SameCoordinates,Original*
G04 #@! TF.FileFunction,Copper,L2,Bot*
G04 #@! TF.FilePolarity,Positive*
%FSLAX46Y46*%
G04 Gerber Fmt 4.6, Leading zero omitted, Abs format (unit mm)*
G04 Created by KiCad (PCBNEW 7.0.0-da2b9df05c~163~ubuntu22.04.1) date 2023-03-12 18:54:24*
%MOMM*%
%LPD*%
G01*
G04 APERTURE LIST*
G04 #@! TA.AperFunction,ComponentPad*
%ADD10R,1.700000X1.700000*%
G04 #@! TD*
G04 #@! TA.AperFunction,ComponentPad*
%ADD11O,1.700000X1.700000*%
G04 #@! TD*
G04 #@! TA.AperFunction,ComponentPad*
%ADD12C,3.600000*%
G04 #@! TD*
G04 #@! TA.AperFunction,ConnectorPad*
%ADD13C,6.400000*%
G04 #@! TD*
G04 #@! TA.AperFunction,ViaPad*
%ADD14C,0.800000*%
G04 #@! TD*
G04 #@! TA.AperFunction,Conductor*
%ADD15C,0.250000*%
G04 #@! TD*
G04 #@! TA.AperFunction,Conductor*
%ADD16C,1.000000*%
G04 #@! TD*
G04 #@! TA.AperFunction,Conductor*
%ADD17C,0.600000*%
G04 #@! TD*
G04 APERTURE END LIST*
D10*
G04 #@! TO.P,J1,1,Pin_1*
G04 #@! TO.N,/D3*
X194919999Y-106552999D03*
D11*
G04 #@! TO.P,J1,2,Pin_2*
G04 #@! TO.N,GND*
X194919999Y-104012999D03*
G04 #@! TO.P,J1,3,Pin_3*
G04 #@! TO.N,/D4*
X197459999Y-106552999D03*
G04 #@! TO.P,J1,4,Pin_4*
G04 #@! TO.N,GND*
X197459999Y-104012999D03*
G04 #@! TO.P,J1,5,Pin_5*
G04 #@! TO.N,/D2*
X199999999Y-106552999D03*
G04 #@! TO.P,J1,6,Pin_6*
G04 #@! TO.N,GND*
X199999999Y-104012999D03*
G04 #@! TO.P,J1,7,Pin_7*
G04 #@! TO.N,/D5*
X202539999Y-106552999D03*
G04 #@! TO.P,J1,8,Pin_8*
G04 #@! TO.N,GND*
X202539999Y-104012999D03*
G04 #@! TO.P,J1,9,Pin_9*
G04 #@! TO.N,/D1*
X205079999Y-106552999D03*
G04 #@! TO.P,J1,10,Pin_10*
G04 #@! TO.N,GND*
X205079999Y-104012999D03*
G04 #@! TO.P,J1,11,Pin_11*
G04 #@! TO.N,/D6*
X207619999Y-106552999D03*
G04 #@! TO.P,J1,12,Pin_12*
G04 #@! TO.N,GND*
X207619999Y-104012999D03*
G04 #@! TO.P,J1,13,Pin_13*
G04 #@! TO.N,/D7*
X210159999Y-106552999D03*
G04 #@! TO.P,J1,14,Pin_14*
G04 #@! TO.N,VBUS*
X210159999Y-104012999D03*
G04 #@! TD*
D10*
G04 #@! TO.P,J2,1,Pin_1*
G04 #@! TO.N,GND*
X199389999Y-86867999D03*
D11*
G04 #@! TO.P,J2,2,Pin_2*
G04 #@! TO.N,/SEL*
X199389999Y-84327999D03*
G04 #@! TO.P,J2,3,Pin_3*
G04 #@! TO.N,VBUS*
X201929999Y-86867999D03*
G04 #@! TO.P,J2,4,Pin_4*
G04 #@! TO.N,/VBUSA*
X201929999Y-84327999D03*
G04 #@! TO.P,J2,5,Pin_5*
G04 #@! TO.N,VBUS*
X204469999Y-86867999D03*
G04 #@! TO.P,J2,6,Pin_6*
G04 #@! TO.N,/VBUSB*
X204469999Y-84327999D03*
G04 #@! TD*
D12*
G04 #@! TO.P,H1,1,1*
G04 #@! TO.N,GND*
X181730000Y-75000000D03*
D13*
X181730000Y-75000000D03*
G04 #@! TD*
D10*
G04 #@! TO.P,J3,1,Pin_1*
G04 #@! TO.N,/S3A*
X182999999Y-97744999D03*
D11*
G04 #@! TO.P,J3,2,Pin_2*
G04 #@! TO.N,GND*
X180459999Y-97744999D03*
G04 #@! TO.P,J3,3,Pin_3*
G04 #@! TO.N,/S4A*
X182999999Y-95204999D03*
G04 #@! TO.P,J3,4,Pin_4*
G04 #@! TO.N,GND*
X180459999Y-95204999D03*
G04 #@! TO.P,J3,5,Pin_5*
G04 #@! TO.N,/S2A*
X182999999Y-92664999D03*
G04 #@! TO.P,J3,6,Pin_6*
G04 #@! TO.N,GND*
X180459999Y-92664999D03*
G04 #@! TO.P,J3,7,Pin_7*
G04 #@! TO.N,/S5A*
X182999999Y-90124999D03*
G04 #@! TO.P,J3,8,Pin_8*
G04 #@! TO.N,GND*
X180459999Y-90124999D03*
G04 #@! TO.P,J3,9,Pin_9*
G04 #@! TO.N,/S1A*
X182999999Y-87584999D03*
G04 #@! TO.P,J3,10,Pin_10*
G04 #@! TO.N,GND*
X180459999Y-87584999D03*
G04 #@! TO.P,J3,11,Pin_11*
G04 #@! TO.N,/S6A*
X182999999Y-85044999D03*
G04 #@! TO.P,J3,12,Pin_12*
G04 #@! TO.N,GND*
X180459999Y-85044999D03*
G04 #@! TO.P,J3,13,Pin_13*
G04 #@! TO.N,/S7A*
X182999999Y-82504999D03*
G04 #@! TO.P,J3,14,Pin_14*
G04 #@! TO.N,/VBUSA*
X180459999Y-82504999D03*
G04 #@! TD*
D12*
G04 #@! TO.P,H4,1,1*
G04 #@! TO.N,GND*
X223350000Y-75000000D03*
D13*
X223350000Y-75000000D03*
G04 #@! TD*
D11*
G04 #@! TO.P,J4,14,Pin_14*
G04 #@! TO.N,/VBUSB*
X224619999Y-97834999D03*
G04 #@! TO.P,J4,13,Pin_13*
G04 #@! TO.N,/S7B*
X222079999Y-97834999D03*
G04 #@! TO.P,J4,12,Pin_12*
G04 #@! TO.N,GND*
X224619999Y-95294999D03*
G04 #@! TO.P,J4,11,Pin_11*
G04 #@! TO.N,/S6B*
X222079999Y-95294999D03*
G04 #@! TO.P,J4,10,Pin_10*
G04 #@! TO.N,GND*
X224619999Y-92754999D03*
G04 #@! TO.P,J4,9,Pin_9*
G04 #@! TO.N,/S1B*
X222079999Y-92754999D03*
G04 #@! TO.P,J4,8,Pin_8*
G04 #@! TO.N,GND*
X224619999Y-90214999D03*
G04 #@! TO.P,J4,7,Pin_7*
G04 #@! TO.N,/S5B*
X222079999Y-90214999D03*
G04 #@! TO.P,J4,6,Pin_6*
G04 #@! TO.N,GND*
X224619999Y-87674999D03*
G04 #@! TO.P,J4,5,Pin_5*
G04 #@! TO.N,/S2B*
X222079999Y-87674999D03*
G04 #@! TO.P,J4,4,Pin_4*
G04 #@! TO.N,GND*
X224619999Y-85134999D03*
G04 #@! TO.P,J4,3,Pin_3*
G04 #@! TO.N,/S4B*
X222079999Y-85134999D03*
G04 #@! TO.P,J4,2,Pin_2*
G04 #@! TO.N,GND*
X224619999Y-82594999D03*
D10*
G04 #@! TO.P,J4,1,Pin_1*
G04 #@! TO.N,/S3B*
X222079999Y-82594999D03*
G04 #@! TD*
D12*
G04 #@! TO.P,H2,1,1*
G04 #@! TO.N,GND*
X181730000Y-105250000D03*
D13*
X181730000Y-105250000D03*
G04 #@! TD*
D12*
G04 #@! TO.P,H3,1,1*
G04 #@! TO.N,GND*
X223350000Y-105250000D03*
D13*
X223350000Y-105250000D03*
G04 #@! TD*
D14*
G04 #@! TO.N,GND*
X191897000Y-86995000D03*
X209423000Y-92202000D03*
G04 #@! TO.N,VBUS*
X198247000Y-90424000D03*
X199517000Y-91948000D03*
G04 #@! TO.N,GND*
X205232000Y-88900000D03*
X188341000Y-93853000D03*
X199644000Y-94615000D03*
X204978000Y-100076000D03*
X210566000Y-94234000D03*
X210566000Y-90207500D03*
X195072000Y-91948000D03*
X187579000Y-95631000D03*
X196469000Y-90504500D03*
X213868000Y-94615000D03*
X196596000Y-94615000D03*
X190754000Y-95631000D03*
G04 #@! TO.N,/SEL*
X191008000Y-93853000D03*
X194504261Y-88434501D03*
G04 #@! TO.N,/S5B*
X208153000Y-97282000D03*
G04 #@! TO.N,/S7A*
X210837799Y-98278299D03*
G04 #@! TO.N,/S1B*
X208029083Y-95216500D03*
X215646000Y-92710000D03*
G04 #@! TO.N,/S2B*
X200025000Y-97917000D03*
G04 #@! TO.N,/S3B*
X194056000Y-97155000D03*
G04 #@! TO.N,/S4B*
X193929000Y-95123000D03*
X211455000Y-85135000D03*
G04 #@! TD*
D15*
G04 #@! TO.N,/S5B*
X215013000Y-97282000D02*
X222080000Y-90215000D01*
X208153000Y-97282000D02*
X215013000Y-97282000D01*
G04 #@! TO.N,/S2B*
X200025000Y-97917000D02*
X202438000Y-97917000D01*
X202438000Y-97917000D02*
X209423000Y-90932000D01*
X209423000Y-90932000D02*
X218823000Y-90932000D01*
X218823000Y-90932000D02*
X222080000Y-87675000D01*
G04 #@! TO.N,/S7A*
X183000000Y-82505000D02*
X185000000Y-82505000D01*
X185000000Y-82505000D02*
X189611000Y-87116000D01*
X189611000Y-87116000D02*
X189611000Y-98298000D01*
X189992000Y-98679000D02*
X205350402Y-98679000D01*
X189611000Y-98298000D02*
X189992000Y-98679000D01*
X205350402Y-98679000D02*
X205751103Y-98278299D01*
X205751103Y-98278299D02*
X210837799Y-98278299D01*
D16*
G04 #@! TO.N,VBUS*
X204470000Y-86868000D02*
X211074000Y-80264000D01*
X211074000Y-80264000D02*
X226441000Y-80264000D01*
X226441000Y-99060000D02*
X224790000Y-100711000D01*
X226441000Y-80264000D02*
X226441000Y-99060000D01*
X224790000Y-100711000D02*
X213462000Y-100711000D01*
X213462000Y-100711000D02*
X210160000Y-104013000D01*
D15*
G04 #@! TO.N,/S3B*
X194056000Y-97155000D02*
X201386718Y-97155000D01*
X201386718Y-97155000D02*
X215946718Y-82595000D01*
X215946718Y-82595000D02*
X222080000Y-82595000D01*
G04 #@! TO.N,/S1B*
X210535583Y-92710000D02*
X208029083Y-95216500D01*
X215646000Y-92710000D02*
X210535583Y-92710000D01*
G04 #@! TO.N,/SEL*
X199390000Y-84328000D02*
X198628000Y-84328000D01*
X191008000Y-91948000D02*
X191008000Y-93853000D01*
X198628000Y-84328000D02*
X191008000Y-91948000D01*
G04 #@! TO.N,/S4B*
X195892499Y-93159501D02*
X203430499Y-93159501D01*
X203430499Y-93159501D02*
X211455000Y-85135000D01*
X193929000Y-95123000D02*
X195892499Y-93159501D01*
D16*
G04 #@! TO.N,VBUS*
X201930000Y-86868000D02*
X204470000Y-86868000D01*
D17*
X201930000Y-89535000D02*
X199517000Y-91948000D01*
X199517000Y-91694000D02*
X199517000Y-91948000D01*
X201930000Y-86868000D02*
X201930000Y-89535000D01*
X198247000Y-90424000D02*
X199517000Y-91694000D01*
G04 #@! TD*
G04 #@! TA.AperFunction,Conductor*
G04 #@! TO.N,GND*
G36*
X227276500Y-71277381D02*
G01*
X227322619Y-71323500D01*
X227339500Y-71386500D01*
X227339500Y-79832441D01*
X227322619Y-79895441D01*
X227276500Y-79941560D01*
X227213499Y-79958441D01*
X227150499Y-79941560D01*
X227104380Y-79895440D01*
X227101770Y-79890921D01*
X227098864Y-79884182D01*
X227094481Y-79878294D01*
X227094479Y-79878291D01*
X227061501Y-79833993D01*
X227057298Y-79827991D01*
X227026944Y-79781840D01*
X227026941Y-79781837D01*
X227022915Y-79775715D01*
X227017581Y-79770683D01*
X227017577Y-79770678D01*
X227014798Y-79768056D01*
X227000195Y-79751647D01*
X226997919Y-79748590D01*
X226993539Y-79742706D01*
X226986645Y-79736921D01*
X226945612Y-79702489D01*
X226940140Y-79697619D01*
X226899962Y-79659714D01*
X226899956Y-79659710D01*
X226894623Y-79654678D01*
X226884958Y-79649097D01*
X226866972Y-79636503D01*
X226864051Y-79634052D01*
X226858427Y-79629333D01*
X226802499Y-79601245D01*
X226796055Y-79597770D01*
X226748233Y-79570160D01*
X226748231Y-79570159D01*
X226741876Y-79566490D01*
X226734846Y-79564385D01*
X226734841Y-79564383D01*
X226731192Y-79563291D01*
X226710782Y-79555183D01*
X226707365Y-79553467D01*
X226707362Y-79553465D01*
X226700811Y-79550176D01*
X226693677Y-79548485D01*
X226693674Y-79548484D01*
X226639926Y-79535745D01*
X226632849Y-79533849D01*
X226579936Y-79518008D01*
X226579930Y-79518007D01*
X226572909Y-79515905D01*
X226565594Y-79515478D01*
X226565579Y-79515476D01*
X226561760Y-79515254D01*
X226540051Y-79512074D01*
X226536330Y-79511192D01*
X226536325Y-79511191D01*
X226529188Y-79509500D01*
X226521849Y-79509500D01*
X226466616Y-79509500D01*
X226459289Y-79509287D01*
X226404157Y-79506075D01*
X226404150Y-79506075D01*
X226396831Y-79505649D01*
X226389606Y-79506922D01*
X226389604Y-79506923D01*
X226385846Y-79507586D01*
X226363966Y-79509500D01*
X211138140Y-79509500D01*
X211119879Y-79508170D01*
X211103353Y-79505749D01*
X211103349Y-79505748D01*
X211096093Y-79504686D01*
X211088786Y-79505325D01*
X211088782Y-79505325D01*
X211046539Y-79509021D01*
X211035558Y-79509500D01*
X211030059Y-79509500D01*
X210999136Y-79513113D01*
X210995512Y-79513483D01*
X210927707Y-79519415D01*
X210927692Y-79519417D01*
X210920388Y-79520057D01*
X210913420Y-79522365D01*
X210910247Y-79523021D01*
X210909749Y-79523101D01*
X210909257Y-79523241D01*
X210906105Y-79523987D01*
X210898816Y-79524840D01*
X210891920Y-79527349D01*
X210891915Y-79527351D01*
X210827980Y-79550620D01*
X210824524Y-79551822D01*
X210759919Y-79573231D01*
X210759917Y-79573231D01*
X210752964Y-79575536D01*
X210746726Y-79579383D01*
X210743778Y-79580758D01*
X210743311Y-79580951D01*
X210742876Y-79581194D01*
X210739961Y-79582657D01*
X210733076Y-79585164D01*
X210726953Y-79589190D01*
X210726951Y-79589192D01*
X210670086Y-79626592D01*
X210667009Y-79628552D01*
X210602846Y-79668130D01*
X210597661Y-79673314D01*
X210595099Y-79675340D01*
X210594703Y-79675625D01*
X210594333Y-79675965D01*
X210591845Y-79678052D01*
X210585715Y-79682085D01*
X210538599Y-79732023D01*
X210533979Y-79736921D01*
X210531426Y-79739548D01*
X205788839Y-84482135D01*
X205736459Y-84513572D01*
X205675448Y-84516675D01*
X205620148Y-84490715D01*
X205583559Y-84441795D01*
X205574282Y-84381415D01*
X205579232Y-84328000D01*
X205560345Y-84124179D01*
X205504328Y-83927299D01*
X205413088Y-83744065D01*
X205331011Y-83635377D01*
X205293244Y-83585365D01*
X205293241Y-83585361D01*
X205289732Y-83580715D01*
X205285429Y-83576792D01*
X205285426Y-83576789D01*
X205142764Y-83446736D01*
X205142765Y-83446736D01*
X205138462Y-83442814D01*
X205133512Y-83439749D01*
X205133508Y-83439746D01*
X204969387Y-83338127D01*
X204969386Y-83338126D01*
X204964427Y-83335056D01*
X204940898Y-83325941D01*
X204778989Y-83263216D01*
X204778981Y-83263213D01*
X204773556Y-83261112D01*
X204767839Y-83260043D01*
X204767831Y-83260041D01*
X204578073Y-83224570D01*
X204578069Y-83224569D01*
X204572347Y-83223500D01*
X204367653Y-83223500D01*
X204361931Y-83224569D01*
X204361926Y-83224570D01*
X204172168Y-83260041D01*
X204172157Y-83260043D01*
X204166444Y-83261112D01*
X204161021Y-83263212D01*
X204161010Y-83263216D01*
X203981011Y-83332949D01*
X203981008Y-83332950D01*
X203975573Y-83335056D01*
X203970617Y-83338124D01*
X203970612Y-83338127D01*
X203806491Y-83439746D01*
X203806481Y-83439752D01*
X203801538Y-83442814D01*
X203797239Y-83446732D01*
X203797235Y-83446736D01*
X203654573Y-83576789D01*
X203654565Y-83576797D01*
X203650268Y-83580715D01*
X203646763Y-83585355D01*
X203646755Y-83585365D01*
X203530422Y-83739416D01*
X203530418Y-83739421D01*
X203526912Y-83744065D01*
X203524317Y-83749274D01*
X203524314Y-83749281D01*
X203438271Y-83922079D01*
X203435672Y-83927299D01*
X203434079Y-83932898D01*
X203434076Y-83932906D01*
X203381250Y-84118572D01*
X203379655Y-84124179D01*
X203379118Y-84129972D01*
X203379116Y-84129984D01*
X203367612Y-84254140D01*
X203360768Y-84328000D01*
X203361306Y-84333804D01*
X203361306Y-84333806D01*
X203379116Y-84526015D01*
X203379117Y-84526025D01*
X203379655Y-84531821D01*
X203381249Y-84537426D01*
X203381250Y-84537427D01*
X203426879Y-84697799D01*
X203435672Y-84728701D01*
X203526912Y-84911935D01*
X203530421Y-84916582D01*
X203530422Y-84916583D01*
X203646755Y-85070634D01*
X203646759Y-85070638D01*
X203650268Y-85075285D01*
X203654570Y-85079207D01*
X203654573Y-85079210D01*
X203663623Y-85087460D01*
X203801538Y-85213186D01*
X203806489Y-85216251D01*
X203806491Y-85216253D01*
X203859090Y-85248821D01*
X203975573Y-85320944D01*
X204166444Y-85394888D01*
X204367653Y-85432500D01*
X204373481Y-85432500D01*
X204534285Y-85432500D01*
X204591488Y-85446233D01*
X204636221Y-85484439D01*
X204658734Y-85538789D01*
X204654118Y-85597436D01*
X204623380Y-85647595D01*
X204544380Y-85726595D01*
X204503503Y-85753909D01*
X204455285Y-85763500D01*
X204367653Y-85763500D01*
X204361931Y-85764569D01*
X204361926Y-85764570D01*
X204172168Y-85800041D01*
X204172157Y-85800043D01*
X204166444Y-85801112D01*
X204161021Y-85803212D01*
X204161010Y-85803216D01*
X203981011Y-85872949D01*
X203981008Y-85872950D01*
X203975573Y-85875056D01*
X203970617Y-85878124D01*
X203970612Y-85878127D01*
X203806491Y-85979746D01*
X203806481Y-85979752D01*
X203801538Y-85982814D01*
X203797236Y-85986735D01*
X203797229Y-85986741D01*
X203694254Y-86080615D01*
X203654885Y-86104992D01*
X203609369Y-86113500D01*
X202790631Y-86113500D01*
X202745115Y-86104992D01*
X202705746Y-86080615D01*
X202602770Y-85986741D01*
X202602768Y-85986739D01*
X202598462Y-85982814D01*
X202593512Y-85979749D01*
X202593508Y-85979746D01*
X202429387Y-85878127D01*
X202429386Y-85878126D01*
X202424427Y-85875056D01*
X202400898Y-85865941D01*
X202238989Y-85803216D01*
X202238981Y-85803213D01*
X202233556Y-85801112D01*
X202227839Y-85800043D01*
X202227831Y-85800041D01*
X202038073Y-85764570D01*
X202038069Y-85764569D01*
X202032347Y-85763500D01*
X201827653Y-85763500D01*
X201821931Y-85764569D01*
X201821926Y-85764570D01*
X201632168Y-85800041D01*
X201632157Y-85800043D01*
X201626444Y-85801112D01*
X201621021Y-85803212D01*
X201621010Y-85803216D01*
X201441011Y-85872949D01*
X201441008Y-85872950D01*
X201435573Y-85875056D01*
X201430617Y-85878124D01*
X201430612Y-85878127D01*
X201266491Y-85979746D01*
X201266481Y-85979752D01*
X201261538Y-85982814D01*
X201257239Y-85986732D01*
X201257235Y-85986736D01*
X201114573Y-86116789D01*
X201114565Y-86116797D01*
X201110268Y-86120715D01*
X201106763Y-86125355D01*
X201106755Y-86125365D01*
X200990422Y-86279416D01*
X200990418Y-86279421D01*
X200986912Y-86284065D01*
X200984317Y-86289274D01*
X200984314Y-86289281D01*
X200898271Y-86462079D01*
X200895672Y-86467299D01*
X200894078Y-86472899D01*
X200894076Y-86472906D01*
X200854930Y-86610493D01*
X200839655Y-86664179D01*
X200839118Y-86669972D01*
X200839116Y-86669984D01*
X200824261Y-86830301D01*
X200820768Y-86868000D01*
X200821306Y-86873806D01*
X200839116Y-87066015D01*
X200839117Y-87066025D01*
X200839655Y-87071821D01*
X200841249Y-87077426D01*
X200841250Y-87077427D01*
X200871657Y-87184299D01*
X200895672Y-87268701D01*
X200986912Y-87451935D01*
X200990421Y-87456582D01*
X200990422Y-87456583D01*
X201106755Y-87610634D01*
X201106759Y-87610638D01*
X201110268Y-87615285D01*
X201114570Y-87619207D01*
X201114573Y-87619210D01*
X201169403Y-87669194D01*
X201261538Y-87753186D01*
X201315832Y-87786803D01*
X201359576Y-87832617D01*
X201375500Y-87893929D01*
X201375500Y-89253128D01*
X201365909Y-89301346D01*
X201338595Y-89342223D01*
X199733094Y-90947723D01*
X199676610Y-90980335D01*
X199611388Y-90980335D01*
X199554904Y-90947723D01*
X198914676Y-90307495D01*
X198885959Y-90263080D01*
X198833490Y-90124732D01*
X198833489Y-90124731D01*
X198830787Y-90117605D01*
X198740498Y-89986799D01*
X198621529Y-89881401D01*
X198504360Y-89819906D01*
X198487546Y-89811081D01*
X198487544Y-89811080D01*
X198480793Y-89807537D01*
X198473395Y-89805713D01*
X198473391Y-89805712D01*
X198333864Y-89771322D01*
X198333862Y-89771321D01*
X198326471Y-89769500D01*
X198167529Y-89769500D01*
X198160138Y-89771321D01*
X198160135Y-89771322D01*
X198020608Y-89805712D01*
X198020601Y-89805714D01*
X198013207Y-89807537D01*
X198006458Y-89811078D01*
X198006453Y-89811081D01*
X197879223Y-89877857D01*
X197879221Y-89877858D01*
X197872471Y-89881401D01*
X197866769Y-89886452D01*
X197866764Y-89886456D01*
X197759207Y-89981744D01*
X197759203Y-89981747D01*
X197753502Y-89986799D01*
X197749175Y-89993066D01*
X197749171Y-89993072D01*
X197667542Y-90111332D01*
X197667538Y-90111337D01*
X197663213Y-90117605D01*
X197660514Y-90124720D01*
X197660510Y-90124729D01*
X197609552Y-90259094D01*
X197609550Y-90259100D01*
X197606851Y-90266218D01*
X197605932Y-90273779D01*
X197605932Y-90273783D01*
X197589027Y-90413015D01*
X197587693Y-90424000D01*
X197588612Y-90431569D01*
X197605792Y-90573067D01*
X197606851Y-90581782D01*
X197609551Y-90588901D01*
X197609552Y-90588905D01*
X197660510Y-90723270D01*
X197660512Y-90723275D01*
X197663213Y-90730395D01*
X197667541Y-90736665D01*
X197667542Y-90736667D01*
X197706921Y-90793718D01*
X197753502Y-90861201D01*
X197872471Y-90966599D01*
X198013207Y-91040463D01*
X198066791Y-91053670D01*
X198125733Y-91086914D01*
X198828292Y-91789473D01*
X198858304Y-91837465D01*
X198864279Y-91893752D01*
X198863609Y-91899269D01*
X198857693Y-91948000D01*
X198858612Y-91955569D01*
X198875794Y-92097081D01*
X198876851Y-92105782D01*
X198879551Y-92112901D01*
X198879552Y-92112905D01*
X198930510Y-92247270D01*
X198930512Y-92247275D01*
X198933213Y-92254395D01*
X198937541Y-92260665D01*
X198937542Y-92260667D01*
X199013882Y-92371265D01*
X199023502Y-92385201D01*
X199142471Y-92490599D01*
X199225953Y-92534414D01*
X199241234Y-92542434D01*
X199289712Y-92587518D01*
X199308642Y-92650956D01*
X199292799Y-92715235D01*
X199246556Y-92762609D01*
X199182679Y-92780001D01*
X195944925Y-92780001D01*
X195919068Y-92777319D01*
X195918762Y-92777255D01*
X195918615Y-92777224D01*
X195918614Y-92777223D01*
X195908399Y-92775082D01*
X195898041Y-92776373D01*
X195898038Y-92776373D01*
X195876703Y-92779033D01*
X195871442Y-92779359D01*
X195871460Y-92779571D01*
X195866267Y-92780001D01*
X195861056Y-92780001D01*
X195855921Y-92780857D01*
X195855917Y-92780858D01*
X195840342Y-92783457D01*
X195835197Y-92784206D01*
X195793071Y-92789458D01*
X195793070Y-92789458D01*
X195782716Y-92790749D01*
X195775495Y-92794278D01*
X195767572Y-92795601D01*
X195758399Y-92800564D01*
X195758390Y-92800568D01*
X195721066Y-92820766D01*
X195716442Y-92823147D01*
X195678305Y-92841792D01*
X195668931Y-92846375D01*
X195663246Y-92852059D01*
X195656183Y-92855882D01*
X195649118Y-92863556D01*
X195649112Y-92863561D01*
X195620367Y-92894786D01*
X195616763Y-92898541D01*
X194083710Y-94431595D01*
X194042833Y-94458909D01*
X193994615Y-94468500D01*
X193849529Y-94468500D01*
X193842138Y-94470321D01*
X193842135Y-94470322D01*
X193702608Y-94504712D01*
X193702601Y-94504714D01*
X193695207Y-94506537D01*
X193688458Y-94510078D01*
X193688453Y-94510081D01*
X193561223Y-94576857D01*
X193561221Y-94576858D01*
X193554471Y-94580401D01*
X193548769Y-94585452D01*
X193548764Y-94585456D01*
X193441207Y-94680744D01*
X193441203Y-94680747D01*
X193435502Y-94685799D01*
X193431175Y-94692066D01*
X193431171Y-94692072D01*
X193349542Y-94810332D01*
X193349538Y-94810337D01*
X193345213Y-94816605D01*
X193342514Y-94823720D01*
X193342510Y-94823729D01*
X193291552Y-94958094D01*
X193291550Y-94958100D01*
X193288851Y-94965218D01*
X193287932Y-94972779D01*
X193287932Y-94972783D01*
X193273557Y-95091179D01*
X193269693Y-95123000D01*
X193270612Y-95130569D01*
X193278944Y-95199194D01*
X193288851Y-95280782D01*
X193291551Y-95287901D01*
X193291552Y-95287905D01*
X193342510Y-95422270D01*
X193342512Y-95422275D01*
X193345213Y-95429395D01*
X193349541Y-95435665D01*
X193349542Y-95435667D01*
X193430190Y-95552506D01*
X193435502Y-95560201D01*
X193554471Y-95665599D01*
X193695207Y-95739463D01*
X193849529Y-95777500D01*
X194000854Y-95777500D01*
X194008471Y-95777500D01*
X194162793Y-95739463D01*
X194303529Y-95665599D01*
X194422498Y-95560201D01*
X194512787Y-95429395D01*
X194569149Y-95280782D01*
X194588307Y-95123000D01*
X194582425Y-95074561D01*
X194588398Y-95018275D01*
X194618407Y-94970285D01*
X196012790Y-93575903D01*
X196053665Y-93548592D01*
X196101883Y-93539001D01*
X203378073Y-93539001D01*
X203403929Y-93541682D01*
X203414599Y-93543920D01*
X203446294Y-93539969D01*
X203451552Y-93539642D01*
X203451535Y-93539431D01*
X203456722Y-93539001D01*
X203461942Y-93539001D01*
X203482686Y-93535538D01*
X203487749Y-93534800D01*
X203540282Y-93528253D01*
X203547502Y-93524723D01*
X203555426Y-93523401D01*
X203601910Y-93498243D01*
X203606542Y-93495860D01*
X203617868Y-93490323D01*
X203654067Y-93472627D01*
X203659751Y-93466942D01*
X203666815Y-93463120D01*
X203702653Y-93424188D01*
X203706212Y-93420480D01*
X211300288Y-85826404D01*
X211341165Y-85799091D01*
X211389383Y-85789500D01*
X211526854Y-85789500D01*
X211534471Y-85789500D01*
X211688793Y-85751463D01*
X211829529Y-85677599D01*
X211948498Y-85572201D01*
X212038787Y-85441395D01*
X212095149Y-85292782D01*
X212114307Y-85135000D01*
X212095149Y-84977218D01*
X212038787Y-84828605D01*
X211948498Y-84697799D01*
X211829529Y-84592401D01*
X211714104Y-84531821D01*
X211695546Y-84522081D01*
X211695544Y-84522080D01*
X211688793Y-84518537D01*
X211681395Y-84516713D01*
X211681391Y-84516712D01*
X211541864Y-84482322D01*
X211541862Y-84482321D01*
X211534471Y-84480500D01*
X211375529Y-84480500D01*
X211368138Y-84482321D01*
X211368135Y-84482322D01*
X211228608Y-84516712D01*
X211228601Y-84516714D01*
X211221207Y-84518537D01*
X211214458Y-84522078D01*
X211214453Y-84522081D01*
X211087223Y-84588857D01*
X211087221Y-84588858D01*
X211080471Y-84592401D01*
X211074769Y-84597452D01*
X211074764Y-84597456D01*
X210967207Y-84692744D01*
X210967203Y-84692747D01*
X210961502Y-84697799D01*
X210957175Y-84704066D01*
X210957171Y-84704072D01*
X210875542Y-84822332D01*
X210875538Y-84822337D01*
X210871213Y-84828605D01*
X210868514Y-84835720D01*
X210868510Y-84835729D01*
X210817552Y-84970094D01*
X210817550Y-84970100D01*
X210814851Y-84977218D01*
X210813932Y-84984779D01*
X210813932Y-84984783D01*
X210802467Y-85079210D01*
X210795693Y-85135000D01*
X210801574Y-85183437D01*
X210795599Y-85239725D01*
X210765587Y-85287717D01*
X203310210Y-92743096D01*
X203269333Y-92770410D01*
X203221115Y-92780001D01*
X199851321Y-92780001D01*
X199787444Y-92762609D01*
X199741201Y-92715235D01*
X199725358Y-92650956D01*
X199744288Y-92587518D01*
X199792766Y-92542434D01*
X199802295Y-92537432D01*
X199891529Y-92490599D01*
X200010498Y-92385201D01*
X200100787Y-92254395D01*
X200155960Y-92108916D01*
X200184675Y-92064504D01*
X202313901Y-89935279D01*
X202316934Y-89932347D01*
X202364176Y-89888228D01*
X202385659Y-89852897D01*
X202392901Y-89842258D01*
X202417879Y-89809321D01*
X202424474Y-89792595D01*
X202434032Y-89773352D01*
X202443375Y-89757990D01*
X202454525Y-89718195D01*
X202458639Y-89705962D01*
X202473799Y-89667521D01*
X202475637Y-89649634D01*
X202479648Y-89628527D01*
X202484500Y-89611214D01*
X202484500Y-89569886D01*
X202485160Y-89557002D01*
X202487276Y-89536416D01*
X202489386Y-89515891D01*
X202486332Y-89498178D01*
X202484500Y-89476769D01*
X202484500Y-87893929D01*
X202500424Y-87832617D01*
X202544167Y-87786803D01*
X202598462Y-87753186D01*
X202644577Y-87711146D01*
X202705746Y-87655385D01*
X202745115Y-87631008D01*
X202790631Y-87622500D01*
X203609369Y-87622500D01*
X203654885Y-87631008D01*
X203694254Y-87655385D01*
X203797229Y-87749258D01*
X203801538Y-87753186D01*
X203806489Y-87756251D01*
X203806491Y-87756253D01*
X203847788Y-87781823D01*
X203975573Y-87860944D01*
X204166444Y-87934888D01*
X204367653Y-87972500D01*
X204566519Y-87972500D01*
X204572347Y-87972500D01*
X204773556Y-87934888D01*
X204964427Y-87860944D01*
X205138462Y-87753186D01*
X205289732Y-87615285D01*
X205413088Y-87451935D01*
X205504328Y-87268701D01*
X205560345Y-87071821D01*
X205579232Y-86868000D01*
X205580758Y-86868141D01*
X205588285Y-86830301D01*
X205615599Y-86789424D01*
X211349619Y-81055405D01*
X211390496Y-81028091D01*
X211438714Y-81018500D01*
X225560500Y-81018500D01*
X225623500Y-81035381D01*
X225669619Y-81081500D01*
X225686500Y-81144500D01*
X225686500Y-81799385D01*
X225671138Y-81859677D01*
X225628799Y-81905268D01*
X225569806Y-81925041D01*
X225508543Y-81914174D01*
X225459950Y-81875317D01*
X225442873Y-81852704D01*
X225435055Y-81844127D01*
X225292466Y-81714140D01*
X225283203Y-81707145D01*
X225119153Y-81605571D01*
X225108771Y-81600401D01*
X224928853Y-81530700D01*
X224917692Y-81527524D01*
X224887641Y-81521907D01*
X224876440Y-81522295D01*
X224874000Y-81533237D01*
X224874000Y-83656763D01*
X224876440Y-83667704D01*
X224887641Y-83668092D01*
X224917692Y-83662475D01*
X224928853Y-83659299D01*
X225108771Y-83589598D01*
X225119153Y-83584428D01*
X225283203Y-83482854D01*
X225292466Y-83475859D01*
X225435055Y-83345872D01*
X225442873Y-83337295D01*
X225459950Y-83314683D01*
X225508543Y-83275826D01*
X225569806Y-83264959D01*
X225628799Y-83284732D01*
X225671138Y-83330323D01*
X225686500Y-83390615D01*
X225686500Y-84339385D01*
X225671138Y-84399677D01*
X225628799Y-84445268D01*
X225569806Y-84465041D01*
X225508543Y-84454174D01*
X225459950Y-84415317D01*
X225442873Y-84392704D01*
X225435055Y-84384127D01*
X225292466Y-84254140D01*
X225283203Y-84247145D01*
X225119153Y-84145571D01*
X225108771Y-84140401D01*
X224928853Y-84070700D01*
X224917692Y-84067524D01*
X224887641Y-84061907D01*
X224876440Y-84062295D01*
X224874000Y-84073237D01*
X224874000Y-86196763D01*
X224876440Y-86207704D01*
X224887641Y-86208092D01*
X224917692Y-86202475D01*
X224928853Y-86199299D01*
X225108771Y-86129598D01*
X225119153Y-86124428D01*
X225283203Y-86022854D01*
X225292466Y-86015859D01*
X225435055Y-85885872D01*
X225442873Y-85877295D01*
X225459950Y-85854683D01*
X225508543Y-85815826D01*
X225569806Y-85804959D01*
X225628799Y-85824732D01*
X225671138Y-85870323D01*
X225686500Y-85930615D01*
X225686500Y-86879385D01*
X225671138Y-86939677D01*
X225628799Y-86985268D01*
X225569806Y-87005041D01*
X225508543Y-86994174D01*
X225459950Y-86955317D01*
X225442873Y-86932704D01*
X225435055Y-86924127D01*
X225292466Y-86794140D01*
X225283203Y-86787145D01*
X225119153Y-86685571D01*
X225108771Y-86680401D01*
X224928853Y-86610700D01*
X224917692Y-86607524D01*
X224887641Y-86601907D01*
X224876440Y-86602295D01*
X224874000Y-86613237D01*
X224874000Y-88736763D01*
X224876440Y-88747704D01*
X224887641Y-88748092D01*
X224917692Y-88742475D01*
X224928853Y-88739299D01*
X225108771Y-88669598D01*
X225119153Y-88664428D01*
X225283203Y-88562854D01*
X225292466Y-88555859D01*
X225435055Y-88425872D01*
X225442873Y-88417295D01*
X225459950Y-88394683D01*
X225508543Y-88355826D01*
X225569806Y-88344959D01*
X225628799Y-88364732D01*
X225671138Y-88410323D01*
X225686500Y-88470615D01*
X225686500Y-89419385D01*
X225671138Y-89479677D01*
X225628799Y-89525268D01*
X225569806Y-89545041D01*
X225508543Y-89534174D01*
X225459950Y-89495317D01*
X225442873Y-89472704D01*
X225435055Y-89464127D01*
X225292466Y-89334140D01*
X225283203Y-89327145D01*
X225119153Y-89225571D01*
X225108771Y-89220401D01*
X224928853Y-89150700D01*
X224917692Y-89147524D01*
X224887641Y-89141907D01*
X224876440Y-89142295D01*
X224874000Y-89153237D01*
X224874000Y-91276763D01*
X224876440Y-91287704D01*
X224887641Y-91288092D01*
X224917692Y-91282475D01*
X224928853Y-91279299D01*
X225108771Y-91209598D01*
X225119153Y-91204428D01*
X225283203Y-91102854D01*
X225292466Y-91095859D01*
X225435055Y-90965872D01*
X225442873Y-90957295D01*
X225459950Y-90934683D01*
X225508543Y-90895826D01*
X225569806Y-90884959D01*
X225628799Y-90904732D01*
X225671138Y-90950323D01*
X225686500Y-91010615D01*
X225686500Y-91959385D01*
X225671138Y-92019677D01*
X225628799Y-92065268D01*
X225569806Y-92085041D01*
X225508543Y-92074174D01*
X225459950Y-92035317D01*
X225442873Y-92012704D01*
X225435055Y-92004127D01*
X225292466Y-91874140D01*
X225283203Y-91867145D01*
X225119153Y-91765571D01*
X225108771Y-91760401D01*
X224928853Y-91690700D01*
X224917692Y-91687524D01*
X224887641Y-91681907D01*
X224876440Y-91682295D01*
X224874000Y-91693237D01*
X224874000Y-93816763D01*
X224876440Y-93827704D01*
X224887641Y-93828092D01*
X224917692Y-93822475D01*
X224928853Y-93819299D01*
X225108771Y-93749598D01*
X225119153Y-93744428D01*
X225283203Y-93642854D01*
X225292466Y-93635859D01*
X225435055Y-93505872D01*
X225442873Y-93497295D01*
X225459950Y-93474683D01*
X225508543Y-93435826D01*
X225569806Y-93424959D01*
X225628799Y-93444732D01*
X225671138Y-93490323D01*
X225686500Y-93550615D01*
X225686500Y-94499385D01*
X225671138Y-94559677D01*
X225628799Y-94605268D01*
X225569806Y-94625041D01*
X225508543Y-94614174D01*
X225459950Y-94575317D01*
X225442873Y-94552704D01*
X225435055Y-94544127D01*
X225292466Y-94414140D01*
X225283203Y-94407145D01*
X225119153Y-94305571D01*
X225108771Y-94300401D01*
X224928853Y-94230700D01*
X224917692Y-94227524D01*
X224887641Y-94221907D01*
X224876440Y-94222295D01*
X224874000Y-94233237D01*
X224874000Y-96356763D01*
X224876440Y-96367704D01*
X224887641Y-96368092D01*
X224917692Y-96362475D01*
X224928853Y-96359299D01*
X225108771Y-96289598D01*
X225119153Y-96284428D01*
X225283203Y-96182854D01*
X225292466Y-96175859D01*
X225435055Y-96045872D01*
X225442873Y-96037295D01*
X225459950Y-96014683D01*
X225508543Y-95975826D01*
X225569806Y-95964959D01*
X225628799Y-95984732D01*
X225671138Y-96030323D01*
X225686500Y-96090615D01*
X225686500Y-97038556D01*
X225671138Y-97098848D01*
X225628799Y-97144439D01*
X225569805Y-97164212D01*
X225508543Y-97153345D01*
X225459950Y-97114488D01*
X225443244Y-97092365D01*
X225443241Y-97092361D01*
X225439732Y-97087715D01*
X225435429Y-97083792D01*
X225435426Y-97083789D01*
X225292764Y-96953736D01*
X225292765Y-96953736D01*
X225288462Y-96949814D01*
X225283512Y-96946749D01*
X225283508Y-96946746D01*
X225119387Y-96845127D01*
X225119386Y-96845126D01*
X225114427Y-96842056D01*
X225090898Y-96832941D01*
X224928989Y-96770216D01*
X224928981Y-96770213D01*
X224923556Y-96768112D01*
X224917839Y-96767043D01*
X224917831Y-96767041D01*
X224728073Y-96731570D01*
X224728069Y-96731569D01*
X224722347Y-96730500D01*
X224517653Y-96730500D01*
X224511931Y-96731569D01*
X224511926Y-96731570D01*
X224322168Y-96767041D01*
X224322157Y-96767043D01*
X224316444Y-96768112D01*
X224311021Y-96770212D01*
X224311010Y-96770216D01*
X224131011Y-96839949D01*
X224131008Y-96839950D01*
X224125573Y-96842056D01*
X224120617Y-96845124D01*
X224120612Y-96845127D01*
X223956491Y-96946746D01*
X223956481Y-96946752D01*
X223951538Y-96949814D01*
X223947239Y-96953732D01*
X223947235Y-96953736D01*
X223804573Y-97083789D01*
X223804565Y-97083797D01*
X223800268Y-97087715D01*
X223796763Y-97092355D01*
X223796755Y-97092365D01*
X223680422Y-97246416D01*
X223680418Y-97246421D01*
X223676912Y-97251065D01*
X223674317Y-97256274D01*
X223674314Y-97256281D01*
X223616412Y-97372564D01*
X223585672Y-97434299D01*
X223584078Y-97439899D01*
X223584076Y-97439906D01*
X223531250Y-97625572D01*
X223529655Y-97631179D01*
X223529118Y-97636972D01*
X223529116Y-97636984D01*
X223513300Y-97807677D01*
X223510768Y-97835000D01*
X223511306Y-97840806D01*
X223529116Y-98033015D01*
X223529117Y-98033025D01*
X223529655Y-98038821D01*
X223531249Y-98044426D01*
X223531250Y-98044427D01*
X223582170Y-98223395D01*
X223585672Y-98235701D01*
X223628425Y-98321561D01*
X223671791Y-98408652D01*
X223676912Y-98418935D01*
X223680421Y-98423582D01*
X223680422Y-98423583D01*
X223796755Y-98577634D01*
X223796759Y-98577638D01*
X223800268Y-98582285D01*
X223804570Y-98586207D01*
X223804573Y-98586210D01*
X223841713Y-98620067D01*
X223951538Y-98720186D01*
X223956489Y-98723251D01*
X223956491Y-98723253D01*
X223982889Y-98739598D01*
X224125573Y-98827944D01*
X224279512Y-98887580D01*
X224298049Y-98894762D01*
X224316444Y-98901888D01*
X224517653Y-98939500D01*
X224716519Y-98939500D01*
X224722347Y-98939500D01*
X224923556Y-98901888D01*
X225114427Y-98827944D01*
X225288462Y-98720186D01*
X225439732Y-98582285D01*
X225459949Y-98555512D01*
X225508543Y-98516655D01*
X225569805Y-98505788D01*
X225628799Y-98525561D01*
X225671138Y-98571152D01*
X225686500Y-98631444D01*
X225686500Y-98695286D01*
X225676909Y-98743504D01*
X225649595Y-98784381D01*
X224514381Y-99919595D01*
X224473504Y-99946909D01*
X224425286Y-99956500D01*
X213526140Y-99956500D01*
X213507879Y-99955170D01*
X213491353Y-99952749D01*
X213491349Y-99952748D01*
X213484093Y-99951686D01*
X213476786Y-99952325D01*
X213476782Y-99952325D01*
X213434539Y-99956021D01*
X213423558Y-99956500D01*
X213418059Y-99956500D01*
X213387136Y-99960113D01*
X213383512Y-99960483D01*
X213315707Y-99966415D01*
X213315692Y-99966417D01*
X213308388Y-99967057D01*
X213301420Y-99969365D01*
X213298247Y-99970021D01*
X213297749Y-99970101D01*
X213297257Y-99970241D01*
X213294105Y-99970987D01*
X213286816Y-99971840D01*
X213279920Y-99974349D01*
X213279915Y-99974351D01*
X213215980Y-99997620D01*
X213212524Y-99998822D01*
X213147919Y-100020231D01*
X213147917Y-100020231D01*
X213140964Y-100022536D01*
X213134726Y-100026383D01*
X213131778Y-100027758D01*
X213131311Y-100027951D01*
X213130876Y-100028194D01*
X213127961Y-100029657D01*
X213121076Y-100032164D01*
X213114953Y-100036190D01*
X213114951Y-100036192D01*
X213058086Y-100073592D01*
X213055009Y-100075552D01*
X212990846Y-100115130D01*
X212985661Y-100120314D01*
X212983099Y-100122340D01*
X212982703Y-100122625D01*
X212982333Y-100122965D01*
X212979845Y-100125052D01*
X212973715Y-100129085D01*
X212968681Y-100134421D01*
X212921979Y-100183921D01*
X212919426Y-100186548D01*
X210234381Y-102871595D01*
X210193504Y-102898909D01*
X210145286Y-102908500D01*
X210057653Y-102908500D01*
X210051931Y-102909569D01*
X210051926Y-102909570D01*
X209862168Y-102945041D01*
X209862157Y-102945043D01*
X209856444Y-102946112D01*
X209851021Y-102948212D01*
X209851010Y-102948216D01*
X209671011Y-103017949D01*
X209671008Y-103017950D01*
X209665573Y-103020056D01*
X209660617Y-103023124D01*
X209660612Y-103023127D01*
X209496491Y-103124746D01*
X209496481Y-103124752D01*
X209491538Y-103127814D01*
X209487239Y-103131732D01*
X209487235Y-103131736D01*
X209344573Y-103261789D01*
X209344565Y-103261797D01*
X209340268Y-103265715D01*
X209336763Y-103270355D01*
X209336755Y-103270365D01*
X209220422Y-103424416D01*
X209220418Y-103424421D01*
X209216912Y-103429065D01*
X209214317Y-103434274D01*
X209214314Y-103434281D01*
X209128271Y-103607079D01*
X209125672Y-103612299D01*
X209124078Y-103617899D01*
X209124076Y-103617906D01*
X209083932Y-103759000D01*
X209069655Y-103809179D01*
X209069118Y-103814972D01*
X209069116Y-103814984D01*
X209054261Y-103975301D01*
X209050768Y-104013000D01*
X209051306Y-104018806D01*
X209069116Y-104211015D01*
X209069117Y-104211025D01*
X209069655Y-104216821D01*
X209071249Y-104222426D01*
X209071250Y-104222427D01*
X209124026Y-104407918D01*
X209125672Y-104413701D01*
X209216912Y-104596935D01*
X209220421Y-104601582D01*
X209220422Y-104601583D01*
X209336755Y-104755634D01*
X209336759Y-104755638D01*
X209340268Y-104760285D01*
X209344570Y-104764207D01*
X209344573Y-104764210D01*
X209432466Y-104844335D01*
X209491538Y-104898186D01*
X209665573Y-105005944D01*
X209856444Y-105079888D01*
X210057653Y-105117500D01*
X210256519Y-105117500D01*
X210262347Y-105117500D01*
X210463556Y-105079888D01*
X210654427Y-105005944D01*
X210828462Y-104898186D01*
X210979732Y-104760285D01*
X211103088Y-104596935D01*
X211194328Y-104413701D01*
X211250345Y-104216821D01*
X211269232Y-104013000D01*
X211270758Y-104013141D01*
X211278285Y-103975301D01*
X211305599Y-103934424D01*
X212607938Y-102632086D01*
X221096382Y-102632086D01*
X221103161Y-102643951D01*
X223338270Y-104879060D01*
X223350000Y-104885832D01*
X223361729Y-104879060D01*
X225596836Y-102643952D01*
X225603615Y-102632087D01*
X225596517Y-102620409D01*
X225591840Y-102615979D01*
X225586636Y-102611558D01*
X225293910Y-102389033D01*
X225288254Y-102385198D01*
X224973178Y-102195623D01*
X224967169Y-102192437D01*
X224633434Y-102038035D01*
X224627092Y-102035509D01*
X224278636Y-101918100D01*
X224272064Y-101916275D01*
X223912947Y-101837228D01*
X223906223Y-101836126D01*
X223540668Y-101796369D01*
X223533855Y-101796000D01*
X223166145Y-101796000D01*
X223159331Y-101796369D01*
X222793776Y-101836126D01*
X222787052Y-101837228D01*
X222427935Y-101916275D01*
X222421363Y-101918100D01*
X222072907Y-102035509D01*
X222066565Y-102038035D01*
X221732830Y-102192437D01*
X221726821Y-102195623D01*
X221411745Y-102385198D01*
X221406089Y-102389033D01*
X221113360Y-102611560D01*
X221108167Y-102615971D01*
X221103478Y-102620412D01*
X221096382Y-102632086D01*
X212607938Y-102632086D01*
X213737619Y-101502405D01*
X213778496Y-101475091D01*
X213826714Y-101465500D01*
X224725853Y-101465500D01*
X224744114Y-101466829D01*
X224767906Y-101470315D01*
X224817467Y-101465979D01*
X224828449Y-101465500D01*
X224830272Y-101465500D01*
X224833941Y-101465500D01*
X224864885Y-101461882D01*
X224868453Y-101461518D01*
X224943612Y-101454943D01*
X224950589Y-101452630D01*
X224953738Y-101451980D01*
X224954256Y-101451896D01*
X224954776Y-101451749D01*
X224957883Y-101451012D01*
X224965184Y-101450160D01*
X225036020Y-101424377D01*
X225039459Y-101423182D01*
X225104068Y-101401773D01*
X225104068Y-101401772D01*
X225111036Y-101399464D01*
X225117284Y-101395609D01*
X225120201Y-101394249D01*
X225120691Y-101394045D01*
X225121157Y-101393786D01*
X225124021Y-101392347D01*
X225130924Y-101389836D01*
X225193941Y-101348388D01*
X225196996Y-101346442D01*
X225261154Y-101306870D01*
X225266348Y-101301674D01*
X225268874Y-101299678D01*
X225269297Y-101299372D01*
X225269687Y-101299015D01*
X225272144Y-101296953D01*
X225278285Y-101292915D01*
X225330070Y-101238024D01*
X225332556Y-101235466D01*
X226929159Y-99638863D01*
X226943002Y-99626899D01*
X226962294Y-99612539D01*
X226994278Y-99574420D01*
X227001692Y-99566330D01*
X227005583Y-99562441D01*
X227024925Y-99537977D01*
X227027168Y-99535223D01*
X227075667Y-99477427D01*
X227078966Y-99470855D01*
X227080725Y-99468182D01*
X227081038Y-99467748D01*
X227081292Y-99467293D01*
X227082981Y-99464554D01*
X227087539Y-99458791D01*
X227099305Y-99433557D01*
X227143041Y-99382349D01*
X227206905Y-99360980D01*
X227272653Y-99375555D01*
X227321503Y-99421912D01*
X227339500Y-99486807D01*
X227339500Y-109113500D01*
X227322619Y-109176500D01*
X227276500Y-109222619D01*
X227213500Y-109239500D01*
X177866500Y-109239500D01*
X177803500Y-109222619D01*
X177757381Y-109176500D01*
X177740500Y-109113500D01*
X177740500Y-107867911D01*
X179476383Y-107867911D01*
X179483481Y-107879589D01*
X179488159Y-107884020D01*
X179493363Y-107888441D01*
X179786089Y-108110966D01*
X179791745Y-108114801D01*
X180106821Y-108304376D01*
X180112830Y-108307562D01*
X180446565Y-108461964D01*
X180452907Y-108464490D01*
X180801363Y-108581899D01*
X180807935Y-108583724D01*
X181167052Y-108662771D01*
X181173776Y-108663873D01*
X181539331Y-108703630D01*
X181546145Y-108704000D01*
X181913855Y-108704000D01*
X181920668Y-108703630D01*
X182286223Y-108663873D01*
X182292947Y-108662771D01*
X182652064Y-108583724D01*
X182658636Y-108581899D01*
X183007092Y-108464490D01*
X183013434Y-108461964D01*
X183347169Y-108307562D01*
X183353178Y-108304376D01*
X183668254Y-108114801D01*
X183673910Y-108110966D01*
X183966643Y-107888435D01*
X183971829Y-107884031D01*
X183976521Y-107879586D01*
X183983616Y-107867913D01*
X183983615Y-107867911D01*
X221096383Y-107867911D01*
X221103481Y-107879589D01*
X221108159Y-107884020D01*
X221113363Y-107888441D01*
X221406089Y-108110966D01*
X221411745Y-108114801D01*
X221726821Y-108304376D01*
X221732830Y-108307562D01*
X222066565Y-108461964D01*
X222072907Y-108464490D01*
X222421363Y-108581899D01*
X222427935Y-108583724D01*
X222787052Y-108662771D01*
X222793776Y-108663873D01*
X223159331Y-108703630D01*
X223166145Y-108704000D01*
X223533855Y-108704000D01*
X223540668Y-108703630D01*
X223906223Y-108663873D01*
X223912947Y-108662771D01*
X224272064Y-108583724D01*
X224278636Y-108581899D01*
X224627092Y-108464490D01*
X224633434Y-108461964D01*
X224967169Y-108307562D01*
X224973178Y-108304376D01*
X225288254Y-108114801D01*
X225293910Y-108110966D01*
X225586643Y-107888435D01*
X225591829Y-107884031D01*
X225596521Y-107879586D01*
X225603616Y-107867913D01*
X225596835Y-107856045D01*
X223361729Y-105620939D01*
X223350000Y-105614167D01*
X223338270Y-105620939D01*
X221103162Y-107856046D01*
X221096383Y-107867911D01*
X183983615Y-107867911D01*
X183976835Y-107856045D01*
X181741729Y-105620939D01*
X181730000Y-105614167D01*
X181718270Y-105620939D01*
X179483162Y-107856046D01*
X179476383Y-107867911D01*
X177740500Y-107867911D01*
X177740500Y-105253412D01*
X178271112Y-105253412D01*
X178291018Y-105620572D01*
X178291757Y-105627369D01*
X178351245Y-105990224D01*
X178352712Y-105996892D01*
X178451086Y-106351200D01*
X178453261Y-106357656D01*
X178589368Y-106699260D01*
X178592224Y-106705435D01*
X178764471Y-107030327D01*
X178767979Y-107036157D01*
X178974340Y-107340516D01*
X178978469Y-107345947D01*
X179103287Y-107492895D01*
X179114814Y-107500634D01*
X179126935Y-107493853D01*
X181359060Y-105261729D01*
X181365832Y-105250000D01*
X181365831Y-105249999D01*
X182094167Y-105249999D01*
X182100939Y-105261729D01*
X184333063Y-107493853D01*
X184345184Y-107500634D01*
X184356711Y-107492894D01*
X184417026Y-107421887D01*
X193815500Y-107421887D01*
X193815501Y-107428066D01*
X193816707Y-107434132D01*
X193816708Y-107434137D01*
X193827844Y-107490125D01*
X193830266Y-107502301D01*
X193886516Y-107586484D01*
X193970699Y-107642734D01*
X194044933Y-107657500D01*
X195795066Y-107657499D01*
X195869301Y-107642734D01*
X195953484Y-107586484D01*
X196009734Y-107502301D01*
X196024500Y-107428067D01*
X196024499Y-106553000D01*
X196350768Y-106553000D01*
X196351306Y-106558806D01*
X196369116Y-106751015D01*
X196369117Y-106751025D01*
X196369655Y-106756821D01*
X196425672Y-106953701D01*
X196516912Y-107136935D01*
X196520421Y-107141582D01*
X196520422Y-107141583D01*
X196636755Y-107295634D01*
X196636759Y-107295638D01*
X196640268Y-107300285D01*
X196644570Y-107304207D01*
X196644573Y-107304210D01*
X196684399Y-107340516D01*
X196791538Y-107438186D01*
X196965573Y-107545944D01*
X197156444Y-107619888D01*
X197357653Y-107657500D01*
X197556519Y-107657500D01*
X197562347Y-107657500D01*
X197763556Y-107619888D01*
X197954427Y-107545944D01*
X198128462Y-107438186D01*
X198279732Y-107300285D01*
X198403088Y-107136935D01*
X198494328Y-106953701D01*
X198550345Y-106756821D01*
X198569232Y-106553000D01*
X198890768Y-106553000D01*
X198891306Y-106558806D01*
X198909116Y-106751015D01*
X198909117Y-106751025D01*
X198909655Y-106756821D01*
X198965672Y-106953701D01*
X199056912Y-107136935D01*
X199060421Y-107141582D01*
X199060422Y-107141583D01*
X199176755Y-107295634D01*
X199176759Y-107295638D01*
X199180268Y-107300285D01*
X199184570Y-107304207D01*
X199184573Y-107304210D01*
X199224399Y-107340516D01*
X199331538Y-107438186D01*
X199505573Y-107545944D01*
X199696444Y-107619888D01*
X199897653Y-107657500D01*
X200096519Y-107657500D01*
X200102347Y-107657500D01*
X200303556Y-107619888D01*
X200494427Y-107545944D01*
X200668462Y-107438186D01*
X200819732Y-107300285D01*
X200943088Y-107136935D01*
X201034328Y-106953701D01*
X201090345Y-106756821D01*
X201109232Y-106553000D01*
X201430768Y-106553000D01*
X201431306Y-106558806D01*
X201449116Y-106751015D01*
X201449117Y-106751025D01*
X201449655Y-106756821D01*
X201505672Y-106953701D01*
X201596912Y-107136935D01*
X201600421Y-107141582D01*
X201600422Y-107141583D01*
X201716755Y-107295634D01*
X201716759Y-107295638D01*
X201720268Y-107300285D01*
X201724570Y-107304207D01*
X201724573Y-107304210D01*
X201764399Y-107340516D01*
X201871538Y-107438186D01*
X202045573Y-107545944D01*
X202236444Y-107619888D01*
X202437653Y-107657500D01*
X202636519Y-107657500D01*
X202642347Y-107657500D01*
X202843556Y-107619888D01*
X203034427Y-107545944D01*
X203208462Y-107438186D01*
X203359732Y-107300285D01*
X203483088Y-107136935D01*
X203574328Y-106953701D01*
X203630345Y-106756821D01*
X203649232Y-106553000D01*
X203970768Y-106553000D01*
X203971306Y-106558806D01*
X203989116Y-106751015D01*
X203989117Y-106751025D01*
X203989655Y-106756821D01*
X204045672Y-106953701D01*
X204136912Y-107136935D01*
X204140421Y-107141582D01*
X204140422Y-107141583D01*
X204256755Y-107295634D01*
X204256759Y-107295638D01*
X204260268Y-107300285D01*
X204264570Y-107304207D01*
X204264573Y-107304210D01*
X204304399Y-107340516D01*
X204411538Y-107438186D01*
X204585573Y-107545944D01*
X204776444Y-107619888D01*
X204977653Y-107657500D01*
X205176519Y-107657500D01*
X205182347Y-107657500D01*
X205383556Y-107619888D01*
X205574427Y-107545944D01*
X205748462Y-107438186D01*
X205899732Y-107300285D01*
X206023088Y-107136935D01*
X206114328Y-106953701D01*
X206170345Y-106756821D01*
X206189232Y-106553000D01*
X206510768Y-106553000D01*
X206511306Y-106558806D01*
X206529116Y-106751015D01*
X206529117Y-106751025D01*
X206529655Y-106756821D01*
X206585672Y-106953701D01*
X206676912Y-107136935D01*
X206680421Y-107141582D01*
X206680422Y-107141583D01*
X206796755Y-107295634D01*
X206796759Y-107295638D01*
X206800268Y-107300285D01*
X206804570Y-107304207D01*
X206804573Y-107304210D01*
X206844399Y-107340516D01*
X206951538Y-107438186D01*
X207125573Y-107545944D01*
X207316444Y-107619888D01*
X207517653Y-107657500D01*
X207716519Y-107657500D01*
X207722347Y-107657500D01*
X207923556Y-107619888D01*
X208114427Y-107545944D01*
X208288462Y-107438186D01*
X208439732Y-107300285D01*
X208563088Y-107136935D01*
X208654328Y-106953701D01*
X208710345Y-106756821D01*
X208729232Y-106553000D01*
X209050768Y-106553000D01*
X209051306Y-106558806D01*
X209069116Y-106751015D01*
X209069117Y-106751025D01*
X209069655Y-106756821D01*
X209125672Y-106953701D01*
X209216912Y-107136935D01*
X209220421Y-107141582D01*
X209220422Y-107141583D01*
X209336755Y-107295634D01*
X209336759Y-107295638D01*
X209340268Y-107300285D01*
X209344570Y-107304207D01*
X209344573Y-107304210D01*
X209384399Y-107340516D01*
X209491538Y-107438186D01*
X209665573Y-107545944D01*
X209856444Y-107619888D01*
X210057653Y-107657500D01*
X210256519Y-107657500D01*
X210262347Y-107657500D01*
X210463556Y-107619888D01*
X210654427Y-107545944D01*
X210828462Y-107438186D01*
X210979732Y-107300285D01*
X211103088Y-107136935D01*
X211194328Y-106953701D01*
X211250345Y-106756821D01*
X211269232Y-106553000D01*
X211250345Y-106349179D01*
X211194328Y-106152299D01*
X211103088Y-105969065D01*
X210979732Y-105805715D01*
X210975429Y-105801792D01*
X210975426Y-105801789D01*
X210839562Y-105677933D01*
X210828462Y-105667814D01*
X210823512Y-105664749D01*
X210823508Y-105664746D01*
X210659387Y-105563127D01*
X210659386Y-105563126D01*
X210654427Y-105560056D01*
X210630898Y-105550941D01*
X210468989Y-105488216D01*
X210468981Y-105488213D01*
X210463556Y-105486112D01*
X210457839Y-105485043D01*
X210457831Y-105485041D01*
X210268073Y-105449570D01*
X210268069Y-105449569D01*
X210262347Y-105448500D01*
X210057653Y-105448500D01*
X210051931Y-105449569D01*
X210051926Y-105449570D01*
X209862168Y-105485041D01*
X209862157Y-105485043D01*
X209856444Y-105486112D01*
X209851021Y-105488212D01*
X209851010Y-105488216D01*
X209671011Y-105557949D01*
X209671008Y-105557950D01*
X209665573Y-105560056D01*
X209660617Y-105563124D01*
X209660612Y-105563127D01*
X209496491Y-105664746D01*
X209496481Y-105664752D01*
X209491538Y-105667814D01*
X209487239Y-105671732D01*
X209487235Y-105671736D01*
X209344573Y-105801789D01*
X209344565Y-105801797D01*
X209340268Y-105805715D01*
X209336763Y-105810355D01*
X209336755Y-105810365D01*
X209220422Y-105964416D01*
X209220418Y-105964421D01*
X209216912Y-105969065D01*
X209214317Y-105974274D01*
X209214314Y-105974281D01*
X209128271Y-106147079D01*
X209125672Y-106152299D01*
X209124078Y-106157899D01*
X209124076Y-106157906D01*
X209071250Y-106343572D01*
X209069655Y-106349179D01*
X209069118Y-106354972D01*
X209069116Y-106354984D01*
X209051306Y-106547194D01*
X209050768Y-106553000D01*
X208729232Y-106553000D01*
X208710345Y-106349179D01*
X208654328Y-106152299D01*
X208563088Y-105969065D01*
X208439732Y-105805715D01*
X208435429Y-105801792D01*
X208435426Y-105801789D01*
X208299562Y-105677933D01*
X208288462Y-105667814D01*
X208283512Y-105664749D01*
X208283508Y-105664746D01*
X208119387Y-105563127D01*
X208119386Y-105563126D01*
X208114427Y-105560056D01*
X208090898Y-105550941D01*
X207928989Y-105488216D01*
X207928981Y-105488213D01*
X207923556Y-105486112D01*
X207917839Y-105485043D01*
X207917831Y-105485041D01*
X207728073Y-105449570D01*
X207728069Y-105449569D01*
X207722347Y-105448500D01*
X207517653Y-105448500D01*
X207511931Y-105449569D01*
X207511926Y-105449570D01*
X207322168Y-105485041D01*
X207322157Y-105485043D01*
X207316444Y-105486112D01*
X207311021Y-105488212D01*
X207311010Y-105488216D01*
X207131011Y-105557949D01*
X207131008Y-105557950D01*
X207125573Y-105560056D01*
X207120617Y-105563124D01*
X207120612Y-105563127D01*
X206956491Y-105664746D01*
X206956481Y-105664752D01*
X206951538Y-105667814D01*
X206947239Y-105671732D01*
X206947235Y-105671736D01*
X206804573Y-105801789D01*
X206804565Y-105801797D01*
X206800268Y-105805715D01*
X206796763Y-105810355D01*
X206796755Y-105810365D01*
X206680422Y-105964416D01*
X206680418Y-105964421D01*
X206676912Y-105969065D01*
X206674317Y-105974274D01*
X206674314Y-105974281D01*
X206588271Y-106147079D01*
X206585672Y-106152299D01*
X206584078Y-106157899D01*
X206584076Y-106157906D01*
X206531250Y-106343572D01*
X206529655Y-106349179D01*
X206529118Y-106354972D01*
X206529116Y-106354984D01*
X206511306Y-106547194D01*
X206510768Y-106553000D01*
X206189232Y-106553000D01*
X206170345Y-106349179D01*
X206114328Y-106152299D01*
X206023088Y-105969065D01*
X205899732Y-105805715D01*
X205895429Y-105801792D01*
X205895426Y-105801789D01*
X205759562Y-105677933D01*
X205748462Y-105667814D01*
X205743512Y-105664749D01*
X205743508Y-105664746D01*
X205579387Y-105563127D01*
X205579386Y-105563126D01*
X205574427Y-105560056D01*
X205550898Y-105550941D01*
X205388989Y-105488216D01*
X205388981Y-105488213D01*
X205383556Y-105486112D01*
X205377839Y-105485043D01*
X205377831Y-105485041D01*
X205188073Y-105449570D01*
X205188069Y-105449569D01*
X205182347Y-105448500D01*
X204977653Y-105448500D01*
X204971931Y-105449569D01*
X204971926Y-105449570D01*
X204782168Y-105485041D01*
X204782157Y-105485043D01*
X204776444Y-105486112D01*
X204771021Y-105488212D01*
X204771010Y-105488216D01*
X204591011Y-105557949D01*
X204591008Y-105557950D01*
X204585573Y-105560056D01*
X204580617Y-105563124D01*
X204580612Y-105563127D01*
X204416491Y-105664746D01*
X204416481Y-105664752D01*
X204411538Y-105667814D01*
X204407239Y-105671732D01*
X204407235Y-105671736D01*
X204264573Y-105801789D01*
X204264565Y-105801797D01*
X204260268Y-105805715D01*
X204256763Y-105810355D01*
X204256755Y-105810365D01*
X204140422Y-105964416D01*
X204140418Y-105964421D01*
X204136912Y-105969065D01*
X204134317Y-105974274D01*
X204134314Y-105974281D01*
X204048271Y-106147079D01*
X204045672Y-106152299D01*
X204044078Y-106157899D01*
X204044076Y-106157906D01*
X203991250Y-106343572D01*
X203989655Y-106349179D01*
X203989118Y-106354972D01*
X203989116Y-106354984D01*
X203971306Y-106547194D01*
X203970768Y-106553000D01*
X203649232Y-106553000D01*
X203630345Y-106349179D01*
X203574328Y-106152299D01*
X203483088Y-105969065D01*
X203359732Y-105805715D01*
X203355429Y-105801792D01*
X203355426Y-105801789D01*
X203219562Y-105677933D01*
X203208462Y-105667814D01*
X203203512Y-105664749D01*
X203203508Y-105664746D01*
X203039387Y-105563127D01*
X203039386Y-105563126D01*
X203034427Y-105560056D01*
X203010898Y-105550941D01*
X202848989Y-105488216D01*
X202848981Y-105488213D01*
X202843556Y-105486112D01*
X202837839Y-105485043D01*
X202837831Y-105485041D01*
X202648073Y-105449570D01*
X202648069Y-105449569D01*
X202642347Y-105448500D01*
X202437653Y-105448500D01*
X202431931Y-105449569D01*
X202431926Y-105449570D01*
X202242168Y-105485041D01*
X202242157Y-105485043D01*
X202236444Y-105486112D01*
X202231021Y-105488212D01*
X202231010Y-105488216D01*
X202051011Y-105557949D01*
X202051008Y-105557950D01*
X202045573Y-105560056D01*
X202040617Y-105563124D01*
X202040612Y-105563127D01*
X201876491Y-105664746D01*
X201876481Y-105664752D01*
X201871538Y-105667814D01*
X201867239Y-105671732D01*
X201867235Y-105671736D01*
X201724573Y-105801789D01*
X201724565Y-105801797D01*
X201720268Y-105805715D01*
X201716763Y-105810355D01*
X201716755Y-105810365D01*
X201600422Y-105964416D01*
X201600418Y-105964421D01*
X201596912Y-105969065D01*
X201594317Y-105974274D01*
X201594314Y-105974281D01*
X201508271Y-106147079D01*
X201505672Y-106152299D01*
X201504078Y-106157899D01*
X201504076Y-106157906D01*
X201451250Y-106343572D01*
X201449655Y-106349179D01*
X201449118Y-106354972D01*
X201449116Y-106354984D01*
X201431306Y-106547194D01*
X201430768Y-106553000D01*
X201109232Y-106553000D01*
X201090345Y-106349179D01*
X201034328Y-106152299D01*
X200943088Y-105969065D01*
X200819732Y-105805715D01*
X200815429Y-105801792D01*
X200815426Y-105801789D01*
X200679562Y-105677933D01*
X200668462Y-105667814D01*
X200663512Y-105664749D01*
X200663508Y-105664746D01*
X200499387Y-105563127D01*
X200499386Y-105563126D01*
X200494427Y-105560056D01*
X200470898Y-105550941D01*
X200308989Y-105488216D01*
X200308981Y-105488213D01*
X200303556Y-105486112D01*
X200297839Y-105485043D01*
X200297831Y-105485041D01*
X200108073Y-105449570D01*
X200108069Y-105449569D01*
X200102347Y-105448500D01*
X199897653Y-105448500D01*
X199891931Y-105449569D01*
X199891926Y-105449570D01*
X199702168Y-105485041D01*
X199702157Y-105485043D01*
X199696444Y-105486112D01*
X199691021Y-105488212D01*
X199691010Y-105488216D01*
X199511011Y-105557949D01*
X199511008Y-105557950D01*
X199505573Y-105560056D01*
X199500617Y-105563124D01*
X199500612Y-105563127D01*
X199336491Y-105664746D01*
X199336481Y-105664752D01*
X199331538Y-105667814D01*
X199327239Y-105671732D01*
X199327235Y-105671736D01*
X199184573Y-105801789D01*
X199184565Y-105801797D01*
X199180268Y-105805715D01*
X199176763Y-105810355D01*
X199176755Y-105810365D01*
X199060422Y-105964416D01*
X199060418Y-105964421D01*
X199056912Y-105969065D01*
X199054317Y-105974274D01*
X199054314Y-105974281D01*
X198968271Y-106147079D01*
X198965672Y-106152299D01*
X198964078Y-106157899D01*
X198964076Y-106157906D01*
X198911250Y-106343572D01*
X198909655Y-106349179D01*
X198909118Y-106354972D01*
X198909116Y-106354984D01*
X198891306Y-106547194D01*
X198890768Y-106553000D01*
X198569232Y-106553000D01*
X198550345Y-106349179D01*
X198494328Y-106152299D01*
X198403088Y-105969065D01*
X198279732Y-105805715D01*
X198275429Y-105801792D01*
X198275426Y-105801789D01*
X198139562Y-105677933D01*
X198128462Y-105667814D01*
X198123512Y-105664749D01*
X198123508Y-105664746D01*
X197959387Y-105563127D01*
X197959386Y-105563126D01*
X197954427Y-105560056D01*
X197930898Y-105550941D01*
X197768989Y-105488216D01*
X197768981Y-105488213D01*
X197763556Y-105486112D01*
X197757839Y-105485043D01*
X197757831Y-105485041D01*
X197568073Y-105449570D01*
X197568069Y-105449569D01*
X197562347Y-105448500D01*
X197357653Y-105448500D01*
X197351931Y-105449569D01*
X197351926Y-105449570D01*
X197162168Y-105485041D01*
X197162157Y-105485043D01*
X197156444Y-105486112D01*
X197151021Y-105488212D01*
X197151010Y-105488216D01*
X196971011Y-105557949D01*
X196971008Y-105557950D01*
X196965573Y-105560056D01*
X196960617Y-105563124D01*
X196960612Y-105563127D01*
X196796491Y-105664746D01*
X196796481Y-105664752D01*
X196791538Y-105667814D01*
X196787239Y-105671732D01*
X196787235Y-105671736D01*
X196644573Y-105801789D01*
X196644565Y-105801797D01*
X196640268Y-105805715D01*
X196636763Y-105810355D01*
X196636755Y-105810365D01*
X196520422Y-105964416D01*
X196520418Y-105964421D01*
X196516912Y-105969065D01*
X196514317Y-105974274D01*
X196514314Y-105974281D01*
X196428271Y-106147079D01*
X196425672Y-106152299D01*
X196424078Y-106157899D01*
X196424076Y-106157906D01*
X196371250Y-106343572D01*
X196369655Y-106349179D01*
X196369118Y-106354972D01*
X196369116Y-106354984D01*
X196351306Y-106547194D01*
X196350768Y-106553000D01*
X196024499Y-106553000D01*
X196024499Y-105677934D01*
X196009734Y-105603699D01*
X195953484Y-105519516D01*
X195869301Y-105463266D01*
X195857131Y-105460845D01*
X195857128Y-105460844D01*
X195801135Y-105449707D01*
X195795067Y-105448500D01*
X195788880Y-105448500D01*
X194051122Y-105448500D01*
X194051111Y-105448500D01*
X194044934Y-105448501D01*
X194038868Y-105449707D01*
X194038862Y-105449708D01*
X193982874Y-105460844D01*
X193982871Y-105460844D01*
X193970699Y-105463266D01*
X193960379Y-105470161D01*
X193960378Y-105470162D01*
X193896832Y-105512622D01*
X193896829Y-105512624D01*
X193886516Y-105519516D01*
X193879624Y-105529829D01*
X193879622Y-105529832D01*
X193837161Y-105593379D01*
X193837159Y-105593381D01*
X193830266Y-105603699D01*
X193827845Y-105615867D01*
X193827844Y-105615871D01*
X193816707Y-105671864D01*
X193815500Y-105677933D01*
X193815500Y-105684118D01*
X193815500Y-105684119D01*
X193815500Y-107421877D01*
X193815500Y-107421887D01*
X184417026Y-107421887D01*
X184481531Y-107345947D01*
X184485659Y-107340516D01*
X184692020Y-107036157D01*
X184695528Y-107030327D01*
X184867775Y-106705435D01*
X184870631Y-106699260D01*
X185006738Y-106357656D01*
X185008913Y-106351200D01*
X185107287Y-105996892D01*
X185108754Y-105990224D01*
X185168242Y-105627369D01*
X185168981Y-105620572D01*
X185188888Y-105253412D01*
X219891112Y-105253412D01*
X219911018Y-105620572D01*
X219911757Y-105627369D01*
X219971245Y-105990224D01*
X219972712Y-105996892D01*
X220071086Y-106351200D01*
X220073261Y-106357656D01*
X220209368Y-106699260D01*
X220212224Y-106705435D01*
X220384471Y-107030327D01*
X220387979Y-107036157D01*
X220594340Y-107340516D01*
X220598469Y-107345947D01*
X220723287Y-107492895D01*
X220734814Y-107500634D01*
X220746935Y-107493853D01*
X222979060Y-105261729D01*
X222985832Y-105250000D01*
X223714167Y-105250000D01*
X223720939Y-105261729D01*
X225953063Y-107493853D01*
X225965184Y-107500634D01*
X225976711Y-107492894D01*
X226101531Y-107345947D01*
X226105659Y-107340516D01*
X226312020Y-107036157D01*
X226315528Y-107030327D01*
X226487775Y-106705435D01*
X226490631Y-106699260D01*
X226626738Y-106357656D01*
X226628913Y-106351200D01*
X226727287Y-105996892D01*
X226728754Y-105990224D01*
X226788242Y-105627369D01*
X226788981Y-105620572D01*
X226808888Y-105253412D01*
X226808888Y-105246588D01*
X226788981Y-104879427D01*
X226788242Y-104872630D01*
X226728754Y-104509775D01*
X226727287Y-104503107D01*
X226628913Y-104148799D01*
X226626738Y-104142343D01*
X226490631Y-103800739D01*
X226487775Y-103794564D01*
X226315528Y-103469672D01*
X226312020Y-103463842D01*
X226105659Y-103159483D01*
X226101531Y-103154052D01*
X225976711Y-103007103D01*
X225965184Y-102999364D01*
X225953063Y-103006145D01*
X223720939Y-105238270D01*
X223714167Y-105250000D01*
X222985832Y-105250000D01*
X222979060Y-105238270D01*
X220746934Y-103006144D01*
X220734814Y-102999363D01*
X220723288Y-103007103D01*
X220598469Y-103154051D01*
X220594338Y-103159485D01*
X220387979Y-103463842D01*
X220384471Y-103469672D01*
X220212224Y-103794564D01*
X220209368Y-103800739D01*
X220073261Y-104142343D01*
X220071086Y-104148799D01*
X219972712Y-104503107D01*
X219971245Y-104509775D01*
X219911757Y-104872630D01*
X219911018Y-104879427D01*
X219891112Y-105246588D01*
X219891112Y-105253412D01*
X185188888Y-105253412D01*
X185188888Y-105246588D01*
X185168981Y-104879427D01*
X185168242Y-104872630D01*
X185108754Y-104509775D01*
X185107287Y-104503107D01*
X185042459Y-104269620D01*
X193847922Y-104269620D01*
X193848451Y-104281061D01*
X193884546Y-104407918D01*
X193888734Y-104418729D01*
X193974742Y-104591456D01*
X193980850Y-104601321D01*
X194097126Y-104755296D01*
X194104944Y-104763872D01*
X194247533Y-104893859D01*
X194256796Y-104900854D01*
X194420846Y-105002428D01*
X194431228Y-105007598D01*
X194611146Y-105077299D01*
X194622307Y-105080475D01*
X194652358Y-105086092D01*
X194663559Y-105085704D01*
X194666000Y-105074763D01*
X195174000Y-105074763D01*
X195176440Y-105085704D01*
X195187641Y-105086092D01*
X195217692Y-105080475D01*
X195228853Y-105077299D01*
X195408771Y-105007598D01*
X195419153Y-105002428D01*
X195583203Y-104900854D01*
X195592466Y-104893859D01*
X195735055Y-104763872D01*
X195742873Y-104755296D01*
X195859149Y-104601321D01*
X195865257Y-104591456D01*
X195951265Y-104418729D01*
X195955453Y-104407918D01*
X195991548Y-104281061D01*
X195992077Y-104269620D01*
X196387922Y-104269620D01*
X196388451Y-104281061D01*
X196424546Y-104407918D01*
X196428734Y-104418729D01*
X196514742Y-104591456D01*
X196520850Y-104601321D01*
X196637126Y-104755296D01*
X196644944Y-104763872D01*
X196787533Y-104893859D01*
X196796796Y-104900854D01*
X196960846Y-105002428D01*
X196971228Y-105007598D01*
X197151146Y-105077299D01*
X197162307Y-105080475D01*
X197192358Y-105086092D01*
X197203559Y-105085704D01*
X197206000Y-105074763D01*
X197714000Y-105074763D01*
X197716440Y-105085704D01*
X197727641Y-105086092D01*
X197757692Y-105080475D01*
X197768853Y-105077299D01*
X197948771Y-105007598D01*
X197959153Y-105002428D01*
X198123203Y-104900854D01*
X198132466Y-104893859D01*
X198275055Y-104763872D01*
X198282873Y-104755296D01*
X198399149Y-104601321D01*
X198405257Y-104591456D01*
X198491265Y-104418729D01*
X198495453Y-104407918D01*
X198531548Y-104281061D01*
X198532077Y-104269620D01*
X198927922Y-104269620D01*
X198928451Y-104281061D01*
X198964546Y-104407918D01*
X198968734Y-104418729D01*
X199054742Y-104591456D01*
X199060850Y-104601321D01*
X199177126Y-104755296D01*
X199184944Y-104763872D01*
X199327533Y-104893859D01*
X199336796Y-104900854D01*
X199500846Y-105002428D01*
X199511228Y-105007598D01*
X199691146Y-105077299D01*
X199702307Y-105080475D01*
X199732358Y-105086092D01*
X199743559Y-105085704D01*
X199746000Y-105074763D01*
X200254000Y-105074763D01*
X200256440Y-105085704D01*
X200267641Y-105086092D01*
X200297692Y-105080475D01*
X200308853Y-105077299D01*
X200488771Y-105007598D01*
X200499153Y-105002428D01*
X200663203Y-104900854D01*
X200672466Y-104893859D01*
X200815055Y-104763872D01*
X200822873Y-104755296D01*
X200939149Y-104601321D01*
X200945257Y-104591456D01*
X201031265Y-104418729D01*
X201035453Y-104407918D01*
X201071548Y-104281061D01*
X201072077Y-104269620D01*
X201467922Y-104269620D01*
X201468451Y-104281061D01*
X201504546Y-104407918D01*
X201508734Y-104418729D01*
X201594742Y-104591456D01*
X201600850Y-104601321D01*
X201717126Y-104755296D01*
X201724944Y-104763872D01*
X201867533Y-104893859D01*
X201876796Y-104900854D01*
X202040846Y-105002428D01*
X202051228Y-105007598D01*
X202231146Y-105077299D01*
X202242307Y-105080475D01*
X202272358Y-105086092D01*
X202283559Y-105085704D01*
X202286000Y-105074763D01*
X202794000Y-105074763D01*
X202796440Y-105085704D01*
X202807641Y-105086092D01*
X202837692Y-105080475D01*
X202848853Y-105077299D01*
X203028771Y-105007598D01*
X203039153Y-105002428D01*
X203203203Y-104900854D01*
X203212466Y-104893859D01*
X203355055Y-104763872D01*
X203362873Y-104755296D01*
X203479149Y-104601321D01*
X203485257Y-104591456D01*
X203571265Y-104418729D01*
X203575453Y-104407918D01*
X203611548Y-104281061D01*
X203612077Y-104269620D01*
X204007922Y-104269620D01*
X204008451Y-104281061D01*
X204044546Y-104407918D01*
X204048734Y-104418729D01*
X204134742Y-104591456D01*
X204140850Y-104601321D01*
X204257126Y-104755296D01*
X204264944Y-104763872D01*
X204407533Y-104893859D01*
X204416796Y-104900854D01*
X204580846Y-105002428D01*
X204591228Y-105007598D01*
X204771146Y-105077299D01*
X204782307Y-105080475D01*
X204812358Y-105086092D01*
X204823559Y-105085704D01*
X204826000Y-105074763D01*
X205334000Y-105074763D01*
X205336440Y-105085704D01*
X205347641Y-105086092D01*
X205377692Y-105080475D01*
X205388853Y-105077299D01*
X205568771Y-105007598D01*
X205579153Y-105002428D01*
X205743203Y-104900854D01*
X205752466Y-104893859D01*
X205895055Y-104763872D01*
X205902873Y-104755296D01*
X206019149Y-104601321D01*
X206025257Y-104591456D01*
X206111265Y-104418729D01*
X206115453Y-104407918D01*
X206151548Y-104281061D01*
X206152077Y-104269620D01*
X206547922Y-104269620D01*
X206548451Y-104281061D01*
X206584546Y-104407918D01*
X206588734Y-104418729D01*
X206674742Y-104591456D01*
X206680850Y-104601321D01*
X206797126Y-104755296D01*
X206804944Y-104763872D01*
X206947533Y-104893859D01*
X206956796Y-104900854D01*
X207120846Y-105002428D01*
X207131228Y-105007598D01*
X207311146Y-105077299D01*
X207322307Y-105080475D01*
X207352358Y-105086092D01*
X207363559Y-105085704D01*
X207366000Y-105074763D01*
X207874000Y-105074763D01*
X207876440Y-105085704D01*
X207887641Y-105086092D01*
X207917692Y-105080475D01*
X207928853Y-105077299D01*
X208108771Y-105007598D01*
X208119153Y-105002428D01*
X208283203Y-104900854D01*
X208292466Y-104893859D01*
X208435055Y-104763872D01*
X208442873Y-104755296D01*
X208559149Y-104601321D01*
X208565257Y-104591456D01*
X208651265Y-104418729D01*
X208655453Y-104407918D01*
X208691548Y-104281061D01*
X208692077Y-104269620D01*
X208680933Y-104267000D01*
X207890590Y-104267000D01*
X207877506Y-104270506D01*
X207874000Y-104283590D01*
X207874000Y-105074763D01*
X207366000Y-105074763D01*
X207366000Y-104283590D01*
X207362493Y-104270506D01*
X207349410Y-104267000D01*
X206559067Y-104267000D01*
X206547922Y-104269620D01*
X206152077Y-104269620D01*
X206140933Y-104267000D01*
X205350590Y-104267000D01*
X205337506Y-104270506D01*
X205334000Y-104283590D01*
X205334000Y-105074763D01*
X204826000Y-105074763D01*
X204826000Y-104283590D01*
X204822493Y-104270506D01*
X204809410Y-104267000D01*
X204019067Y-104267000D01*
X204007922Y-104269620D01*
X203612077Y-104269620D01*
X203600933Y-104267000D01*
X202810590Y-104267000D01*
X202797506Y-104270506D01*
X202794000Y-104283590D01*
X202794000Y-105074763D01*
X202286000Y-105074763D01*
X202286000Y-104283590D01*
X202282493Y-104270506D01*
X202269410Y-104267000D01*
X201479067Y-104267000D01*
X201467922Y-104269620D01*
X201072077Y-104269620D01*
X201060933Y-104267000D01*
X200270590Y-104267000D01*
X200257506Y-104270506D01*
X200254000Y-104283590D01*
X200254000Y-105074763D01*
X199746000Y-105074763D01*
X199746000Y-104283590D01*
X199742493Y-104270506D01*
X199729410Y-104267000D01*
X198939067Y-104267000D01*
X198927922Y-104269620D01*
X198532077Y-104269620D01*
X198520933Y-104267000D01*
X197730590Y-104267000D01*
X197717506Y-104270506D01*
X197714000Y-104283590D01*
X197714000Y-105074763D01*
X197206000Y-105074763D01*
X197206000Y-104283590D01*
X197202493Y-104270506D01*
X197189410Y-104267000D01*
X196399067Y-104267000D01*
X196387922Y-104269620D01*
X195992077Y-104269620D01*
X195980933Y-104267000D01*
X195190590Y-104267000D01*
X195177506Y-104270506D01*
X195174000Y-104283590D01*
X195174000Y-105074763D01*
X194666000Y-105074763D01*
X194666000Y-104283590D01*
X194662493Y-104270506D01*
X194649410Y-104267000D01*
X193859067Y-104267000D01*
X193847922Y-104269620D01*
X185042459Y-104269620D01*
X185008913Y-104148799D01*
X185006738Y-104142343D01*
X184870631Y-103800739D01*
X184867775Y-103794564D01*
X184847531Y-103756379D01*
X193847922Y-103756379D01*
X193859067Y-103759000D01*
X194649410Y-103759000D01*
X194662493Y-103755493D01*
X194666000Y-103742410D01*
X195174000Y-103742410D01*
X195177506Y-103755493D01*
X195190590Y-103759000D01*
X195980933Y-103759000D01*
X195992077Y-103756379D01*
X196387922Y-103756379D01*
X196399067Y-103759000D01*
X197189410Y-103759000D01*
X197202493Y-103755493D01*
X197206000Y-103742410D01*
X197714000Y-103742410D01*
X197717506Y-103755493D01*
X197730590Y-103759000D01*
X198520933Y-103759000D01*
X198532077Y-103756379D01*
X198927922Y-103756379D01*
X198939067Y-103759000D01*
X199729410Y-103759000D01*
X199742493Y-103755493D01*
X199746000Y-103742410D01*
X200254000Y-103742410D01*
X200257506Y-103755493D01*
X200270590Y-103759000D01*
X201060933Y-103759000D01*
X201072077Y-103756379D01*
X201467922Y-103756379D01*
X201479067Y-103759000D01*
X202269410Y-103759000D01*
X202282493Y-103755493D01*
X202286000Y-103742410D01*
X202794000Y-103742410D01*
X202797506Y-103755493D01*
X202810590Y-103759000D01*
X203600933Y-103759000D01*
X203612077Y-103756379D01*
X204007922Y-103756379D01*
X204019067Y-103759000D01*
X204809410Y-103759000D01*
X204822493Y-103755493D01*
X204826000Y-103742410D01*
X205334000Y-103742410D01*
X205337506Y-103755493D01*
X205350590Y-103759000D01*
X206140933Y-103759000D01*
X206152077Y-103756379D01*
X206547922Y-103756379D01*
X206559067Y-103759000D01*
X207349410Y-103759000D01*
X207362493Y-103755493D01*
X207366000Y-103742410D01*
X207874000Y-103742410D01*
X207877506Y-103755493D01*
X207890590Y-103759000D01*
X208680933Y-103759000D01*
X208692077Y-103756379D01*
X208691548Y-103744938D01*
X208655453Y-103618081D01*
X208651265Y-103607270D01*
X208565257Y-103434543D01*
X208559149Y-103424678D01*
X208442873Y-103270703D01*
X208435055Y-103262127D01*
X208292466Y-103132140D01*
X208283203Y-103125145D01*
X208119153Y-103023571D01*
X208108771Y-103018401D01*
X207928853Y-102948700D01*
X207917692Y-102945524D01*
X207887641Y-102939907D01*
X207876440Y-102940295D01*
X207874000Y-102951237D01*
X207874000Y-103742410D01*
X207366000Y-103742410D01*
X207366000Y-102951237D01*
X207363559Y-102940295D01*
X207352358Y-102939907D01*
X207322307Y-102945524D01*
X207311146Y-102948700D01*
X207131228Y-103018401D01*
X207120846Y-103023571D01*
X206956796Y-103125145D01*
X206947533Y-103132140D01*
X206804944Y-103262127D01*
X206797126Y-103270703D01*
X206680850Y-103424678D01*
X206674742Y-103434543D01*
X206588734Y-103607270D01*
X206584546Y-103618081D01*
X206548451Y-103744938D01*
X206547922Y-103756379D01*
X206152077Y-103756379D01*
X206151548Y-103744938D01*
X206115453Y-103618081D01*
X206111265Y-103607270D01*
X206025257Y-103434543D01*
X206019149Y-103424678D01*
X205902873Y-103270703D01*
X205895055Y-103262127D01*
X205752466Y-103132140D01*
X205743203Y-103125145D01*
X205579153Y-103023571D01*
X205568771Y-103018401D01*
X205388853Y-102948700D01*
X205377692Y-102945524D01*
X205347641Y-102939907D01*
X205336440Y-102940295D01*
X205334000Y-102951237D01*
X205334000Y-103742410D01*
X204826000Y-103742410D01*
X204826000Y-102951237D01*
X204823559Y-102940295D01*
X204812358Y-102939907D01*
X204782307Y-102945524D01*
X204771146Y-102948700D01*
X204591228Y-103018401D01*
X204580846Y-103023571D01*
X204416796Y-103125145D01*
X204407533Y-103132140D01*
X204264944Y-103262127D01*
X204257126Y-103270703D01*
X204140850Y-103424678D01*
X204134742Y-103434543D01*
X204048734Y-103607270D01*
X204044546Y-103618081D01*
X204008451Y-103744938D01*
X204007922Y-103756379D01*
X203612077Y-103756379D01*
X203611548Y-103744938D01*
X203575453Y-103618081D01*
X203571265Y-103607270D01*
X203485257Y-103434543D01*
X203479149Y-103424678D01*
X203362873Y-103270703D01*
X203355055Y-103262127D01*
X203212466Y-103132140D01*
X203203203Y-103125145D01*
X203039153Y-103023571D01*
X203028771Y-103018401D01*
X202848853Y-102948700D01*
X202837692Y-102945524D01*
X202807641Y-102939907D01*
X202796440Y-102940295D01*
X202794000Y-102951237D01*
X202794000Y-103742410D01*
X202286000Y-103742410D01*
X202286000Y-102951237D01*
X202283559Y-102940295D01*
X202272358Y-102939907D01*
X202242307Y-102945524D01*
X202231146Y-102948700D01*
X202051228Y-103018401D01*
X202040846Y-103023571D01*
X201876796Y-103125145D01*
X201867533Y-103132140D01*
X201724944Y-103262127D01*
X201717126Y-103270703D01*
X201600850Y-103424678D01*
X201594742Y-103434543D01*
X201508734Y-103607270D01*
X201504546Y-103618081D01*
X201468451Y-103744938D01*
X201467922Y-103756379D01*
X201072077Y-103756379D01*
X201071548Y-103744938D01*
X201035453Y-103618081D01*
X201031265Y-103607270D01*
X200945257Y-103434543D01*
X200939149Y-103424678D01*
X200822873Y-103270703D01*
X200815055Y-103262127D01*
X200672466Y-103132140D01*
X200663203Y-103125145D01*
X200499153Y-103023571D01*
X200488771Y-103018401D01*
X200308853Y-102948700D01*
X200297692Y-102945524D01*
X200267641Y-102939907D01*
X200256440Y-102940295D01*
X200254000Y-102951237D01*
X200254000Y-103742410D01*
X199746000Y-103742410D01*
X199746000Y-102951237D01*
X199743559Y-102940295D01*
X199732358Y-102939907D01*
X199702307Y-102945524D01*
X199691146Y-102948700D01*
X199511228Y-103018401D01*
X199500846Y-103023571D01*
X199336796Y-103125145D01*
X199327533Y-103132140D01*
X199184944Y-103262127D01*
X199177126Y-103270703D01*
X199060850Y-103424678D01*
X199054742Y-103434543D01*
X198968734Y-103607270D01*
X198964546Y-103618081D01*
X198928451Y-103744938D01*
X198927922Y-103756379D01*
X198532077Y-103756379D01*
X198531548Y-103744938D01*
X198495453Y-103618081D01*
X198491265Y-103607270D01*
X198405257Y-103434543D01*
X198399149Y-103424678D01*
X198282873Y-103270703D01*
X198275055Y-103262127D01*
X198132466Y-103132140D01*
X198123203Y-103125145D01*
X197959153Y-103023571D01*
X197948771Y-103018401D01*
X197768853Y-102948700D01*
X197757692Y-102945524D01*
X197727641Y-102939907D01*
X197716440Y-102940295D01*
X197714000Y-102951237D01*
X197714000Y-103742410D01*
X197206000Y-103742410D01*
X197206000Y-102951237D01*
X197203559Y-102940295D01*
X197192358Y-102939907D01*
X197162307Y-102945524D01*
X197151146Y-102948700D01*
X196971228Y-103018401D01*
X196960846Y-103023571D01*
X196796796Y-103125145D01*
X196787533Y-103132140D01*
X196644944Y-103262127D01*
X196637126Y-103270703D01*
X196520850Y-103424678D01*
X196514742Y-103434543D01*
X196428734Y-103607270D01*
X196424546Y-103618081D01*
X196388451Y-103744938D01*
X196387922Y-103756379D01*
X195992077Y-103756379D01*
X195991548Y-103744938D01*
X195955453Y-103618081D01*
X195951265Y-103607270D01*
X195865257Y-103434543D01*
X195859149Y-103424678D01*
X195742873Y-103270703D01*
X195735055Y-103262127D01*
X195592466Y-103132140D01*
X195583203Y-103125145D01*
X195419153Y-103023571D01*
X195408771Y-103018401D01*
X195228853Y-102948700D01*
X195217692Y-102945524D01*
X195187641Y-102939907D01*
X195176440Y-102940295D01*
X195174000Y-102951237D01*
X195174000Y-103742410D01*
X194666000Y-103742410D01*
X194666000Y-102951237D01*
X194663559Y-102940295D01*
X194652358Y-102939907D01*
X194622307Y-102945524D01*
X194611146Y-102948700D01*
X194431228Y-103018401D01*
X194420846Y-103023571D01*
X194256796Y-103125145D01*
X194247533Y-103132140D01*
X194104944Y-103262127D01*
X194097126Y-103270703D01*
X193980850Y-103424678D01*
X193974742Y-103434543D01*
X193888734Y-103607270D01*
X193884546Y-103618081D01*
X193848451Y-103744938D01*
X193847922Y-103756379D01*
X184847531Y-103756379D01*
X184695528Y-103469672D01*
X184692020Y-103463842D01*
X184485659Y-103159483D01*
X184481531Y-103154052D01*
X184356711Y-103007103D01*
X184345184Y-102999364D01*
X184333063Y-103006145D01*
X182100939Y-105238270D01*
X182094167Y-105249999D01*
X181365831Y-105249999D01*
X181359060Y-105238270D01*
X179126934Y-103006144D01*
X179114814Y-102999363D01*
X179103288Y-103007103D01*
X178978469Y-103154051D01*
X178974338Y-103159485D01*
X178767979Y-103463842D01*
X178764471Y-103469672D01*
X178592224Y-103794564D01*
X178589368Y-103800739D01*
X178453261Y-104142343D01*
X178451086Y-104148799D01*
X178352712Y-104503107D01*
X178351245Y-104509775D01*
X178291757Y-104872630D01*
X178291018Y-104879427D01*
X178271112Y-105246588D01*
X178271112Y-105253412D01*
X177740500Y-105253412D01*
X177740500Y-102632086D01*
X179476382Y-102632086D01*
X179483161Y-102643951D01*
X181718270Y-104879060D01*
X181730000Y-104885832D01*
X181741729Y-104879060D01*
X183976836Y-102643952D01*
X183983615Y-102632087D01*
X183976517Y-102620409D01*
X183971840Y-102615979D01*
X183966636Y-102611558D01*
X183673910Y-102389033D01*
X183668254Y-102385198D01*
X183353178Y-102195623D01*
X183347169Y-102192437D01*
X183013434Y-102038035D01*
X183007092Y-102035509D01*
X182658636Y-101918100D01*
X182652064Y-101916275D01*
X182292947Y-101837228D01*
X182286223Y-101836126D01*
X181920668Y-101796369D01*
X181913855Y-101796000D01*
X181546145Y-101796000D01*
X181539331Y-101796369D01*
X181173776Y-101836126D01*
X181167052Y-101837228D01*
X180807935Y-101916275D01*
X180801363Y-101918100D01*
X180452907Y-102035509D01*
X180446565Y-102038035D01*
X180112830Y-102192437D01*
X180106821Y-102195623D01*
X179791745Y-102385198D01*
X179786089Y-102389033D01*
X179493360Y-102611560D01*
X179488167Y-102615971D01*
X179483478Y-102620412D01*
X179476382Y-102632086D01*
X177740500Y-102632086D01*
X177740500Y-98001620D01*
X179387922Y-98001620D01*
X179388451Y-98013061D01*
X179424546Y-98139918D01*
X179428734Y-98150729D01*
X179514742Y-98323456D01*
X179520850Y-98333321D01*
X179637126Y-98487296D01*
X179644944Y-98495872D01*
X179787533Y-98625859D01*
X179796796Y-98632854D01*
X179960846Y-98734428D01*
X179971228Y-98739598D01*
X180151146Y-98809299D01*
X180162307Y-98812475D01*
X180192358Y-98818092D01*
X180203559Y-98817704D01*
X180206000Y-98806763D01*
X180714000Y-98806763D01*
X180716440Y-98817704D01*
X180727641Y-98818092D01*
X180757692Y-98812475D01*
X180768853Y-98809299D01*
X180948771Y-98739598D01*
X180959153Y-98734428D01*
X181123203Y-98632854D01*
X181132466Y-98625859D01*
X181145599Y-98613887D01*
X181895500Y-98613887D01*
X181895501Y-98620066D01*
X181896707Y-98626132D01*
X181896708Y-98626137D01*
X181905876Y-98672231D01*
X181910266Y-98694301D01*
X181966516Y-98778484D01*
X182050699Y-98834734D01*
X182124933Y-98849500D01*
X183875066Y-98849499D01*
X183949301Y-98834734D01*
X184033484Y-98778484D01*
X184089734Y-98694301D01*
X184104500Y-98620067D01*
X184104499Y-96869934D01*
X184089734Y-96795699D01*
X184033484Y-96711516D01*
X183974786Y-96672295D01*
X183959620Y-96662161D01*
X183959619Y-96662160D01*
X183949301Y-96655266D01*
X183937131Y-96652845D01*
X183937128Y-96652844D01*
X183881135Y-96641707D01*
X183875067Y-96640500D01*
X183868880Y-96640500D01*
X182131122Y-96640500D01*
X182131111Y-96640500D01*
X182124934Y-96640501D01*
X182118868Y-96641707D01*
X182118862Y-96641708D01*
X182062874Y-96652844D01*
X182062871Y-96652844D01*
X182050699Y-96655266D01*
X182040379Y-96662161D01*
X182040378Y-96662162D01*
X181976832Y-96704622D01*
X181976829Y-96704624D01*
X181966516Y-96711516D01*
X181959624Y-96721829D01*
X181959622Y-96721832D01*
X181917161Y-96785379D01*
X181917159Y-96785381D01*
X181910266Y-96795699D01*
X181907845Y-96807867D01*
X181907844Y-96807871D01*
X181896707Y-96863864D01*
X181895500Y-96869933D01*
X181895500Y-96876118D01*
X181895500Y-96876119D01*
X181895500Y-98613877D01*
X181895500Y-98613887D01*
X181145599Y-98613887D01*
X181275055Y-98495872D01*
X181282873Y-98487296D01*
X181399149Y-98333321D01*
X181405257Y-98323456D01*
X181491265Y-98150729D01*
X181495453Y-98139918D01*
X181531548Y-98013061D01*
X181532077Y-98001620D01*
X181520933Y-97999000D01*
X180730590Y-97999000D01*
X180717506Y-98002506D01*
X180714000Y-98015590D01*
X180714000Y-98806763D01*
X180206000Y-98806763D01*
X180206000Y-98015590D01*
X180202493Y-98002506D01*
X180189410Y-97999000D01*
X179399067Y-97999000D01*
X179387922Y-98001620D01*
X177740500Y-98001620D01*
X177740500Y-97488379D01*
X179387922Y-97488379D01*
X179399067Y-97491000D01*
X180189410Y-97491000D01*
X180202493Y-97487493D01*
X180206000Y-97474410D01*
X180714000Y-97474410D01*
X180717506Y-97487493D01*
X180730590Y-97491000D01*
X181520933Y-97491000D01*
X181532077Y-97488379D01*
X181531548Y-97476938D01*
X181495453Y-97350081D01*
X181491265Y-97339270D01*
X181405257Y-97166543D01*
X181399149Y-97156678D01*
X181282873Y-97002703D01*
X181275055Y-96994127D01*
X181132466Y-96864140D01*
X181123203Y-96857145D01*
X180959153Y-96755571D01*
X180948771Y-96750401D01*
X180768853Y-96680700D01*
X180757692Y-96677524D01*
X180727641Y-96671907D01*
X180716440Y-96672295D01*
X180714000Y-96683237D01*
X180714000Y-97474410D01*
X180206000Y-97474410D01*
X180206000Y-96683237D01*
X180203559Y-96672295D01*
X180192358Y-96671907D01*
X180162307Y-96677524D01*
X180151146Y-96680700D01*
X179971228Y-96750401D01*
X179960846Y-96755571D01*
X179796796Y-96857145D01*
X179787533Y-96864140D01*
X179644944Y-96994127D01*
X179637126Y-97002703D01*
X179520850Y-97156678D01*
X179514742Y-97166543D01*
X179428734Y-97339270D01*
X179424546Y-97350081D01*
X179388451Y-97476938D01*
X179387922Y-97488379D01*
X177740500Y-97488379D01*
X177740500Y-95461620D01*
X179387922Y-95461620D01*
X179388451Y-95473061D01*
X179424546Y-95599918D01*
X179428734Y-95610729D01*
X179514742Y-95783456D01*
X179520850Y-95793321D01*
X179637126Y-95947296D01*
X179644944Y-95955872D01*
X179787533Y-96085859D01*
X179796796Y-96092854D01*
X179960846Y-96194428D01*
X179971228Y-96199598D01*
X180151146Y-96269299D01*
X180162307Y-96272475D01*
X180192358Y-96278092D01*
X180203559Y-96277704D01*
X180206000Y-96266763D01*
X180714000Y-96266763D01*
X180716440Y-96277704D01*
X180727641Y-96278092D01*
X180757692Y-96272475D01*
X180768853Y-96269299D01*
X180948771Y-96199598D01*
X180959153Y-96194428D01*
X181123203Y-96092854D01*
X181132466Y-96085859D01*
X181275055Y-95955872D01*
X181282873Y-95947296D01*
X181399149Y-95793321D01*
X181405257Y-95783456D01*
X181491265Y-95610729D01*
X181495453Y-95599918D01*
X181531548Y-95473061D01*
X181532077Y-95461620D01*
X181520933Y-95459000D01*
X180730590Y-95459000D01*
X180717506Y-95462506D01*
X180714000Y-95475590D01*
X180714000Y-96266763D01*
X180206000Y-96266763D01*
X180206000Y-95475590D01*
X180202493Y-95462506D01*
X180189410Y-95459000D01*
X179399067Y-95459000D01*
X179387922Y-95461620D01*
X177740500Y-95461620D01*
X177740500Y-95205000D01*
X181890768Y-95205000D01*
X181891306Y-95210806D01*
X181909116Y-95403015D01*
X181909117Y-95403025D01*
X181909655Y-95408821D01*
X181911249Y-95414426D01*
X181911250Y-95414427D01*
X181964026Y-95599918D01*
X181965672Y-95605701D01*
X181968271Y-95610920D01*
X182043819Y-95762642D01*
X182056912Y-95788935D01*
X182060421Y-95793582D01*
X182060422Y-95793583D01*
X182176755Y-95947634D01*
X182176759Y-95947638D01*
X182180268Y-95952285D01*
X182184570Y-95956207D01*
X182184573Y-95956210D01*
X182272466Y-96036335D01*
X182331538Y-96090186D01*
X182505573Y-96197944D01*
X182696444Y-96271888D01*
X182897653Y-96309500D01*
X183096519Y-96309500D01*
X183102347Y-96309500D01*
X183303556Y-96271888D01*
X183494427Y-96197944D01*
X183668462Y-96090186D01*
X183819732Y-95952285D01*
X183943088Y-95788935D01*
X184034328Y-95605701D01*
X184090345Y-95408821D01*
X184109232Y-95205000D01*
X184102335Y-95130569D01*
X184090883Y-95006984D01*
X184090882Y-95006983D01*
X184090345Y-95001179D01*
X184034328Y-94804299D01*
X183943088Y-94621065D01*
X183891464Y-94552704D01*
X183823244Y-94462365D01*
X183823241Y-94462361D01*
X183819732Y-94457715D01*
X183815429Y-94453792D01*
X183815426Y-94453789D01*
X183672764Y-94323736D01*
X183672765Y-94323736D01*
X183668462Y-94319814D01*
X183663512Y-94316749D01*
X183663508Y-94316746D01*
X183499387Y-94215127D01*
X183499386Y-94215126D01*
X183494427Y-94212056D01*
X183438785Y-94190500D01*
X183308989Y-94140216D01*
X183308981Y-94140213D01*
X183303556Y-94138112D01*
X183297839Y-94137043D01*
X183297831Y-94137041D01*
X183108073Y-94101570D01*
X183108069Y-94101569D01*
X183102347Y-94100500D01*
X182897653Y-94100500D01*
X182891931Y-94101569D01*
X182891926Y-94101570D01*
X182702168Y-94137041D01*
X182702157Y-94137043D01*
X182696444Y-94138112D01*
X182691021Y-94140212D01*
X182691010Y-94140216D01*
X182511011Y-94209949D01*
X182511008Y-94209950D01*
X182505573Y-94212056D01*
X182500617Y-94215124D01*
X182500612Y-94215127D01*
X182336491Y-94316746D01*
X182336481Y-94316752D01*
X182331538Y-94319814D01*
X182327239Y-94323732D01*
X182327235Y-94323736D01*
X182184573Y-94453789D01*
X182184565Y-94453797D01*
X182180268Y-94457715D01*
X182176763Y-94462355D01*
X182176755Y-94462365D01*
X182060422Y-94616416D01*
X182060418Y-94616421D01*
X182056912Y-94621065D01*
X182054317Y-94626274D01*
X182054314Y-94626281D01*
X181974997Y-94785572D01*
X181965672Y-94804299D01*
X181964078Y-94809899D01*
X181964076Y-94809906D01*
X181918446Y-94970280D01*
X181909655Y-95001179D01*
X181909118Y-95006972D01*
X181909116Y-95006984D01*
X181897665Y-95130569D01*
X181890768Y-95205000D01*
X177740500Y-95205000D01*
X177740500Y-94948379D01*
X179387922Y-94948379D01*
X179399067Y-94951000D01*
X180189410Y-94951000D01*
X180202493Y-94947493D01*
X180206000Y-94934410D01*
X180714000Y-94934410D01*
X180717506Y-94947493D01*
X180730590Y-94951000D01*
X181520933Y-94951000D01*
X181532077Y-94948379D01*
X181531548Y-94936938D01*
X181495453Y-94810081D01*
X181491265Y-94799270D01*
X181405257Y-94626543D01*
X181399149Y-94616678D01*
X181282873Y-94462703D01*
X181275055Y-94454127D01*
X181132466Y-94324140D01*
X181123203Y-94317145D01*
X180959153Y-94215571D01*
X180948771Y-94210401D01*
X180768853Y-94140700D01*
X180757692Y-94137524D01*
X180727641Y-94131907D01*
X180716440Y-94132295D01*
X180714000Y-94143237D01*
X180714000Y-94934410D01*
X180206000Y-94934410D01*
X180206000Y-94143237D01*
X180203559Y-94132295D01*
X180192358Y-94131907D01*
X180162307Y-94137524D01*
X180151146Y-94140700D01*
X179971228Y-94210401D01*
X179960846Y-94215571D01*
X179796796Y-94317145D01*
X179787533Y-94324140D01*
X179644944Y-94454127D01*
X179637126Y-94462703D01*
X179520850Y-94616678D01*
X179514742Y-94626543D01*
X179428734Y-94799270D01*
X179424546Y-94810081D01*
X179388451Y-94936938D01*
X179387922Y-94948379D01*
X177740500Y-94948379D01*
X177740500Y-92921620D01*
X179387922Y-92921620D01*
X179388451Y-92933061D01*
X179424546Y-93059918D01*
X179428734Y-93070729D01*
X179514742Y-93243456D01*
X179520850Y-93253321D01*
X179637126Y-93407296D01*
X179644944Y-93415872D01*
X179787533Y-93545859D01*
X179796796Y-93552854D01*
X179960846Y-93654428D01*
X179971228Y-93659598D01*
X180151146Y-93729299D01*
X180162307Y-93732475D01*
X180192358Y-93738092D01*
X180203559Y-93737704D01*
X180206000Y-93726763D01*
X180714000Y-93726763D01*
X180716440Y-93737704D01*
X180727641Y-93738092D01*
X180757692Y-93732475D01*
X180768853Y-93729299D01*
X180948771Y-93659598D01*
X180959153Y-93654428D01*
X181123203Y-93552854D01*
X181132466Y-93545859D01*
X181275055Y-93415872D01*
X181282873Y-93407296D01*
X181399149Y-93253321D01*
X181405257Y-93243456D01*
X181491265Y-93070729D01*
X181495453Y-93059918D01*
X181531548Y-92933061D01*
X181532077Y-92921620D01*
X181520933Y-92919000D01*
X180730590Y-92919000D01*
X180717506Y-92922506D01*
X180714000Y-92935590D01*
X180714000Y-93726763D01*
X180206000Y-93726763D01*
X180206000Y-92935590D01*
X180202493Y-92922506D01*
X180189410Y-92919000D01*
X179399067Y-92919000D01*
X179387922Y-92921620D01*
X177740500Y-92921620D01*
X177740500Y-92665000D01*
X181890768Y-92665000D01*
X181891306Y-92670806D01*
X181909116Y-92863015D01*
X181909117Y-92863025D01*
X181909655Y-92868821D01*
X181911249Y-92874426D01*
X181911250Y-92874427D01*
X181964026Y-93059918D01*
X181965672Y-93065701D01*
X182056912Y-93248935D01*
X182060421Y-93253582D01*
X182060422Y-93253583D01*
X182176755Y-93407634D01*
X182176759Y-93407638D01*
X182180268Y-93412285D01*
X182184570Y-93416207D01*
X182184573Y-93416210D01*
X182271945Y-93495860D01*
X182331538Y-93550186D01*
X182336489Y-93553251D01*
X182336491Y-93553253D01*
X182410992Y-93599382D01*
X182505573Y-93657944D01*
X182696444Y-93731888D01*
X182897653Y-93769500D01*
X183096519Y-93769500D01*
X183102347Y-93769500D01*
X183303556Y-93731888D01*
X183494427Y-93657944D01*
X183668462Y-93550186D01*
X183819732Y-93412285D01*
X183943088Y-93248935D01*
X184034328Y-93065701D01*
X184090345Y-92868821D01*
X184109232Y-92665000D01*
X184098121Y-92545094D01*
X184090883Y-92466984D01*
X184090882Y-92466983D01*
X184090345Y-92461179D01*
X184034328Y-92264299D01*
X183943088Y-92081065D01*
X183891464Y-92012704D01*
X183823244Y-91922365D01*
X183823241Y-91922361D01*
X183819732Y-91917715D01*
X183815429Y-91913792D01*
X183815426Y-91913789D01*
X183672764Y-91783736D01*
X183672765Y-91783736D01*
X183668462Y-91779814D01*
X183663512Y-91776749D01*
X183663508Y-91776746D01*
X183499387Y-91675127D01*
X183499386Y-91675126D01*
X183494427Y-91672056D01*
X183460628Y-91658962D01*
X183308989Y-91600216D01*
X183308981Y-91600213D01*
X183303556Y-91598112D01*
X183297839Y-91597043D01*
X183297831Y-91597041D01*
X183108073Y-91561570D01*
X183108069Y-91561569D01*
X183102347Y-91560500D01*
X182897653Y-91560500D01*
X182891931Y-91561569D01*
X182891926Y-91561570D01*
X182702168Y-91597041D01*
X182702157Y-91597043D01*
X182696444Y-91598112D01*
X182691021Y-91600212D01*
X182691010Y-91600216D01*
X182511011Y-91669949D01*
X182511008Y-91669950D01*
X182505573Y-91672056D01*
X182500617Y-91675124D01*
X182500612Y-91675127D01*
X182336491Y-91776746D01*
X182336481Y-91776752D01*
X182331538Y-91779814D01*
X182327239Y-91783732D01*
X182327235Y-91783736D01*
X182184573Y-91913789D01*
X182184565Y-91913797D01*
X182180268Y-91917715D01*
X182176763Y-91922355D01*
X182176755Y-91922365D01*
X182060422Y-92076416D01*
X182060418Y-92076421D01*
X182056912Y-92081065D01*
X182054317Y-92086274D01*
X182054314Y-92086281D01*
X181968271Y-92259079D01*
X181965672Y-92264299D01*
X181964078Y-92269899D01*
X181964076Y-92269906D01*
X181911250Y-92455572D01*
X181909655Y-92461179D01*
X181909118Y-92466972D01*
X181909116Y-92466984D01*
X181892069Y-92650956D01*
X181890768Y-92665000D01*
X177740500Y-92665000D01*
X177740500Y-92408379D01*
X179387922Y-92408379D01*
X179399067Y-92411000D01*
X180189410Y-92411000D01*
X180202493Y-92407493D01*
X180206000Y-92394410D01*
X180714000Y-92394410D01*
X180717506Y-92407493D01*
X180730590Y-92411000D01*
X181520933Y-92411000D01*
X181532077Y-92408379D01*
X181531548Y-92396938D01*
X181495453Y-92270081D01*
X181491265Y-92259270D01*
X181405257Y-92086543D01*
X181399149Y-92076678D01*
X181282873Y-91922703D01*
X181275055Y-91914127D01*
X181132466Y-91784140D01*
X181123203Y-91777145D01*
X180959153Y-91675571D01*
X180948771Y-91670401D01*
X180768853Y-91600700D01*
X180757692Y-91597524D01*
X180727641Y-91591907D01*
X180716440Y-91592295D01*
X180714000Y-91603237D01*
X180714000Y-92394410D01*
X180206000Y-92394410D01*
X180206000Y-91603237D01*
X180203559Y-91592295D01*
X180192358Y-91591907D01*
X180162307Y-91597524D01*
X180151146Y-91600700D01*
X179971228Y-91670401D01*
X179960846Y-91675571D01*
X179796796Y-91777145D01*
X179787533Y-91784140D01*
X179644944Y-91914127D01*
X179637126Y-91922703D01*
X179520850Y-92076678D01*
X179514742Y-92086543D01*
X179428734Y-92259270D01*
X179424546Y-92270081D01*
X179388451Y-92396938D01*
X179387922Y-92408379D01*
X177740500Y-92408379D01*
X177740500Y-90381620D01*
X179387922Y-90381620D01*
X179388451Y-90393061D01*
X179424546Y-90519918D01*
X179428734Y-90530729D01*
X179514742Y-90703456D01*
X179520850Y-90713321D01*
X179637126Y-90867296D01*
X179644944Y-90875872D01*
X179787533Y-91005859D01*
X179796796Y-91012854D01*
X179960846Y-91114428D01*
X179971228Y-91119598D01*
X180151146Y-91189299D01*
X180162307Y-91192475D01*
X180192358Y-91198092D01*
X180203559Y-91197704D01*
X180206000Y-91186763D01*
X180714000Y-91186763D01*
X180716440Y-91197704D01*
X180727641Y-91198092D01*
X180757692Y-91192475D01*
X180768853Y-91189299D01*
X180948771Y-91119598D01*
X180959153Y-91114428D01*
X181123203Y-91012854D01*
X181132466Y-91005859D01*
X181275055Y-90875872D01*
X181282873Y-90867296D01*
X181399149Y-90713321D01*
X181405257Y-90703456D01*
X181491265Y-90530729D01*
X181495453Y-90519918D01*
X181531548Y-90393061D01*
X181532077Y-90381620D01*
X181520933Y-90379000D01*
X180730590Y-90379000D01*
X180717506Y-90382506D01*
X180714000Y-90395590D01*
X180714000Y-91186763D01*
X180206000Y-91186763D01*
X180206000Y-90395590D01*
X180202493Y-90382506D01*
X180189410Y-90379000D01*
X179399067Y-90379000D01*
X179387922Y-90381620D01*
X177740500Y-90381620D01*
X177740500Y-90125000D01*
X181890768Y-90125000D01*
X181891306Y-90130806D01*
X181909116Y-90323015D01*
X181909117Y-90323025D01*
X181909655Y-90328821D01*
X181911249Y-90334426D01*
X181911250Y-90334427D01*
X181964026Y-90519918D01*
X181965672Y-90525701D01*
X182056912Y-90708935D01*
X182060421Y-90713582D01*
X182060422Y-90713583D01*
X182176755Y-90867634D01*
X182176759Y-90867638D01*
X182180268Y-90872285D01*
X182184570Y-90876207D01*
X182184573Y-90876210D01*
X182272466Y-90956335D01*
X182331538Y-91010186D01*
X182336489Y-91013251D01*
X182336491Y-91013253D01*
X182380437Y-91040463D01*
X182505573Y-91117944D01*
X182696444Y-91191888D01*
X182897653Y-91229500D01*
X183096519Y-91229500D01*
X183102347Y-91229500D01*
X183303556Y-91191888D01*
X183494427Y-91117944D01*
X183668462Y-91010186D01*
X183819732Y-90872285D01*
X183943088Y-90708935D01*
X184034328Y-90525701D01*
X184090345Y-90328821D01*
X184109232Y-90125000D01*
X184090345Y-89921179D01*
X184034328Y-89724299D01*
X183943088Y-89541065D01*
X183891464Y-89472704D01*
X183823244Y-89382365D01*
X183823241Y-89382361D01*
X183819732Y-89377715D01*
X183815429Y-89373792D01*
X183815426Y-89373789D01*
X183672764Y-89243736D01*
X183672765Y-89243736D01*
X183668462Y-89239814D01*
X183663512Y-89236749D01*
X183663508Y-89236746D01*
X183499387Y-89135127D01*
X183499386Y-89135126D01*
X183494427Y-89132056D01*
X183408047Y-89098592D01*
X183308989Y-89060216D01*
X183308981Y-89060213D01*
X183303556Y-89058112D01*
X183297839Y-89057043D01*
X183297831Y-89057041D01*
X183108073Y-89021570D01*
X183108069Y-89021569D01*
X183102347Y-89020500D01*
X182897653Y-89020500D01*
X182891931Y-89021569D01*
X182891926Y-89021570D01*
X182702168Y-89057041D01*
X182702157Y-89057043D01*
X182696444Y-89058112D01*
X182691021Y-89060212D01*
X182691010Y-89060216D01*
X182511011Y-89129949D01*
X182511008Y-89129950D01*
X182505573Y-89132056D01*
X182500617Y-89135124D01*
X182500612Y-89135127D01*
X182336491Y-89236746D01*
X182336481Y-89236752D01*
X182331538Y-89239814D01*
X182327239Y-89243732D01*
X182327235Y-89243736D01*
X182184573Y-89373789D01*
X182184565Y-89373797D01*
X182180268Y-89377715D01*
X182176763Y-89382355D01*
X182176755Y-89382365D01*
X182060422Y-89536416D01*
X182060418Y-89536421D01*
X182056912Y-89541065D01*
X182054317Y-89546274D01*
X182054314Y-89546281D01*
X181968711Y-89718195D01*
X181965672Y-89724299D01*
X181964078Y-89729899D01*
X181964076Y-89729906D01*
X181919030Y-89888228D01*
X181909655Y-89921179D01*
X181909118Y-89926972D01*
X181909116Y-89926984D01*
X181891453Y-90117605D01*
X181890768Y-90125000D01*
X177740500Y-90125000D01*
X177740500Y-89868379D01*
X179387922Y-89868379D01*
X179399067Y-89871000D01*
X180189410Y-89871000D01*
X180202493Y-89867493D01*
X180206000Y-89854410D01*
X180714000Y-89854410D01*
X180717506Y-89867493D01*
X180730590Y-89871000D01*
X181520933Y-89871000D01*
X181532077Y-89868379D01*
X181531548Y-89856938D01*
X181495453Y-89730081D01*
X181491265Y-89719270D01*
X181405257Y-89546543D01*
X181399149Y-89536678D01*
X181282873Y-89382703D01*
X181275055Y-89374127D01*
X181132466Y-89244140D01*
X181123203Y-89237145D01*
X180959153Y-89135571D01*
X180948771Y-89130401D01*
X180768853Y-89060700D01*
X180757692Y-89057524D01*
X180727641Y-89051907D01*
X180716440Y-89052295D01*
X180714000Y-89063237D01*
X180714000Y-89854410D01*
X180206000Y-89854410D01*
X180206000Y-89063237D01*
X180203559Y-89052295D01*
X180192358Y-89051907D01*
X180162307Y-89057524D01*
X180151146Y-89060700D01*
X179971228Y-89130401D01*
X179960846Y-89135571D01*
X179796796Y-89237145D01*
X179787533Y-89244140D01*
X179644944Y-89374127D01*
X179637126Y-89382703D01*
X179520850Y-89536678D01*
X179514742Y-89546543D01*
X179428734Y-89719270D01*
X179424546Y-89730081D01*
X179388451Y-89856938D01*
X179387922Y-89868379D01*
X177740500Y-89868379D01*
X177740500Y-87841620D01*
X179387922Y-87841620D01*
X179388451Y-87853061D01*
X179424546Y-87979918D01*
X179428734Y-87990729D01*
X179514742Y-88163456D01*
X179520850Y-88173321D01*
X179637126Y-88327296D01*
X179644944Y-88335872D01*
X179787533Y-88465859D01*
X179796796Y-88472854D01*
X179960846Y-88574428D01*
X179971228Y-88579598D01*
X180151146Y-88649299D01*
X180162307Y-88652475D01*
X180192358Y-88658092D01*
X180203559Y-88657704D01*
X180206000Y-88646763D01*
X180714000Y-88646763D01*
X180716440Y-88657704D01*
X180727641Y-88658092D01*
X180757692Y-88652475D01*
X180768853Y-88649299D01*
X180948771Y-88579598D01*
X180959153Y-88574428D01*
X181123203Y-88472854D01*
X181132466Y-88465859D01*
X181275055Y-88335872D01*
X181282873Y-88327296D01*
X181399149Y-88173321D01*
X181405257Y-88163456D01*
X181491265Y-87990729D01*
X181495453Y-87979918D01*
X181531548Y-87853061D01*
X181532077Y-87841620D01*
X181520933Y-87839000D01*
X180730590Y-87839000D01*
X180717506Y-87842506D01*
X180714000Y-87855590D01*
X180714000Y-88646763D01*
X180206000Y-88646763D01*
X180206000Y-87855590D01*
X180202493Y-87842506D01*
X180189410Y-87839000D01*
X179399067Y-87839000D01*
X179387922Y-87841620D01*
X177740500Y-87841620D01*
X177740500Y-87585000D01*
X181890768Y-87585000D01*
X181891306Y-87590806D01*
X181909116Y-87783015D01*
X181909117Y-87783025D01*
X181909655Y-87788821D01*
X181911249Y-87794426D01*
X181911250Y-87794427D01*
X181964026Y-87979918D01*
X181965672Y-87985701D01*
X181968271Y-87990920D01*
X182036581Y-88128106D01*
X182056912Y-88168935D01*
X182060421Y-88173582D01*
X182060422Y-88173583D01*
X182176755Y-88327634D01*
X182176759Y-88327638D01*
X182180268Y-88332285D01*
X182184570Y-88336207D01*
X182184573Y-88336210D01*
X182272466Y-88416335D01*
X182331538Y-88470186D01*
X182505573Y-88577944D01*
X182696444Y-88651888D01*
X182897653Y-88689500D01*
X183096519Y-88689500D01*
X183102347Y-88689500D01*
X183303556Y-88651888D01*
X183494427Y-88577944D01*
X183668462Y-88470186D01*
X183819732Y-88332285D01*
X183943088Y-88168935D01*
X184034328Y-87985701D01*
X184090345Y-87788821D01*
X184109232Y-87585000D01*
X184090345Y-87381179D01*
X184034328Y-87184299D01*
X183943088Y-87001065D01*
X183900444Y-86944595D01*
X183823244Y-86842365D01*
X183823241Y-86842361D01*
X183819732Y-86837715D01*
X183815429Y-86833792D01*
X183815426Y-86833789D01*
X183672764Y-86703736D01*
X183672765Y-86703736D01*
X183668462Y-86699814D01*
X183663512Y-86696749D01*
X183663508Y-86696746D01*
X183499387Y-86595127D01*
X183499386Y-86595126D01*
X183494427Y-86592056D01*
X183438785Y-86570500D01*
X183308989Y-86520216D01*
X183308981Y-86520213D01*
X183303556Y-86518112D01*
X183297839Y-86517043D01*
X183297831Y-86517041D01*
X183108073Y-86481570D01*
X183108069Y-86481569D01*
X183102347Y-86480500D01*
X182897653Y-86480500D01*
X182891931Y-86481569D01*
X182891926Y-86481570D01*
X182702168Y-86517041D01*
X182702157Y-86517043D01*
X182696444Y-86518112D01*
X182691021Y-86520212D01*
X182691010Y-86520216D01*
X182511011Y-86589949D01*
X182511008Y-86589950D01*
X182505573Y-86592056D01*
X182500617Y-86595124D01*
X182500612Y-86595127D01*
X182336491Y-86696746D01*
X182336481Y-86696752D01*
X182331538Y-86699814D01*
X182327239Y-86703732D01*
X182327235Y-86703736D01*
X182184573Y-86833789D01*
X182184565Y-86833797D01*
X182180268Y-86837715D01*
X182176763Y-86842355D01*
X182176755Y-86842365D01*
X182060422Y-86996416D01*
X182060418Y-86996421D01*
X182056912Y-87001065D01*
X182054317Y-87006274D01*
X182054314Y-87006281D01*
X181986452Y-87142567D01*
X181965672Y-87184299D01*
X181964078Y-87189899D01*
X181964076Y-87189906D01*
X181923932Y-87331000D01*
X181909655Y-87381179D01*
X181909118Y-87386972D01*
X181909116Y-87386984D01*
X181901315Y-87471179D01*
X181890768Y-87585000D01*
X177740500Y-87585000D01*
X177740500Y-87328379D01*
X179387922Y-87328379D01*
X179399067Y-87331000D01*
X180189410Y-87331000D01*
X180202493Y-87327493D01*
X180206000Y-87314410D01*
X180714000Y-87314410D01*
X180717506Y-87327493D01*
X180730590Y-87331000D01*
X181520933Y-87331000D01*
X181532077Y-87328379D01*
X181531548Y-87316938D01*
X181495453Y-87190081D01*
X181491265Y-87179270D01*
X181405257Y-87006543D01*
X181399149Y-86996678D01*
X181282873Y-86842703D01*
X181275055Y-86834127D01*
X181132466Y-86704140D01*
X181123203Y-86697145D01*
X180959153Y-86595571D01*
X180948771Y-86590401D01*
X180768853Y-86520700D01*
X180757692Y-86517524D01*
X180727641Y-86511907D01*
X180716440Y-86512295D01*
X180714000Y-86523237D01*
X180714000Y-87314410D01*
X180206000Y-87314410D01*
X180206000Y-86523237D01*
X180203559Y-86512295D01*
X180192358Y-86511907D01*
X180162307Y-86517524D01*
X180151146Y-86520700D01*
X179971228Y-86590401D01*
X179960846Y-86595571D01*
X179796796Y-86697145D01*
X179787533Y-86704140D01*
X179644944Y-86834127D01*
X179637126Y-86842703D01*
X179520850Y-86996678D01*
X179514742Y-87006543D01*
X179428734Y-87179270D01*
X179424546Y-87190081D01*
X179388451Y-87316938D01*
X179387922Y-87328379D01*
X177740500Y-87328379D01*
X177740500Y-85301620D01*
X179387922Y-85301620D01*
X179388451Y-85313061D01*
X179424546Y-85439918D01*
X179428734Y-85450729D01*
X179514742Y-85623456D01*
X179520850Y-85633321D01*
X179637126Y-85787296D01*
X179644944Y-85795872D01*
X179787533Y-85925859D01*
X179796796Y-85932854D01*
X179960846Y-86034428D01*
X179971228Y-86039598D01*
X180151146Y-86109299D01*
X180162307Y-86112475D01*
X180192358Y-86118092D01*
X180203559Y-86117704D01*
X180206000Y-86106763D01*
X180714000Y-86106763D01*
X180716440Y-86117704D01*
X180727641Y-86118092D01*
X180757692Y-86112475D01*
X180768853Y-86109299D01*
X180948771Y-86039598D01*
X180959153Y-86034428D01*
X181123203Y-85932854D01*
X181132466Y-85925859D01*
X181275055Y-85795872D01*
X181282873Y-85787296D01*
X181399149Y-85633321D01*
X181405257Y-85623456D01*
X181491265Y-85450729D01*
X181495453Y-85439918D01*
X181531548Y-85313061D01*
X181532077Y-85301620D01*
X181520933Y-85299000D01*
X180730590Y-85299000D01*
X180717506Y-85302506D01*
X180714000Y-85315590D01*
X180714000Y-86106763D01*
X180206000Y-86106763D01*
X180206000Y-85315590D01*
X180202493Y-85302506D01*
X180189410Y-85299000D01*
X179399067Y-85299000D01*
X179387922Y-85301620D01*
X177740500Y-85301620D01*
X177740500Y-85045000D01*
X181890768Y-85045000D01*
X181891306Y-85050806D01*
X181909116Y-85243015D01*
X181909117Y-85243025D01*
X181909655Y-85248821D01*
X181911249Y-85254426D01*
X181911250Y-85254427D01*
X181964026Y-85439918D01*
X181965672Y-85445701D01*
X182056912Y-85628935D01*
X182060421Y-85633582D01*
X182060422Y-85633583D01*
X182176755Y-85787634D01*
X182176759Y-85787638D01*
X182180268Y-85792285D01*
X182184570Y-85796207D01*
X182184573Y-85796210D01*
X182268752Y-85872949D01*
X182331538Y-85930186D01*
X182505573Y-86037944D01*
X182696444Y-86111888D01*
X182897653Y-86149500D01*
X183096519Y-86149500D01*
X183102347Y-86149500D01*
X183303556Y-86111888D01*
X183494427Y-86037944D01*
X183668462Y-85930186D01*
X183819732Y-85792285D01*
X183943088Y-85628935D01*
X184034328Y-85445701D01*
X184090345Y-85248821D01*
X184109232Y-85045000D01*
X184090345Y-84841179D01*
X184034328Y-84644299D01*
X183943088Y-84461065D01*
X183891464Y-84392704D01*
X183823244Y-84302365D01*
X183823241Y-84302361D01*
X183819732Y-84297715D01*
X183815429Y-84293792D01*
X183815426Y-84293789D01*
X183672764Y-84163736D01*
X183672765Y-84163736D01*
X183668462Y-84159814D01*
X183663512Y-84156749D01*
X183663508Y-84156746D01*
X183499387Y-84055127D01*
X183499386Y-84055126D01*
X183494427Y-84052056D01*
X183438785Y-84030500D01*
X183308989Y-83980216D01*
X183308981Y-83980213D01*
X183303556Y-83978112D01*
X183297839Y-83977043D01*
X183297831Y-83977041D01*
X183108073Y-83941570D01*
X183108069Y-83941569D01*
X183102347Y-83940500D01*
X182897653Y-83940500D01*
X182891931Y-83941569D01*
X182891926Y-83941570D01*
X182702168Y-83977041D01*
X182702157Y-83977043D01*
X182696444Y-83978112D01*
X182691021Y-83980212D01*
X182691010Y-83980216D01*
X182511011Y-84049949D01*
X182511008Y-84049950D01*
X182505573Y-84052056D01*
X182500617Y-84055124D01*
X182500612Y-84055127D01*
X182336491Y-84156746D01*
X182336481Y-84156752D01*
X182331538Y-84159814D01*
X182327239Y-84163732D01*
X182327235Y-84163736D01*
X182184573Y-84293789D01*
X182184565Y-84293797D01*
X182180268Y-84297715D01*
X182176763Y-84302355D01*
X182176755Y-84302365D01*
X182060422Y-84456416D01*
X182060418Y-84456421D01*
X182056912Y-84461065D01*
X182054317Y-84466274D01*
X182054314Y-84466281D01*
X182009369Y-84556543D01*
X181965672Y-84644299D01*
X181964078Y-84649899D01*
X181964076Y-84649906D01*
X181911250Y-84835572D01*
X181909655Y-84841179D01*
X181909118Y-84846972D01*
X181909116Y-84846984D01*
X181901315Y-84931179D01*
X181890768Y-85045000D01*
X177740500Y-85045000D01*
X177740500Y-84788379D01*
X179387922Y-84788379D01*
X179399067Y-84791000D01*
X180189410Y-84791000D01*
X180202493Y-84787493D01*
X180206000Y-84774410D01*
X180714000Y-84774410D01*
X180717506Y-84787493D01*
X180730590Y-84791000D01*
X181520933Y-84791000D01*
X181532077Y-84788379D01*
X181531548Y-84776938D01*
X181495453Y-84650081D01*
X181491265Y-84639270D01*
X181405257Y-84466543D01*
X181399149Y-84456678D01*
X181282873Y-84302703D01*
X181275055Y-84294127D01*
X181132466Y-84164140D01*
X181123203Y-84157145D01*
X180959153Y-84055571D01*
X180948771Y-84050401D01*
X180768853Y-83980700D01*
X180757692Y-83977524D01*
X180727641Y-83971907D01*
X180716440Y-83972295D01*
X180714000Y-83983237D01*
X180714000Y-84774410D01*
X180206000Y-84774410D01*
X180206000Y-83983237D01*
X180203559Y-83972295D01*
X180192358Y-83971907D01*
X180162307Y-83977524D01*
X180151146Y-83980700D01*
X179971228Y-84050401D01*
X179960846Y-84055571D01*
X179796796Y-84157145D01*
X179787533Y-84164140D01*
X179644944Y-84294127D01*
X179637126Y-84302703D01*
X179520850Y-84456678D01*
X179514742Y-84466543D01*
X179428734Y-84639270D01*
X179424546Y-84650081D01*
X179388451Y-84776938D01*
X179387922Y-84788379D01*
X177740500Y-84788379D01*
X177740500Y-82505000D01*
X179350768Y-82505000D01*
X179351306Y-82510806D01*
X179369116Y-82703015D01*
X179369117Y-82703025D01*
X179369655Y-82708821D01*
X179371249Y-82714426D01*
X179371250Y-82714427D01*
X179422368Y-82894091D01*
X179425672Y-82905701D01*
X179428271Y-82910920D01*
X179478306Y-83011405D01*
X179516912Y-83088935D01*
X179520421Y-83093582D01*
X179520422Y-83093583D01*
X179636755Y-83247634D01*
X179636759Y-83247638D01*
X179640268Y-83252285D01*
X179644570Y-83256207D01*
X179644573Y-83256210D01*
X179728752Y-83332949D01*
X179791538Y-83390186D01*
X179965573Y-83497944D01*
X180156444Y-83571888D01*
X180357653Y-83609500D01*
X180556519Y-83609500D01*
X180562347Y-83609500D01*
X180763556Y-83571888D01*
X180954427Y-83497944D01*
X181128462Y-83390186D01*
X181279732Y-83252285D01*
X181403088Y-83088935D01*
X181494328Y-82905701D01*
X181550345Y-82708821D01*
X181569232Y-82505000D01*
X181890768Y-82505000D01*
X181891306Y-82510806D01*
X181909116Y-82703015D01*
X181909117Y-82703025D01*
X181909655Y-82708821D01*
X181911249Y-82714426D01*
X181911250Y-82714427D01*
X181962368Y-82894091D01*
X181965672Y-82905701D01*
X181968271Y-82910920D01*
X182018306Y-83011405D01*
X182056912Y-83088935D01*
X182060421Y-83093582D01*
X182060422Y-83093583D01*
X182176755Y-83247634D01*
X182176759Y-83247638D01*
X182180268Y-83252285D01*
X182184570Y-83256207D01*
X182184573Y-83256210D01*
X182268752Y-83332949D01*
X182331538Y-83390186D01*
X182505573Y-83497944D01*
X182696444Y-83571888D01*
X182897653Y-83609500D01*
X183096519Y-83609500D01*
X183102347Y-83609500D01*
X183303556Y-83571888D01*
X183494427Y-83497944D01*
X183668462Y-83390186D01*
X183819732Y-83252285D01*
X183943088Y-83088935D01*
X184010111Y-82954334D01*
X184056570Y-82903373D01*
X184122900Y-82884500D01*
X184790616Y-82884500D01*
X184838834Y-82894091D01*
X184879711Y-82921405D01*
X189194595Y-87236289D01*
X189221909Y-87277166D01*
X189231500Y-87325384D01*
X189231500Y-98245574D01*
X189228818Y-98271430D01*
X189226581Y-98282100D01*
X189227872Y-98292457D01*
X189227872Y-98292460D01*
X189230532Y-98313796D01*
X189230858Y-98319057D01*
X189231070Y-98319040D01*
X189231500Y-98324233D01*
X189231500Y-98329443D01*
X189232356Y-98334574D01*
X189232357Y-98334584D01*
X189234956Y-98350160D01*
X189235705Y-98355303D01*
X189240788Y-98396074D01*
X189242248Y-98407783D01*
X189245777Y-98415003D01*
X189247100Y-98422927D01*
X189252065Y-98432102D01*
X189252066Y-98432104D01*
X189272255Y-98469410D01*
X189274638Y-98474039D01*
X189293290Y-98512193D01*
X189293292Y-98512196D01*
X189297874Y-98521568D01*
X189303558Y-98527252D01*
X189307381Y-98534316D01*
X189315061Y-98541386D01*
X189346284Y-98570129D01*
X189350041Y-98573735D01*
X189686581Y-98910275D01*
X189702963Y-98930446D01*
X189708932Y-98939582D01*
X189717173Y-98945996D01*
X189734139Y-98959201D01*
X189738089Y-98962689D01*
X189738226Y-98962528D01*
X189742199Y-98965893D01*
X189745886Y-98969580D01*
X189750126Y-98972607D01*
X189762978Y-98981783D01*
X189767155Y-98984898D01*
X189808881Y-99017375D01*
X189816480Y-99019984D01*
X189823020Y-99024653D01*
X189833022Y-99027630D01*
X189833023Y-99027631D01*
X189857186Y-99034824D01*
X189867606Y-99037926D01*
X189873697Y-99039739D01*
X189878656Y-99041328D01*
X189928673Y-99058500D01*
X189936713Y-99058500D01*
X189944409Y-99060791D01*
X189997199Y-99058607D01*
X190002405Y-99058500D01*
X205297976Y-99058500D01*
X205323832Y-99061181D01*
X205334502Y-99063419D01*
X205366197Y-99059468D01*
X205371455Y-99059141D01*
X205371438Y-99058930D01*
X205376625Y-99058500D01*
X205381845Y-99058500D01*
X205402589Y-99055037D01*
X205407652Y-99054299D01*
X205460185Y-99047752D01*
X205467405Y-99044222D01*
X205475329Y-99042900D01*
X205521813Y-99017742D01*
X205526445Y-99015359D01*
X205573970Y-98992126D01*
X205579654Y-98986441D01*
X205586718Y-98982619D01*
X205622545Y-98943699D01*
X205626103Y-98939991D01*
X205871392Y-98694703D01*
X205912270Y-98667390D01*
X205960488Y-98657799D01*
X210238343Y-98657799D01*
X210296898Y-98672231D01*
X210333568Y-98704718D01*
X210334918Y-98703523D01*
X210339970Y-98709226D01*
X210344301Y-98715500D01*
X210463270Y-98820898D01*
X210604006Y-98894762D01*
X210758328Y-98932799D01*
X210909653Y-98932799D01*
X210917270Y-98932799D01*
X211071592Y-98894762D01*
X211212328Y-98820898D01*
X211331297Y-98715500D01*
X211421586Y-98584694D01*
X211477948Y-98436081D01*
X211497106Y-98278299D01*
X211477948Y-98120517D01*
X211444763Y-98033015D01*
X211424288Y-97979028D01*
X211424287Y-97979026D01*
X211421586Y-97971904D01*
X211343705Y-97859075D01*
X211335397Y-97835000D01*
X220970768Y-97835000D01*
X220971306Y-97840806D01*
X220989116Y-98033015D01*
X220989117Y-98033025D01*
X220989655Y-98038821D01*
X220991249Y-98044426D01*
X220991250Y-98044427D01*
X221042170Y-98223395D01*
X221045672Y-98235701D01*
X221088425Y-98321561D01*
X221131791Y-98408652D01*
X221136912Y-98418935D01*
X221140421Y-98423582D01*
X221140422Y-98423583D01*
X221256755Y-98577634D01*
X221256759Y-98577638D01*
X221260268Y-98582285D01*
X221264570Y-98586207D01*
X221264573Y-98586210D01*
X221301713Y-98620067D01*
X221411538Y-98720186D01*
X221416489Y-98723251D01*
X221416491Y-98723253D01*
X221442889Y-98739598D01*
X221585573Y-98827944D01*
X221739512Y-98887580D01*
X221758049Y-98894762D01*
X221776444Y-98901888D01*
X221977653Y-98939500D01*
X222176519Y-98939500D01*
X222182347Y-98939500D01*
X222383556Y-98901888D01*
X222574427Y-98827944D01*
X222748462Y-98720186D01*
X222899732Y-98582285D01*
X223023088Y-98418935D01*
X223114328Y-98235701D01*
X223170345Y-98038821D01*
X223181632Y-97917018D01*
X223188694Y-97840806D01*
X223189232Y-97835000D01*
X223172087Y-97649982D01*
X223170883Y-97636984D01*
X223170882Y-97636983D01*
X223170345Y-97631179D01*
X223114328Y-97434299D01*
X223023088Y-97251065D01*
X222956259Y-97162569D01*
X222903244Y-97092365D01*
X222903241Y-97092361D01*
X222899732Y-97087715D01*
X222895429Y-97083792D01*
X222895426Y-97083789D01*
X222752764Y-96953736D01*
X222752765Y-96953736D01*
X222748462Y-96949814D01*
X222743512Y-96946749D01*
X222743508Y-96946746D01*
X222579387Y-96845127D01*
X222579386Y-96845126D01*
X222574427Y-96842056D01*
X222550898Y-96832941D01*
X222388989Y-96770216D01*
X222388981Y-96770213D01*
X222383556Y-96768112D01*
X222377839Y-96767043D01*
X222377831Y-96767041D01*
X222188073Y-96731570D01*
X222188069Y-96731569D01*
X222182347Y-96730500D01*
X221977653Y-96730500D01*
X221971931Y-96731569D01*
X221971926Y-96731570D01*
X221782168Y-96767041D01*
X221782157Y-96767043D01*
X221776444Y-96768112D01*
X221771021Y-96770212D01*
X221771010Y-96770216D01*
X221591011Y-96839949D01*
X221591008Y-96839950D01*
X221585573Y-96842056D01*
X221580617Y-96845124D01*
X221580612Y-96845127D01*
X221416491Y-96946746D01*
X221416481Y-96946752D01*
X221411538Y-96949814D01*
X221407239Y-96953732D01*
X221407235Y-96953736D01*
X221264573Y-97083789D01*
X221264565Y-97083797D01*
X221260268Y-97087715D01*
X221256763Y-97092355D01*
X221256755Y-97092365D01*
X221140422Y-97246416D01*
X221140418Y-97246421D01*
X221136912Y-97251065D01*
X221134317Y-97256274D01*
X221134314Y-97256281D01*
X221076412Y-97372564D01*
X221045672Y-97434299D01*
X221044078Y-97439899D01*
X221044076Y-97439906D01*
X220991250Y-97625572D01*
X220989655Y-97631179D01*
X220989118Y-97636972D01*
X220989116Y-97636984D01*
X220973300Y-97807677D01*
X220970768Y-97835000D01*
X211335397Y-97835000D01*
X211321632Y-97795108D01*
X211335834Y-97728945D01*
X211382217Y-97679672D01*
X211447402Y-97661500D01*
X214960574Y-97661500D01*
X214986430Y-97664181D01*
X214997100Y-97666419D01*
X215028795Y-97662468D01*
X215034053Y-97662141D01*
X215034036Y-97661930D01*
X215039223Y-97661500D01*
X215044443Y-97661500D01*
X215065187Y-97658037D01*
X215070250Y-97657299D01*
X215122783Y-97650752D01*
X215130003Y-97647222D01*
X215137927Y-97645900D01*
X215184411Y-97620742D01*
X215189043Y-97618359D01*
X215236568Y-97595126D01*
X215242252Y-97589441D01*
X215249316Y-97585619D01*
X215285154Y-97546687D01*
X215288713Y-97542979D01*
X217536692Y-95295000D01*
X220970768Y-95295000D01*
X220971306Y-95300806D01*
X220989116Y-95493015D01*
X220989117Y-95493025D01*
X220989655Y-95498821D01*
X220991249Y-95504426D01*
X220991250Y-95504427D01*
X221044026Y-95689918D01*
X221045672Y-95695701D01*
X221048271Y-95700920D01*
X221114020Y-95832963D01*
X221136912Y-95878935D01*
X221140421Y-95883582D01*
X221140422Y-95883583D01*
X221256755Y-96037634D01*
X221256759Y-96037638D01*
X221260268Y-96042285D01*
X221264570Y-96046207D01*
X221264573Y-96046210D01*
X221312813Y-96090186D01*
X221411538Y-96180186D01*
X221416489Y-96183251D01*
X221416491Y-96183253D01*
X221440218Y-96197944D01*
X221585573Y-96287944D01*
X221776444Y-96361888D01*
X221977653Y-96399500D01*
X222176519Y-96399500D01*
X222182347Y-96399500D01*
X222383556Y-96361888D01*
X222574427Y-96287944D01*
X222748462Y-96180186D01*
X222899732Y-96042285D01*
X223023088Y-95878935D01*
X223114328Y-95695701D01*
X223155322Y-95551620D01*
X223547922Y-95551620D01*
X223548451Y-95563061D01*
X223584546Y-95689918D01*
X223588734Y-95700729D01*
X223674742Y-95873456D01*
X223680850Y-95883321D01*
X223797126Y-96037296D01*
X223804944Y-96045872D01*
X223947533Y-96175859D01*
X223956796Y-96182854D01*
X224120846Y-96284428D01*
X224131228Y-96289598D01*
X224311146Y-96359299D01*
X224322307Y-96362475D01*
X224352358Y-96368092D01*
X224363559Y-96367704D01*
X224366000Y-96356763D01*
X224366000Y-95565590D01*
X224362493Y-95552506D01*
X224349410Y-95549000D01*
X223559067Y-95549000D01*
X223547922Y-95551620D01*
X223155322Y-95551620D01*
X223170345Y-95498821D01*
X223189232Y-95295000D01*
X223188575Y-95287905D01*
X223170883Y-95096984D01*
X223170882Y-95096983D01*
X223170345Y-95091179D01*
X223155322Y-95038379D01*
X223547922Y-95038379D01*
X223559067Y-95041000D01*
X224349410Y-95041000D01*
X224362493Y-95037493D01*
X224366000Y-95024410D01*
X224366000Y-94233237D01*
X224363559Y-94222295D01*
X224352358Y-94221907D01*
X224322307Y-94227524D01*
X224311146Y-94230700D01*
X224131228Y-94300401D01*
X224120846Y-94305571D01*
X223956796Y-94407145D01*
X223947533Y-94414140D01*
X223804944Y-94544127D01*
X223797126Y-94552703D01*
X223680850Y-94706678D01*
X223674742Y-94716543D01*
X223588734Y-94889270D01*
X223584546Y-94900081D01*
X223548451Y-95026938D01*
X223547922Y-95038379D01*
X223155322Y-95038379D01*
X223114328Y-94894299D01*
X223023088Y-94711065D01*
X222955123Y-94621065D01*
X222903244Y-94552365D01*
X222903241Y-94552361D01*
X222899732Y-94547715D01*
X222895429Y-94543792D01*
X222895426Y-94543789D01*
X222790969Y-94448564D01*
X222748462Y-94409814D01*
X222743512Y-94406749D01*
X222743508Y-94406746D01*
X222579387Y-94305127D01*
X222579386Y-94305126D01*
X222574427Y-94302056D01*
X222527631Y-94283927D01*
X222388989Y-94230216D01*
X222388981Y-94230213D01*
X222383556Y-94228112D01*
X222377839Y-94227043D01*
X222377831Y-94227041D01*
X222188073Y-94191570D01*
X222188069Y-94191569D01*
X222182347Y-94190500D01*
X221977653Y-94190500D01*
X221971931Y-94191569D01*
X221971926Y-94191570D01*
X221782168Y-94227041D01*
X221782157Y-94227043D01*
X221776444Y-94228112D01*
X221771021Y-94230212D01*
X221771010Y-94230216D01*
X221591011Y-94299949D01*
X221591008Y-94299950D01*
X221585573Y-94302056D01*
X221580617Y-94305124D01*
X221580612Y-94305127D01*
X221416491Y-94406746D01*
X221416481Y-94406752D01*
X221411538Y-94409814D01*
X221407239Y-94413732D01*
X221407235Y-94413736D01*
X221264573Y-94543789D01*
X221264565Y-94543797D01*
X221260268Y-94547715D01*
X221256763Y-94552355D01*
X221256755Y-94552365D01*
X221140422Y-94706416D01*
X221140418Y-94706421D01*
X221136912Y-94711065D01*
X221134317Y-94716274D01*
X221134314Y-94716281D01*
X221048271Y-94889079D01*
X221045672Y-94894299D01*
X221044078Y-94899899D01*
X221044076Y-94899906D01*
X220991250Y-95085572D01*
X220989655Y-95091179D01*
X220989118Y-95096972D01*
X220989116Y-95096984D01*
X220971425Y-95287905D01*
X220970768Y-95295000D01*
X217536692Y-95295000D01*
X220076692Y-92755000D01*
X220970768Y-92755000D01*
X220971306Y-92760806D01*
X220989116Y-92953015D01*
X220989117Y-92953025D01*
X220989655Y-92958821D01*
X220991249Y-92964426D01*
X220991250Y-92964427D01*
X221044026Y-93149918D01*
X221045672Y-93155701D01*
X221048271Y-93160920D01*
X221130701Y-93326463D01*
X221136912Y-93338935D01*
X221140421Y-93343582D01*
X221140422Y-93343583D01*
X221256755Y-93497634D01*
X221256759Y-93497638D01*
X221260268Y-93502285D01*
X221264570Y-93506207D01*
X221264573Y-93506210D01*
X221311064Y-93548592D01*
X221411538Y-93640186D01*
X221416489Y-93643251D01*
X221416491Y-93643253D01*
X221440218Y-93657944D01*
X221585573Y-93747944D01*
X221776444Y-93821888D01*
X221977653Y-93859500D01*
X222176519Y-93859500D01*
X222182347Y-93859500D01*
X222383556Y-93821888D01*
X222574427Y-93747944D01*
X222748462Y-93640186D01*
X222899732Y-93502285D01*
X223023088Y-93338935D01*
X223114328Y-93155701D01*
X223155322Y-93011620D01*
X223547922Y-93011620D01*
X223548451Y-93023061D01*
X223584546Y-93149918D01*
X223588734Y-93160729D01*
X223674742Y-93333456D01*
X223680850Y-93343321D01*
X223797126Y-93497296D01*
X223804944Y-93505872D01*
X223947533Y-93635859D01*
X223956796Y-93642854D01*
X224120846Y-93744428D01*
X224131228Y-93749598D01*
X224311146Y-93819299D01*
X224322307Y-93822475D01*
X224352358Y-93828092D01*
X224363559Y-93827704D01*
X224366000Y-93816763D01*
X224366000Y-93025590D01*
X224362493Y-93012506D01*
X224349410Y-93009000D01*
X223559067Y-93009000D01*
X223547922Y-93011620D01*
X223155322Y-93011620D01*
X223170345Y-92958821D01*
X223189232Y-92755000D01*
X223170345Y-92551179D01*
X223155322Y-92498379D01*
X223547922Y-92498379D01*
X223559067Y-92501000D01*
X224349410Y-92501000D01*
X224362493Y-92497493D01*
X224366000Y-92484410D01*
X224366000Y-91693237D01*
X224363559Y-91682295D01*
X224352358Y-91681907D01*
X224322307Y-91687524D01*
X224311146Y-91690700D01*
X224131228Y-91760401D01*
X224120846Y-91765571D01*
X223956796Y-91867145D01*
X223947533Y-91874140D01*
X223804944Y-92004127D01*
X223797126Y-92012703D01*
X223680850Y-92166678D01*
X223674742Y-92176543D01*
X223588734Y-92349270D01*
X223584546Y-92360081D01*
X223548451Y-92486938D01*
X223547922Y-92498379D01*
X223155322Y-92498379D01*
X223114328Y-92354299D01*
X223023088Y-92171065D01*
X222964542Y-92093537D01*
X222903244Y-92012365D01*
X222903241Y-92012361D01*
X222899732Y-92007715D01*
X222895429Y-92003792D01*
X222895426Y-92003789D01*
X222782024Y-91900410D01*
X222748462Y-91869814D01*
X222743512Y-91866749D01*
X222743508Y-91866746D01*
X222579387Y-91765127D01*
X222579386Y-91765126D01*
X222574427Y-91762056D01*
X222473992Y-91723147D01*
X222388989Y-91690216D01*
X222388981Y-91690213D01*
X222383556Y-91688112D01*
X222377839Y-91687043D01*
X222377831Y-91687041D01*
X222188073Y-91651570D01*
X222188069Y-91651569D01*
X222182347Y-91650500D01*
X221977653Y-91650500D01*
X221971931Y-91651569D01*
X221971926Y-91651570D01*
X221782168Y-91687041D01*
X221782157Y-91687043D01*
X221776444Y-91688112D01*
X221771021Y-91690212D01*
X221771010Y-91690216D01*
X221591011Y-91759949D01*
X221591008Y-91759950D01*
X221585573Y-91762056D01*
X221580617Y-91765124D01*
X221580612Y-91765127D01*
X221416491Y-91866746D01*
X221416481Y-91866752D01*
X221411538Y-91869814D01*
X221407239Y-91873732D01*
X221407235Y-91873736D01*
X221264573Y-92003789D01*
X221264565Y-92003797D01*
X221260268Y-92007715D01*
X221256763Y-92012355D01*
X221256755Y-92012365D01*
X221140422Y-92166416D01*
X221140418Y-92166421D01*
X221136912Y-92171065D01*
X221134317Y-92176274D01*
X221134314Y-92176281D01*
X221049291Y-92347031D01*
X221045672Y-92354299D01*
X221044078Y-92359899D01*
X221044076Y-92359906D01*
X221003932Y-92501000D01*
X220989655Y-92551179D01*
X220989118Y-92556972D01*
X220989116Y-92556984D01*
X220971871Y-92743096D01*
X220970768Y-92755000D01*
X220076692Y-92755000D01*
X221555037Y-91276655D01*
X221595016Y-91249719D01*
X221642189Y-91239768D01*
X221689644Y-91248261D01*
X221713354Y-91257446D01*
X221771011Y-91279784D01*
X221771018Y-91279786D01*
X221776444Y-91281888D01*
X221977653Y-91319500D01*
X222176519Y-91319500D01*
X222182347Y-91319500D01*
X222383556Y-91281888D01*
X222574427Y-91207944D01*
X222748462Y-91100186D01*
X222899732Y-90962285D01*
X223023088Y-90798935D01*
X223114328Y-90615701D01*
X223155322Y-90471620D01*
X223547922Y-90471620D01*
X223548451Y-90483061D01*
X223584546Y-90609918D01*
X223588734Y-90620729D01*
X223674742Y-90793456D01*
X223680850Y-90803321D01*
X223797126Y-90957296D01*
X223804944Y-90965872D01*
X223947533Y-91095859D01*
X223956796Y-91102854D01*
X224120846Y-91204428D01*
X224131228Y-91209598D01*
X224311146Y-91279299D01*
X224322307Y-91282475D01*
X224352358Y-91288092D01*
X224363559Y-91287704D01*
X224366000Y-91276763D01*
X224366000Y-90485590D01*
X224362493Y-90472506D01*
X224349410Y-90469000D01*
X223559067Y-90469000D01*
X223547922Y-90471620D01*
X223155322Y-90471620D01*
X223170345Y-90418821D01*
X223189232Y-90215000D01*
X223170345Y-90011179D01*
X223155322Y-89958379D01*
X223547922Y-89958379D01*
X223559067Y-89961000D01*
X224349410Y-89961000D01*
X224362493Y-89957493D01*
X224366000Y-89944410D01*
X224366000Y-89153237D01*
X224363559Y-89142295D01*
X224352358Y-89141907D01*
X224322307Y-89147524D01*
X224311146Y-89150700D01*
X224131228Y-89220401D01*
X224120846Y-89225571D01*
X223956796Y-89327145D01*
X223947533Y-89334140D01*
X223804944Y-89464127D01*
X223797126Y-89472703D01*
X223680850Y-89626678D01*
X223674742Y-89636543D01*
X223588734Y-89809270D01*
X223584546Y-89820081D01*
X223548451Y-89946938D01*
X223547922Y-89958379D01*
X223155322Y-89958379D01*
X223114328Y-89814299D01*
X223023088Y-89631065D01*
X222976888Y-89569886D01*
X222903244Y-89472365D01*
X222903241Y-89472361D01*
X222899732Y-89467715D01*
X222895429Y-89463792D01*
X222895426Y-89463789D01*
X222752764Y-89333736D01*
X222752765Y-89333736D01*
X222748462Y-89329814D01*
X222743512Y-89326749D01*
X222743508Y-89326746D01*
X222579387Y-89225127D01*
X222579386Y-89225126D01*
X222574427Y-89222056D01*
X222550898Y-89212941D01*
X222388989Y-89150216D01*
X222388981Y-89150213D01*
X222383556Y-89148112D01*
X222377839Y-89147043D01*
X222377831Y-89147041D01*
X222188073Y-89111570D01*
X222188069Y-89111569D01*
X222182347Y-89110500D01*
X221977653Y-89110500D01*
X221971931Y-89111569D01*
X221971926Y-89111570D01*
X221782168Y-89147041D01*
X221782157Y-89147043D01*
X221776444Y-89148112D01*
X221771021Y-89150212D01*
X221771010Y-89150216D01*
X221591011Y-89219949D01*
X221591008Y-89219950D01*
X221585573Y-89222056D01*
X221580617Y-89225124D01*
X221580612Y-89225127D01*
X221416491Y-89326746D01*
X221416481Y-89326752D01*
X221411538Y-89329814D01*
X221407239Y-89333732D01*
X221407235Y-89333736D01*
X221264573Y-89463789D01*
X221264565Y-89463797D01*
X221260268Y-89467715D01*
X221256763Y-89472355D01*
X221256755Y-89472365D01*
X221140422Y-89626416D01*
X221140418Y-89626421D01*
X221136912Y-89631065D01*
X221134317Y-89636274D01*
X221134314Y-89636281D01*
X221049948Y-89805712D01*
X221045672Y-89814299D01*
X221044078Y-89819899D01*
X221044076Y-89819906D01*
X220994807Y-89993072D01*
X220989655Y-90011179D01*
X220989118Y-90016972D01*
X220989116Y-90016984D01*
X220971306Y-90209194D01*
X220970768Y-90215000D01*
X220971306Y-90220806D01*
X220989116Y-90413015D01*
X220989117Y-90413025D01*
X220989655Y-90418821D01*
X220991249Y-90424426D01*
X220991250Y-90424427D01*
X221045672Y-90615701D01*
X221044810Y-90615946D01*
X221051989Y-90656045D01*
X221042039Y-90703221D01*
X221015099Y-90743205D01*
X214892711Y-96865595D01*
X214851834Y-96892909D01*
X214803616Y-96902500D01*
X208752456Y-96902500D01*
X208693901Y-96888068D01*
X208657230Y-96855580D01*
X208655881Y-96856776D01*
X208650828Y-96851072D01*
X208646498Y-96844799D01*
X208527529Y-96739401D01*
X208415684Y-96680700D01*
X208393546Y-96669081D01*
X208393544Y-96669080D01*
X208386793Y-96665537D01*
X208379395Y-96663713D01*
X208379391Y-96663712D01*
X208239864Y-96629322D01*
X208239862Y-96629321D01*
X208232471Y-96627500D01*
X208073529Y-96627500D01*
X208066138Y-96629321D01*
X208066135Y-96629322D01*
X207926608Y-96663712D01*
X207926601Y-96663714D01*
X207919207Y-96665537D01*
X207912458Y-96669078D01*
X207912453Y-96669081D01*
X207785223Y-96735857D01*
X207785221Y-96735858D01*
X207778471Y-96739401D01*
X207772769Y-96744452D01*
X207772764Y-96744456D01*
X207665207Y-96839744D01*
X207665203Y-96839747D01*
X207659502Y-96844799D01*
X207655175Y-96851066D01*
X207655171Y-96851072D01*
X207573542Y-96969332D01*
X207573538Y-96969337D01*
X207569213Y-96975605D01*
X207566514Y-96982720D01*
X207566510Y-96982729D01*
X207515552Y-97117094D01*
X207515550Y-97117100D01*
X207512851Y-97124218D01*
X207511932Y-97131779D01*
X207511932Y-97131783D01*
X207508194Y-97162569D01*
X207493693Y-97282000D01*
X207494612Y-97289569D01*
X207510183Y-97417813D01*
X207512851Y-97439782D01*
X207515551Y-97446901D01*
X207515552Y-97446905D01*
X207566510Y-97581270D01*
X207566512Y-97581275D01*
X207569213Y-97588395D01*
X207647037Y-97701142D01*
X207647093Y-97701223D01*
X207669167Y-97765191D01*
X207654965Y-97831354D01*
X207608582Y-97880627D01*
X207543397Y-97898799D01*
X205803529Y-97898799D01*
X205777672Y-97896117D01*
X205777366Y-97896053D01*
X205777219Y-97896022D01*
X205777218Y-97896021D01*
X205767003Y-97893880D01*
X205756645Y-97895171D01*
X205756642Y-97895171D01*
X205735307Y-97897831D01*
X205730047Y-97898157D01*
X205730065Y-97898369D01*
X205724873Y-97898799D01*
X205719660Y-97898799D01*
X205714522Y-97899656D01*
X205714512Y-97899657D01*
X205698952Y-97902253D01*
X205693813Y-97903002D01*
X205651677Y-97908255D01*
X205651671Y-97908256D01*
X205641321Y-97909547D01*
X205634101Y-97913076D01*
X205626176Y-97914399D01*
X205617000Y-97919364D01*
X205616996Y-97919366D01*
X205579685Y-97939558D01*
X205575059Y-97941939D01*
X205536910Y-97960589D01*
X205536906Y-97960591D01*
X205527535Y-97965173D01*
X205521850Y-97970857D01*
X205514787Y-97974680D01*
X205507722Y-97982354D01*
X205507716Y-97982359D01*
X205478983Y-98013571D01*
X205475380Y-98017326D01*
X205230113Y-98262595D01*
X205189235Y-98289909D01*
X205141017Y-98299500D01*
X202896383Y-98299500D01*
X202839180Y-98285767D01*
X202794447Y-98247561D01*
X202771934Y-98193211D01*
X202776550Y-98134564D01*
X202807288Y-98084405D01*
X205675194Y-95216500D01*
X207369776Y-95216500D01*
X207370695Y-95224069D01*
X207379307Y-95295000D01*
X207388934Y-95374282D01*
X207391634Y-95381401D01*
X207391635Y-95381405D01*
X207442593Y-95515770D01*
X207442595Y-95515775D01*
X207445296Y-95522895D01*
X207449624Y-95529165D01*
X207449625Y-95529167D01*
X207505923Y-95610729D01*
X207535585Y-95653701D01*
X207654554Y-95759099D01*
X207795290Y-95832963D01*
X207949612Y-95871000D01*
X208100937Y-95871000D01*
X208108554Y-95871000D01*
X208262876Y-95832963D01*
X208403612Y-95759099D01*
X208522581Y-95653701D01*
X208612870Y-95522895D01*
X208669232Y-95374282D01*
X208688390Y-95216500D01*
X208682508Y-95168061D01*
X208688481Y-95111775D01*
X208718490Y-95063785D01*
X210655874Y-93126402D01*
X210696749Y-93099091D01*
X210744967Y-93089500D01*
X215046544Y-93089500D01*
X215105099Y-93103932D01*
X215141769Y-93136419D01*
X215143119Y-93135224D01*
X215148171Y-93140927D01*
X215152502Y-93147201D01*
X215271471Y-93252599D01*
X215412207Y-93326463D01*
X215566529Y-93364500D01*
X215717854Y-93364500D01*
X215725471Y-93364500D01*
X215879793Y-93326463D01*
X216020529Y-93252599D01*
X216139498Y-93147201D01*
X216229787Y-93016395D01*
X216286149Y-92867782D01*
X216305307Y-92710000D01*
X216286149Y-92552218D01*
X216229787Y-92403605D01*
X216139498Y-92272799D01*
X216020529Y-92167401D01*
X215902004Y-92105194D01*
X215886546Y-92097081D01*
X215886544Y-92097080D01*
X215879793Y-92093537D01*
X215872395Y-92091713D01*
X215872391Y-92091712D01*
X215732864Y-92057322D01*
X215732862Y-92057321D01*
X215725471Y-92055500D01*
X215566529Y-92055500D01*
X215559138Y-92057321D01*
X215559135Y-92057322D01*
X215419608Y-92091712D01*
X215419601Y-92091714D01*
X215412207Y-92093537D01*
X215405458Y-92097078D01*
X215405453Y-92097081D01*
X215278223Y-92163857D01*
X215278221Y-92163858D01*
X215271471Y-92167401D01*
X215265769Y-92172452D01*
X215265764Y-92172456D01*
X215158207Y-92267744D01*
X215158203Y-92267747D01*
X215152502Y-92272799D01*
X215148172Y-92279071D01*
X215143119Y-92284776D01*
X215141769Y-92283580D01*
X215105099Y-92316068D01*
X215046544Y-92330500D01*
X210588004Y-92330500D01*
X210562147Y-92327818D01*
X210561701Y-92327724D01*
X210561698Y-92327723D01*
X210551483Y-92325582D01*
X210541124Y-92326873D01*
X210541122Y-92326873D01*
X210519794Y-92329532D01*
X210514525Y-92329859D01*
X210514543Y-92330070D01*
X210509349Y-92330500D01*
X210504140Y-92330500D01*
X210499010Y-92331355D01*
X210498997Y-92331357D01*
X210483404Y-92333959D01*
X210478260Y-92334708D01*
X210436156Y-92339957D01*
X210436155Y-92339957D01*
X210425800Y-92341248D01*
X210418579Y-92344777D01*
X210410656Y-92346100D01*
X210401483Y-92351063D01*
X210401474Y-92351067D01*
X210364150Y-92371265D01*
X210359526Y-92373646D01*
X210321389Y-92392291D01*
X210312015Y-92396874D01*
X210306330Y-92402558D01*
X210299267Y-92406381D01*
X210292202Y-92414055D01*
X210292196Y-92414060D01*
X210263451Y-92445285D01*
X210259847Y-92449040D01*
X208183793Y-94525095D01*
X208142916Y-94552409D01*
X208094698Y-94562000D01*
X207949612Y-94562000D01*
X207942221Y-94563821D01*
X207942218Y-94563822D01*
X207802691Y-94598212D01*
X207802684Y-94598214D01*
X207795290Y-94600037D01*
X207788541Y-94603578D01*
X207788536Y-94603581D01*
X207661306Y-94670357D01*
X207661304Y-94670358D01*
X207654554Y-94673901D01*
X207648852Y-94678952D01*
X207648847Y-94678956D01*
X207541290Y-94774244D01*
X207541286Y-94774247D01*
X207535585Y-94779299D01*
X207531258Y-94785566D01*
X207531254Y-94785572D01*
X207449625Y-94903832D01*
X207449621Y-94903837D01*
X207445296Y-94910105D01*
X207442597Y-94917220D01*
X207442593Y-94917229D01*
X207391635Y-95051594D01*
X207391633Y-95051600D01*
X207388934Y-95058718D01*
X207388015Y-95066279D01*
X207388015Y-95066283D01*
X207381129Y-95123000D01*
X207369776Y-95216500D01*
X205675194Y-95216500D01*
X206175151Y-94716543D01*
X209543288Y-91348405D01*
X209584166Y-91321091D01*
X209632384Y-91311500D01*
X218770574Y-91311500D01*
X218796430Y-91314181D01*
X218807100Y-91316419D01*
X218838795Y-91312468D01*
X218844053Y-91312141D01*
X218844036Y-91311930D01*
X218849223Y-91311500D01*
X218854443Y-91311500D01*
X218875187Y-91308037D01*
X218880250Y-91307299D01*
X218932783Y-91300752D01*
X218940003Y-91297222D01*
X218947927Y-91295900D01*
X218994411Y-91270742D01*
X218999043Y-91268359D01*
X219046568Y-91245126D01*
X219052252Y-91239441D01*
X219059316Y-91235619D01*
X219095154Y-91196687D01*
X219098713Y-91192979D01*
X221555037Y-88736655D01*
X221595016Y-88709719D01*
X221642189Y-88699768D01*
X221689644Y-88708261D01*
X221713354Y-88717446D01*
X221771011Y-88739784D01*
X221771018Y-88739786D01*
X221776444Y-88741888D01*
X221977653Y-88779500D01*
X222176519Y-88779500D01*
X222182347Y-88779500D01*
X222383556Y-88741888D01*
X222574427Y-88667944D01*
X222748462Y-88560186D01*
X222899732Y-88422285D01*
X223023088Y-88258935D01*
X223114328Y-88075701D01*
X223155322Y-87931620D01*
X223547922Y-87931620D01*
X223548451Y-87943061D01*
X223584546Y-88069918D01*
X223588734Y-88080729D01*
X223674742Y-88253456D01*
X223680850Y-88263321D01*
X223797126Y-88417296D01*
X223804944Y-88425872D01*
X223947533Y-88555859D01*
X223956796Y-88562854D01*
X224120846Y-88664428D01*
X224131228Y-88669598D01*
X224311146Y-88739299D01*
X224322307Y-88742475D01*
X224352358Y-88748092D01*
X224363559Y-88747704D01*
X224366000Y-88736763D01*
X224366000Y-87945590D01*
X224362493Y-87932506D01*
X224349410Y-87929000D01*
X223559067Y-87929000D01*
X223547922Y-87931620D01*
X223155322Y-87931620D01*
X223170345Y-87878821D01*
X223189232Y-87675000D01*
X223187414Y-87655385D01*
X223170883Y-87476984D01*
X223170882Y-87476983D01*
X223170345Y-87471179D01*
X223155322Y-87418379D01*
X223547922Y-87418379D01*
X223559067Y-87421000D01*
X224349410Y-87421000D01*
X224362493Y-87417493D01*
X224366000Y-87404410D01*
X224366000Y-86613237D01*
X224363559Y-86602295D01*
X224352358Y-86601907D01*
X224322307Y-86607524D01*
X224311146Y-86610700D01*
X224131228Y-86680401D01*
X224120846Y-86685571D01*
X223956796Y-86787145D01*
X223947533Y-86794140D01*
X223804944Y-86924127D01*
X223797126Y-86932703D01*
X223680850Y-87086678D01*
X223674742Y-87096543D01*
X223588734Y-87269270D01*
X223584546Y-87280081D01*
X223548451Y-87406938D01*
X223547922Y-87418379D01*
X223155322Y-87418379D01*
X223114328Y-87274299D01*
X223023088Y-87091065D01*
X222966838Y-87016578D01*
X222903244Y-86932365D01*
X222903241Y-86932361D01*
X222899732Y-86927715D01*
X222895429Y-86923792D01*
X222895426Y-86923789D01*
X222752764Y-86793736D01*
X222752765Y-86793736D01*
X222748462Y-86789814D01*
X222743512Y-86786749D01*
X222743508Y-86786746D01*
X222579387Y-86685127D01*
X222579386Y-86685126D01*
X222574427Y-86682056D01*
X222543266Y-86669984D01*
X222388989Y-86610216D01*
X222388981Y-86610213D01*
X222383556Y-86608112D01*
X222377839Y-86607043D01*
X222377831Y-86607041D01*
X222188073Y-86571570D01*
X222188069Y-86571569D01*
X222182347Y-86570500D01*
X221977653Y-86570500D01*
X221971931Y-86571569D01*
X221971926Y-86571570D01*
X221782168Y-86607041D01*
X221782157Y-86607043D01*
X221776444Y-86608112D01*
X221771021Y-86610212D01*
X221771010Y-86610216D01*
X221591011Y-86679949D01*
X221591008Y-86679950D01*
X221585573Y-86682056D01*
X221580617Y-86685124D01*
X221580612Y-86685127D01*
X221416491Y-86786746D01*
X221416481Y-86786752D01*
X221411538Y-86789814D01*
X221407239Y-86793732D01*
X221407235Y-86793736D01*
X221264573Y-86923789D01*
X221264565Y-86923797D01*
X221260268Y-86927715D01*
X221256763Y-86932355D01*
X221256755Y-86932365D01*
X221140422Y-87086416D01*
X221140418Y-87086421D01*
X221136912Y-87091065D01*
X221134317Y-87096274D01*
X221134314Y-87096281D01*
X221051252Y-87263093D01*
X221045672Y-87274299D01*
X221044078Y-87279899D01*
X221044076Y-87279906D01*
X220995130Y-87451935D01*
X220989655Y-87471179D01*
X220989118Y-87476972D01*
X220989116Y-87476984D01*
X220972586Y-87655385D01*
X220970768Y-87675000D01*
X220971306Y-87680806D01*
X220989116Y-87873015D01*
X220989117Y-87873025D01*
X220989655Y-87878821D01*
X220991249Y-87884426D01*
X220991250Y-87884427D01*
X221045672Y-88075701D01*
X221044810Y-88075946D01*
X221051989Y-88116045D01*
X221042039Y-88163221D01*
X221015099Y-88203205D01*
X218702711Y-90515595D01*
X218661834Y-90542909D01*
X218613616Y-90552500D01*
X209475426Y-90552500D01*
X209449569Y-90549818D01*
X209449263Y-90549754D01*
X209449116Y-90549723D01*
X209449115Y-90549722D01*
X209438900Y-90547581D01*
X209428542Y-90548872D01*
X209428539Y-90548872D01*
X209407204Y-90551532D01*
X209401944Y-90551858D01*
X209401962Y-90552070D01*
X209396770Y-90552500D01*
X209391557Y-90552500D01*
X209386419Y-90553357D01*
X209386409Y-90553358D01*
X209370849Y-90555954D01*
X209365710Y-90556703D01*
X209323574Y-90561956D01*
X209323568Y-90561957D01*
X209313218Y-90563248D01*
X209305998Y-90566777D01*
X209298073Y-90568100D01*
X209288897Y-90573065D01*
X209288893Y-90573067D01*
X209251582Y-90593259D01*
X209246956Y-90595640D01*
X209208807Y-90614290D01*
X209208803Y-90614292D01*
X209199432Y-90618874D01*
X209193747Y-90624558D01*
X209186684Y-90628381D01*
X209179619Y-90636055D01*
X209179613Y-90636060D01*
X209150868Y-90667285D01*
X209147264Y-90671040D01*
X202317711Y-97500595D01*
X202276834Y-97527909D01*
X202228616Y-97537500D01*
X201845101Y-97537500D01*
X201787898Y-97523767D01*
X201743165Y-97485561D01*
X201720652Y-97431211D01*
X201725268Y-97372564D01*
X201756006Y-97322405D01*
X213943412Y-85135000D01*
X220970768Y-85135000D01*
X220971306Y-85140806D01*
X220989116Y-85333015D01*
X220989117Y-85333025D01*
X220989655Y-85338821D01*
X220991249Y-85344426D01*
X220991250Y-85344427D01*
X221044026Y-85529918D01*
X221045672Y-85535701D01*
X221136912Y-85718935D01*
X221140421Y-85723582D01*
X221140422Y-85723583D01*
X221256755Y-85877634D01*
X221256759Y-85877638D01*
X221260268Y-85882285D01*
X221264570Y-85886207D01*
X221264573Y-85886210D01*
X221312813Y-85930186D01*
X221411538Y-86020186D01*
X221416489Y-86023251D01*
X221416491Y-86023253D01*
X221440218Y-86037944D01*
X221585573Y-86127944D01*
X221776444Y-86201888D01*
X221977653Y-86239500D01*
X222176519Y-86239500D01*
X222182347Y-86239500D01*
X222383556Y-86201888D01*
X222574427Y-86127944D01*
X222748462Y-86020186D01*
X222899732Y-85882285D01*
X223023088Y-85718935D01*
X223114328Y-85535701D01*
X223155322Y-85391620D01*
X223547922Y-85391620D01*
X223548451Y-85403061D01*
X223584546Y-85529918D01*
X223588734Y-85540729D01*
X223674742Y-85713456D01*
X223680850Y-85723321D01*
X223797126Y-85877296D01*
X223804944Y-85885872D01*
X223947533Y-86015859D01*
X223956796Y-86022854D01*
X224120846Y-86124428D01*
X224131228Y-86129598D01*
X224311146Y-86199299D01*
X224322307Y-86202475D01*
X224352358Y-86208092D01*
X224363559Y-86207704D01*
X224366000Y-86196763D01*
X224366000Y-85405590D01*
X224362493Y-85392506D01*
X224349410Y-85389000D01*
X223559067Y-85389000D01*
X223547922Y-85391620D01*
X223155322Y-85391620D01*
X223170345Y-85338821D01*
X223189232Y-85135000D01*
X223170345Y-84931179D01*
X223155322Y-84878379D01*
X223547922Y-84878379D01*
X223559067Y-84881000D01*
X224349410Y-84881000D01*
X224362493Y-84877493D01*
X224366000Y-84864410D01*
X224366000Y-84073237D01*
X224363559Y-84062295D01*
X224352358Y-84061907D01*
X224322307Y-84067524D01*
X224311146Y-84070700D01*
X224131228Y-84140401D01*
X224120846Y-84145571D01*
X223956796Y-84247145D01*
X223947533Y-84254140D01*
X223804944Y-84384127D01*
X223797126Y-84392703D01*
X223680850Y-84546678D01*
X223674742Y-84556543D01*
X223588734Y-84729270D01*
X223584546Y-84740081D01*
X223548451Y-84866938D01*
X223547922Y-84878379D01*
X223155322Y-84878379D01*
X223114328Y-84734299D01*
X223023088Y-84551065D01*
X222955123Y-84461065D01*
X222903244Y-84392365D01*
X222903241Y-84392361D01*
X222899732Y-84387715D01*
X222895429Y-84383792D01*
X222895426Y-84383789D01*
X222752764Y-84253736D01*
X222752765Y-84253736D01*
X222748462Y-84249814D01*
X222743512Y-84246749D01*
X222743508Y-84246746D01*
X222579387Y-84145127D01*
X222579386Y-84145126D01*
X222574427Y-84142056D01*
X222543266Y-84129984D01*
X222388989Y-84070216D01*
X222388981Y-84070213D01*
X222383556Y-84068112D01*
X222377839Y-84067043D01*
X222377831Y-84067041D01*
X222188073Y-84031570D01*
X222188069Y-84031569D01*
X222182347Y-84030500D01*
X221977653Y-84030500D01*
X221971931Y-84031569D01*
X221971926Y-84031570D01*
X221782168Y-84067041D01*
X221782157Y-84067043D01*
X221776444Y-84068112D01*
X221771021Y-84070212D01*
X221771010Y-84070216D01*
X221591011Y-84139949D01*
X221591008Y-84139950D01*
X221585573Y-84142056D01*
X221580617Y-84145124D01*
X221580612Y-84145127D01*
X221416491Y-84246746D01*
X221416481Y-84246752D01*
X221411538Y-84249814D01*
X221407239Y-84253732D01*
X221407235Y-84253736D01*
X221264573Y-84383789D01*
X221264565Y-84383797D01*
X221260268Y-84387715D01*
X221256763Y-84392355D01*
X221256755Y-84392365D01*
X221140422Y-84546416D01*
X221140418Y-84546421D01*
X221136912Y-84551065D01*
X221134317Y-84556274D01*
X221134314Y-84556281D01*
X221066364Y-84692744D01*
X221045672Y-84734299D01*
X221044078Y-84739899D01*
X221044076Y-84739906D01*
X220995130Y-84911935D01*
X220989655Y-84931179D01*
X220989118Y-84936972D01*
X220989116Y-84936984D01*
X220975546Y-85083440D01*
X220970768Y-85135000D01*
X213943412Y-85135000D01*
X216067007Y-83011405D01*
X216107884Y-82984091D01*
X216156102Y-82974500D01*
X220849501Y-82974500D01*
X220912501Y-82991381D01*
X220958620Y-83037500D01*
X220975501Y-83100500D01*
X220975501Y-83470066D01*
X220976707Y-83476132D01*
X220976708Y-83476137D01*
X220987844Y-83532125D01*
X220990266Y-83544301D01*
X220997162Y-83554621D01*
X221033115Y-83608429D01*
X221046516Y-83628484D01*
X221130699Y-83684734D01*
X221204933Y-83699500D01*
X222955066Y-83699499D01*
X223029301Y-83684734D01*
X223113484Y-83628484D01*
X223169734Y-83544301D01*
X223184500Y-83470067D01*
X223184499Y-82851620D01*
X223547922Y-82851620D01*
X223548451Y-82863061D01*
X223584546Y-82989918D01*
X223588734Y-83000729D01*
X223674742Y-83173456D01*
X223680850Y-83183321D01*
X223797126Y-83337296D01*
X223804944Y-83345872D01*
X223947533Y-83475859D01*
X223956796Y-83482854D01*
X224120846Y-83584428D01*
X224131228Y-83589598D01*
X224311146Y-83659299D01*
X224322307Y-83662475D01*
X224352358Y-83668092D01*
X224363559Y-83667704D01*
X224366000Y-83656763D01*
X224366000Y-82865590D01*
X224362493Y-82852506D01*
X224349410Y-82849000D01*
X223559067Y-82849000D01*
X223547922Y-82851620D01*
X223184499Y-82851620D01*
X223184499Y-82338379D01*
X223547922Y-82338379D01*
X223559067Y-82341000D01*
X224349410Y-82341000D01*
X224362493Y-82337493D01*
X224366000Y-82324410D01*
X224366000Y-81533237D01*
X224363559Y-81522295D01*
X224352358Y-81521907D01*
X224322307Y-81527524D01*
X224311146Y-81530700D01*
X224131228Y-81600401D01*
X224120846Y-81605571D01*
X223956796Y-81707145D01*
X223947533Y-81714140D01*
X223804944Y-81844127D01*
X223797126Y-81852703D01*
X223680850Y-82006678D01*
X223674742Y-82016543D01*
X223588734Y-82189270D01*
X223584546Y-82200081D01*
X223548451Y-82326938D01*
X223547922Y-82338379D01*
X223184499Y-82338379D01*
X223184499Y-81719934D01*
X223169734Y-81645699D01*
X223113484Y-81561516D01*
X223054786Y-81522295D01*
X223039620Y-81512161D01*
X223039619Y-81512160D01*
X223029301Y-81505266D01*
X223017131Y-81502845D01*
X223017128Y-81502844D01*
X222961135Y-81491707D01*
X222955067Y-81490500D01*
X222948880Y-81490500D01*
X221211122Y-81490500D01*
X221211111Y-81490500D01*
X221204934Y-81490501D01*
X221198868Y-81491707D01*
X221198862Y-81491708D01*
X221142874Y-81502844D01*
X221142871Y-81502844D01*
X221130699Y-81505266D01*
X221120379Y-81512161D01*
X221120378Y-81512162D01*
X221056832Y-81554622D01*
X221056829Y-81554624D01*
X221046516Y-81561516D01*
X221039624Y-81571829D01*
X221039622Y-81571832D01*
X220997161Y-81635379D01*
X220997159Y-81635381D01*
X220990266Y-81645699D01*
X220987845Y-81657867D01*
X220987844Y-81657871D01*
X220976707Y-81713864D01*
X220975500Y-81719933D01*
X220975500Y-81726120D01*
X220975500Y-82089500D01*
X220958619Y-82152500D01*
X220912500Y-82198619D01*
X220849500Y-82215500D01*
X215999140Y-82215500D01*
X215973283Y-82212818D01*
X215972837Y-82212724D01*
X215972832Y-82212723D01*
X215962618Y-82210582D01*
X215952259Y-82211873D01*
X215952257Y-82211873D01*
X215930929Y-82214532D01*
X215925660Y-82214859D01*
X215925678Y-82215070D01*
X215920484Y-82215500D01*
X215915275Y-82215500D01*
X215910145Y-82216355D01*
X215910132Y-82216357D01*
X215894539Y-82218959D01*
X215889395Y-82219708D01*
X215847291Y-82224957D01*
X215847290Y-82224957D01*
X215836935Y-82226248D01*
X215829714Y-82229777D01*
X215821791Y-82231100D01*
X215812618Y-82236063D01*
X215812609Y-82236067D01*
X215775285Y-82256265D01*
X215770661Y-82258646D01*
X215758722Y-82264483D01*
X215723150Y-82281874D01*
X215717465Y-82287558D01*
X215710402Y-82291381D01*
X215703337Y-82299055D01*
X215703331Y-82299060D01*
X215674586Y-82330285D01*
X215670982Y-82334040D01*
X201266429Y-96738595D01*
X201225552Y-96765909D01*
X201177334Y-96775500D01*
X194655456Y-96775500D01*
X194596901Y-96761068D01*
X194560230Y-96728580D01*
X194558881Y-96729776D01*
X194553828Y-96724072D01*
X194549498Y-96717799D01*
X194430529Y-96612401D01*
X194289793Y-96538537D01*
X194282395Y-96536713D01*
X194282391Y-96536712D01*
X194142864Y-96502322D01*
X194142862Y-96502321D01*
X194135471Y-96500500D01*
X193976529Y-96500500D01*
X193969138Y-96502321D01*
X193969135Y-96502322D01*
X193829608Y-96536712D01*
X193829601Y-96536714D01*
X193822207Y-96538537D01*
X193815458Y-96542078D01*
X193815453Y-96542081D01*
X193688223Y-96608857D01*
X193688221Y-96608858D01*
X193681471Y-96612401D01*
X193675769Y-96617452D01*
X193675764Y-96617456D01*
X193568207Y-96712744D01*
X193568203Y-96712747D01*
X193562502Y-96717799D01*
X193558175Y-96724066D01*
X193558171Y-96724072D01*
X193476542Y-96842332D01*
X193476538Y-96842337D01*
X193472213Y-96848605D01*
X193469514Y-96855720D01*
X193469510Y-96855729D01*
X193418552Y-96990094D01*
X193418550Y-96990100D01*
X193415851Y-96997218D01*
X193414932Y-97004779D01*
X193414932Y-97004783D01*
X193399512Y-97131783D01*
X193396693Y-97155000D01*
X193397612Y-97162569D01*
X193408990Y-97256281D01*
X193415851Y-97312782D01*
X193418551Y-97319901D01*
X193418552Y-97319905D01*
X193469510Y-97454270D01*
X193469512Y-97454275D01*
X193472213Y-97461395D01*
X193476541Y-97467665D01*
X193476542Y-97467667D01*
X193557958Y-97585619D01*
X193562502Y-97592201D01*
X193681471Y-97697599D01*
X193822207Y-97771463D01*
X193976529Y-97809500D01*
X194127854Y-97809500D01*
X194135471Y-97809500D01*
X194289793Y-97771463D01*
X194430529Y-97697599D01*
X194549498Y-97592201D01*
X194553829Y-97585925D01*
X194558881Y-97580224D01*
X194560230Y-97581419D01*
X194596901Y-97548932D01*
X194655456Y-97534500D01*
X199287533Y-97534500D01*
X199346088Y-97548933D01*
X199391229Y-97588924D01*
X199412614Y-97645313D01*
X199405345Y-97705181D01*
X199387552Y-97752094D01*
X199387550Y-97752100D01*
X199384851Y-97759218D01*
X199383932Y-97766779D01*
X199383932Y-97766783D01*
X199367393Y-97903002D01*
X199365693Y-97917000D01*
X199366612Y-97924569D01*
X199380484Y-98038821D01*
X199384851Y-98074782D01*
X199387551Y-98081901D01*
X199387552Y-98081905D01*
X199405345Y-98128819D01*
X199412614Y-98188687D01*
X199391229Y-98245076D01*
X199346088Y-98285067D01*
X199287533Y-98299500D01*
X190201384Y-98299500D01*
X190153166Y-98289909D01*
X190112289Y-98262595D01*
X190027405Y-98177711D01*
X190000091Y-98136834D01*
X189990500Y-98088616D01*
X189990500Y-93853000D01*
X190348693Y-93853000D01*
X190367851Y-94010782D01*
X190370551Y-94017901D01*
X190370552Y-94017905D01*
X190421510Y-94152270D01*
X190421512Y-94152275D01*
X190424213Y-94159395D01*
X190428541Y-94165665D01*
X190428542Y-94165667D01*
X190475182Y-94233237D01*
X190514502Y-94290201D01*
X190633471Y-94395599D01*
X190774207Y-94469463D01*
X190928529Y-94507500D01*
X191079854Y-94507500D01*
X191087471Y-94507500D01*
X191241793Y-94469463D01*
X191382529Y-94395599D01*
X191501498Y-94290201D01*
X191591787Y-94159395D01*
X191648149Y-94010782D01*
X191667307Y-93853000D01*
X191648149Y-93695218D01*
X191591787Y-93546605D01*
X191501498Y-93415799D01*
X191429946Y-93352409D01*
X191398601Y-93309809D01*
X191387500Y-93258097D01*
X191387500Y-92157384D01*
X191397091Y-92109166D01*
X191424405Y-92068289D01*
X192882776Y-90609918D01*
X194366787Y-89125905D01*
X194407664Y-89098592D01*
X194455882Y-89089001D01*
X194576115Y-89089001D01*
X194583732Y-89089001D01*
X194738054Y-89050964D01*
X194878790Y-88977100D01*
X194997759Y-88871702D01*
X195088048Y-88740896D01*
X195144410Y-88592283D01*
X195163568Y-88434501D01*
X195159553Y-88401435D01*
X195165526Y-88345147D01*
X195195537Y-88297155D01*
X195755864Y-87736828D01*
X198286001Y-87736828D01*
X198287208Y-87749087D01*
X198298315Y-87804930D01*
X198307633Y-87827426D01*
X198349983Y-87890808D01*
X198367191Y-87908016D01*
X198430574Y-87950367D01*
X198453066Y-87959684D01*
X198508914Y-87970792D01*
X198521170Y-87972000D01*
X199119410Y-87972000D01*
X199132493Y-87968493D01*
X199136000Y-87955410D01*
X199136000Y-87955409D01*
X199644000Y-87955409D01*
X199647506Y-87968492D01*
X199660590Y-87971999D01*
X200258828Y-87971999D01*
X200271087Y-87970791D01*
X200326930Y-87959684D01*
X200349426Y-87950366D01*
X200412808Y-87908016D01*
X200430016Y-87890808D01*
X200472367Y-87827425D01*
X200481684Y-87804933D01*
X200492792Y-87749085D01*
X200494000Y-87736830D01*
X200494000Y-87138590D01*
X200490493Y-87125506D01*
X200477410Y-87122000D01*
X199660590Y-87122000D01*
X199647506Y-87125506D01*
X199644000Y-87138590D01*
X199644000Y-87955409D01*
X199136000Y-87955409D01*
X199136000Y-87138590D01*
X199132493Y-87125506D01*
X199119410Y-87122000D01*
X198302591Y-87122000D01*
X198289507Y-87125506D01*
X198286001Y-87138590D01*
X198286001Y-87736828D01*
X195755864Y-87736828D01*
X196895282Y-86597410D01*
X198286000Y-86597410D01*
X198289506Y-86610493D01*
X198302590Y-86614000D01*
X199119410Y-86614000D01*
X199132493Y-86610493D01*
X199136000Y-86597410D01*
X199644000Y-86597410D01*
X199647506Y-86610493D01*
X199660590Y-86614000D01*
X200477409Y-86614000D01*
X200490492Y-86610493D01*
X200493999Y-86597410D01*
X200493999Y-85999172D01*
X200492791Y-85986912D01*
X200481684Y-85931069D01*
X200472366Y-85908573D01*
X200430016Y-85845191D01*
X200412808Y-85827983D01*
X200349425Y-85785632D01*
X200326933Y-85776315D01*
X200271085Y-85765207D01*
X200258830Y-85764000D01*
X199660590Y-85764000D01*
X199647506Y-85767506D01*
X199644000Y-85780590D01*
X199644000Y-86597410D01*
X199136000Y-86597410D01*
X199136000Y-85780591D01*
X199132493Y-85767507D01*
X199119410Y-85764001D01*
X198521172Y-85764001D01*
X198508912Y-85765208D01*
X198453069Y-85776315D01*
X198430573Y-85785633D01*
X198367191Y-85827983D01*
X198349983Y-85845191D01*
X198307632Y-85908574D01*
X198298315Y-85931066D01*
X198287207Y-85986914D01*
X198286000Y-85999170D01*
X198286000Y-86597410D01*
X196895282Y-86597410D01*
X198405234Y-85087458D01*
X198459845Y-85055365D01*
X198523175Y-85053902D01*
X198579213Y-85083440D01*
X198583623Y-85087460D01*
X198721538Y-85213186D01*
X198726489Y-85216251D01*
X198726491Y-85216253D01*
X198779090Y-85248821D01*
X198895573Y-85320944D01*
X199086444Y-85394888D01*
X199287653Y-85432500D01*
X199486519Y-85432500D01*
X199492347Y-85432500D01*
X199693556Y-85394888D01*
X199884427Y-85320944D01*
X200058462Y-85213186D01*
X200209732Y-85075285D01*
X200333088Y-84911935D01*
X200424328Y-84728701D01*
X200480345Y-84531821D01*
X200499232Y-84328000D01*
X200820768Y-84328000D01*
X200821306Y-84333804D01*
X200821306Y-84333806D01*
X200839116Y-84526015D01*
X200839117Y-84526025D01*
X200839655Y-84531821D01*
X200841249Y-84537426D01*
X200841250Y-84537427D01*
X200886879Y-84697799D01*
X200895672Y-84728701D01*
X200986912Y-84911935D01*
X200990421Y-84916582D01*
X200990422Y-84916583D01*
X201106755Y-85070634D01*
X201106759Y-85070638D01*
X201110268Y-85075285D01*
X201114570Y-85079207D01*
X201114573Y-85079210D01*
X201123623Y-85087460D01*
X201261538Y-85213186D01*
X201266489Y-85216251D01*
X201266491Y-85216253D01*
X201319090Y-85248821D01*
X201435573Y-85320944D01*
X201626444Y-85394888D01*
X201827653Y-85432500D01*
X202026519Y-85432500D01*
X202032347Y-85432500D01*
X202233556Y-85394888D01*
X202424427Y-85320944D01*
X202598462Y-85213186D01*
X202749732Y-85075285D01*
X202873088Y-84911935D01*
X202964328Y-84728701D01*
X203020345Y-84531821D01*
X203039232Y-84328000D01*
X203020345Y-84124179D01*
X202964328Y-83927299D01*
X202873088Y-83744065D01*
X202791011Y-83635377D01*
X202753244Y-83585365D01*
X202753241Y-83585361D01*
X202749732Y-83580715D01*
X202745429Y-83576792D01*
X202745426Y-83576789D01*
X202602764Y-83446736D01*
X202602765Y-83446736D01*
X202598462Y-83442814D01*
X202593512Y-83439749D01*
X202593508Y-83439746D01*
X202429387Y-83338127D01*
X202429386Y-83338126D01*
X202424427Y-83335056D01*
X202400898Y-83325941D01*
X202238989Y-83263216D01*
X202238981Y-83263213D01*
X202233556Y-83261112D01*
X202227839Y-83260043D01*
X202227831Y-83260041D01*
X202038073Y-83224570D01*
X202038069Y-83224569D01*
X202032347Y-83223500D01*
X201827653Y-83223500D01*
X201821931Y-83224569D01*
X201821926Y-83224570D01*
X201632168Y-83260041D01*
X201632157Y-83260043D01*
X201626444Y-83261112D01*
X201621021Y-83263212D01*
X201621010Y-83263216D01*
X201441011Y-83332949D01*
X201441008Y-83332950D01*
X201435573Y-83335056D01*
X201430617Y-83338124D01*
X201430612Y-83338127D01*
X201266491Y-83439746D01*
X201266481Y-83439752D01*
X201261538Y-83442814D01*
X201257239Y-83446732D01*
X201257235Y-83446736D01*
X201114573Y-83576789D01*
X201114565Y-83576797D01*
X201110268Y-83580715D01*
X201106763Y-83585355D01*
X201106755Y-83585365D01*
X200990422Y-83739416D01*
X200990418Y-83739421D01*
X200986912Y-83744065D01*
X200984317Y-83749274D01*
X200984314Y-83749281D01*
X200898271Y-83922079D01*
X200895672Y-83927299D01*
X200894079Y-83932898D01*
X200894076Y-83932906D01*
X200841250Y-84118572D01*
X200839655Y-84124179D01*
X200839118Y-84129972D01*
X200839116Y-84129984D01*
X200827612Y-84254140D01*
X200820768Y-84328000D01*
X200499232Y-84328000D01*
X200480345Y-84124179D01*
X200424328Y-83927299D01*
X200333088Y-83744065D01*
X200251011Y-83635377D01*
X200213244Y-83585365D01*
X200213241Y-83585361D01*
X200209732Y-83580715D01*
X200205429Y-83576792D01*
X200205426Y-83576789D01*
X200062764Y-83446736D01*
X200062765Y-83446736D01*
X200058462Y-83442814D01*
X200053512Y-83439749D01*
X200053508Y-83439746D01*
X199889387Y-83338127D01*
X199889386Y-83338126D01*
X199884427Y-83335056D01*
X199860898Y-83325941D01*
X199698989Y-83263216D01*
X199698981Y-83263213D01*
X199693556Y-83261112D01*
X199687839Y-83260043D01*
X199687831Y-83260041D01*
X199498073Y-83224570D01*
X199498069Y-83224569D01*
X199492347Y-83223500D01*
X199287653Y-83223500D01*
X199281931Y-83224569D01*
X199281926Y-83224570D01*
X199092168Y-83260041D01*
X199092157Y-83260043D01*
X199086444Y-83261112D01*
X199081021Y-83263212D01*
X199081010Y-83263216D01*
X198901011Y-83332949D01*
X198901008Y-83332950D01*
X198895573Y-83335056D01*
X198890617Y-83338124D01*
X198890612Y-83338127D01*
X198726491Y-83439746D01*
X198726481Y-83439752D01*
X198721538Y-83442814D01*
X198717239Y-83446732D01*
X198717235Y-83446736D01*
X198574573Y-83576789D01*
X198574565Y-83576797D01*
X198570268Y-83580715D01*
X198566763Y-83585355D01*
X198566755Y-83585365D01*
X198450422Y-83739416D01*
X198450418Y-83739421D01*
X198446912Y-83744065D01*
X198444317Y-83749274D01*
X198444314Y-83749281D01*
X198358269Y-83922081D01*
X198358264Y-83922092D01*
X198355672Y-83927299D01*
X198354081Y-83932888D01*
X198354078Y-83932898D01*
X198310409Y-84086378D01*
X198278314Y-84140990D01*
X194675842Y-87743462D01*
X194627850Y-87773474D01*
X194583732Y-87778157D01*
X194583732Y-87780001D01*
X194424790Y-87780001D01*
X194417399Y-87781822D01*
X194417396Y-87781823D01*
X194277869Y-87816213D01*
X194277862Y-87816215D01*
X194270468Y-87818038D01*
X194263719Y-87821579D01*
X194263714Y-87821582D01*
X194136484Y-87888358D01*
X194136482Y-87888359D01*
X194129732Y-87891902D01*
X194124030Y-87896953D01*
X194124025Y-87896957D01*
X194016468Y-87992245D01*
X194016464Y-87992248D01*
X194010763Y-87997300D01*
X194006436Y-88003567D01*
X194006432Y-88003573D01*
X193924803Y-88121833D01*
X193924799Y-88121838D01*
X193920474Y-88128106D01*
X193917775Y-88135221D01*
X193917771Y-88135230D01*
X193866813Y-88269595D01*
X193866811Y-88269601D01*
X193864112Y-88276719D01*
X193863193Y-88284280D01*
X193863193Y-88284284D01*
X193856363Y-88340535D01*
X193844954Y-88434501D01*
X193845873Y-88442070D01*
X193852701Y-88498307D01*
X193846728Y-88554596D01*
X193816715Y-88602589D01*
X190776724Y-91642580D01*
X190756553Y-91658962D01*
X190756161Y-91659217D01*
X190756151Y-91659225D01*
X190747418Y-91664932D01*
X190741007Y-91673167D01*
X190741003Y-91673172D01*
X190727789Y-91690149D01*
X190724324Y-91694116D01*
X190724464Y-91694235D01*
X190721105Y-91698199D01*
X190717419Y-91701887D01*
X190714395Y-91706121D01*
X190714389Y-91706129D01*
X190705211Y-91718983D01*
X190702105Y-91723147D01*
X190676036Y-91756641D01*
X190676031Y-91756650D01*
X190669625Y-91764881D01*
X190667015Y-91772482D01*
X190662347Y-91779021D01*
X190659371Y-91789014D01*
X190659369Y-91789020D01*
X190647259Y-91829695D01*
X190645672Y-91834650D01*
X190631887Y-91874804D01*
X190631886Y-91874809D01*
X190628500Y-91884673D01*
X190628500Y-91892711D01*
X190626208Y-91900410D01*
X190626639Y-91910837D01*
X190626639Y-91910840D01*
X190628392Y-91953214D01*
X190628500Y-91958421D01*
X190628500Y-93258097D01*
X190617399Y-93309809D01*
X190586054Y-93352409D01*
X190520207Y-93410744D01*
X190520203Y-93410747D01*
X190514502Y-93415799D01*
X190510175Y-93422066D01*
X190510171Y-93422072D01*
X190428542Y-93540332D01*
X190428538Y-93540337D01*
X190424213Y-93546605D01*
X190421514Y-93553720D01*
X190421510Y-93553729D01*
X190370552Y-93688094D01*
X190370550Y-93688100D01*
X190367851Y-93695218D01*
X190366932Y-93702779D01*
X190366932Y-93702783D01*
X190353093Y-93816763D01*
X190348693Y-93853000D01*
X189990500Y-93853000D01*
X189990500Y-87168426D01*
X189993182Y-87142567D01*
X189995419Y-87131900D01*
X189991468Y-87100204D01*
X189991141Y-87094947D01*
X189990931Y-87094965D01*
X189990500Y-87089769D01*
X189990500Y-87084557D01*
X189987039Y-87063817D01*
X189986294Y-87058701D01*
X189981043Y-87016578D01*
X189979752Y-87006218D01*
X189976222Y-86998998D01*
X189974900Y-86991073D01*
X189949727Y-86944558D01*
X189947361Y-86939961D01*
X189928711Y-86901812D01*
X189924126Y-86892432D01*
X189918441Y-86886747D01*
X189914619Y-86879684D01*
X189875714Y-86843869D01*
X189871957Y-86840263D01*
X185305418Y-82273724D01*
X185289032Y-82253548D01*
X185283068Y-82244418D01*
X185274825Y-82238002D01*
X185274824Y-82238001D01*
X185257854Y-82224792D01*
X185253908Y-82221307D01*
X185253771Y-82221470D01*
X185249802Y-82218108D01*
X185246113Y-82214419D01*
X185241870Y-82211389D01*
X185241866Y-82211386D01*
X185229034Y-82202224D01*
X185224863Y-82199114D01*
X185191359Y-82173037D01*
X185191353Y-82173034D01*
X185183119Y-82166625D01*
X185175517Y-82164015D01*
X185168979Y-82159347D01*
X185118302Y-82144260D01*
X185113376Y-82142682D01*
X185063327Y-82125500D01*
X185055289Y-82125500D01*
X185047590Y-82123208D01*
X185037161Y-82123639D01*
X185037159Y-82123639D01*
X184994786Y-82125392D01*
X184989579Y-82125500D01*
X184122900Y-82125500D01*
X184056570Y-82106627D01*
X184010111Y-82055665D01*
X183943088Y-81921065D01*
X183891464Y-81852704D01*
X183823244Y-81762365D01*
X183823241Y-81762361D01*
X183819732Y-81757715D01*
X183815429Y-81753792D01*
X183815426Y-81753789D01*
X183672764Y-81623736D01*
X183672765Y-81623736D01*
X183668462Y-81619814D01*
X183663512Y-81616749D01*
X183663508Y-81616746D01*
X183499387Y-81515127D01*
X183499386Y-81515126D01*
X183494427Y-81512056D01*
X183441903Y-81491708D01*
X183308989Y-81440216D01*
X183308981Y-81440213D01*
X183303556Y-81438112D01*
X183297839Y-81437043D01*
X183297831Y-81437041D01*
X183108073Y-81401570D01*
X183108069Y-81401569D01*
X183102347Y-81400500D01*
X182897653Y-81400500D01*
X182891931Y-81401569D01*
X182891926Y-81401570D01*
X182702168Y-81437041D01*
X182702157Y-81437043D01*
X182696444Y-81438112D01*
X182691021Y-81440212D01*
X182691010Y-81440216D01*
X182511011Y-81509949D01*
X182511008Y-81509950D01*
X182505573Y-81512056D01*
X182500617Y-81515124D01*
X182500612Y-81515127D01*
X182336491Y-81616746D01*
X182336481Y-81616752D01*
X182331538Y-81619814D01*
X182327239Y-81623732D01*
X182327235Y-81623736D01*
X182184573Y-81753789D01*
X182184565Y-81753797D01*
X182180268Y-81757715D01*
X182176763Y-81762355D01*
X182176755Y-81762365D01*
X182060422Y-81916416D01*
X182060418Y-81916421D01*
X182056912Y-81921065D01*
X182054319Y-81926273D01*
X182054314Y-81926281D01*
X182009369Y-82016543D01*
X181965672Y-82104299D01*
X181964078Y-82109899D01*
X181964076Y-82109906D01*
X181911250Y-82295572D01*
X181909655Y-82301179D01*
X181909118Y-82306972D01*
X181909116Y-82306984D01*
X181891306Y-82499194D01*
X181890768Y-82505000D01*
X181569232Y-82505000D01*
X181550345Y-82301179D01*
X181494328Y-82104299D01*
X181403088Y-81921065D01*
X181351464Y-81852704D01*
X181283244Y-81762365D01*
X181283241Y-81762361D01*
X181279732Y-81757715D01*
X181275429Y-81753792D01*
X181275426Y-81753789D01*
X181132764Y-81623736D01*
X181132765Y-81623736D01*
X181128462Y-81619814D01*
X181123512Y-81616749D01*
X181123508Y-81616746D01*
X180959387Y-81515127D01*
X180959386Y-81515126D01*
X180954427Y-81512056D01*
X180901903Y-81491708D01*
X180768989Y-81440216D01*
X180768981Y-81440213D01*
X180763556Y-81438112D01*
X180757839Y-81437043D01*
X180757831Y-81437041D01*
X180568073Y-81401570D01*
X180568069Y-81401569D01*
X180562347Y-81400500D01*
X180357653Y-81400500D01*
X180351931Y-81401569D01*
X180351926Y-81401570D01*
X180162168Y-81437041D01*
X180162157Y-81437043D01*
X180156444Y-81438112D01*
X180151021Y-81440212D01*
X180151010Y-81440216D01*
X179971011Y-81509949D01*
X179971008Y-81509950D01*
X179965573Y-81512056D01*
X179960617Y-81515124D01*
X179960612Y-81515127D01*
X179796491Y-81616746D01*
X179796481Y-81616752D01*
X179791538Y-81619814D01*
X179787239Y-81623732D01*
X179787235Y-81623736D01*
X179644573Y-81753789D01*
X179644565Y-81753797D01*
X179640268Y-81757715D01*
X179636763Y-81762355D01*
X179636755Y-81762365D01*
X179520422Y-81916416D01*
X179520418Y-81916421D01*
X179516912Y-81921065D01*
X179514319Y-81926273D01*
X179514314Y-81926281D01*
X179469369Y-82016543D01*
X179425672Y-82104299D01*
X179424078Y-82109899D01*
X179424076Y-82109906D01*
X179371250Y-82295572D01*
X179369655Y-82301179D01*
X179369118Y-82306972D01*
X179369116Y-82306984D01*
X179351306Y-82499194D01*
X179350768Y-82505000D01*
X177740500Y-82505000D01*
X177740500Y-77617911D01*
X179476383Y-77617911D01*
X179483481Y-77629589D01*
X179488159Y-77634020D01*
X179493363Y-77638441D01*
X179786089Y-77860966D01*
X179791745Y-77864801D01*
X180106821Y-78054376D01*
X180112830Y-78057562D01*
X180446565Y-78211964D01*
X180452907Y-78214490D01*
X180801363Y-78331899D01*
X180807935Y-78333724D01*
X181167052Y-78412771D01*
X181173776Y-78413873D01*
X181539331Y-78453630D01*
X181546145Y-78454000D01*
X181913855Y-78454000D01*
X181920668Y-78453630D01*
X182286223Y-78413873D01*
X182292947Y-78412771D01*
X182652064Y-78333724D01*
X182658636Y-78331899D01*
X183007092Y-78214490D01*
X183013434Y-78211964D01*
X183347169Y-78057562D01*
X183353178Y-78054376D01*
X183668254Y-77864801D01*
X183673910Y-77860966D01*
X183966643Y-77638435D01*
X183971829Y-77634031D01*
X183976521Y-77629586D01*
X183983616Y-77617913D01*
X183983615Y-77617911D01*
X221096383Y-77617911D01*
X221103481Y-77629589D01*
X221108159Y-77634020D01*
X221113363Y-77638441D01*
X221406089Y-77860966D01*
X221411745Y-77864801D01*
X221726821Y-78054376D01*
X221732830Y-78057562D01*
X222066565Y-78211964D01*
X222072907Y-78214490D01*
X222421363Y-78331899D01*
X222427935Y-78333724D01*
X222787052Y-78412771D01*
X222793776Y-78413873D01*
X223159331Y-78453630D01*
X223166145Y-78454000D01*
X223533855Y-78454000D01*
X223540668Y-78453630D01*
X223906223Y-78413873D01*
X223912947Y-78412771D01*
X224272064Y-78333724D01*
X224278636Y-78331899D01*
X224627092Y-78214490D01*
X224633434Y-78211964D01*
X224967169Y-78057562D01*
X224973178Y-78054376D01*
X225288254Y-77864801D01*
X225293910Y-77860966D01*
X225586643Y-77638435D01*
X225591829Y-77634031D01*
X225596521Y-77629586D01*
X225603616Y-77617913D01*
X225596835Y-77606045D01*
X223361729Y-75370939D01*
X223350000Y-75364167D01*
X223338270Y-75370939D01*
X221103162Y-77606046D01*
X221096383Y-77617911D01*
X183983615Y-77617911D01*
X183976835Y-77606045D01*
X181741729Y-75370939D01*
X181730000Y-75364167D01*
X181718270Y-75370939D01*
X179483162Y-77606046D01*
X179476383Y-77617911D01*
X177740500Y-77617911D01*
X177740500Y-75003412D01*
X178271112Y-75003412D01*
X178291018Y-75370572D01*
X178291757Y-75377369D01*
X178351245Y-75740224D01*
X178352712Y-75746892D01*
X178451086Y-76101200D01*
X178453261Y-76107656D01*
X178589368Y-76449260D01*
X178592224Y-76455435D01*
X178764471Y-76780327D01*
X178767979Y-76786157D01*
X178974340Y-77090516D01*
X178978469Y-77095947D01*
X179103287Y-77242895D01*
X179114814Y-77250634D01*
X179126935Y-77243853D01*
X181359060Y-75011729D01*
X181365832Y-75000000D01*
X182094167Y-75000000D01*
X182100939Y-75011729D01*
X184333063Y-77243853D01*
X184345184Y-77250634D01*
X184356711Y-77242894D01*
X184481531Y-77095947D01*
X184485659Y-77090516D01*
X184692020Y-76786157D01*
X184695528Y-76780327D01*
X184867775Y-76455435D01*
X184870631Y-76449260D01*
X185006738Y-76107656D01*
X185008913Y-76101200D01*
X185107287Y-75746892D01*
X185108754Y-75740224D01*
X185168242Y-75377369D01*
X185168981Y-75370572D01*
X185188888Y-75003412D01*
X219891112Y-75003412D01*
X219911018Y-75370572D01*
X219911757Y-75377369D01*
X219971245Y-75740224D01*
X219972712Y-75746892D01*
X220071086Y-76101200D01*
X220073261Y-76107656D01*
X220209368Y-76449260D01*
X220212224Y-76455435D01*
X220384471Y-76780327D01*
X220387979Y-76786157D01*
X220594340Y-77090516D01*
X220598469Y-77095947D01*
X220723287Y-77242895D01*
X220734814Y-77250634D01*
X220746935Y-77243853D01*
X222979060Y-75011729D01*
X222985832Y-75000000D01*
X223714167Y-75000000D01*
X223720939Y-75011729D01*
X225953063Y-77243853D01*
X225965184Y-77250634D01*
X225976711Y-77242894D01*
X226101531Y-77095947D01*
X226105659Y-77090516D01*
X226312020Y-76786157D01*
X226315528Y-76780327D01*
X226487775Y-76455435D01*
X226490631Y-76449260D01*
X226626738Y-76107656D01*
X226628913Y-76101200D01*
X226727287Y-75746892D01*
X226728754Y-75740224D01*
X226788242Y-75377369D01*
X226788981Y-75370572D01*
X226808888Y-75003412D01*
X226808888Y-74996588D01*
X226788981Y-74629427D01*
X226788242Y-74622630D01*
X226728754Y-74259775D01*
X226727287Y-74253107D01*
X226628913Y-73898799D01*
X226626738Y-73892343D01*
X226490631Y-73550739D01*
X226487775Y-73544564D01*
X226315528Y-73219672D01*
X226312020Y-73213842D01*
X226105659Y-72909483D01*
X226101531Y-72904052D01*
X225976711Y-72757103D01*
X225965184Y-72749364D01*
X225953063Y-72756145D01*
X223720939Y-74988270D01*
X223714167Y-75000000D01*
X222985832Y-75000000D01*
X222979060Y-74988270D01*
X220746934Y-72756144D01*
X220734814Y-72749363D01*
X220723288Y-72757103D01*
X220598469Y-72904051D01*
X220594338Y-72909485D01*
X220387979Y-73213842D01*
X220384471Y-73219672D01*
X220212224Y-73544564D01*
X220209368Y-73550739D01*
X220073261Y-73892343D01*
X220071086Y-73898799D01*
X219972712Y-74253107D01*
X219971245Y-74259775D01*
X219911757Y-74622630D01*
X219911018Y-74629427D01*
X219891112Y-74996588D01*
X219891112Y-75003412D01*
X185188888Y-75003412D01*
X185188888Y-74996588D01*
X185168981Y-74629427D01*
X185168242Y-74622630D01*
X185108754Y-74259775D01*
X185107287Y-74253107D01*
X185008913Y-73898799D01*
X185006738Y-73892343D01*
X184870631Y-73550739D01*
X184867775Y-73544564D01*
X184695528Y-73219672D01*
X184692020Y-73213842D01*
X184485659Y-72909483D01*
X184481531Y-72904052D01*
X184356711Y-72757103D01*
X184345184Y-72749364D01*
X184333063Y-72756145D01*
X182100939Y-74988270D01*
X182094167Y-75000000D01*
X181365832Y-75000000D01*
X181359060Y-74988270D01*
X179126934Y-72756144D01*
X179114814Y-72749363D01*
X179103288Y-72757103D01*
X178978469Y-72904051D01*
X178974338Y-72909485D01*
X178767979Y-73213842D01*
X178764471Y-73219672D01*
X178592224Y-73544564D01*
X178589368Y-73550739D01*
X178453261Y-73892343D01*
X178451086Y-73898799D01*
X178352712Y-74253107D01*
X178351245Y-74259775D01*
X178291757Y-74622630D01*
X178291018Y-74629427D01*
X178271112Y-74996588D01*
X178271112Y-75003412D01*
X177740500Y-75003412D01*
X177740500Y-72382086D01*
X179476382Y-72382086D01*
X179483161Y-72393951D01*
X181718270Y-74629060D01*
X181730000Y-74635832D01*
X181741729Y-74629060D01*
X183976836Y-72393952D01*
X183983615Y-72382087D01*
X183983614Y-72382086D01*
X221096382Y-72382086D01*
X221103161Y-72393951D01*
X223338270Y-74629060D01*
X223350000Y-74635832D01*
X223361729Y-74629060D01*
X225596836Y-72393952D01*
X225603615Y-72382087D01*
X225596517Y-72370409D01*
X225591840Y-72365979D01*
X225586636Y-72361558D01*
X225293910Y-72139033D01*
X225288254Y-72135198D01*
X224973178Y-71945623D01*
X224967169Y-71942437D01*
X224633434Y-71788035D01*
X224627092Y-71785509D01*
X224278636Y-71668100D01*
X224272064Y-71666275D01*
X223912947Y-71587228D01*
X223906223Y-71586126D01*
X223540668Y-71546369D01*
X223533855Y-71546000D01*
X223166145Y-71546000D01*
X223159331Y-71546369D01*
X222793776Y-71586126D01*
X222787052Y-71587228D01*
X222427935Y-71666275D01*
X222421363Y-71668100D01*
X222072907Y-71785509D01*
X222066565Y-71788035D01*
X221732830Y-71942437D01*
X221726821Y-71945623D01*
X221411745Y-72135198D01*
X221406089Y-72139033D01*
X221113360Y-72361560D01*
X221108167Y-72365971D01*
X221103478Y-72370412D01*
X221096382Y-72382086D01*
X183983614Y-72382086D01*
X183976517Y-72370409D01*
X183971840Y-72365979D01*
X183966636Y-72361558D01*
X183673910Y-72139033D01*
X183668254Y-72135198D01*
X183353178Y-71945623D01*
X183347169Y-71942437D01*
X183013434Y-71788035D01*
X183007092Y-71785509D01*
X182658636Y-71668100D01*
X182652064Y-71666275D01*
X182292947Y-71587228D01*
X182286223Y-71586126D01*
X181920668Y-71546369D01*
X181913855Y-71546000D01*
X181546145Y-71546000D01*
X181539331Y-71546369D01*
X181173776Y-71586126D01*
X181167052Y-71587228D01*
X180807935Y-71666275D01*
X180801363Y-71668100D01*
X180452907Y-71785509D01*
X180446565Y-71788035D01*
X180112830Y-71942437D01*
X180106821Y-71945623D01*
X179791745Y-72135198D01*
X179786089Y-72139033D01*
X179493360Y-72361560D01*
X179488167Y-72365971D01*
X179483478Y-72370412D01*
X179476382Y-72382086D01*
X177740500Y-72382086D01*
X177740500Y-71386500D01*
X177757381Y-71323500D01*
X177803500Y-71277381D01*
X177866500Y-71260500D01*
X227213500Y-71260500D01*
X227276500Y-71277381D01*
G37*
G04 #@! TD.AperFunction*
G04 #@! TD*
M02*
