M48
; DRILL file {KiCad 7.0.0-da2b9df05c~163~ubuntu22.04.1} date Sun Mar 12 18:54:39 2023
; FORMAT={-:-/ absolute / inch / decimal}
; #@! TF.CreationDate,2023-03-12T18:54:39+00:00
; #@! TF.GenerationSoftware,Kicad,Pcbnew,7.0.0-da2b9df05c~163~ubuntu22.04.1
; #@! TF.FileFunction,Plated,1,2,PTH
FMAT,2
INCH
; #@! TA.AperFunction,Plated,PTH,ViaDrill
T1C0.0157
; #@! TA.AperFunction,Plated,PTH,ComponentDrill
T2C0.0394
; #@! TA.AperFunction,Plated,PTH,ComponentDrill
T3C0.1260
%
G90
G05
T1
X7.385Y-3.765
X7.415Y-3.695
X7.51Y-3.765
X7.52Y-3.695
X7.555Y-3.425
X7.635Y-3.745
X7.64Y-3.825
X7.6576Y-3.4817
X7.68Y-3.62
X7.735Y-3.5632
X7.74Y-3.725
X7.805Y-3.56
X7.855Y-3.62
X7.86Y-3.725
X7.875Y-3.855
X8.07Y-3.94
X8.08Y-3.5
X8.1901Y-3.7487
X8.195Y-3.83
X8.245Y-3.63
X8.29Y-3.5515
X8.29Y-3.71
X8.3007Y-3.8692
X8.325Y-3.3518
X8.42Y-3.725
X8.49Y-3.65
T2
X7.1047Y-3.2482
X7.1047Y-3.3482
X7.1047Y-3.4482
X7.1047Y-3.5482
X7.1047Y-3.6482
X7.1047Y-3.7482
X7.1047Y-3.8482
X7.2047Y-3.2482
X7.2047Y-3.3482
X7.2047Y-3.4482
X7.2047Y-3.5482
X7.2047Y-3.6482
X7.2047Y-3.7482
X7.2047Y-3.8482
X7.674Y-4.095
X7.674Y-4.195
X7.774Y-4.095
X7.774Y-4.195
X7.85Y-3.32
X7.85Y-3.42
X7.874Y-4.095
X7.874Y-4.195
X7.95Y-3.32
X7.95Y-3.42
X7.974Y-4.095
X7.974Y-4.195
X8.05Y-3.32
X8.05Y-3.42
X8.074Y-4.095
X8.074Y-4.195
X8.174Y-4.095
X8.174Y-4.195
X8.274Y-4.095
X8.274Y-4.195
X8.7433Y-3.2518
X8.7433Y-3.3518
X8.7433Y-3.4518
X8.7433Y-3.5518
X8.7433Y-3.6518
X8.7433Y-3.7518
X8.7433Y-3.8518
X8.8433Y-3.2518
X8.8433Y-3.3518
X8.8433Y-3.4518
X8.8433Y-3.5518
X8.8433Y-3.6518
X8.8433Y-3.7518
X8.8433Y-3.8518
T3
X7.1547Y-2.9528
X7.1547Y-4.1437
X8.7933Y-2.9528
X8.7933Y-4.1437
T0
M30
