G04 #@! TF.GenerationSoftware,KiCad,Pcbnew,7.0.0-da2b9df05c~163~ubuntu22.04.1*
G04 #@! TF.CreationDate,2023-03-12T19:04:27+00:00*
G04 #@! TF.ProjectId,simpleadapter14m,73696d70-6c65-4616-9461-707465723134,rev?*
G04 #@! TF.SameCoordinates,Original*
G04 #@! TF.FileFunction,Copper,L2,Bot*
G04 #@! TF.FilePolarity,Positive*
%FSLAX46Y46*%
G04 Gerber Fmt 4.6, Leading zero omitted, Abs format (unit mm)*
G04 Created by KiCad (PCBNEW 7.0.0-da2b9df05c~163~ubuntu22.04.1) date 2023-03-12 19:04:27*
%MOMM*%
%LPD*%
G01*
G04 APERTURE LIST*
G04 #@! TA.AperFunction,ComponentPad*
%ADD10C,3.800000*%
G04 #@! TD*
G04 #@! TA.AperFunction,ComponentPad*
%ADD11R,1.700000X1.700000*%
G04 #@! TD*
G04 #@! TA.AperFunction,ComponentPad*
%ADD12O,1.700000X1.700000*%
G04 #@! TD*
G04 #@! TA.AperFunction,ViaPad*
%ADD13C,0.800000*%
G04 #@! TD*
G04 #@! TA.AperFunction,Conductor*
%ADD14C,1.000000*%
G04 #@! TD*
G04 #@! TA.AperFunction,Conductor*
%ADD15C,0.250000*%
G04 #@! TD*
G04 #@! TA.AperFunction,Conductor*
%ADD16C,0.600000*%
G04 #@! TD*
G04 APERTURE END LIST*
D10*
X149177000Y-88750000D03*
X149177000Y-100450000D03*
D11*
X156499999Y-86979999D03*
D12*
X159039999Y-86979999D03*
X156499999Y-89519999D03*
X159039999Y-89519999D03*
X156499999Y-92059999D03*
X159039999Y-92059999D03*
X156499999Y-94599999D03*
X159039999Y-94599999D03*
X156499999Y-97139999D03*
X159039999Y-97139999D03*
X156499999Y-99679999D03*
X159039999Y-99679999D03*
X156499999Y-102219999D03*
X159039999Y-102219999D03*
D13*
X153400000Y-98140000D03*
X154050000Y-98750002D03*
X154110000Y-87760000D03*
X153800000Y-90920000D03*
X154600000Y-90140000D03*
X154100000Y-86750000D03*
D14*
X153980000Y-98720000D02*
X153400000Y-98140000D01*
X155780000Y-103940000D02*
X154050000Y-102210000D01*
X154050000Y-102210000D02*
X154050000Y-98750002D01*
X159040000Y-102220000D02*
X157320000Y-103940000D01*
X157320000Y-103940000D02*
X155780000Y-103940000D01*
D15*
X149177000Y-88384000D02*
X147828000Y-89733000D01*
X147828000Y-98735000D02*
X149177000Y-100084000D01*
D16*
X147828000Y-89733000D02*
X147828000Y-98735000D01*
G04 #@! TA.AperFunction,Conductor*
G36*
X161437500Y-79117113D02*
G01*
X161482887Y-79162500D01*
X161499500Y-79224500D01*
X161499500Y-109975500D01*
X161482887Y-110037500D01*
X161437500Y-110082887D01*
X161375500Y-110099500D01*
X146624500Y-110099500D01*
X146562500Y-110082887D01*
X146517113Y-110037500D01*
X146500500Y-109975500D01*
X146500500Y-106600000D01*
X148394551Y-106600000D01*
X148414317Y-106851148D01*
X148415452Y-106855877D01*
X148415453Y-106855881D01*
X148471989Y-107091374D01*
X148471991Y-107091382D01*
X148473127Y-107096111D01*
X148569534Y-107328859D01*
X148572081Y-107333016D01*
X148572082Y-107333017D01*
X148698617Y-107539504D01*
X148698622Y-107539511D01*
X148701164Y-107543659D01*
X148704324Y-107547358D01*
X148704327Y-107547363D01*
X148861615Y-107731523D01*
X148864776Y-107735224D01*
X149056341Y-107898836D01*
X149060491Y-107901379D01*
X149060495Y-107901382D01*
X149172300Y-107969896D01*
X149271141Y-108030466D01*
X149503889Y-108126873D01*
X149748852Y-108185683D01*
X149937118Y-108200500D01*
X150060437Y-108200500D01*
X150062882Y-108200500D01*
X150251148Y-108185683D01*
X150496111Y-108126873D01*
X150728859Y-108030466D01*
X150943659Y-107898836D01*
X151135224Y-107735224D01*
X151298836Y-107543659D01*
X151430466Y-107328859D01*
X151526873Y-107096111D01*
X151585683Y-106851148D01*
X151605449Y-106600000D01*
X151585683Y-106348852D01*
X151526873Y-106103889D01*
X151430466Y-105871141D01*
X151298836Y-105656341D01*
X151135224Y-105464776D01*
X151131523Y-105461615D01*
X150947363Y-105304327D01*
X150947358Y-105304324D01*
X150943659Y-105301164D01*
X150939511Y-105298622D01*
X150939504Y-105298617D01*
X150733017Y-105172082D01*
X150733016Y-105172081D01*
X150728859Y-105169534D01*
X150496111Y-105073127D01*
X150491382Y-105071991D01*
X150491374Y-105071989D01*
X150255881Y-105015453D01*
X150255877Y-105015452D01*
X150251148Y-105014317D01*
X150246295Y-105013935D01*
X150065316Y-104999691D01*
X150065301Y-104999690D01*
X150062882Y-104999500D01*
X149937118Y-104999500D01*
X149934699Y-104999690D01*
X149934683Y-104999691D01*
X149753704Y-105013935D01*
X149753702Y-105013935D01*
X149748852Y-105014317D01*
X149744124Y-105015451D01*
X149744118Y-105015453D01*
X149508625Y-105071989D01*
X149508613Y-105071992D01*
X149503889Y-105073127D01*
X149499392Y-105074989D01*
X149499388Y-105074991D01*
X149275645Y-105167668D01*
X149275640Y-105167670D01*
X149271141Y-105169534D01*
X149266988Y-105172078D01*
X149266982Y-105172082D01*
X149060495Y-105298617D01*
X149060482Y-105298626D01*
X149056341Y-105301164D01*
X149052646Y-105304319D01*
X149052636Y-105304327D01*
X148868476Y-105461615D01*
X148868469Y-105461621D01*
X148864776Y-105464776D01*
X148861621Y-105468469D01*
X148861615Y-105468476D01*
X148704327Y-105652636D01*
X148704319Y-105652646D01*
X148701164Y-105656341D01*
X148698626Y-105660482D01*
X148698617Y-105660495D01*
X148572082Y-105866982D01*
X148572078Y-105866988D01*
X148569534Y-105871141D01*
X148473127Y-106103889D01*
X148471992Y-106108613D01*
X148471989Y-106108625D01*
X148415453Y-106344118D01*
X148415451Y-106344124D01*
X148414317Y-106348852D01*
X148394551Y-106600000D01*
X146500500Y-106600000D01*
X146500500Y-100450000D01*
X147001428Y-100450000D01*
X147001717Y-100454225D01*
X147017802Y-100689396D01*
X147021691Y-100746240D01*
X147022552Y-100750387D01*
X147022554Y-100750396D01*
X147032966Y-100800500D01*
X147082104Y-101036962D01*
X147083522Y-101040953D01*
X147083525Y-101040962D01*
X147180120Y-101312753D01*
X147181541Y-101316750D01*
X147183488Y-101320508D01*
X147183490Y-101320512D01*
X147254744Y-101458026D01*
X147318149Y-101580392D01*
X147320595Y-101583857D01*
X147486939Y-101819514D01*
X147486943Y-101819519D01*
X147489384Y-101822977D01*
X147692056Y-102039986D01*
X147922390Y-102227377D01*
X148176095Y-102381658D01*
X148448445Y-102499956D01*
X148672924Y-102562852D01*
X148730287Y-102578925D01*
X148730289Y-102578925D01*
X148734367Y-102580068D01*
X149028534Y-102620500D01*
X149321229Y-102620500D01*
X149325466Y-102620500D01*
X149619633Y-102580068D01*
X149905555Y-102499956D01*
X150177905Y-102381658D01*
X150431610Y-102227377D01*
X150661944Y-102039986D01*
X150864616Y-101822977D01*
X151035851Y-101580392D01*
X151172459Y-101316750D01*
X151271896Y-101036962D01*
X151332309Y-100746240D01*
X151352572Y-100450000D01*
X151332309Y-100153760D01*
X151271896Y-99863038D01*
X151172459Y-99583250D01*
X151035851Y-99319608D01*
X150890054Y-99113060D01*
X150867060Y-99080485D01*
X150867058Y-99080482D01*
X150864616Y-99077023D01*
X150684280Y-98883930D01*
X150664831Y-98863105D01*
X150664829Y-98863103D01*
X150661944Y-98860014D01*
X150431610Y-98672623D01*
X150427986Y-98670419D01*
X150427983Y-98670417D01*
X150181523Y-98520542D01*
X150181521Y-98520541D01*
X150177905Y-98518342D01*
X150155983Y-98508820D01*
X149909436Y-98401729D01*
X149909426Y-98401725D01*
X149905555Y-98400044D01*
X149867224Y-98389304D01*
X149623712Y-98321074D01*
X149623699Y-98321071D01*
X149619633Y-98319932D01*
X149615446Y-98319356D01*
X149615434Y-98319354D01*
X149329663Y-98280076D01*
X149329650Y-98280075D01*
X149325466Y-98279500D01*
X149028534Y-98279500D01*
X149024350Y-98280075D01*
X149024336Y-98280076D01*
X148738565Y-98319354D01*
X148738550Y-98319356D01*
X148734367Y-98319932D01*
X148730303Y-98321070D01*
X148730287Y-98321074D01*
X148555955Y-98369921D01*
X148499348Y-98372338D01*
X148447575Y-98349323D01*
X148411444Y-98305679D01*
X148398500Y-98250519D01*
X148398500Y-98226815D01*
X152629500Y-98226815D01*
X152668136Y-98396090D01*
X152671153Y-98402356D01*
X152671155Y-98402360D01*
X152676558Y-98413579D01*
X152743471Y-98552525D01*
X152824580Y-98654231D01*
X152827042Y-98656693D01*
X152827043Y-98656694D01*
X153243181Y-99072832D01*
X153270061Y-99113060D01*
X153279500Y-99160513D01*
X153279500Y-102123185D01*
X153279500Y-102296815D01*
X153281049Y-102303601D01*
X153287641Y-102332483D01*
X153289970Y-102346192D01*
X153294065Y-102382537D01*
X153296364Y-102389107D01*
X153296366Y-102389116D01*
X153306146Y-102417067D01*
X153309994Y-102430423D01*
X153316585Y-102459297D01*
X153316586Y-102459301D01*
X153318136Y-102466090D01*
X153324399Y-102479095D01*
X153334008Y-102499049D01*
X153339327Y-102511891D01*
X153351411Y-102546423D01*
X153355114Y-102552316D01*
X153370873Y-102577396D01*
X153377597Y-102589564D01*
X153393471Y-102622525D01*
X153416283Y-102651131D01*
X153424321Y-102662460D01*
X153440082Y-102687542D01*
X153443787Y-102693438D01*
X153474580Y-102724230D01*
X153474580Y-102724231D01*
X155265768Y-104515420D01*
X155265772Y-104515423D01*
X155296562Y-104546213D01*
X155302465Y-104549922D01*
X155327532Y-104565673D01*
X155338874Y-104573720D01*
X155367475Y-104596529D01*
X155400442Y-104612404D01*
X155412596Y-104619122D01*
X155443577Y-104638589D01*
X155478098Y-104650668D01*
X155478101Y-104650669D01*
X155490950Y-104655991D01*
X155523910Y-104671864D01*
X155559584Y-104680006D01*
X155572927Y-104683850D01*
X155607463Y-104695935D01*
X155643823Y-104700031D01*
X155657525Y-104702359D01*
X155693185Y-104710499D01*
X155736715Y-104710499D01*
X155736727Y-104710499D01*
X155736733Y-104710500D01*
X157233185Y-104710500D01*
X157363267Y-104710500D01*
X157399849Y-104710500D01*
X157406815Y-104710500D01*
X157442490Y-104702356D01*
X157456180Y-104700030D01*
X157492537Y-104695935D01*
X157527062Y-104683853D01*
X157540424Y-104680003D01*
X157576090Y-104671864D01*
X157609049Y-104655990D01*
X157621901Y-104650668D01*
X157656423Y-104638589D01*
X157687408Y-104619118D01*
X157699545Y-104612409D01*
X157732525Y-104596529D01*
X157761128Y-104573717D01*
X157772458Y-104565678D01*
X157803438Y-104546213D01*
X157926213Y-104423438D01*
X157926212Y-104423438D01*
X158972832Y-103376819D01*
X159013061Y-103349939D01*
X159060514Y-103340500D01*
X159138101Y-103340500D01*
X159143830Y-103340500D01*
X159347953Y-103302342D01*
X159541589Y-103227327D01*
X159718145Y-103118009D01*
X159871607Y-102978110D01*
X159996749Y-102812394D01*
X160089311Y-102626505D01*
X160146140Y-102426773D01*
X160165300Y-102220000D01*
X160146140Y-102013227D01*
X160089311Y-101813495D01*
X159996749Y-101627606D01*
X159993296Y-101623034D01*
X159993294Y-101623030D01*
X159875063Y-101466467D01*
X159871607Y-101461890D01*
X159867371Y-101458029D01*
X159867369Y-101458026D01*
X159722379Y-101325851D01*
X159722380Y-101325851D01*
X159718145Y-101321991D01*
X159713276Y-101318976D01*
X159713273Y-101318974D01*
X159546463Y-101215691D01*
X159546464Y-101215691D01*
X159541589Y-101212673D01*
X159536246Y-101210603D01*
X159353300Y-101139729D01*
X159353295Y-101139727D01*
X159347953Y-101137658D01*
X159342315Y-101136604D01*
X159149459Y-101100552D01*
X159149456Y-101100551D01*
X159143830Y-101099500D01*
X158936170Y-101099500D01*
X158930544Y-101100551D01*
X158930540Y-101100552D01*
X158737684Y-101136604D01*
X158737681Y-101136604D01*
X158732047Y-101137658D01*
X158726707Y-101139726D01*
X158726699Y-101139729D01*
X158543753Y-101210603D01*
X158543748Y-101210605D01*
X158538411Y-101212673D01*
X158533539Y-101215689D01*
X158533536Y-101215691D01*
X158366726Y-101318974D01*
X158366718Y-101318979D01*
X158361855Y-101321991D01*
X158357624Y-101325847D01*
X158357620Y-101325851D01*
X158212630Y-101458026D01*
X158212622Y-101458034D01*
X158208393Y-101461890D01*
X158204939Y-101466462D01*
X158204936Y-101466467D01*
X158086705Y-101623030D01*
X158086697Y-101623041D01*
X158083251Y-101627606D01*
X158080701Y-101632726D01*
X158080696Y-101632735D01*
X157993243Y-101808364D01*
X157993239Y-101808372D01*
X157990689Y-101813495D01*
X157989123Y-101818998D01*
X157989119Y-101819009D01*
X157935429Y-102007712D01*
X157933860Y-102013227D01*
X157933331Y-102018932D01*
X157933331Y-102018934D01*
X157915190Y-102214707D01*
X157903966Y-102255959D01*
X157879400Y-102290947D01*
X157834943Y-102335404D01*
X157783394Y-102366342D01*
X157723351Y-102369396D01*
X157668929Y-102343848D01*
X157632921Y-102295703D01*
X157623791Y-102236280D01*
X157624771Y-102225706D01*
X157625300Y-102220000D01*
X157606140Y-102013227D01*
X157549311Y-101813495D01*
X157456749Y-101627606D01*
X157453296Y-101623034D01*
X157453294Y-101623030D01*
X157335063Y-101466467D01*
X157331607Y-101461890D01*
X157327371Y-101458029D01*
X157327369Y-101458026D01*
X157182379Y-101325851D01*
X157182380Y-101325851D01*
X157178145Y-101321991D01*
X157173276Y-101318976D01*
X157173273Y-101318974D01*
X157006463Y-101215691D01*
X157006464Y-101215691D01*
X157001589Y-101212673D01*
X156996246Y-101210603D01*
X156813300Y-101139729D01*
X156813295Y-101139727D01*
X156807953Y-101137658D01*
X156802315Y-101136604D01*
X156609459Y-101100552D01*
X156609456Y-101100551D01*
X156603830Y-101099500D01*
X156396170Y-101099500D01*
X156390544Y-101100551D01*
X156390540Y-101100552D01*
X156197684Y-101136604D01*
X156197681Y-101136604D01*
X156192047Y-101137658D01*
X156186707Y-101139726D01*
X156186699Y-101139729D01*
X156003753Y-101210603D01*
X156003748Y-101210605D01*
X155998411Y-101212673D01*
X155993539Y-101215689D01*
X155993536Y-101215691D01*
X155826726Y-101318974D01*
X155826718Y-101318979D01*
X155821855Y-101321991D01*
X155817624Y-101325847D01*
X155817620Y-101325851D01*
X155672630Y-101458026D01*
X155672622Y-101458034D01*
X155668393Y-101461890D01*
X155664939Y-101466462D01*
X155664936Y-101466467D01*
X155546705Y-101623030D01*
X155546697Y-101623041D01*
X155543251Y-101627606D01*
X155540701Y-101632726D01*
X155540696Y-101632735D01*
X155453243Y-101808364D01*
X155453239Y-101808372D01*
X155450689Y-101813495D01*
X155449123Y-101818998D01*
X155449119Y-101819009D01*
X155395429Y-102007712D01*
X155393860Y-102013227D01*
X155393331Y-102018930D01*
X155393331Y-102018933D01*
X155379986Y-102162944D01*
X155354599Y-102227367D01*
X155298626Y-102268132D01*
X155229521Y-102272528D01*
X155168835Y-102239183D01*
X154856818Y-101927167D01*
X154829939Y-101886940D01*
X154820500Y-101839487D01*
X154820500Y-99680000D01*
X155374700Y-99680000D01*
X155393860Y-99886773D01*
X155395429Y-99892287D01*
X155449119Y-100080990D01*
X155449122Y-100080998D01*
X155450689Y-100086505D01*
X155453241Y-100091630D01*
X155453243Y-100091635D01*
X155540696Y-100267264D01*
X155540698Y-100267268D01*
X155543251Y-100272394D01*
X155546701Y-100276962D01*
X155546705Y-100276969D01*
X155650389Y-100414269D01*
X155668393Y-100438110D01*
X155672627Y-100441970D01*
X155672630Y-100441973D01*
X155686070Y-100454225D01*
X155821855Y-100578009D01*
X155998411Y-100687327D01*
X156192047Y-100762342D01*
X156396170Y-100800500D01*
X156598101Y-100800500D01*
X156603830Y-100800500D01*
X156807953Y-100762342D01*
X157001589Y-100687327D01*
X157178145Y-100578009D01*
X157331607Y-100438110D01*
X157456749Y-100272394D01*
X157549311Y-100086505D01*
X157606140Y-99886773D01*
X157625300Y-99680000D01*
X157606140Y-99473227D01*
X157549311Y-99273495D01*
X157456749Y-99087606D01*
X157453296Y-99083034D01*
X157453294Y-99083030D01*
X157335063Y-98926467D01*
X157331607Y-98921890D01*
X157327371Y-98918029D01*
X157327369Y-98918026D01*
X157182379Y-98785851D01*
X157182380Y-98785851D01*
X157178145Y-98781991D01*
X157173276Y-98778976D01*
X157173273Y-98778974D01*
X157006463Y-98675691D01*
X157006464Y-98675691D01*
X157001589Y-98672673D01*
X156995766Y-98670417D01*
X156813300Y-98599729D01*
X156813295Y-98599727D01*
X156807953Y-98597658D01*
X156802315Y-98596604D01*
X156609459Y-98560552D01*
X156609456Y-98560551D01*
X156603830Y-98559500D01*
X156396170Y-98559500D01*
X156390544Y-98560551D01*
X156390540Y-98560552D01*
X156197684Y-98596604D01*
X156197681Y-98596604D01*
X156192047Y-98597658D01*
X156186707Y-98599726D01*
X156186699Y-98599729D01*
X156003753Y-98670603D01*
X156003748Y-98670605D01*
X155998411Y-98672673D01*
X155993539Y-98675689D01*
X155993536Y-98675691D01*
X155826726Y-98778974D01*
X155826718Y-98778979D01*
X155821855Y-98781991D01*
X155817624Y-98785847D01*
X155817620Y-98785851D01*
X155672630Y-98918026D01*
X155672622Y-98918034D01*
X155668393Y-98921890D01*
X155664939Y-98926462D01*
X155664936Y-98926467D01*
X155546705Y-99083030D01*
X155546697Y-99083041D01*
X155543251Y-99087606D01*
X155540701Y-99092726D01*
X155540696Y-99092735D01*
X155453243Y-99268364D01*
X155453239Y-99268372D01*
X155450689Y-99273495D01*
X155449123Y-99278998D01*
X155449119Y-99279009D01*
X155395429Y-99467712D01*
X155393860Y-99473227D01*
X155374700Y-99680000D01*
X154820500Y-99680000D01*
X154820500Y-98710220D01*
X154820500Y-98706735D01*
X154805935Y-98577465D01*
X154748589Y-98413579D01*
X154656213Y-98266564D01*
X154533438Y-98143789D01*
X154527538Y-98140082D01*
X154527531Y-98140076D01*
X154437644Y-98083596D01*
X154415935Y-98066284D01*
X153916694Y-97567043D01*
X153914231Y-97564580D01*
X153812525Y-97483471D01*
X153806250Y-97480449D01*
X153662360Y-97411155D01*
X153662356Y-97411153D01*
X153656090Y-97408136D01*
X153649305Y-97406587D01*
X153649304Y-97406587D01*
X153534864Y-97380467D01*
X153486815Y-97369500D01*
X153313185Y-97369500D01*
X153306398Y-97371048D01*
X153306398Y-97371049D01*
X153150695Y-97406587D01*
X153150692Y-97406588D01*
X153143910Y-97408136D01*
X153137646Y-97411152D01*
X153137639Y-97411155D01*
X152993749Y-97480449D01*
X152993744Y-97480451D01*
X152987475Y-97483471D01*
X152982035Y-97487809D01*
X152982029Y-97487813D01*
X152857168Y-97587387D01*
X152857163Y-97587391D01*
X152851727Y-97591727D01*
X152847391Y-97597163D01*
X152847387Y-97597168D01*
X152747813Y-97722029D01*
X152747809Y-97722035D01*
X152743471Y-97727475D01*
X152740451Y-97733744D01*
X152740449Y-97733749D01*
X152671155Y-97877639D01*
X152671152Y-97877646D01*
X152668136Y-97883910D01*
X152666588Y-97890692D01*
X152666587Y-97890695D01*
X152664895Y-97898110D01*
X152629500Y-98053185D01*
X152629500Y-98226815D01*
X148398500Y-98226815D01*
X148398500Y-97502940D01*
X148412015Y-97446645D01*
X148449615Y-97402622D01*
X148503102Y-97380467D01*
X148560818Y-97385009D01*
X148610180Y-97415258D01*
X148674738Y-97479816D01*
X148827478Y-97575789D01*
X148997745Y-97635368D01*
X149132046Y-97650500D01*
X149218470Y-97650500D01*
X149221954Y-97650500D01*
X149356255Y-97635368D01*
X149526522Y-97575789D01*
X149679262Y-97479816D01*
X149806816Y-97352262D01*
X149902789Y-97199522D01*
X149923617Y-97140000D01*
X155374700Y-97140000D01*
X155393860Y-97346773D01*
X155395429Y-97352287D01*
X155449119Y-97540990D01*
X155449122Y-97540998D01*
X155450689Y-97546505D01*
X155453241Y-97551630D01*
X155453243Y-97551635D01*
X155540696Y-97727264D01*
X155540698Y-97727268D01*
X155543251Y-97732394D01*
X155546701Y-97736962D01*
X155546705Y-97736969D01*
X155650389Y-97874269D01*
X155668393Y-97898110D01*
X155672627Y-97901970D01*
X155672630Y-97901973D01*
X155762054Y-97983493D01*
X155821855Y-98038009D01*
X155998411Y-98147327D01*
X156192047Y-98222342D01*
X156396170Y-98260500D01*
X156598101Y-98260500D01*
X156603830Y-98260500D01*
X156807953Y-98222342D01*
X157001589Y-98147327D01*
X157178145Y-98038009D01*
X157331607Y-97898110D01*
X157456749Y-97732394D01*
X157549311Y-97546505D01*
X157606140Y-97346773D01*
X157625300Y-97140000D01*
X157606140Y-96933227D01*
X157549311Y-96733495D01*
X157456749Y-96547606D01*
X157453296Y-96543034D01*
X157453294Y-96543030D01*
X157335063Y-96386467D01*
X157331607Y-96381890D01*
X157327371Y-96378029D01*
X157327369Y-96378026D01*
X157182379Y-96245851D01*
X157182380Y-96245851D01*
X157178145Y-96241991D01*
X157173276Y-96238976D01*
X157173273Y-96238974D01*
X157006463Y-96135691D01*
X157006464Y-96135691D01*
X157001589Y-96132673D01*
X156996246Y-96130603D01*
X156813300Y-96059729D01*
X156813295Y-96059727D01*
X156807953Y-96057658D01*
X156766399Y-96049890D01*
X156609459Y-96020552D01*
X156609456Y-96020551D01*
X156603830Y-96019500D01*
X156396170Y-96019500D01*
X156390544Y-96020551D01*
X156390540Y-96020552D01*
X156197684Y-96056604D01*
X156197681Y-96056604D01*
X156192047Y-96057658D01*
X156186707Y-96059726D01*
X156186699Y-96059729D01*
X156003753Y-96130603D01*
X156003748Y-96130605D01*
X155998411Y-96132673D01*
X155993539Y-96135689D01*
X155993536Y-96135691D01*
X155826726Y-96238974D01*
X155826718Y-96238979D01*
X155821855Y-96241991D01*
X155817624Y-96245847D01*
X155817620Y-96245851D01*
X155672630Y-96378026D01*
X155672622Y-96378034D01*
X155668393Y-96381890D01*
X155664939Y-96386462D01*
X155664936Y-96386467D01*
X155546705Y-96543030D01*
X155546697Y-96543041D01*
X155543251Y-96547606D01*
X155540701Y-96552726D01*
X155540696Y-96552735D01*
X155453243Y-96728364D01*
X155453239Y-96728372D01*
X155450689Y-96733495D01*
X155449123Y-96738998D01*
X155449119Y-96739009D01*
X155417540Y-96850000D01*
X155393860Y-96933227D01*
X155374700Y-97140000D01*
X149923617Y-97140000D01*
X149962368Y-97029255D01*
X149982565Y-96850000D01*
X149962368Y-96670745D01*
X149902789Y-96500478D01*
X149806816Y-96347738D01*
X149679262Y-96220184D01*
X149642460Y-96197060D01*
X149532412Y-96127912D01*
X149526522Y-96124211D01*
X149519959Y-96121914D01*
X149519956Y-96121913D01*
X149362825Y-96066931D01*
X149356255Y-96064632D01*
X149349333Y-96063852D01*
X149225418Y-96049890D01*
X149225412Y-96049889D01*
X149221954Y-96049500D01*
X149132046Y-96049500D01*
X149128588Y-96049889D01*
X149128581Y-96049890D01*
X149004666Y-96063852D01*
X149004664Y-96063852D01*
X148997745Y-96064632D01*
X148991176Y-96066930D01*
X148991174Y-96066931D01*
X148834043Y-96121913D01*
X148834036Y-96121915D01*
X148827478Y-96124211D01*
X148821590Y-96127910D01*
X148821587Y-96127912D01*
X148680638Y-96216476D01*
X148680633Y-96216479D01*
X148674738Y-96220184D01*
X148669813Y-96225108D01*
X148669809Y-96225112D01*
X148610181Y-96284741D01*
X148560818Y-96314991D01*
X148503102Y-96319533D01*
X148449615Y-96297378D01*
X148412015Y-96253355D01*
X148398500Y-96197060D01*
X148398500Y-94600000D01*
X155374700Y-94600000D01*
X155393860Y-94806773D01*
X155395429Y-94812287D01*
X155449119Y-95000990D01*
X155449122Y-95000998D01*
X155450689Y-95006505D01*
X155453241Y-95011630D01*
X155453243Y-95011635D01*
X155540696Y-95187264D01*
X155540698Y-95187268D01*
X155543251Y-95192394D01*
X155546701Y-95196962D01*
X155546705Y-95196969D01*
X155650389Y-95334269D01*
X155668393Y-95358110D01*
X155672627Y-95361970D01*
X155672630Y-95361973D01*
X155762054Y-95443493D01*
X155821855Y-95498009D01*
X155998411Y-95607327D01*
X156192047Y-95682342D01*
X156396170Y-95720500D01*
X156598101Y-95720500D01*
X156603830Y-95720500D01*
X156807953Y-95682342D01*
X157001589Y-95607327D01*
X157178145Y-95498009D01*
X157331607Y-95358110D01*
X157456749Y-95192394D01*
X157549311Y-95006505D01*
X157606140Y-94806773D01*
X157625300Y-94600000D01*
X157606140Y-94393227D01*
X157549311Y-94193495D01*
X157456749Y-94007606D01*
X157453296Y-94003034D01*
X157453294Y-94003030D01*
X157335063Y-93846467D01*
X157331607Y-93841890D01*
X157327371Y-93838029D01*
X157327369Y-93838026D01*
X157182379Y-93705851D01*
X157182380Y-93705851D01*
X157178145Y-93701991D01*
X157173276Y-93698976D01*
X157173273Y-93698974D01*
X157006463Y-93595691D01*
X157006464Y-93595691D01*
X157001589Y-93592673D01*
X156996246Y-93590603D01*
X156813300Y-93519729D01*
X156813295Y-93519727D01*
X156807953Y-93517658D01*
X156802315Y-93516604D01*
X156609459Y-93480552D01*
X156609456Y-93480551D01*
X156603830Y-93479500D01*
X156396170Y-93479500D01*
X156390544Y-93480551D01*
X156390540Y-93480552D01*
X156197684Y-93516604D01*
X156197681Y-93516604D01*
X156192047Y-93517658D01*
X156186707Y-93519726D01*
X156186699Y-93519729D01*
X156003753Y-93590603D01*
X156003748Y-93590605D01*
X155998411Y-93592673D01*
X155993539Y-93595689D01*
X155993536Y-93595691D01*
X155826726Y-93698974D01*
X155826718Y-93698979D01*
X155821855Y-93701991D01*
X155817624Y-93705847D01*
X155817620Y-93705851D01*
X155672630Y-93838026D01*
X155672622Y-93838034D01*
X155668393Y-93841890D01*
X155664939Y-93846462D01*
X155664936Y-93846467D01*
X155546705Y-94003030D01*
X155546697Y-94003041D01*
X155543251Y-94007606D01*
X155540701Y-94012726D01*
X155540696Y-94012735D01*
X155453243Y-94188364D01*
X155453239Y-94188372D01*
X155450689Y-94193495D01*
X155449123Y-94198998D01*
X155449119Y-94199009D01*
X155395429Y-94387712D01*
X155393860Y-94393227D01*
X155374700Y-94600000D01*
X148398500Y-94600000D01*
X148398500Y-93002940D01*
X148412015Y-92946645D01*
X148449615Y-92902622D01*
X148503102Y-92880467D01*
X148560818Y-92885009D01*
X148610181Y-92915259D01*
X148674738Y-92979816D01*
X148827478Y-93075789D01*
X148997745Y-93135368D01*
X149132046Y-93150500D01*
X149218470Y-93150500D01*
X149221954Y-93150500D01*
X149356255Y-93135368D01*
X149526522Y-93075789D01*
X149679262Y-92979816D01*
X149806816Y-92852262D01*
X149902789Y-92699522D01*
X149962368Y-92529255D01*
X149982565Y-92350000D01*
X149962368Y-92170745D01*
X149923617Y-92060000D01*
X155374700Y-92060000D01*
X155393860Y-92266773D01*
X155395429Y-92272287D01*
X155449119Y-92460990D01*
X155449122Y-92460998D01*
X155450689Y-92466505D01*
X155453241Y-92471630D01*
X155453243Y-92471635D01*
X155540696Y-92647264D01*
X155540698Y-92647268D01*
X155543251Y-92652394D01*
X155546701Y-92656962D01*
X155546705Y-92656969D01*
X155650389Y-92794269D01*
X155668393Y-92818110D01*
X155672627Y-92821970D01*
X155672630Y-92821973D01*
X155736795Y-92880467D01*
X155821855Y-92958009D01*
X155998411Y-93067327D01*
X156192047Y-93142342D01*
X156396170Y-93180500D01*
X156598101Y-93180500D01*
X156603830Y-93180500D01*
X156807953Y-93142342D01*
X157001589Y-93067327D01*
X157178145Y-92958009D01*
X157331607Y-92818110D01*
X157456749Y-92652394D01*
X157549311Y-92466505D01*
X157606140Y-92266773D01*
X157625300Y-92060000D01*
X157606140Y-91853227D01*
X157549311Y-91653495D01*
X157456749Y-91467606D01*
X157453296Y-91463034D01*
X157453294Y-91463030D01*
X157335063Y-91306467D01*
X157331607Y-91301890D01*
X157327371Y-91298029D01*
X157327369Y-91298026D01*
X157182379Y-91165851D01*
X157182380Y-91165851D01*
X157178145Y-91161991D01*
X157173276Y-91158976D01*
X157173273Y-91158974D01*
X157006463Y-91055691D01*
X157006464Y-91055691D01*
X157001589Y-91052673D01*
X156996246Y-91050603D01*
X156813300Y-90979729D01*
X156813295Y-90979727D01*
X156807953Y-90977658D01*
X156802315Y-90976604D01*
X156609459Y-90940552D01*
X156609456Y-90940551D01*
X156603830Y-90939500D01*
X156396170Y-90939500D01*
X156390544Y-90940551D01*
X156390540Y-90940552D01*
X156197684Y-90976604D01*
X156197681Y-90976604D01*
X156192047Y-90977658D01*
X156186707Y-90979726D01*
X156186699Y-90979729D01*
X156003753Y-91050603D01*
X156003748Y-91050605D01*
X155998411Y-91052673D01*
X155993539Y-91055689D01*
X155993536Y-91055691D01*
X155826726Y-91158974D01*
X155826718Y-91158979D01*
X155821855Y-91161991D01*
X155817624Y-91165847D01*
X155817620Y-91165851D01*
X155672630Y-91298026D01*
X155672622Y-91298034D01*
X155668393Y-91301890D01*
X155664939Y-91306462D01*
X155664936Y-91306467D01*
X155546705Y-91463030D01*
X155546697Y-91463041D01*
X155543251Y-91467606D01*
X155540701Y-91472726D01*
X155540696Y-91472735D01*
X155453243Y-91648364D01*
X155453239Y-91648372D01*
X155450689Y-91653495D01*
X155449123Y-91658998D01*
X155449119Y-91659009D01*
X155404739Y-91814991D01*
X155393860Y-91853227D01*
X155374700Y-92060000D01*
X149923617Y-92060000D01*
X149902789Y-92000478D01*
X149806816Y-91847738D01*
X149679262Y-91720184D01*
X149642460Y-91697060D01*
X149532412Y-91627912D01*
X149526522Y-91624211D01*
X149519959Y-91621914D01*
X149519956Y-91621913D01*
X149362825Y-91566931D01*
X149356255Y-91564632D01*
X149349333Y-91563852D01*
X149225418Y-91549890D01*
X149225412Y-91549889D01*
X149221954Y-91549500D01*
X149132046Y-91549500D01*
X149128588Y-91549889D01*
X149128581Y-91549890D01*
X149004666Y-91563852D01*
X149004664Y-91563852D01*
X148997745Y-91564632D01*
X148991176Y-91566930D01*
X148991174Y-91566931D01*
X148834043Y-91621913D01*
X148834036Y-91621915D01*
X148827478Y-91624211D01*
X148821590Y-91627910D01*
X148821587Y-91627912D01*
X148680638Y-91716476D01*
X148680633Y-91716479D01*
X148674738Y-91720184D01*
X148669813Y-91725108D01*
X148669809Y-91725112D01*
X148610181Y-91784741D01*
X148560818Y-91814991D01*
X148503102Y-91819533D01*
X148449615Y-91797378D01*
X148412015Y-91753355D01*
X148398500Y-91697060D01*
X148398500Y-90949481D01*
X148411444Y-90894321D01*
X148447575Y-90850677D01*
X148499348Y-90827662D01*
X148555955Y-90830079D01*
X148730287Y-90878925D01*
X148730289Y-90878925D01*
X148734367Y-90880068D01*
X149028534Y-90920500D01*
X149321229Y-90920500D01*
X149325466Y-90920500D01*
X149619633Y-90880068D01*
X149905555Y-90799956D01*
X150177905Y-90681658D01*
X150431610Y-90527377D01*
X150661944Y-90339986D01*
X150864616Y-90122977D01*
X151035851Y-89880392D01*
X151172459Y-89616750D01*
X151206844Y-89520000D01*
X155374700Y-89520000D01*
X155393860Y-89726773D01*
X155395429Y-89732287D01*
X155449119Y-89920990D01*
X155449122Y-89920998D01*
X155450689Y-89926505D01*
X155453241Y-89931630D01*
X155453243Y-89931635D01*
X155540696Y-90107264D01*
X155540698Y-90107268D01*
X155543251Y-90112394D01*
X155546701Y-90116962D01*
X155546705Y-90116969D01*
X155650389Y-90254269D01*
X155668393Y-90278110D01*
X155672627Y-90281970D01*
X155672630Y-90281973D01*
X155732876Y-90336894D01*
X155821855Y-90418009D01*
X155998411Y-90527327D01*
X156192047Y-90602342D01*
X156396170Y-90640500D01*
X156598101Y-90640500D01*
X156603830Y-90640500D01*
X156807953Y-90602342D01*
X157001589Y-90527327D01*
X157178145Y-90418009D01*
X157331607Y-90278110D01*
X157456749Y-90112394D01*
X157549311Y-89926505D01*
X157606140Y-89726773D01*
X157625300Y-89520000D01*
X157606140Y-89313227D01*
X157549311Y-89113495D01*
X157456749Y-88927606D01*
X157453296Y-88923034D01*
X157453294Y-88923030D01*
X157335063Y-88766467D01*
X157331607Y-88761890D01*
X157327371Y-88758029D01*
X157327369Y-88758026D01*
X157182379Y-88625851D01*
X157182380Y-88625851D01*
X157178145Y-88621991D01*
X157173276Y-88618976D01*
X157173273Y-88618974D01*
X157006463Y-88515691D01*
X157006464Y-88515691D01*
X157001589Y-88512673D01*
X156996246Y-88510603D01*
X156813300Y-88439729D01*
X156813295Y-88439727D01*
X156807953Y-88437658D01*
X156802315Y-88436604D01*
X156609459Y-88400552D01*
X156609456Y-88400551D01*
X156603830Y-88399500D01*
X156396170Y-88399500D01*
X156390544Y-88400551D01*
X156390540Y-88400552D01*
X156197684Y-88436604D01*
X156197681Y-88436604D01*
X156192047Y-88437658D01*
X156186707Y-88439726D01*
X156186699Y-88439729D01*
X156003753Y-88510603D01*
X156003748Y-88510605D01*
X155998411Y-88512673D01*
X155993539Y-88515689D01*
X155993536Y-88515691D01*
X155826726Y-88618974D01*
X155826718Y-88618979D01*
X155821855Y-88621991D01*
X155817624Y-88625847D01*
X155817620Y-88625851D01*
X155672630Y-88758026D01*
X155672622Y-88758034D01*
X155668393Y-88761890D01*
X155664939Y-88766462D01*
X155664936Y-88766467D01*
X155546705Y-88923030D01*
X155546697Y-88923041D01*
X155543251Y-88927606D01*
X155540701Y-88932726D01*
X155540696Y-88932735D01*
X155453243Y-89108364D01*
X155453239Y-89108372D01*
X155450689Y-89113495D01*
X155449123Y-89118998D01*
X155449119Y-89119009D01*
X155395429Y-89307712D01*
X155393860Y-89313227D01*
X155374700Y-89520000D01*
X151206844Y-89520000D01*
X151271896Y-89336962D01*
X151332309Y-89046240D01*
X151352572Y-88750000D01*
X151332309Y-88453760D01*
X151271896Y-88163038D01*
X151172459Y-87883250D01*
X151158671Y-87856640D01*
X155379500Y-87856640D01*
X155380688Y-87862615D01*
X155380689Y-87862620D01*
X155384350Y-87881025D01*
X155395195Y-87935544D01*
X155454981Y-88025019D01*
X155544456Y-88084805D01*
X155623360Y-88100500D01*
X157370544Y-88100500D01*
X157376640Y-88100500D01*
X157455544Y-88084805D01*
X157545019Y-88025019D01*
X157604805Y-87935544D01*
X157620500Y-87856640D01*
X157620500Y-86980000D01*
X157914700Y-86980000D01*
X157933860Y-87186773D01*
X157935429Y-87192287D01*
X157989119Y-87380990D01*
X157989122Y-87380998D01*
X157990689Y-87386505D01*
X157993241Y-87391630D01*
X157993243Y-87391635D01*
X158080696Y-87567264D01*
X158080698Y-87567268D01*
X158083251Y-87572394D01*
X158086701Y-87576962D01*
X158086705Y-87576969D01*
X158190389Y-87714269D01*
X158208393Y-87738110D01*
X158212627Y-87741970D01*
X158212630Y-87741973D01*
X158302054Y-87823493D01*
X158361855Y-87878009D01*
X158538411Y-87987327D01*
X158732047Y-88062342D01*
X158936170Y-88100500D01*
X159138101Y-88100500D01*
X159143830Y-88100500D01*
X159347953Y-88062342D01*
X159541589Y-87987327D01*
X159718145Y-87878009D01*
X159871607Y-87738110D01*
X159996749Y-87572394D01*
X160089311Y-87386505D01*
X160146140Y-87186773D01*
X160165300Y-86980000D01*
X160146140Y-86773227D01*
X160097714Y-86603028D01*
X160090880Y-86579009D01*
X160090879Y-86579007D01*
X160089311Y-86573495D01*
X159996749Y-86387606D01*
X159993296Y-86383034D01*
X159993294Y-86383030D01*
X159875063Y-86226467D01*
X159871607Y-86221890D01*
X159867371Y-86218029D01*
X159867369Y-86218026D01*
X159722379Y-86085851D01*
X159722380Y-86085851D01*
X159718145Y-86081991D01*
X159713276Y-86078976D01*
X159713273Y-86078974D01*
X159546463Y-85975691D01*
X159546464Y-85975691D01*
X159541589Y-85972673D01*
X159426781Y-85928196D01*
X159353300Y-85899729D01*
X159353295Y-85899727D01*
X159347953Y-85897658D01*
X159264080Y-85881979D01*
X159149459Y-85860552D01*
X159149456Y-85860551D01*
X159143830Y-85859500D01*
X158936170Y-85859500D01*
X158930544Y-85860551D01*
X158930540Y-85860552D01*
X158737684Y-85896604D01*
X158737681Y-85896604D01*
X158732047Y-85897658D01*
X158726707Y-85899726D01*
X158726699Y-85899729D01*
X158543753Y-85970603D01*
X158543748Y-85970605D01*
X158538411Y-85972673D01*
X158533539Y-85975689D01*
X158533536Y-85975691D01*
X158366726Y-86078974D01*
X158366718Y-86078979D01*
X158361855Y-86081991D01*
X158357624Y-86085847D01*
X158357620Y-86085851D01*
X158212630Y-86218026D01*
X158212622Y-86218034D01*
X158208393Y-86221890D01*
X158204939Y-86226462D01*
X158204936Y-86226467D01*
X158086705Y-86383030D01*
X158086697Y-86383041D01*
X158083251Y-86387606D01*
X158080701Y-86392726D01*
X158080696Y-86392735D01*
X157993243Y-86568364D01*
X157993239Y-86568372D01*
X157990689Y-86573495D01*
X157989123Y-86578998D01*
X157989119Y-86579009D01*
X157955007Y-86698903D01*
X157933860Y-86773227D01*
X157933331Y-86778932D01*
X157933331Y-86778934D01*
X157929476Y-86820542D01*
X157914700Y-86980000D01*
X157620500Y-86980000D01*
X157620500Y-86103360D01*
X157604805Y-86024456D01*
X157545019Y-85934981D01*
X157492261Y-85899729D01*
X157465697Y-85881979D01*
X157465696Y-85881978D01*
X157455544Y-85875195D01*
X157443566Y-85872812D01*
X157443565Y-85872812D01*
X157382620Y-85860689D01*
X157382615Y-85860688D01*
X157376640Y-85859500D01*
X155623360Y-85859500D01*
X155617385Y-85860688D01*
X155617379Y-85860689D01*
X155556434Y-85872812D01*
X155556432Y-85872812D01*
X155544456Y-85875195D01*
X155534305Y-85881977D01*
X155534302Y-85881979D01*
X155465134Y-85928196D01*
X155465131Y-85928198D01*
X155454981Y-85934981D01*
X155448198Y-85945131D01*
X155448196Y-85945134D01*
X155401979Y-86014302D01*
X155401977Y-86014305D01*
X155395195Y-86024456D01*
X155392812Y-86036432D01*
X155392812Y-86036434D01*
X155380689Y-86097379D01*
X155380688Y-86097385D01*
X155379500Y-86103360D01*
X155379500Y-87856640D01*
X151158671Y-87856640D01*
X151035851Y-87619608D01*
X150864616Y-87377023D01*
X150661944Y-87160014D01*
X150431610Y-86972623D01*
X150427986Y-86970419D01*
X150427983Y-86970417D01*
X150181523Y-86820542D01*
X150181521Y-86820541D01*
X150177905Y-86818342D01*
X150155983Y-86808820D01*
X149909436Y-86701729D01*
X149909426Y-86701725D01*
X149905555Y-86700044D01*
X149901483Y-86698903D01*
X149623712Y-86621074D01*
X149623699Y-86621071D01*
X149619633Y-86619932D01*
X149615446Y-86619356D01*
X149615434Y-86619354D01*
X149329663Y-86580076D01*
X149329650Y-86580075D01*
X149325466Y-86579500D01*
X149028534Y-86579500D01*
X149024350Y-86580075D01*
X149024336Y-86580076D01*
X148738565Y-86619354D01*
X148738550Y-86619356D01*
X148734367Y-86619932D01*
X148730303Y-86621070D01*
X148730287Y-86621074D01*
X148452516Y-86698903D01*
X148452511Y-86698904D01*
X148448445Y-86700044D01*
X148444578Y-86701723D01*
X148444563Y-86701729D01*
X148179978Y-86816655D01*
X148179973Y-86816657D01*
X148176095Y-86818342D01*
X148172484Y-86820537D01*
X148172476Y-86820542D01*
X147926016Y-86970417D01*
X147926005Y-86970424D01*
X147922390Y-86972623D01*
X147919100Y-86975299D01*
X147919098Y-86975301D01*
X147695341Y-87157341D01*
X147695337Y-87157344D01*
X147692056Y-87160014D01*
X147689177Y-87163096D01*
X147689168Y-87163105D01*
X147492272Y-87373930D01*
X147492267Y-87373935D01*
X147489384Y-87377023D01*
X147486948Y-87380473D01*
X147486939Y-87380485D01*
X147320595Y-87616142D01*
X147320591Y-87616147D01*
X147318149Y-87619608D01*
X147316203Y-87623362D01*
X147316199Y-87623370D01*
X147183490Y-87879487D01*
X147183485Y-87879496D01*
X147181541Y-87883250D01*
X147180124Y-87887235D01*
X147180120Y-87887246D01*
X147083525Y-88159037D01*
X147083521Y-88159049D01*
X147082104Y-88163038D01*
X147081241Y-88167188D01*
X147081240Y-88167194D01*
X147022554Y-88449603D01*
X147022552Y-88449614D01*
X147021691Y-88453760D01*
X147021402Y-88457984D01*
X147021401Y-88457992D01*
X147010390Y-88618974D01*
X147001428Y-88750000D01*
X147021691Y-89046240D01*
X147022552Y-89050387D01*
X147022554Y-89050396D01*
X147076026Y-89307712D01*
X147082104Y-89336962D01*
X147083522Y-89340953D01*
X147083525Y-89340962D01*
X147180120Y-89612753D01*
X147181541Y-89616750D01*
X147183488Y-89620508D01*
X147183490Y-89620512D01*
X147243598Y-89736515D01*
X147257500Y-89793563D01*
X147257500Y-98772394D01*
X147258028Y-98776411D01*
X147258029Y-98776413D01*
X147271122Y-98875870D01*
X147271123Y-98875876D01*
X147272184Y-98883930D01*
X147275293Y-98891436D01*
X147275294Y-98891439D01*
X147289803Y-98926467D01*
X147329669Y-99022711D01*
X147334614Y-99029156D01*
X147334615Y-99029157D01*
X147377256Y-99084729D01*
X147399573Y-99131771D01*
X147400610Y-99183828D01*
X147380184Y-99231721D01*
X147320594Y-99316142D01*
X147320584Y-99316157D01*
X147318149Y-99319608D01*
X147316208Y-99323353D01*
X147316200Y-99323367D01*
X147183490Y-99579487D01*
X147183485Y-99579496D01*
X147181541Y-99583250D01*
X147180124Y-99587235D01*
X147180120Y-99587246D01*
X147083525Y-99859037D01*
X147083521Y-99859049D01*
X147082104Y-99863038D01*
X147081241Y-99867188D01*
X147081240Y-99867194D01*
X147022554Y-100149603D01*
X147022552Y-100149614D01*
X147021691Y-100153760D01*
X147021402Y-100157984D01*
X147021401Y-100157992D01*
X147013927Y-100267264D01*
X147001428Y-100450000D01*
X146500500Y-100450000D01*
X146500500Y-82600000D01*
X148394551Y-82600000D01*
X148414317Y-82851148D01*
X148415452Y-82855877D01*
X148415453Y-82855881D01*
X148471989Y-83091374D01*
X148471991Y-83091382D01*
X148473127Y-83096111D01*
X148569534Y-83328859D01*
X148572081Y-83333016D01*
X148572082Y-83333017D01*
X148698617Y-83539504D01*
X148698622Y-83539511D01*
X148701164Y-83543659D01*
X148704324Y-83547358D01*
X148704327Y-83547363D01*
X148861615Y-83731523D01*
X148864776Y-83735224D01*
X149056341Y-83898836D01*
X149060491Y-83901379D01*
X149060495Y-83901382D01*
X149172300Y-83969896D01*
X149271141Y-84030466D01*
X149503889Y-84126873D01*
X149748852Y-84185683D01*
X149937118Y-84200500D01*
X150060437Y-84200500D01*
X150062882Y-84200500D01*
X150251148Y-84185683D01*
X150496111Y-84126873D01*
X150728859Y-84030466D01*
X150943659Y-83898836D01*
X151135224Y-83735224D01*
X151298836Y-83543659D01*
X151430466Y-83328859D01*
X151526873Y-83096111D01*
X151585683Y-82851148D01*
X151605449Y-82600000D01*
X151585683Y-82348852D01*
X151526873Y-82103889D01*
X151430466Y-81871141D01*
X151298836Y-81656341D01*
X151135224Y-81464776D01*
X151131523Y-81461615D01*
X150947363Y-81304327D01*
X150947358Y-81304324D01*
X150943659Y-81301164D01*
X150939511Y-81298622D01*
X150939504Y-81298617D01*
X150733017Y-81172082D01*
X150733016Y-81172081D01*
X150728859Y-81169534D01*
X150496111Y-81073127D01*
X150491382Y-81071991D01*
X150491374Y-81071989D01*
X150255881Y-81015453D01*
X150255877Y-81015452D01*
X150251148Y-81014317D01*
X150246295Y-81013935D01*
X150065316Y-80999691D01*
X150065301Y-80999690D01*
X150062882Y-80999500D01*
X149937118Y-80999500D01*
X149934699Y-80999690D01*
X149934683Y-80999691D01*
X149753704Y-81013935D01*
X149753702Y-81013935D01*
X149748852Y-81014317D01*
X149744124Y-81015451D01*
X149744118Y-81015453D01*
X149508625Y-81071989D01*
X149508613Y-81071992D01*
X149503889Y-81073127D01*
X149499392Y-81074989D01*
X149499388Y-81074991D01*
X149275645Y-81167668D01*
X149275640Y-81167670D01*
X149271141Y-81169534D01*
X149266988Y-81172078D01*
X149266982Y-81172082D01*
X149060495Y-81298617D01*
X149060482Y-81298626D01*
X149056341Y-81301164D01*
X149052646Y-81304319D01*
X149052636Y-81304327D01*
X148868476Y-81461615D01*
X148868469Y-81461621D01*
X148864776Y-81464776D01*
X148861621Y-81468469D01*
X148861615Y-81468476D01*
X148704327Y-81652636D01*
X148704319Y-81652646D01*
X148701164Y-81656341D01*
X148698626Y-81660482D01*
X148698617Y-81660495D01*
X148572082Y-81866982D01*
X148572078Y-81866988D01*
X148569534Y-81871141D01*
X148473127Y-82103889D01*
X148471992Y-82108613D01*
X148471989Y-82108625D01*
X148415453Y-82344118D01*
X148415451Y-82344124D01*
X148414317Y-82348852D01*
X148394551Y-82600000D01*
X146500500Y-82600000D01*
X146500500Y-79224500D01*
X146517113Y-79162500D01*
X146562500Y-79117113D01*
X146624500Y-79100500D01*
X161375500Y-79100500D01*
X161437500Y-79117113D01*
G37*
G04 #@! TD.AperFunction*
M02*
