G04 #@! TF.GenerationSoftware,KiCad,Pcbnew,7.0.0-da2b9df05c~163~ubuntu22.04.1*
G04 #@! TF.CreationDate,2023-03-12T19:04:27+00:00*
G04 #@! TF.ProjectId,simpleadapter14m,73696d70-6c65-4616-9461-707465723134,rev?*
G04 #@! TF.SameCoordinates,Original*
G04 #@! TF.FileFunction,Legend,Top*
G04 #@! TF.FilePolarity,Positive*
%FSLAX46Y46*%
G04 Gerber Fmt 4.6, Leading zero omitted, Abs format (unit mm)*
G04 Created by KiCad (PCBNEW 7.0.0-da2b9df05c~163~ubuntu22.04.1) date 2023-03-12 19:04:27*
%MOMM*%
%LPD*%
G01*
G04 APERTURE LIST*
%ADD10C,0.250000*%
%ADD11C,0.254000*%
%ADD12C,0.150000*%
%ADD13C,0.100000*%
%ADD14C,0.120000*%
G04 APERTURE END LIST*
D10*
X156401904Y-84832380D02*
X155830476Y-84832380D01*
X156116190Y-84832380D02*
X156116190Y-83832380D01*
X156116190Y-83832380D02*
X156020952Y-83975238D01*
X156020952Y-83975238D02*
X155925714Y-84070476D01*
X155925714Y-84070476D02*
X155830476Y-84118095D01*
D11*
X148548573Y-95023332D02*
X149455716Y-95023332D01*
X149455716Y-95023332D02*
X149637145Y-95083809D01*
X149637145Y-95083809D02*
X149758097Y-95204761D01*
X149758097Y-95204761D02*
X149818573Y-95386190D01*
X149818573Y-95386190D02*
X149818573Y-95507142D01*
X149818573Y-93753332D02*
X149818573Y-94479047D01*
X149818573Y-94116190D02*
X148548573Y-94116190D01*
X148548573Y-94116190D02*
X148730002Y-94237142D01*
X148730002Y-94237142D02*
X148850954Y-94358094D01*
X148850954Y-94358094D02*
X148911430Y-94479047D01*
D12*
X157436666Y-84017380D02*
X157436666Y-84731666D01*
X157436666Y-84731666D02*
X157389047Y-84874523D01*
X157389047Y-84874523D02*
X157293809Y-84969761D01*
X157293809Y-84969761D02*
X157150952Y-85017380D01*
X157150952Y-85017380D02*
X157055714Y-85017380D01*
X157865238Y-84112619D02*
X157912857Y-84065000D01*
X157912857Y-84065000D02*
X158008095Y-84017380D01*
X158008095Y-84017380D02*
X158246190Y-84017380D01*
X158246190Y-84017380D02*
X158341428Y-84065000D01*
X158341428Y-84065000D02*
X158389047Y-84112619D01*
X158389047Y-84112619D02*
X158436666Y-84207857D01*
X158436666Y-84207857D02*
X158436666Y-84303095D01*
X158436666Y-84303095D02*
X158389047Y-84445952D01*
X158389047Y-84445952D02*
X157817619Y-85017380D01*
X157817619Y-85017380D02*
X158436666Y-85017380D01*
D13*
X146637000Y-88600000D02*
X146177000Y-88600000D01*
X146177000Y-88600000D02*
X146177000Y-100600000D01*
X150087000Y-91600000D02*
X150087000Y-97600000D01*
X146177000Y-100600000D02*
X146637000Y-100600000D01*
D14*
X155170000Y-85650000D02*
X156500000Y-85650000D01*
X155170000Y-86980000D02*
X155170000Y-85650000D01*
X155170000Y-88250000D02*
X155170000Y-103550000D01*
X155170000Y-88250000D02*
X157770000Y-88250000D01*
X155170000Y-103550000D02*
X160370000Y-103550000D01*
X157770000Y-85650000D02*
X160370000Y-85650000D01*
X157770000Y-88250000D02*
X157770000Y-85650000D01*
X160370000Y-85650000D02*
X160370000Y-103550000D01*
M02*
