M48
; DRILL file {KiCad 7.0.0-da2b9df05c~163~ubuntu22.04.1} date Sun Mar 12 19:04:31 2023
; FORMAT={-:-/ absolute / inch / decimal}
; #@! TF.CreationDate,2023-03-12T19:04:31+00:00
; #@! TF.GenerationSoftware,Kicad,Pcbnew,7.0.0-da2b9df05c~163~ubuntu22.04.1
; #@! TF.FileFunction,Plated,1,2,PTH
FMAT,2
INCH
; #@! TA.AperFunction,Plated,PTH,ViaDrill
T1C0.0157
; #@! TA.AperFunction,Plated,PTH,ComponentDrill
T2C0.0394
; #@! TA.AperFunction,Plated,PTH,ComponentDrill
T3C0.1060
%
G90
G05
T1
X6.0394Y-3.8638
X6.0551Y-3.5795
X6.065Y-3.8878
X6.0669Y-3.4154
X6.0673Y-3.4551
X6.0866Y-3.5488
T2
X6.1614Y-3.4244
X6.1614Y-3.5244
X6.1614Y-3.6244
X6.1614Y-3.7244
X6.1614Y-3.8244
X6.1614Y-3.9244
X6.1614Y-4.0244
X6.2614Y-3.4244
X6.2614Y-3.5244
X6.2614Y-3.6244
X6.2614Y-3.7244
X6.2614Y-3.8244
X6.2614Y-3.9244
X6.2614Y-4.0244
T3
X5.8731Y-3.4941
X5.8731Y-3.9547
T0
M30
