%TF.GenerationSoftware,KiCad,Pcbnew,7.0.0-da2b9df05c~163~ubuntu22.04.1*%
%TF.CreationDate,2023-02-19T22:43:45+00:00*%
%TF.ProjectId,userioswitch,75736572-696f-4737-9769-7463682e6b69,rev?*%
%TF.SameCoordinates,Original*%
%TF.FileFunction,Drillmap*%
%TF.FilePolarity,Positive*%
%FSLAX45Y45*%
G04 Gerber Fmt 4.5, Leading zero omitted, Abs format (unit mm)*
G04 Created by KiCad (PCBNEW 7.0.0-da2b9df05c~163~ubuntu22.04.1) date 2023-02-19 22:43:45*
%MOMM*%
%LPD*%
G01*
G04 APERTURE LIST*
%ADD10C,0.200000*%
%ADD11C,0.040000*%
%ADD12C,0.100000*%
%ADD13C,0.229220*%
%ADD14C,0.269260*%
%ADD15C,0.320000*%
G04 APERTURE END LIST*
D10*
X17050000Y-6700000D02*
X23350000Y-6700000D01*
X23350000Y-6700000D02*
X23350000Y-10900000D01*
X23350000Y-10900000D02*
X17050000Y-10900000D01*
X17050000Y-10900000D02*
X17050000Y-6700000D01*
D11*
X17582200Y-8336600D02*
X17622200Y-8376600D01*
X17622200Y-8336600D02*
X17582200Y-8376600D01*
X18522000Y-8057200D02*
X18562000Y-8097200D01*
X18562000Y-8057200D02*
X18522000Y-8097200D01*
X18776000Y-9555800D02*
X18816000Y-9595800D01*
X18816000Y-9555800D02*
X18776000Y-9595800D01*
X18778000Y-8077100D02*
X18818000Y-8117100D01*
X18818000Y-8077100D02*
X18778000Y-8117100D01*
X18801400Y-9022400D02*
X18841400Y-9062400D01*
X18841400Y-9022400D02*
X18801400Y-9062400D01*
X18903000Y-8489000D02*
X18943000Y-8529000D01*
X18943000Y-8489000D02*
X18903000Y-8529000D01*
X19028000Y-8033220D02*
X19068000Y-8073220D01*
X19068000Y-8033220D02*
X19028000Y-8073220D01*
X19045980Y-9569100D02*
X19085980Y-9609100D01*
X19085980Y-9569100D02*
X19045980Y-9609100D01*
X19334800Y-9962200D02*
X19374800Y-10002200D01*
X19374800Y-9962200D02*
X19334800Y-10002200D01*
X19385600Y-9708200D02*
X19425600Y-9748200D01*
X19425600Y-9708200D02*
X19385600Y-9748200D01*
X19393340Y-8081640D02*
X19433340Y-8121640D01*
X19433340Y-8081640D02*
X19393340Y-8121640D01*
X19436400Y-8387400D02*
X19476400Y-8427400D01*
X19476400Y-8387400D02*
X19436400Y-8427400D01*
X19461800Y-9509100D02*
X19501800Y-9549100D01*
X19501800Y-9509100D02*
X19461800Y-9549100D01*
X19512600Y-9174800D02*
X19552600Y-9214800D01*
X19552600Y-9174800D02*
X19512600Y-9214800D01*
X19538000Y-9835200D02*
X19578000Y-9875200D01*
X19578000Y-9835200D02*
X19538000Y-9875200D01*
X19563400Y-7777800D02*
X19603400Y-7817800D01*
X19603400Y-7777800D02*
X19563400Y-7817800D01*
X19563400Y-8082600D02*
X19603400Y-8122600D01*
X19603400Y-8082600D02*
X19563400Y-8122600D01*
X19665000Y-9835200D02*
X19705000Y-9875200D01*
X19705000Y-9835200D02*
X19665000Y-9875200D01*
X19690830Y-8692630D02*
X19730830Y-8732630D01*
X19730830Y-8692630D02*
X19690830Y-8732630D01*
X19783786Y-9983584D02*
X19823786Y-10023584D01*
X19823786Y-9983584D02*
X19783786Y-10023584D01*
X19794800Y-10128484D02*
X19834800Y-10168484D01*
X19834800Y-10128484D02*
X19794800Y-10168484D01*
X19949580Y-9787950D02*
X19989580Y-9827950D01*
X19989580Y-9787950D02*
X19949580Y-9827950D01*
X20074755Y-9436650D02*
X20114755Y-9476650D01*
X20114755Y-9436650D02*
X20074755Y-9476650D01*
X20116025Y-9257175D02*
X20156025Y-9297175D01*
X20156025Y-9257175D02*
X20116025Y-9297175D01*
X20173000Y-10089200D02*
X20213000Y-10129200D01*
X20213000Y-10089200D02*
X20173000Y-10129200D01*
X20176312Y-9698050D02*
X20216312Y-9738050D01*
X20216312Y-9698050D02*
X20176312Y-9738050D01*
X20188845Y-8955755D02*
X20228845Y-8995755D01*
X20228845Y-8955755D02*
X20188845Y-8995755D01*
X20404850Y-10035311D02*
X20444850Y-10075311D01*
X20444850Y-10035311D02*
X20404850Y-10075311D01*
X20462500Y-9608150D02*
X20502500Y-9648150D01*
X20502500Y-9608150D02*
X20462500Y-9648150D01*
X20604800Y-10089200D02*
X20644800Y-10129200D01*
X20644800Y-10089200D02*
X20604800Y-10129200D01*
X20655600Y-9073200D02*
X20695600Y-9113200D01*
X20695600Y-9073200D02*
X20655600Y-9113200D01*
X20775470Y-9489020D02*
X20815470Y-9529020D01*
X20815470Y-9489020D02*
X20775470Y-9529020D01*
X20782600Y-9682800D02*
X20822600Y-9722800D01*
X20822600Y-9682800D02*
X20782600Y-9722800D01*
X20985800Y-8082600D02*
X21025800Y-8122600D01*
X21025800Y-8082600D02*
X20985800Y-8122600D01*
X21036600Y-8920800D02*
X21076600Y-8960800D01*
X21076600Y-8920800D02*
X21036600Y-8960800D01*
X21036600Y-9784400D02*
X21076600Y-9824400D01*
X21076600Y-9784400D02*
X21036600Y-9824400D01*
X21050350Y-9428800D02*
X21090350Y-9468800D01*
X21090350Y-9428800D02*
X21050350Y-9468800D01*
X21087400Y-9886000D02*
X21127400Y-9926000D01*
X21127400Y-9886000D02*
X21087400Y-9926000D01*
X21120194Y-10030847D02*
X21160194Y-10070847D01*
X21160194Y-10030847D02*
X21120194Y-10070847D01*
X21266140Y-8046830D02*
X21306140Y-8086830D01*
X21306140Y-8046830D02*
X21266140Y-8086830D01*
X21366800Y-8158800D02*
X21406800Y-8198800D01*
X21406800Y-8158800D02*
X21366800Y-8198800D01*
X21417600Y-9124000D02*
X21457600Y-9164000D01*
X21457600Y-9124000D02*
X21417600Y-9164000D01*
X21417600Y-9708200D02*
X21457600Y-9748200D01*
X21457600Y-9708200D02*
X21417600Y-9748200D01*
X21506500Y-9568500D02*
X21546500Y-9608500D01*
X21546500Y-9568500D02*
X21506500Y-9608500D01*
X21519295Y-9315665D02*
X21559295Y-9355665D01*
X21559295Y-9315665D02*
X21519295Y-9355665D01*
X21571871Y-9400670D02*
X21611871Y-9440670D01*
X21611871Y-9400670D02*
X21571871Y-9440670D01*
X21573930Y-9173070D02*
X21613930Y-9213070D01*
X21613930Y-9173070D02*
X21573930Y-9213070D01*
X21671600Y-8819200D02*
X21711600Y-8859200D01*
X21711600Y-8819200D02*
X21671600Y-8859200D01*
X21678870Y-9103490D02*
X21718870Y-9143490D01*
X21718870Y-9103490D02*
X21678870Y-9143490D01*
X21706590Y-9709360D02*
X21746590Y-9749360D01*
X21746590Y-9709360D02*
X21706590Y-9749360D01*
X21706730Y-8696320D02*
X21746730Y-8736320D01*
X21746730Y-8696320D02*
X21706730Y-8736320D01*
X22027200Y-8184200D02*
X22067200Y-8224200D01*
X22067200Y-8184200D02*
X22027200Y-8224200D01*
X22103400Y-9479600D02*
X22143400Y-9519600D01*
X22143400Y-9479600D02*
X22103400Y-9519600D01*
D12*
X17372300Y-8712700D02*
G75*
G03*
X17372300Y-8712700I-50000J0D01*
G01*
X17372300Y-8966700D02*
G75*
G03*
X17372300Y-8966700I-50000J0D01*
G01*
X17372300Y-9220700D02*
G75*
G03*
X17372300Y-9220700I-50000J0D01*
G01*
X17372300Y-9474700D02*
G75*
G03*
X17372300Y-9474700I-50000J0D01*
G01*
X17372300Y-9728700D02*
G75*
G03*
X17372300Y-9728700I-50000J0D01*
G01*
X17626300Y-8712700D02*
G75*
G03*
X17626300Y-8712700I-50000J0D01*
G01*
X17626300Y-8966700D02*
G75*
G03*
X17626300Y-8966700I-50000J0D01*
G01*
X17626300Y-9220700D02*
G75*
G03*
X17626300Y-9220700I-50000J0D01*
G01*
X17626300Y-9474700D02*
G75*
G03*
X17626300Y-9474700I-50000J0D01*
G01*
X17626300Y-9728700D02*
G75*
G03*
X17626300Y-9728700I-50000J0D01*
G01*
X19989000Y-8432800D02*
G75*
G03*
X19989000Y-8432800I-50000J0D01*
G01*
X19989000Y-8686800D02*
G75*
G03*
X19989000Y-8686800I-50000J0D01*
G01*
X20243000Y-8432800D02*
G75*
G03*
X20243000Y-8432800I-50000J0D01*
G01*
X20243000Y-8686800D02*
G75*
G03*
X20243000Y-8686800I-50000J0D01*
G01*
X20497000Y-8432800D02*
G75*
G03*
X20497000Y-8432800I-50000J0D01*
G01*
X20497000Y-8686800D02*
G75*
G03*
X20497000Y-8686800I-50000J0D01*
G01*
D13*
X18034000Y-8400190D02*
X18034000Y-8629410D01*
X17919390Y-8514800D02*
X18148610Y-8514800D01*
X18034000Y-9760190D02*
X18034000Y-9989410D01*
X17919390Y-9874800D02*
X18148610Y-9874800D01*
X18243000Y-7225990D02*
X18243000Y-7455210D01*
X18128390Y-7340600D02*
X18357610Y-7340600D01*
X19603000Y-7225990D02*
X19603000Y-7455210D01*
X19488390Y-7340600D02*
X19717610Y-7340600D01*
X20706800Y-7225990D02*
X20706800Y-7455210D01*
X20592190Y-7340600D02*
X20821410Y-7340600D01*
X22066800Y-7225990D02*
X22066800Y-7455210D01*
X21952190Y-7340600D02*
X22181410Y-7340600D01*
X22440650Y-8425590D02*
X22440650Y-8654810D01*
X22326040Y-8540200D02*
X22555260Y-8540200D01*
X22440650Y-9785590D02*
X22440650Y-10014810D01*
X22326040Y-9900200D02*
X22555260Y-9900200D01*
D14*
X19724999Y-10755299D02*
X19724999Y-10564901D01*
X19534601Y-10564901D01*
X19534601Y-10755299D01*
X19724999Y-10755299D01*
X20894999Y-10755299D02*
X20894999Y-10564901D01*
X20704601Y-10564901D01*
X20704601Y-10755299D01*
X20894999Y-10755299D01*
D15*
X17500000Y-7260000D02*
X17660000Y-7100000D01*
X17500000Y-6940000D01*
X17340000Y-7100000D01*
X17500000Y-7260000D01*
X17500000Y-10660000D02*
X17660000Y-10500000D01*
X17500000Y-10340000D01*
X17340000Y-10500000D01*
X17500000Y-10660000D01*
X22900000Y-7260000D02*
X23060000Y-7100000D01*
X22900000Y-6940000D01*
X22740000Y-7100000D01*
X22900000Y-7260000D01*
X22900000Y-10660000D02*
X23060000Y-10500000D01*
X22900000Y-10340000D01*
X22740000Y-10500000D01*
X22900000Y-10660000D01*
D10*
X17287619Y-11203476D02*
X17287619Y-11003476D01*
X17287619Y-11003476D02*
X17335238Y-11003476D01*
X17335238Y-11003476D02*
X17363810Y-11013000D01*
X17363810Y-11013000D02*
X17382857Y-11032048D01*
X17382857Y-11032048D02*
X17392381Y-11051095D01*
X17392381Y-11051095D02*
X17401905Y-11089190D01*
X17401905Y-11089190D02*
X17401905Y-11117762D01*
X17401905Y-11117762D02*
X17392381Y-11155857D01*
X17392381Y-11155857D02*
X17382857Y-11174905D01*
X17382857Y-11174905D02*
X17363810Y-11193952D01*
X17363810Y-11193952D02*
X17335238Y-11203476D01*
X17335238Y-11203476D02*
X17287619Y-11203476D01*
X17487619Y-11203476D02*
X17487619Y-11070143D01*
X17487619Y-11108238D02*
X17497143Y-11089190D01*
X17497143Y-11089190D02*
X17506667Y-11079667D01*
X17506667Y-11079667D02*
X17525714Y-11070143D01*
X17525714Y-11070143D02*
X17544762Y-11070143D01*
X17611429Y-11203476D02*
X17611429Y-11070143D01*
X17611429Y-11003476D02*
X17601905Y-11013000D01*
X17601905Y-11013000D02*
X17611429Y-11022524D01*
X17611429Y-11022524D02*
X17620952Y-11013000D01*
X17620952Y-11013000D02*
X17611429Y-11003476D01*
X17611429Y-11003476D02*
X17611429Y-11022524D01*
X17735238Y-11203476D02*
X17716190Y-11193952D01*
X17716190Y-11193952D02*
X17706667Y-11174905D01*
X17706667Y-11174905D02*
X17706667Y-11003476D01*
X17840000Y-11203476D02*
X17820952Y-11193952D01*
X17820952Y-11193952D02*
X17811429Y-11174905D01*
X17811429Y-11174905D02*
X17811429Y-11003476D01*
X18036190Y-11203476D02*
X18036190Y-11003476D01*
X18036190Y-11003476D02*
X18102857Y-11146333D01*
X18102857Y-11146333D02*
X18169524Y-11003476D01*
X18169524Y-11003476D02*
X18169524Y-11203476D01*
X18350476Y-11203476D02*
X18350476Y-11098714D01*
X18350476Y-11098714D02*
X18340952Y-11079667D01*
X18340952Y-11079667D02*
X18321905Y-11070143D01*
X18321905Y-11070143D02*
X18283809Y-11070143D01*
X18283809Y-11070143D02*
X18264762Y-11079667D01*
X18350476Y-11193952D02*
X18331429Y-11203476D01*
X18331429Y-11203476D02*
X18283809Y-11203476D01*
X18283809Y-11203476D02*
X18264762Y-11193952D01*
X18264762Y-11193952D02*
X18255238Y-11174905D01*
X18255238Y-11174905D02*
X18255238Y-11155857D01*
X18255238Y-11155857D02*
X18264762Y-11136810D01*
X18264762Y-11136810D02*
X18283809Y-11127286D01*
X18283809Y-11127286D02*
X18331429Y-11127286D01*
X18331429Y-11127286D02*
X18350476Y-11117762D01*
X18445714Y-11070143D02*
X18445714Y-11270143D01*
X18445714Y-11079667D02*
X18464762Y-11070143D01*
X18464762Y-11070143D02*
X18502857Y-11070143D01*
X18502857Y-11070143D02*
X18521905Y-11079667D01*
X18521905Y-11079667D02*
X18531429Y-11089190D01*
X18531429Y-11089190D02*
X18540952Y-11108238D01*
X18540952Y-11108238D02*
X18540952Y-11165381D01*
X18540952Y-11165381D02*
X18531429Y-11184429D01*
X18531429Y-11184429D02*
X18521905Y-11193952D01*
X18521905Y-11193952D02*
X18502857Y-11203476D01*
X18502857Y-11203476D02*
X18464762Y-11203476D01*
X18464762Y-11203476D02*
X18445714Y-11193952D01*
X18626667Y-11184429D02*
X18636190Y-11193952D01*
X18636190Y-11193952D02*
X18626667Y-11203476D01*
X18626667Y-11203476D02*
X18617143Y-11193952D01*
X18617143Y-11193952D02*
X18626667Y-11184429D01*
X18626667Y-11184429D02*
X18626667Y-11203476D01*
X18626667Y-11079667D02*
X18636190Y-11089190D01*
X18636190Y-11089190D02*
X18626667Y-11098714D01*
X18626667Y-11098714D02*
X18617143Y-11089190D01*
X18617143Y-11089190D02*
X18626667Y-11079667D01*
X18626667Y-11079667D02*
X18626667Y-11098714D01*
D11*
X17000000Y-11530000D02*
X17040000Y-11570000D01*
X17040000Y-11530000D02*
X17000000Y-11570000D01*
D10*
X17325714Y-11423476D02*
X17344762Y-11423476D01*
X17344762Y-11423476D02*
X17363810Y-11433000D01*
X17363810Y-11433000D02*
X17373333Y-11442524D01*
X17373333Y-11442524D02*
X17382857Y-11461571D01*
X17382857Y-11461571D02*
X17392381Y-11499667D01*
X17392381Y-11499667D02*
X17392381Y-11547286D01*
X17392381Y-11547286D02*
X17382857Y-11585381D01*
X17382857Y-11585381D02*
X17373333Y-11604428D01*
X17373333Y-11604428D02*
X17363810Y-11613952D01*
X17363810Y-11613952D02*
X17344762Y-11623476D01*
X17344762Y-11623476D02*
X17325714Y-11623476D01*
X17325714Y-11623476D02*
X17306667Y-11613952D01*
X17306667Y-11613952D02*
X17297143Y-11604428D01*
X17297143Y-11604428D02*
X17287619Y-11585381D01*
X17287619Y-11585381D02*
X17278095Y-11547286D01*
X17278095Y-11547286D02*
X17278095Y-11499667D01*
X17278095Y-11499667D02*
X17287619Y-11461571D01*
X17287619Y-11461571D02*
X17297143Y-11442524D01*
X17297143Y-11442524D02*
X17306667Y-11433000D01*
X17306667Y-11433000D02*
X17325714Y-11423476D01*
X17478095Y-11604428D02*
X17487619Y-11613952D01*
X17487619Y-11613952D02*
X17478095Y-11623476D01*
X17478095Y-11623476D02*
X17468571Y-11613952D01*
X17468571Y-11613952D02*
X17478095Y-11604428D01*
X17478095Y-11604428D02*
X17478095Y-11623476D01*
X17659048Y-11490143D02*
X17659048Y-11623476D01*
X17611429Y-11413952D02*
X17563810Y-11556809D01*
X17563810Y-11556809D02*
X17687619Y-11556809D01*
X17801905Y-11423476D02*
X17820952Y-11423476D01*
X17820952Y-11423476D02*
X17840000Y-11433000D01*
X17840000Y-11433000D02*
X17849524Y-11442524D01*
X17849524Y-11442524D02*
X17859048Y-11461571D01*
X17859048Y-11461571D02*
X17868571Y-11499667D01*
X17868571Y-11499667D02*
X17868571Y-11547286D01*
X17868571Y-11547286D02*
X17859048Y-11585381D01*
X17859048Y-11585381D02*
X17849524Y-11604428D01*
X17849524Y-11604428D02*
X17840000Y-11613952D01*
X17840000Y-11613952D02*
X17820952Y-11623476D01*
X17820952Y-11623476D02*
X17801905Y-11623476D01*
X17801905Y-11623476D02*
X17782857Y-11613952D01*
X17782857Y-11613952D02*
X17773333Y-11604428D01*
X17773333Y-11604428D02*
X17763810Y-11585381D01*
X17763810Y-11585381D02*
X17754286Y-11547286D01*
X17754286Y-11547286D02*
X17754286Y-11499667D01*
X17754286Y-11499667D02*
X17763810Y-11461571D01*
X17763810Y-11461571D02*
X17773333Y-11442524D01*
X17773333Y-11442524D02*
X17782857Y-11433000D01*
X17782857Y-11433000D02*
X17801905Y-11423476D01*
X17992381Y-11423476D02*
X18011429Y-11423476D01*
X18011429Y-11423476D02*
X18030476Y-11433000D01*
X18030476Y-11433000D02*
X18040000Y-11442524D01*
X18040000Y-11442524D02*
X18049524Y-11461571D01*
X18049524Y-11461571D02*
X18059048Y-11499667D01*
X18059048Y-11499667D02*
X18059048Y-11547286D01*
X18059048Y-11547286D02*
X18049524Y-11585381D01*
X18049524Y-11585381D02*
X18040000Y-11604428D01*
X18040000Y-11604428D02*
X18030476Y-11613952D01*
X18030476Y-11613952D02*
X18011429Y-11623476D01*
X18011429Y-11623476D02*
X17992381Y-11623476D01*
X17992381Y-11623476D02*
X17973333Y-11613952D01*
X17973333Y-11613952D02*
X17963810Y-11604428D01*
X17963810Y-11604428D02*
X17954286Y-11585381D01*
X17954286Y-11585381D02*
X17944762Y-11547286D01*
X17944762Y-11547286D02*
X17944762Y-11499667D01*
X17944762Y-11499667D02*
X17954286Y-11461571D01*
X17954286Y-11461571D02*
X17963810Y-11442524D01*
X17963810Y-11442524D02*
X17973333Y-11433000D01*
X17973333Y-11433000D02*
X17992381Y-11423476D01*
X18144762Y-11623476D02*
X18144762Y-11490143D01*
X18144762Y-11509190D02*
X18154286Y-11499667D01*
X18154286Y-11499667D02*
X18173333Y-11490143D01*
X18173333Y-11490143D02*
X18201905Y-11490143D01*
X18201905Y-11490143D02*
X18220952Y-11499667D01*
X18220952Y-11499667D02*
X18230476Y-11518714D01*
X18230476Y-11518714D02*
X18230476Y-11623476D01*
X18230476Y-11518714D02*
X18240000Y-11499667D01*
X18240000Y-11499667D02*
X18259048Y-11490143D01*
X18259048Y-11490143D02*
X18287619Y-11490143D01*
X18287619Y-11490143D02*
X18306667Y-11499667D01*
X18306667Y-11499667D02*
X18316191Y-11518714D01*
X18316191Y-11518714D02*
X18316191Y-11623476D01*
X18411429Y-11623476D02*
X18411429Y-11490143D01*
X18411429Y-11509190D02*
X18420952Y-11499667D01*
X18420952Y-11499667D02*
X18440000Y-11490143D01*
X18440000Y-11490143D02*
X18468572Y-11490143D01*
X18468572Y-11490143D02*
X18487619Y-11499667D01*
X18487619Y-11499667D02*
X18497143Y-11518714D01*
X18497143Y-11518714D02*
X18497143Y-11623476D01*
X18497143Y-11518714D02*
X18506667Y-11499667D01*
X18506667Y-11499667D02*
X18525714Y-11490143D01*
X18525714Y-11490143D02*
X18554286Y-11490143D01*
X18554286Y-11490143D02*
X18573333Y-11499667D01*
X18573333Y-11499667D02*
X18582857Y-11518714D01*
X18582857Y-11518714D02*
X18582857Y-11623476D01*
X18940952Y-11413952D02*
X18769524Y-11671095D01*
X19165714Y-11423476D02*
X19184762Y-11423476D01*
X19184762Y-11423476D02*
X19203810Y-11433000D01*
X19203810Y-11433000D02*
X19213333Y-11442524D01*
X19213333Y-11442524D02*
X19222857Y-11461571D01*
X19222857Y-11461571D02*
X19232381Y-11499667D01*
X19232381Y-11499667D02*
X19232381Y-11547286D01*
X19232381Y-11547286D02*
X19222857Y-11585381D01*
X19222857Y-11585381D02*
X19213333Y-11604428D01*
X19213333Y-11604428D02*
X19203810Y-11613952D01*
X19203810Y-11613952D02*
X19184762Y-11623476D01*
X19184762Y-11623476D02*
X19165714Y-11623476D01*
X19165714Y-11623476D02*
X19146667Y-11613952D01*
X19146667Y-11613952D02*
X19137143Y-11604428D01*
X19137143Y-11604428D02*
X19127619Y-11585381D01*
X19127619Y-11585381D02*
X19118095Y-11547286D01*
X19118095Y-11547286D02*
X19118095Y-11499667D01*
X19118095Y-11499667D02*
X19127619Y-11461571D01*
X19127619Y-11461571D02*
X19137143Y-11442524D01*
X19137143Y-11442524D02*
X19146667Y-11433000D01*
X19146667Y-11433000D02*
X19165714Y-11423476D01*
X19318095Y-11604428D02*
X19327619Y-11613952D01*
X19327619Y-11613952D02*
X19318095Y-11623476D01*
X19318095Y-11623476D02*
X19308572Y-11613952D01*
X19308572Y-11613952D02*
X19318095Y-11604428D01*
X19318095Y-11604428D02*
X19318095Y-11623476D01*
X19451429Y-11423476D02*
X19470476Y-11423476D01*
X19470476Y-11423476D02*
X19489524Y-11433000D01*
X19489524Y-11433000D02*
X19499048Y-11442524D01*
X19499048Y-11442524D02*
X19508572Y-11461571D01*
X19508572Y-11461571D02*
X19518095Y-11499667D01*
X19518095Y-11499667D02*
X19518095Y-11547286D01*
X19518095Y-11547286D02*
X19508572Y-11585381D01*
X19508572Y-11585381D02*
X19499048Y-11604428D01*
X19499048Y-11604428D02*
X19489524Y-11613952D01*
X19489524Y-11613952D02*
X19470476Y-11623476D01*
X19470476Y-11623476D02*
X19451429Y-11623476D01*
X19451429Y-11623476D02*
X19432381Y-11613952D01*
X19432381Y-11613952D02*
X19422857Y-11604428D01*
X19422857Y-11604428D02*
X19413333Y-11585381D01*
X19413333Y-11585381D02*
X19403810Y-11547286D01*
X19403810Y-11547286D02*
X19403810Y-11499667D01*
X19403810Y-11499667D02*
X19413333Y-11461571D01*
X19413333Y-11461571D02*
X19422857Y-11442524D01*
X19422857Y-11442524D02*
X19432381Y-11433000D01*
X19432381Y-11433000D02*
X19451429Y-11423476D01*
X19708572Y-11623476D02*
X19594286Y-11623476D01*
X19651429Y-11623476D02*
X19651429Y-11423476D01*
X19651429Y-11423476D02*
X19632381Y-11452048D01*
X19632381Y-11452048D02*
X19613333Y-11471095D01*
X19613333Y-11471095D02*
X19594286Y-11480619D01*
X19889524Y-11423476D02*
X19794286Y-11423476D01*
X19794286Y-11423476D02*
X19784762Y-11518714D01*
X19784762Y-11518714D02*
X19794286Y-11509190D01*
X19794286Y-11509190D02*
X19813333Y-11499667D01*
X19813333Y-11499667D02*
X19860953Y-11499667D01*
X19860953Y-11499667D02*
X19880000Y-11509190D01*
X19880000Y-11509190D02*
X19889524Y-11518714D01*
X19889524Y-11518714D02*
X19899048Y-11537762D01*
X19899048Y-11537762D02*
X19899048Y-11585381D01*
X19899048Y-11585381D02*
X19889524Y-11604428D01*
X19889524Y-11604428D02*
X19880000Y-11613952D01*
X19880000Y-11613952D02*
X19860953Y-11623476D01*
X19860953Y-11623476D02*
X19813333Y-11623476D01*
X19813333Y-11623476D02*
X19794286Y-11613952D01*
X19794286Y-11613952D02*
X19784762Y-11604428D01*
X19965714Y-11423476D02*
X20099048Y-11423476D01*
X20099048Y-11423476D02*
X20013333Y-11623476D01*
X20165714Y-11423476D02*
X20165714Y-11461571D01*
X20241905Y-11423476D02*
X20241905Y-11461571D01*
X20504762Y-11699667D02*
X20495238Y-11690143D01*
X20495238Y-11690143D02*
X20476191Y-11661571D01*
X20476191Y-11661571D02*
X20466667Y-11642524D01*
X20466667Y-11642524D02*
X20457143Y-11613952D01*
X20457143Y-11613952D02*
X20447619Y-11566333D01*
X20447619Y-11566333D02*
X20447619Y-11528238D01*
X20447619Y-11528238D02*
X20457143Y-11480619D01*
X20457143Y-11480619D02*
X20466667Y-11452048D01*
X20466667Y-11452048D02*
X20476191Y-11433000D01*
X20476191Y-11433000D02*
X20495238Y-11404428D01*
X20495238Y-11404428D02*
X20504762Y-11394905D01*
X20676191Y-11423476D02*
X20580953Y-11423476D01*
X20580953Y-11423476D02*
X20571429Y-11518714D01*
X20571429Y-11518714D02*
X20580953Y-11509190D01*
X20580953Y-11509190D02*
X20600000Y-11499667D01*
X20600000Y-11499667D02*
X20647619Y-11499667D01*
X20647619Y-11499667D02*
X20666667Y-11509190D01*
X20666667Y-11509190D02*
X20676191Y-11518714D01*
X20676191Y-11518714D02*
X20685714Y-11537762D01*
X20685714Y-11537762D02*
X20685714Y-11585381D01*
X20685714Y-11585381D02*
X20676191Y-11604428D01*
X20676191Y-11604428D02*
X20666667Y-11613952D01*
X20666667Y-11613952D02*
X20647619Y-11623476D01*
X20647619Y-11623476D02*
X20600000Y-11623476D01*
X20600000Y-11623476D02*
X20580953Y-11613952D01*
X20580953Y-11613952D02*
X20571429Y-11604428D01*
X20752381Y-11423476D02*
X20876191Y-11423476D01*
X20876191Y-11423476D02*
X20809524Y-11499667D01*
X20809524Y-11499667D02*
X20838095Y-11499667D01*
X20838095Y-11499667D02*
X20857143Y-11509190D01*
X20857143Y-11509190D02*
X20866667Y-11518714D01*
X20866667Y-11518714D02*
X20876191Y-11537762D01*
X20876191Y-11537762D02*
X20876191Y-11585381D01*
X20876191Y-11585381D02*
X20866667Y-11604428D01*
X20866667Y-11604428D02*
X20857143Y-11613952D01*
X20857143Y-11613952D02*
X20838095Y-11623476D01*
X20838095Y-11623476D02*
X20780953Y-11623476D01*
X20780953Y-11623476D02*
X20761905Y-11613952D01*
X20761905Y-11613952D02*
X20752381Y-11604428D01*
X21081905Y-11623476D02*
X21081905Y-11423476D01*
X21167619Y-11623476D02*
X21167619Y-11518714D01*
X21167619Y-11518714D02*
X21158095Y-11499667D01*
X21158095Y-11499667D02*
X21139048Y-11490143D01*
X21139048Y-11490143D02*
X21110476Y-11490143D01*
X21110476Y-11490143D02*
X21091429Y-11499667D01*
X21091429Y-11499667D02*
X21081905Y-11509190D01*
X21291429Y-11623476D02*
X21272381Y-11613952D01*
X21272381Y-11613952D02*
X21262857Y-11604428D01*
X21262857Y-11604428D02*
X21253334Y-11585381D01*
X21253334Y-11585381D02*
X21253334Y-11528238D01*
X21253334Y-11528238D02*
X21262857Y-11509190D01*
X21262857Y-11509190D02*
X21272381Y-11499667D01*
X21272381Y-11499667D02*
X21291429Y-11490143D01*
X21291429Y-11490143D02*
X21320000Y-11490143D01*
X21320000Y-11490143D02*
X21339048Y-11499667D01*
X21339048Y-11499667D02*
X21348572Y-11509190D01*
X21348572Y-11509190D02*
X21358095Y-11528238D01*
X21358095Y-11528238D02*
X21358095Y-11585381D01*
X21358095Y-11585381D02*
X21348572Y-11604428D01*
X21348572Y-11604428D02*
X21339048Y-11613952D01*
X21339048Y-11613952D02*
X21320000Y-11623476D01*
X21320000Y-11623476D02*
X21291429Y-11623476D01*
X21472381Y-11623476D02*
X21453334Y-11613952D01*
X21453334Y-11613952D02*
X21443810Y-11594905D01*
X21443810Y-11594905D02*
X21443810Y-11423476D01*
X21624762Y-11613952D02*
X21605715Y-11623476D01*
X21605715Y-11623476D02*
X21567619Y-11623476D01*
X21567619Y-11623476D02*
X21548572Y-11613952D01*
X21548572Y-11613952D02*
X21539048Y-11594905D01*
X21539048Y-11594905D02*
X21539048Y-11518714D01*
X21539048Y-11518714D02*
X21548572Y-11499667D01*
X21548572Y-11499667D02*
X21567619Y-11490143D01*
X21567619Y-11490143D02*
X21605715Y-11490143D01*
X21605715Y-11490143D02*
X21624762Y-11499667D01*
X21624762Y-11499667D02*
X21634286Y-11518714D01*
X21634286Y-11518714D02*
X21634286Y-11537762D01*
X21634286Y-11537762D02*
X21539048Y-11556809D01*
X21710476Y-11613952D02*
X21729524Y-11623476D01*
X21729524Y-11623476D02*
X21767619Y-11623476D01*
X21767619Y-11623476D02*
X21786667Y-11613952D01*
X21786667Y-11613952D02*
X21796191Y-11594905D01*
X21796191Y-11594905D02*
X21796191Y-11585381D01*
X21796191Y-11585381D02*
X21786667Y-11566333D01*
X21786667Y-11566333D02*
X21767619Y-11556809D01*
X21767619Y-11556809D02*
X21739048Y-11556809D01*
X21739048Y-11556809D02*
X21720000Y-11547286D01*
X21720000Y-11547286D02*
X21710476Y-11528238D01*
X21710476Y-11528238D02*
X21710476Y-11518714D01*
X21710476Y-11518714D02*
X21720000Y-11499667D01*
X21720000Y-11499667D02*
X21739048Y-11490143D01*
X21739048Y-11490143D02*
X21767619Y-11490143D01*
X21767619Y-11490143D02*
X21786667Y-11499667D01*
X21862857Y-11699667D02*
X21872381Y-11690143D01*
X21872381Y-11690143D02*
X21891429Y-11661571D01*
X21891429Y-11661571D02*
X21900953Y-11642524D01*
X21900953Y-11642524D02*
X21910476Y-11613952D01*
X21910476Y-11613952D02*
X21920000Y-11566333D01*
X21920000Y-11566333D02*
X21920000Y-11528238D01*
X21920000Y-11528238D02*
X21910476Y-11480619D01*
X21910476Y-11480619D02*
X21900953Y-11452048D01*
X21900953Y-11452048D02*
X21891429Y-11433000D01*
X21891429Y-11433000D02*
X21872381Y-11404428D01*
X21872381Y-11404428D02*
X21862857Y-11394905D01*
D12*
X17040000Y-11814000D02*
G75*
G03*
X17040000Y-11814000I-50000J0D01*
G01*
D10*
X17392381Y-11887476D02*
X17278095Y-11887476D01*
X17335238Y-11887476D02*
X17335238Y-11687476D01*
X17335238Y-11687476D02*
X17316190Y-11716048D01*
X17316190Y-11716048D02*
X17297143Y-11735095D01*
X17297143Y-11735095D02*
X17278095Y-11744619D01*
X17478095Y-11868428D02*
X17487619Y-11877952D01*
X17487619Y-11877952D02*
X17478095Y-11887476D01*
X17478095Y-11887476D02*
X17468571Y-11877952D01*
X17468571Y-11877952D02*
X17478095Y-11868428D01*
X17478095Y-11868428D02*
X17478095Y-11887476D01*
X17611429Y-11687476D02*
X17630476Y-11687476D01*
X17630476Y-11687476D02*
X17649524Y-11697000D01*
X17649524Y-11697000D02*
X17659048Y-11706524D01*
X17659048Y-11706524D02*
X17668571Y-11725571D01*
X17668571Y-11725571D02*
X17678095Y-11763667D01*
X17678095Y-11763667D02*
X17678095Y-11811286D01*
X17678095Y-11811286D02*
X17668571Y-11849381D01*
X17668571Y-11849381D02*
X17659048Y-11868428D01*
X17659048Y-11868428D02*
X17649524Y-11877952D01*
X17649524Y-11877952D02*
X17630476Y-11887476D01*
X17630476Y-11887476D02*
X17611429Y-11887476D01*
X17611429Y-11887476D02*
X17592381Y-11877952D01*
X17592381Y-11877952D02*
X17582857Y-11868428D01*
X17582857Y-11868428D02*
X17573333Y-11849381D01*
X17573333Y-11849381D02*
X17563810Y-11811286D01*
X17563810Y-11811286D02*
X17563810Y-11763667D01*
X17563810Y-11763667D02*
X17573333Y-11725571D01*
X17573333Y-11725571D02*
X17582857Y-11706524D01*
X17582857Y-11706524D02*
X17592381Y-11697000D01*
X17592381Y-11697000D02*
X17611429Y-11687476D01*
X17801905Y-11687476D02*
X17820952Y-11687476D01*
X17820952Y-11687476D02*
X17840000Y-11697000D01*
X17840000Y-11697000D02*
X17849524Y-11706524D01*
X17849524Y-11706524D02*
X17859048Y-11725571D01*
X17859048Y-11725571D02*
X17868571Y-11763667D01*
X17868571Y-11763667D02*
X17868571Y-11811286D01*
X17868571Y-11811286D02*
X17859048Y-11849381D01*
X17859048Y-11849381D02*
X17849524Y-11868428D01*
X17849524Y-11868428D02*
X17840000Y-11877952D01*
X17840000Y-11877952D02*
X17820952Y-11887476D01*
X17820952Y-11887476D02*
X17801905Y-11887476D01*
X17801905Y-11887476D02*
X17782857Y-11877952D01*
X17782857Y-11877952D02*
X17773333Y-11868428D01*
X17773333Y-11868428D02*
X17763810Y-11849381D01*
X17763810Y-11849381D02*
X17754286Y-11811286D01*
X17754286Y-11811286D02*
X17754286Y-11763667D01*
X17754286Y-11763667D02*
X17763810Y-11725571D01*
X17763810Y-11725571D02*
X17773333Y-11706524D01*
X17773333Y-11706524D02*
X17782857Y-11697000D01*
X17782857Y-11697000D02*
X17801905Y-11687476D01*
X17992381Y-11687476D02*
X18011429Y-11687476D01*
X18011429Y-11687476D02*
X18030476Y-11697000D01*
X18030476Y-11697000D02*
X18040000Y-11706524D01*
X18040000Y-11706524D02*
X18049524Y-11725571D01*
X18049524Y-11725571D02*
X18059048Y-11763667D01*
X18059048Y-11763667D02*
X18059048Y-11811286D01*
X18059048Y-11811286D02*
X18049524Y-11849381D01*
X18049524Y-11849381D02*
X18040000Y-11868428D01*
X18040000Y-11868428D02*
X18030476Y-11877952D01*
X18030476Y-11877952D02*
X18011429Y-11887476D01*
X18011429Y-11887476D02*
X17992381Y-11887476D01*
X17992381Y-11887476D02*
X17973333Y-11877952D01*
X17973333Y-11877952D02*
X17963810Y-11868428D01*
X17963810Y-11868428D02*
X17954286Y-11849381D01*
X17954286Y-11849381D02*
X17944762Y-11811286D01*
X17944762Y-11811286D02*
X17944762Y-11763667D01*
X17944762Y-11763667D02*
X17954286Y-11725571D01*
X17954286Y-11725571D02*
X17963810Y-11706524D01*
X17963810Y-11706524D02*
X17973333Y-11697000D01*
X17973333Y-11697000D02*
X17992381Y-11687476D01*
X18144762Y-11887476D02*
X18144762Y-11754143D01*
X18144762Y-11773190D02*
X18154286Y-11763667D01*
X18154286Y-11763667D02*
X18173333Y-11754143D01*
X18173333Y-11754143D02*
X18201905Y-11754143D01*
X18201905Y-11754143D02*
X18220952Y-11763667D01*
X18220952Y-11763667D02*
X18230476Y-11782714D01*
X18230476Y-11782714D02*
X18230476Y-11887476D01*
X18230476Y-11782714D02*
X18240000Y-11763667D01*
X18240000Y-11763667D02*
X18259048Y-11754143D01*
X18259048Y-11754143D02*
X18287619Y-11754143D01*
X18287619Y-11754143D02*
X18306667Y-11763667D01*
X18306667Y-11763667D02*
X18316191Y-11782714D01*
X18316191Y-11782714D02*
X18316191Y-11887476D01*
X18411429Y-11887476D02*
X18411429Y-11754143D01*
X18411429Y-11773190D02*
X18420952Y-11763667D01*
X18420952Y-11763667D02*
X18440000Y-11754143D01*
X18440000Y-11754143D02*
X18468572Y-11754143D01*
X18468572Y-11754143D02*
X18487619Y-11763667D01*
X18487619Y-11763667D02*
X18497143Y-11782714D01*
X18497143Y-11782714D02*
X18497143Y-11887476D01*
X18497143Y-11782714D02*
X18506667Y-11763667D01*
X18506667Y-11763667D02*
X18525714Y-11754143D01*
X18525714Y-11754143D02*
X18554286Y-11754143D01*
X18554286Y-11754143D02*
X18573333Y-11763667D01*
X18573333Y-11763667D02*
X18582857Y-11782714D01*
X18582857Y-11782714D02*
X18582857Y-11887476D01*
X18940952Y-11677952D02*
X18769524Y-11935095D01*
X19165714Y-11687476D02*
X19184762Y-11687476D01*
X19184762Y-11687476D02*
X19203810Y-11697000D01*
X19203810Y-11697000D02*
X19213333Y-11706524D01*
X19213333Y-11706524D02*
X19222857Y-11725571D01*
X19222857Y-11725571D02*
X19232381Y-11763667D01*
X19232381Y-11763667D02*
X19232381Y-11811286D01*
X19232381Y-11811286D02*
X19222857Y-11849381D01*
X19222857Y-11849381D02*
X19213333Y-11868428D01*
X19213333Y-11868428D02*
X19203810Y-11877952D01*
X19203810Y-11877952D02*
X19184762Y-11887476D01*
X19184762Y-11887476D02*
X19165714Y-11887476D01*
X19165714Y-11887476D02*
X19146667Y-11877952D01*
X19146667Y-11877952D02*
X19137143Y-11868428D01*
X19137143Y-11868428D02*
X19127619Y-11849381D01*
X19127619Y-11849381D02*
X19118095Y-11811286D01*
X19118095Y-11811286D02*
X19118095Y-11763667D01*
X19118095Y-11763667D02*
X19127619Y-11725571D01*
X19127619Y-11725571D02*
X19137143Y-11706524D01*
X19137143Y-11706524D02*
X19146667Y-11697000D01*
X19146667Y-11697000D02*
X19165714Y-11687476D01*
X19318095Y-11868428D02*
X19327619Y-11877952D01*
X19327619Y-11877952D02*
X19318095Y-11887476D01*
X19318095Y-11887476D02*
X19308572Y-11877952D01*
X19308572Y-11877952D02*
X19318095Y-11868428D01*
X19318095Y-11868428D02*
X19318095Y-11887476D01*
X19451429Y-11687476D02*
X19470476Y-11687476D01*
X19470476Y-11687476D02*
X19489524Y-11697000D01*
X19489524Y-11697000D02*
X19499048Y-11706524D01*
X19499048Y-11706524D02*
X19508572Y-11725571D01*
X19508572Y-11725571D02*
X19518095Y-11763667D01*
X19518095Y-11763667D02*
X19518095Y-11811286D01*
X19518095Y-11811286D02*
X19508572Y-11849381D01*
X19508572Y-11849381D02*
X19499048Y-11868428D01*
X19499048Y-11868428D02*
X19489524Y-11877952D01*
X19489524Y-11877952D02*
X19470476Y-11887476D01*
X19470476Y-11887476D02*
X19451429Y-11887476D01*
X19451429Y-11887476D02*
X19432381Y-11877952D01*
X19432381Y-11877952D02*
X19422857Y-11868428D01*
X19422857Y-11868428D02*
X19413333Y-11849381D01*
X19413333Y-11849381D02*
X19403810Y-11811286D01*
X19403810Y-11811286D02*
X19403810Y-11763667D01*
X19403810Y-11763667D02*
X19413333Y-11725571D01*
X19413333Y-11725571D02*
X19422857Y-11706524D01*
X19422857Y-11706524D02*
X19432381Y-11697000D01*
X19432381Y-11697000D02*
X19451429Y-11687476D01*
X19584762Y-11687476D02*
X19708572Y-11687476D01*
X19708572Y-11687476D02*
X19641905Y-11763667D01*
X19641905Y-11763667D02*
X19670476Y-11763667D01*
X19670476Y-11763667D02*
X19689524Y-11773190D01*
X19689524Y-11773190D02*
X19699048Y-11782714D01*
X19699048Y-11782714D02*
X19708572Y-11801762D01*
X19708572Y-11801762D02*
X19708572Y-11849381D01*
X19708572Y-11849381D02*
X19699048Y-11868428D01*
X19699048Y-11868428D02*
X19689524Y-11877952D01*
X19689524Y-11877952D02*
X19670476Y-11887476D01*
X19670476Y-11887476D02*
X19613333Y-11887476D01*
X19613333Y-11887476D02*
X19594286Y-11877952D01*
X19594286Y-11877952D02*
X19584762Y-11868428D01*
X19803810Y-11887476D02*
X19841905Y-11887476D01*
X19841905Y-11887476D02*
X19860953Y-11877952D01*
X19860953Y-11877952D02*
X19870476Y-11868428D01*
X19870476Y-11868428D02*
X19889524Y-11839857D01*
X19889524Y-11839857D02*
X19899048Y-11801762D01*
X19899048Y-11801762D02*
X19899048Y-11725571D01*
X19899048Y-11725571D02*
X19889524Y-11706524D01*
X19889524Y-11706524D02*
X19880000Y-11697000D01*
X19880000Y-11697000D02*
X19860953Y-11687476D01*
X19860953Y-11687476D02*
X19822857Y-11687476D01*
X19822857Y-11687476D02*
X19803810Y-11697000D01*
X19803810Y-11697000D02*
X19794286Y-11706524D01*
X19794286Y-11706524D02*
X19784762Y-11725571D01*
X19784762Y-11725571D02*
X19784762Y-11773190D01*
X19784762Y-11773190D02*
X19794286Y-11792238D01*
X19794286Y-11792238D02*
X19803810Y-11801762D01*
X19803810Y-11801762D02*
X19822857Y-11811286D01*
X19822857Y-11811286D02*
X19860953Y-11811286D01*
X19860953Y-11811286D02*
X19880000Y-11801762D01*
X19880000Y-11801762D02*
X19889524Y-11792238D01*
X19889524Y-11792238D02*
X19899048Y-11773190D01*
X20070476Y-11754143D02*
X20070476Y-11887476D01*
X20022857Y-11677952D02*
X19975238Y-11820809D01*
X19975238Y-11820809D02*
X20099048Y-11820809D01*
X20165714Y-11687476D02*
X20165714Y-11725571D01*
X20241905Y-11687476D02*
X20241905Y-11725571D01*
X20504762Y-11963667D02*
X20495238Y-11954143D01*
X20495238Y-11954143D02*
X20476191Y-11925571D01*
X20476191Y-11925571D02*
X20466667Y-11906524D01*
X20466667Y-11906524D02*
X20457143Y-11877952D01*
X20457143Y-11877952D02*
X20447619Y-11830333D01*
X20447619Y-11830333D02*
X20447619Y-11792238D01*
X20447619Y-11792238D02*
X20457143Y-11744619D01*
X20457143Y-11744619D02*
X20466667Y-11716048D01*
X20466667Y-11716048D02*
X20476191Y-11697000D01*
X20476191Y-11697000D02*
X20495238Y-11668428D01*
X20495238Y-11668428D02*
X20504762Y-11658905D01*
X20685714Y-11887476D02*
X20571429Y-11887476D01*
X20628572Y-11887476D02*
X20628572Y-11687476D01*
X20628572Y-11687476D02*
X20609524Y-11716048D01*
X20609524Y-11716048D02*
X20590476Y-11735095D01*
X20590476Y-11735095D02*
X20571429Y-11744619D01*
X20857143Y-11687476D02*
X20819048Y-11687476D01*
X20819048Y-11687476D02*
X20800000Y-11697000D01*
X20800000Y-11697000D02*
X20790476Y-11706524D01*
X20790476Y-11706524D02*
X20771429Y-11735095D01*
X20771429Y-11735095D02*
X20761905Y-11773190D01*
X20761905Y-11773190D02*
X20761905Y-11849381D01*
X20761905Y-11849381D02*
X20771429Y-11868428D01*
X20771429Y-11868428D02*
X20780953Y-11877952D01*
X20780953Y-11877952D02*
X20800000Y-11887476D01*
X20800000Y-11887476D02*
X20838095Y-11887476D01*
X20838095Y-11887476D02*
X20857143Y-11877952D01*
X20857143Y-11877952D02*
X20866667Y-11868428D01*
X20866667Y-11868428D02*
X20876191Y-11849381D01*
X20876191Y-11849381D02*
X20876191Y-11801762D01*
X20876191Y-11801762D02*
X20866667Y-11782714D01*
X20866667Y-11782714D02*
X20857143Y-11773190D01*
X20857143Y-11773190D02*
X20838095Y-11763667D01*
X20838095Y-11763667D02*
X20800000Y-11763667D01*
X20800000Y-11763667D02*
X20780953Y-11773190D01*
X20780953Y-11773190D02*
X20771429Y-11782714D01*
X20771429Y-11782714D02*
X20761905Y-11801762D01*
X21081905Y-11887476D02*
X21081905Y-11687476D01*
X21167619Y-11887476D02*
X21167619Y-11782714D01*
X21167619Y-11782714D02*
X21158095Y-11763667D01*
X21158095Y-11763667D02*
X21139048Y-11754143D01*
X21139048Y-11754143D02*
X21110476Y-11754143D01*
X21110476Y-11754143D02*
X21091429Y-11763667D01*
X21091429Y-11763667D02*
X21081905Y-11773190D01*
X21291429Y-11887476D02*
X21272381Y-11877952D01*
X21272381Y-11877952D02*
X21262857Y-11868428D01*
X21262857Y-11868428D02*
X21253334Y-11849381D01*
X21253334Y-11849381D02*
X21253334Y-11792238D01*
X21253334Y-11792238D02*
X21262857Y-11773190D01*
X21262857Y-11773190D02*
X21272381Y-11763667D01*
X21272381Y-11763667D02*
X21291429Y-11754143D01*
X21291429Y-11754143D02*
X21320000Y-11754143D01*
X21320000Y-11754143D02*
X21339048Y-11763667D01*
X21339048Y-11763667D02*
X21348572Y-11773190D01*
X21348572Y-11773190D02*
X21358095Y-11792238D01*
X21358095Y-11792238D02*
X21358095Y-11849381D01*
X21358095Y-11849381D02*
X21348572Y-11868428D01*
X21348572Y-11868428D02*
X21339048Y-11877952D01*
X21339048Y-11877952D02*
X21320000Y-11887476D01*
X21320000Y-11887476D02*
X21291429Y-11887476D01*
X21472381Y-11887476D02*
X21453334Y-11877952D01*
X21453334Y-11877952D02*
X21443810Y-11858905D01*
X21443810Y-11858905D02*
X21443810Y-11687476D01*
X21624762Y-11877952D02*
X21605715Y-11887476D01*
X21605715Y-11887476D02*
X21567619Y-11887476D01*
X21567619Y-11887476D02*
X21548572Y-11877952D01*
X21548572Y-11877952D02*
X21539048Y-11858905D01*
X21539048Y-11858905D02*
X21539048Y-11782714D01*
X21539048Y-11782714D02*
X21548572Y-11763667D01*
X21548572Y-11763667D02*
X21567619Y-11754143D01*
X21567619Y-11754143D02*
X21605715Y-11754143D01*
X21605715Y-11754143D02*
X21624762Y-11763667D01*
X21624762Y-11763667D02*
X21634286Y-11782714D01*
X21634286Y-11782714D02*
X21634286Y-11801762D01*
X21634286Y-11801762D02*
X21539048Y-11820809D01*
X21710476Y-11877952D02*
X21729524Y-11887476D01*
X21729524Y-11887476D02*
X21767619Y-11887476D01*
X21767619Y-11887476D02*
X21786667Y-11877952D01*
X21786667Y-11877952D02*
X21796191Y-11858905D01*
X21796191Y-11858905D02*
X21796191Y-11849381D01*
X21796191Y-11849381D02*
X21786667Y-11830333D01*
X21786667Y-11830333D02*
X21767619Y-11820809D01*
X21767619Y-11820809D02*
X21739048Y-11820809D01*
X21739048Y-11820809D02*
X21720000Y-11811286D01*
X21720000Y-11811286D02*
X21710476Y-11792238D01*
X21710476Y-11792238D02*
X21710476Y-11782714D01*
X21710476Y-11782714D02*
X21720000Y-11763667D01*
X21720000Y-11763667D02*
X21739048Y-11754143D01*
X21739048Y-11754143D02*
X21767619Y-11754143D01*
X21767619Y-11754143D02*
X21786667Y-11763667D01*
X21862857Y-11963667D02*
X21872381Y-11954143D01*
X21872381Y-11954143D02*
X21891429Y-11925571D01*
X21891429Y-11925571D02*
X21900953Y-11906524D01*
X21900953Y-11906524D02*
X21910476Y-11877952D01*
X21910476Y-11877952D02*
X21920000Y-11830333D01*
X21920000Y-11830333D02*
X21920000Y-11792238D01*
X21920000Y-11792238D02*
X21910476Y-11744619D01*
X21910476Y-11744619D02*
X21900953Y-11716048D01*
X21900953Y-11716048D02*
X21891429Y-11697000D01*
X21891429Y-11697000D02*
X21872381Y-11668428D01*
X21872381Y-11668428D02*
X21862857Y-11658905D01*
X16940000Y-11978000D02*
X16940000Y-12178000D01*
X16840000Y-12078000D02*
X17040000Y-12078000D01*
X17278095Y-11970524D02*
X17287619Y-11961000D01*
X17287619Y-11961000D02*
X17306667Y-11951476D01*
X17306667Y-11951476D02*
X17354286Y-11951476D01*
X17354286Y-11951476D02*
X17373333Y-11961000D01*
X17373333Y-11961000D02*
X17382857Y-11970524D01*
X17382857Y-11970524D02*
X17392381Y-11989571D01*
X17392381Y-11989571D02*
X17392381Y-12008619D01*
X17392381Y-12008619D02*
X17382857Y-12037190D01*
X17382857Y-12037190D02*
X17268571Y-12151476D01*
X17268571Y-12151476D02*
X17392381Y-12151476D01*
X17478095Y-12132428D02*
X17487619Y-12141952D01*
X17487619Y-12141952D02*
X17478095Y-12151476D01*
X17478095Y-12151476D02*
X17468571Y-12141952D01*
X17468571Y-12141952D02*
X17478095Y-12132428D01*
X17478095Y-12132428D02*
X17478095Y-12151476D01*
X17563810Y-11970524D02*
X17573333Y-11961000D01*
X17573333Y-11961000D02*
X17592381Y-11951476D01*
X17592381Y-11951476D02*
X17640000Y-11951476D01*
X17640000Y-11951476D02*
X17659048Y-11961000D01*
X17659048Y-11961000D02*
X17668571Y-11970524D01*
X17668571Y-11970524D02*
X17678095Y-11989571D01*
X17678095Y-11989571D02*
X17678095Y-12008619D01*
X17678095Y-12008619D02*
X17668571Y-12037190D01*
X17668571Y-12037190D02*
X17554286Y-12151476D01*
X17554286Y-12151476D02*
X17678095Y-12151476D01*
X17773333Y-12151476D02*
X17811429Y-12151476D01*
X17811429Y-12151476D02*
X17830476Y-12141952D01*
X17830476Y-12141952D02*
X17840000Y-12132428D01*
X17840000Y-12132428D02*
X17859048Y-12103857D01*
X17859048Y-12103857D02*
X17868571Y-12065762D01*
X17868571Y-12065762D02*
X17868571Y-11989571D01*
X17868571Y-11989571D02*
X17859048Y-11970524D01*
X17859048Y-11970524D02*
X17849524Y-11961000D01*
X17849524Y-11961000D02*
X17830476Y-11951476D01*
X17830476Y-11951476D02*
X17792381Y-11951476D01*
X17792381Y-11951476D02*
X17773333Y-11961000D01*
X17773333Y-11961000D02*
X17763810Y-11970524D01*
X17763810Y-11970524D02*
X17754286Y-11989571D01*
X17754286Y-11989571D02*
X17754286Y-12037190D01*
X17754286Y-12037190D02*
X17763810Y-12056238D01*
X17763810Y-12056238D02*
X17773333Y-12065762D01*
X17773333Y-12065762D02*
X17792381Y-12075286D01*
X17792381Y-12075286D02*
X17830476Y-12075286D01*
X17830476Y-12075286D02*
X17849524Y-12065762D01*
X17849524Y-12065762D02*
X17859048Y-12056238D01*
X17859048Y-12056238D02*
X17868571Y-12037190D01*
X17944762Y-11970524D02*
X17954286Y-11961000D01*
X17954286Y-11961000D02*
X17973333Y-11951476D01*
X17973333Y-11951476D02*
X18020952Y-11951476D01*
X18020952Y-11951476D02*
X18040000Y-11961000D01*
X18040000Y-11961000D02*
X18049524Y-11970524D01*
X18049524Y-11970524D02*
X18059048Y-11989571D01*
X18059048Y-11989571D02*
X18059048Y-12008619D01*
X18059048Y-12008619D02*
X18049524Y-12037190D01*
X18049524Y-12037190D02*
X17935238Y-12151476D01*
X17935238Y-12151476D02*
X18059048Y-12151476D01*
X18144762Y-12151476D02*
X18144762Y-12018143D01*
X18144762Y-12037190D02*
X18154286Y-12027667D01*
X18154286Y-12027667D02*
X18173333Y-12018143D01*
X18173333Y-12018143D02*
X18201905Y-12018143D01*
X18201905Y-12018143D02*
X18220952Y-12027667D01*
X18220952Y-12027667D02*
X18230476Y-12046714D01*
X18230476Y-12046714D02*
X18230476Y-12151476D01*
X18230476Y-12046714D02*
X18240000Y-12027667D01*
X18240000Y-12027667D02*
X18259048Y-12018143D01*
X18259048Y-12018143D02*
X18287619Y-12018143D01*
X18287619Y-12018143D02*
X18306667Y-12027667D01*
X18306667Y-12027667D02*
X18316191Y-12046714D01*
X18316191Y-12046714D02*
X18316191Y-12151476D01*
X18411429Y-12151476D02*
X18411429Y-12018143D01*
X18411429Y-12037190D02*
X18420952Y-12027667D01*
X18420952Y-12027667D02*
X18440000Y-12018143D01*
X18440000Y-12018143D02*
X18468572Y-12018143D01*
X18468572Y-12018143D02*
X18487619Y-12027667D01*
X18487619Y-12027667D02*
X18497143Y-12046714D01*
X18497143Y-12046714D02*
X18497143Y-12151476D01*
X18497143Y-12046714D02*
X18506667Y-12027667D01*
X18506667Y-12027667D02*
X18525714Y-12018143D01*
X18525714Y-12018143D02*
X18554286Y-12018143D01*
X18554286Y-12018143D02*
X18573333Y-12027667D01*
X18573333Y-12027667D02*
X18582857Y-12046714D01*
X18582857Y-12046714D02*
X18582857Y-12151476D01*
X18940952Y-11941952D02*
X18769524Y-12199095D01*
X19165714Y-11951476D02*
X19184762Y-11951476D01*
X19184762Y-11951476D02*
X19203810Y-11961000D01*
X19203810Y-11961000D02*
X19213333Y-11970524D01*
X19213333Y-11970524D02*
X19222857Y-11989571D01*
X19222857Y-11989571D02*
X19232381Y-12027667D01*
X19232381Y-12027667D02*
X19232381Y-12075286D01*
X19232381Y-12075286D02*
X19222857Y-12113381D01*
X19222857Y-12113381D02*
X19213333Y-12132428D01*
X19213333Y-12132428D02*
X19203810Y-12141952D01*
X19203810Y-12141952D02*
X19184762Y-12151476D01*
X19184762Y-12151476D02*
X19165714Y-12151476D01*
X19165714Y-12151476D02*
X19146667Y-12141952D01*
X19146667Y-12141952D02*
X19137143Y-12132428D01*
X19137143Y-12132428D02*
X19127619Y-12113381D01*
X19127619Y-12113381D02*
X19118095Y-12075286D01*
X19118095Y-12075286D02*
X19118095Y-12027667D01*
X19118095Y-12027667D02*
X19127619Y-11989571D01*
X19127619Y-11989571D02*
X19137143Y-11970524D01*
X19137143Y-11970524D02*
X19146667Y-11961000D01*
X19146667Y-11961000D02*
X19165714Y-11951476D01*
X19318095Y-12132428D02*
X19327619Y-12141952D01*
X19327619Y-12141952D02*
X19318095Y-12151476D01*
X19318095Y-12151476D02*
X19308572Y-12141952D01*
X19308572Y-12141952D02*
X19318095Y-12132428D01*
X19318095Y-12132428D02*
X19318095Y-12151476D01*
X19451429Y-11951476D02*
X19470476Y-11951476D01*
X19470476Y-11951476D02*
X19489524Y-11961000D01*
X19489524Y-11961000D02*
X19499048Y-11970524D01*
X19499048Y-11970524D02*
X19508572Y-11989571D01*
X19508572Y-11989571D02*
X19518095Y-12027667D01*
X19518095Y-12027667D02*
X19518095Y-12075286D01*
X19518095Y-12075286D02*
X19508572Y-12113381D01*
X19508572Y-12113381D02*
X19499048Y-12132428D01*
X19499048Y-12132428D02*
X19489524Y-12141952D01*
X19489524Y-12141952D02*
X19470476Y-12151476D01*
X19470476Y-12151476D02*
X19451429Y-12151476D01*
X19451429Y-12151476D02*
X19432381Y-12141952D01*
X19432381Y-12141952D02*
X19422857Y-12132428D01*
X19422857Y-12132428D02*
X19413333Y-12113381D01*
X19413333Y-12113381D02*
X19403810Y-12075286D01*
X19403810Y-12075286D02*
X19403810Y-12027667D01*
X19403810Y-12027667D02*
X19413333Y-11989571D01*
X19413333Y-11989571D02*
X19422857Y-11970524D01*
X19422857Y-11970524D02*
X19432381Y-11961000D01*
X19432381Y-11961000D02*
X19451429Y-11951476D01*
X19613333Y-12151476D02*
X19651429Y-12151476D01*
X19651429Y-12151476D02*
X19670476Y-12141952D01*
X19670476Y-12141952D02*
X19680000Y-12132428D01*
X19680000Y-12132428D02*
X19699048Y-12103857D01*
X19699048Y-12103857D02*
X19708572Y-12065762D01*
X19708572Y-12065762D02*
X19708572Y-11989571D01*
X19708572Y-11989571D02*
X19699048Y-11970524D01*
X19699048Y-11970524D02*
X19689524Y-11961000D01*
X19689524Y-11961000D02*
X19670476Y-11951476D01*
X19670476Y-11951476D02*
X19632381Y-11951476D01*
X19632381Y-11951476D02*
X19613333Y-11961000D01*
X19613333Y-11961000D02*
X19603810Y-11970524D01*
X19603810Y-11970524D02*
X19594286Y-11989571D01*
X19594286Y-11989571D02*
X19594286Y-12037190D01*
X19594286Y-12037190D02*
X19603810Y-12056238D01*
X19603810Y-12056238D02*
X19613333Y-12065762D01*
X19613333Y-12065762D02*
X19632381Y-12075286D01*
X19632381Y-12075286D02*
X19670476Y-12075286D01*
X19670476Y-12075286D02*
X19689524Y-12065762D01*
X19689524Y-12065762D02*
X19699048Y-12056238D01*
X19699048Y-12056238D02*
X19708572Y-12037190D01*
X19832381Y-11951476D02*
X19851429Y-11951476D01*
X19851429Y-11951476D02*
X19870476Y-11961000D01*
X19870476Y-11961000D02*
X19880000Y-11970524D01*
X19880000Y-11970524D02*
X19889524Y-11989571D01*
X19889524Y-11989571D02*
X19899048Y-12027667D01*
X19899048Y-12027667D02*
X19899048Y-12075286D01*
X19899048Y-12075286D02*
X19889524Y-12113381D01*
X19889524Y-12113381D02*
X19880000Y-12132428D01*
X19880000Y-12132428D02*
X19870476Y-12141952D01*
X19870476Y-12141952D02*
X19851429Y-12151476D01*
X19851429Y-12151476D02*
X19832381Y-12151476D01*
X19832381Y-12151476D02*
X19813333Y-12141952D01*
X19813333Y-12141952D02*
X19803810Y-12132428D01*
X19803810Y-12132428D02*
X19794286Y-12113381D01*
X19794286Y-12113381D02*
X19784762Y-12075286D01*
X19784762Y-12075286D02*
X19784762Y-12027667D01*
X19784762Y-12027667D02*
X19794286Y-11989571D01*
X19794286Y-11989571D02*
X19803810Y-11970524D01*
X19803810Y-11970524D02*
X19813333Y-11961000D01*
X19813333Y-11961000D02*
X19832381Y-11951476D01*
X19975238Y-11970524D02*
X19984762Y-11961000D01*
X19984762Y-11961000D02*
X20003810Y-11951476D01*
X20003810Y-11951476D02*
X20051429Y-11951476D01*
X20051429Y-11951476D02*
X20070476Y-11961000D01*
X20070476Y-11961000D02*
X20080000Y-11970524D01*
X20080000Y-11970524D02*
X20089524Y-11989571D01*
X20089524Y-11989571D02*
X20089524Y-12008619D01*
X20089524Y-12008619D02*
X20080000Y-12037190D01*
X20080000Y-12037190D02*
X19965714Y-12151476D01*
X19965714Y-12151476D02*
X20089524Y-12151476D01*
X20165714Y-11951476D02*
X20165714Y-11989571D01*
X20241905Y-11951476D02*
X20241905Y-11989571D01*
X20504762Y-12227667D02*
X20495238Y-12218143D01*
X20495238Y-12218143D02*
X20476191Y-12189571D01*
X20476191Y-12189571D02*
X20466667Y-12170524D01*
X20466667Y-12170524D02*
X20457143Y-12141952D01*
X20457143Y-12141952D02*
X20447619Y-12094333D01*
X20447619Y-12094333D02*
X20447619Y-12056238D01*
X20447619Y-12056238D02*
X20457143Y-12008619D01*
X20457143Y-12008619D02*
X20466667Y-11980048D01*
X20466667Y-11980048D02*
X20476191Y-11961000D01*
X20476191Y-11961000D02*
X20495238Y-11932428D01*
X20495238Y-11932428D02*
X20504762Y-11922905D01*
X20609524Y-12037190D02*
X20590476Y-12027667D01*
X20590476Y-12027667D02*
X20580953Y-12018143D01*
X20580953Y-12018143D02*
X20571429Y-11999095D01*
X20571429Y-11999095D02*
X20571429Y-11989571D01*
X20571429Y-11989571D02*
X20580953Y-11970524D01*
X20580953Y-11970524D02*
X20590476Y-11961000D01*
X20590476Y-11961000D02*
X20609524Y-11951476D01*
X20609524Y-11951476D02*
X20647619Y-11951476D01*
X20647619Y-11951476D02*
X20666667Y-11961000D01*
X20666667Y-11961000D02*
X20676191Y-11970524D01*
X20676191Y-11970524D02*
X20685714Y-11989571D01*
X20685714Y-11989571D02*
X20685714Y-11999095D01*
X20685714Y-11999095D02*
X20676191Y-12018143D01*
X20676191Y-12018143D02*
X20666667Y-12027667D01*
X20666667Y-12027667D02*
X20647619Y-12037190D01*
X20647619Y-12037190D02*
X20609524Y-12037190D01*
X20609524Y-12037190D02*
X20590476Y-12046714D01*
X20590476Y-12046714D02*
X20580953Y-12056238D01*
X20580953Y-12056238D02*
X20571429Y-12075286D01*
X20571429Y-12075286D02*
X20571429Y-12113381D01*
X20571429Y-12113381D02*
X20580953Y-12132428D01*
X20580953Y-12132428D02*
X20590476Y-12141952D01*
X20590476Y-12141952D02*
X20609524Y-12151476D01*
X20609524Y-12151476D02*
X20647619Y-12151476D01*
X20647619Y-12151476D02*
X20666667Y-12141952D01*
X20666667Y-12141952D02*
X20676191Y-12132428D01*
X20676191Y-12132428D02*
X20685714Y-12113381D01*
X20685714Y-12113381D02*
X20685714Y-12075286D01*
X20685714Y-12075286D02*
X20676191Y-12056238D01*
X20676191Y-12056238D02*
X20666667Y-12046714D01*
X20666667Y-12046714D02*
X20647619Y-12037190D01*
X20891429Y-12151476D02*
X20891429Y-11951476D01*
X20977143Y-12151476D02*
X20977143Y-12046714D01*
X20977143Y-12046714D02*
X20967619Y-12027667D01*
X20967619Y-12027667D02*
X20948572Y-12018143D01*
X20948572Y-12018143D02*
X20920000Y-12018143D01*
X20920000Y-12018143D02*
X20900953Y-12027667D01*
X20900953Y-12027667D02*
X20891429Y-12037190D01*
X21100953Y-12151476D02*
X21081905Y-12141952D01*
X21081905Y-12141952D02*
X21072381Y-12132428D01*
X21072381Y-12132428D02*
X21062857Y-12113381D01*
X21062857Y-12113381D02*
X21062857Y-12056238D01*
X21062857Y-12056238D02*
X21072381Y-12037190D01*
X21072381Y-12037190D02*
X21081905Y-12027667D01*
X21081905Y-12027667D02*
X21100953Y-12018143D01*
X21100953Y-12018143D02*
X21129524Y-12018143D01*
X21129524Y-12018143D02*
X21148572Y-12027667D01*
X21148572Y-12027667D02*
X21158095Y-12037190D01*
X21158095Y-12037190D02*
X21167619Y-12056238D01*
X21167619Y-12056238D02*
X21167619Y-12113381D01*
X21167619Y-12113381D02*
X21158095Y-12132428D01*
X21158095Y-12132428D02*
X21148572Y-12141952D01*
X21148572Y-12141952D02*
X21129524Y-12151476D01*
X21129524Y-12151476D02*
X21100953Y-12151476D01*
X21281905Y-12151476D02*
X21262857Y-12141952D01*
X21262857Y-12141952D02*
X21253334Y-12122905D01*
X21253334Y-12122905D02*
X21253334Y-11951476D01*
X21434286Y-12141952D02*
X21415238Y-12151476D01*
X21415238Y-12151476D02*
X21377143Y-12151476D01*
X21377143Y-12151476D02*
X21358095Y-12141952D01*
X21358095Y-12141952D02*
X21348572Y-12122905D01*
X21348572Y-12122905D02*
X21348572Y-12046714D01*
X21348572Y-12046714D02*
X21358095Y-12027667D01*
X21358095Y-12027667D02*
X21377143Y-12018143D01*
X21377143Y-12018143D02*
X21415238Y-12018143D01*
X21415238Y-12018143D02*
X21434286Y-12027667D01*
X21434286Y-12027667D02*
X21443810Y-12046714D01*
X21443810Y-12046714D02*
X21443810Y-12065762D01*
X21443810Y-12065762D02*
X21348572Y-12084809D01*
X21520000Y-12141952D02*
X21539048Y-12151476D01*
X21539048Y-12151476D02*
X21577143Y-12151476D01*
X21577143Y-12151476D02*
X21596191Y-12141952D01*
X21596191Y-12141952D02*
X21605715Y-12122905D01*
X21605715Y-12122905D02*
X21605715Y-12113381D01*
X21605715Y-12113381D02*
X21596191Y-12094333D01*
X21596191Y-12094333D02*
X21577143Y-12084809D01*
X21577143Y-12084809D02*
X21548572Y-12084809D01*
X21548572Y-12084809D02*
X21529524Y-12075286D01*
X21529524Y-12075286D02*
X21520000Y-12056238D01*
X21520000Y-12056238D02*
X21520000Y-12046714D01*
X21520000Y-12046714D02*
X21529524Y-12027667D01*
X21529524Y-12027667D02*
X21548572Y-12018143D01*
X21548572Y-12018143D02*
X21577143Y-12018143D01*
X21577143Y-12018143D02*
X21596191Y-12027667D01*
X21672381Y-12227667D02*
X21681905Y-12218143D01*
X21681905Y-12218143D02*
X21700953Y-12189571D01*
X21700953Y-12189571D02*
X21710476Y-12170524D01*
X21710476Y-12170524D02*
X21720000Y-12141952D01*
X21720000Y-12141952D02*
X21729524Y-12094333D01*
X21729524Y-12094333D02*
X21729524Y-12056238D01*
X21729524Y-12056238D02*
X21720000Y-12008619D01*
X21720000Y-12008619D02*
X21710476Y-11980048D01*
X21710476Y-11980048D02*
X21700953Y-11961000D01*
X21700953Y-11961000D02*
X21681905Y-11932428D01*
X21681905Y-11932428D02*
X21672381Y-11922905D01*
X17010711Y-12468711D02*
X17010711Y-12327289D01*
X16869289Y-12327289D01*
X16869289Y-12468711D01*
X17010711Y-12468711D01*
X17278095Y-12290524D02*
X17287619Y-12281000D01*
X17287619Y-12281000D02*
X17306667Y-12271476D01*
X17306667Y-12271476D02*
X17354286Y-12271476D01*
X17354286Y-12271476D02*
X17373333Y-12281000D01*
X17373333Y-12281000D02*
X17382857Y-12290524D01*
X17382857Y-12290524D02*
X17392381Y-12309571D01*
X17392381Y-12309571D02*
X17392381Y-12328619D01*
X17392381Y-12328619D02*
X17382857Y-12357190D01*
X17382857Y-12357190D02*
X17268571Y-12471476D01*
X17268571Y-12471476D02*
X17392381Y-12471476D01*
X17478095Y-12452428D02*
X17487619Y-12461952D01*
X17487619Y-12461952D02*
X17478095Y-12471476D01*
X17478095Y-12471476D02*
X17468571Y-12461952D01*
X17468571Y-12461952D02*
X17478095Y-12452428D01*
X17478095Y-12452428D02*
X17478095Y-12471476D01*
X17659048Y-12271476D02*
X17620952Y-12271476D01*
X17620952Y-12271476D02*
X17601905Y-12281000D01*
X17601905Y-12281000D02*
X17592381Y-12290524D01*
X17592381Y-12290524D02*
X17573333Y-12319095D01*
X17573333Y-12319095D02*
X17563810Y-12357190D01*
X17563810Y-12357190D02*
X17563810Y-12433381D01*
X17563810Y-12433381D02*
X17573333Y-12452428D01*
X17573333Y-12452428D02*
X17582857Y-12461952D01*
X17582857Y-12461952D02*
X17601905Y-12471476D01*
X17601905Y-12471476D02*
X17640000Y-12471476D01*
X17640000Y-12471476D02*
X17659048Y-12461952D01*
X17659048Y-12461952D02*
X17668571Y-12452428D01*
X17668571Y-12452428D02*
X17678095Y-12433381D01*
X17678095Y-12433381D02*
X17678095Y-12385762D01*
X17678095Y-12385762D02*
X17668571Y-12366714D01*
X17668571Y-12366714D02*
X17659048Y-12357190D01*
X17659048Y-12357190D02*
X17640000Y-12347667D01*
X17640000Y-12347667D02*
X17601905Y-12347667D01*
X17601905Y-12347667D02*
X17582857Y-12357190D01*
X17582857Y-12357190D02*
X17573333Y-12366714D01*
X17573333Y-12366714D02*
X17563810Y-12385762D01*
X17773333Y-12471476D02*
X17811429Y-12471476D01*
X17811429Y-12471476D02*
X17830476Y-12461952D01*
X17830476Y-12461952D02*
X17840000Y-12452428D01*
X17840000Y-12452428D02*
X17859048Y-12423857D01*
X17859048Y-12423857D02*
X17868571Y-12385762D01*
X17868571Y-12385762D02*
X17868571Y-12309571D01*
X17868571Y-12309571D02*
X17859048Y-12290524D01*
X17859048Y-12290524D02*
X17849524Y-12281000D01*
X17849524Y-12281000D02*
X17830476Y-12271476D01*
X17830476Y-12271476D02*
X17792381Y-12271476D01*
X17792381Y-12271476D02*
X17773333Y-12281000D01*
X17773333Y-12281000D02*
X17763810Y-12290524D01*
X17763810Y-12290524D02*
X17754286Y-12309571D01*
X17754286Y-12309571D02*
X17754286Y-12357190D01*
X17754286Y-12357190D02*
X17763810Y-12376238D01*
X17763810Y-12376238D02*
X17773333Y-12385762D01*
X17773333Y-12385762D02*
X17792381Y-12395286D01*
X17792381Y-12395286D02*
X17830476Y-12395286D01*
X17830476Y-12395286D02*
X17849524Y-12385762D01*
X17849524Y-12385762D02*
X17859048Y-12376238D01*
X17859048Y-12376238D02*
X17868571Y-12357190D01*
X17935238Y-12271476D02*
X18059048Y-12271476D01*
X18059048Y-12271476D02*
X17992381Y-12347667D01*
X17992381Y-12347667D02*
X18020952Y-12347667D01*
X18020952Y-12347667D02*
X18040000Y-12357190D01*
X18040000Y-12357190D02*
X18049524Y-12366714D01*
X18049524Y-12366714D02*
X18059048Y-12385762D01*
X18059048Y-12385762D02*
X18059048Y-12433381D01*
X18059048Y-12433381D02*
X18049524Y-12452428D01*
X18049524Y-12452428D02*
X18040000Y-12461952D01*
X18040000Y-12461952D02*
X18020952Y-12471476D01*
X18020952Y-12471476D02*
X17963810Y-12471476D01*
X17963810Y-12471476D02*
X17944762Y-12461952D01*
X17944762Y-12461952D02*
X17935238Y-12452428D01*
X18144762Y-12471476D02*
X18144762Y-12338143D01*
X18144762Y-12357190D02*
X18154286Y-12347667D01*
X18154286Y-12347667D02*
X18173333Y-12338143D01*
X18173333Y-12338143D02*
X18201905Y-12338143D01*
X18201905Y-12338143D02*
X18220952Y-12347667D01*
X18220952Y-12347667D02*
X18230476Y-12366714D01*
X18230476Y-12366714D02*
X18230476Y-12471476D01*
X18230476Y-12366714D02*
X18240000Y-12347667D01*
X18240000Y-12347667D02*
X18259048Y-12338143D01*
X18259048Y-12338143D02*
X18287619Y-12338143D01*
X18287619Y-12338143D02*
X18306667Y-12347667D01*
X18306667Y-12347667D02*
X18316191Y-12366714D01*
X18316191Y-12366714D02*
X18316191Y-12471476D01*
X18411429Y-12471476D02*
X18411429Y-12338143D01*
X18411429Y-12357190D02*
X18420952Y-12347667D01*
X18420952Y-12347667D02*
X18440000Y-12338143D01*
X18440000Y-12338143D02*
X18468572Y-12338143D01*
X18468572Y-12338143D02*
X18487619Y-12347667D01*
X18487619Y-12347667D02*
X18497143Y-12366714D01*
X18497143Y-12366714D02*
X18497143Y-12471476D01*
X18497143Y-12366714D02*
X18506667Y-12347667D01*
X18506667Y-12347667D02*
X18525714Y-12338143D01*
X18525714Y-12338143D02*
X18554286Y-12338143D01*
X18554286Y-12338143D02*
X18573333Y-12347667D01*
X18573333Y-12347667D02*
X18582857Y-12366714D01*
X18582857Y-12366714D02*
X18582857Y-12471476D01*
X18940952Y-12261952D02*
X18769524Y-12519095D01*
X19165714Y-12271476D02*
X19184762Y-12271476D01*
X19184762Y-12271476D02*
X19203810Y-12281000D01*
X19203810Y-12281000D02*
X19213333Y-12290524D01*
X19213333Y-12290524D02*
X19222857Y-12309571D01*
X19222857Y-12309571D02*
X19232381Y-12347667D01*
X19232381Y-12347667D02*
X19232381Y-12395286D01*
X19232381Y-12395286D02*
X19222857Y-12433381D01*
X19222857Y-12433381D02*
X19213333Y-12452428D01*
X19213333Y-12452428D02*
X19203810Y-12461952D01*
X19203810Y-12461952D02*
X19184762Y-12471476D01*
X19184762Y-12471476D02*
X19165714Y-12471476D01*
X19165714Y-12471476D02*
X19146667Y-12461952D01*
X19146667Y-12461952D02*
X19137143Y-12452428D01*
X19137143Y-12452428D02*
X19127619Y-12433381D01*
X19127619Y-12433381D02*
X19118095Y-12395286D01*
X19118095Y-12395286D02*
X19118095Y-12347667D01*
X19118095Y-12347667D02*
X19127619Y-12309571D01*
X19127619Y-12309571D02*
X19137143Y-12290524D01*
X19137143Y-12290524D02*
X19146667Y-12281000D01*
X19146667Y-12281000D02*
X19165714Y-12271476D01*
X19318095Y-12452428D02*
X19327619Y-12461952D01*
X19327619Y-12461952D02*
X19318095Y-12471476D01*
X19318095Y-12471476D02*
X19308572Y-12461952D01*
X19308572Y-12461952D02*
X19318095Y-12452428D01*
X19318095Y-12452428D02*
X19318095Y-12471476D01*
X19518095Y-12471476D02*
X19403810Y-12471476D01*
X19460952Y-12471476D02*
X19460952Y-12271476D01*
X19460952Y-12271476D02*
X19441905Y-12300048D01*
X19441905Y-12300048D02*
X19422857Y-12319095D01*
X19422857Y-12319095D02*
X19403810Y-12328619D01*
X19641905Y-12271476D02*
X19660953Y-12271476D01*
X19660953Y-12271476D02*
X19680000Y-12281000D01*
X19680000Y-12281000D02*
X19689524Y-12290524D01*
X19689524Y-12290524D02*
X19699048Y-12309571D01*
X19699048Y-12309571D02*
X19708572Y-12347667D01*
X19708572Y-12347667D02*
X19708572Y-12395286D01*
X19708572Y-12395286D02*
X19699048Y-12433381D01*
X19699048Y-12433381D02*
X19689524Y-12452428D01*
X19689524Y-12452428D02*
X19680000Y-12461952D01*
X19680000Y-12461952D02*
X19660953Y-12471476D01*
X19660953Y-12471476D02*
X19641905Y-12471476D01*
X19641905Y-12471476D02*
X19622857Y-12461952D01*
X19622857Y-12461952D02*
X19613333Y-12452428D01*
X19613333Y-12452428D02*
X19603810Y-12433381D01*
X19603810Y-12433381D02*
X19594286Y-12395286D01*
X19594286Y-12395286D02*
X19594286Y-12347667D01*
X19594286Y-12347667D02*
X19603810Y-12309571D01*
X19603810Y-12309571D02*
X19613333Y-12290524D01*
X19613333Y-12290524D02*
X19622857Y-12281000D01*
X19622857Y-12281000D02*
X19641905Y-12271476D01*
X19880000Y-12271476D02*
X19841905Y-12271476D01*
X19841905Y-12271476D02*
X19822857Y-12281000D01*
X19822857Y-12281000D02*
X19813333Y-12290524D01*
X19813333Y-12290524D02*
X19794286Y-12319095D01*
X19794286Y-12319095D02*
X19784762Y-12357190D01*
X19784762Y-12357190D02*
X19784762Y-12433381D01*
X19784762Y-12433381D02*
X19794286Y-12452428D01*
X19794286Y-12452428D02*
X19803810Y-12461952D01*
X19803810Y-12461952D02*
X19822857Y-12471476D01*
X19822857Y-12471476D02*
X19860953Y-12471476D01*
X19860953Y-12471476D02*
X19880000Y-12461952D01*
X19880000Y-12461952D02*
X19889524Y-12452428D01*
X19889524Y-12452428D02*
X19899048Y-12433381D01*
X19899048Y-12433381D02*
X19899048Y-12385762D01*
X19899048Y-12385762D02*
X19889524Y-12366714D01*
X19889524Y-12366714D02*
X19880000Y-12357190D01*
X19880000Y-12357190D02*
X19860953Y-12347667D01*
X19860953Y-12347667D02*
X19822857Y-12347667D01*
X19822857Y-12347667D02*
X19803810Y-12357190D01*
X19803810Y-12357190D02*
X19794286Y-12366714D01*
X19794286Y-12366714D02*
X19784762Y-12385762D01*
X20022857Y-12271476D02*
X20041905Y-12271476D01*
X20041905Y-12271476D02*
X20060953Y-12281000D01*
X20060953Y-12281000D02*
X20070476Y-12290524D01*
X20070476Y-12290524D02*
X20080000Y-12309571D01*
X20080000Y-12309571D02*
X20089524Y-12347667D01*
X20089524Y-12347667D02*
X20089524Y-12395286D01*
X20089524Y-12395286D02*
X20080000Y-12433381D01*
X20080000Y-12433381D02*
X20070476Y-12452428D01*
X20070476Y-12452428D02*
X20060953Y-12461952D01*
X20060953Y-12461952D02*
X20041905Y-12471476D01*
X20041905Y-12471476D02*
X20022857Y-12471476D01*
X20022857Y-12471476D02*
X20003810Y-12461952D01*
X20003810Y-12461952D02*
X19994286Y-12452428D01*
X19994286Y-12452428D02*
X19984762Y-12433381D01*
X19984762Y-12433381D02*
X19975238Y-12395286D01*
X19975238Y-12395286D02*
X19975238Y-12347667D01*
X19975238Y-12347667D02*
X19984762Y-12309571D01*
X19984762Y-12309571D02*
X19994286Y-12290524D01*
X19994286Y-12290524D02*
X20003810Y-12281000D01*
X20003810Y-12281000D02*
X20022857Y-12271476D01*
X20165714Y-12271476D02*
X20165714Y-12309571D01*
X20241905Y-12271476D02*
X20241905Y-12309571D01*
X20504762Y-12547667D02*
X20495238Y-12538143D01*
X20495238Y-12538143D02*
X20476191Y-12509571D01*
X20476191Y-12509571D02*
X20466667Y-12490524D01*
X20466667Y-12490524D02*
X20457143Y-12461952D01*
X20457143Y-12461952D02*
X20447619Y-12414333D01*
X20447619Y-12414333D02*
X20447619Y-12376238D01*
X20447619Y-12376238D02*
X20457143Y-12328619D01*
X20457143Y-12328619D02*
X20466667Y-12300048D01*
X20466667Y-12300048D02*
X20476191Y-12281000D01*
X20476191Y-12281000D02*
X20495238Y-12252428D01*
X20495238Y-12252428D02*
X20504762Y-12242905D01*
X20571429Y-12290524D02*
X20580953Y-12281000D01*
X20580953Y-12281000D02*
X20600000Y-12271476D01*
X20600000Y-12271476D02*
X20647619Y-12271476D01*
X20647619Y-12271476D02*
X20666667Y-12281000D01*
X20666667Y-12281000D02*
X20676191Y-12290524D01*
X20676191Y-12290524D02*
X20685714Y-12309571D01*
X20685714Y-12309571D02*
X20685714Y-12328619D01*
X20685714Y-12328619D02*
X20676191Y-12357190D01*
X20676191Y-12357190D02*
X20561905Y-12471476D01*
X20561905Y-12471476D02*
X20685714Y-12471476D01*
X20891429Y-12471476D02*
X20891429Y-12271476D01*
X20977143Y-12471476D02*
X20977143Y-12366714D01*
X20977143Y-12366714D02*
X20967619Y-12347667D01*
X20967619Y-12347667D02*
X20948572Y-12338143D01*
X20948572Y-12338143D02*
X20920000Y-12338143D01*
X20920000Y-12338143D02*
X20900953Y-12347667D01*
X20900953Y-12347667D02*
X20891429Y-12357190D01*
X21100953Y-12471476D02*
X21081905Y-12461952D01*
X21081905Y-12461952D02*
X21072381Y-12452428D01*
X21072381Y-12452428D02*
X21062857Y-12433381D01*
X21062857Y-12433381D02*
X21062857Y-12376238D01*
X21062857Y-12376238D02*
X21072381Y-12357190D01*
X21072381Y-12357190D02*
X21081905Y-12347667D01*
X21081905Y-12347667D02*
X21100953Y-12338143D01*
X21100953Y-12338143D02*
X21129524Y-12338143D01*
X21129524Y-12338143D02*
X21148572Y-12347667D01*
X21148572Y-12347667D02*
X21158095Y-12357190D01*
X21158095Y-12357190D02*
X21167619Y-12376238D01*
X21167619Y-12376238D02*
X21167619Y-12433381D01*
X21167619Y-12433381D02*
X21158095Y-12452428D01*
X21158095Y-12452428D02*
X21148572Y-12461952D01*
X21148572Y-12461952D02*
X21129524Y-12471476D01*
X21129524Y-12471476D02*
X21100953Y-12471476D01*
X21281905Y-12471476D02*
X21262857Y-12461952D01*
X21262857Y-12461952D02*
X21253334Y-12442905D01*
X21253334Y-12442905D02*
X21253334Y-12271476D01*
X21434286Y-12461952D02*
X21415238Y-12471476D01*
X21415238Y-12471476D02*
X21377143Y-12471476D01*
X21377143Y-12471476D02*
X21358095Y-12461952D01*
X21358095Y-12461952D02*
X21348572Y-12442905D01*
X21348572Y-12442905D02*
X21348572Y-12366714D01*
X21348572Y-12366714D02*
X21358095Y-12347667D01*
X21358095Y-12347667D02*
X21377143Y-12338143D01*
X21377143Y-12338143D02*
X21415238Y-12338143D01*
X21415238Y-12338143D02*
X21434286Y-12347667D01*
X21434286Y-12347667D02*
X21443810Y-12366714D01*
X21443810Y-12366714D02*
X21443810Y-12385762D01*
X21443810Y-12385762D02*
X21348572Y-12404809D01*
X21520000Y-12461952D02*
X21539048Y-12471476D01*
X21539048Y-12471476D02*
X21577143Y-12471476D01*
X21577143Y-12471476D02*
X21596191Y-12461952D01*
X21596191Y-12461952D02*
X21605715Y-12442905D01*
X21605715Y-12442905D02*
X21605715Y-12433381D01*
X21605715Y-12433381D02*
X21596191Y-12414333D01*
X21596191Y-12414333D02*
X21577143Y-12404809D01*
X21577143Y-12404809D02*
X21548572Y-12404809D01*
X21548572Y-12404809D02*
X21529524Y-12395286D01*
X21529524Y-12395286D02*
X21520000Y-12376238D01*
X21520000Y-12376238D02*
X21520000Y-12366714D01*
X21520000Y-12366714D02*
X21529524Y-12347667D01*
X21529524Y-12347667D02*
X21548572Y-12338143D01*
X21548572Y-12338143D02*
X21577143Y-12338143D01*
X21577143Y-12338143D02*
X21596191Y-12347667D01*
X21672381Y-12547667D02*
X21681905Y-12538143D01*
X21681905Y-12538143D02*
X21700953Y-12509571D01*
X21700953Y-12509571D02*
X21710476Y-12490524D01*
X21710476Y-12490524D02*
X21720000Y-12461952D01*
X21720000Y-12461952D02*
X21729524Y-12414333D01*
X21729524Y-12414333D02*
X21729524Y-12376238D01*
X21729524Y-12376238D02*
X21720000Y-12328619D01*
X21720000Y-12328619D02*
X21710476Y-12300048D01*
X21710476Y-12300048D02*
X21700953Y-12281000D01*
X21700953Y-12281000D02*
X21681905Y-12252428D01*
X21681905Y-12252428D02*
X21672381Y-12242905D01*
X16940000Y-12818000D02*
X17040000Y-12718000D01*
X16940000Y-12618000D01*
X16840000Y-12718000D01*
X16940000Y-12818000D01*
X17268571Y-12591476D02*
X17392381Y-12591476D01*
X17392381Y-12591476D02*
X17325714Y-12667667D01*
X17325714Y-12667667D02*
X17354286Y-12667667D01*
X17354286Y-12667667D02*
X17373333Y-12677190D01*
X17373333Y-12677190D02*
X17382857Y-12686714D01*
X17382857Y-12686714D02*
X17392381Y-12705762D01*
X17392381Y-12705762D02*
X17392381Y-12753381D01*
X17392381Y-12753381D02*
X17382857Y-12772428D01*
X17382857Y-12772428D02*
X17373333Y-12781952D01*
X17373333Y-12781952D02*
X17354286Y-12791476D01*
X17354286Y-12791476D02*
X17297143Y-12791476D01*
X17297143Y-12791476D02*
X17278095Y-12781952D01*
X17278095Y-12781952D02*
X17268571Y-12772428D01*
X17478095Y-12772428D02*
X17487619Y-12781952D01*
X17487619Y-12781952D02*
X17478095Y-12791476D01*
X17478095Y-12791476D02*
X17468571Y-12781952D01*
X17468571Y-12781952D02*
X17478095Y-12772428D01*
X17478095Y-12772428D02*
X17478095Y-12791476D01*
X17563810Y-12610524D02*
X17573333Y-12601000D01*
X17573333Y-12601000D02*
X17592381Y-12591476D01*
X17592381Y-12591476D02*
X17640000Y-12591476D01*
X17640000Y-12591476D02*
X17659048Y-12601000D01*
X17659048Y-12601000D02*
X17668571Y-12610524D01*
X17668571Y-12610524D02*
X17678095Y-12629571D01*
X17678095Y-12629571D02*
X17678095Y-12648619D01*
X17678095Y-12648619D02*
X17668571Y-12677190D01*
X17668571Y-12677190D02*
X17554286Y-12791476D01*
X17554286Y-12791476D02*
X17678095Y-12791476D01*
X17801905Y-12591476D02*
X17820952Y-12591476D01*
X17820952Y-12591476D02*
X17840000Y-12601000D01*
X17840000Y-12601000D02*
X17849524Y-12610524D01*
X17849524Y-12610524D02*
X17859048Y-12629571D01*
X17859048Y-12629571D02*
X17868571Y-12667667D01*
X17868571Y-12667667D02*
X17868571Y-12715286D01*
X17868571Y-12715286D02*
X17859048Y-12753381D01*
X17859048Y-12753381D02*
X17849524Y-12772428D01*
X17849524Y-12772428D02*
X17840000Y-12781952D01*
X17840000Y-12781952D02*
X17820952Y-12791476D01*
X17820952Y-12791476D02*
X17801905Y-12791476D01*
X17801905Y-12791476D02*
X17782857Y-12781952D01*
X17782857Y-12781952D02*
X17773333Y-12772428D01*
X17773333Y-12772428D02*
X17763810Y-12753381D01*
X17763810Y-12753381D02*
X17754286Y-12715286D01*
X17754286Y-12715286D02*
X17754286Y-12667667D01*
X17754286Y-12667667D02*
X17763810Y-12629571D01*
X17763810Y-12629571D02*
X17773333Y-12610524D01*
X17773333Y-12610524D02*
X17782857Y-12601000D01*
X17782857Y-12601000D02*
X17801905Y-12591476D01*
X17992381Y-12591476D02*
X18011429Y-12591476D01*
X18011429Y-12591476D02*
X18030476Y-12601000D01*
X18030476Y-12601000D02*
X18040000Y-12610524D01*
X18040000Y-12610524D02*
X18049524Y-12629571D01*
X18049524Y-12629571D02*
X18059048Y-12667667D01*
X18059048Y-12667667D02*
X18059048Y-12715286D01*
X18059048Y-12715286D02*
X18049524Y-12753381D01*
X18049524Y-12753381D02*
X18040000Y-12772428D01*
X18040000Y-12772428D02*
X18030476Y-12781952D01*
X18030476Y-12781952D02*
X18011429Y-12791476D01*
X18011429Y-12791476D02*
X17992381Y-12791476D01*
X17992381Y-12791476D02*
X17973333Y-12781952D01*
X17973333Y-12781952D02*
X17963810Y-12772428D01*
X17963810Y-12772428D02*
X17954286Y-12753381D01*
X17954286Y-12753381D02*
X17944762Y-12715286D01*
X17944762Y-12715286D02*
X17944762Y-12667667D01*
X17944762Y-12667667D02*
X17954286Y-12629571D01*
X17954286Y-12629571D02*
X17963810Y-12610524D01*
X17963810Y-12610524D02*
X17973333Y-12601000D01*
X17973333Y-12601000D02*
X17992381Y-12591476D01*
X18144762Y-12791476D02*
X18144762Y-12658143D01*
X18144762Y-12677190D02*
X18154286Y-12667667D01*
X18154286Y-12667667D02*
X18173333Y-12658143D01*
X18173333Y-12658143D02*
X18201905Y-12658143D01*
X18201905Y-12658143D02*
X18220952Y-12667667D01*
X18220952Y-12667667D02*
X18230476Y-12686714D01*
X18230476Y-12686714D02*
X18230476Y-12791476D01*
X18230476Y-12686714D02*
X18240000Y-12667667D01*
X18240000Y-12667667D02*
X18259048Y-12658143D01*
X18259048Y-12658143D02*
X18287619Y-12658143D01*
X18287619Y-12658143D02*
X18306667Y-12667667D01*
X18306667Y-12667667D02*
X18316191Y-12686714D01*
X18316191Y-12686714D02*
X18316191Y-12791476D01*
X18411429Y-12791476D02*
X18411429Y-12658143D01*
X18411429Y-12677190D02*
X18420952Y-12667667D01*
X18420952Y-12667667D02*
X18440000Y-12658143D01*
X18440000Y-12658143D02*
X18468572Y-12658143D01*
X18468572Y-12658143D02*
X18487619Y-12667667D01*
X18487619Y-12667667D02*
X18497143Y-12686714D01*
X18497143Y-12686714D02*
X18497143Y-12791476D01*
X18497143Y-12686714D02*
X18506667Y-12667667D01*
X18506667Y-12667667D02*
X18525714Y-12658143D01*
X18525714Y-12658143D02*
X18554286Y-12658143D01*
X18554286Y-12658143D02*
X18573333Y-12667667D01*
X18573333Y-12667667D02*
X18582857Y-12686714D01*
X18582857Y-12686714D02*
X18582857Y-12791476D01*
X18940952Y-12581952D02*
X18769524Y-12839095D01*
X19165714Y-12591476D02*
X19184762Y-12591476D01*
X19184762Y-12591476D02*
X19203810Y-12601000D01*
X19203810Y-12601000D02*
X19213333Y-12610524D01*
X19213333Y-12610524D02*
X19222857Y-12629571D01*
X19222857Y-12629571D02*
X19232381Y-12667667D01*
X19232381Y-12667667D02*
X19232381Y-12715286D01*
X19232381Y-12715286D02*
X19222857Y-12753381D01*
X19222857Y-12753381D02*
X19213333Y-12772428D01*
X19213333Y-12772428D02*
X19203810Y-12781952D01*
X19203810Y-12781952D02*
X19184762Y-12791476D01*
X19184762Y-12791476D02*
X19165714Y-12791476D01*
X19165714Y-12791476D02*
X19146667Y-12781952D01*
X19146667Y-12781952D02*
X19137143Y-12772428D01*
X19137143Y-12772428D02*
X19127619Y-12753381D01*
X19127619Y-12753381D02*
X19118095Y-12715286D01*
X19118095Y-12715286D02*
X19118095Y-12667667D01*
X19118095Y-12667667D02*
X19127619Y-12629571D01*
X19127619Y-12629571D02*
X19137143Y-12610524D01*
X19137143Y-12610524D02*
X19146667Y-12601000D01*
X19146667Y-12601000D02*
X19165714Y-12591476D01*
X19318095Y-12772428D02*
X19327619Y-12781952D01*
X19327619Y-12781952D02*
X19318095Y-12791476D01*
X19318095Y-12791476D02*
X19308572Y-12781952D01*
X19308572Y-12781952D02*
X19318095Y-12772428D01*
X19318095Y-12772428D02*
X19318095Y-12791476D01*
X19518095Y-12791476D02*
X19403810Y-12791476D01*
X19460952Y-12791476D02*
X19460952Y-12591476D01*
X19460952Y-12591476D02*
X19441905Y-12620048D01*
X19441905Y-12620048D02*
X19422857Y-12639095D01*
X19422857Y-12639095D02*
X19403810Y-12648619D01*
X19594286Y-12610524D02*
X19603810Y-12601000D01*
X19603810Y-12601000D02*
X19622857Y-12591476D01*
X19622857Y-12591476D02*
X19670476Y-12591476D01*
X19670476Y-12591476D02*
X19689524Y-12601000D01*
X19689524Y-12601000D02*
X19699048Y-12610524D01*
X19699048Y-12610524D02*
X19708572Y-12629571D01*
X19708572Y-12629571D02*
X19708572Y-12648619D01*
X19708572Y-12648619D02*
X19699048Y-12677190D01*
X19699048Y-12677190D02*
X19584762Y-12791476D01*
X19584762Y-12791476D02*
X19708572Y-12791476D01*
X19880000Y-12591476D02*
X19841905Y-12591476D01*
X19841905Y-12591476D02*
X19822857Y-12601000D01*
X19822857Y-12601000D02*
X19813333Y-12610524D01*
X19813333Y-12610524D02*
X19794286Y-12639095D01*
X19794286Y-12639095D02*
X19784762Y-12677190D01*
X19784762Y-12677190D02*
X19784762Y-12753381D01*
X19784762Y-12753381D02*
X19794286Y-12772428D01*
X19794286Y-12772428D02*
X19803810Y-12781952D01*
X19803810Y-12781952D02*
X19822857Y-12791476D01*
X19822857Y-12791476D02*
X19860953Y-12791476D01*
X19860953Y-12791476D02*
X19880000Y-12781952D01*
X19880000Y-12781952D02*
X19889524Y-12772428D01*
X19889524Y-12772428D02*
X19899048Y-12753381D01*
X19899048Y-12753381D02*
X19899048Y-12705762D01*
X19899048Y-12705762D02*
X19889524Y-12686714D01*
X19889524Y-12686714D02*
X19880000Y-12677190D01*
X19880000Y-12677190D02*
X19860953Y-12667667D01*
X19860953Y-12667667D02*
X19822857Y-12667667D01*
X19822857Y-12667667D02*
X19803810Y-12677190D01*
X19803810Y-12677190D02*
X19794286Y-12686714D01*
X19794286Y-12686714D02*
X19784762Y-12705762D01*
X20022857Y-12591476D02*
X20041905Y-12591476D01*
X20041905Y-12591476D02*
X20060953Y-12601000D01*
X20060953Y-12601000D02*
X20070476Y-12610524D01*
X20070476Y-12610524D02*
X20080000Y-12629571D01*
X20080000Y-12629571D02*
X20089524Y-12667667D01*
X20089524Y-12667667D02*
X20089524Y-12715286D01*
X20089524Y-12715286D02*
X20080000Y-12753381D01*
X20080000Y-12753381D02*
X20070476Y-12772428D01*
X20070476Y-12772428D02*
X20060953Y-12781952D01*
X20060953Y-12781952D02*
X20041905Y-12791476D01*
X20041905Y-12791476D02*
X20022857Y-12791476D01*
X20022857Y-12791476D02*
X20003810Y-12781952D01*
X20003810Y-12781952D02*
X19994286Y-12772428D01*
X19994286Y-12772428D02*
X19984762Y-12753381D01*
X19984762Y-12753381D02*
X19975238Y-12715286D01*
X19975238Y-12715286D02*
X19975238Y-12667667D01*
X19975238Y-12667667D02*
X19984762Y-12629571D01*
X19984762Y-12629571D02*
X19994286Y-12610524D01*
X19994286Y-12610524D02*
X20003810Y-12601000D01*
X20003810Y-12601000D02*
X20022857Y-12591476D01*
X20165714Y-12591476D02*
X20165714Y-12629571D01*
X20241905Y-12591476D02*
X20241905Y-12629571D01*
X20504762Y-12867667D02*
X20495238Y-12858143D01*
X20495238Y-12858143D02*
X20476191Y-12829571D01*
X20476191Y-12829571D02*
X20466667Y-12810524D01*
X20466667Y-12810524D02*
X20457143Y-12781952D01*
X20457143Y-12781952D02*
X20447619Y-12734333D01*
X20447619Y-12734333D02*
X20447619Y-12696238D01*
X20447619Y-12696238D02*
X20457143Y-12648619D01*
X20457143Y-12648619D02*
X20466667Y-12620048D01*
X20466667Y-12620048D02*
X20476191Y-12601000D01*
X20476191Y-12601000D02*
X20495238Y-12572428D01*
X20495238Y-12572428D02*
X20504762Y-12562905D01*
X20666667Y-12658143D02*
X20666667Y-12791476D01*
X20619048Y-12581952D02*
X20571429Y-12724809D01*
X20571429Y-12724809D02*
X20695238Y-12724809D01*
X20891429Y-12791476D02*
X20891429Y-12591476D01*
X20977143Y-12791476D02*
X20977143Y-12686714D01*
X20977143Y-12686714D02*
X20967619Y-12667667D01*
X20967619Y-12667667D02*
X20948572Y-12658143D01*
X20948572Y-12658143D02*
X20920000Y-12658143D01*
X20920000Y-12658143D02*
X20900953Y-12667667D01*
X20900953Y-12667667D02*
X20891429Y-12677190D01*
X21100953Y-12791476D02*
X21081905Y-12781952D01*
X21081905Y-12781952D02*
X21072381Y-12772428D01*
X21072381Y-12772428D02*
X21062857Y-12753381D01*
X21062857Y-12753381D02*
X21062857Y-12696238D01*
X21062857Y-12696238D02*
X21072381Y-12677190D01*
X21072381Y-12677190D02*
X21081905Y-12667667D01*
X21081905Y-12667667D02*
X21100953Y-12658143D01*
X21100953Y-12658143D02*
X21129524Y-12658143D01*
X21129524Y-12658143D02*
X21148572Y-12667667D01*
X21148572Y-12667667D02*
X21158095Y-12677190D01*
X21158095Y-12677190D02*
X21167619Y-12696238D01*
X21167619Y-12696238D02*
X21167619Y-12753381D01*
X21167619Y-12753381D02*
X21158095Y-12772428D01*
X21158095Y-12772428D02*
X21148572Y-12781952D01*
X21148572Y-12781952D02*
X21129524Y-12791476D01*
X21129524Y-12791476D02*
X21100953Y-12791476D01*
X21281905Y-12791476D02*
X21262857Y-12781952D01*
X21262857Y-12781952D02*
X21253334Y-12762905D01*
X21253334Y-12762905D02*
X21253334Y-12591476D01*
X21434286Y-12781952D02*
X21415238Y-12791476D01*
X21415238Y-12791476D02*
X21377143Y-12791476D01*
X21377143Y-12791476D02*
X21358095Y-12781952D01*
X21358095Y-12781952D02*
X21348572Y-12762905D01*
X21348572Y-12762905D02*
X21348572Y-12686714D01*
X21348572Y-12686714D02*
X21358095Y-12667667D01*
X21358095Y-12667667D02*
X21377143Y-12658143D01*
X21377143Y-12658143D02*
X21415238Y-12658143D01*
X21415238Y-12658143D02*
X21434286Y-12667667D01*
X21434286Y-12667667D02*
X21443810Y-12686714D01*
X21443810Y-12686714D02*
X21443810Y-12705762D01*
X21443810Y-12705762D02*
X21348572Y-12724809D01*
X21520000Y-12781952D02*
X21539048Y-12791476D01*
X21539048Y-12791476D02*
X21577143Y-12791476D01*
X21577143Y-12791476D02*
X21596191Y-12781952D01*
X21596191Y-12781952D02*
X21605715Y-12762905D01*
X21605715Y-12762905D02*
X21605715Y-12753381D01*
X21605715Y-12753381D02*
X21596191Y-12734333D01*
X21596191Y-12734333D02*
X21577143Y-12724809D01*
X21577143Y-12724809D02*
X21548572Y-12724809D01*
X21548572Y-12724809D02*
X21529524Y-12715286D01*
X21529524Y-12715286D02*
X21520000Y-12696238D01*
X21520000Y-12696238D02*
X21520000Y-12686714D01*
X21520000Y-12686714D02*
X21529524Y-12667667D01*
X21529524Y-12667667D02*
X21548572Y-12658143D01*
X21548572Y-12658143D02*
X21577143Y-12658143D01*
X21577143Y-12658143D02*
X21596191Y-12667667D01*
X21672381Y-12867667D02*
X21681905Y-12858143D01*
X21681905Y-12858143D02*
X21700953Y-12829571D01*
X21700953Y-12829571D02*
X21710476Y-12810524D01*
X21710476Y-12810524D02*
X21720000Y-12781952D01*
X21720000Y-12781952D02*
X21729524Y-12734333D01*
X21729524Y-12734333D02*
X21729524Y-12696238D01*
X21729524Y-12696238D02*
X21720000Y-12648619D01*
X21720000Y-12648619D02*
X21710476Y-12620048D01*
X21710476Y-12620048D02*
X21700953Y-12601000D01*
X21700953Y-12601000D02*
X21681905Y-12572428D01*
X21681905Y-12572428D02*
X21672381Y-12562905D01*
M02*
