%TF.GenerationSoftware,KiCad,Pcbnew,7.0.0-da2b9df05c~163~ubuntu22.04.1*%
%TF.CreationDate,2023-02-19T22:43:29+00:00*%
%TF.ProjectId,userioswitch,75736572-696f-4737-9769-7463682e6b69,rev?*%
%TF.SameCoordinates,Original*%
%TF.FileFunction,Legend,Bot*%
%TF.FilePolarity,Positive*%
%FSLAX46Y46*%
G04 Gerber Fmt 4.6, Leading zero omitted, Abs format (unit mm)*
G04 Created by KiCad (PCBNEW 7.0.0-da2b9df05c~163~ubuntu22.04.1) date 2023-02-19 22:43:29*
%MOMM*%
%LPD*%
G01*
G04 APERTURE LIST*
%ADD10C,0.001000*%
%ADD11C,3.438000*%
%ADD12C,3.800000*%
%ADD13R,1.700000X1.700000*%
%ADD14O,1.700000X1.700000*%
%ADD15C,3.600000*%
%ADD16C,6.400000*%
G04 APERTURE END LIST*
%LPC*%
D10*
%TO.C,J6*%
X224406500Y-95602000D03*
X224406500Y-88802000D03*
D11*
X224406500Y-99002000D03*
X224406500Y-85402000D03*
%TD*%
D10*
%TO.C,J5*%
X217268000Y-73406000D03*
X210468000Y-73406000D03*
D11*
X220668000Y-73406000D03*
X207068000Y-73406000D03*
%TD*%
%TO.C,J4*%
X180340000Y-98748000D03*
X180340000Y-85148000D03*
D10*
X180340000Y-95348000D03*
X180340000Y-88548000D03*
%TD*%
%TO.C,J3*%
X192630000Y-73406000D03*
X185830000Y-73406000D03*
D11*
X196030000Y-73406000D03*
X182430000Y-73406000D03*
%TD*%
D12*
%TO.C,J1*%
X207998000Y-106601000D03*
X196298000Y-106601000D03*
D10*
X204398000Y-106601000D03*
X199898000Y-106601000D03*
%TD*%
D13*
%TO.C,J2*%
X199389999Y-86867999D03*
D14*
X199389999Y-84327999D03*
X201929999Y-86867999D03*
X201929999Y-84327999D03*
X204469999Y-86867999D03*
X204469999Y-84327999D03*
%TD*%
D15*
%TO.C,H1*%
X175000000Y-71000000D03*
D16*
X175000000Y-71000000D03*
%TD*%
D13*
%TO.C,J7*%
X173222999Y-87126999D03*
D14*
X175762999Y-87126999D03*
X173222999Y-89666999D03*
X175762999Y-89666999D03*
X173222999Y-92206999D03*
X175762999Y-92206999D03*
X173222999Y-94746999D03*
X175762999Y-94746999D03*
X173222999Y-97286999D03*
X175762999Y-97286999D03*
%TD*%
D15*
%TO.C,H4*%
X229000000Y-71000000D03*
D16*
X229000000Y-71000000D03*
%TD*%
D15*
%TO.C,H2*%
X175000000Y-105000000D03*
D16*
X175000000Y-105000000D03*
%TD*%
D15*
%TO.C,H3*%
X229000000Y-105000000D03*
D16*
X229000000Y-105000000D03*
%TD*%
M02*
