G04 #@! TF.GenerationSoftware,KiCad,Pcbnew,7.0.0-da2b9df05c~163~ubuntu22.04.1*
G04 #@! TF.CreationDate,2023-03-07T01:12:10+00:00*
G04 #@! TF.ProjectId,simpleadapter,73696d70-6c65-4616-9461-707465722e6b,rev?*
G04 #@! TF.SameCoordinates,Original*
G04 #@! TF.FileFunction,Legend,Top*
G04 #@! TF.FilePolarity,Positive*
%FSLAX46Y46*%
G04 Gerber Fmt 4.6, Leading zero omitted, Abs format (unit mm)*
G04 Created by KiCad (PCBNEW 7.0.0-da2b9df05c~163~ubuntu22.04.1) date 2023-03-07 01:12:10*
%MOMM*%
%LPD*%
G01*
G04 APERTURE LIST*
%ADD10C,0.250000*%
%ADD11C,0.150000*%
%ADD12C,0.254000*%
%ADD13C,0.120000*%
%ADD14C,0.100000*%
%ADD15R,1.700000X1.700000*%
%ADD16O,1.700000X1.700000*%
%ADD17C,0.001000*%
%ADD18R,1.800000X0.700000*%
%ADD19C,3.800000*%
G04 APERTURE END LIST*
D10*
X160273904Y-102144380D02*
X159702476Y-102144380D01*
X159988190Y-102144380D02*
X159988190Y-101144380D01*
X159988190Y-101144380D02*
X159892952Y-101287238D01*
X159892952Y-101287238D02*
X159797714Y-101382476D01*
X159797714Y-101382476D02*
X159702476Y-101430095D01*
D11*
X156765666Y-101265380D02*
X156765666Y-101979666D01*
X156765666Y-101979666D02*
X156718047Y-102122523D01*
X156718047Y-102122523D02*
X156622809Y-102217761D01*
X156622809Y-102217761D02*
X156479952Y-102265380D01*
X156479952Y-102265380D02*
X156384714Y-102265380D01*
X157194238Y-101360619D02*
X157241857Y-101313000D01*
X157241857Y-101313000D02*
X157337095Y-101265380D01*
X157337095Y-101265380D02*
X157575190Y-101265380D01*
X157575190Y-101265380D02*
X157670428Y-101313000D01*
X157670428Y-101313000D02*
X157718047Y-101360619D01*
X157718047Y-101360619D02*
X157765666Y-101455857D01*
X157765666Y-101455857D02*
X157765666Y-101551095D01*
X157765666Y-101551095D02*
X157718047Y-101693952D01*
X157718047Y-101693952D02*
X157146619Y-102265380D01*
X157146619Y-102265380D02*
X157765666Y-102265380D01*
D12*
X148548573Y-94657332D02*
X149455716Y-94657332D01*
X149455716Y-94657332D02*
X149637145Y-94717809D01*
X149637145Y-94717809D02*
X149758097Y-94838761D01*
X149758097Y-94838761D02*
X149818573Y-95020190D01*
X149818573Y-95020190D02*
X149818573Y-95141142D01*
X149818573Y-93387332D02*
X149818573Y-94113047D01*
X149818573Y-93750190D02*
X148548573Y-93750190D01*
X148548573Y-93750190D02*
X148730002Y-93871142D01*
X148730002Y-93871142D02*
X148850954Y-93992094D01*
X148850954Y-93992094D02*
X148911430Y-94113047D01*
D13*
X159699000Y-99568000D02*
X159699000Y-100898000D01*
X159699000Y-98298000D02*
X159699000Y-88078000D01*
X157099000Y-100898000D02*
X154499000Y-100898000D01*
X159699000Y-98298000D02*
X157099000Y-98298000D01*
X159699000Y-100898000D02*
X158369000Y-100898000D01*
X157099000Y-98298000D02*
X157099000Y-100898000D01*
X159699000Y-88078000D02*
X154499000Y-88078000D01*
X154499000Y-100898000D02*
X154499000Y-88078000D01*
D14*
X146637000Y-88234000D02*
X146177000Y-88234000D01*
X146177000Y-88234000D02*
X146177000Y-100234000D01*
X150087000Y-91234000D02*
X150087000Y-97234000D01*
X146177000Y-100234000D02*
X146637000Y-100234000D01*
%LPC*%
D15*
X158368999Y-99567999D03*
D16*
X155828999Y-99567999D03*
X158368999Y-97027999D03*
X155828999Y-97027999D03*
X158368999Y-94487999D03*
X155828999Y-94487999D03*
X158368999Y-91947999D03*
X155828999Y-91947999D03*
X158368999Y-89407999D03*
X155828999Y-89407999D03*
D17*
X149177000Y-91984000D03*
X149177000Y-96484000D03*
D18*
X151626999Y-97233999D03*
X151626999Y-95233999D03*
X151626999Y-93233999D03*
X151626999Y-91233999D03*
X151626999Y-90233999D03*
X151626999Y-92233999D03*
X151626999Y-94233999D03*
X151626999Y-96233999D03*
X151626999Y-98233999D03*
D19*
X149177000Y-88384000D03*
X149177000Y-100084000D03*
M02*
