G04 #@! TF.GenerationSoftware,KiCad,Pcbnew,7.0.0-da2b9df05c~163~ubuntu22.04.1*
G04 #@! TF.CreationDate,2023-02-19T21:10:27+00:00*
G04 #@! TF.ProjectId,simpleadapter,73696d70-6c65-4616-9461-707465722e6b,rev?*
G04 #@! TF.SameCoordinates,Original*
G04 #@! TF.FileFunction,Legend,Top*
G04 #@! TF.FilePolarity,Positive*
%FSLAX46Y46*%
G04 Gerber Fmt 4.6, Leading zero omitted, Abs format (unit mm)*
G04 Created by KiCad (PCBNEW 7.0.0-da2b9df05c~163~ubuntu22.04.1) date 2023-02-19 21:10:27*
%MOMM*%
%LPD*%
G01*
G04 APERTURE LIST*
%ADD10C,0.254000*%
%ADD11C,0.150000*%
%ADD12C,0.100000*%
%ADD13C,0.120000*%
%ADD14C,0.001000*%
%ADD15R,1.800000X0.700000*%
%ADD16C,3.800000*%
%ADD17R,1.700000X1.700000*%
%ADD18O,1.700000X1.700000*%
G04 APERTURE END LIST*
D10*
X148548573Y-94657332D02*
X149455716Y-94657332D01*
X149455716Y-94657332D02*
X149637145Y-94717809D01*
X149637145Y-94717809D02*
X149758097Y-94838761D01*
X149758097Y-94838761D02*
X149818573Y-95020190D01*
X149818573Y-95020190D02*
X149818573Y-95141142D01*
X149818573Y-93387332D02*
X149818573Y-94113047D01*
X149818573Y-93750190D02*
X148548573Y-93750190D01*
X148548573Y-93750190D02*
X148730002Y-93871142D01*
X148730002Y-93871142D02*
X148850954Y-93992094D01*
X148850954Y-93992094D02*
X148911430Y-94113047D01*
D11*
X156892666Y-101451380D02*
X156892666Y-102165666D01*
X156892666Y-102165666D02*
X156845047Y-102308523D01*
X156845047Y-102308523D02*
X156749809Y-102403761D01*
X156749809Y-102403761D02*
X156606952Y-102451380D01*
X156606952Y-102451380D02*
X156511714Y-102451380D01*
X157321238Y-101546619D02*
X157368857Y-101499000D01*
X157368857Y-101499000D02*
X157464095Y-101451380D01*
X157464095Y-101451380D02*
X157702190Y-101451380D01*
X157702190Y-101451380D02*
X157797428Y-101499000D01*
X157797428Y-101499000D02*
X157845047Y-101546619D01*
X157845047Y-101546619D02*
X157892666Y-101641857D01*
X157892666Y-101641857D02*
X157892666Y-101737095D01*
X157892666Y-101737095D02*
X157845047Y-101879952D01*
X157845047Y-101879952D02*
X157273619Y-102451380D01*
X157273619Y-102451380D02*
X157892666Y-102451380D01*
D12*
X146637000Y-88234000D02*
X146177000Y-88234000D01*
X146177000Y-88234000D02*
X146177000Y-100234000D01*
X150087000Y-91234000D02*
X150087000Y-97234000D01*
X146177000Y-100234000D02*
X146637000Y-100234000D01*
D13*
X159826000Y-100644000D02*
X159826000Y-87824000D01*
X154626000Y-98044000D02*
X154626000Y-87824000D01*
X157226000Y-100644000D02*
X157226000Y-98044000D01*
X155956000Y-100644000D02*
X154626000Y-100644000D01*
X154626000Y-100644000D02*
X154626000Y-99314000D01*
X159826000Y-87824000D02*
X154626000Y-87824000D01*
X159826000Y-100644000D02*
X157226000Y-100644000D01*
X157226000Y-98044000D02*
X154626000Y-98044000D01*
%LPC*%
D14*
X149177000Y-91984000D03*
X149177000Y-96484000D03*
D15*
X151626999Y-97233999D03*
X151626999Y-95233999D03*
X151626999Y-93233999D03*
X151626999Y-91233999D03*
X151626999Y-90233999D03*
X151626999Y-92233999D03*
X151626999Y-94233999D03*
X151626999Y-96233999D03*
X151626999Y-98233999D03*
D16*
X149177000Y-88384000D03*
X149177000Y-100084000D03*
D17*
X155955999Y-99313999D03*
D18*
X158495999Y-99313999D03*
X155955999Y-96773999D03*
X158495999Y-96773999D03*
X155955999Y-94233999D03*
X158495999Y-94233999D03*
X155955999Y-91693999D03*
X158495999Y-91693999D03*
X155955999Y-89153999D03*
X158495999Y-89153999D03*
M02*
