G04 #@! TF.GenerationSoftware,KiCad,Pcbnew,7.0.0-da2b9df05c~163~ubuntu22.04.1*
G04 #@! TF.CreationDate,2023-03-07T01:12:10+00:00*
G04 #@! TF.ProjectId,simpleadapter,73696d70-6c65-4616-9461-707465722e6b,rev?*
G04 #@! TF.SameCoordinates,Original*
G04 #@! TF.FileFunction,Copper,L1,Top*
G04 #@! TF.FilePolarity,Positive*
%FSLAX46Y46*%
G04 Gerber Fmt 4.6, Leading zero omitted, Abs format (unit mm)*
G04 Created by KiCad (PCBNEW 7.0.0-da2b9df05c~163~ubuntu22.04.1) date 2023-03-07 01:12:10*
%MOMM*%
%LPD*%
G01*
G04 APERTURE LIST*
G04 #@! TA.AperFunction,ComponentPad*
%ADD10R,1.700000X1.700000*%
G04 #@! TD*
G04 #@! TA.AperFunction,ComponentPad*
%ADD11O,1.700000X1.700000*%
G04 #@! TD*
G04 #@! TA.AperFunction,SMDPad,CuDef*
%ADD12R,1.800000X0.700000*%
G04 #@! TD*
G04 #@! TA.AperFunction,ComponentPad*
%ADD13C,3.800000*%
G04 #@! TD*
G04 #@! TA.AperFunction,Conductor*
%ADD14C,0.200000*%
G04 #@! TD*
G04 #@! TA.AperFunction,Conductor*
%ADD15C,0.250000*%
G04 #@! TD*
G04 #@! TA.AperFunction,Conductor*
%ADD16C,0.600000*%
G04 #@! TD*
G04 APERTURE END LIST*
D10*
X158368999Y-99567999D03*
D11*
X155828999Y-99567999D03*
X158368999Y-97027999D03*
X155828999Y-97027999D03*
X158368999Y-94487999D03*
X155828999Y-94487999D03*
X158368999Y-91947999D03*
X155828999Y-91947999D03*
X158368999Y-89407999D03*
X155828999Y-89407999D03*
D12*
X151626999Y-97233999D03*
X151626999Y-95233999D03*
X151626999Y-93233999D03*
X151626999Y-91233999D03*
X151626999Y-90233999D03*
X151626999Y-92233999D03*
X151626999Y-94233999D03*
X151626999Y-96233999D03*
X151626999Y-98233999D03*
D13*
X149177000Y-88384000D03*
X149177000Y-100084000D03*
D14*
X151627000Y-98234000D02*
X154111000Y-100718000D01*
X154111000Y-100718000D02*
X157219000Y-100718000D01*
X157219000Y-100718000D02*
X158369000Y-99568000D01*
X151627000Y-96234000D02*
X153408654Y-96234000D01*
X155352654Y-98178000D02*
X157219000Y-98178000D01*
X153408654Y-96234000D02*
X155352654Y-98178000D01*
X157219000Y-98178000D02*
X158369000Y-97028000D01*
X154575000Y-93234000D02*
X155829000Y-94488000D01*
X151627000Y-93234000D02*
X154575000Y-93234000D01*
D15*
X155064336Y-95663000D02*
X157194000Y-95663000D01*
X153635336Y-94234000D02*
X155064336Y-95663000D01*
D14*
X151627000Y-95234000D02*
X154035000Y-95234000D01*
D15*
X157194000Y-95663000D02*
X158369000Y-94488000D01*
X151627000Y-94234000D02*
X153635336Y-94234000D01*
D14*
X154035000Y-95234000D02*
X155829000Y-97028000D01*
X151627000Y-92234000D02*
X154488654Y-92234000D01*
X154488654Y-92234000D02*
X155352654Y-93098000D01*
X155352654Y-93098000D02*
X157219000Y-93098000D01*
X157219000Y-93098000D02*
X158369000Y-91948000D01*
D15*
X149177000Y-88384000D02*
X154805000Y-88384000D01*
X154805000Y-88384000D02*
X155829000Y-89408000D01*
D14*
X151627000Y-90234000D02*
X151951000Y-90558000D01*
X151951000Y-90558000D02*
X157219000Y-90558000D01*
X157219000Y-90558000D02*
X158369000Y-89408000D01*
D16*
X151627000Y-91234000D02*
X155115000Y-91234000D01*
X155115000Y-91234000D02*
X155829000Y-91948000D01*
X151627000Y-97234000D02*
X153495000Y-97234000D01*
X153495000Y-97234000D02*
X155829000Y-99568000D01*
D14*
X151627000Y-95234000D02*
X151777000Y-95384000D01*
X151627000Y-93234000D02*
X151777000Y-93084000D01*
D15*
X149177000Y-88384000D02*
X150439000Y-87122000D01*
M02*
