G04 #@! TF.GenerationSoftware,KiCad,Pcbnew,7.0.0-da2b9df05c~163~ubuntu22.04.1*
G04 #@! TF.CreationDate,2023-02-19T21:10:26+00:00*
G04 #@! TF.ProjectId,simpleadapter,73696d70-6c65-4616-9461-707465722e6b,rev?*
G04 #@! TF.SameCoordinates,Original*
G04 #@! TF.FileFunction,Copper,L1,Top*
G04 #@! TF.FilePolarity,Positive*
%FSLAX46Y46*%
G04 Gerber Fmt 4.6, Leading zero omitted, Abs format (unit mm)*
G04 Created by KiCad (PCBNEW 7.0.0-da2b9df05c~163~ubuntu22.04.1) date 2023-02-19 21:10:26*
%MOMM*%
%LPD*%
G01*
G04 APERTURE LIST*
G04 #@! TA.AperFunction,SMDPad,CuDef*
%ADD10R,1.800000X0.700000*%
G04 #@! TD*
G04 #@! TA.AperFunction,ComponentPad*
%ADD11C,3.800000*%
G04 #@! TD*
G04 #@! TA.AperFunction,ComponentPad*
%ADD12R,1.700000X1.700000*%
G04 #@! TD*
G04 #@! TA.AperFunction,ComponentPad*
%ADD13O,1.700000X1.700000*%
G04 #@! TD*
G04 #@! TA.AperFunction,Conductor*
%ADD14C,0.250000*%
G04 #@! TD*
G04 #@! TA.AperFunction,Conductor*
%ADD15C,0.200000*%
G04 #@! TD*
G04 #@! TA.AperFunction,Conductor*
%ADD16C,0.400000*%
G04 #@! TD*
G04 APERTURE END LIST*
D10*
X151626999Y-97233999D03*
X151626999Y-95233999D03*
X151626999Y-93233999D03*
X151626999Y-91233999D03*
X151626999Y-90233999D03*
X151626999Y-92233999D03*
X151626999Y-94233999D03*
X151626999Y-96233999D03*
X151626999Y-98233999D03*
D11*
X149177000Y-88384000D03*
X149177000Y-100084000D03*
D12*
X155955999Y-99313999D03*
D13*
X158495999Y-99313999D03*
X155955999Y-96773999D03*
X158495999Y-96773999D03*
X155955999Y-94233999D03*
X158495999Y-94233999D03*
X155955999Y-91693999D03*
X158495999Y-91693999D03*
X155955999Y-89153999D03*
X158495999Y-89153999D03*
D14*
X149177000Y-88384000D02*
X150439000Y-87122000D01*
X150439000Y-87122000D02*
X156464000Y-87122000D01*
X156464000Y-87122000D02*
X158496000Y-89154000D01*
D15*
X152707000Y-89154000D02*
X155956000Y-89154000D01*
D16*
X151627000Y-91234000D02*
X154696150Y-91234000D01*
D15*
X151627000Y-90234000D02*
X152707000Y-89154000D01*
D16*
X154696150Y-91234000D02*
X154706000Y-91224150D01*
X154706000Y-91224150D02*
X154706000Y-91176233D01*
X154706000Y-91176233D02*
X155458233Y-90424000D01*
X155458233Y-90424000D02*
X157226000Y-90424000D01*
X157226000Y-90424000D02*
X158496000Y-91694000D01*
X151627000Y-97234000D02*
X154706000Y-97234000D01*
X154706000Y-97234000D02*
X154706000Y-97291767D01*
X155438233Y-98024000D02*
X157206000Y-98024000D01*
X157206000Y-98024000D02*
X158496000Y-99314000D01*
X154706000Y-97291767D02*
X155438233Y-98024000D01*
D15*
X151627000Y-98234000D02*
X154876000Y-98234000D01*
X154876000Y-98234000D02*
X155956000Y-99314000D01*
X151627000Y-96234000D02*
X155416000Y-96234000D01*
X155416000Y-96234000D02*
X155956000Y-96774000D01*
X151627000Y-95234000D02*
X151777000Y-95384000D01*
X151777000Y-95384000D02*
X157106000Y-95384000D01*
X157106000Y-95384000D02*
X158496000Y-96774000D01*
D14*
X151627000Y-94234000D02*
X155956000Y-94234000D01*
D15*
X151627000Y-93234000D02*
X151777000Y-93084000D01*
X151777000Y-93084000D02*
X157346000Y-93084000D01*
X157346000Y-93084000D02*
X158496000Y-94234000D01*
X151627000Y-92234000D02*
X155416000Y-92234000D01*
X155416000Y-92234000D02*
X155956000Y-91694000D01*
X151627000Y-90234000D02*
X151697000Y-90304000D01*
M02*
