%TF.GenerationSoftware,KiCad,Pcbnew,7.0.0-da2b9df05c~163~ubuntu22.04.1*%
%TF.CreationDate,2023-02-19T21:10:30+00:00*%
%TF.ProjectId,simpleadapter,73696d70-6c65-4616-9461-707465722e6b,rev?*%
%TF.SameCoordinates,Original*%
%TF.FileFunction,Drillmap*%
%TF.FilePolarity,Positive*%
%FSLAX45Y45*%
G04 Gerber Fmt 4.5, Leading zero omitted, Abs format (unit mm)*
G04 Created by KiCad (PCBNEW 7.0.0-da2b9df05c~163~ubuntu22.04.1) date 2023-02-19 21:10:30*
%MOMM*%
%LPD*%
G01*
G04 APERTURE LIST*
%ADD10C,0.100000*%
%ADD11C,0.200000*%
%ADD12C,0.269260*%
G04 APERTURE END LIST*
D10*
X14655800Y-8559800D02*
X16078200Y-8559800D01*
X16078200Y-8559800D02*
X16078200Y-10287000D01*
X16078200Y-10287000D02*
X14655800Y-10287000D01*
X14655800Y-10287000D02*
X14655800Y-8559800D01*
D11*
D10*
X15545600Y-8865400D02*
X15645600Y-8965400D01*
X15645600Y-8865400D02*
X15545600Y-8965400D01*
X15545600Y-9119400D02*
X15645600Y-9219400D01*
X15645600Y-9119400D02*
X15545600Y-9219400D01*
X15545600Y-9373400D02*
X15645600Y-9473400D01*
X15645600Y-9373400D02*
X15545600Y-9473400D01*
X15545600Y-9627400D02*
X15645600Y-9727400D01*
X15645600Y-9627400D02*
X15545600Y-9727400D01*
X15545600Y-9881400D02*
X15645600Y-9981400D01*
X15645600Y-9881400D02*
X15545600Y-9981400D01*
X15799600Y-8865400D02*
X15899600Y-8965400D01*
X15899600Y-8865400D02*
X15799600Y-8965400D01*
X15799600Y-9119400D02*
X15899600Y-9219400D01*
X15899600Y-9119400D02*
X15799600Y-9219400D01*
X15799600Y-9373400D02*
X15899600Y-9473400D01*
X15899600Y-9373400D02*
X15799600Y-9473400D01*
X15799600Y-9627400D02*
X15899600Y-9727400D01*
X15899600Y-9627400D02*
X15799600Y-9727400D01*
X15799600Y-9881400D02*
X15899600Y-9981400D01*
X15899600Y-9881400D02*
X15799600Y-9981400D01*
D12*
X15052330Y-8838400D02*
G75*
G03*
X15052330Y-8838400I-134630J0D01*
G01*
X15052330Y-10008400D02*
G75*
G03*
X15052330Y-10008400I-134630J0D01*
G01*
D11*
X14898419Y-10585476D02*
X14898419Y-10385476D01*
X14898419Y-10385476D02*
X14946038Y-10385476D01*
X14946038Y-10385476D02*
X14974609Y-10395000D01*
X14974609Y-10395000D02*
X14993657Y-10414048D01*
X14993657Y-10414048D02*
X15003181Y-10433095D01*
X15003181Y-10433095D02*
X15012705Y-10471190D01*
X15012705Y-10471190D02*
X15012705Y-10499762D01*
X15012705Y-10499762D02*
X15003181Y-10537857D01*
X15003181Y-10537857D02*
X14993657Y-10556905D01*
X14993657Y-10556905D02*
X14974609Y-10575952D01*
X14974609Y-10575952D02*
X14946038Y-10585476D01*
X14946038Y-10585476D02*
X14898419Y-10585476D01*
X15098419Y-10585476D02*
X15098419Y-10452143D01*
X15098419Y-10490238D02*
X15107943Y-10471190D01*
X15107943Y-10471190D02*
X15117467Y-10461667D01*
X15117467Y-10461667D02*
X15136514Y-10452143D01*
X15136514Y-10452143D02*
X15155562Y-10452143D01*
X15222228Y-10585476D02*
X15222228Y-10452143D01*
X15222228Y-10385476D02*
X15212705Y-10395000D01*
X15212705Y-10395000D02*
X15222228Y-10404524D01*
X15222228Y-10404524D02*
X15231752Y-10395000D01*
X15231752Y-10395000D02*
X15222228Y-10385476D01*
X15222228Y-10385476D02*
X15222228Y-10404524D01*
X15346038Y-10585476D02*
X15326990Y-10575952D01*
X15326990Y-10575952D02*
X15317467Y-10556905D01*
X15317467Y-10556905D02*
X15317467Y-10385476D01*
X15450800Y-10585476D02*
X15431752Y-10575952D01*
X15431752Y-10575952D02*
X15422228Y-10556905D01*
X15422228Y-10556905D02*
X15422228Y-10385476D01*
X15646990Y-10585476D02*
X15646990Y-10385476D01*
X15646990Y-10385476D02*
X15713657Y-10528333D01*
X15713657Y-10528333D02*
X15780324Y-10385476D01*
X15780324Y-10385476D02*
X15780324Y-10585476D01*
X15961276Y-10585476D02*
X15961276Y-10480714D01*
X15961276Y-10480714D02*
X15951752Y-10461667D01*
X15951752Y-10461667D02*
X15932705Y-10452143D01*
X15932705Y-10452143D02*
X15894609Y-10452143D01*
X15894609Y-10452143D02*
X15875562Y-10461667D01*
X15961276Y-10575952D02*
X15942228Y-10585476D01*
X15942228Y-10585476D02*
X15894609Y-10585476D01*
X15894609Y-10585476D02*
X15875562Y-10575952D01*
X15875562Y-10575952D02*
X15866038Y-10556905D01*
X15866038Y-10556905D02*
X15866038Y-10537857D01*
X15866038Y-10537857D02*
X15875562Y-10518810D01*
X15875562Y-10518810D02*
X15894609Y-10509286D01*
X15894609Y-10509286D02*
X15942228Y-10509286D01*
X15942228Y-10509286D02*
X15961276Y-10499762D01*
X16056514Y-10452143D02*
X16056514Y-10652143D01*
X16056514Y-10461667D02*
X16075562Y-10452143D01*
X16075562Y-10452143D02*
X16113657Y-10452143D01*
X16113657Y-10452143D02*
X16132705Y-10461667D01*
X16132705Y-10461667D02*
X16142228Y-10471190D01*
X16142228Y-10471190D02*
X16151752Y-10490238D01*
X16151752Y-10490238D02*
X16151752Y-10547381D01*
X16151752Y-10547381D02*
X16142228Y-10566429D01*
X16142228Y-10566429D02*
X16132705Y-10575952D01*
X16132705Y-10575952D02*
X16113657Y-10585476D01*
X16113657Y-10585476D02*
X16075562Y-10585476D01*
X16075562Y-10585476D02*
X16056514Y-10575952D01*
X16237467Y-10566429D02*
X16246990Y-10575952D01*
X16246990Y-10575952D02*
X16237467Y-10585476D01*
X16237467Y-10585476D02*
X16227943Y-10575952D01*
X16227943Y-10575952D02*
X16237467Y-10566429D01*
X16237467Y-10566429D02*
X16237467Y-10585476D01*
X16237467Y-10461667D02*
X16246990Y-10471190D01*
X16246990Y-10471190D02*
X16237467Y-10480714D01*
X16237467Y-10480714D02*
X16227943Y-10471190D01*
X16227943Y-10471190D02*
X16237467Y-10461667D01*
X16237467Y-10461667D02*
X16237467Y-10480714D01*
D10*
X14550800Y-10882000D02*
X14650800Y-10982000D01*
X14650800Y-10882000D02*
X14550800Y-10982000D01*
D11*
X15003181Y-11005476D02*
X14888895Y-11005476D01*
X14946038Y-11005476D02*
X14946038Y-10805476D01*
X14946038Y-10805476D02*
X14926990Y-10834048D01*
X14926990Y-10834048D02*
X14907943Y-10853095D01*
X14907943Y-10853095D02*
X14888895Y-10862619D01*
X15088895Y-10986429D02*
X15098419Y-10995952D01*
X15098419Y-10995952D02*
X15088895Y-11005476D01*
X15088895Y-11005476D02*
X15079371Y-10995952D01*
X15079371Y-10995952D02*
X15088895Y-10986429D01*
X15088895Y-10986429D02*
X15088895Y-11005476D01*
X15222228Y-10805476D02*
X15241276Y-10805476D01*
X15241276Y-10805476D02*
X15260324Y-10815000D01*
X15260324Y-10815000D02*
X15269848Y-10824524D01*
X15269848Y-10824524D02*
X15279371Y-10843571D01*
X15279371Y-10843571D02*
X15288895Y-10881667D01*
X15288895Y-10881667D02*
X15288895Y-10929286D01*
X15288895Y-10929286D02*
X15279371Y-10967381D01*
X15279371Y-10967381D02*
X15269848Y-10986429D01*
X15269848Y-10986429D02*
X15260324Y-10995952D01*
X15260324Y-10995952D02*
X15241276Y-11005476D01*
X15241276Y-11005476D02*
X15222228Y-11005476D01*
X15222228Y-11005476D02*
X15203181Y-10995952D01*
X15203181Y-10995952D02*
X15193657Y-10986429D01*
X15193657Y-10986429D02*
X15184133Y-10967381D01*
X15184133Y-10967381D02*
X15174609Y-10929286D01*
X15174609Y-10929286D02*
X15174609Y-10881667D01*
X15174609Y-10881667D02*
X15184133Y-10843571D01*
X15184133Y-10843571D02*
X15193657Y-10824524D01*
X15193657Y-10824524D02*
X15203181Y-10815000D01*
X15203181Y-10815000D02*
X15222228Y-10805476D01*
X15412705Y-10805476D02*
X15431752Y-10805476D01*
X15431752Y-10805476D02*
X15450800Y-10815000D01*
X15450800Y-10815000D02*
X15460324Y-10824524D01*
X15460324Y-10824524D02*
X15469848Y-10843571D01*
X15469848Y-10843571D02*
X15479371Y-10881667D01*
X15479371Y-10881667D02*
X15479371Y-10929286D01*
X15479371Y-10929286D02*
X15469848Y-10967381D01*
X15469848Y-10967381D02*
X15460324Y-10986429D01*
X15460324Y-10986429D02*
X15450800Y-10995952D01*
X15450800Y-10995952D02*
X15431752Y-11005476D01*
X15431752Y-11005476D02*
X15412705Y-11005476D01*
X15412705Y-11005476D02*
X15393657Y-10995952D01*
X15393657Y-10995952D02*
X15384133Y-10986429D01*
X15384133Y-10986429D02*
X15374609Y-10967381D01*
X15374609Y-10967381D02*
X15365086Y-10929286D01*
X15365086Y-10929286D02*
X15365086Y-10881667D01*
X15365086Y-10881667D02*
X15374609Y-10843571D01*
X15374609Y-10843571D02*
X15384133Y-10824524D01*
X15384133Y-10824524D02*
X15393657Y-10815000D01*
X15393657Y-10815000D02*
X15412705Y-10805476D01*
X15603181Y-10805476D02*
X15622229Y-10805476D01*
X15622229Y-10805476D02*
X15641276Y-10815000D01*
X15641276Y-10815000D02*
X15650800Y-10824524D01*
X15650800Y-10824524D02*
X15660324Y-10843571D01*
X15660324Y-10843571D02*
X15669848Y-10881667D01*
X15669848Y-10881667D02*
X15669848Y-10929286D01*
X15669848Y-10929286D02*
X15660324Y-10967381D01*
X15660324Y-10967381D02*
X15650800Y-10986429D01*
X15650800Y-10986429D02*
X15641276Y-10995952D01*
X15641276Y-10995952D02*
X15622229Y-11005476D01*
X15622229Y-11005476D02*
X15603181Y-11005476D01*
X15603181Y-11005476D02*
X15584133Y-10995952D01*
X15584133Y-10995952D02*
X15574609Y-10986429D01*
X15574609Y-10986429D02*
X15565086Y-10967381D01*
X15565086Y-10967381D02*
X15555562Y-10929286D01*
X15555562Y-10929286D02*
X15555562Y-10881667D01*
X15555562Y-10881667D02*
X15565086Y-10843571D01*
X15565086Y-10843571D02*
X15574609Y-10824524D01*
X15574609Y-10824524D02*
X15584133Y-10815000D01*
X15584133Y-10815000D02*
X15603181Y-10805476D01*
X15755562Y-11005476D02*
X15755562Y-10872143D01*
X15755562Y-10891190D02*
X15765086Y-10881667D01*
X15765086Y-10881667D02*
X15784133Y-10872143D01*
X15784133Y-10872143D02*
X15812705Y-10872143D01*
X15812705Y-10872143D02*
X15831752Y-10881667D01*
X15831752Y-10881667D02*
X15841276Y-10900714D01*
X15841276Y-10900714D02*
X15841276Y-11005476D01*
X15841276Y-10900714D02*
X15850800Y-10881667D01*
X15850800Y-10881667D02*
X15869848Y-10872143D01*
X15869848Y-10872143D02*
X15898419Y-10872143D01*
X15898419Y-10872143D02*
X15917467Y-10881667D01*
X15917467Y-10881667D02*
X15926990Y-10900714D01*
X15926990Y-10900714D02*
X15926990Y-11005476D01*
X16022229Y-11005476D02*
X16022229Y-10872143D01*
X16022229Y-10891190D02*
X16031752Y-10881667D01*
X16031752Y-10881667D02*
X16050800Y-10872143D01*
X16050800Y-10872143D02*
X16079371Y-10872143D01*
X16079371Y-10872143D02*
X16098419Y-10881667D01*
X16098419Y-10881667D02*
X16107943Y-10900714D01*
X16107943Y-10900714D02*
X16107943Y-11005476D01*
X16107943Y-10900714D02*
X16117467Y-10881667D01*
X16117467Y-10881667D02*
X16136514Y-10872143D01*
X16136514Y-10872143D02*
X16165086Y-10872143D01*
X16165086Y-10872143D02*
X16184133Y-10881667D01*
X16184133Y-10881667D02*
X16193657Y-10900714D01*
X16193657Y-10900714D02*
X16193657Y-11005476D01*
X16551752Y-10795952D02*
X16380324Y-11053095D01*
X16776514Y-10805476D02*
X16795562Y-10805476D01*
X16795562Y-10805476D02*
X16814610Y-10815000D01*
X16814610Y-10815000D02*
X16824133Y-10824524D01*
X16824133Y-10824524D02*
X16833657Y-10843571D01*
X16833657Y-10843571D02*
X16843181Y-10881667D01*
X16843181Y-10881667D02*
X16843181Y-10929286D01*
X16843181Y-10929286D02*
X16833657Y-10967381D01*
X16833657Y-10967381D02*
X16824133Y-10986429D01*
X16824133Y-10986429D02*
X16814610Y-10995952D01*
X16814610Y-10995952D02*
X16795562Y-11005476D01*
X16795562Y-11005476D02*
X16776514Y-11005476D01*
X16776514Y-11005476D02*
X16757467Y-10995952D01*
X16757467Y-10995952D02*
X16747943Y-10986429D01*
X16747943Y-10986429D02*
X16738419Y-10967381D01*
X16738419Y-10967381D02*
X16728895Y-10929286D01*
X16728895Y-10929286D02*
X16728895Y-10881667D01*
X16728895Y-10881667D02*
X16738419Y-10843571D01*
X16738419Y-10843571D02*
X16747943Y-10824524D01*
X16747943Y-10824524D02*
X16757467Y-10815000D01*
X16757467Y-10815000D02*
X16776514Y-10805476D01*
X16928895Y-10986429D02*
X16938419Y-10995952D01*
X16938419Y-10995952D02*
X16928895Y-11005476D01*
X16928895Y-11005476D02*
X16919372Y-10995952D01*
X16919372Y-10995952D02*
X16928895Y-10986429D01*
X16928895Y-10986429D02*
X16928895Y-11005476D01*
X17062229Y-10805476D02*
X17081276Y-10805476D01*
X17081276Y-10805476D02*
X17100324Y-10815000D01*
X17100324Y-10815000D02*
X17109848Y-10824524D01*
X17109848Y-10824524D02*
X17119372Y-10843571D01*
X17119372Y-10843571D02*
X17128895Y-10881667D01*
X17128895Y-10881667D02*
X17128895Y-10929286D01*
X17128895Y-10929286D02*
X17119372Y-10967381D01*
X17119372Y-10967381D02*
X17109848Y-10986429D01*
X17109848Y-10986429D02*
X17100324Y-10995952D01*
X17100324Y-10995952D02*
X17081276Y-11005476D01*
X17081276Y-11005476D02*
X17062229Y-11005476D01*
X17062229Y-11005476D02*
X17043181Y-10995952D01*
X17043181Y-10995952D02*
X17033657Y-10986429D01*
X17033657Y-10986429D02*
X17024133Y-10967381D01*
X17024133Y-10967381D02*
X17014610Y-10929286D01*
X17014610Y-10929286D02*
X17014610Y-10881667D01*
X17014610Y-10881667D02*
X17024133Y-10843571D01*
X17024133Y-10843571D02*
X17033657Y-10824524D01*
X17033657Y-10824524D02*
X17043181Y-10815000D01*
X17043181Y-10815000D02*
X17062229Y-10805476D01*
X17195562Y-10805476D02*
X17319372Y-10805476D01*
X17319372Y-10805476D02*
X17252705Y-10881667D01*
X17252705Y-10881667D02*
X17281276Y-10881667D01*
X17281276Y-10881667D02*
X17300324Y-10891190D01*
X17300324Y-10891190D02*
X17309848Y-10900714D01*
X17309848Y-10900714D02*
X17319372Y-10919762D01*
X17319372Y-10919762D02*
X17319372Y-10967381D01*
X17319372Y-10967381D02*
X17309848Y-10986429D01*
X17309848Y-10986429D02*
X17300324Y-10995952D01*
X17300324Y-10995952D02*
X17281276Y-11005476D01*
X17281276Y-11005476D02*
X17224133Y-11005476D01*
X17224133Y-11005476D02*
X17205086Y-10995952D01*
X17205086Y-10995952D02*
X17195562Y-10986429D01*
X17414610Y-11005476D02*
X17452705Y-11005476D01*
X17452705Y-11005476D02*
X17471753Y-10995952D01*
X17471753Y-10995952D02*
X17481276Y-10986429D01*
X17481276Y-10986429D02*
X17500324Y-10957857D01*
X17500324Y-10957857D02*
X17509848Y-10919762D01*
X17509848Y-10919762D02*
X17509848Y-10843571D01*
X17509848Y-10843571D02*
X17500324Y-10824524D01*
X17500324Y-10824524D02*
X17490800Y-10815000D01*
X17490800Y-10815000D02*
X17471753Y-10805476D01*
X17471753Y-10805476D02*
X17433657Y-10805476D01*
X17433657Y-10805476D02*
X17414610Y-10815000D01*
X17414610Y-10815000D02*
X17405086Y-10824524D01*
X17405086Y-10824524D02*
X17395562Y-10843571D01*
X17395562Y-10843571D02*
X17395562Y-10891190D01*
X17395562Y-10891190D02*
X17405086Y-10910238D01*
X17405086Y-10910238D02*
X17414610Y-10919762D01*
X17414610Y-10919762D02*
X17433657Y-10929286D01*
X17433657Y-10929286D02*
X17471753Y-10929286D01*
X17471753Y-10929286D02*
X17490800Y-10919762D01*
X17490800Y-10919762D02*
X17500324Y-10910238D01*
X17500324Y-10910238D02*
X17509848Y-10891190D01*
X17681276Y-10872143D02*
X17681276Y-11005476D01*
X17633657Y-10795952D02*
X17586038Y-10938810D01*
X17586038Y-10938810D02*
X17709848Y-10938810D01*
X17776514Y-10805476D02*
X17776514Y-10843571D01*
X17852705Y-10805476D02*
X17852705Y-10843571D01*
X18115562Y-11081667D02*
X18106038Y-11072143D01*
X18106038Y-11072143D02*
X18086991Y-11043571D01*
X18086991Y-11043571D02*
X18077467Y-11024524D01*
X18077467Y-11024524D02*
X18067943Y-10995952D01*
X18067943Y-10995952D02*
X18058419Y-10948333D01*
X18058419Y-10948333D02*
X18058419Y-10910238D01*
X18058419Y-10910238D02*
X18067943Y-10862619D01*
X18067943Y-10862619D02*
X18077467Y-10834048D01*
X18077467Y-10834048D02*
X18086991Y-10815000D01*
X18086991Y-10815000D02*
X18106038Y-10786429D01*
X18106038Y-10786429D02*
X18115562Y-10776905D01*
X18296514Y-11005476D02*
X18182229Y-11005476D01*
X18239372Y-11005476D02*
X18239372Y-10805476D01*
X18239372Y-10805476D02*
X18220324Y-10834048D01*
X18220324Y-10834048D02*
X18201276Y-10853095D01*
X18201276Y-10853095D02*
X18182229Y-10862619D01*
X18420324Y-10805476D02*
X18439372Y-10805476D01*
X18439372Y-10805476D02*
X18458419Y-10815000D01*
X18458419Y-10815000D02*
X18467943Y-10824524D01*
X18467943Y-10824524D02*
X18477467Y-10843571D01*
X18477467Y-10843571D02*
X18486991Y-10881667D01*
X18486991Y-10881667D02*
X18486991Y-10929286D01*
X18486991Y-10929286D02*
X18477467Y-10967381D01*
X18477467Y-10967381D02*
X18467943Y-10986429D01*
X18467943Y-10986429D02*
X18458419Y-10995952D01*
X18458419Y-10995952D02*
X18439372Y-11005476D01*
X18439372Y-11005476D02*
X18420324Y-11005476D01*
X18420324Y-11005476D02*
X18401276Y-10995952D01*
X18401276Y-10995952D02*
X18391753Y-10986429D01*
X18391753Y-10986429D02*
X18382229Y-10967381D01*
X18382229Y-10967381D02*
X18372705Y-10929286D01*
X18372705Y-10929286D02*
X18372705Y-10881667D01*
X18372705Y-10881667D02*
X18382229Y-10843571D01*
X18382229Y-10843571D02*
X18391753Y-10824524D01*
X18391753Y-10824524D02*
X18401276Y-10815000D01*
X18401276Y-10815000D02*
X18420324Y-10805476D01*
X18692705Y-11005476D02*
X18692705Y-10805476D01*
X18778419Y-11005476D02*
X18778419Y-10900714D01*
X18778419Y-10900714D02*
X18768895Y-10881667D01*
X18768895Y-10881667D02*
X18749848Y-10872143D01*
X18749848Y-10872143D02*
X18721276Y-10872143D01*
X18721276Y-10872143D02*
X18702229Y-10881667D01*
X18702229Y-10881667D02*
X18692705Y-10891190D01*
X18902229Y-11005476D02*
X18883181Y-10995952D01*
X18883181Y-10995952D02*
X18873657Y-10986429D01*
X18873657Y-10986429D02*
X18864134Y-10967381D01*
X18864134Y-10967381D02*
X18864134Y-10910238D01*
X18864134Y-10910238D02*
X18873657Y-10891190D01*
X18873657Y-10891190D02*
X18883181Y-10881667D01*
X18883181Y-10881667D02*
X18902229Y-10872143D01*
X18902229Y-10872143D02*
X18930800Y-10872143D01*
X18930800Y-10872143D02*
X18949848Y-10881667D01*
X18949848Y-10881667D02*
X18959372Y-10891190D01*
X18959372Y-10891190D02*
X18968895Y-10910238D01*
X18968895Y-10910238D02*
X18968895Y-10967381D01*
X18968895Y-10967381D02*
X18959372Y-10986429D01*
X18959372Y-10986429D02*
X18949848Y-10995952D01*
X18949848Y-10995952D02*
X18930800Y-11005476D01*
X18930800Y-11005476D02*
X18902229Y-11005476D01*
X19083181Y-11005476D02*
X19064134Y-10995952D01*
X19064134Y-10995952D02*
X19054610Y-10976905D01*
X19054610Y-10976905D02*
X19054610Y-10805476D01*
X19235562Y-10995952D02*
X19216515Y-11005476D01*
X19216515Y-11005476D02*
X19178419Y-11005476D01*
X19178419Y-11005476D02*
X19159372Y-10995952D01*
X19159372Y-10995952D02*
X19149848Y-10976905D01*
X19149848Y-10976905D02*
X19149848Y-10900714D01*
X19149848Y-10900714D02*
X19159372Y-10881667D01*
X19159372Y-10881667D02*
X19178419Y-10872143D01*
X19178419Y-10872143D02*
X19216515Y-10872143D01*
X19216515Y-10872143D02*
X19235562Y-10881667D01*
X19235562Y-10881667D02*
X19245086Y-10900714D01*
X19245086Y-10900714D02*
X19245086Y-10919762D01*
X19245086Y-10919762D02*
X19149848Y-10938810D01*
X19321276Y-10995952D02*
X19340324Y-11005476D01*
X19340324Y-11005476D02*
X19378419Y-11005476D01*
X19378419Y-11005476D02*
X19397467Y-10995952D01*
X19397467Y-10995952D02*
X19406991Y-10976905D01*
X19406991Y-10976905D02*
X19406991Y-10967381D01*
X19406991Y-10967381D02*
X19397467Y-10948333D01*
X19397467Y-10948333D02*
X19378419Y-10938810D01*
X19378419Y-10938810D02*
X19349848Y-10938810D01*
X19349848Y-10938810D02*
X19330800Y-10929286D01*
X19330800Y-10929286D02*
X19321276Y-10910238D01*
X19321276Y-10910238D02*
X19321276Y-10900714D01*
X19321276Y-10900714D02*
X19330800Y-10881667D01*
X19330800Y-10881667D02*
X19349848Y-10872143D01*
X19349848Y-10872143D02*
X19378419Y-10872143D01*
X19378419Y-10872143D02*
X19397467Y-10881667D01*
X19473657Y-11081667D02*
X19483181Y-11072143D01*
X19483181Y-11072143D02*
X19502229Y-11043571D01*
X19502229Y-11043571D02*
X19511753Y-11024524D01*
X19511753Y-11024524D02*
X19521276Y-10995952D01*
X19521276Y-10995952D02*
X19530800Y-10948333D01*
X19530800Y-10948333D02*
X19530800Y-10910238D01*
X19530800Y-10910238D02*
X19521276Y-10862619D01*
X19521276Y-10862619D02*
X19511753Y-10834048D01*
X19511753Y-10834048D02*
X19502229Y-10815000D01*
X19502229Y-10815000D02*
X19483181Y-10786429D01*
X19483181Y-10786429D02*
X19473657Y-10776905D01*
X14650800Y-11196000D02*
G75*
G03*
X14650800Y-11196000I-100000J0D01*
G01*
X14888895Y-11088524D02*
X14898419Y-11079000D01*
X14898419Y-11079000D02*
X14917467Y-11069476D01*
X14917467Y-11069476D02*
X14965086Y-11069476D01*
X14965086Y-11069476D02*
X14984133Y-11079000D01*
X14984133Y-11079000D02*
X14993657Y-11088524D01*
X14993657Y-11088524D02*
X15003181Y-11107571D01*
X15003181Y-11107571D02*
X15003181Y-11126619D01*
X15003181Y-11126619D02*
X14993657Y-11155190D01*
X14993657Y-11155190D02*
X14879371Y-11269476D01*
X14879371Y-11269476D02*
X15003181Y-11269476D01*
X15088895Y-11250428D02*
X15098419Y-11259952D01*
X15098419Y-11259952D02*
X15088895Y-11269476D01*
X15088895Y-11269476D02*
X15079371Y-11259952D01*
X15079371Y-11259952D02*
X15088895Y-11250428D01*
X15088895Y-11250428D02*
X15088895Y-11269476D01*
X15269848Y-11069476D02*
X15231752Y-11069476D01*
X15231752Y-11069476D02*
X15212705Y-11079000D01*
X15212705Y-11079000D02*
X15203181Y-11088524D01*
X15203181Y-11088524D02*
X15184133Y-11117095D01*
X15184133Y-11117095D02*
X15174609Y-11155190D01*
X15174609Y-11155190D02*
X15174609Y-11231381D01*
X15174609Y-11231381D02*
X15184133Y-11250428D01*
X15184133Y-11250428D02*
X15193657Y-11259952D01*
X15193657Y-11259952D02*
X15212705Y-11269476D01*
X15212705Y-11269476D02*
X15250800Y-11269476D01*
X15250800Y-11269476D02*
X15269848Y-11259952D01*
X15269848Y-11259952D02*
X15279371Y-11250428D01*
X15279371Y-11250428D02*
X15288895Y-11231381D01*
X15288895Y-11231381D02*
X15288895Y-11183762D01*
X15288895Y-11183762D02*
X15279371Y-11164714D01*
X15279371Y-11164714D02*
X15269848Y-11155190D01*
X15269848Y-11155190D02*
X15250800Y-11145667D01*
X15250800Y-11145667D02*
X15212705Y-11145667D01*
X15212705Y-11145667D02*
X15193657Y-11155190D01*
X15193657Y-11155190D02*
X15184133Y-11164714D01*
X15184133Y-11164714D02*
X15174609Y-11183762D01*
X15384133Y-11269476D02*
X15422228Y-11269476D01*
X15422228Y-11269476D02*
X15441276Y-11259952D01*
X15441276Y-11259952D02*
X15450800Y-11250428D01*
X15450800Y-11250428D02*
X15469848Y-11221857D01*
X15469848Y-11221857D02*
X15479371Y-11183762D01*
X15479371Y-11183762D02*
X15479371Y-11107571D01*
X15479371Y-11107571D02*
X15469848Y-11088524D01*
X15469848Y-11088524D02*
X15460324Y-11079000D01*
X15460324Y-11079000D02*
X15441276Y-11069476D01*
X15441276Y-11069476D02*
X15403181Y-11069476D01*
X15403181Y-11069476D02*
X15384133Y-11079000D01*
X15384133Y-11079000D02*
X15374609Y-11088524D01*
X15374609Y-11088524D02*
X15365086Y-11107571D01*
X15365086Y-11107571D02*
X15365086Y-11155190D01*
X15365086Y-11155190D02*
X15374609Y-11174238D01*
X15374609Y-11174238D02*
X15384133Y-11183762D01*
X15384133Y-11183762D02*
X15403181Y-11193286D01*
X15403181Y-11193286D02*
X15441276Y-11193286D01*
X15441276Y-11193286D02*
X15460324Y-11183762D01*
X15460324Y-11183762D02*
X15469848Y-11174238D01*
X15469848Y-11174238D02*
X15479371Y-11155190D01*
X15546038Y-11069476D02*
X15669848Y-11069476D01*
X15669848Y-11069476D02*
X15603181Y-11145667D01*
X15603181Y-11145667D02*
X15631752Y-11145667D01*
X15631752Y-11145667D02*
X15650800Y-11155190D01*
X15650800Y-11155190D02*
X15660324Y-11164714D01*
X15660324Y-11164714D02*
X15669848Y-11183762D01*
X15669848Y-11183762D02*
X15669848Y-11231381D01*
X15669848Y-11231381D02*
X15660324Y-11250428D01*
X15660324Y-11250428D02*
X15650800Y-11259952D01*
X15650800Y-11259952D02*
X15631752Y-11269476D01*
X15631752Y-11269476D02*
X15574609Y-11269476D01*
X15574609Y-11269476D02*
X15555562Y-11259952D01*
X15555562Y-11259952D02*
X15546038Y-11250428D01*
X15755562Y-11269476D02*
X15755562Y-11136143D01*
X15755562Y-11155190D02*
X15765086Y-11145667D01*
X15765086Y-11145667D02*
X15784133Y-11136143D01*
X15784133Y-11136143D02*
X15812705Y-11136143D01*
X15812705Y-11136143D02*
X15831752Y-11145667D01*
X15831752Y-11145667D02*
X15841276Y-11164714D01*
X15841276Y-11164714D02*
X15841276Y-11269476D01*
X15841276Y-11164714D02*
X15850800Y-11145667D01*
X15850800Y-11145667D02*
X15869848Y-11136143D01*
X15869848Y-11136143D02*
X15898419Y-11136143D01*
X15898419Y-11136143D02*
X15917467Y-11145667D01*
X15917467Y-11145667D02*
X15926990Y-11164714D01*
X15926990Y-11164714D02*
X15926990Y-11269476D01*
X16022229Y-11269476D02*
X16022229Y-11136143D01*
X16022229Y-11155190D02*
X16031752Y-11145667D01*
X16031752Y-11145667D02*
X16050800Y-11136143D01*
X16050800Y-11136143D02*
X16079371Y-11136143D01*
X16079371Y-11136143D02*
X16098419Y-11145667D01*
X16098419Y-11145667D02*
X16107943Y-11164714D01*
X16107943Y-11164714D02*
X16107943Y-11269476D01*
X16107943Y-11164714D02*
X16117467Y-11145667D01*
X16117467Y-11145667D02*
X16136514Y-11136143D01*
X16136514Y-11136143D02*
X16165086Y-11136143D01*
X16165086Y-11136143D02*
X16184133Y-11145667D01*
X16184133Y-11145667D02*
X16193657Y-11164714D01*
X16193657Y-11164714D02*
X16193657Y-11269476D01*
X16551752Y-11059952D02*
X16380324Y-11317095D01*
X16776514Y-11069476D02*
X16795562Y-11069476D01*
X16795562Y-11069476D02*
X16814610Y-11079000D01*
X16814610Y-11079000D02*
X16824133Y-11088524D01*
X16824133Y-11088524D02*
X16833657Y-11107571D01*
X16833657Y-11107571D02*
X16843181Y-11145667D01*
X16843181Y-11145667D02*
X16843181Y-11193286D01*
X16843181Y-11193286D02*
X16833657Y-11231381D01*
X16833657Y-11231381D02*
X16824133Y-11250428D01*
X16824133Y-11250428D02*
X16814610Y-11259952D01*
X16814610Y-11259952D02*
X16795562Y-11269476D01*
X16795562Y-11269476D02*
X16776514Y-11269476D01*
X16776514Y-11269476D02*
X16757467Y-11259952D01*
X16757467Y-11259952D02*
X16747943Y-11250428D01*
X16747943Y-11250428D02*
X16738419Y-11231381D01*
X16738419Y-11231381D02*
X16728895Y-11193286D01*
X16728895Y-11193286D02*
X16728895Y-11145667D01*
X16728895Y-11145667D02*
X16738419Y-11107571D01*
X16738419Y-11107571D02*
X16747943Y-11088524D01*
X16747943Y-11088524D02*
X16757467Y-11079000D01*
X16757467Y-11079000D02*
X16776514Y-11069476D01*
X16928895Y-11250428D02*
X16938419Y-11259952D01*
X16938419Y-11259952D02*
X16928895Y-11269476D01*
X16928895Y-11269476D02*
X16919372Y-11259952D01*
X16919372Y-11259952D02*
X16928895Y-11250428D01*
X16928895Y-11250428D02*
X16928895Y-11269476D01*
X17128895Y-11269476D02*
X17014610Y-11269476D01*
X17071752Y-11269476D02*
X17071752Y-11069476D01*
X17071752Y-11069476D02*
X17052705Y-11098048D01*
X17052705Y-11098048D02*
X17033657Y-11117095D01*
X17033657Y-11117095D02*
X17014610Y-11126619D01*
X17252705Y-11069476D02*
X17271753Y-11069476D01*
X17271753Y-11069476D02*
X17290800Y-11079000D01*
X17290800Y-11079000D02*
X17300324Y-11088524D01*
X17300324Y-11088524D02*
X17309848Y-11107571D01*
X17309848Y-11107571D02*
X17319372Y-11145667D01*
X17319372Y-11145667D02*
X17319372Y-11193286D01*
X17319372Y-11193286D02*
X17309848Y-11231381D01*
X17309848Y-11231381D02*
X17300324Y-11250428D01*
X17300324Y-11250428D02*
X17290800Y-11259952D01*
X17290800Y-11259952D02*
X17271753Y-11269476D01*
X17271753Y-11269476D02*
X17252705Y-11269476D01*
X17252705Y-11269476D02*
X17233657Y-11259952D01*
X17233657Y-11259952D02*
X17224133Y-11250428D01*
X17224133Y-11250428D02*
X17214610Y-11231381D01*
X17214610Y-11231381D02*
X17205086Y-11193286D01*
X17205086Y-11193286D02*
X17205086Y-11145667D01*
X17205086Y-11145667D02*
X17214610Y-11107571D01*
X17214610Y-11107571D02*
X17224133Y-11088524D01*
X17224133Y-11088524D02*
X17233657Y-11079000D01*
X17233657Y-11079000D02*
X17252705Y-11069476D01*
X17490800Y-11069476D02*
X17452705Y-11069476D01*
X17452705Y-11069476D02*
X17433657Y-11079000D01*
X17433657Y-11079000D02*
X17424133Y-11088524D01*
X17424133Y-11088524D02*
X17405086Y-11117095D01*
X17405086Y-11117095D02*
X17395562Y-11155190D01*
X17395562Y-11155190D02*
X17395562Y-11231381D01*
X17395562Y-11231381D02*
X17405086Y-11250428D01*
X17405086Y-11250428D02*
X17414610Y-11259952D01*
X17414610Y-11259952D02*
X17433657Y-11269476D01*
X17433657Y-11269476D02*
X17471753Y-11269476D01*
X17471753Y-11269476D02*
X17490800Y-11259952D01*
X17490800Y-11259952D02*
X17500324Y-11250428D01*
X17500324Y-11250428D02*
X17509848Y-11231381D01*
X17509848Y-11231381D02*
X17509848Y-11183762D01*
X17509848Y-11183762D02*
X17500324Y-11164714D01*
X17500324Y-11164714D02*
X17490800Y-11155190D01*
X17490800Y-11155190D02*
X17471753Y-11145667D01*
X17471753Y-11145667D02*
X17433657Y-11145667D01*
X17433657Y-11145667D02*
X17414610Y-11155190D01*
X17414610Y-11155190D02*
X17405086Y-11164714D01*
X17405086Y-11164714D02*
X17395562Y-11183762D01*
X17633657Y-11069476D02*
X17652705Y-11069476D01*
X17652705Y-11069476D02*
X17671753Y-11079000D01*
X17671753Y-11079000D02*
X17681276Y-11088524D01*
X17681276Y-11088524D02*
X17690800Y-11107571D01*
X17690800Y-11107571D02*
X17700324Y-11145667D01*
X17700324Y-11145667D02*
X17700324Y-11193286D01*
X17700324Y-11193286D02*
X17690800Y-11231381D01*
X17690800Y-11231381D02*
X17681276Y-11250428D01*
X17681276Y-11250428D02*
X17671753Y-11259952D01*
X17671753Y-11259952D02*
X17652705Y-11269476D01*
X17652705Y-11269476D02*
X17633657Y-11269476D01*
X17633657Y-11269476D02*
X17614610Y-11259952D01*
X17614610Y-11259952D02*
X17605086Y-11250428D01*
X17605086Y-11250428D02*
X17595562Y-11231381D01*
X17595562Y-11231381D02*
X17586038Y-11193286D01*
X17586038Y-11193286D02*
X17586038Y-11145667D01*
X17586038Y-11145667D02*
X17595562Y-11107571D01*
X17595562Y-11107571D02*
X17605086Y-11088524D01*
X17605086Y-11088524D02*
X17614610Y-11079000D01*
X17614610Y-11079000D02*
X17633657Y-11069476D01*
X17776514Y-11069476D02*
X17776514Y-11107571D01*
X17852705Y-11069476D02*
X17852705Y-11107571D01*
X18115562Y-11345667D02*
X18106038Y-11336143D01*
X18106038Y-11336143D02*
X18086991Y-11307571D01*
X18086991Y-11307571D02*
X18077467Y-11288524D01*
X18077467Y-11288524D02*
X18067943Y-11259952D01*
X18067943Y-11259952D02*
X18058419Y-11212333D01*
X18058419Y-11212333D02*
X18058419Y-11174238D01*
X18058419Y-11174238D02*
X18067943Y-11126619D01*
X18067943Y-11126619D02*
X18077467Y-11098048D01*
X18077467Y-11098048D02*
X18086991Y-11079000D01*
X18086991Y-11079000D02*
X18106038Y-11050429D01*
X18106038Y-11050429D02*
X18115562Y-11040905D01*
X18182229Y-11088524D02*
X18191753Y-11079000D01*
X18191753Y-11079000D02*
X18210800Y-11069476D01*
X18210800Y-11069476D02*
X18258419Y-11069476D01*
X18258419Y-11069476D02*
X18277467Y-11079000D01*
X18277467Y-11079000D02*
X18286991Y-11088524D01*
X18286991Y-11088524D02*
X18296514Y-11107571D01*
X18296514Y-11107571D02*
X18296514Y-11126619D01*
X18296514Y-11126619D02*
X18286991Y-11155190D01*
X18286991Y-11155190D02*
X18172705Y-11269476D01*
X18172705Y-11269476D02*
X18296514Y-11269476D01*
X18502229Y-11269476D02*
X18502229Y-11069476D01*
X18587943Y-11269476D02*
X18587943Y-11164714D01*
X18587943Y-11164714D02*
X18578419Y-11145667D01*
X18578419Y-11145667D02*
X18559372Y-11136143D01*
X18559372Y-11136143D02*
X18530800Y-11136143D01*
X18530800Y-11136143D02*
X18511753Y-11145667D01*
X18511753Y-11145667D02*
X18502229Y-11155190D01*
X18711753Y-11269476D02*
X18692705Y-11259952D01*
X18692705Y-11259952D02*
X18683181Y-11250428D01*
X18683181Y-11250428D02*
X18673657Y-11231381D01*
X18673657Y-11231381D02*
X18673657Y-11174238D01*
X18673657Y-11174238D02*
X18683181Y-11155190D01*
X18683181Y-11155190D02*
X18692705Y-11145667D01*
X18692705Y-11145667D02*
X18711753Y-11136143D01*
X18711753Y-11136143D02*
X18740324Y-11136143D01*
X18740324Y-11136143D02*
X18759372Y-11145667D01*
X18759372Y-11145667D02*
X18768895Y-11155190D01*
X18768895Y-11155190D02*
X18778419Y-11174238D01*
X18778419Y-11174238D02*
X18778419Y-11231381D01*
X18778419Y-11231381D02*
X18768895Y-11250428D01*
X18768895Y-11250428D02*
X18759372Y-11259952D01*
X18759372Y-11259952D02*
X18740324Y-11269476D01*
X18740324Y-11269476D02*
X18711753Y-11269476D01*
X18892705Y-11269476D02*
X18873657Y-11259952D01*
X18873657Y-11259952D02*
X18864134Y-11240905D01*
X18864134Y-11240905D02*
X18864134Y-11069476D01*
X19045086Y-11259952D02*
X19026038Y-11269476D01*
X19026038Y-11269476D02*
X18987943Y-11269476D01*
X18987943Y-11269476D02*
X18968895Y-11259952D01*
X18968895Y-11259952D02*
X18959372Y-11240905D01*
X18959372Y-11240905D02*
X18959372Y-11164714D01*
X18959372Y-11164714D02*
X18968895Y-11145667D01*
X18968895Y-11145667D02*
X18987943Y-11136143D01*
X18987943Y-11136143D02*
X19026038Y-11136143D01*
X19026038Y-11136143D02*
X19045086Y-11145667D01*
X19045086Y-11145667D02*
X19054610Y-11164714D01*
X19054610Y-11164714D02*
X19054610Y-11183762D01*
X19054610Y-11183762D02*
X18959372Y-11202809D01*
X19130800Y-11259952D02*
X19149848Y-11269476D01*
X19149848Y-11269476D02*
X19187943Y-11269476D01*
X19187943Y-11269476D02*
X19206991Y-11259952D01*
X19206991Y-11259952D02*
X19216515Y-11240905D01*
X19216515Y-11240905D02*
X19216515Y-11231381D01*
X19216515Y-11231381D02*
X19206991Y-11212333D01*
X19206991Y-11212333D02*
X19187943Y-11202809D01*
X19187943Y-11202809D02*
X19159372Y-11202809D01*
X19159372Y-11202809D02*
X19140324Y-11193286D01*
X19140324Y-11193286D02*
X19130800Y-11174238D01*
X19130800Y-11174238D02*
X19130800Y-11164714D01*
X19130800Y-11164714D02*
X19140324Y-11145667D01*
X19140324Y-11145667D02*
X19159372Y-11136143D01*
X19159372Y-11136143D02*
X19187943Y-11136143D01*
X19187943Y-11136143D02*
X19206991Y-11145667D01*
X19283181Y-11345667D02*
X19292705Y-11336143D01*
X19292705Y-11336143D02*
X19311753Y-11307571D01*
X19311753Y-11307571D02*
X19321276Y-11288524D01*
X19321276Y-11288524D02*
X19330800Y-11259952D01*
X19330800Y-11259952D02*
X19340324Y-11212333D01*
X19340324Y-11212333D02*
X19340324Y-11174238D01*
X19340324Y-11174238D02*
X19330800Y-11126619D01*
X19330800Y-11126619D02*
X19321276Y-11098048D01*
X19321276Y-11098048D02*
X19311753Y-11079000D01*
X19311753Y-11079000D02*
X19292705Y-11050429D01*
X19292705Y-11050429D02*
X19283181Y-11040905D01*
M02*
