%TF.GenerationSoftware,KiCad,Pcbnew,7.0.0-da2b9df05c~163~ubuntu22.04.1*%
%TF.CreationDate,2023-02-20T00:02:51+00:00*%
%TF.ProjectId,levelshifter,6c657665-6c73-4686-9966-7465722e6b69,rev?*%
%TF.SameCoordinates,Original*%
%TF.FileFunction,Copper,L2,Bot*%
%TF.FilePolarity,Positive*%
%FSLAX46Y46*%
G04 Gerber Fmt 4.6, Leading zero omitted, Abs format (unit mm)*
G04 Created by KiCad (PCBNEW 7.0.0-da2b9df05c~163~ubuntu22.04.1) date 2023-02-20 00:02:51*
%MOMM*%
%LPD*%
G01*
G04 APERTURE LIST*
%TA.AperFunction,ComponentPad*%
%ADD10C,3.438000*%
%TD*%
%TA.AperFunction,ComponentPad*%
%ADD11C,3.800000*%
%TD*%
%TA.AperFunction,ViaPad*%
%ADD12C,0.800000*%
%TD*%
%TA.AperFunction,Conductor*%
%ADD13C,0.750000*%
%TD*%
G04 APERTURE END LIST*
D10*
%TO.P,J2,MH1,MH1*%
%TO.N,GND*%
X163186500Y-97276000D03*
%TO.P,J2,MH2,MH2*%
X163186500Y-83676000D03*
%TD*%
D11*
%TO.P,J1,10,10*%
%TO.N,GND*%
X136477000Y-84750000D03*
%TO.P,J1,11,11*%
X136477000Y-96450000D03*
%TD*%
D12*
%TO.N,GND*%
X152400000Y-95758000D03*
%TO.N,/V5*%
X146050002Y-93726000D03*
X151638000Y-93726000D03*
%TO.N,GND*%
X144272025Y-90106573D03*
X152908000Y-89916000D03*
%TO.N,/V5*%
X141474054Y-93722054D03*
X155448000Y-94234000D03*
%TO.N,GND*%
X148330000Y-81332000D03*
%TD*%
D13*
%TO.N,/V5*%
X151638000Y-93726000D02*
X154940000Y-93726000D01*
X141478000Y-93726000D02*
X141474054Y-93722054D01*
X150622000Y-93726000D02*
X141478000Y-93726000D01*
X150622000Y-93726000D02*
X151638000Y-93726000D01*
X154940000Y-93726000D02*
X155448000Y-94234000D01*
%TD*%
%TA.AperFunction,Conductor*%
%TO.N,GND*%
G36*
X169937500Y-76017113D02*
G01*
X169982887Y-76062500D01*
X169999500Y-76124500D01*
X169999500Y-104875500D01*
X169982887Y-104937500D01*
X169937500Y-104982887D01*
X169875500Y-104999500D01*
X134124500Y-104999500D01*
X134062500Y-104982887D01*
X134017113Y-104937500D01*
X134000500Y-104875500D01*
X134000500Y-102300000D01*
X135344341Y-102300000D01*
X135364937Y-102535408D01*
X135366336Y-102540630D01*
X135366337Y-102540634D01*
X135424694Y-102758430D01*
X135424697Y-102758438D01*
X135426097Y-102763663D01*
X135525965Y-102977829D01*
X135661505Y-103171401D01*
X135828599Y-103338495D01*
X136022171Y-103474035D01*
X136236337Y-103573903D01*
X136464592Y-103635063D01*
X136641034Y-103650500D01*
X136756258Y-103650500D01*
X136758966Y-103650500D01*
X136935408Y-103635063D01*
X137163663Y-103573903D01*
X137377829Y-103474035D01*
X137571401Y-103338495D01*
X137738495Y-103171401D01*
X137874035Y-102977830D01*
X137973903Y-102763663D01*
X138035063Y-102535408D01*
X138055659Y-102300000D01*
X166044341Y-102300000D01*
X166064937Y-102535408D01*
X166066336Y-102540630D01*
X166066337Y-102540634D01*
X166124694Y-102758430D01*
X166124697Y-102758438D01*
X166126097Y-102763663D01*
X166225965Y-102977829D01*
X166361505Y-103171401D01*
X166528599Y-103338495D01*
X166722171Y-103474035D01*
X166936337Y-103573903D01*
X167164592Y-103635063D01*
X167341034Y-103650500D01*
X167456258Y-103650500D01*
X167458966Y-103650500D01*
X167635408Y-103635063D01*
X167863663Y-103573903D01*
X168077829Y-103474035D01*
X168271401Y-103338495D01*
X168438495Y-103171401D01*
X168574035Y-102977830D01*
X168673903Y-102763663D01*
X168735063Y-102535408D01*
X168755659Y-102300000D01*
X168735063Y-102064592D01*
X168673903Y-101836337D01*
X168574035Y-101622171D01*
X168438495Y-101428599D01*
X168271401Y-101261505D01*
X168077829Y-101125965D01*
X167863663Y-101026097D01*
X167858438Y-101024697D01*
X167858430Y-101024694D01*
X167640634Y-100966337D01*
X167640630Y-100966336D01*
X167635408Y-100964937D01*
X167630020Y-100964465D01*
X167630017Y-100964465D01*
X167461664Y-100949736D01*
X167461662Y-100949735D01*
X167458966Y-100949500D01*
X167341034Y-100949500D01*
X167338338Y-100949735D01*
X167338335Y-100949736D01*
X167169982Y-100964465D01*
X167169977Y-100964465D01*
X167164592Y-100964937D01*
X167159371Y-100966335D01*
X167159365Y-100966337D01*
X166941569Y-101024694D01*
X166941557Y-101024698D01*
X166936337Y-101026097D01*
X166931432Y-101028383D01*
X166931427Y-101028386D01*
X166727081Y-101123675D01*
X166727077Y-101123677D01*
X166722171Y-101125965D01*
X166717738Y-101129068D01*
X166717731Y-101129073D01*
X166533034Y-101258399D01*
X166533029Y-101258402D01*
X166528599Y-101261505D01*
X166524775Y-101265328D01*
X166524769Y-101265334D01*
X166365336Y-101424767D01*
X166365330Y-101424773D01*
X166361505Y-101428599D01*
X166358406Y-101433023D01*
X166358399Y-101433033D01*
X166229066Y-101617740D01*
X166229061Y-101617747D01*
X166225965Y-101622170D01*
X166223683Y-101627061D01*
X166223678Y-101627072D01*
X166128386Y-101831427D01*
X166128383Y-101831432D01*
X166126097Y-101836337D01*
X166124698Y-101841557D01*
X166124694Y-101841569D01*
X166066337Y-102059365D01*
X166066335Y-102059371D01*
X166064937Y-102064592D01*
X166044341Y-102300000D01*
X138055659Y-102300000D01*
X138035063Y-102064592D01*
X137973903Y-101836337D01*
X137874035Y-101622171D01*
X137738495Y-101428599D01*
X137571401Y-101261505D01*
X137377829Y-101125965D01*
X137163663Y-101026097D01*
X137158438Y-101024697D01*
X137158430Y-101024694D01*
X136940634Y-100966337D01*
X136940630Y-100966336D01*
X136935408Y-100964937D01*
X136930020Y-100964465D01*
X136930017Y-100964465D01*
X136761664Y-100949736D01*
X136761662Y-100949735D01*
X136758966Y-100949500D01*
X136641034Y-100949500D01*
X136638338Y-100949735D01*
X136638335Y-100949736D01*
X136469982Y-100964465D01*
X136469977Y-100964465D01*
X136464592Y-100964937D01*
X136459371Y-100966335D01*
X136459365Y-100966337D01*
X136241569Y-101024694D01*
X136241557Y-101024698D01*
X136236337Y-101026097D01*
X136231432Y-101028383D01*
X136231427Y-101028386D01*
X136027081Y-101123675D01*
X136027077Y-101123677D01*
X136022171Y-101125965D01*
X136017738Y-101129068D01*
X136017731Y-101129073D01*
X135833034Y-101258399D01*
X135833029Y-101258402D01*
X135828599Y-101261505D01*
X135824775Y-101265328D01*
X135824769Y-101265334D01*
X135665336Y-101424767D01*
X135665330Y-101424773D01*
X135661505Y-101428599D01*
X135658406Y-101433023D01*
X135658399Y-101433033D01*
X135529066Y-101617740D01*
X135529061Y-101617747D01*
X135525965Y-101622170D01*
X135523683Y-101627061D01*
X135523678Y-101627072D01*
X135428386Y-101831427D01*
X135428383Y-101831432D01*
X135426097Y-101836337D01*
X135424698Y-101841557D01*
X135424694Y-101841569D01*
X135366337Y-102059365D01*
X135366335Y-102059371D01*
X135364937Y-102064592D01*
X135344341Y-102300000D01*
X134000500Y-102300000D01*
X134000500Y-99013451D01*
X161807783Y-99013451D01*
X161815215Y-99024842D01*
X161829701Y-99037545D01*
X161836141Y-99042487D01*
X162071246Y-99199580D01*
X162078260Y-99203629D01*
X162331853Y-99328686D01*
X162339354Y-99331794D01*
X162607103Y-99422683D01*
X162614931Y-99424780D01*
X162892258Y-99479943D01*
X162900294Y-99481001D01*
X163182442Y-99499495D01*
X163190558Y-99499495D01*
X163472705Y-99481001D01*
X163480741Y-99479943D01*
X163758068Y-99424780D01*
X163765896Y-99422683D01*
X164033645Y-99331794D01*
X164041146Y-99328686D01*
X164294739Y-99203629D01*
X164301753Y-99199580D01*
X164536859Y-99042486D01*
X164543296Y-99037547D01*
X164557782Y-99024843D01*
X164565215Y-99013451D01*
X164558540Y-99001593D01*
X163198042Y-97641095D01*
X163186500Y-97634431D01*
X163174957Y-97641095D01*
X161814457Y-99001594D01*
X161807783Y-99013451D01*
X134000500Y-99013451D01*
X134000500Y-98316704D01*
X134967167Y-98316704D01*
X134974438Y-98324887D01*
X135185320Y-98478102D01*
X135191891Y-98482272D01*
X135449694Y-98624000D01*
X135456733Y-98627313D01*
X135730270Y-98735613D01*
X135737665Y-98738016D01*
X136022625Y-98811182D01*
X136030256Y-98812637D01*
X136322140Y-98849511D01*
X136329899Y-98850000D01*
X136624101Y-98850000D01*
X136631859Y-98849511D01*
X136923743Y-98812637D01*
X136931374Y-98811182D01*
X137216334Y-98738016D01*
X137223729Y-98735613D01*
X137497266Y-98627313D01*
X137504305Y-98624000D01*
X137762108Y-98482272D01*
X137768678Y-98478102D01*
X137979560Y-98324887D01*
X137986831Y-98316704D01*
X137980927Y-98307480D01*
X136488542Y-96815095D01*
X136477000Y-96808431D01*
X136465457Y-96815095D01*
X134973071Y-98307480D01*
X134967167Y-98316704D01*
X134000500Y-98316704D01*
X134000500Y-97376863D01*
X134018977Y-97311741D01*
X134068902Y-97266026D01*
X134135396Y-97253343D01*
X134198643Y-97277471D01*
X134239794Y-97331220D01*
X134242781Y-97338765D01*
X134368050Y-97604976D01*
X134371792Y-97611782D01*
X134529430Y-97860181D01*
X134534006Y-97866479D01*
X134601273Y-97947790D01*
X134612575Y-97955558D01*
X134624557Y-97948888D01*
X136111904Y-96461542D01*
X136118568Y-96450000D01*
X136835431Y-96450000D01*
X136842095Y-96461542D01*
X138329441Y-97948888D01*
X138341424Y-97955558D01*
X138352723Y-97947793D01*
X138419997Y-97866474D01*
X138424568Y-97860182D01*
X138582207Y-97611782D01*
X138585949Y-97604976D01*
X138711218Y-97338765D01*
X138714078Y-97331541D01*
X138730806Y-97280058D01*
X160963005Y-97280058D01*
X160981498Y-97562205D01*
X160982556Y-97570241D01*
X161037719Y-97847568D01*
X161039816Y-97855396D01*
X161130705Y-98123145D01*
X161133813Y-98130646D01*
X161258870Y-98384239D01*
X161262919Y-98391253D01*
X161420016Y-98626364D01*
X161424948Y-98632791D01*
X161437655Y-98647281D01*
X161449048Y-98654715D01*
X161460904Y-98648041D01*
X162821404Y-97287542D01*
X162828068Y-97276000D01*
X162828067Y-97275999D01*
X163544931Y-97275999D01*
X163551595Y-97287542D01*
X164912093Y-98648040D01*
X164923951Y-98654715D01*
X164935343Y-98647282D01*
X164948047Y-98632796D01*
X164952986Y-98626359D01*
X165110080Y-98391253D01*
X165114129Y-98384239D01*
X165239186Y-98130646D01*
X165242294Y-98123145D01*
X165333183Y-97855396D01*
X165335280Y-97847568D01*
X165390443Y-97570241D01*
X165391501Y-97562205D01*
X165409995Y-97280058D01*
X165409995Y-97271942D01*
X165391501Y-96989794D01*
X165390443Y-96981758D01*
X165335280Y-96704431D01*
X165333183Y-96696603D01*
X165242292Y-96428850D01*
X165239190Y-96421360D01*
X165114128Y-96167759D01*
X165110079Y-96160745D01*
X164952987Y-95925641D01*
X164948045Y-95919201D01*
X164935342Y-95904715D01*
X164923951Y-95897283D01*
X164912094Y-95903957D01*
X163551595Y-97264457D01*
X163544931Y-97275999D01*
X162828067Y-97275999D01*
X162821404Y-97264457D01*
X161460903Y-95903956D01*
X161449048Y-95897283D01*
X161437655Y-95904717D01*
X161424941Y-95919215D01*
X161420021Y-95925627D01*
X161262920Y-96160745D01*
X161258871Y-96167759D01*
X161133809Y-96421360D01*
X161130707Y-96428850D01*
X161039816Y-96696603D01*
X161037719Y-96704431D01*
X160982556Y-96981758D01*
X160981498Y-96989794D01*
X160963005Y-97271942D01*
X160963005Y-97280058D01*
X138730806Y-97280058D01*
X138804990Y-97051745D01*
X138806926Y-97044206D01*
X138862053Y-96755220D01*
X138863027Y-96747500D01*
X138881500Y-96453894D01*
X138881500Y-96446106D01*
X138863027Y-96152499D01*
X138862053Y-96144779D01*
X138806926Y-95855793D01*
X138804990Y-95848254D01*
X138714078Y-95568458D01*
X138711218Y-95561234D01*
X138700543Y-95538548D01*
X161807783Y-95538548D01*
X161814456Y-95550403D01*
X163174957Y-96910904D01*
X163186500Y-96917568D01*
X163198042Y-96910904D01*
X164558541Y-95550404D01*
X164565215Y-95538548D01*
X164557781Y-95527155D01*
X164543291Y-95514448D01*
X164536864Y-95509516D01*
X164301753Y-95352419D01*
X164294739Y-95348370D01*
X164041146Y-95223313D01*
X164033640Y-95220203D01*
X163872052Y-95165352D01*
X163816834Y-95127535D01*
X163789312Y-95066529D01*
X163797505Y-95000105D01*
X163839023Y-94947616D01*
X164012578Y-94821522D01*
X164168132Y-94658825D01*
X164292135Y-94470968D01*
X164380603Y-94263988D01*
X164430691Y-94044537D01*
X164440790Y-93819670D01*
X164410575Y-93596613D01*
X164365842Y-93458940D01*
X164342738Y-93387832D01*
X164342737Y-93387829D01*
X164341017Y-93382536D01*
X164242533Y-93199522D01*
X164236987Y-93189215D01*
X164236985Y-93189212D01*
X164234352Y-93184319D01*
X164165377Y-93097828D01*
X164097477Y-93012684D01*
X164094008Y-93008334D01*
X163924496Y-92860235D01*
X163919718Y-92857380D01*
X163919715Y-92857378D01*
X163736045Y-92747641D01*
X163736040Y-92747638D01*
X163731264Y-92744785D01*
X163726047Y-92742827D01*
X163525739Y-92667650D01*
X163525736Y-92667649D01*
X163520524Y-92665693D01*
X163515046Y-92664698D01*
X163515043Y-92664698D01*
X163304530Y-92626495D01*
X163304529Y-92626494D01*
X163299047Y-92625500D01*
X163130345Y-92625500D01*
X163127597Y-92625747D01*
X163127581Y-92625748D01*
X162967860Y-92640123D01*
X162967852Y-92640124D01*
X162962312Y-92640623D01*
X162956948Y-92642103D01*
X162956939Y-92642105D01*
X162750701Y-92699024D01*
X162750694Y-92699026D01*
X162745330Y-92700507D01*
X162740312Y-92702923D01*
X162740308Y-92702925D01*
X162547548Y-92795752D01*
X162547539Y-92795757D01*
X162542527Y-92798171D01*
X162538025Y-92801441D01*
X162538018Y-92801446D01*
X162364929Y-92927203D01*
X162364925Y-92927205D01*
X162360422Y-92930478D01*
X162356583Y-92934492D01*
X162356574Y-92934501D01*
X162208718Y-93089147D01*
X162208712Y-93089154D01*
X162204868Y-93093175D01*
X162201799Y-93097823D01*
X162201796Y-93097828D01*
X162083935Y-93276380D01*
X162083931Y-93276386D01*
X162080865Y-93281032D01*
X162078678Y-93286148D01*
X162078673Y-93286158D01*
X161994588Y-93482884D01*
X161994585Y-93482892D01*
X161992397Y-93488012D01*
X161991157Y-93493441D01*
X161991156Y-93493447D01*
X161955310Y-93650500D01*
X161942309Y-93707463D01*
X161942059Y-93713019D01*
X161942058Y-93713030D01*
X161937020Y-93825230D01*
X161932210Y-93932330D01*
X161932955Y-93937833D01*
X161932956Y-93937844D01*
X161961677Y-94149867D01*
X161962425Y-94155387D01*
X161964144Y-94160680D01*
X161964146Y-94160685D01*
X162030261Y-94364167D01*
X162030264Y-94364175D01*
X162031983Y-94369464D01*
X162034621Y-94374366D01*
X162136012Y-94562784D01*
X162136016Y-94562790D01*
X162138648Y-94567681D01*
X162142112Y-94572025D01*
X162142115Y-94572029D01*
X162258048Y-94717403D01*
X162278992Y-94743666D01*
X162448504Y-94891765D01*
X162453283Y-94894620D01*
X162453284Y-94894621D01*
X162529173Y-94939962D01*
X162576502Y-94990995D01*
X162588883Y-95059486D01*
X162562413Y-95123858D01*
X162505433Y-95163829D01*
X162339350Y-95220207D01*
X162331860Y-95223309D01*
X162078259Y-95348371D01*
X162071245Y-95352420D01*
X161836127Y-95509521D01*
X161829715Y-95514441D01*
X161815217Y-95527155D01*
X161807783Y-95538548D01*
X138700543Y-95538548D01*
X138585949Y-95295023D01*
X138582207Y-95288217D01*
X138424569Y-95039818D01*
X138419993Y-95033520D01*
X138352725Y-94952208D01*
X138341423Y-94944440D01*
X138329441Y-94951110D01*
X136842095Y-96438457D01*
X136835431Y-96450000D01*
X136118568Y-96450000D01*
X136111904Y-96438457D01*
X134624558Y-94951111D01*
X134612574Y-94944441D01*
X134601273Y-94952208D01*
X134534001Y-95033526D01*
X134529434Y-95039812D01*
X134371792Y-95288217D01*
X134368050Y-95295023D01*
X134242781Y-95561234D01*
X134239794Y-95568780D01*
X134198643Y-95622529D01*
X134135396Y-95646657D01*
X134068902Y-95633974D01*
X134018977Y-95588259D01*
X134000500Y-95523137D01*
X134000500Y-94583295D01*
X134967167Y-94583295D01*
X134973073Y-94592520D01*
X136465457Y-96084904D01*
X136477000Y-96091568D01*
X136488542Y-96084904D01*
X137980927Y-94592518D01*
X137986831Y-94583294D01*
X137979560Y-94575111D01*
X137768679Y-94421897D01*
X137762108Y-94417727D01*
X137504305Y-94275999D01*
X137497266Y-94272686D01*
X137223729Y-94164386D01*
X137216334Y-94161983D01*
X136931374Y-94088817D01*
X136923743Y-94087362D01*
X136631859Y-94050488D01*
X136624101Y-94050000D01*
X136329899Y-94050000D01*
X136322140Y-94050488D01*
X136030256Y-94087362D01*
X136022625Y-94088817D01*
X135737665Y-94161983D01*
X135730270Y-94164386D01*
X135456733Y-94272686D01*
X135449694Y-94275999D01*
X135191899Y-94417723D01*
X135185309Y-94421905D01*
X134974441Y-94575109D01*
X134967167Y-94583295D01*
X134000500Y-94583295D01*
X134000500Y-93722054D01*
X140568594Y-93722054D01*
X140569273Y-93728514D01*
X140587700Y-93903849D01*
X140587701Y-93903857D01*
X140588380Y-93910310D01*
X140590385Y-93916482D01*
X140590387Y-93916489D01*
X140634484Y-94052204D01*
X140646875Y-94090338D01*
X140650122Y-94095962D01*
X140650123Y-94095964D01*
X140689626Y-94164386D01*
X140741521Y-94254270D01*
X140745865Y-94259095D01*
X140745867Y-94259097D01*
X140758103Y-94272686D01*
X140868183Y-94394942D01*
X140873441Y-94398762D01*
X140873442Y-94398763D01*
X140905778Y-94422256D01*
X141021324Y-94506205D01*
X141194251Y-94583198D01*
X141379408Y-94622554D01*
X141562197Y-94622554D01*
X141568700Y-94622554D01*
X141655002Y-94604209D01*
X141680783Y-94601500D01*
X145824708Y-94601500D01*
X145850488Y-94604209D01*
X145955356Y-94626500D01*
X146138145Y-94626500D01*
X146144648Y-94626500D01*
X146249515Y-94604209D01*
X146275296Y-94601500D01*
X150526784Y-94601500D01*
X150669465Y-94601500D01*
X151412706Y-94601500D01*
X151438486Y-94604209D01*
X151543354Y-94626500D01*
X151726143Y-94626500D01*
X151732646Y-94626500D01*
X151837513Y-94604209D01*
X151863294Y-94601500D01*
X154525994Y-94601500D01*
X154573447Y-94610939D01*
X154613675Y-94637819D01*
X154667579Y-94691723D01*
X154687284Y-94717402D01*
X154715467Y-94766216D01*
X154719811Y-94771041D01*
X154719813Y-94771043D01*
X154765265Y-94821522D01*
X154842129Y-94906888D01*
X154995270Y-95018151D01*
X155168197Y-95095144D01*
X155353354Y-95134500D01*
X155536143Y-95134500D01*
X155542646Y-95134500D01*
X155727803Y-95095144D01*
X155900730Y-95018151D01*
X156053871Y-94906888D01*
X156180533Y-94766216D01*
X156275179Y-94602284D01*
X156333674Y-94422256D01*
X156353460Y-94234000D01*
X156338048Y-94087362D01*
X156334353Y-94052204D01*
X156334352Y-94052203D01*
X156333674Y-94045744D01*
X156275179Y-93865716D01*
X156180533Y-93701784D01*
X156134004Y-93650109D01*
X156058220Y-93565942D01*
X156058219Y-93565941D01*
X156053871Y-93561112D01*
X156048613Y-93557292D01*
X156048611Y-93557290D01*
X155913243Y-93458940D01*
X155898447Y-93446303D01*
X155587793Y-93135649D01*
X155580966Y-93128243D01*
X155549985Y-93091769D01*
X155545631Y-93086643D01*
X155480591Y-93037201D01*
X155477961Y-93035144D01*
X155419541Y-92988184D01*
X155419533Y-92988178D01*
X155414297Y-92983970D01*
X155408275Y-92980983D01*
X155403864Y-92978164D01*
X155399381Y-92975467D01*
X155394029Y-92971398D01*
X155383638Y-92966590D01*
X155319897Y-92937100D01*
X155316871Y-92935650D01*
X155249715Y-92902345D01*
X155249710Y-92902343D01*
X155243693Y-92899359D01*
X155237176Y-92897738D01*
X155232247Y-92895927D01*
X155227290Y-92894256D01*
X155221197Y-92891438D01*
X155214642Y-92889995D01*
X155214639Y-92889994D01*
X155141412Y-92873875D01*
X155138145Y-92873109D01*
X155065415Y-92855022D01*
X155065406Y-92855020D01*
X155058889Y-92853400D01*
X155052172Y-92853217D01*
X155046942Y-92852505D01*
X155041774Y-92851943D01*
X155035216Y-92850500D01*
X155028497Y-92850500D01*
X154953537Y-92850500D01*
X154950179Y-92850455D01*
X154875247Y-92848425D01*
X154868527Y-92848243D01*
X154861920Y-92849510D01*
X154855226Y-92850056D01*
X154855182Y-92849527D01*
X154844977Y-92850500D01*
X151863294Y-92850500D01*
X151837513Y-92847790D01*
X151739008Y-92826852D01*
X151739005Y-92826851D01*
X151732646Y-92825500D01*
X151543354Y-92825500D01*
X151536995Y-92826851D01*
X151536991Y-92826852D01*
X151438487Y-92847790D01*
X151412706Y-92850500D01*
X150717216Y-92850500D01*
X146275296Y-92850500D01*
X146249515Y-92847790D01*
X146151010Y-92826852D01*
X146151007Y-92826851D01*
X146144648Y-92825500D01*
X145955356Y-92825500D01*
X145948997Y-92826851D01*
X145948993Y-92826852D01*
X145850489Y-92847790D01*
X145824708Y-92850500D01*
X141717912Y-92850500D01*
X141692131Y-92847790D01*
X141575062Y-92822906D01*
X141575059Y-92822905D01*
X141568700Y-92821554D01*
X141379408Y-92821554D01*
X141373049Y-92822905D01*
X141373045Y-92822906D01*
X141200613Y-92859557D01*
X141200606Y-92859559D01*
X141194251Y-92860910D01*
X141188316Y-92863552D01*
X141188308Y-92863555D01*
X141027261Y-92935259D01*
X141027256Y-92935261D01*
X141021324Y-92937903D01*
X141016070Y-92941719D01*
X141016065Y-92941723D01*
X140873442Y-93045344D01*
X140873435Y-93045349D01*
X140868183Y-93049166D01*
X140863838Y-93053991D01*
X140863833Y-93053996D01*
X140745867Y-93185010D01*
X140745862Y-93185016D01*
X140741521Y-93189838D01*
X140738276Y-93195458D01*
X140738272Y-93195464D01*
X140650123Y-93348143D01*
X140650120Y-93348148D01*
X140646875Y-93353770D01*
X140644869Y-93359942D01*
X140644867Y-93359948D01*
X140590387Y-93527618D01*
X140590385Y-93527627D01*
X140588380Y-93533798D01*
X140587702Y-93540248D01*
X140587700Y-93540258D01*
X140576114Y-93650500D01*
X140568594Y-93722054D01*
X134000500Y-93722054D01*
X134000500Y-92850000D01*
X135671435Y-92850000D01*
X135672215Y-92856923D01*
X135686529Y-92983970D01*
X135691632Y-93029255D01*
X135693928Y-93035819D01*
X135693930Y-93035824D01*
X135744369Y-93179970D01*
X135751211Y-93199522D01*
X135847184Y-93352262D01*
X135974738Y-93479816D01*
X136127478Y-93575789D01*
X136297745Y-93635368D01*
X136432046Y-93650500D01*
X136518470Y-93650500D01*
X136521954Y-93650500D01*
X136656255Y-93635368D01*
X136826522Y-93575789D01*
X136979262Y-93479816D01*
X137106816Y-93352262D01*
X137202789Y-93199522D01*
X137262368Y-93029255D01*
X137282565Y-92850000D01*
X137262368Y-92670745D01*
X137202789Y-92500478D01*
X137106816Y-92347738D01*
X136979262Y-92220184D01*
X136826522Y-92124211D01*
X136819959Y-92121914D01*
X136819956Y-92121913D01*
X136662825Y-92066931D01*
X136656255Y-92064632D01*
X136649333Y-92063852D01*
X136525418Y-92049890D01*
X136525412Y-92049889D01*
X136521954Y-92049500D01*
X136432046Y-92049500D01*
X136428588Y-92049889D01*
X136428581Y-92049890D01*
X136304666Y-92063852D01*
X136304664Y-92063852D01*
X136297745Y-92064632D01*
X136291176Y-92066930D01*
X136291174Y-92066931D01*
X136134043Y-92121913D01*
X136134036Y-92121915D01*
X136127478Y-92124211D01*
X136121590Y-92127910D01*
X136121587Y-92127912D01*
X135980638Y-92216476D01*
X135980633Y-92216479D01*
X135974738Y-92220184D01*
X135969813Y-92225108D01*
X135969809Y-92225112D01*
X135852112Y-92342809D01*
X135852108Y-92342813D01*
X135847184Y-92347738D01*
X135843479Y-92353633D01*
X135843476Y-92353638D01*
X135754912Y-92494587D01*
X135754910Y-92494590D01*
X135751211Y-92500478D01*
X135748915Y-92507036D01*
X135748913Y-92507043D01*
X135693930Y-92664175D01*
X135693928Y-92664182D01*
X135691632Y-92670745D01*
X135690852Y-92677662D01*
X135690852Y-92677665D01*
X135688006Y-92702925D01*
X135671435Y-92850000D01*
X134000500Y-92850000D01*
X134000500Y-88350000D01*
X135671435Y-88350000D01*
X135691632Y-88529255D01*
X135693928Y-88535819D01*
X135693930Y-88535824D01*
X135748913Y-88692956D01*
X135751211Y-88699522D01*
X135847184Y-88852262D01*
X135974738Y-88979816D01*
X136127478Y-89075789D01*
X136297745Y-89135368D01*
X136432046Y-89150500D01*
X136518470Y-89150500D01*
X136521954Y-89150500D01*
X136656255Y-89135368D01*
X136826522Y-89075789D01*
X136979262Y-88979816D01*
X137106816Y-88852262D01*
X137202789Y-88699522D01*
X137262368Y-88529255D01*
X137282565Y-88350000D01*
X137262368Y-88170745D01*
X137202789Y-88000478D01*
X137106816Y-87847738D01*
X136979262Y-87720184D01*
X136826522Y-87624211D01*
X136819959Y-87621914D01*
X136819956Y-87621913D01*
X136662825Y-87566931D01*
X136656255Y-87564632D01*
X136649333Y-87563852D01*
X136525418Y-87549890D01*
X136525412Y-87549889D01*
X136521954Y-87549500D01*
X136432046Y-87549500D01*
X136428588Y-87549889D01*
X136428581Y-87549890D01*
X136304666Y-87563852D01*
X136304664Y-87563852D01*
X136297745Y-87564632D01*
X136291176Y-87566930D01*
X136291174Y-87566931D01*
X136134043Y-87621913D01*
X136134036Y-87621915D01*
X136127478Y-87624211D01*
X136121590Y-87627910D01*
X136121587Y-87627912D01*
X135980638Y-87716476D01*
X135980633Y-87716479D01*
X135974738Y-87720184D01*
X135969813Y-87725108D01*
X135969809Y-87725112D01*
X135852112Y-87842809D01*
X135852108Y-87842813D01*
X135847184Y-87847738D01*
X135843479Y-87853633D01*
X135843476Y-87853638D01*
X135754912Y-87994587D01*
X135754910Y-87994590D01*
X135751211Y-88000478D01*
X135748915Y-88007036D01*
X135748913Y-88007043D01*
X135693930Y-88164175D01*
X135693928Y-88164182D01*
X135691632Y-88170745D01*
X135690852Y-88177662D01*
X135690852Y-88177665D01*
X135674195Y-88325504D01*
X135671435Y-88350000D01*
X134000500Y-88350000D01*
X134000500Y-86616704D01*
X134967167Y-86616704D01*
X134974438Y-86624887D01*
X135185320Y-86778102D01*
X135191891Y-86782272D01*
X135449694Y-86924000D01*
X135456733Y-86927313D01*
X135730270Y-87035613D01*
X135737665Y-87038016D01*
X136022625Y-87111182D01*
X136030256Y-87112637D01*
X136322140Y-87149511D01*
X136329899Y-87150000D01*
X136624101Y-87150000D01*
X136631859Y-87149511D01*
X136923743Y-87112637D01*
X136931374Y-87111182D01*
X137216334Y-87038016D01*
X137223729Y-87035613D01*
X137497266Y-86927313D01*
X137504305Y-86924000D01*
X137762108Y-86782272D01*
X137768678Y-86778102D01*
X137979560Y-86624887D01*
X137986831Y-86616704D01*
X137980927Y-86607480D01*
X136488542Y-85115095D01*
X136476999Y-85108431D01*
X136465457Y-85115095D01*
X134973071Y-86607480D01*
X134967167Y-86616704D01*
X134000500Y-86616704D01*
X134000500Y-85676863D01*
X134018977Y-85611741D01*
X134068902Y-85566026D01*
X134135396Y-85553343D01*
X134198643Y-85577471D01*
X134239794Y-85631220D01*
X134242781Y-85638765D01*
X134368050Y-85904976D01*
X134371792Y-85911782D01*
X134529430Y-86160181D01*
X134534006Y-86166479D01*
X134601273Y-86247790D01*
X134612575Y-86255558D01*
X134624557Y-86248888D01*
X136111904Y-84761542D01*
X136118568Y-84750000D01*
X136835431Y-84750000D01*
X136842095Y-84761542D01*
X138329441Y-86248888D01*
X138341424Y-86255558D01*
X138352723Y-86247793D01*
X138419997Y-86166474D01*
X138424568Y-86160182D01*
X138582207Y-85911782D01*
X138585949Y-85904976D01*
X138711218Y-85638765D01*
X138714078Y-85631541D01*
X138784940Y-85413451D01*
X161807783Y-85413451D01*
X161815215Y-85424842D01*
X161829701Y-85437545D01*
X161836141Y-85442487D01*
X162071246Y-85599580D01*
X162078260Y-85603629D01*
X162331853Y-85728686D01*
X162339359Y-85731795D01*
X162500947Y-85786647D01*
X162556165Y-85824464D01*
X162583687Y-85885470D01*
X162575494Y-85951893D01*
X162533975Y-86004384D01*
X162457103Y-86060235D01*
X162360422Y-86130478D01*
X162356583Y-86134492D01*
X162356574Y-86134501D01*
X162208718Y-86289147D01*
X162208712Y-86289154D01*
X162204868Y-86293175D01*
X162201799Y-86297823D01*
X162201796Y-86297828D01*
X162083935Y-86476380D01*
X162083931Y-86476386D01*
X162080865Y-86481032D01*
X162078678Y-86486148D01*
X162078673Y-86486158D01*
X161994588Y-86682884D01*
X161994585Y-86682892D01*
X161992397Y-86688012D01*
X161991157Y-86693441D01*
X161991156Y-86693447D01*
X161966350Y-86802132D01*
X161942309Y-86907463D01*
X161942059Y-86913019D01*
X161942058Y-86913030D01*
X161933807Y-87096757D01*
X161932210Y-87132330D01*
X161932955Y-87137833D01*
X161932956Y-87137844D01*
X161946655Y-87238969D01*
X161962425Y-87355387D01*
X161964144Y-87360680D01*
X161964146Y-87360685D01*
X162030261Y-87564167D01*
X162030264Y-87564175D01*
X162031983Y-87569464D01*
X162034621Y-87574366D01*
X162136012Y-87762784D01*
X162136016Y-87762790D01*
X162138648Y-87767681D01*
X162142112Y-87772025D01*
X162142115Y-87772029D01*
X162275522Y-87939315D01*
X162278992Y-87943666D01*
X162448504Y-88091765D01*
X162641736Y-88207215D01*
X162852476Y-88286307D01*
X163073953Y-88326500D01*
X163239878Y-88326500D01*
X163242655Y-88326500D01*
X163410688Y-88311377D01*
X163627670Y-88251493D01*
X163830473Y-88153829D01*
X164012578Y-88021522D01*
X164168132Y-87858825D01*
X164292135Y-87670968D01*
X164380603Y-87463988D01*
X164430691Y-87244537D01*
X164440790Y-87019670D01*
X164410575Y-86796613D01*
X164341017Y-86582536D01*
X164234352Y-86384319D01*
X164165377Y-86297828D01*
X164097477Y-86212684D01*
X164094008Y-86208334D01*
X163924496Y-86060235D01*
X163919718Y-86057380D01*
X163919715Y-86057378D01*
X163843826Y-86012037D01*
X163796496Y-85961004D01*
X163784116Y-85892512D01*
X163810587Y-85828140D01*
X163867567Y-85788170D01*
X164033640Y-85731796D01*
X164041146Y-85728686D01*
X164294739Y-85603629D01*
X164301753Y-85599580D01*
X164536859Y-85442486D01*
X164543296Y-85437547D01*
X164557782Y-85424843D01*
X164565215Y-85413451D01*
X164558540Y-85401593D01*
X163198042Y-84041095D01*
X163186499Y-84034431D01*
X163174957Y-84041095D01*
X161814457Y-85401594D01*
X161807783Y-85413451D01*
X138784940Y-85413451D01*
X138804990Y-85351745D01*
X138806926Y-85344206D01*
X138862053Y-85055220D01*
X138863027Y-85047500D01*
X138881500Y-84753894D01*
X138881500Y-84746106D01*
X138863027Y-84452499D01*
X138862053Y-84444779D01*
X138806926Y-84155793D01*
X138804990Y-84148254D01*
X138714078Y-83868458D01*
X138711218Y-83861234D01*
X138625963Y-83680058D01*
X160963005Y-83680058D01*
X160981498Y-83962205D01*
X160982556Y-83970241D01*
X161037719Y-84247568D01*
X161039816Y-84255396D01*
X161130705Y-84523145D01*
X161133813Y-84530646D01*
X161258870Y-84784239D01*
X161262919Y-84791253D01*
X161420016Y-85026364D01*
X161424948Y-85032791D01*
X161437655Y-85047281D01*
X161449048Y-85054715D01*
X161460904Y-85048041D01*
X162821404Y-83687542D01*
X162828068Y-83676000D01*
X163544931Y-83676000D01*
X163551595Y-83687542D01*
X164912093Y-85048040D01*
X164923951Y-85054715D01*
X164935343Y-85047282D01*
X164948047Y-85032796D01*
X164952986Y-85026359D01*
X165110080Y-84791253D01*
X165114129Y-84784239D01*
X165239186Y-84530646D01*
X165242294Y-84523145D01*
X165333183Y-84255396D01*
X165335280Y-84247568D01*
X165390443Y-83970241D01*
X165391501Y-83962205D01*
X165409995Y-83680058D01*
X165409995Y-83671942D01*
X165391501Y-83389794D01*
X165390443Y-83381758D01*
X165335280Y-83104431D01*
X165333183Y-83096603D01*
X165242292Y-82828850D01*
X165239190Y-82821360D01*
X165114128Y-82567759D01*
X165110079Y-82560745D01*
X164952987Y-82325641D01*
X164948045Y-82319201D01*
X164935342Y-82304715D01*
X164923951Y-82297283D01*
X164912094Y-82303957D01*
X163551595Y-83664457D01*
X163544931Y-83676000D01*
X162828068Y-83676000D01*
X162821404Y-83664457D01*
X161460903Y-82303956D01*
X161449048Y-82297283D01*
X161437655Y-82304717D01*
X161424941Y-82319215D01*
X161420021Y-82325627D01*
X161262920Y-82560745D01*
X161258871Y-82567759D01*
X161133809Y-82821360D01*
X161130707Y-82828850D01*
X161039816Y-83096603D01*
X161037719Y-83104431D01*
X160982556Y-83381758D01*
X160981498Y-83389794D01*
X160963005Y-83671942D01*
X160963005Y-83680058D01*
X138625963Y-83680058D01*
X138585949Y-83595023D01*
X138582207Y-83588217D01*
X138424569Y-83339818D01*
X138419993Y-83333520D01*
X138352725Y-83252208D01*
X138341423Y-83244440D01*
X138329441Y-83251110D01*
X136842095Y-84738457D01*
X136835431Y-84750000D01*
X136118568Y-84750000D01*
X136111904Y-84738457D01*
X134624558Y-83251111D01*
X134612574Y-83244441D01*
X134601273Y-83252208D01*
X134534001Y-83333526D01*
X134529434Y-83339812D01*
X134371792Y-83588217D01*
X134368050Y-83595023D01*
X134242781Y-83861234D01*
X134239794Y-83868780D01*
X134198643Y-83922529D01*
X134135396Y-83946657D01*
X134068902Y-83933974D01*
X134018977Y-83888259D01*
X134000500Y-83823137D01*
X134000500Y-82883295D01*
X134967167Y-82883295D01*
X134973073Y-82892520D01*
X136465457Y-84384904D01*
X136476999Y-84391568D01*
X136488542Y-84384904D01*
X137980927Y-82892518D01*
X137986831Y-82883294D01*
X137979560Y-82875111D01*
X137768679Y-82721897D01*
X137762108Y-82717727D01*
X137504305Y-82575999D01*
X137497266Y-82572686D01*
X137223729Y-82464386D01*
X137216334Y-82461983D01*
X136931374Y-82388817D01*
X136923743Y-82387362D01*
X136631859Y-82350488D01*
X136624101Y-82350000D01*
X136329899Y-82350000D01*
X136322140Y-82350488D01*
X136030256Y-82387362D01*
X136022625Y-82388817D01*
X135737665Y-82461983D01*
X135730270Y-82464386D01*
X135456733Y-82572686D01*
X135449694Y-82575999D01*
X135191899Y-82717723D01*
X135185309Y-82721905D01*
X134974441Y-82875109D01*
X134967167Y-82883295D01*
X134000500Y-82883295D01*
X134000500Y-81938548D01*
X161807783Y-81938548D01*
X161814456Y-81950403D01*
X163174957Y-83310904D01*
X163186499Y-83317568D01*
X163198042Y-83310904D01*
X164558541Y-81950404D01*
X164565215Y-81938548D01*
X164557781Y-81927155D01*
X164543291Y-81914448D01*
X164536864Y-81909516D01*
X164301753Y-81752419D01*
X164294739Y-81748370D01*
X164041146Y-81623313D01*
X164033645Y-81620205D01*
X163765896Y-81529316D01*
X163758068Y-81527219D01*
X163480741Y-81472056D01*
X163472705Y-81470998D01*
X163190558Y-81452505D01*
X163182442Y-81452505D01*
X162900294Y-81470998D01*
X162892258Y-81472056D01*
X162614931Y-81527219D01*
X162607103Y-81529316D01*
X162339350Y-81620207D01*
X162331860Y-81623309D01*
X162078259Y-81748371D01*
X162071245Y-81752420D01*
X161836127Y-81909521D01*
X161829715Y-81914441D01*
X161815217Y-81927155D01*
X161807783Y-81938548D01*
X134000500Y-81938548D01*
X134000500Y-78700000D01*
X135344341Y-78700000D01*
X135364937Y-78935408D01*
X135366336Y-78940630D01*
X135366337Y-78940634D01*
X135424694Y-79158430D01*
X135424697Y-79158438D01*
X135426097Y-79163663D01*
X135525965Y-79377829D01*
X135661505Y-79571401D01*
X135828599Y-79738495D01*
X136022171Y-79874035D01*
X136236337Y-79973903D01*
X136464592Y-80035063D01*
X136641034Y-80050500D01*
X136756258Y-80050500D01*
X136758966Y-80050500D01*
X136935408Y-80035063D01*
X137163663Y-79973903D01*
X137377829Y-79874035D01*
X137571401Y-79738495D01*
X137738495Y-79571401D01*
X137874035Y-79377830D01*
X137973903Y-79163663D01*
X138035063Y-78935408D01*
X138055659Y-78700000D01*
X166044341Y-78700000D01*
X166064937Y-78935408D01*
X166066336Y-78940630D01*
X166066337Y-78940634D01*
X166124694Y-79158430D01*
X166124697Y-79158438D01*
X166126097Y-79163663D01*
X166225965Y-79377829D01*
X166361505Y-79571401D01*
X166528599Y-79738495D01*
X166722171Y-79874035D01*
X166936337Y-79973903D01*
X167164592Y-80035063D01*
X167341034Y-80050500D01*
X167456258Y-80050500D01*
X167458966Y-80050500D01*
X167635408Y-80035063D01*
X167863663Y-79973903D01*
X168077829Y-79874035D01*
X168271401Y-79738495D01*
X168438495Y-79571401D01*
X168574035Y-79377830D01*
X168673903Y-79163663D01*
X168735063Y-78935408D01*
X168755659Y-78700000D01*
X168735063Y-78464592D01*
X168673903Y-78236337D01*
X168574035Y-78022171D01*
X168438495Y-77828599D01*
X168271401Y-77661505D01*
X168077829Y-77525965D01*
X167863663Y-77426097D01*
X167858438Y-77424697D01*
X167858430Y-77424694D01*
X167640634Y-77366337D01*
X167640630Y-77366336D01*
X167635408Y-77364937D01*
X167630020Y-77364465D01*
X167630017Y-77364465D01*
X167461664Y-77349736D01*
X167461662Y-77349735D01*
X167458966Y-77349500D01*
X167341034Y-77349500D01*
X167338338Y-77349735D01*
X167338335Y-77349736D01*
X167169982Y-77364465D01*
X167169977Y-77364465D01*
X167164592Y-77364937D01*
X167159371Y-77366335D01*
X167159365Y-77366337D01*
X166941569Y-77424694D01*
X166941557Y-77424698D01*
X166936337Y-77426097D01*
X166931432Y-77428383D01*
X166931427Y-77428386D01*
X166727081Y-77523675D01*
X166727077Y-77523677D01*
X166722171Y-77525965D01*
X166717738Y-77529068D01*
X166717731Y-77529073D01*
X166533034Y-77658399D01*
X166533029Y-77658402D01*
X166528599Y-77661505D01*
X166524775Y-77665328D01*
X166524769Y-77665334D01*
X166365336Y-77824767D01*
X166365330Y-77824773D01*
X166361505Y-77828599D01*
X166358406Y-77833023D01*
X166358399Y-77833033D01*
X166229066Y-78017740D01*
X166229061Y-78017747D01*
X166225965Y-78022170D01*
X166223683Y-78027061D01*
X166223678Y-78027072D01*
X166128386Y-78231427D01*
X166128383Y-78231432D01*
X166126097Y-78236337D01*
X166124698Y-78241557D01*
X166124694Y-78241569D01*
X166066337Y-78459365D01*
X166066335Y-78459371D01*
X166064937Y-78464592D01*
X166044341Y-78700000D01*
X138055659Y-78700000D01*
X138035063Y-78464592D01*
X137973903Y-78236337D01*
X137874035Y-78022171D01*
X137738495Y-77828599D01*
X137571401Y-77661505D01*
X137377829Y-77525965D01*
X137163663Y-77426097D01*
X137158438Y-77424697D01*
X137158430Y-77424694D01*
X136940634Y-77366337D01*
X136940630Y-77366336D01*
X136935408Y-77364937D01*
X136930020Y-77364465D01*
X136930017Y-77364465D01*
X136761664Y-77349736D01*
X136761662Y-77349735D01*
X136758966Y-77349500D01*
X136641034Y-77349500D01*
X136638338Y-77349735D01*
X136638335Y-77349736D01*
X136469982Y-77364465D01*
X136469977Y-77364465D01*
X136464592Y-77364937D01*
X136459371Y-77366335D01*
X136459365Y-77366337D01*
X136241569Y-77424694D01*
X136241557Y-77424698D01*
X136236337Y-77426097D01*
X136231432Y-77428383D01*
X136231427Y-77428386D01*
X136027081Y-77523675D01*
X136027077Y-77523677D01*
X136022171Y-77525965D01*
X136017738Y-77529068D01*
X136017731Y-77529073D01*
X135833034Y-77658399D01*
X135833029Y-77658402D01*
X135828599Y-77661505D01*
X135824775Y-77665328D01*
X135824769Y-77665334D01*
X135665336Y-77824767D01*
X135665330Y-77824773D01*
X135661505Y-77828599D01*
X135658406Y-77833023D01*
X135658399Y-77833033D01*
X135529066Y-78017740D01*
X135529061Y-78017747D01*
X135525965Y-78022170D01*
X135523683Y-78027061D01*
X135523678Y-78027072D01*
X135428386Y-78231427D01*
X135428383Y-78231432D01*
X135426097Y-78236337D01*
X135424698Y-78241557D01*
X135424694Y-78241569D01*
X135366337Y-78459365D01*
X135366335Y-78459371D01*
X135364937Y-78464592D01*
X135344341Y-78700000D01*
X134000500Y-78700000D01*
X134000500Y-76124500D01*
X134017113Y-76062500D01*
X134062500Y-76017113D01*
X134124500Y-76000500D01*
X169875500Y-76000500D01*
X169937500Y-76017113D01*
G37*
%TD.AperFunction*%
%TD*%
M02*
