%TF.GenerationSoftware,KiCad,Pcbnew,7.0.0-da2b9df05c~163~ubuntu22.04.1*%
%TF.CreationDate,2023-02-20T00:02:51+00:00*%
%TF.ProjectId,levelshifter,6c657665-6c73-4686-9966-7465722e6b69,rev?*%
%TF.SameCoordinates,Original*%
%TF.FileFunction,Paste,Top*%
%TF.FilePolarity,Positive*%
%FSLAX46Y46*%
G04 Gerber Fmt 4.6, Leading zero omitted, Abs format (unit mm)*
G04 Created by KiCad (PCBNEW 7.0.0-da2b9df05c~163~ubuntu22.04.1) date 2023-02-20 00:02:51*
%MOMM*%
%LPD*%
G01*
G04 APERTURE LIST*
G04 Aperture macros list*
%AMRoundRect*
0 Rectangle with rounded corners*
0 $1 Rounding radius*
0 $2 $3 $4 $5 $6 $7 $8 $9 X,Y pos of 4 corners*
0 Add a 4 corners polygon primitive as box body*
4,1,4,$2,$3,$4,$5,$6,$7,$8,$9,$2,$3,0*
0 Add four circle primitives for the rounded corners*
1,1,$1+$1,$2,$3*
1,1,$1+$1,$4,$5*
1,1,$1+$1,$6,$7*
1,1,$1+$1,$8,$9*
0 Add four rect primitives between the rounded corners*
20,1,$1+$1,$2,$3,$4,$5,0*
20,1,$1+$1,$4,$5,$6,$7,0*
20,1,$1+$1,$6,$7,$8,$9,0*
20,1,$1+$1,$8,$9,$2,$3,0*%
G04 Aperture macros list end*
%ADD10R,1.500000X2.200000*%
%ADD11R,3.800000X2.200000*%
%ADD12R,2.600000X0.900000*%
%ADD13R,2.150000X0.900000*%
%ADD14R,1.800000X0.700000*%
%ADD15R,1.475000X0.450000*%
%ADD16RoundRect,0.250000X-0.250000X-0.475000X0.250000X-0.475000X0.250000X0.475000X-0.250000X0.475000X0*%
%ADD17RoundRect,0.250000X0.250000X0.475000X-0.250000X0.475000X-0.250000X-0.475000X0.250000X-0.475000X0*%
%ADD18RoundRect,0.250000X0.475000X-0.250000X0.475000X0.250000X-0.475000X0.250000X-0.475000X-0.250000X0*%
G04 APERTURE END LIST*
D10*
%TO.C,U1*%
X146035999Y-95655999D03*
X148335999Y-95655999D03*
X150635999Y-95655999D03*
D11*
X148335999Y-101955999D03*
%TD*%
D12*
%TO.C,J2*%
X157966499Y-94225999D03*
X157966499Y-91725999D03*
X157966499Y-89225999D03*
X157966499Y-86725999D03*
D13*
X157741499Y-85475999D03*
X157741499Y-87975999D03*
X157741499Y-90475999D03*
X157741499Y-92975999D03*
X157741499Y-95475999D03*
%TD*%
D14*
%TO.C,J1*%
X138926999Y-93599999D03*
X138926999Y-91599999D03*
X138926999Y-89599999D03*
X138926999Y-87599999D03*
X138926999Y-86599999D03*
X138926999Y-88599999D03*
X138926999Y-90599999D03*
X138926999Y-92599999D03*
X138926999Y-94599999D03*
%TD*%
D15*
%TO.C,IC1*%
X145405999Y-83486999D03*
X145405999Y-84136999D03*
X145405999Y-84786999D03*
X145405999Y-85436999D03*
X145405999Y-86086999D03*
X145405999Y-86736999D03*
X145405999Y-87386999D03*
X145405999Y-88036999D03*
X145405999Y-88686999D03*
X145405999Y-89336999D03*
X151281999Y-89336999D03*
X151281999Y-88686999D03*
X151281999Y-88036999D03*
X151281999Y-87386999D03*
X151281999Y-86736999D03*
X151281999Y-86086999D03*
X151281999Y-85436999D03*
X151281999Y-84786999D03*
X151281999Y-84136999D03*
X151281999Y-83486999D03*
%TD*%
D16*
%TO.C,C4*%
X145362000Y-81332000D03*
X147262000Y-81332000D03*
%TD*%
D17*
%TO.C,C3*%
X151326000Y-81332000D03*
X149426000Y-81332000D03*
%TD*%
D18*
%TO.C,C2*%
X147828000Y-93406000D03*
X147828000Y-91506000D03*
%TD*%
%TO.C,C1*%
X144780000Y-93406000D03*
X144780000Y-91506000D03*
%TD*%
M02*
