%TF.GenerationSoftware,KiCad,Pcbnew,7.0.0-da2b9df05c~163~ubuntu22.04.1*%
%TF.CreationDate,2023-02-20T00:02:55+00:00*%
%TF.ProjectId,levelshifter,6c657665-6c73-4686-9966-7465722e6b69,rev?*%
%TF.SameCoordinates,Original*%
%TF.FileFunction,Drillmap*%
%TF.FilePolarity,Positive*%
%FSLAX45Y45*%
G04 Gerber Fmt 4.5, Leading zero omitted, Abs format (unit mm)*
G04 Created by KiCad (PCBNEW 7.0.0-da2b9df05c~163~ubuntu22.04.1) date 2023-02-20 00:02:55*
%MOMM*%
%LPD*%
G01*
G04 APERTURE LIST*
%ADD10C,0.100000*%
%ADD11C,0.200000*%
%ADD12C,0.040000*%
%ADD13C,0.229220*%
%ADD14C,0.269260*%
G04 APERTURE END LIST*
D10*
X13400000Y-7600000D02*
X17000000Y-7600000D01*
X17000000Y-7600000D02*
X17000000Y-10500000D01*
X17000000Y-10500000D02*
X13400000Y-10500000D01*
X13400000Y-10500000D02*
X13400000Y-7600000D01*
D11*
D12*
X14127405Y-9352205D02*
X14167405Y-9392205D01*
X14167405Y-9352205D02*
X14127405Y-9392205D01*
X14407202Y-8990657D02*
X14447202Y-9030657D01*
X14447202Y-8990657D02*
X14407202Y-9030657D01*
X14585000Y-9352600D02*
X14625000Y-9392600D01*
X14625000Y-9352600D02*
X14585000Y-9392600D01*
X14813000Y-8113200D02*
X14853000Y-8153200D01*
X14853000Y-8113200D02*
X14813000Y-8153200D01*
X15143800Y-9352600D02*
X15183800Y-9392600D01*
X15183800Y-9352600D02*
X15143800Y-9392600D01*
X15220000Y-9555800D02*
X15260000Y-9595800D01*
X15260000Y-9555800D02*
X15220000Y-9595800D01*
X15270800Y-8971600D02*
X15310800Y-9011600D01*
X15310800Y-8971600D02*
X15270800Y-9011600D01*
X15524800Y-9403400D02*
X15564800Y-9443400D01*
X15564800Y-9403400D02*
X15524800Y-9443400D01*
D13*
X16433260Y-8367600D02*
G75*
G03*
X16433260Y-8367600I-114610J0D01*
G01*
X16433260Y-9727600D02*
G75*
G03*
X16433260Y-9727600I-114610J0D01*
G01*
D14*
X13647700Y-8340370D02*
X13647700Y-8609630D01*
X13513070Y-8475000D02*
X13782330Y-8475000D01*
X13647700Y-9510370D02*
X13647700Y-9779630D01*
X13513070Y-9645000D02*
X13782330Y-9645000D01*
D11*
X13642619Y-10798476D02*
X13642619Y-10598476D01*
X13642619Y-10598476D02*
X13690238Y-10598476D01*
X13690238Y-10598476D02*
X13718809Y-10608000D01*
X13718809Y-10608000D02*
X13737857Y-10627048D01*
X13737857Y-10627048D02*
X13747381Y-10646095D01*
X13747381Y-10646095D02*
X13756905Y-10684190D01*
X13756905Y-10684190D02*
X13756905Y-10712762D01*
X13756905Y-10712762D02*
X13747381Y-10750857D01*
X13747381Y-10750857D02*
X13737857Y-10769905D01*
X13737857Y-10769905D02*
X13718809Y-10788952D01*
X13718809Y-10788952D02*
X13690238Y-10798476D01*
X13690238Y-10798476D02*
X13642619Y-10798476D01*
X13842619Y-10798476D02*
X13842619Y-10665143D01*
X13842619Y-10703238D02*
X13852143Y-10684190D01*
X13852143Y-10684190D02*
X13861667Y-10674667D01*
X13861667Y-10674667D02*
X13880714Y-10665143D01*
X13880714Y-10665143D02*
X13899762Y-10665143D01*
X13966428Y-10798476D02*
X13966428Y-10665143D01*
X13966428Y-10598476D02*
X13956905Y-10608000D01*
X13956905Y-10608000D02*
X13966428Y-10617524D01*
X13966428Y-10617524D02*
X13975952Y-10608000D01*
X13975952Y-10608000D02*
X13966428Y-10598476D01*
X13966428Y-10598476D02*
X13966428Y-10617524D01*
X14090238Y-10798476D02*
X14071190Y-10788952D01*
X14071190Y-10788952D02*
X14061667Y-10769905D01*
X14061667Y-10769905D02*
X14061667Y-10598476D01*
X14195000Y-10798476D02*
X14175952Y-10788952D01*
X14175952Y-10788952D02*
X14166428Y-10769905D01*
X14166428Y-10769905D02*
X14166428Y-10598476D01*
X14391190Y-10798476D02*
X14391190Y-10598476D01*
X14391190Y-10598476D02*
X14457857Y-10741333D01*
X14457857Y-10741333D02*
X14524524Y-10598476D01*
X14524524Y-10598476D02*
X14524524Y-10798476D01*
X14705476Y-10798476D02*
X14705476Y-10693714D01*
X14705476Y-10693714D02*
X14695952Y-10674667D01*
X14695952Y-10674667D02*
X14676905Y-10665143D01*
X14676905Y-10665143D02*
X14638809Y-10665143D01*
X14638809Y-10665143D02*
X14619762Y-10674667D01*
X14705476Y-10788952D02*
X14686428Y-10798476D01*
X14686428Y-10798476D02*
X14638809Y-10798476D01*
X14638809Y-10798476D02*
X14619762Y-10788952D01*
X14619762Y-10788952D02*
X14610238Y-10769905D01*
X14610238Y-10769905D02*
X14610238Y-10750857D01*
X14610238Y-10750857D02*
X14619762Y-10731810D01*
X14619762Y-10731810D02*
X14638809Y-10722286D01*
X14638809Y-10722286D02*
X14686428Y-10722286D01*
X14686428Y-10722286D02*
X14705476Y-10712762D01*
X14800714Y-10665143D02*
X14800714Y-10865143D01*
X14800714Y-10674667D02*
X14819762Y-10665143D01*
X14819762Y-10665143D02*
X14857857Y-10665143D01*
X14857857Y-10665143D02*
X14876905Y-10674667D01*
X14876905Y-10674667D02*
X14886428Y-10684190D01*
X14886428Y-10684190D02*
X14895952Y-10703238D01*
X14895952Y-10703238D02*
X14895952Y-10760381D01*
X14895952Y-10760381D02*
X14886428Y-10779429D01*
X14886428Y-10779429D02*
X14876905Y-10788952D01*
X14876905Y-10788952D02*
X14857857Y-10798476D01*
X14857857Y-10798476D02*
X14819762Y-10798476D01*
X14819762Y-10798476D02*
X14800714Y-10788952D01*
X14981667Y-10779429D02*
X14991190Y-10788952D01*
X14991190Y-10788952D02*
X14981667Y-10798476D01*
X14981667Y-10798476D02*
X14972143Y-10788952D01*
X14972143Y-10788952D02*
X14981667Y-10779429D01*
X14981667Y-10779429D02*
X14981667Y-10798476D01*
X14981667Y-10674667D02*
X14991190Y-10684190D01*
X14991190Y-10684190D02*
X14981667Y-10693714D01*
X14981667Y-10693714D02*
X14972143Y-10684190D01*
X14972143Y-10684190D02*
X14981667Y-10674667D01*
X14981667Y-10674667D02*
X14981667Y-10693714D01*
D12*
X13355000Y-11125000D02*
X13395000Y-11165000D01*
X13395000Y-11125000D02*
X13355000Y-11165000D01*
D11*
X13680714Y-11018476D02*
X13699762Y-11018476D01*
X13699762Y-11018476D02*
X13718809Y-11028000D01*
X13718809Y-11028000D02*
X13728333Y-11037524D01*
X13728333Y-11037524D02*
X13737857Y-11056571D01*
X13737857Y-11056571D02*
X13747381Y-11094667D01*
X13747381Y-11094667D02*
X13747381Y-11142286D01*
X13747381Y-11142286D02*
X13737857Y-11180381D01*
X13737857Y-11180381D02*
X13728333Y-11199428D01*
X13728333Y-11199428D02*
X13718809Y-11208952D01*
X13718809Y-11208952D02*
X13699762Y-11218476D01*
X13699762Y-11218476D02*
X13680714Y-11218476D01*
X13680714Y-11218476D02*
X13661667Y-11208952D01*
X13661667Y-11208952D02*
X13652143Y-11199428D01*
X13652143Y-11199428D02*
X13642619Y-11180381D01*
X13642619Y-11180381D02*
X13633095Y-11142286D01*
X13633095Y-11142286D02*
X13633095Y-11094667D01*
X13633095Y-11094667D02*
X13642619Y-11056571D01*
X13642619Y-11056571D02*
X13652143Y-11037524D01*
X13652143Y-11037524D02*
X13661667Y-11028000D01*
X13661667Y-11028000D02*
X13680714Y-11018476D01*
X13833095Y-11199428D02*
X13842619Y-11208952D01*
X13842619Y-11208952D02*
X13833095Y-11218476D01*
X13833095Y-11218476D02*
X13823571Y-11208952D01*
X13823571Y-11208952D02*
X13833095Y-11199428D01*
X13833095Y-11199428D02*
X13833095Y-11218476D01*
X14014048Y-11085143D02*
X14014048Y-11218476D01*
X13966428Y-11008952D02*
X13918809Y-11151810D01*
X13918809Y-11151810D02*
X14042619Y-11151810D01*
X14156905Y-11018476D02*
X14175952Y-11018476D01*
X14175952Y-11018476D02*
X14195000Y-11028000D01*
X14195000Y-11028000D02*
X14204524Y-11037524D01*
X14204524Y-11037524D02*
X14214048Y-11056571D01*
X14214048Y-11056571D02*
X14223571Y-11094667D01*
X14223571Y-11094667D02*
X14223571Y-11142286D01*
X14223571Y-11142286D02*
X14214048Y-11180381D01*
X14214048Y-11180381D02*
X14204524Y-11199428D01*
X14204524Y-11199428D02*
X14195000Y-11208952D01*
X14195000Y-11208952D02*
X14175952Y-11218476D01*
X14175952Y-11218476D02*
X14156905Y-11218476D01*
X14156905Y-11218476D02*
X14137857Y-11208952D01*
X14137857Y-11208952D02*
X14128333Y-11199428D01*
X14128333Y-11199428D02*
X14118809Y-11180381D01*
X14118809Y-11180381D02*
X14109286Y-11142286D01*
X14109286Y-11142286D02*
X14109286Y-11094667D01*
X14109286Y-11094667D02*
X14118809Y-11056571D01*
X14118809Y-11056571D02*
X14128333Y-11037524D01*
X14128333Y-11037524D02*
X14137857Y-11028000D01*
X14137857Y-11028000D02*
X14156905Y-11018476D01*
X14347381Y-11018476D02*
X14366429Y-11018476D01*
X14366429Y-11018476D02*
X14385476Y-11028000D01*
X14385476Y-11028000D02*
X14395000Y-11037524D01*
X14395000Y-11037524D02*
X14404524Y-11056571D01*
X14404524Y-11056571D02*
X14414048Y-11094667D01*
X14414048Y-11094667D02*
X14414048Y-11142286D01*
X14414048Y-11142286D02*
X14404524Y-11180381D01*
X14404524Y-11180381D02*
X14395000Y-11199428D01*
X14395000Y-11199428D02*
X14385476Y-11208952D01*
X14385476Y-11208952D02*
X14366429Y-11218476D01*
X14366429Y-11218476D02*
X14347381Y-11218476D01*
X14347381Y-11218476D02*
X14328333Y-11208952D01*
X14328333Y-11208952D02*
X14318809Y-11199428D01*
X14318809Y-11199428D02*
X14309286Y-11180381D01*
X14309286Y-11180381D02*
X14299762Y-11142286D01*
X14299762Y-11142286D02*
X14299762Y-11094667D01*
X14299762Y-11094667D02*
X14309286Y-11056571D01*
X14309286Y-11056571D02*
X14318809Y-11037524D01*
X14318809Y-11037524D02*
X14328333Y-11028000D01*
X14328333Y-11028000D02*
X14347381Y-11018476D01*
X14499762Y-11218476D02*
X14499762Y-11085143D01*
X14499762Y-11104190D02*
X14509286Y-11094667D01*
X14509286Y-11094667D02*
X14528333Y-11085143D01*
X14528333Y-11085143D02*
X14556905Y-11085143D01*
X14556905Y-11085143D02*
X14575952Y-11094667D01*
X14575952Y-11094667D02*
X14585476Y-11113714D01*
X14585476Y-11113714D02*
X14585476Y-11218476D01*
X14585476Y-11113714D02*
X14595000Y-11094667D01*
X14595000Y-11094667D02*
X14614048Y-11085143D01*
X14614048Y-11085143D02*
X14642619Y-11085143D01*
X14642619Y-11085143D02*
X14661667Y-11094667D01*
X14661667Y-11094667D02*
X14671190Y-11113714D01*
X14671190Y-11113714D02*
X14671190Y-11218476D01*
X14766429Y-11218476D02*
X14766429Y-11085143D01*
X14766429Y-11104190D02*
X14775952Y-11094667D01*
X14775952Y-11094667D02*
X14795000Y-11085143D01*
X14795000Y-11085143D02*
X14823571Y-11085143D01*
X14823571Y-11085143D02*
X14842619Y-11094667D01*
X14842619Y-11094667D02*
X14852143Y-11113714D01*
X14852143Y-11113714D02*
X14852143Y-11218476D01*
X14852143Y-11113714D02*
X14861667Y-11094667D01*
X14861667Y-11094667D02*
X14880714Y-11085143D01*
X14880714Y-11085143D02*
X14909286Y-11085143D01*
X14909286Y-11085143D02*
X14928333Y-11094667D01*
X14928333Y-11094667D02*
X14937857Y-11113714D01*
X14937857Y-11113714D02*
X14937857Y-11218476D01*
X15295952Y-11008952D02*
X15124524Y-11266095D01*
X15520714Y-11018476D02*
X15539762Y-11018476D01*
X15539762Y-11018476D02*
X15558810Y-11028000D01*
X15558810Y-11028000D02*
X15568333Y-11037524D01*
X15568333Y-11037524D02*
X15577857Y-11056571D01*
X15577857Y-11056571D02*
X15587381Y-11094667D01*
X15587381Y-11094667D02*
X15587381Y-11142286D01*
X15587381Y-11142286D02*
X15577857Y-11180381D01*
X15577857Y-11180381D02*
X15568333Y-11199428D01*
X15568333Y-11199428D02*
X15558810Y-11208952D01*
X15558810Y-11208952D02*
X15539762Y-11218476D01*
X15539762Y-11218476D02*
X15520714Y-11218476D01*
X15520714Y-11218476D02*
X15501667Y-11208952D01*
X15501667Y-11208952D02*
X15492143Y-11199428D01*
X15492143Y-11199428D02*
X15482619Y-11180381D01*
X15482619Y-11180381D02*
X15473095Y-11142286D01*
X15473095Y-11142286D02*
X15473095Y-11094667D01*
X15473095Y-11094667D02*
X15482619Y-11056571D01*
X15482619Y-11056571D02*
X15492143Y-11037524D01*
X15492143Y-11037524D02*
X15501667Y-11028000D01*
X15501667Y-11028000D02*
X15520714Y-11018476D01*
X15673095Y-11199428D02*
X15682619Y-11208952D01*
X15682619Y-11208952D02*
X15673095Y-11218476D01*
X15673095Y-11218476D02*
X15663571Y-11208952D01*
X15663571Y-11208952D02*
X15673095Y-11199428D01*
X15673095Y-11199428D02*
X15673095Y-11218476D01*
X15806429Y-11018476D02*
X15825476Y-11018476D01*
X15825476Y-11018476D02*
X15844524Y-11028000D01*
X15844524Y-11028000D02*
X15854048Y-11037524D01*
X15854048Y-11037524D02*
X15863571Y-11056571D01*
X15863571Y-11056571D02*
X15873095Y-11094667D01*
X15873095Y-11094667D02*
X15873095Y-11142286D01*
X15873095Y-11142286D02*
X15863571Y-11180381D01*
X15863571Y-11180381D02*
X15854048Y-11199428D01*
X15854048Y-11199428D02*
X15844524Y-11208952D01*
X15844524Y-11208952D02*
X15825476Y-11218476D01*
X15825476Y-11218476D02*
X15806429Y-11218476D01*
X15806429Y-11218476D02*
X15787381Y-11208952D01*
X15787381Y-11208952D02*
X15777857Y-11199428D01*
X15777857Y-11199428D02*
X15768333Y-11180381D01*
X15768333Y-11180381D02*
X15758810Y-11142286D01*
X15758810Y-11142286D02*
X15758810Y-11094667D01*
X15758810Y-11094667D02*
X15768333Y-11056571D01*
X15768333Y-11056571D02*
X15777857Y-11037524D01*
X15777857Y-11037524D02*
X15787381Y-11028000D01*
X15787381Y-11028000D02*
X15806429Y-11018476D01*
X16063571Y-11218476D02*
X15949286Y-11218476D01*
X16006429Y-11218476D02*
X16006429Y-11018476D01*
X16006429Y-11018476D02*
X15987381Y-11047048D01*
X15987381Y-11047048D02*
X15968333Y-11066095D01*
X15968333Y-11066095D02*
X15949286Y-11075619D01*
X16244524Y-11018476D02*
X16149286Y-11018476D01*
X16149286Y-11018476D02*
X16139762Y-11113714D01*
X16139762Y-11113714D02*
X16149286Y-11104190D01*
X16149286Y-11104190D02*
X16168333Y-11094667D01*
X16168333Y-11094667D02*
X16215952Y-11094667D01*
X16215952Y-11094667D02*
X16235000Y-11104190D01*
X16235000Y-11104190D02*
X16244524Y-11113714D01*
X16244524Y-11113714D02*
X16254048Y-11132762D01*
X16254048Y-11132762D02*
X16254048Y-11180381D01*
X16254048Y-11180381D02*
X16244524Y-11199428D01*
X16244524Y-11199428D02*
X16235000Y-11208952D01*
X16235000Y-11208952D02*
X16215952Y-11218476D01*
X16215952Y-11218476D02*
X16168333Y-11218476D01*
X16168333Y-11218476D02*
X16149286Y-11208952D01*
X16149286Y-11208952D02*
X16139762Y-11199428D01*
X16320714Y-11018476D02*
X16454048Y-11018476D01*
X16454048Y-11018476D02*
X16368333Y-11218476D01*
X16520714Y-11018476D02*
X16520714Y-11056571D01*
X16596905Y-11018476D02*
X16596905Y-11056571D01*
X16859762Y-11294667D02*
X16850238Y-11285143D01*
X16850238Y-11285143D02*
X16831191Y-11256571D01*
X16831191Y-11256571D02*
X16821667Y-11237524D01*
X16821667Y-11237524D02*
X16812143Y-11208952D01*
X16812143Y-11208952D02*
X16802619Y-11161333D01*
X16802619Y-11161333D02*
X16802619Y-11123238D01*
X16802619Y-11123238D02*
X16812143Y-11075619D01*
X16812143Y-11075619D02*
X16821667Y-11047048D01*
X16821667Y-11047048D02*
X16831191Y-11028000D01*
X16831191Y-11028000D02*
X16850238Y-10999429D01*
X16850238Y-10999429D02*
X16859762Y-10989905D01*
X16964524Y-11104190D02*
X16945476Y-11094667D01*
X16945476Y-11094667D02*
X16935953Y-11085143D01*
X16935953Y-11085143D02*
X16926429Y-11066095D01*
X16926429Y-11066095D02*
X16926429Y-11056571D01*
X16926429Y-11056571D02*
X16935953Y-11037524D01*
X16935953Y-11037524D02*
X16945476Y-11028000D01*
X16945476Y-11028000D02*
X16964524Y-11018476D01*
X16964524Y-11018476D02*
X17002619Y-11018476D01*
X17002619Y-11018476D02*
X17021667Y-11028000D01*
X17021667Y-11028000D02*
X17031191Y-11037524D01*
X17031191Y-11037524D02*
X17040714Y-11056571D01*
X17040714Y-11056571D02*
X17040714Y-11066095D01*
X17040714Y-11066095D02*
X17031191Y-11085143D01*
X17031191Y-11085143D02*
X17021667Y-11094667D01*
X17021667Y-11094667D02*
X17002619Y-11104190D01*
X17002619Y-11104190D02*
X16964524Y-11104190D01*
X16964524Y-11104190D02*
X16945476Y-11113714D01*
X16945476Y-11113714D02*
X16935953Y-11123238D01*
X16935953Y-11123238D02*
X16926429Y-11142286D01*
X16926429Y-11142286D02*
X16926429Y-11180381D01*
X16926429Y-11180381D02*
X16935953Y-11199428D01*
X16935953Y-11199428D02*
X16945476Y-11208952D01*
X16945476Y-11208952D02*
X16964524Y-11218476D01*
X16964524Y-11218476D02*
X17002619Y-11218476D01*
X17002619Y-11218476D02*
X17021667Y-11208952D01*
X17021667Y-11208952D02*
X17031191Y-11199428D01*
X17031191Y-11199428D02*
X17040714Y-11180381D01*
X17040714Y-11180381D02*
X17040714Y-11142286D01*
X17040714Y-11142286D02*
X17031191Y-11123238D01*
X17031191Y-11123238D02*
X17021667Y-11113714D01*
X17021667Y-11113714D02*
X17002619Y-11104190D01*
X17246429Y-11218476D02*
X17246429Y-11018476D01*
X17332143Y-11218476D02*
X17332143Y-11113714D01*
X17332143Y-11113714D02*
X17322619Y-11094667D01*
X17322619Y-11094667D02*
X17303572Y-11085143D01*
X17303572Y-11085143D02*
X17275000Y-11085143D01*
X17275000Y-11085143D02*
X17255953Y-11094667D01*
X17255953Y-11094667D02*
X17246429Y-11104190D01*
X17455953Y-11218476D02*
X17436905Y-11208952D01*
X17436905Y-11208952D02*
X17427381Y-11199428D01*
X17427381Y-11199428D02*
X17417857Y-11180381D01*
X17417857Y-11180381D02*
X17417857Y-11123238D01*
X17417857Y-11123238D02*
X17427381Y-11104190D01*
X17427381Y-11104190D02*
X17436905Y-11094667D01*
X17436905Y-11094667D02*
X17455953Y-11085143D01*
X17455953Y-11085143D02*
X17484524Y-11085143D01*
X17484524Y-11085143D02*
X17503572Y-11094667D01*
X17503572Y-11094667D02*
X17513095Y-11104190D01*
X17513095Y-11104190D02*
X17522619Y-11123238D01*
X17522619Y-11123238D02*
X17522619Y-11180381D01*
X17522619Y-11180381D02*
X17513095Y-11199428D01*
X17513095Y-11199428D02*
X17503572Y-11208952D01*
X17503572Y-11208952D02*
X17484524Y-11218476D01*
X17484524Y-11218476D02*
X17455953Y-11218476D01*
X17636905Y-11218476D02*
X17617857Y-11208952D01*
X17617857Y-11208952D02*
X17608334Y-11189905D01*
X17608334Y-11189905D02*
X17608334Y-11018476D01*
X17789286Y-11208952D02*
X17770238Y-11218476D01*
X17770238Y-11218476D02*
X17732143Y-11218476D01*
X17732143Y-11218476D02*
X17713095Y-11208952D01*
X17713095Y-11208952D02*
X17703572Y-11189905D01*
X17703572Y-11189905D02*
X17703572Y-11113714D01*
X17703572Y-11113714D02*
X17713095Y-11094667D01*
X17713095Y-11094667D02*
X17732143Y-11085143D01*
X17732143Y-11085143D02*
X17770238Y-11085143D01*
X17770238Y-11085143D02*
X17789286Y-11094667D01*
X17789286Y-11094667D02*
X17798810Y-11113714D01*
X17798810Y-11113714D02*
X17798810Y-11132762D01*
X17798810Y-11132762D02*
X17703572Y-11151810D01*
X17875000Y-11208952D02*
X17894048Y-11218476D01*
X17894048Y-11218476D02*
X17932143Y-11218476D01*
X17932143Y-11218476D02*
X17951191Y-11208952D01*
X17951191Y-11208952D02*
X17960715Y-11189905D01*
X17960715Y-11189905D02*
X17960715Y-11180381D01*
X17960715Y-11180381D02*
X17951191Y-11161333D01*
X17951191Y-11161333D02*
X17932143Y-11151810D01*
X17932143Y-11151810D02*
X17903572Y-11151810D01*
X17903572Y-11151810D02*
X17884524Y-11142286D01*
X17884524Y-11142286D02*
X17875000Y-11123238D01*
X17875000Y-11123238D02*
X17875000Y-11113714D01*
X17875000Y-11113714D02*
X17884524Y-11094667D01*
X17884524Y-11094667D02*
X17903572Y-11085143D01*
X17903572Y-11085143D02*
X17932143Y-11085143D01*
X17932143Y-11085143D02*
X17951191Y-11094667D01*
X18027381Y-11294667D02*
X18036905Y-11285143D01*
X18036905Y-11285143D02*
X18055953Y-11256571D01*
X18055953Y-11256571D02*
X18065476Y-11237524D01*
X18065476Y-11237524D02*
X18075000Y-11208952D01*
X18075000Y-11208952D02*
X18084524Y-11161333D01*
X18084524Y-11161333D02*
X18084524Y-11123238D01*
X18084524Y-11123238D02*
X18075000Y-11075619D01*
X18075000Y-11075619D02*
X18065476Y-11047048D01*
X18065476Y-11047048D02*
X18055953Y-11028000D01*
X18055953Y-11028000D02*
X18036905Y-10999429D01*
X18036905Y-10999429D02*
X18027381Y-10989905D01*
X13395000Y-11409000D02*
G75*
G03*
X13395000Y-11409000I-100000J0D01*
G01*
X13633095Y-11301524D02*
X13642619Y-11292000D01*
X13642619Y-11292000D02*
X13661667Y-11282476D01*
X13661667Y-11282476D02*
X13709286Y-11282476D01*
X13709286Y-11282476D02*
X13728333Y-11292000D01*
X13728333Y-11292000D02*
X13737857Y-11301524D01*
X13737857Y-11301524D02*
X13747381Y-11320571D01*
X13747381Y-11320571D02*
X13747381Y-11339619D01*
X13747381Y-11339619D02*
X13737857Y-11368190D01*
X13737857Y-11368190D02*
X13623571Y-11482476D01*
X13623571Y-11482476D02*
X13747381Y-11482476D01*
X13833095Y-11463428D02*
X13842619Y-11472952D01*
X13842619Y-11472952D02*
X13833095Y-11482476D01*
X13833095Y-11482476D02*
X13823571Y-11472952D01*
X13823571Y-11472952D02*
X13833095Y-11463428D01*
X13833095Y-11463428D02*
X13833095Y-11482476D01*
X13918809Y-11301524D02*
X13928333Y-11292000D01*
X13928333Y-11292000D02*
X13947381Y-11282476D01*
X13947381Y-11282476D02*
X13995000Y-11282476D01*
X13995000Y-11282476D02*
X14014048Y-11292000D01*
X14014048Y-11292000D02*
X14023571Y-11301524D01*
X14023571Y-11301524D02*
X14033095Y-11320571D01*
X14033095Y-11320571D02*
X14033095Y-11339619D01*
X14033095Y-11339619D02*
X14023571Y-11368190D01*
X14023571Y-11368190D02*
X13909286Y-11482476D01*
X13909286Y-11482476D02*
X14033095Y-11482476D01*
X14128333Y-11482476D02*
X14166428Y-11482476D01*
X14166428Y-11482476D02*
X14185476Y-11472952D01*
X14185476Y-11472952D02*
X14195000Y-11463428D01*
X14195000Y-11463428D02*
X14214048Y-11434857D01*
X14214048Y-11434857D02*
X14223571Y-11396762D01*
X14223571Y-11396762D02*
X14223571Y-11320571D01*
X14223571Y-11320571D02*
X14214048Y-11301524D01*
X14214048Y-11301524D02*
X14204524Y-11292000D01*
X14204524Y-11292000D02*
X14185476Y-11282476D01*
X14185476Y-11282476D02*
X14147381Y-11282476D01*
X14147381Y-11282476D02*
X14128333Y-11292000D01*
X14128333Y-11292000D02*
X14118809Y-11301524D01*
X14118809Y-11301524D02*
X14109286Y-11320571D01*
X14109286Y-11320571D02*
X14109286Y-11368190D01*
X14109286Y-11368190D02*
X14118809Y-11387238D01*
X14118809Y-11387238D02*
X14128333Y-11396762D01*
X14128333Y-11396762D02*
X14147381Y-11406286D01*
X14147381Y-11406286D02*
X14185476Y-11406286D01*
X14185476Y-11406286D02*
X14204524Y-11396762D01*
X14204524Y-11396762D02*
X14214048Y-11387238D01*
X14214048Y-11387238D02*
X14223571Y-11368190D01*
X14299762Y-11301524D02*
X14309286Y-11292000D01*
X14309286Y-11292000D02*
X14328333Y-11282476D01*
X14328333Y-11282476D02*
X14375952Y-11282476D01*
X14375952Y-11282476D02*
X14395000Y-11292000D01*
X14395000Y-11292000D02*
X14404524Y-11301524D01*
X14404524Y-11301524D02*
X14414048Y-11320571D01*
X14414048Y-11320571D02*
X14414048Y-11339619D01*
X14414048Y-11339619D02*
X14404524Y-11368190D01*
X14404524Y-11368190D02*
X14290238Y-11482476D01*
X14290238Y-11482476D02*
X14414048Y-11482476D01*
X14499762Y-11482476D02*
X14499762Y-11349143D01*
X14499762Y-11368190D02*
X14509286Y-11358667D01*
X14509286Y-11358667D02*
X14528333Y-11349143D01*
X14528333Y-11349143D02*
X14556905Y-11349143D01*
X14556905Y-11349143D02*
X14575952Y-11358667D01*
X14575952Y-11358667D02*
X14585476Y-11377714D01*
X14585476Y-11377714D02*
X14585476Y-11482476D01*
X14585476Y-11377714D02*
X14595000Y-11358667D01*
X14595000Y-11358667D02*
X14614048Y-11349143D01*
X14614048Y-11349143D02*
X14642619Y-11349143D01*
X14642619Y-11349143D02*
X14661667Y-11358667D01*
X14661667Y-11358667D02*
X14671190Y-11377714D01*
X14671190Y-11377714D02*
X14671190Y-11482476D01*
X14766429Y-11482476D02*
X14766429Y-11349143D01*
X14766429Y-11368190D02*
X14775952Y-11358667D01*
X14775952Y-11358667D02*
X14795000Y-11349143D01*
X14795000Y-11349143D02*
X14823571Y-11349143D01*
X14823571Y-11349143D02*
X14842619Y-11358667D01*
X14842619Y-11358667D02*
X14852143Y-11377714D01*
X14852143Y-11377714D02*
X14852143Y-11482476D01*
X14852143Y-11377714D02*
X14861667Y-11358667D01*
X14861667Y-11358667D02*
X14880714Y-11349143D01*
X14880714Y-11349143D02*
X14909286Y-11349143D01*
X14909286Y-11349143D02*
X14928333Y-11358667D01*
X14928333Y-11358667D02*
X14937857Y-11377714D01*
X14937857Y-11377714D02*
X14937857Y-11482476D01*
X15295952Y-11272952D02*
X15124524Y-11530095D01*
X15520714Y-11282476D02*
X15539762Y-11282476D01*
X15539762Y-11282476D02*
X15558810Y-11292000D01*
X15558810Y-11292000D02*
X15568333Y-11301524D01*
X15568333Y-11301524D02*
X15577857Y-11320571D01*
X15577857Y-11320571D02*
X15587381Y-11358667D01*
X15587381Y-11358667D02*
X15587381Y-11406286D01*
X15587381Y-11406286D02*
X15577857Y-11444381D01*
X15577857Y-11444381D02*
X15568333Y-11463428D01*
X15568333Y-11463428D02*
X15558810Y-11472952D01*
X15558810Y-11472952D02*
X15539762Y-11482476D01*
X15539762Y-11482476D02*
X15520714Y-11482476D01*
X15520714Y-11482476D02*
X15501667Y-11472952D01*
X15501667Y-11472952D02*
X15492143Y-11463428D01*
X15492143Y-11463428D02*
X15482619Y-11444381D01*
X15482619Y-11444381D02*
X15473095Y-11406286D01*
X15473095Y-11406286D02*
X15473095Y-11358667D01*
X15473095Y-11358667D02*
X15482619Y-11320571D01*
X15482619Y-11320571D02*
X15492143Y-11301524D01*
X15492143Y-11301524D02*
X15501667Y-11292000D01*
X15501667Y-11292000D02*
X15520714Y-11282476D01*
X15673095Y-11463428D02*
X15682619Y-11472952D01*
X15682619Y-11472952D02*
X15673095Y-11482476D01*
X15673095Y-11482476D02*
X15663571Y-11472952D01*
X15663571Y-11472952D02*
X15673095Y-11463428D01*
X15673095Y-11463428D02*
X15673095Y-11482476D01*
X15806429Y-11282476D02*
X15825476Y-11282476D01*
X15825476Y-11282476D02*
X15844524Y-11292000D01*
X15844524Y-11292000D02*
X15854048Y-11301524D01*
X15854048Y-11301524D02*
X15863571Y-11320571D01*
X15863571Y-11320571D02*
X15873095Y-11358667D01*
X15873095Y-11358667D02*
X15873095Y-11406286D01*
X15873095Y-11406286D02*
X15863571Y-11444381D01*
X15863571Y-11444381D02*
X15854048Y-11463428D01*
X15854048Y-11463428D02*
X15844524Y-11472952D01*
X15844524Y-11472952D02*
X15825476Y-11482476D01*
X15825476Y-11482476D02*
X15806429Y-11482476D01*
X15806429Y-11482476D02*
X15787381Y-11472952D01*
X15787381Y-11472952D02*
X15777857Y-11463428D01*
X15777857Y-11463428D02*
X15768333Y-11444381D01*
X15768333Y-11444381D02*
X15758810Y-11406286D01*
X15758810Y-11406286D02*
X15758810Y-11358667D01*
X15758810Y-11358667D02*
X15768333Y-11320571D01*
X15768333Y-11320571D02*
X15777857Y-11301524D01*
X15777857Y-11301524D02*
X15787381Y-11292000D01*
X15787381Y-11292000D02*
X15806429Y-11282476D01*
X15968333Y-11482476D02*
X16006429Y-11482476D01*
X16006429Y-11482476D02*
X16025476Y-11472952D01*
X16025476Y-11472952D02*
X16035000Y-11463428D01*
X16035000Y-11463428D02*
X16054048Y-11434857D01*
X16054048Y-11434857D02*
X16063571Y-11396762D01*
X16063571Y-11396762D02*
X16063571Y-11320571D01*
X16063571Y-11320571D02*
X16054048Y-11301524D01*
X16054048Y-11301524D02*
X16044524Y-11292000D01*
X16044524Y-11292000D02*
X16025476Y-11282476D01*
X16025476Y-11282476D02*
X15987381Y-11282476D01*
X15987381Y-11282476D02*
X15968333Y-11292000D01*
X15968333Y-11292000D02*
X15958810Y-11301524D01*
X15958810Y-11301524D02*
X15949286Y-11320571D01*
X15949286Y-11320571D02*
X15949286Y-11368190D01*
X15949286Y-11368190D02*
X15958810Y-11387238D01*
X15958810Y-11387238D02*
X15968333Y-11396762D01*
X15968333Y-11396762D02*
X15987381Y-11406286D01*
X15987381Y-11406286D02*
X16025476Y-11406286D01*
X16025476Y-11406286D02*
X16044524Y-11396762D01*
X16044524Y-11396762D02*
X16054048Y-11387238D01*
X16054048Y-11387238D02*
X16063571Y-11368190D01*
X16187381Y-11282476D02*
X16206429Y-11282476D01*
X16206429Y-11282476D02*
X16225476Y-11292000D01*
X16225476Y-11292000D02*
X16235000Y-11301524D01*
X16235000Y-11301524D02*
X16244524Y-11320571D01*
X16244524Y-11320571D02*
X16254048Y-11358667D01*
X16254048Y-11358667D02*
X16254048Y-11406286D01*
X16254048Y-11406286D02*
X16244524Y-11444381D01*
X16244524Y-11444381D02*
X16235000Y-11463428D01*
X16235000Y-11463428D02*
X16225476Y-11472952D01*
X16225476Y-11472952D02*
X16206429Y-11482476D01*
X16206429Y-11482476D02*
X16187381Y-11482476D01*
X16187381Y-11482476D02*
X16168333Y-11472952D01*
X16168333Y-11472952D02*
X16158810Y-11463428D01*
X16158810Y-11463428D02*
X16149286Y-11444381D01*
X16149286Y-11444381D02*
X16139762Y-11406286D01*
X16139762Y-11406286D02*
X16139762Y-11358667D01*
X16139762Y-11358667D02*
X16149286Y-11320571D01*
X16149286Y-11320571D02*
X16158810Y-11301524D01*
X16158810Y-11301524D02*
X16168333Y-11292000D01*
X16168333Y-11292000D02*
X16187381Y-11282476D01*
X16330238Y-11301524D02*
X16339762Y-11292000D01*
X16339762Y-11292000D02*
X16358810Y-11282476D01*
X16358810Y-11282476D02*
X16406429Y-11282476D01*
X16406429Y-11282476D02*
X16425476Y-11292000D01*
X16425476Y-11292000D02*
X16435000Y-11301524D01*
X16435000Y-11301524D02*
X16444524Y-11320571D01*
X16444524Y-11320571D02*
X16444524Y-11339619D01*
X16444524Y-11339619D02*
X16435000Y-11368190D01*
X16435000Y-11368190D02*
X16320714Y-11482476D01*
X16320714Y-11482476D02*
X16444524Y-11482476D01*
X16520714Y-11282476D02*
X16520714Y-11320571D01*
X16596905Y-11282476D02*
X16596905Y-11320571D01*
X16859762Y-11558667D02*
X16850238Y-11549143D01*
X16850238Y-11549143D02*
X16831191Y-11520571D01*
X16831191Y-11520571D02*
X16821667Y-11501524D01*
X16821667Y-11501524D02*
X16812143Y-11472952D01*
X16812143Y-11472952D02*
X16802619Y-11425333D01*
X16802619Y-11425333D02*
X16802619Y-11387238D01*
X16802619Y-11387238D02*
X16812143Y-11339619D01*
X16812143Y-11339619D02*
X16821667Y-11311048D01*
X16821667Y-11311048D02*
X16831191Y-11292000D01*
X16831191Y-11292000D02*
X16850238Y-11263428D01*
X16850238Y-11263428D02*
X16859762Y-11253905D01*
X16926429Y-11301524D02*
X16935953Y-11292000D01*
X16935953Y-11292000D02*
X16955000Y-11282476D01*
X16955000Y-11282476D02*
X17002619Y-11282476D01*
X17002619Y-11282476D02*
X17021667Y-11292000D01*
X17021667Y-11292000D02*
X17031191Y-11301524D01*
X17031191Y-11301524D02*
X17040714Y-11320571D01*
X17040714Y-11320571D02*
X17040714Y-11339619D01*
X17040714Y-11339619D02*
X17031191Y-11368190D01*
X17031191Y-11368190D02*
X16916905Y-11482476D01*
X16916905Y-11482476D02*
X17040714Y-11482476D01*
X17246429Y-11482476D02*
X17246429Y-11282476D01*
X17332143Y-11482476D02*
X17332143Y-11377714D01*
X17332143Y-11377714D02*
X17322619Y-11358667D01*
X17322619Y-11358667D02*
X17303572Y-11349143D01*
X17303572Y-11349143D02*
X17275000Y-11349143D01*
X17275000Y-11349143D02*
X17255953Y-11358667D01*
X17255953Y-11358667D02*
X17246429Y-11368190D01*
X17455953Y-11482476D02*
X17436905Y-11472952D01*
X17436905Y-11472952D02*
X17427381Y-11463428D01*
X17427381Y-11463428D02*
X17417857Y-11444381D01*
X17417857Y-11444381D02*
X17417857Y-11387238D01*
X17417857Y-11387238D02*
X17427381Y-11368190D01*
X17427381Y-11368190D02*
X17436905Y-11358667D01*
X17436905Y-11358667D02*
X17455953Y-11349143D01*
X17455953Y-11349143D02*
X17484524Y-11349143D01*
X17484524Y-11349143D02*
X17503572Y-11358667D01*
X17503572Y-11358667D02*
X17513095Y-11368190D01*
X17513095Y-11368190D02*
X17522619Y-11387238D01*
X17522619Y-11387238D02*
X17522619Y-11444381D01*
X17522619Y-11444381D02*
X17513095Y-11463428D01*
X17513095Y-11463428D02*
X17503572Y-11472952D01*
X17503572Y-11472952D02*
X17484524Y-11482476D01*
X17484524Y-11482476D02*
X17455953Y-11482476D01*
X17636905Y-11482476D02*
X17617857Y-11472952D01*
X17617857Y-11472952D02*
X17608334Y-11453905D01*
X17608334Y-11453905D02*
X17608334Y-11282476D01*
X17789286Y-11472952D02*
X17770238Y-11482476D01*
X17770238Y-11482476D02*
X17732143Y-11482476D01*
X17732143Y-11482476D02*
X17713095Y-11472952D01*
X17713095Y-11472952D02*
X17703572Y-11453905D01*
X17703572Y-11453905D02*
X17703572Y-11377714D01*
X17703572Y-11377714D02*
X17713095Y-11358667D01*
X17713095Y-11358667D02*
X17732143Y-11349143D01*
X17732143Y-11349143D02*
X17770238Y-11349143D01*
X17770238Y-11349143D02*
X17789286Y-11358667D01*
X17789286Y-11358667D02*
X17798810Y-11377714D01*
X17798810Y-11377714D02*
X17798810Y-11396762D01*
X17798810Y-11396762D02*
X17703572Y-11415809D01*
X17875000Y-11472952D02*
X17894048Y-11482476D01*
X17894048Y-11482476D02*
X17932143Y-11482476D01*
X17932143Y-11482476D02*
X17951191Y-11472952D01*
X17951191Y-11472952D02*
X17960715Y-11453905D01*
X17960715Y-11453905D02*
X17960715Y-11444381D01*
X17960715Y-11444381D02*
X17951191Y-11425333D01*
X17951191Y-11425333D02*
X17932143Y-11415809D01*
X17932143Y-11415809D02*
X17903572Y-11415809D01*
X17903572Y-11415809D02*
X17884524Y-11406286D01*
X17884524Y-11406286D02*
X17875000Y-11387238D01*
X17875000Y-11387238D02*
X17875000Y-11377714D01*
X17875000Y-11377714D02*
X17884524Y-11358667D01*
X17884524Y-11358667D02*
X17903572Y-11349143D01*
X17903572Y-11349143D02*
X17932143Y-11349143D01*
X17932143Y-11349143D02*
X17951191Y-11358667D01*
X18027381Y-11558667D02*
X18036905Y-11549143D01*
X18036905Y-11549143D02*
X18055953Y-11520571D01*
X18055953Y-11520571D02*
X18065476Y-11501524D01*
X18065476Y-11501524D02*
X18075000Y-11472952D01*
X18075000Y-11472952D02*
X18084524Y-11425333D01*
X18084524Y-11425333D02*
X18084524Y-11387238D01*
X18084524Y-11387238D02*
X18075000Y-11339619D01*
X18075000Y-11339619D02*
X18065476Y-11311048D01*
X18065476Y-11311048D02*
X18055953Y-11292000D01*
X18055953Y-11292000D02*
X18036905Y-11263428D01*
X18036905Y-11263428D02*
X18027381Y-11253905D01*
X13295000Y-11629000D02*
X13295000Y-11829000D01*
X13195000Y-11729000D02*
X13395000Y-11729000D01*
X13633095Y-11621524D02*
X13642619Y-11612000D01*
X13642619Y-11612000D02*
X13661667Y-11602476D01*
X13661667Y-11602476D02*
X13709286Y-11602476D01*
X13709286Y-11602476D02*
X13728333Y-11612000D01*
X13728333Y-11612000D02*
X13737857Y-11621524D01*
X13737857Y-11621524D02*
X13747381Y-11640571D01*
X13747381Y-11640571D02*
X13747381Y-11659619D01*
X13747381Y-11659619D02*
X13737857Y-11688190D01*
X13737857Y-11688190D02*
X13623571Y-11802476D01*
X13623571Y-11802476D02*
X13747381Y-11802476D01*
X13833095Y-11783428D02*
X13842619Y-11792952D01*
X13842619Y-11792952D02*
X13833095Y-11802476D01*
X13833095Y-11802476D02*
X13823571Y-11792952D01*
X13823571Y-11792952D02*
X13833095Y-11783428D01*
X13833095Y-11783428D02*
X13833095Y-11802476D01*
X14014048Y-11602476D02*
X13975952Y-11602476D01*
X13975952Y-11602476D02*
X13956905Y-11612000D01*
X13956905Y-11612000D02*
X13947381Y-11621524D01*
X13947381Y-11621524D02*
X13928333Y-11650095D01*
X13928333Y-11650095D02*
X13918809Y-11688190D01*
X13918809Y-11688190D02*
X13918809Y-11764381D01*
X13918809Y-11764381D02*
X13928333Y-11783428D01*
X13928333Y-11783428D02*
X13937857Y-11792952D01*
X13937857Y-11792952D02*
X13956905Y-11802476D01*
X13956905Y-11802476D02*
X13995000Y-11802476D01*
X13995000Y-11802476D02*
X14014048Y-11792952D01*
X14014048Y-11792952D02*
X14023571Y-11783428D01*
X14023571Y-11783428D02*
X14033095Y-11764381D01*
X14033095Y-11764381D02*
X14033095Y-11716762D01*
X14033095Y-11716762D02*
X14023571Y-11697714D01*
X14023571Y-11697714D02*
X14014048Y-11688190D01*
X14014048Y-11688190D02*
X13995000Y-11678667D01*
X13995000Y-11678667D02*
X13956905Y-11678667D01*
X13956905Y-11678667D02*
X13937857Y-11688190D01*
X13937857Y-11688190D02*
X13928333Y-11697714D01*
X13928333Y-11697714D02*
X13918809Y-11716762D01*
X14128333Y-11802476D02*
X14166428Y-11802476D01*
X14166428Y-11802476D02*
X14185476Y-11792952D01*
X14185476Y-11792952D02*
X14195000Y-11783428D01*
X14195000Y-11783428D02*
X14214048Y-11754857D01*
X14214048Y-11754857D02*
X14223571Y-11716762D01*
X14223571Y-11716762D02*
X14223571Y-11640571D01*
X14223571Y-11640571D02*
X14214048Y-11621524D01*
X14214048Y-11621524D02*
X14204524Y-11612000D01*
X14204524Y-11612000D02*
X14185476Y-11602476D01*
X14185476Y-11602476D02*
X14147381Y-11602476D01*
X14147381Y-11602476D02*
X14128333Y-11612000D01*
X14128333Y-11612000D02*
X14118809Y-11621524D01*
X14118809Y-11621524D02*
X14109286Y-11640571D01*
X14109286Y-11640571D02*
X14109286Y-11688190D01*
X14109286Y-11688190D02*
X14118809Y-11707238D01*
X14118809Y-11707238D02*
X14128333Y-11716762D01*
X14128333Y-11716762D02*
X14147381Y-11726286D01*
X14147381Y-11726286D02*
X14185476Y-11726286D01*
X14185476Y-11726286D02*
X14204524Y-11716762D01*
X14204524Y-11716762D02*
X14214048Y-11707238D01*
X14214048Y-11707238D02*
X14223571Y-11688190D01*
X14290238Y-11602476D02*
X14414048Y-11602476D01*
X14414048Y-11602476D02*
X14347381Y-11678667D01*
X14347381Y-11678667D02*
X14375952Y-11678667D01*
X14375952Y-11678667D02*
X14395000Y-11688190D01*
X14395000Y-11688190D02*
X14404524Y-11697714D01*
X14404524Y-11697714D02*
X14414048Y-11716762D01*
X14414048Y-11716762D02*
X14414048Y-11764381D01*
X14414048Y-11764381D02*
X14404524Y-11783428D01*
X14404524Y-11783428D02*
X14395000Y-11792952D01*
X14395000Y-11792952D02*
X14375952Y-11802476D01*
X14375952Y-11802476D02*
X14318809Y-11802476D01*
X14318809Y-11802476D02*
X14299762Y-11792952D01*
X14299762Y-11792952D02*
X14290238Y-11783428D01*
X14499762Y-11802476D02*
X14499762Y-11669143D01*
X14499762Y-11688190D02*
X14509286Y-11678667D01*
X14509286Y-11678667D02*
X14528333Y-11669143D01*
X14528333Y-11669143D02*
X14556905Y-11669143D01*
X14556905Y-11669143D02*
X14575952Y-11678667D01*
X14575952Y-11678667D02*
X14585476Y-11697714D01*
X14585476Y-11697714D02*
X14585476Y-11802476D01*
X14585476Y-11697714D02*
X14595000Y-11678667D01*
X14595000Y-11678667D02*
X14614048Y-11669143D01*
X14614048Y-11669143D02*
X14642619Y-11669143D01*
X14642619Y-11669143D02*
X14661667Y-11678667D01*
X14661667Y-11678667D02*
X14671190Y-11697714D01*
X14671190Y-11697714D02*
X14671190Y-11802476D01*
X14766429Y-11802476D02*
X14766429Y-11669143D01*
X14766429Y-11688190D02*
X14775952Y-11678667D01*
X14775952Y-11678667D02*
X14795000Y-11669143D01*
X14795000Y-11669143D02*
X14823571Y-11669143D01*
X14823571Y-11669143D02*
X14842619Y-11678667D01*
X14842619Y-11678667D02*
X14852143Y-11697714D01*
X14852143Y-11697714D02*
X14852143Y-11802476D01*
X14852143Y-11697714D02*
X14861667Y-11678667D01*
X14861667Y-11678667D02*
X14880714Y-11669143D01*
X14880714Y-11669143D02*
X14909286Y-11669143D01*
X14909286Y-11669143D02*
X14928333Y-11678667D01*
X14928333Y-11678667D02*
X14937857Y-11697714D01*
X14937857Y-11697714D02*
X14937857Y-11802476D01*
X15295952Y-11592952D02*
X15124524Y-11850095D01*
X15520714Y-11602476D02*
X15539762Y-11602476D01*
X15539762Y-11602476D02*
X15558810Y-11612000D01*
X15558810Y-11612000D02*
X15568333Y-11621524D01*
X15568333Y-11621524D02*
X15577857Y-11640571D01*
X15577857Y-11640571D02*
X15587381Y-11678667D01*
X15587381Y-11678667D02*
X15587381Y-11726286D01*
X15587381Y-11726286D02*
X15577857Y-11764381D01*
X15577857Y-11764381D02*
X15568333Y-11783428D01*
X15568333Y-11783428D02*
X15558810Y-11792952D01*
X15558810Y-11792952D02*
X15539762Y-11802476D01*
X15539762Y-11802476D02*
X15520714Y-11802476D01*
X15520714Y-11802476D02*
X15501667Y-11792952D01*
X15501667Y-11792952D02*
X15492143Y-11783428D01*
X15492143Y-11783428D02*
X15482619Y-11764381D01*
X15482619Y-11764381D02*
X15473095Y-11726286D01*
X15473095Y-11726286D02*
X15473095Y-11678667D01*
X15473095Y-11678667D02*
X15482619Y-11640571D01*
X15482619Y-11640571D02*
X15492143Y-11621524D01*
X15492143Y-11621524D02*
X15501667Y-11612000D01*
X15501667Y-11612000D02*
X15520714Y-11602476D01*
X15673095Y-11783428D02*
X15682619Y-11792952D01*
X15682619Y-11792952D02*
X15673095Y-11802476D01*
X15673095Y-11802476D02*
X15663571Y-11792952D01*
X15663571Y-11792952D02*
X15673095Y-11783428D01*
X15673095Y-11783428D02*
X15673095Y-11802476D01*
X15873095Y-11802476D02*
X15758810Y-11802476D01*
X15815952Y-11802476D02*
X15815952Y-11602476D01*
X15815952Y-11602476D02*
X15796905Y-11631048D01*
X15796905Y-11631048D02*
X15777857Y-11650095D01*
X15777857Y-11650095D02*
X15758810Y-11659619D01*
X15996905Y-11602476D02*
X16015952Y-11602476D01*
X16015952Y-11602476D02*
X16035000Y-11612000D01*
X16035000Y-11612000D02*
X16044524Y-11621524D01*
X16044524Y-11621524D02*
X16054048Y-11640571D01*
X16054048Y-11640571D02*
X16063571Y-11678667D01*
X16063571Y-11678667D02*
X16063571Y-11726286D01*
X16063571Y-11726286D02*
X16054048Y-11764381D01*
X16054048Y-11764381D02*
X16044524Y-11783428D01*
X16044524Y-11783428D02*
X16035000Y-11792952D01*
X16035000Y-11792952D02*
X16015952Y-11802476D01*
X16015952Y-11802476D02*
X15996905Y-11802476D01*
X15996905Y-11802476D02*
X15977857Y-11792952D01*
X15977857Y-11792952D02*
X15968333Y-11783428D01*
X15968333Y-11783428D02*
X15958810Y-11764381D01*
X15958810Y-11764381D02*
X15949286Y-11726286D01*
X15949286Y-11726286D02*
X15949286Y-11678667D01*
X15949286Y-11678667D02*
X15958810Y-11640571D01*
X15958810Y-11640571D02*
X15968333Y-11621524D01*
X15968333Y-11621524D02*
X15977857Y-11612000D01*
X15977857Y-11612000D02*
X15996905Y-11602476D01*
X16235000Y-11602476D02*
X16196905Y-11602476D01*
X16196905Y-11602476D02*
X16177857Y-11612000D01*
X16177857Y-11612000D02*
X16168333Y-11621524D01*
X16168333Y-11621524D02*
X16149286Y-11650095D01*
X16149286Y-11650095D02*
X16139762Y-11688190D01*
X16139762Y-11688190D02*
X16139762Y-11764381D01*
X16139762Y-11764381D02*
X16149286Y-11783428D01*
X16149286Y-11783428D02*
X16158810Y-11792952D01*
X16158810Y-11792952D02*
X16177857Y-11802476D01*
X16177857Y-11802476D02*
X16215952Y-11802476D01*
X16215952Y-11802476D02*
X16235000Y-11792952D01*
X16235000Y-11792952D02*
X16244524Y-11783428D01*
X16244524Y-11783428D02*
X16254048Y-11764381D01*
X16254048Y-11764381D02*
X16254048Y-11716762D01*
X16254048Y-11716762D02*
X16244524Y-11697714D01*
X16244524Y-11697714D02*
X16235000Y-11688190D01*
X16235000Y-11688190D02*
X16215952Y-11678667D01*
X16215952Y-11678667D02*
X16177857Y-11678667D01*
X16177857Y-11678667D02*
X16158810Y-11688190D01*
X16158810Y-11688190D02*
X16149286Y-11697714D01*
X16149286Y-11697714D02*
X16139762Y-11716762D01*
X16377857Y-11602476D02*
X16396905Y-11602476D01*
X16396905Y-11602476D02*
X16415952Y-11612000D01*
X16415952Y-11612000D02*
X16425476Y-11621524D01*
X16425476Y-11621524D02*
X16435000Y-11640571D01*
X16435000Y-11640571D02*
X16444524Y-11678667D01*
X16444524Y-11678667D02*
X16444524Y-11726286D01*
X16444524Y-11726286D02*
X16435000Y-11764381D01*
X16435000Y-11764381D02*
X16425476Y-11783428D01*
X16425476Y-11783428D02*
X16415952Y-11792952D01*
X16415952Y-11792952D02*
X16396905Y-11802476D01*
X16396905Y-11802476D02*
X16377857Y-11802476D01*
X16377857Y-11802476D02*
X16358810Y-11792952D01*
X16358810Y-11792952D02*
X16349286Y-11783428D01*
X16349286Y-11783428D02*
X16339762Y-11764381D01*
X16339762Y-11764381D02*
X16330238Y-11726286D01*
X16330238Y-11726286D02*
X16330238Y-11678667D01*
X16330238Y-11678667D02*
X16339762Y-11640571D01*
X16339762Y-11640571D02*
X16349286Y-11621524D01*
X16349286Y-11621524D02*
X16358810Y-11612000D01*
X16358810Y-11612000D02*
X16377857Y-11602476D01*
X16520714Y-11602476D02*
X16520714Y-11640571D01*
X16596905Y-11602476D02*
X16596905Y-11640571D01*
X16859762Y-11878667D02*
X16850238Y-11869143D01*
X16850238Y-11869143D02*
X16831191Y-11840571D01*
X16831191Y-11840571D02*
X16821667Y-11821524D01*
X16821667Y-11821524D02*
X16812143Y-11792952D01*
X16812143Y-11792952D02*
X16802619Y-11745333D01*
X16802619Y-11745333D02*
X16802619Y-11707238D01*
X16802619Y-11707238D02*
X16812143Y-11659619D01*
X16812143Y-11659619D02*
X16821667Y-11631048D01*
X16821667Y-11631048D02*
X16831191Y-11612000D01*
X16831191Y-11612000D02*
X16850238Y-11583428D01*
X16850238Y-11583428D02*
X16859762Y-11573905D01*
X16926429Y-11621524D02*
X16935953Y-11612000D01*
X16935953Y-11612000D02*
X16955000Y-11602476D01*
X16955000Y-11602476D02*
X17002619Y-11602476D01*
X17002619Y-11602476D02*
X17021667Y-11612000D01*
X17021667Y-11612000D02*
X17031191Y-11621524D01*
X17031191Y-11621524D02*
X17040714Y-11640571D01*
X17040714Y-11640571D02*
X17040714Y-11659619D01*
X17040714Y-11659619D02*
X17031191Y-11688190D01*
X17031191Y-11688190D02*
X16916905Y-11802476D01*
X16916905Y-11802476D02*
X17040714Y-11802476D01*
X17246429Y-11802476D02*
X17246429Y-11602476D01*
X17332143Y-11802476D02*
X17332143Y-11697714D01*
X17332143Y-11697714D02*
X17322619Y-11678667D01*
X17322619Y-11678667D02*
X17303572Y-11669143D01*
X17303572Y-11669143D02*
X17275000Y-11669143D01*
X17275000Y-11669143D02*
X17255953Y-11678667D01*
X17255953Y-11678667D02*
X17246429Y-11688190D01*
X17455953Y-11802476D02*
X17436905Y-11792952D01*
X17436905Y-11792952D02*
X17427381Y-11783428D01*
X17427381Y-11783428D02*
X17417857Y-11764381D01*
X17417857Y-11764381D02*
X17417857Y-11707238D01*
X17417857Y-11707238D02*
X17427381Y-11688190D01*
X17427381Y-11688190D02*
X17436905Y-11678667D01*
X17436905Y-11678667D02*
X17455953Y-11669143D01*
X17455953Y-11669143D02*
X17484524Y-11669143D01*
X17484524Y-11669143D02*
X17503572Y-11678667D01*
X17503572Y-11678667D02*
X17513095Y-11688190D01*
X17513095Y-11688190D02*
X17522619Y-11707238D01*
X17522619Y-11707238D02*
X17522619Y-11764381D01*
X17522619Y-11764381D02*
X17513095Y-11783428D01*
X17513095Y-11783428D02*
X17503572Y-11792952D01*
X17503572Y-11792952D02*
X17484524Y-11802476D01*
X17484524Y-11802476D02*
X17455953Y-11802476D01*
X17636905Y-11802476D02*
X17617857Y-11792952D01*
X17617857Y-11792952D02*
X17608334Y-11773905D01*
X17608334Y-11773905D02*
X17608334Y-11602476D01*
X17789286Y-11792952D02*
X17770238Y-11802476D01*
X17770238Y-11802476D02*
X17732143Y-11802476D01*
X17732143Y-11802476D02*
X17713095Y-11792952D01*
X17713095Y-11792952D02*
X17703572Y-11773905D01*
X17703572Y-11773905D02*
X17703572Y-11697714D01*
X17703572Y-11697714D02*
X17713095Y-11678667D01*
X17713095Y-11678667D02*
X17732143Y-11669143D01*
X17732143Y-11669143D02*
X17770238Y-11669143D01*
X17770238Y-11669143D02*
X17789286Y-11678667D01*
X17789286Y-11678667D02*
X17798810Y-11697714D01*
X17798810Y-11697714D02*
X17798810Y-11716762D01*
X17798810Y-11716762D02*
X17703572Y-11735809D01*
X17875000Y-11792952D02*
X17894048Y-11802476D01*
X17894048Y-11802476D02*
X17932143Y-11802476D01*
X17932143Y-11802476D02*
X17951191Y-11792952D01*
X17951191Y-11792952D02*
X17960715Y-11773905D01*
X17960715Y-11773905D02*
X17960715Y-11764381D01*
X17960715Y-11764381D02*
X17951191Y-11745333D01*
X17951191Y-11745333D02*
X17932143Y-11735809D01*
X17932143Y-11735809D02*
X17903572Y-11735809D01*
X17903572Y-11735809D02*
X17884524Y-11726286D01*
X17884524Y-11726286D02*
X17875000Y-11707238D01*
X17875000Y-11707238D02*
X17875000Y-11697714D01*
X17875000Y-11697714D02*
X17884524Y-11678667D01*
X17884524Y-11678667D02*
X17903572Y-11669143D01*
X17903572Y-11669143D02*
X17932143Y-11669143D01*
X17932143Y-11669143D02*
X17951191Y-11678667D01*
X18027381Y-11878667D02*
X18036905Y-11869143D01*
X18036905Y-11869143D02*
X18055953Y-11840571D01*
X18055953Y-11840571D02*
X18065476Y-11821524D01*
X18065476Y-11821524D02*
X18075000Y-11792952D01*
X18075000Y-11792952D02*
X18084524Y-11745333D01*
X18084524Y-11745333D02*
X18084524Y-11707238D01*
X18084524Y-11707238D02*
X18075000Y-11659619D01*
X18075000Y-11659619D02*
X18065476Y-11631048D01*
X18065476Y-11631048D02*
X18055953Y-11612000D01*
X18055953Y-11612000D02*
X18036905Y-11583428D01*
X18036905Y-11583428D02*
X18027381Y-11573905D01*
M02*
