%TF.GenerationSoftware,KiCad,Pcbnew,7.0.0-da2b9df05c~163~ubuntu22.04.1*%
%TF.CreationDate,2023-02-20T00:02:51+00:00*%
%TF.ProjectId,levelshifter,6c657665-6c73-4686-9966-7465722e6b69,rev?*%
%TF.SameCoordinates,Original*%
%TF.FileFunction,Copper,L1,Top*%
%TF.FilePolarity,Positive*%
%FSLAX46Y46*%
G04 Gerber Fmt 4.6, Leading zero omitted, Abs format (unit mm)*
G04 Created by KiCad (PCBNEW 7.0.0-da2b9df05c~163~ubuntu22.04.1) date 2023-02-20 00:02:51*
%MOMM*%
%LPD*%
G01*
G04 APERTURE LIST*
G04 Aperture macros list*
%AMRoundRect*
0 Rectangle with rounded corners*
0 $1 Rounding radius*
0 $2 $3 $4 $5 $6 $7 $8 $9 X,Y pos of 4 corners*
0 Add a 4 corners polygon primitive as box body*
4,1,4,$2,$3,$4,$5,$6,$7,$8,$9,$2,$3,0*
0 Add four circle primitives for the rounded corners*
1,1,$1+$1,$2,$3*
1,1,$1+$1,$4,$5*
1,1,$1+$1,$6,$7*
1,1,$1+$1,$8,$9*
0 Add four rect primitives between the rounded corners*
20,1,$1+$1,$2,$3,$4,$5,0*
20,1,$1+$1,$4,$5,$6,$7,0*
20,1,$1+$1,$6,$7,$8,$9,0*
20,1,$1+$1,$8,$9,$2,$3,0*%
G04 Aperture macros list end*
%TA.AperFunction,SMDPad,CuDef*%
%ADD10R,1.500000X2.200000*%
%TD*%
%TA.AperFunction,SMDPad,CuDef*%
%ADD11R,3.800000X2.200000*%
%TD*%
%TA.AperFunction,SMDPad,CuDef*%
%ADD12R,2.600000X0.900000*%
%TD*%
%TA.AperFunction,SMDPad,CuDef*%
%ADD13R,2.150000X0.900000*%
%TD*%
%TA.AperFunction,ComponentPad*%
%ADD14C,3.438000*%
%TD*%
%TA.AperFunction,SMDPad,CuDef*%
%ADD15R,1.800000X0.700000*%
%TD*%
%TA.AperFunction,ComponentPad*%
%ADD16C,3.800000*%
%TD*%
%TA.AperFunction,SMDPad,CuDef*%
%ADD17R,1.475000X0.450000*%
%TD*%
%TA.AperFunction,SMDPad,CuDef*%
%ADD18RoundRect,0.250000X-0.250000X-0.475000X0.250000X-0.475000X0.250000X0.475000X-0.250000X0.475000X0*%
%TD*%
%TA.AperFunction,SMDPad,CuDef*%
%ADD19RoundRect,0.250000X0.250000X0.475000X-0.250000X0.475000X-0.250000X-0.475000X0.250000X-0.475000X0*%
%TD*%
%TA.AperFunction,SMDPad,CuDef*%
%ADD20RoundRect,0.250000X0.475000X-0.250000X0.475000X0.250000X-0.475000X0.250000X-0.475000X-0.250000X0*%
%TD*%
%TA.AperFunction,ViaPad*%
%ADD21C,0.800000*%
%TD*%
%TA.AperFunction,Conductor*%
%ADD22C,0.400000*%
%TD*%
%TA.AperFunction,Conductor*%
%ADD23C,0.250000*%
%TD*%
%TA.AperFunction,Conductor*%
%ADD24C,0.600000*%
%TD*%
%TA.AperFunction,Conductor*%
%ADD25C,0.500000*%
%TD*%
%TA.AperFunction,Conductor*%
%ADD26C,0.450000*%
%TD*%
%TA.AperFunction,Conductor*%
%ADD27C,0.550000*%
%TD*%
G04 APERTURE END LIST*
D10*
%TO.P,U1,3,VIN*%
%TO.N,/V5*%
X146035999Y-95655999D03*
%TO.P,U1,2,VOUT*%
%TO.N,/V3*%
X148335999Y-95655999D03*
%TO.P,U1,1,GND*%
%TO.N,GND*%
X150635999Y-95655999D03*
D11*
%TO.P,U1,4,VOUT*%
%TO.N,/V3*%
X148335999Y-101955999D03*
%TD*%
D12*
%TO.P,J2,1,VBUS*%
%TO.N,/V5*%
X157966499Y-94225999D03*
%TO.P,J2,2,D-*%
%TO.N,/B3*%
X157966499Y-91725999D03*
%TO.P,J2,3,D+*%
%TO.N,/B5*%
X157966499Y-89225999D03*
%TO.P,J2,4,GND*%
%TO.N,GND*%
X157966499Y-86725999D03*
D13*
%TO.P,J2,5,STDA_SSRX*%
%TO.N,/B7*%
X157741499Y-85475999D03*
%TO.P,J2,6,STDA_SSRX+*%
%TO.N,/B6*%
X157741499Y-87975999D03*
%TO.P,J2,7,GND_DRAIN*%
%TO.N,/B4*%
X157741499Y-90475999D03*
%TO.P,J2,8,STDA_SSTX*%
%TO.N,/B2*%
X157741499Y-92975999D03*
%TO.P,J2,9,STDA_SSTX+*%
%TO.N,/B1*%
X157741499Y-95475999D03*
D14*
%TO.P,J2,MH1,MH1*%
%TO.N,GND*%
X163186500Y-97276000D03*
%TO.P,J2,MH2,MH2*%
X163186500Y-83676000D03*
%TD*%
D15*
%TO.P,J1,1,1*%
%TO.N,/V5*%
X138926999Y-93599999D03*
%TO.P,J1,2,2*%
%TO.N,/A3*%
X138926999Y-91599999D03*
%TO.P,J1,3,3*%
%TO.N,/A5*%
X138926999Y-89599999D03*
%TO.P,J1,4,4*%
%TO.N,GND*%
X138926999Y-87599999D03*
%TO.P,J1,5,5*%
%TO.N,/A7*%
X138926999Y-86599999D03*
%TO.P,J1,6,6*%
%TO.N,/A6*%
X138926999Y-88599999D03*
%TO.P,J1,7,7*%
%TO.N,/A4*%
X138926999Y-90599999D03*
%TO.P,J1,8,8*%
%TO.N,/A2*%
X138926999Y-92599999D03*
%TO.P,J1,9,9*%
%TO.N,/A1*%
X138926999Y-94599999D03*
D16*
%TO.P,J1,10,10*%
%TO.N,GND*%
X136477000Y-84750000D03*
%TO.P,J1,11,11*%
X136477000Y-96450000D03*
%TD*%
D17*
%TO.P,IC1,1,A1*%
%TO.N,/A7*%
X145405999Y-83486999D03*
%TO.P,IC1,2,VCCA*%
%TO.N,/V3*%
X145405999Y-84136999D03*
%TO.P,IC1,3,A2*%
%TO.N,/A6*%
X145405999Y-84786999D03*
%TO.P,IC1,4,A3*%
%TO.N,/A5*%
X145405999Y-85436999D03*
%TO.P,IC1,5,A4*%
%TO.N,/A4*%
X145405999Y-86086999D03*
%TO.P,IC1,6,A5*%
%TO.N,/A3*%
X145405999Y-86736999D03*
%TO.P,IC1,7,A6*%
%TO.N,/A2*%
X145405999Y-87386999D03*
%TO.P,IC1,8,A7*%
%TO.N,/A1*%
X145405999Y-88036999D03*
%TO.P,IC1,9,A8*%
%TO.N,GND*%
X145405999Y-88686999D03*
%TO.P,IC1,10,OE*%
%TO.N,/V3*%
X145405999Y-89336999D03*
%TO.P,IC1,11,GND*%
%TO.N,GND*%
X151281999Y-89336999D03*
%TO.P,IC1,12,B8*%
X151281999Y-88686999D03*
%TO.P,IC1,13,B7*%
%TO.N,/B1*%
X151281999Y-88036999D03*
%TO.P,IC1,14,B6*%
%TO.N,/B2*%
X151281999Y-87386999D03*
%TO.P,IC1,15,B5*%
%TO.N,/B3*%
X151281999Y-86736999D03*
%TO.P,IC1,16,B4*%
%TO.N,/B4*%
X151281999Y-86086999D03*
%TO.P,IC1,17,B3*%
%TO.N,/B5*%
X151281999Y-85436999D03*
%TO.P,IC1,18,B2*%
%TO.N,/B6*%
X151281999Y-84786999D03*
%TO.P,IC1,19,VCCB*%
%TO.N,/V5*%
X151281999Y-84136999D03*
%TO.P,IC1,20,B1*%
%TO.N,/B7*%
X151281999Y-83486999D03*
%TD*%
D18*
%TO.P,C4,1*%
%TO.N,/V3*%
X145362000Y-81332000D03*
%TO.P,C4,2*%
%TO.N,GND*%
X147262000Y-81332000D03*
%TD*%
D19*
%TO.P,C3,1*%
%TO.N,/V5*%
X151326000Y-81332000D03*
%TO.P,C3,2*%
%TO.N,GND*%
X149426000Y-81332000D03*
%TD*%
D20*
%TO.P,C2,1*%
%TO.N,/V3*%
X147828000Y-93406000D03*
%TO.P,C2,2*%
%TO.N,GND*%
X147828000Y-91506000D03*
%TD*%
%TO.P,C1,1*%
%TO.N,/V5*%
X144780000Y-93406000D03*
%TO.P,C1,2*%
%TO.N,GND*%
X144780000Y-91506000D03*
%TD*%
D21*
%TO.N,GND*%
X152400000Y-95758000D03*
%TO.N,/V5*%
X146050002Y-93726000D03*
X151638000Y-93726000D03*
%TO.N,GND*%
X144272025Y-90106573D03*
X152908000Y-89916000D03*
%TO.N,/V5*%
X141474054Y-93722054D03*
X155448000Y-94234000D03*
%TO.N,GND*%
X148330000Y-81332000D03*
%TD*%
D22*
%TO.N,/V3*%
X145362000Y-81332000D02*
X146468500Y-82438500D01*
X146468500Y-82438500D02*
X146468500Y-82862000D01*
X146468500Y-82862000D02*
X146543500Y-82937000D01*
X146543500Y-82937000D02*
X146543500Y-84134500D01*
X146543500Y-84134500D02*
X146468500Y-84209500D01*
%TO.N,/V5*%
X151326000Y-81332000D02*
X150114000Y-82544000D01*
X150114000Y-82544000D02*
X150114000Y-83900000D01*
X150114000Y-83900000D02*
X150219500Y-84005500D01*
%TO.N,/V3*%
X146421000Y-89337000D02*
X146812000Y-88946000D01*
X146812000Y-88946000D02*
X146812000Y-84640000D01*
X146812000Y-84640000D02*
X146309000Y-84137000D01*
X146309000Y-84137000D02*
X145406000Y-84137000D01*
%TO.N,/V5*%
X151580000Y-93668000D02*
X151580000Y-91492000D01*
X151580000Y-91492000D02*
X150114000Y-90026000D01*
X150114000Y-90026000D02*
X150114000Y-84374000D01*
X150114000Y-84374000D02*
X150351000Y-84137000D01*
%TO.N,GND*%
X147828000Y-91506000D02*
X148778000Y-91506000D01*
%TO.N,/V3*%
X146421000Y-89337000D02*
X146421000Y-91999000D01*
X146421000Y-91999000D02*
X147828000Y-93406000D01*
D23*
X148082000Y-93406000D02*
X148336000Y-93660000D01*
X147828000Y-93406000D02*
X148082000Y-93406000D01*
D22*
%TO.N,/V5*%
X144780000Y-93406000D02*
X145730002Y-93406000D01*
X145730002Y-93406000D02*
X146050002Y-93726000D01*
%TO.N,GND*%
X144780000Y-91506000D02*
X144780000Y-90614548D01*
X144780000Y-90614548D02*
X144272025Y-90106573D01*
D24*
X148336000Y-82804000D02*
X148336000Y-81338000D01*
X148336000Y-81338000D02*
X148330000Y-81332000D01*
X148336000Y-82804000D02*
X149098000Y-83566000D01*
X149098000Y-83566000D02*
X149098000Y-91186000D01*
D22*
%TO.N,/V3*%
X148336000Y-93660000D02*
X148336000Y-95656000D01*
D24*
%TO.N,GND*%
X149098000Y-91186000D02*
X149098000Y-93768000D01*
X149098000Y-93768000D02*
X150636000Y-95306000D01*
D23*
%TO.N,/V5*%
X151638000Y-93726000D02*
X151580000Y-93668000D01*
%TO.N,GND*%
X150636000Y-95306000D02*
X150636000Y-95656000D01*
D25*
X137402000Y-85675000D02*
X137527000Y-85800000D01*
X137527000Y-85800000D02*
X137527000Y-90424000D01*
X150636000Y-95656000D02*
X152298000Y-95656000D01*
D23*
X152298000Y-95656000D02*
X152400000Y-95758000D01*
X150636000Y-95456000D02*
X150636000Y-95656000D01*
D26*
%TO.N,/V5*%
X146036000Y-94728000D02*
X146050000Y-94714000D01*
X146050000Y-94714000D02*
X146050000Y-93726000D01*
D22*
%TO.N,/V3*%
X148336000Y-95656000D02*
X148336000Y-101956000D01*
D23*
%TO.N,/V5*%
X146036000Y-95656000D02*
X146036000Y-94728000D01*
D25*
%TO.N,GND*%
X138927000Y-87600000D02*
X137557000Y-87600000D01*
X137527000Y-95400000D02*
X137527000Y-90029000D01*
X137402000Y-95525000D02*
X137527000Y-95400000D01*
D23*
X136477000Y-84750000D02*
X137402000Y-85675000D01*
X137402000Y-95525000D02*
X136477000Y-96450000D01*
%TO.N,/A3*%
X142747501Y-88407999D02*
X144418500Y-86737000D01*
X140301294Y-91600000D02*
X142747501Y-89153793D01*
%TO.N,/A2*%
X144243500Y-87587000D02*
X144343500Y-87487000D01*
%TO.N,/A1*%
X143647002Y-88808498D02*
X144418500Y-88037000D01*
%TO.N,/A3*%
X142747501Y-89153793D02*
X142747501Y-88407999D01*
%TO.N,/A1*%
X144418500Y-88037000D02*
X145406000Y-88037000D01*
%TO.N,/A2*%
X143097025Y-89681665D02*
X143097025Y-89439959D01*
%TO.N,/A1*%
X143547025Y-89626355D02*
X143647002Y-89526378D01*
X138927000Y-94600000D02*
X141620707Y-94600000D01*
X143547025Y-92673682D02*
X143547025Y-89626355D01*
%TO.N,/A5*%
X144418500Y-85437000D02*
X145406000Y-85437000D01*
%TO.N,/A4*%
X138927000Y-90600000D02*
X140412310Y-90600000D01*
%TO.N,/A5*%
X140255500Y-89600000D02*
X144418500Y-85437000D01*
X138927000Y-89600000D02*
X140255500Y-89600000D01*
%TO.N,/A3*%
X144418500Y-86737000D02*
X145406000Y-86737000D01*
%TO.N,/A4*%
X144418500Y-86087000D02*
X145406000Y-86087000D01*
%TO.N,/A1*%
X141620707Y-94600000D02*
X143547025Y-92673682D01*
%TO.N,/A2*%
X145306000Y-87487000D02*
X145406000Y-87387000D01*
X144232104Y-87587000D02*
X144243500Y-87587000D01*
%TO.N,/A4*%
X142298000Y-88207500D02*
X144418500Y-86087000D01*
%TO.N,/A3*%
X138927000Y-91600000D02*
X140301294Y-91600000D01*
%TO.N,/A4*%
X142298000Y-88714310D02*
X142298000Y-88207500D01*
X140412310Y-90600000D02*
X142298000Y-88714310D01*
%TO.N,/A2*%
X143197002Y-88622102D02*
X144232104Y-87587000D01*
%TO.N,/A1*%
X143647002Y-89526378D02*
X143647002Y-88808498D01*
%TO.N,/A2*%
X138927000Y-92600000D02*
X140178690Y-92600000D01*
X140178690Y-92600000D02*
X143097025Y-89681665D01*
X143197002Y-89339982D02*
X143197002Y-88622102D01*
X143097025Y-89439959D02*
X143197002Y-89339982D01*
X144343500Y-87487000D02*
X145306000Y-87487000D01*
%TO.N,/A6*%
X144418500Y-84787000D02*
X145406000Y-84787000D01*
%TO.N,/A7*%
X139604000Y-86600000D02*
X142717000Y-83487000D01*
X138927000Y-86600000D02*
X139604000Y-86600000D01*
%TO.N,/A6*%
X138927000Y-88600000D02*
X140605500Y-88600000D01*
%TO.N,/A7*%
X142717000Y-83487000D02*
X145406000Y-83487000D01*
%TO.N,/A6*%
X140605500Y-88600000D02*
X144418500Y-84787000D01*
D27*
%TO.N,/V5*%
X138927000Y-93600000D02*
X141352000Y-93600000D01*
D23*
%TO.N,GND*%
X137154000Y-95810000D02*
X137117000Y-95810000D01*
X137117000Y-95810000D02*
X136477000Y-96450000D01*
D27*
X157966500Y-86726000D02*
X160136500Y-86726000D01*
X160136500Y-86726000D02*
X163186500Y-83676000D01*
D23*
X145406000Y-88687000D02*
X144612690Y-88687000D01*
%TO.N,/V5*%
X141352000Y-93600000D02*
X141474054Y-93722054D01*
%TO.N,GND*%
X144612690Y-88687000D02*
X144343500Y-88956190D01*
X144343500Y-88956190D02*
X144343500Y-90035098D01*
X144343500Y-90035098D02*
X144272025Y-90106573D01*
%TO.N,/B1*%
X155664695Y-95476000D02*
X157741500Y-95476000D01*
X153865501Y-89633001D02*
X153865501Y-90610189D01*
X151282000Y-88037000D02*
X152269500Y-88037000D01*
X153611501Y-90864189D02*
X153611501Y-93422806D01*
X153865501Y-90610189D02*
X153611501Y-90864189D01*
%TO.N,GND*%
X151282000Y-89337000D02*
X152329000Y-89337000D01*
%TO.N,/B2*%
X152269500Y-87387000D02*
X154315002Y-89432502D01*
%TO.N,/B1*%
X152269500Y-88037000D02*
X153865501Y-89633001D01*
X153611501Y-93422806D02*
X155664695Y-95476000D01*
%TO.N,/B2*%
X151282000Y-87387000D02*
X152269500Y-87387000D01*
X154315002Y-89432502D02*
X154315002Y-90874502D01*
X154315002Y-90874502D02*
X156416500Y-92976000D01*
%TO.N,GND*%
X152329000Y-89337000D02*
X152908000Y-89916000D01*
%TO.N,/B2*%
X156416500Y-92976000D02*
X157741500Y-92976000D01*
%TO.N,GND*%
X151282000Y-88687000D02*
X151282000Y-89337000D01*
%TO.N,/B3*%
X151282000Y-86737000D02*
X152269500Y-86737000D01*
X152269500Y-86737000D02*
X156341500Y-90809000D01*
X156341500Y-90809000D02*
X156341500Y-91651000D01*
X156341500Y-91651000D02*
X156416500Y-91726000D01*
X156416500Y-91726000D02*
X157966500Y-91726000D01*
%TO.N,/B4*%
X151282000Y-86087000D02*
X152269500Y-86087000D01*
X152269500Y-86087000D02*
X156658500Y-90476000D01*
X156658500Y-90476000D02*
X157741500Y-90476000D01*
%TO.N,/B5*%
X151282000Y-85437000D02*
X153027500Y-85437000D01*
X153027500Y-85437000D02*
X156816500Y-89226000D01*
X156816500Y-89226000D02*
X157966500Y-89226000D01*
%TO.N,/B6*%
X151282000Y-84787000D02*
X153627500Y-84787000D01*
X153627500Y-84787000D02*
X156816500Y-87976000D01*
X156816500Y-87976000D02*
X157741500Y-87976000D01*
%TO.N,/B7*%
X151282000Y-83487000D02*
X155752500Y-83487000D01*
X155752500Y-83487000D02*
X157741500Y-85476000D01*
D27*
%TO.N,/V5*%
X157966500Y-94226000D02*
X155456000Y-94226000D01*
D23*
X155456000Y-94226000D02*
X155448000Y-94234000D01*
D22*
X150351000Y-84137000D02*
X151282000Y-84137000D01*
D23*
X150219500Y-84005500D02*
X150351000Y-84137000D01*
%TO.N,GND*%
X148330000Y-81332000D02*
X147262000Y-81332000D01*
X148330000Y-81332000D02*
X149426000Y-81332000D01*
%TO.N,/V3*%
X146468500Y-84209500D02*
X146396000Y-84137000D01*
X145406000Y-89337000D02*
X146421000Y-89337000D01*
X146396000Y-84137000D02*
X145406000Y-84137000D01*
%TD*%
M02*
