G04 #@! TF.GenerationSoftware,KiCad,Pcbnew,7.0.0-da2b9df05c~163~ubuntu22.04.1*
G04 #@! TF.CreationDate,2023-02-20T16:41:22+00:00*
G04 #@! TF.ProjectId,mt32pipico,6d743332-7069-4706-9963-6f2e6b696361,rev?*
G04 #@! TF.SameCoordinates,Original*
G04 #@! TF.FileFunction,Soldermask,Top*
G04 #@! TF.FilePolarity,Negative*
%FSLAX46Y46*%
G04 Gerber Fmt 4.6, Leading zero omitted, Abs format (unit mm)*
G04 Created by KiCad (PCBNEW 7.0.0-da2b9df05c~163~ubuntu22.04.1) date 2023-02-20 16:41:22*
%MOMM*%
%LPD*%
G01*
G04 APERTURE LIST*
G04 Aperture macros list*
%AMRoundRect*
0 Rectangle with rounded corners*
0 $1 Rounding radius*
0 $2 $3 $4 $5 $6 $7 $8 $9 X,Y pos of 4 corners*
0 Add a 4 corners polygon primitive as box body*
4,1,4,$2,$3,$4,$5,$6,$7,$8,$9,$2,$3,0*
0 Add four circle primitives for the rounded corners*
1,1,$1+$1,$2,$3*
1,1,$1+$1,$4,$5*
1,1,$1+$1,$6,$7*
1,1,$1+$1,$8,$9*
0 Add four rect primitives between the rounded corners*
20,1,$1+$1,$2,$3,$4,$5,0*
20,1,$1+$1,$4,$5,$6,$7,0*
20,1,$1+$1,$6,$7,$8,$9,0*
20,1,$1+$1,$8,$9,$2,$3,0*%
G04 Aperture macros list end*
%ADD10RoundRect,0.250000X-0.450000X0.262500X-0.450000X-0.262500X0.450000X-0.262500X0.450000X0.262500X0*%
%ADD11R,1.700000X1.700000*%
%ADD12O,1.700000X1.700000*%
%ADD13C,2.700000*%
%ADD14RoundRect,0.250000X0.600000X0.725000X-0.600000X0.725000X-0.600000X-0.725000X0.600000X-0.725000X0*%
%ADD15O,1.700000X1.950000*%
%ADD16R,1.700000X3.500000*%
%ADD17R,3.500000X1.700000*%
G04 APERTURE END LIST*
D10*
X203708000Y-74629000D03*
X203708000Y-76454000D03*
D11*
X188467999Y-70357999D03*
D12*
X188467999Y-72897999D03*
X188467999Y-75437999D03*
X188467999Y-77977999D03*
D10*
X218948000Y-74779500D03*
X218948000Y-76604500D03*
D13*
X188280000Y-61585000D03*
D10*
X234442000Y-74891500D03*
X234442000Y-76716500D03*
X225044000Y-74883000D03*
X225044000Y-76708000D03*
D11*
X224535999Y-97789999D03*
D12*
X224535999Y-100329999D03*
X221995999Y-97789999D03*
X221995999Y-100329999D03*
X219455999Y-97789999D03*
X219455999Y-100329999D03*
X216915999Y-97789999D03*
X216915999Y-100329999D03*
X214375999Y-97789999D03*
X214375999Y-100329999D03*
D11*
X225297999Y-108203999D03*
D12*
X225297999Y-110743999D03*
X222757999Y-108203999D03*
X222757999Y-110743999D03*
X220217999Y-108203999D03*
X220217999Y-110743999D03*
X217677999Y-108203999D03*
X217677999Y-110743999D03*
D11*
X241553999Y-97789999D03*
D12*
X241553999Y-100329999D03*
X239013999Y-97789999D03*
X239013999Y-100329999D03*
X236473999Y-97789999D03*
X236473999Y-100329999D03*
X233933999Y-97789999D03*
X233933999Y-100329999D03*
X231393999Y-97789999D03*
X231393999Y-100329999D03*
D10*
X215900000Y-74779500D03*
X215900000Y-76604500D03*
D11*
X194309999Y-76199999D03*
D12*
X194309999Y-78739999D03*
X194309999Y-81279999D03*
D14*
X207438000Y-99822000D03*
D15*
X204937999Y-99821999D03*
X202437999Y-99821999D03*
X199937999Y-99821999D03*
X197437999Y-99821999D03*
D12*
X247903999Y-69849999D03*
D16*
X247903999Y-68949999D03*
D12*
X245363999Y-69849999D03*
D16*
X245363999Y-68949999D03*
D11*
X242823999Y-69849999D03*
D16*
X242823999Y-68949999D03*
D12*
X240283999Y-69849999D03*
D16*
X240283999Y-68949999D03*
D12*
X237743999Y-69849999D03*
D16*
X237743999Y-68949999D03*
D12*
X235203999Y-69849999D03*
D16*
X235203999Y-68949999D03*
D12*
X232663999Y-69849999D03*
D16*
X232663999Y-68949999D03*
D11*
X230123999Y-69849999D03*
D16*
X230123999Y-68949999D03*
D12*
X227583999Y-69849999D03*
D16*
X227583999Y-68949999D03*
D12*
X225043999Y-69849999D03*
D16*
X225043999Y-68949999D03*
D12*
X222503999Y-69849999D03*
D16*
X222503999Y-68949999D03*
D12*
X219963999Y-69849999D03*
D16*
X219963999Y-68949999D03*
D11*
X217423999Y-69849999D03*
D16*
X217423999Y-68949999D03*
D12*
X214883999Y-69849999D03*
D16*
X214883999Y-68949999D03*
D12*
X212343999Y-69849999D03*
D16*
X212343999Y-68949999D03*
D12*
X209803999Y-69849999D03*
D16*
X209803999Y-68949999D03*
D12*
X207263999Y-69849999D03*
D16*
X207263999Y-68949999D03*
D11*
X204723999Y-69849999D03*
D16*
X204723999Y-68949999D03*
D12*
X202183999Y-69849999D03*
D16*
X202183999Y-68949999D03*
D12*
X199643999Y-69849999D03*
D16*
X199643999Y-68949999D03*
D12*
X199643999Y-87629999D03*
D16*
X199643999Y-88529999D03*
D12*
X202183999Y-87629999D03*
D16*
X202183999Y-88529999D03*
D11*
X204723999Y-87629999D03*
D16*
X204723999Y-88529999D03*
D12*
X207263999Y-87629999D03*
D16*
X207263999Y-88529999D03*
D12*
X209803999Y-87629999D03*
D16*
X209803999Y-88529999D03*
D12*
X212343999Y-87629999D03*
D16*
X212343999Y-88529999D03*
D12*
X214883999Y-87629999D03*
D16*
X214883999Y-88529999D03*
D11*
X217423999Y-87629999D03*
D16*
X217423999Y-88529999D03*
D12*
X219963999Y-87629999D03*
D16*
X219963999Y-88529999D03*
D12*
X222503999Y-87629999D03*
D16*
X222503999Y-88529999D03*
D12*
X225043999Y-87629999D03*
D16*
X225043999Y-88529999D03*
D12*
X227583999Y-87629999D03*
D16*
X227583999Y-88529999D03*
D11*
X230123999Y-87629999D03*
D16*
X230123999Y-88529999D03*
D12*
X232663999Y-87629999D03*
D16*
X232663999Y-88529999D03*
D12*
X235203999Y-87629999D03*
D16*
X235203999Y-88529999D03*
D12*
X237743999Y-87629999D03*
D16*
X237743999Y-88529999D03*
D12*
X240283999Y-87629999D03*
D16*
X240283999Y-88529999D03*
D11*
X242823999Y-87629999D03*
D16*
X242823999Y-88529999D03*
D12*
X245363999Y-87629999D03*
D16*
X245363999Y-88529999D03*
D12*
X247903999Y-87629999D03*
D16*
X247903999Y-88529999D03*
D12*
X199873999Y-76199999D03*
D17*
X198973999Y-76199999D03*
D11*
X199873999Y-78739999D03*
D17*
X198973999Y-78739999D03*
D12*
X199873999Y-81279999D03*
D17*
X198973999Y-81279999D03*
D14*
X211034000Y-109474000D03*
D15*
X208533999Y-109473999D03*
X206033999Y-109473999D03*
X203533999Y-109473999D03*
X201033999Y-109473999D03*
X198533999Y-109473999D03*
X196033999Y-109473999D03*
D10*
X229870000Y-74883000D03*
X229870000Y-76708000D03*
X212852000Y-74883000D03*
X212852000Y-76708000D03*
D11*
X240273999Y-107949999D03*
D12*
X237733999Y-107949999D03*
X235193999Y-107949999D03*
X232653999Y-107949999D03*
D13*
X188280000Y-110585000D03*
D10*
X221996000Y-74779500D03*
X221996000Y-76604500D03*
D11*
X247141999Y-97784999D03*
D12*
X247141999Y-100324999D03*
D10*
X209804000Y-74906500D03*
X209804000Y-76731500D03*
D13*
X246280000Y-110585000D03*
X246280000Y-61585000D03*
D11*
X187959999Y-88899999D03*
D12*
X190499999Y-88899999D03*
X187959999Y-91439999D03*
X190499999Y-91439999D03*
X187959999Y-93979999D03*
X190499999Y-93979999D03*
X187959999Y-96519999D03*
X190499999Y-96519999D03*
X187959999Y-99059999D03*
X190499999Y-99059999D03*
X187959999Y-101599999D03*
X190499999Y-101599999D03*
D11*
X193149999Y-62854999D03*
D12*
X193149999Y-60314999D03*
X195689999Y-62854999D03*
X195689999Y-60314999D03*
X198229999Y-62854999D03*
X198229999Y-60314999D03*
X200769999Y-62854999D03*
X200769999Y-60314999D03*
X203309999Y-62854999D03*
X203309999Y-60314999D03*
X205849999Y-62854999D03*
X205849999Y-60314999D03*
X208389999Y-62854999D03*
X208389999Y-60314999D03*
X210929999Y-62854999D03*
X210929999Y-60314999D03*
X213469999Y-62854999D03*
X213469999Y-60314999D03*
X216009999Y-62854999D03*
X216009999Y-60314999D03*
X218549999Y-62854999D03*
X218549999Y-60314999D03*
X221089999Y-62854999D03*
X221089999Y-60314999D03*
X223629999Y-62854999D03*
X223629999Y-60314999D03*
X226169999Y-62854999D03*
X226169999Y-60314999D03*
X228709999Y-62854999D03*
X228709999Y-60314999D03*
X231249999Y-62854999D03*
X231249999Y-60314999D03*
X233789999Y-62854999D03*
X233789999Y-60314999D03*
X236329999Y-62854999D03*
X236329999Y-60314999D03*
X238869999Y-62854999D03*
X238869999Y-60314999D03*
X241409999Y-62854999D03*
X241409999Y-60314999D03*
M02*
