M48
; DRILL file {KiCad 7.0.0-da2b9df05c~163~ubuntu22.04.1} date Mon Feb 20 16:41:38 2023
; FORMAT={-:-/ absolute / metric / decimal}
; #@! TF.CreationDate,2023-02-20T16:41:38+00:00
; #@! TF.GenerationSoftware,Kicad,Pcbnew,7.0.0-da2b9df05c~163~ubuntu22.04.1
; #@! TF.FileFunction,Plated,1,2,PTH
FMAT,2
METRIC
; #@! TA.AperFunction,Plated,PTH,ViaDrill
T1C0.400
; #@! TA.AperFunction,Plated,PTH,ComponentDrill
T2C0.950
; #@! TA.AperFunction,Plated,PTH,ComponentDrill
T3C1.000
; #@! TA.AperFunction,Plated,PTH,ComponentDrill
T4C1.020
%
G90
G05
T1
X209.289Y-73.291
X209.677Y-78.486
X210.439Y-65.659
X211.201Y-71.755
X213.233Y-65.659
X216.089Y-77.63
X216.154Y-71.755
X225.044Y-77.862
X226.568Y-80.264
X233.172Y-80.391
X237.871Y-80.391
X240.538Y-80.391
T2
X196.034Y-109.474
X197.438Y-99.822
X198.534Y-109.474
X199.938Y-99.822
X201.034Y-109.474
X202.438Y-99.822
X203.534Y-109.474
X204.938Y-99.822
X206.034Y-109.474
X207.438Y-99.822
X208.534Y-109.474
X211.034Y-109.474
T3
X187.96Y-88.9
X187.96Y-91.44
X187.96Y-93.98
X187.96Y-96.52
X187.96Y-99.06
X187.96Y-101.6
X188.468Y-70.358
X188.468Y-72.898
X188.468Y-75.438
X188.468Y-77.978
X190.5Y-88.9
X190.5Y-91.44
X190.5Y-93.98
X190.5Y-96.52
X190.5Y-99.06
X190.5Y-101.6
X193.15Y-60.315
X193.15Y-62.855
X194.31Y-76.2
X194.31Y-78.74
X194.31Y-81.28
X195.69Y-60.315
X195.69Y-62.855
X198.23Y-60.315
X198.23Y-62.855
X200.77Y-60.315
X200.77Y-62.855
X203.31Y-60.315
X203.31Y-62.855
X205.85Y-60.315
X205.85Y-62.855
X208.39Y-60.315
X208.39Y-62.855
X210.93Y-60.315
X210.93Y-62.855
X213.47Y-60.315
X213.47Y-62.855
X214.376Y-97.79
X214.376Y-100.33
X216.01Y-60.315
X216.01Y-62.855
X216.916Y-97.79
X216.916Y-100.33
X217.678Y-108.204
X217.678Y-110.744
X218.55Y-60.315
X218.55Y-62.855
X219.456Y-97.79
X219.456Y-100.33
X220.218Y-108.204
X220.218Y-110.744
X221.09Y-60.315
X221.09Y-62.855
X221.996Y-97.79
X221.996Y-100.33
X222.758Y-108.204
X222.758Y-110.744
X223.63Y-60.315
X223.63Y-62.855
X224.536Y-97.79
X224.536Y-100.33
X225.298Y-108.204
X225.298Y-110.744
X226.17Y-60.315
X226.17Y-62.855
X228.71Y-60.315
X228.71Y-62.855
X231.25Y-60.315
X231.25Y-62.855
X231.394Y-97.79
X231.394Y-100.33
X232.654Y-107.95
X233.79Y-60.315
X233.79Y-62.855
X233.934Y-97.79
X233.934Y-100.33
X235.194Y-107.95
X236.33Y-60.315
X236.33Y-62.855
X236.474Y-97.79
X236.474Y-100.33
X237.734Y-107.95
X238.87Y-60.315
X238.87Y-62.855
X239.014Y-97.79
X239.014Y-100.33
X240.274Y-107.95
X241.41Y-60.315
X241.41Y-62.855
X241.554Y-97.79
X241.554Y-100.33
X247.142Y-97.785
X247.142Y-100.325
T4
X199.644Y-69.85
X199.644Y-87.63
X199.874Y-76.2
X199.874Y-78.74
X199.874Y-81.28
X202.184Y-69.85
X202.184Y-87.63
X204.724Y-69.85
X204.724Y-87.63
X207.264Y-69.85
X207.264Y-87.63
X209.804Y-69.85
X209.804Y-87.63
X212.344Y-69.85
X212.344Y-87.63
X214.884Y-69.85
X214.884Y-87.63
X217.424Y-69.85
X217.424Y-87.63
X219.964Y-69.85
X219.964Y-87.63
X222.504Y-69.85
X222.504Y-87.63
X225.044Y-69.85
X225.044Y-87.63
X227.584Y-69.85
X227.584Y-87.63
X230.124Y-69.85
X230.124Y-87.63
X232.664Y-69.85
X232.664Y-87.63
X235.204Y-69.85
X235.204Y-87.63
X237.744Y-69.85
X237.744Y-87.63
X240.284Y-69.85
X240.284Y-87.63
X242.824Y-69.85
X242.824Y-87.63
X245.364Y-69.85
X245.364Y-87.63
X247.904Y-69.85
X247.904Y-87.63
T0
M30
