M48
INCH
T1C0.0157
T2C0.0374
T3C0.0394
T4C0.0402
%
G90
G05
T1
X7.775Y-2.75
X8.125Y-2.5989
X8.155Y-3.305
X8.16Y-3.175
X8.255Y-2.5989
X8.26Y-4.15
X8.2891Y-4.235
X8.355Y-3.68
X8.45Y-3.685
X8.655Y-3.185
X8.695Y-2.835
X8.755Y-3.185
X8.755Y-3.67
X8.805Y-2.5989
X8.895Y-2.865
X9.085Y-2.87
X9.15Y-4.085
X9.21Y-2.835
X9.21Y-4.15
X9.2385Y-3.085
X9.245Y-4.21
T2
X7.6497Y-4.315
X7.7179Y-3.875
X7.7481Y-4.315
X7.8163Y-3.875
X7.8466Y-4.315
X7.9147Y-3.875
X7.945Y-4.315
X8.0131Y-3.875
X8.0434Y-4.315
X8.1116Y-3.875
X8.21Y-3.875
X8.3084Y-3.875
T3
X7.375Y-3.165
X7.375Y-3.265
X7.375Y-3.365
X7.375Y-3.465
X7.375Y-3.565
X7.375Y-3.665
X7.418Y-3.8634
X7.418Y-3.9634
X7.418Y-4.0634
X7.418Y-4.1634
X7.42Y-2.615
X7.42Y-2.715
X7.42Y-2.815
X7.42Y-2.915
X7.475Y-3.165
X7.475Y-3.265
X7.475Y-3.365
X7.475Y-3.465
X7.475Y-3.565
X7.475Y-3.665
X7.6043Y-2.3746
X7.6043Y-2.4746
X7.65Y-3.0
X7.65Y-3.1
X7.65Y-3.2
X7.7043Y-2.3746
X7.7043Y-2.4746
X7.8043Y-2.3746
X7.8043Y-2.4746
X7.9043Y-2.3746
X7.9043Y-2.4746
X8.0043Y-2.3746
X8.0043Y-2.4746
X8.1043Y-2.3746
X8.1043Y-2.4746
X8.2043Y-2.3746
X8.2043Y-2.4746
X8.3043Y-2.3746
X8.3043Y-2.4746
X8.4043Y-2.3746
X8.4043Y-2.4746
X8.4602Y-4.2798
X8.4602Y-4.3798
X8.5043Y-2.3746
X8.5043Y-2.4746
X8.5602Y-4.2798
X8.5602Y-4.3798
X8.6043Y-2.3746
X8.6043Y-2.4746
X8.6602Y-4.2798
X8.6602Y-4.3798
X8.6898Y-3.8448
X8.6898Y-3.9448
X8.7043Y-2.3746
X8.7043Y-2.4746
X8.7602Y-4.2798
X8.7602Y-4.3798
X8.7898Y-3.8448
X8.7898Y-3.9448
X8.8043Y-2.3746
X8.8043Y-2.4746
X8.8602Y-4.2798
X8.8602Y-4.3798
X8.8898Y-3.8448
X8.8898Y-3.9448
X8.9043Y-2.3746
X8.9043Y-2.4746
X8.9602Y-4.2798
X8.9602Y-4.3798
X8.9898Y-3.8448
X8.9898Y-3.9448
X9.0043Y-2.3746
X9.0043Y-2.4746
X9.0602Y-4.2798
X9.0602Y-4.3798
X9.0898Y-3.8448
X9.0898Y-3.9448
X9.1043Y-2.3746
X9.1043Y-2.4746
X9.2043Y-2.3746
X9.2043Y-2.4746
X9.3043Y-2.3746
X9.3043Y-2.4746
X9.3752Y-3.8
X9.3752Y-4.0646
X9.3752Y-4.1646
X9.3752Y-4.2646
X9.3752Y-4.3646
X9.4043Y-2.3746
X9.4043Y-2.4746
X9.4752Y-3.8
X9.4752Y-4.0646
X9.4752Y-4.1646
X9.4752Y-4.2646
X9.4752Y-4.3646
X9.5043Y-2.3746
X9.5043Y-2.4746
T4
X7.86Y-2.75
X7.86Y-3.45
X7.8691Y-3.0
X7.8691Y-3.1
X7.8691Y-3.2
X7.96Y-2.75
X7.96Y-3.45
X8.06Y-2.75
X8.06Y-3.45
X8.16Y-2.75
X8.16Y-3.45
X8.26Y-2.75
X8.26Y-3.45
X8.36Y-2.75
X8.36Y-3.45
X8.46Y-2.75
X8.46Y-3.45
X8.56Y-2.75
X8.56Y-3.45
X8.66Y-2.75
X8.66Y-3.45
X8.76Y-2.75
X8.76Y-3.45
X8.86Y-2.75
X8.86Y-3.45
X8.96Y-2.75
X8.96Y-3.45
X9.06Y-2.75
X9.06Y-3.45
X9.16Y-2.75
X9.16Y-3.45
X9.26Y-2.75
X9.26Y-3.45
X9.36Y-2.75
X9.36Y-3.45
X9.46Y-2.75
X9.46Y-3.45
X9.56Y-2.75
X9.56Y-3.45
X9.66Y-2.75
X9.66Y-3.45
X9.76Y-2.75
X9.76Y-3.45
T0
M30
