%TF.GenerationSoftware,KiCad,Pcbnew,7.0.0-da2b9df05c~163~ubuntu22.04.1*%
%TF.CreationDate,2023-02-20T16:41:39+00:00*%
%TF.ProjectId,mt32pipico,6d743332-7069-4706-9963-6f2e6b696361,rev?*%
%TF.SameCoordinates,Original*%
%TF.FileFunction,Drillmap*%
%TF.FilePolarity,Positive*%
%FSLAX45Y45*%
G04 Gerber Fmt 4.5, Leading zero omitted, Abs format (unit mm)*
G04 Created by KiCad (PCBNEW 7.0.0-da2b9df05c~163~ubuntu22.04.1) date 2023-02-20 16:41:39*
%MOMM*%
%LPD*%
G01*
G04 APERTURE LIST*
%ADD10C,0.100000*%
%ADD11C,0.200000*%
%ADD12C,0.270000*%
G04 APERTURE END LIST*
D10*
X24978000Y-11108500D02*
X24978000Y-6108500D01*
X24678000Y-5808500D02*
X18778000Y-5808500D01*
X18478000Y-11108500D02*
G75*
G03*
X18778000Y-11408500I300000J0D01*
G01*
X18478000Y-9508500D02*
X18478000Y-11108500D01*
X24978000Y-6108500D02*
G75*
G03*
X24678000Y-5808500I-300000J0D01*
G01*
X24678000Y-11408500D02*
G75*
G03*
X24978000Y-11108500I0J300000D01*
G01*
X18478000Y-6108500D02*
X18478000Y-7708500D01*
X18778000Y-5808500D02*
G75*
G03*
X18478000Y-6108500I0J-300000D01*
G01*
X18478000Y-7708500D02*
X18478000Y-9508500D01*
X18778000Y-11408500D02*
X24678000Y-11408500D01*
D11*
D12*
X18693000Y-6023500D02*
X18963000Y-6293500D01*
X18963000Y-6023500D02*
X18693000Y-6293500D01*
X18693000Y-10923500D02*
X18963000Y-11193500D01*
X18963000Y-10923500D02*
X18693000Y-11193500D01*
X24493000Y-6023500D02*
X24763000Y-6293500D01*
X24763000Y-6023500D02*
X24493000Y-6293500D01*
X24493000Y-10923500D02*
X24763000Y-11193500D01*
X24763000Y-10923500D02*
X24493000Y-11193500D01*
D11*
X18720619Y-11706976D02*
X18720619Y-11506976D01*
X18720619Y-11506976D02*
X18768238Y-11506976D01*
X18768238Y-11506976D02*
X18796810Y-11516500D01*
X18796810Y-11516500D02*
X18815857Y-11535548D01*
X18815857Y-11535548D02*
X18825381Y-11554595D01*
X18825381Y-11554595D02*
X18834905Y-11592690D01*
X18834905Y-11592690D02*
X18834905Y-11621262D01*
X18834905Y-11621262D02*
X18825381Y-11659357D01*
X18825381Y-11659357D02*
X18815857Y-11678405D01*
X18815857Y-11678405D02*
X18796810Y-11697452D01*
X18796810Y-11697452D02*
X18768238Y-11706976D01*
X18768238Y-11706976D02*
X18720619Y-11706976D01*
X18920619Y-11706976D02*
X18920619Y-11573643D01*
X18920619Y-11611738D02*
X18930143Y-11592690D01*
X18930143Y-11592690D02*
X18939667Y-11583167D01*
X18939667Y-11583167D02*
X18958714Y-11573643D01*
X18958714Y-11573643D02*
X18977762Y-11573643D01*
X19044429Y-11706976D02*
X19044429Y-11573643D01*
X19044429Y-11506976D02*
X19034905Y-11516500D01*
X19034905Y-11516500D02*
X19044429Y-11526024D01*
X19044429Y-11526024D02*
X19053952Y-11516500D01*
X19053952Y-11516500D02*
X19044429Y-11506976D01*
X19044429Y-11506976D02*
X19044429Y-11526024D01*
X19168238Y-11706976D02*
X19149190Y-11697452D01*
X19149190Y-11697452D02*
X19139667Y-11678405D01*
X19139667Y-11678405D02*
X19139667Y-11506976D01*
X19273000Y-11706976D02*
X19253952Y-11697452D01*
X19253952Y-11697452D02*
X19244429Y-11678405D01*
X19244429Y-11678405D02*
X19244429Y-11506976D01*
X19469190Y-11706976D02*
X19469190Y-11506976D01*
X19469190Y-11506976D02*
X19535857Y-11649833D01*
X19535857Y-11649833D02*
X19602524Y-11506976D01*
X19602524Y-11506976D02*
X19602524Y-11706976D01*
X19783476Y-11706976D02*
X19783476Y-11602214D01*
X19783476Y-11602214D02*
X19773952Y-11583167D01*
X19773952Y-11583167D02*
X19754905Y-11573643D01*
X19754905Y-11573643D02*
X19716809Y-11573643D01*
X19716809Y-11573643D02*
X19697762Y-11583167D01*
X19783476Y-11697452D02*
X19764429Y-11706976D01*
X19764429Y-11706976D02*
X19716809Y-11706976D01*
X19716809Y-11706976D02*
X19697762Y-11697452D01*
X19697762Y-11697452D02*
X19688238Y-11678405D01*
X19688238Y-11678405D02*
X19688238Y-11659357D01*
X19688238Y-11659357D02*
X19697762Y-11640309D01*
X19697762Y-11640309D02*
X19716809Y-11630786D01*
X19716809Y-11630786D02*
X19764429Y-11630786D01*
X19764429Y-11630786D02*
X19783476Y-11621262D01*
X19878714Y-11573643D02*
X19878714Y-11773643D01*
X19878714Y-11583167D02*
X19897762Y-11573643D01*
X19897762Y-11573643D02*
X19935857Y-11573643D01*
X19935857Y-11573643D02*
X19954905Y-11583167D01*
X19954905Y-11583167D02*
X19964429Y-11592690D01*
X19964429Y-11592690D02*
X19973952Y-11611738D01*
X19973952Y-11611738D02*
X19973952Y-11668881D01*
X19973952Y-11668881D02*
X19964429Y-11687928D01*
X19964429Y-11687928D02*
X19954905Y-11697452D01*
X19954905Y-11697452D02*
X19935857Y-11706976D01*
X19935857Y-11706976D02*
X19897762Y-11706976D01*
X19897762Y-11706976D02*
X19878714Y-11697452D01*
X20059667Y-11687928D02*
X20069190Y-11697452D01*
X20069190Y-11697452D02*
X20059667Y-11706976D01*
X20059667Y-11706976D02*
X20050143Y-11697452D01*
X20050143Y-11697452D02*
X20059667Y-11687928D01*
X20059667Y-11687928D02*
X20059667Y-11706976D01*
X20059667Y-11583167D02*
X20069190Y-11592690D01*
X20069190Y-11592690D02*
X20059667Y-11602214D01*
X20059667Y-11602214D02*
X20050143Y-11592690D01*
X20050143Y-11592690D02*
X20059667Y-11583167D01*
X20059667Y-11583167D02*
X20059667Y-11602214D01*
X18273000Y-11953500D02*
X18473000Y-12153500D01*
X18473000Y-11953500D02*
X18273000Y-12153500D01*
X18711095Y-11946024D02*
X18720619Y-11936500D01*
X18720619Y-11936500D02*
X18739667Y-11926976D01*
X18739667Y-11926976D02*
X18787286Y-11926976D01*
X18787286Y-11926976D02*
X18806333Y-11936500D01*
X18806333Y-11936500D02*
X18815857Y-11946024D01*
X18815857Y-11946024D02*
X18825381Y-11965071D01*
X18825381Y-11965071D02*
X18825381Y-11984119D01*
X18825381Y-11984119D02*
X18815857Y-12012690D01*
X18815857Y-12012690D02*
X18701571Y-12126976D01*
X18701571Y-12126976D02*
X18825381Y-12126976D01*
X18911095Y-12107928D02*
X18920619Y-12117452D01*
X18920619Y-12117452D02*
X18911095Y-12126976D01*
X18911095Y-12126976D02*
X18901571Y-12117452D01*
X18901571Y-12117452D02*
X18911095Y-12107928D01*
X18911095Y-12107928D02*
X18911095Y-12126976D01*
X18987286Y-11926976D02*
X19120619Y-11926976D01*
X19120619Y-11926976D02*
X19034905Y-12126976D01*
X19234905Y-11926976D02*
X19253952Y-11926976D01*
X19253952Y-11926976D02*
X19273000Y-11936500D01*
X19273000Y-11936500D02*
X19282524Y-11946024D01*
X19282524Y-11946024D02*
X19292048Y-11965071D01*
X19292048Y-11965071D02*
X19301571Y-12003167D01*
X19301571Y-12003167D02*
X19301571Y-12050786D01*
X19301571Y-12050786D02*
X19292048Y-12088881D01*
X19292048Y-12088881D02*
X19282524Y-12107928D01*
X19282524Y-12107928D02*
X19273000Y-12117452D01*
X19273000Y-12117452D02*
X19253952Y-12126976D01*
X19253952Y-12126976D02*
X19234905Y-12126976D01*
X19234905Y-12126976D02*
X19215857Y-12117452D01*
X19215857Y-12117452D02*
X19206333Y-12107928D01*
X19206333Y-12107928D02*
X19196810Y-12088881D01*
X19196810Y-12088881D02*
X19187286Y-12050786D01*
X19187286Y-12050786D02*
X19187286Y-12003167D01*
X19187286Y-12003167D02*
X19196810Y-11965071D01*
X19196810Y-11965071D02*
X19206333Y-11946024D01*
X19206333Y-11946024D02*
X19215857Y-11936500D01*
X19215857Y-11936500D02*
X19234905Y-11926976D01*
X19425381Y-11926976D02*
X19444429Y-11926976D01*
X19444429Y-11926976D02*
X19463476Y-11936500D01*
X19463476Y-11936500D02*
X19473000Y-11946024D01*
X19473000Y-11946024D02*
X19482524Y-11965071D01*
X19482524Y-11965071D02*
X19492048Y-12003167D01*
X19492048Y-12003167D02*
X19492048Y-12050786D01*
X19492048Y-12050786D02*
X19482524Y-12088881D01*
X19482524Y-12088881D02*
X19473000Y-12107928D01*
X19473000Y-12107928D02*
X19463476Y-12117452D01*
X19463476Y-12117452D02*
X19444429Y-12126976D01*
X19444429Y-12126976D02*
X19425381Y-12126976D01*
X19425381Y-12126976D02*
X19406333Y-12117452D01*
X19406333Y-12117452D02*
X19396810Y-12107928D01*
X19396810Y-12107928D02*
X19387286Y-12088881D01*
X19387286Y-12088881D02*
X19377762Y-12050786D01*
X19377762Y-12050786D02*
X19377762Y-12003167D01*
X19377762Y-12003167D02*
X19387286Y-11965071D01*
X19387286Y-11965071D02*
X19396810Y-11946024D01*
X19396810Y-11946024D02*
X19406333Y-11936500D01*
X19406333Y-11936500D02*
X19425381Y-11926976D01*
X19577762Y-12126976D02*
X19577762Y-11993643D01*
X19577762Y-12012690D02*
X19587286Y-12003167D01*
X19587286Y-12003167D02*
X19606333Y-11993643D01*
X19606333Y-11993643D02*
X19634905Y-11993643D01*
X19634905Y-11993643D02*
X19653952Y-12003167D01*
X19653952Y-12003167D02*
X19663476Y-12022214D01*
X19663476Y-12022214D02*
X19663476Y-12126976D01*
X19663476Y-12022214D02*
X19673000Y-12003167D01*
X19673000Y-12003167D02*
X19692048Y-11993643D01*
X19692048Y-11993643D02*
X19720619Y-11993643D01*
X19720619Y-11993643D02*
X19739667Y-12003167D01*
X19739667Y-12003167D02*
X19749191Y-12022214D01*
X19749191Y-12022214D02*
X19749191Y-12126976D01*
X19844429Y-12126976D02*
X19844429Y-11993643D01*
X19844429Y-12012690D02*
X19853952Y-12003167D01*
X19853952Y-12003167D02*
X19873000Y-11993643D01*
X19873000Y-11993643D02*
X19901572Y-11993643D01*
X19901572Y-11993643D02*
X19920619Y-12003167D01*
X19920619Y-12003167D02*
X19930143Y-12022214D01*
X19930143Y-12022214D02*
X19930143Y-12126976D01*
X19930143Y-12022214D02*
X19939667Y-12003167D01*
X19939667Y-12003167D02*
X19958714Y-11993643D01*
X19958714Y-11993643D02*
X19987286Y-11993643D01*
X19987286Y-11993643D02*
X20006333Y-12003167D01*
X20006333Y-12003167D02*
X20015857Y-12022214D01*
X20015857Y-12022214D02*
X20015857Y-12126976D01*
X20373952Y-11917452D02*
X20202524Y-12174595D01*
X20598714Y-11926976D02*
X20617762Y-11926976D01*
X20617762Y-11926976D02*
X20636810Y-11936500D01*
X20636810Y-11936500D02*
X20646333Y-11946024D01*
X20646333Y-11946024D02*
X20655857Y-11965071D01*
X20655857Y-11965071D02*
X20665381Y-12003167D01*
X20665381Y-12003167D02*
X20665381Y-12050786D01*
X20665381Y-12050786D02*
X20655857Y-12088881D01*
X20655857Y-12088881D02*
X20646333Y-12107928D01*
X20646333Y-12107928D02*
X20636810Y-12117452D01*
X20636810Y-12117452D02*
X20617762Y-12126976D01*
X20617762Y-12126976D02*
X20598714Y-12126976D01*
X20598714Y-12126976D02*
X20579667Y-12117452D01*
X20579667Y-12117452D02*
X20570143Y-12107928D01*
X20570143Y-12107928D02*
X20560619Y-12088881D01*
X20560619Y-12088881D02*
X20551095Y-12050786D01*
X20551095Y-12050786D02*
X20551095Y-12003167D01*
X20551095Y-12003167D02*
X20560619Y-11965071D01*
X20560619Y-11965071D02*
X20570143Y-11946024D01*
X20570143Y-11946024D02*
X20579667Y-11936500D01*
X20579667Y-11936500D02*
X20598714Y-11926976D01*
X20751095Y-12107928D02*
X20760619Y-12117452D01*
X20760619Y-12117452D02*
X20751095Y-12126976D01*
X20751095Y-12126976D02*
X20741572Y-12117452D01*
X20741572Y-12117452D02*
X20751095Y-12107928D01*
X20751095Y-12107928D02*
X20751095Y-12126976D01*
X20951095Y-12126976D02*
X20836810Y-12126976D01*
X20893952Y-12126976D02*
X20893952Y-11926976D01*
X20893952Y-11926976D02*
X20874905Y-11955548D01*
X20874905Y-11955548D02*
X20855857Y-11974595D01*
X20855857Y-11974595D02*
X20836810Y-11984119D01*
X21074905Y-11926976D02*
X21093953Y-11926976D01*
X21093953Y-11926976D02*
X21113000Y-11936500D01*
X21113000Y-11936500D02*
X21122524Y-11946024D01*
X21122524Y-11946024D02*
X21132048Y-11965071D01*
X21132048Y-11965071D02*
X21141572Y-12003167D01*
X21141572Y-12003167D02*
X21141572Y-12050786D01*
X21141572Y-12050786D02*
X21132048Y-12088881D01*
X21132048Y-12088881D02*
X21122524Y-12107928D01*
X21122524Y-12107928D02*
X21113000Y-12117452D01*
X21113000Y-12117452D02*
X21093953Y-12126976D01*
X21093953Y-12126976D02*
X21074905Y-12126976D01*
X21074905Y-12126976D02*
X21055857Y-12117452D01*
X21055857Y-12117452D02*
X21046333Y-12107928D01*
X21046333Y-12107928D02*
X21036810Y-12088881D01*
X21036810Y-12088881D02*
X21027286Y-12050786D01*
X21027286Y-12050786D02*
X21027286Y-12003167D01*
X21027286Y-12003167D02*
X21036810Y-11965071D01*
X21036810Y-11965071D02*
X21046333Y-11946024D01*
X21046333Y-11946024D02*
X21055857Y-11936500D01*
X21055857Y-11936500D02*
X21074905Y-11926976D01*
X21313000Y-11926976D02*
X21274905Y-11926976D01*
X21274905Y-11926976D02*
X21255857Y-11936500D01*
X21255857Y-11936500D02*
X21246333Y-11946024D01*
X21246333Y-11946024D02*
X21227286Y-11974595D01*
X21227286Y-11974595D02*
X21217762Y-12012690D01*
X21217762Y-12012690D02*
X21217762Y-12088881D01*
X21217762Y-12088881D02*
X21227286Y-12107928D01*
X21227286Y-12107928D02*
X21236810Y-12117452D01*
X21236810Y-12117452D02*
X21255857Y-12126976D01*
X21255857Y-12126976D02*
X21293953Y-12126976D01*
X21293953Y-12126976D02*
X21313000Y-12117452D01*
X21313000Y-12117452D02*
X21322524Y-12107928D01*
X21322524Y-12107928D02*
X21332048Y-12088881D01*
X21332048Y-12088881D02*
X21332048Y-12041262D01*
X21332048Y-12041262D02*
X21322524Y-12022214D01*
X21322524Y-12022214D02*
X21313000Y-12012690D01*
X21313000Y-12012690D02*
X21293953Y-12003167D01*
X21293953Y-12003167D02*
X21255857Y-12003167D01*
X21255857Y-12003167D02*
X21236810Y-12012690D01*
X21236810Y-12012690D02*
X21227286Y-12022214D01*
X21227286Y-12022214D02*
X21217762Y-12041262D01*
X21398714Y-11926976D02*
X21522524Y-11926976D01*
X21522524Y-11926976D02*
X21455857Y-12003167D01*
X21455857Y-12003167D02*
X21484429Y-12003167D01*
X21484429Y-12003167D02*
X21503476Y-12012690D01*
X21503476Y-12012690D02*
X21513000Y-12022214D01*
X21513000Y-12022214D02*
X21522524Y-12041262D01*
X21522524Y-12041262D02*
X21522524Y-12088881D01*
X21522524Y-12088881D02*
X21513000Y-12107928D01*
X21513000Y-12107928D02*
X21503476Y-12117452D01*
X21503476Y-12117452D02*
X21484429Y-12126976D01*
X21484429Y-12126976D02*
X21427286Y-12126976D01*
X21427286Y-12126976D02*
X21408238Y-12117452D01*
X21408238Y-12117452D02*
X21398714Y-12107928D01*
X21598714Y-11926976D02*
X21598714Y-11965071D01*
X21674905Y-11926976D02*
X21674905Y-11965071D01*
X21937762Y-12203167D02*
X21928238Y-12193643D01*
X21928238Y-12193643D02*
X21909191Y-12165071D01*
X21909191Y-12165071D02*
X21899667Y-12146024D01*
X21899667Y-12146024D02*
X21890143Y-12117452D01*
X21890143Y-12117452D02*
X21880619Y-12069833D01*
X21880619Y-12069833D02*
X21880619Y-12031738D01*
X21880619Y-12031738D02*
X21890143Y-11984119D01*
X21890143Y-11984119D02*
X21899667Y-11955548D01*
X21899667Y-11955548D02*
X21909191Y-11936500D01*
X21909191Y-11936500D02*
X21928238Y-11907928D01*
X21928238Y-11907928D02*
X21937762Y-11898405D01*
X22099667Y-11993643D02*
X22099667Y-12126976D01*
X22052048Y-11917452D02*
X22004429Y-12060309D01*
X22004429Y-12060309D02*
X22128238Y-12060309D01*
X22324429Y-12126976D02*
X22324429Y-11926976D01*
X22410143Y-12126976D02*
X22410143Y-12022214D01*
X22410143Y-12022214D02*
X22400619Y-12003167D01*
X22400619Y-12003167D02*
X22381572Y-11993643D01*
X22381572Y-11993643D02*
X22353000Y-11993643D01*
X22353000Y-11993643D02*
X22333953Y-12003167D01*
X22333953Y-12003167D02*
X22324429Y-12012690D01*
X22533952Y-12126976D02*
X22514905Y-12117452D01*
X22514905Y-12117452D02*
X22505381Y-12107928D01*
X22505381Y-12107928D02*
X22495857Y-12088881D01*
X22495857Y-12088881D02*
X22495857Y-12031738D01*
X22495857Y-12031738D02*
X22505381Y-12012690D01*
X22505381Y-12012690D02*
X22514905Y-12003167D01*
X22514905Y-12003167D02*
X22533952Y-11993643D01*
X22533952Y-11993643D02*
X22562524Y-11993643D01*
X22562524Y-11993643D02*
X22581572Y-12003167D01*
X22581572Y-12003167D02*
X22591095Y-12012690D01*
X22591095Y-12012690D02*
X22600619Y-12031738D01*
X22600619Y-12031738D02*
X22600619Y-12088881D01*
X22600619Y-12088881D02*
X22591095Y-12107928D01*
X22591095Y-12107928D02*
X22581572Y-12117452D01*
X22581572Y-12117452D02*
X22562524Y-12126976D01*
X22562524Y-12126976D02*
X22533952Y-12126976D01*
X22714905Y-12126976D02*
X22695857Y-12117452D01*
X22695857Y-12117452D02*
X22686333Y-12098405D01*
X22686333Y-12098405D02*
X22686333Y-11926976D01*
X22867286Y-12117452D02*
X22848238Y-12126976D01*
X22848238Y-12126976D02*
X22810143Y-12126976D01*
X22810143Y-12126976D02*
X22791095Y-12117452D01*
X22791095Y-12117452D02*
X22781572Y-12098405D01*
X22781572Y-12098405D02*
X22781572Y-12022214D01*
X22781572Y-12022214D02*
X22791095Y-12003167D01*
X22791095Y-12003167D02*
X22810143Y-11993643D01*
X22810143Y-11993643D02*
X22848238Y-11993643D01*
X22848238Y-11993643D02*
X22867286Y-12003167D01*
X22867286Y-12003167D02*
X22876810Y-12022214D01*
X22876810Y-12022214D02*
X22876810Y-12041262D01*
X22876810Y-12041262D02*
X22781572Y-12060309D01*
X22953000Y-12117452D02*
X22972048Y-12126976D01*
X22972048Y-12126976D02*
X23010143Y-12126976D01*
X23010143Y-12126976D02*
X23029191Y-12117452D01*
X23029191Y-12117452D02*
X23038714Y-12098405D01*
X23038714Y-12098405D02*
X23038714Y-12088881D01*
X23038714Y-12088881D02*
X23029191Y-12069833D01*
X23029191Y-12069833D02*
X23010143Y-12060309D01*
X23010143Y-12060309D02*
X22981572Y-12060309D01*
X22981572Y-12060309D02*
X22962524Y-12050786D01*
X22962524Y-12050786D02*
X22953000Y-12031738D01*
X22953000Y-12031738D02*
X22953000Y-12022214D01*
X22953000Y-12022214D02*
X22962524Y-12003167D01*
X22962524Y-12003167D02*
X22981572Y-11993643D01*
X22981572Y-11993643D02*
X23010143Y-11993643D01*
X23010143Y-11993643D02*
X23029191Y-12003167D01*
X23105381Y-12203167D02*
X23114905Y-12193643D01*
X23114905Y-12193643D02*
X23133953Y-12165071D01*
X23133953Y-12165071D02*
X23143476Y-12146024D01*
X23143476Y-12146024D02*
X23153000Y-12117452D01*
X23153000Y-12117452D02*
X23162524Y-12069833D01*
X23162524Y-12069833D02*
X23162524Y-12031738D01*
X23162524Y-12031738D02*
X23153000Y-11984119D01*
X23153000Y-11984119D02*
X23143476Y-11955548D01*
X23143476Y-11955548D02*
X23133953Y-11936500D01*
X23133953Y-11936500D02*
X23114905Y-11907928D01*
X23114905Y-11907928D02*
X23105381Y-11898405D01*
X23434905Y-12203167D02*
X23425381Y-12193643D01*
X23425381Y-12193643D02*
X23406333Y-12165071D01*
X23406333Y-12165071D02*
X23396810Y-12146024D01*
X23396810Y-12146024D02*
X23387286Y-12117452D01*
X23387286Y-12117452D02*
X23377762Y-12069833D01*
X23377762Y-12069833D02*
X23377762Y-12031738D01*
X23377762Y-12031738D02*
X23387286Y-11984119D01*
X23387286Y-11984119D02*
X23396810Y-11955548D01*
X23396810Y-11955548D02*
X23406333Y-11936500D01*
X23406333Y-11936500D02*
X23425381Y-11907928D01*
X23425381Y-11907928D02*
X23434905Y-11898405D01*
X23511095Y-11993643D02*
X23511095Y-12126976D01*
X23511095Y-12012690D02*
X23520619Y-12003167D01*
X23520619Y-12003167D02*
X23539667Y-11993643D01*
X23539667Y-11993643D02*
X23568238Y-11993643D01*
X23568238Y-11993643D02*
X23587286Y-12003167D01*
X23587286Y-12003167D02*
X23596810Y-12022214D01*
X23596810Y-12022214D02*
X23596810Y-12126976D01*
X23720619Y-12126976D02*
X23701572Y-12117452D01*
X23701572Y-12117452D02*
X23692048Y-12107928D01*
X23692048Y-12107928D02*
X23682524Y-12088881D01*
X23682524Y-12088881D02*
X23682524Y-12031738D01*
X23682524Y-12031738D02*
X23692048Y-12012690D01*
X23692048Y-12012690D02*
X23701572Y-12003167D01*
X23701572Y-12003167D02*
X23720619Y-11993643D01*
X23720619Y-11993643D02*
X23749191Y-11993643D01*
X23749191Y-11993643D02*
X23768238Y-12003167D01*
X23768238Y-12003167D02*
X23777762Y-12012690D01*
X23777762Y-12012690D02*
X23787286Y-12031738D01*
X23787286Y-12031738D02*
X23787286Y-12088881D01*
X23787286Y-12088881D02*
X23777762Y-12107928D01*
X23777762Y-12107928D02*
X23768238Y-12117452D01*
X23768238Y-12117452D02*
X23749191Y-12126976D01*
X23749191Y-12126976D02*
X23720619Y-12126976D01*
X23844429Y-11993643D02*
X23920619Y-11993643D01*
X23873000Y-11926976D02*
X23873000Y-12098405D01*
X23873000Y-12098405D02*
X23882524Y-12117452D01*
X23882524Y-12117452D02*
X23901572Y-12126976D01*
X23901572Y-12126976D02*
X23920619Y-12126976D01*
X24107286Y-11993643D02*
X24107286Y-12193643D01*
X24107286Y-12003167D02*
X24126333Y-11993643D01*
X24126333Y-11993643D02*
X24164429Y-11993643D01*
X24164429Y-11993643D02*
X24183476Y-12003167D01*
X24183476Y-12003167D02*
X24193000Y-12012690D01*
X24193000Y-12012690D02*
X24202524Y-12031738D01*
X24202524Y-12031738D02*
X24202524Y-12088881D01*
X24202524Y-12088881D02*
X24193000Y-12107928D01*
X24193000Y-12107928D02*
X24183476Y-12117452D01*
X24183476Y-12117452D02*
X24164429Y-12126976D01*
X24164429Y-12126976D02*
X24126333Y-12126976D01*
X24126333Y-12126976D02*
X24107286Y-12117452D01*
X24316810Y-12126976D02*
X24297762Y-12117452D01*
X24297762Y-12117452D02*
X24288238Y-12098405D01*
X24288238Y-12098405D02*
X24288238Y-11926976D01*
X24478714Y-12126976D02*
X24478714Y-12022214D01*
X24478714Y-12022214D02*
X24469191Y-12003167D01*
X24469191Y-12003167D02*
X24450143Y-11993643D01*
X24450143Y-11993643D02*
X24412048Y-11993643D01*
X24412048Y-11993643D02*
X24393000Y-12003167D01*
X24478714Y-12117452D02*
X24459667Y-12126976D01*
X24459667Y-12126976D02*
X24412048Y-12126976D01*
X24412048Y-12126976D02*
X24393000Y-12117452D01*
X24393000Y-12117452D02*
X24383476Y-12098405D01*
X24383476Y-12098405D02*
X24383476Y-12079357D01*
X24383476Y-12079357D02*
X24393000Y-12060309D01*
X24393000Y-12060309D02*
X24412048Y-12050786D01*
X24412048Y-12050786D02*
X24459667Y-12050786D01*
X24459667Y-12050786D02*
X24478714Y-12041262D01*
X24545381Y-11993643D02*
X24621572Y-11993643D01*
X24573953Y-11926976D02*
X24573953Y-12098405D01*
X24573953Y-12098405D02*
X24583476Y-12117452D01*
X24583476Y-12117452D02*
X24602524Y-12126976D01*
X24602524Y-12126976D02*
X24621572Y-12126976D01*
X24764429Y-12117452D02*
X24745381Y-12126976D01*
X24745381Y-12126976D02*
X24707286Y-12126976D01*
X24707286Y-12126976D02*
X24688238Y-12117452D01*
X24688238Y-12117452D02*
X24678714Y-12098405D01*
X24678714Y-12098405D02*
X24678714Y-12022214D01*
X24678714Y-12022214D02*
X24688238Y-12003167D01*
X24688238Y-12003167D02*
X24707286Y-11993643D01*
X24707286Y-11993643D02*
X24745381Y-11993643D01*
X24745381Y-11993643D02*
X24764429Y-12003167D01*
X24764429Y-12003167D02*
X24773953Y-12022214D01*
X24773953Y-12022214D02*
X24773953Y-12041262D01*
X24773953Y-12041262D02*
X24678714Y-12060309D01*
X24945381Y-12126976D02*
X24945381Y-11926976D01*
X24945381Y-12117452D02*
X24926334Y-12126976D01*
X24926334Y-12126976D02*
X24888238Y-12126976D01*
X24888238Y-12126976D02*
X24869191Y-12117452D01*
X24869191Y-12117452D02*
X24859667Y-12107928D01*
X24859667Y-12107928D02*
X24850143Y-12088881D01*
X24850143Y-12088881D02*
X24850143Y-12031738D01*
X24850143Y-12031738D02*
X24859667Y-12012690D01*
X24859667Y-12012690D02*
X24869191Y-12003167D01*
X24869191Y-12003167D02*
X24888238Y-11993643D01*
X24888238Y-11993643D02*
X24926334Y-11993643D01*
X24926334Y-11993643D02*
X24945381Y-12003167D01*
X25021572Y-12203167D02*
X25031095Y-12193643D01*
X25031095Y-12193643D02*
X25050143Y-12165071D01*
X25050143Y-12165071D02*
X25059667Y-12146024D01*
X25059667Y-12146024D02*
X25069191Y-12117452D01*
X25069191Y-12117452D02*
X25078714Y-12069833D01*
X25078714Y-12069833D02*
X25078714Y-12031738D01*
X25078714Y-12031738D02*
X25069191Y-11984119D01*
X25069191Y-11984119D02*
X25059667Y-11955548D01*
X25059667Y-11955548D02*
X25050143Y-11936500D01*
X25050143Y-11936500D02*
X25031095Y-11907928D01*
X25031095Y-11907928D02*
X25021572Y-11898405D01*
M02*
