M48
; DRILL file {KiCad 7.0.0-da2b9df05c~163~ubuntu22.04.1} date Sun Feb 19 22:43:45 2023
; FORMAT={-:-/ absolute / metric / decimal}
; #@! TF.CreationDate,2023-02-19T22:43:45+00:00
; #@! TF.GenerationSoftware,Kicad,Pcbnew,7.0.0-da2b9df05c~163~ubuntu22.04.1
; #@! TF.FileFunction,Plated,1,2,PTH
FMAT,2
METRIC
; #@! TA.AperFunction,Plated,PTH,ViaDrill
T1C0.400
; #@! TA.AperFunction,Plated,PTH,ComponentDrill
T2C1.000
; #@! TA.AperFunction,Plated,PTH,ComponentDrill
T3C2.292
; #@! TA.AperFunction,Plated,PTH,ComponentDrill
T4C2.693
; #@! TA.AperFunction,Plated,PTH,ComponentDrill
T5C3.200
%
G90
G05
T1
X176.022Y-83.566
X185.42Y-80.772
X187.96Y-95.758
X187.98Y-80.971
X188.214Y-90.424
X189.23Y-85.09
X190.48Y-80.532
X190.66Y-95.891
X193.548Y-99.822
X194.056Y-97.282
X194.133Y-81.016
X194.564Y-84.074
X194.818Y-95.291
X195.326Y-91.948
X195.58Y-98.552
X195.834Y-77.978
X195.834Y-81.026
X196.85Y-98.552
X197.108Y-87.126
X198.038Y-100.036
X198.148Y-101.485
X199.696Y-98.079
X200.948Y-94.566
X201.36Y-92.772
X201.93Y-101.092
X201.963Y-97.18
X202.088Y-89.758
X204.248Y-100.553
X204.825Y-96.281
X206.248Y-101.092
X206.756Y-90.932
X207.955Y-95.09
X208.026Y-97.028
X210.058Y-81.026
X210.566Y-89.408
X210.566Y-98.044
X210.703Y-94.488
X211.074Y-99.06
X211.402Y-100.508
X212.861Y-80.668
X213.868Y-81.788
X214.376Y-91.44
X214.376Y-97.282
X215.265Y-95.885
X215.393Y-93.357
X215.919Y-94.207
X215.939Y-91.931
X216.916Y-88.392
X216.989Y-91.235
X217.266Y-97.294
X217.267Y-87.163
X220.472Y-82.042
X221.234Y-94.996
T2
X173.223Y-87.127
X173.223Y-89.667
X173.223Y-92.207
X173.223Y-94.747
X173.223Y-97.287
X175.763Y-87.127
X175.763Y-89.667
X175.763Y-92.207
X175.763Y-94.747
X175.763Y-97.287
X199.39Y-84.328
X199.39Y-86.868
X201.93Y-84.328
X201.93Y-86.868
X204.47Y-84.328
X204.47Y-86.868
T3
X180.34Y-85.148
X180.34Y-98.748
X182.43Y-73.406
X196.03Y-73.406
X207.068Y-73.406
X220.668Y-73.406
X224.406Y-85.402
X224.406Y-99.002
T4
X196.298Y-106.601
X207.998Y-106.601
T5
X175.0Y-71.0
X175.0Y-105.0
X229.0Y-71.0
X229.0Y-105.0
T0
M30
