%TF.GenerationSoftware,KiCad,Pcbnew,7.0.0-da2b9df05c~163~ubuntu22.04.1*%
%TF.CreationDate,2023-02-19T22:43:45+00:00*%
%TF.ProjectId,userioswitch,75736572-696f-4737-9769-7463682e6b69,rev?*%
%TF.SameCoordinates,Original*%
%TF.FileFunction,Drillmap*%
%TF.FilePolarity,Positive*%
%FSLAX45Y45*%
G04 Gerber Fmt 4.5, Leading zero omitted, Abs format (unit mm)*
G04 Created by KiCad (PCBNEW 7.0.0-da2b9df05c~163~ubuntu22.04.1) date 2023-02-19 22:43:45*
%MOMM*%
%LPD*%
G01*
G04 APERTURE LIST*
%ADD10C,0.200000*%
%ADD11C,0.110000*%
G04 APERTURE END LIST*
D10*
X17050000Y-6700000D02*
X23350000Y-6700000D01*
X23350000Y-6700000D02*
X23350000Y-10900000D01*
X23350000Y-10900000D02*
X17050000Y-10900000D01*
X17050000Y-10900000D02*
X17050000Y-6700000D01*
D11*
X19934800Y-10605100D02*
X20044800Y-10715100D01*
X20044800Y-10605100D02*
X19934800Y-10715100D01*
X20384800Y-10605100D02*
X20494800Y-10715100D01*
X20494800Y-10605100D02*
X20384800Y-10715100D01*
D10*
X18134000Y-8854800D02*
G75*
G03*
X18134000Y-8854800I-100000J0D01*
G01*
X18134000Y-9534800D02*
G75*
G03*
X18134000Y-9534800I-100000J0D01*
G01*
X18683000Y-7340600D02*
G75*
G03*
X18683000Y-7340600I-100000J0D01*
G01*
X19363000Y-7340600D02*
G75*
G03*
X19363000Y-7340600I-100000J0D01*
G01*
X21146800Y-7340600D02*
G75*
G03*
X21146800Y-7340600I-100000J0D01*
G01*
X21826800Y-7340600D02*
G75*
G03*
X21826800Y-7340600I-100000J0D01*
G01*
X22540650Y-8880200D02*
G75*
G03*
X22540650Y-8880200I-100000J0D01*
G01*
X22540650Y-9560200D02*
G75*
G03*
X22540650Y-9560200I-100000J0D01*
G01*
X17287619Y-11203476D02*
X17287619Y-11003476D01*
X17287619Y-11003476D02*
X17335238Y-11003476D01*
X17335238Y-11003476D02*
X17363810Y-11013000D01*
X17363810Y-11013000D02*
X17382857Y-11032048D01*
X17382857Y-11032048D02*
X17392381Y-11051095D01*
X17392381Y-11051095D02*
X17401905Y-11089190D01*
X17401905Y-11089190D02*
X17401905Y-11117762D01*
X17401905Y-11117762D02*
X17392381Y-11155857D01*
X17392381Y-11155857D02*
X17382857Y-11174905D01*
X17382857Y-11174905D02*
X17363810Y-11193952D01*
X17363810Y-11193952D02*
X17335238Y-11203476D01*
X17335238Y-11203476D02*
X17287619Y-11203476D01*
X17487619Y-11203476D02*
X17487619Y-11070143D01*
X17487619Y-11108238D02*
X17497143Y-11089190D01*
X17497143Y-11089190D02*
X17506667Y-11079667D01*
X17506667Y-11079667D02*
X17525714Y-11070143D01*
X17525714Y-11070143D02*
X17544762Y-11070143D01*
X17611429Y-11203476D02*
X17611429Y-11070143D01*
X17611429Y-11003476D02*
X17601905Y-11013000D01*
X17601905Y-11013000D02*
X17611429Y-11022524D01*
X17611429Y-11022524D02*
X17620952Y-11013000D01*
X17620952Y-11013000D02*
X17611429Y-11003476D01*
X17611429Y-11003476D02*
X17611429Y-11022524D01*
X17735238Y-11203476D02*
X17716190Y-11193952D01*
X17716190Y-11193952D02*
X17706667Y-11174905D01*
X17706667Y-11174905D02*
X17706667Y-11003476D01*
X17840000Y-11203476D02*
X17820952Y-11193952D01*
X17820952Y-11193952D02*
X17811429Y-11174905D01*
X17811429Y-11174905D02*
X17811429Y-11003476D01*
X18036190Y-11203476D02*
X18036190Y-11003476D01*
X18036190Y-11003476D02*
X18102857Y-11146333D01*
X18102857Y-11146333D02*
X18169524Y-11003476D01*
X18169524Y-11003476D02*
X18169524Y-11203476D01*
X18350476Y-11203476D02*
X18350476Y-11098714D01*
X18350476Y-11098714D02*
X18340952Y-11079667D01*
X18340952Y-11079667D02*
X18321905Y-11070143D01*
X18321905Y-11070143D02*
X18283809Y-11070143D01*
X18283809Y-11070143D02*
X18264762Y-11079667D01*
X18350476Y-11193952D02*
X18331429Y-11203476D01*
X18331429Y-11203476D02*
X18283809Y-11203476D01*
X18283809Y-11203476D02*
X18264762Y-11193952D01*
X18264762Y-11193952D02*
X18255238Y-11174905D01*
X18255238Y-11174905D02*
X18255238Y-11155857D01*
X18255238Y-11155857D02*
X18264762Y-11136810D01*
X18264762Y-11136810D02*
X18283809Y-11127286D01*
X18283809Y-11127286D02*
X18331429Y-11127286D01*
X18331429Y-11127286D02*
X18350476Y-11117762D01*
X18445714Y-11070143D02*
X18445714Y-11270143D01*
X18445714Y-11079667D02*
X18464762Y-11070143D01*
X18464762Y-11070143D02*
X18502857Y-11070143D01*
X18502857Y-11070143D02*
X18521905Y-11079667D01*
X18521905Y-11079667D02*
X18531429Y-11089190D01*
X18531429Y-11089190D02*
X18540952Y-11108238D01*
X18540952Y-11108238D02*
X18540952Y-11165381D01*
X18540952Y-11165381D02*
X18531429Y-11184429D01*
X18531429Y-11184429D02*
X18521905Y-11193952D01*
X18521905Y-11193952D02*
X18502857Y-11203476D01*
X18502857Y-11203476D02*
X18464762Y-11203476D01*
X18464762Y-11203476D02*
X18445714Y-11193952D01*
X18626667Y-11184429D02*
X18636190Y-11193952D01*
X18636190Y-11193952D02*
X18626667Y-11203476D01*
X18626667Y-11203476D02*
X18617143Y-11193952D01*
X18617143Y-11193952D02*
X18626667Y-11184429D01*
X18626667Y-11184429D02*
X18626667Y-11203476D01*
X18626667Y-11079667D02*
X18636190Y-11089190D01*
X18636190Y-11089190D02*
X18626667Y-11098714D01*
X18626667Y-11098714D02*
X18617143Y-11089190D01*
X18617143Y-11089190D02*
X18626667Y-11079667D01*
X18626667Y-11079667D02*
X18626667Y-11098714D01*
D11*
X16930000Y-11495000D02*
X17040000Y-11605000D01*
X17040000Y-11495000D02*
X16930000Y-11605000D01*
D10*
X17392381Y-11623476D02*
X17278095Y-11623476D01*
X17335238Y-11623476D02*
X17335238Y-11423476D01*
X17335238Y-11423476D02*
X17316190Y-11452048D01*
X17316190Y-11452048D02*
X17297143Y-11471095D01*
X17297143Y-11471095D02*
X17278095Y-11480619D01*
X17478095Y-11604428D02*
X17487619Y-11613952D01*
X17487619Y-11613952D02*
X17478095Y-11623476D01*
X17478095Y-11623476D02*
X17468571Y-11613952D01*
X17468571Y-11613952D02*
X17478095Y-11604428D01*
X17478095Y-11604428D02*
X17478095Y-11623476D01*
X17678095Y-11623476D02*
X17563810Y-11623476D01*
X17620952Y-11623476D02*
X17620952Y-11423476D01*
X17620952Y-11423476D02*
X17601905Y-11452048D01*
X17601905Y-11452048D02*
X17582857Y-11471095D01*
X17582857Y-11471095D02*
X17563810Y-11480619D01*
X17801905Y-11423476D02*
X17820952Y-11423476D01*
X17820952Y-11423476D02*
X17840000Y-11433000D01*
X17840000Y-11433000D02*
X17849524Y-11442524D01*
X17849524Y-11442524D02*
X17859048Y-11461571D01*
X17859048Y-11461571D02*
X17868571Y-11499667D01*
X17868571Y-11499667D02*
X17868571Y-11547286D01*
X17868571Y-11547286D02*
X17859048Y-11585381D01*
X17859048Y-11585381D02*
X17849524Y-11604428D01*
X17849524Y-11604428D02*
X17840000Y-11613952D01*
X17840000Y-11613952D02*
X17820952Y-11623476D01*
X17820952Y-11623476D02*
X17801905Y-11623476D01*
X17801905Y-11623476D02*
X17782857Y-11613952D01*
X17782857Y-11613952D02*
X17773333Y-11604428D01*
X17773333Y-11604428D02*
X17763810Y-11585381D01*
X17763810Y-11585381D02*
X17754286Y-11547286D01*
X17754286Y-11547286D02*
X17754286Y-11499667D01*
X17754286Y-11499667D02*
X17763810Y-11461571D01*
X17763810Y-11461571D02*
X17773333Y-11442524D01*
X17773333Y-11442524D02*
X17782857Y-11433000D01*
X17782857Y-11433000D02*
X17801905Y-11423476D01*
X17992381Y-11423476D02*
X18011429Y-11423476D01*
X18011429Y-11423476D02*
X18030476Y-11433000D01*
X18030476Y-11433000D02*
X18040000Y-11442524D01*
X18040000Y-11442524D02*
X18049524Y-11461571D01*
X18049524Y-11461571D02*
X18059048Y-11499667D01*
X18059048Y-11499667D02*
X18059048Y-11547286D01*
X18059048Y-11547286D02*
X18049524Y-11585381D01*
X18049524Y-11585381D02*
X18040000Y-11604428D01*
X18040000Y-11604428D02*
X18030476Y-11613952D01*
X18030476Y-11613952D02*
X18011429Y-11623476D01*
X18011429Y-11623476D02*
X17992381Y-11623476D01*
X17992381Y-11623476D02*
X17973333Y-11613952D01*
X17973333Y-11613952D02*
X17963810Y-11604428D01*
X17963810Y-11604428D02*
X17954286Y-11585381D01*
X17954286Y-11585381D02*
X17944762Y-11547286D01*
X17944762Y-11547286D02*
X17944762Y-11499667D01*
X17944762Y-11499667D02*
X17954286Y-11461571D01*
X17954286Y-11461571D02*
X17963810Y-11442524D01*
X17963810Y-11442524D02*
X17973333Y-11433000D01*
X17973333Y-11433000D02*
X17992381Y-11423476D01*
X18144762Y-11623476D02*
X18144762Y-11490143D01*
X18144762Y-11509190D02*
X18154286Y-11499667D01*
X18154286Y-11499667D02*
X18173333Y-11490143D01*
X18173333Y-11490143D02*
X18201905Y-11490143D01*
X18201905Y-11490143D02*
X18220952Y-11499667D01*
X18220952Y-11499667D02*
X18230476Y-11518714D01*
X18230476Y-11518714D02*
X18230476Y-11623476D01*
X18230476Y-11518714D02*
X18240000Y-11499667D01*
X18240000Y-11499667D02*
X18259048Y-11490143D01*
X18259048Y-11490143D02*
X18287619Y-11490143D01*
X18287619Y-11490143D02*
X18306667Y-11499667D01*
X18306667Y-11499667D02*
X18316191Y-11518714D01*
X18316191Y-11518714D02*
X18316191Y-11623476D01*
X18411429Y-11623476D02*
X18411429Y-11490143D01*
X18411429Y-11509190D02*
X18420952Y-11499667D01*
X18420952Y-11499667D02*
X18440000Y-11490143D01*
X18440000Y-11490143D02*
X18468572Y-11490143D01*
X18468572Y-11490143D02*
X18487619Y-11499667D01*
X18487619Y-11499667D02*
X18497143Y-11518714D01*
X18497143Y-11518714D02*
X18497143Y-11623476D01*
X18497143Y-11518714D02*
X18506667Y-11499667D01*
X18506667Y-11499667D02*
X18525714Y-11490143D01*
X18525714Y-11490143D02*
X18554286Y-11490143D01*
X18554286Y-11490143D02*
X18573333Y-11499667D01*
X18573333Y-11499667D02*
X18582857Y-11518714D01*
X18582857Y-11518714D02*
X18582857Y-11623476D01*
X18940952Y-11413952D02*
X18769524Y-11671095D01*
X19165714Y-11423476D02*
X19184762Y-11423476D01*
X19184762Y-11423476D02*
X19203810Y-11433000D01*
X19203810Y-11433000D02*
X19213333Y-11442524D01*
X19213333Y-11442524D02*
X19222857Y-11461571D01*
X19222857Y-11461571D02*
X19232381Y-11499667D01*
X19232381Y-11499667D02*
X19232381Y-11547286D01*
X19232381Y-11547286D02*
X19222857Y-11585381D01*
X19222857Y-11585381D02*
X19213333Y-11604428D01*
X19213333Y-11604428D02*
X19203810Y-11613952D01*
X19203810Y-11613952D02*
X19184762Y-11623476D01*
X19184762Y-11623476D02*
X19165714Y-11623476D01*
X19165714Y-11623476D02*
X19146667Y-11613952D01*
X19146667Y-11613952D02*
X19137143Y-11604428D01*
X19137143Y-11604428D02*
X19127619Y-11585381D01*
X19127619Y-11585381D02*
X19118095Y-11547286D01*
X19118095Y-11547286D02*
X19118095Y-11499667D01*
X19118095Y-11499667D02*
X19127619Y-11461571D01*
X19127619Y-11461571D02*
X19137143Y-11442524D01*
X19137143Y-11442524D02*
X19146667Y-11433000D01*
X19146667Y-11433000D02*
X19165714Y-11423476D01*
X19318095Y-11604428D02*
X19327619Y-11613952D01*
X19327619Y-11613952D02*
X19318095Y-11623476D01*
X19318095Y-11623476D02*
X19308572Y-11613952D01*
X19308572Y-11613952D02*
X19318095Y-11604428D01*
X19318095Y-11604428D02*
X19318095Y-11623476D01*
X19451429Y-11423476D02*
X19470476Y-11423476D01*
X19470476Y-11423476D02*
X19489524Y-11433000D01*
X19489524Y-11433000D02*
X19499048Y-11442524D01*
X19499048Y-11442524D02*
X19508572Y-11461571D01*
X19508572Y-11461571D02*
X19518095Y-11499667D01*
X19518095Y-11499667D02*
X19518095Y-11547286D01*
X19518095Y-11547286D02*
X19508572Y-11585381D01*
X19508572Y-11585381D02*
X19499048Y-11604428D01*
X19499048Y-11604428D02*
X19489524Y-11613952D01*
X19489524Y-11613952D02*
X19470476Y-11623476D01*
X19470476Y-11623476D02*
X19451429Y-11623476D01*
X19451429Y-11623476D02*
X19432381Y-11613952D01*
X19432381Y-11613952D02*
X19422857Y-11604428D01*
X19422857Y-11604428D02*
X19413333Y-11585381D01*
X19413333Y-11585381D02*
X19403810Y-11547286D01*
X19403810Y-11547286D02*
X19403810Y-11499667D01*
X19403810Y-11499667D02*
X19413333Y-11461571D01*
X19413333Y-11461571D02*
X19422857Y-11442524D01*
X19422857Y-11442524D02*
X19432381Y-11433000D01*
X19432381Y-11433000D02*
X19451429Y-11423476D01*
X19689524Y-11490143D02*
X19689524Y-11623476D01*
X19641905Y-11413952D02*
X19594286Y-11556809D01*
X19594286Y-11556809D02*
X19718095Y-11556809D01*
X19775238Y-11423476D02*
X19899048Y-11423476D01*
X19899048Y-11423476D02*
X19832381Y-11499667D01*
X19832381Y-11499667D02*
X19860953Y-11499667D01*
X19860953Y-11499667D02*
X19880000Y-11509190D01*
X19880000Y-11509190D02*
X19889524Y-11518714D01*
X19889524Y-11518714D02*
X19899048Y-11537762D01*
X19899048Y-11537762D02*
X19899048Y-11585381D01*
X19899048Y-11585381D02*
X19889524Y-11604428D01*
X19889524Y-11604428D02*
X19880000Y-11613952D01*
X19880000Y-11613952D02*
X19860953Y-11623476D01*
X19860953Y-11623476D02*
X19803810Y-11623476D01*
X19803810Y-11623476D02*
X19784762Y-11613952D01*
X19784762Y-11613952D02*
X19775238Y-11604428D01*
X19965714Y-11423476D02*
X20089524Y-11423476D01*
X20089524Y-11423476D02*
X20022857Y-11499667D01*
X20022857Y-11499667D02*
X20051429Y-11499667D01*
X20051429Y-11499667D02*
X20070476Y-11509190D01*
X20070476Y-11509190D02*
X20080000Y-11518714D01*
X20080000Y-11518714D02*
X20089524Y-11537762D01*
X20089524Y-11537762D02*
X20089524Y-11585381D01*
X20089524Y-11585381D02*
X20080000Y-11604428D01*
X20080000Y-11604428D02*
X20070476Y-11613952D01*
X20070476Y-11613952D02*
X20051429Y-11623476D01*
X20051429Y-11623476D02*
X19994286Y-11623476D01*
X19994286Y-11623476D02*
X19975238Y-11613952D01*
X19975238Y-11613952D02*
X19965714Y-11604428D01*
X20165714Y-11423476D02*
X20165714Y-11461571D01*
X20241905Y-11423476D02*
X20241905Y-11461571D01*
X20504762Y-11699667D02*
X20495238Y-11690143D01*
X20495238Y-11690143D02*
X20476191Y-11661571D01*
X20476191Y-11661571D02*
X20466667Y-11642524D01*
X20466667Y-11642524D02*
X20457143Y-11613952D01*
X20457143Y-11613952D02*
X20447619Y-11566333D01*
X20447619Y-11566333D02*
X20447619Y-11528238D01*
X20447619Y-11528238D02*
X20457143Y-11480619D01*
X20457143Y-11480619D02*
X20466667Y-11452048D01*
X20466667Y-11452048D02*
X20476191Y-11433000D01*
X20476191Y-11433000D02*
X20495238Y-11404428D01*
X20495238Y-11404428D02*
X20504762Y-11394905D01*
X20571429Y-11442524D02*
X20580953Y-11433000D01*
X20580953Y-11433000D02*
X20600000Y-11423476D01*
X20600000Y-11423476D02*
X20647619Y-11423476D01*
X20647619Y-11423476D02*
X20666667Y-11433000D01*
X20666667Y-11433000D02*
X20676191Y-11442524D01*
X20676191Y-11442524D02*
X20685714Y-11461571D01*
X20685714Y-11461571D02*
X20685714Y-11480619D01*
X20685714Y-11480619D02*
X20676191Y-11509190D01*
X20676191Y-11509190D02*
X20561905Y-11623476D01*
X20561905Y-11623476D02*
X20685714Y-11623476D01*
X20891429Y-11623476D02*
X20891429Y-11423476D01*
X20977143Y-11623476D02*
X20977143Y-11518714D01*
X20977143Y-11518714D02*
X20967619Y-11499667D01*
X20967619Y-11499667D02*
X20948572Y-11490143D01*
X20948572Y-11490143D02*
X20920000Y-11490143D01*
X20920000Y-11490143D02*
X20900953Y-11499667D01*
X20900953Y-11499667D02*
X20891429Y-11509190D01*
X21100953Y-11623476D02*
X21081905Y-11613952D01*
X21081905Y-11613952D02*
X21072381Y-11604428D01*
X21072381Y-11604428D02*
X21062857Y-11585381D01*
X21062857Y-11585381D02*
X21062857Y-11528238D01*
X21062857Y-11528238D02*
X21072381Y-11509190D01*
X21072381Y-11509190D02*
X21081905Y-11499667D01*
X21081905Y-11499667D02*
X21100953Y-11490143D01*
X21100953Y-11490143D02*
X21129524Y-11490143D01*
X21129524Y-11490143D02*
X21148572Y-11499667D01*
X21148572Y-11499667D02*
X21158095Y-11509190D01*
X21158095Y-11509190D02*
X21167619Y-11528238D01*
X21167619Y-11528238D02*
X21167619Y-11585381D01*
X21167619Y-11585381D02*
X21158095Y-11604428D01*
X21158095Y-11604428D02*
X21148572Y-11613952D01*
X21148572Y-11613952D02*
X21129524Y-11623476D01*
X21129524Y-11623476D02*
X21100953Y-11623476D01*
X21281905Y-11623476D02*
X21262857Y-11613952D01*
X21262857Y-11613952D02*
X21253334Y-11594905D01*
X21253334Y-11594905D02*
X21253334Y-11423476D01*
X21434286Y-11613952D02*
X21415238Y-11623476D01*
X21415238Y-11623476D02*
X21377143Y-11623476D01*
X21377143Y-11623476D02*
X21358095Y-11613952D01*
X21358095Y-11613952D02*
X21348572Y-11594905D01*
X21348572Y-11594905D02*
X21348572Y-11518714D01*
X21348572Y-11518714D02*
X21358095Y-11499667D01*
X21358095Y-11499667D02*
X21377143Y-11490143D01*
X21377143Y-11490143D02*
X21415238Y-11490143D01*
X21415238Y-11490143D02*
X21434286Y-11499667D01*
X21434286Y-11499667D02*
X21443810Y-11518714D01*
X21443810Y-11518714D02*
X21443810Y-11537762D01*
X21443810Y-11537762D02*
X21348572Y-11556809D01*
X21520000Y-11613952D02*
X21539048Y-11623476D01*
X21539048Y-11623476D02*
X21577143Y-11623476D01*
X21577143Y-11623476D02*
X21596191Y-11613952D01*
X21596191Y-11613952D02*
X21605715Y-11594905D01*
X21605715Y-11594905D02*
X21605715Y-11585381D01*
X21605715Y-11585381D02*
X21596191Y-11566333D01*
X21596191Y-11566333D02*
X21577143Y-11556809D01*
X21577143Y-11556809D02*
X21548572Y-11556809D01*
X21548572Y-11556809D02*
X21529524Y-11547286D01*
X21529524Y-11547286D02*
X21520000Y-11528238D01*
X21520000Y-11528238D02*
X21520000Y-11518714D01*
X21520000Y-11518714D02*
X21529524Y-11499667D01*
X21529524Y-11499667D02*
X21548572Y-11490143D01*
X21548572Y-11490143D02*
X21577143Y-11490143D01*
X21577143Y-11490143D02*
X21596191Y-11499667D01*
X21672381Y-11699667D02*
X21681905Y-11690143D01*
X21681905Y-11690143D02*
X21700953Y-11661571D01*
X21700953Y-11661571D02*
X21710476Y-11642524D01*
X21710476Y-11642524D02*
X21720000Y-11613952D01*
X21720000Y-11613952D02*
X21729524Y-11566333D01*
X21729524Y-11566333D02*
X21729524Y-11528238D01*
X21729524Y-11528238D02*
X21720000Y-11480619D01*
X21720000Y-11480619D02*
X21710476Y-11452048D01*
X21710476Y-11452048D02*
X21700953Y-11433000D01*
X21700953Y-11433000D02*
X21681905Y-11404428D01*
X21681905Y-11404428D02*
X21672381Y-11394905D01*
X22001905Y-11699667D02*
X21992381Y-11690143D01*
X21992381Y-11690143D02*
X21973334Y-11661571D01*
X21973334Y-11661571D02*
X21963810Y-11642524D01*
X21963810Y-11642524D02*
X21954286Y-11613952D01*
X21954286Y-11613952D02*
X21944762Y-11566333D01*
X21944762Y-11566333D02*
X21944762Y-11528238D01*
X21944762Y-11528238D02*
X21954286Y-11480619D01*
X21954286Y-11480619D02*
X21963810Y-11452048D01*
X21963810Y-11452048D02*
X21973334Y-11433000D01*
X21973334Y-11433000D02*
X21992381Y-11404428D01*
X21992381Y-11404428D02*
X22001905Y-11394905D01*
X22078095Y-11490143D02*
X22078095Y-11623476D01*
X22078095Y-11509190D02*
X22087619Y-11499667D01*
X22087619Y-11499667D02*
X22106667Y-11490143D01*
X22106667Y-11490143D02*
X22135238Y-11490143D01*
X22135238Y-11490143D02*
X22154286Y-11499667D01*
X22154286Y-11499667D02*
X22163810Y-11518714D01*
X22163810Y-11518714D02*
X22163810Y-11623476D01*
X22287619Y-11623476D02*
X22268572Y-11613952D01*
X22268572Y-11613952D02*
X22259048Y-11604428D01*
X22259048Y-11604428D02*
X22249524Y-11585381D01*
X22249524Y-11585381D02*
X22249524Y-11528238D01*
X22249524Y-11528238D02*
X22259048Y-11509190D01*
X22259048Y-11509190D02*
X22268572Y-11499667D01*
X22268572Y-11499667D02*
X22287619Y-11490143D01*
X22287619Y-11490143D02*
X22316191Y-11490143D01*
X22316191Y-11490143D02*
X22335238Y-11499667D01*
X22335238Y-11499667D02*
X22344762Y-11509190D01*
X22344762Y-11509190D02*
X22354286Y-11528238D01*
X22354286Y-11528238D02*
X22354286Y-11585381D01*
X22354286Y-11585381D02*
X22344762Y-11604428D01*
X22344762Y-11604428D02*
X22335238Y-11613952D01*
X22335238Y-11613952D02*
X22316191Y-11623476D01*
X22316191Y-11623476D02*
X22287619Y-11623476D01*
X22411429Y-11490143D02*
X22487619Y-11490143D01*
X22440000Y-11423476D02*
X22440000Y-11594905D01*
X22440000Y-11594905D02*
X22449524Y-11613952D01*
X22449524Y-11613952D02*
X22468572Y-11623476D01*
X22468572Y-11623476D02*
X22487619Y-11623476D01*
X22674286Y-11490143D02*
X22674286Y-11690143D01*
X22674286Y-11499667D02*
X22693333Y-11490143D01*
X22693333Y-11490143D02*
X22731429Y-11490143D01*
X22731429Y-11490143D02*
X22750476Y-11499667D01*
X22750476Y-11499667D02*
X22760000Y-11509190D01*
X22760000Y-11509190D02*
X22769524Y-11528238D01*
X22769524Y-11528238D02*
X22769524Y-11585381D01*
X22769524Y-11585381D02*
X22760000Y-11604428D01*
X22760000Y-11604428D02*
X22750476Y-11613952D01*
X22750476Y-11613952D02*
X22731429Y-11623476D01*
X22731429Y-11623476D02*
X22693333Y-11623476D01*
X22693333Y-11623476D02*
X22674286Y-11613952D01*
X22883810Y-11623476D02*
X22864762Y-11613952D01*
X22864762Y-11613952D02*
X22855238Y-11594905D01*
X22855238Y-11594905D02*
X22855238Y-11423476D01*
X23045714Y-11623476D02*
X23045714Y-11518714D01*
X23045714Y-11518714D02*
X23036191Y-11499667D01*
X23036191Y-11499667D02*
X23017143Y-11490143D01*
X23017143Y-11490143D02*
X22979048Y-11490143D01*
X22979048Y-11490143D02*
X22960000Y-11499667D01*
X23045714Y-11613952D02*
X23026667Y-11623476D01*
X23026667Y-11623476D02*
X22979048Y-11623476D01*
X22979048Y-11623476D02*
X22960000Y-11613952D01*
X22960000Y-11613952D02*
X22950476Y-11594905D01*
X22950476Y-11594905D02*
X22950476Y-11575857D01*
X22950476Y-11575857D02*
X22960000Y-11556809D01*
X22960000Y-11556809D02*
X22979048Y-11547286D01*
X22979048Y-11547286D02*
X23026667Y-11547286D01*
X23026667Y-11547286D02*
X23045714Y-11537762D01*
X23112381Y-11490143D02*
X23188572Y-11490143D01*
X23140953Y-11423476D02*
X23140953Y-11594905D01*
X23140953Y-11594905D02*
X23150476Y-11613952D01*
X23150476Y-11613952D02*
X23169524Y-11623476D01*
X23169524Y-11623476D02*
X23188572Y-11623476D01*
X23331429Y-11613952D02*
X23312381Y-11623476D01*
X23312381Y-11623476D02*
X23274286Y-11623476D01*
X23274286Y-11623476D02*
X23255238Y-11613952D01*
X23255238Y-11613952D02*
X23245714Y-11594905D01*
X23245714Y-11594905D02*
X23245714Y-11518714D01*
X23245714Y-11518714D02*
X23255238Y-11499667D01*
X23255238Y-11499667D02*
X23274286Y-11490143D01*
X23274286Y-11490143D02*
X23312381Y-11490143D01*
X23312381Y-11490143D02*
X23331429Y-11499667D01*
X23331429Y-11499667D02*
X23340953Y-11518714D01*
X23340953Y-11518714D02*
X23340953Y-11537762D01*
X23340953Y-11537762D02*
X23245714Y-11556809D01*
X23512381Y-11623476D02*
X23512381Y-11423476D01*
X23512381Y-11613952D02*
X23493334Y-11623476D01*
X23493334Y-11623476D02*
X23455238Y-11623476D01*
X23455238Y-11623476D02*
X23436191Y-11613952D01*
X23436191Y-11613952D02*
X23426667Y-11604428D01*
X23426667Y-11604428D02*
X23417143Y-11585381D01*
X23417143Y-11585381D02*
X23417143Y-11528238D01*
X23417143Y-11528238D02*
X23426667Y-11509190D01*
X23426667Y-11509190D02*
X23436191Y-11499667D01*
X23436191Y-11499667D02*
X23455238Y-11490143D01*
X23455238Y-11490143D02*
X23493334Y-11490143D01*
X23493334Y-11490143D02*
X23512381Y-11499667D01*
X23588572Y-11699667D02*
X23598095Y-11690143D01*
X23598095Y-11690143D02*
X23617143Y-11661571D01*
X23617143Y-11661571D02*
X23626667Y-11642524D01*
X23626667Y-11642524D02*
X23636191Y-11613952D01*
X23636191Y-11613952D02*
X23645714Y-11566333D01*
X23645714Y-11566333D02*
X23645714Y-11528238D01*
X23645714Y-11528238D02*
X23636191Y-11480619D01*
X23636191Y-11480619D02*
X23626667Y-11452048D01*
X23626667Y-11452048D02*
X23617143Y-11433000D01*
X23617143Y-11433000D02*
X23598095Y-11404428D01*
X23598095Y-11404428D02*
X23588572Y-11394905D01*
X17040000Y-11814000D02*
G75*
G03*
X17040000Y-11814000I-100000J0D01*
G01*
X17278095Y-11706524D02*
X17287619Y-11697000D01*
X17287619Y-11697000D02*
X17306667Y-11687476D01*
X17306667Y-11687476D02*
X17354286Y-11687476D01*
X17354286Y-11687476D02*
X17373333Y-11697000D01*
X17373333Y-11697000D02*
X17382857Y-11706524D01*
X17382857Y-11706524D02*
X17392381Y-11725571D01*
X17392381Y-11725571D02*
X17392381Y-11744619D01*
X17392381Y-11744619D02*
X17382857Y-11773190D01*
X17382857Y-11773190D02*
X17268571Y-11887476D01*
X17268571Y-11887476D02*
X17392381Y-11887476D01*
X17478095Y-11868428D02*
X17487619Y-11877952D01*
X17487619Y-11877952D02*
X17478095Y-11887476D01*
X17478095Y-11887476D02*
X17468571Y-11877952D01*
X17468571Y-11877952D02*
X17478095Y-11868428D01*
X17478095Y-11868428D02*
X17478095Y-11887476D01*
X17611429Y-11687476D02*
X17630476Y-11687476D01*
X17630476Y-11687476D02*
X17649524Y-11697000D01*
X17649524Y-11697000D02*
X17659048Y-11706524D01*
X17659048Y-11706524D02*
X17668571Y-11725571D01*
X17668571Y-11725571D02*
X17678095Y-11763667D01*
X17678095Y-11763667D02*
X17678095Y-11811286D01*
X17678095Y-11811286D02*
X17668571Y-11849381D01*
X17668571Y-11849381D02*
X17659048Y-11868428D01*
X17659048Y-11868428D02*
X17649524Y-11877952D01*
X17649524Y-11877952D02*
X17630476Y-11887476D01*
X17630476Y-11887476D02*
X17611429Y-11887476D01*
X17611429Y-11887476D02*
X17592381Y-11877952D01*
X17592381Y-11877952D02*
X17582857Y-11868428D01*
X17582857Y-11868428D02*
X17573333Y-11849381D01*
X17573333Y-11849381D02*
X17563810Y-11811286D01*
X17563810Y-11811286D02*
X17563810Y-11763667D01*
X17563810Y-11763667D02*
X17573333Y-11725571D01*
X17573333Y-11725571D02*
X17582857Y-11706524D01*
X17582857Y-11706524D02*
X17592381Y-11697000D01*
X17592381Y-11697000D02*
X17611429Y-11687476D01*
X17801905Y-11687476D02*
X17820952Y-11687476D01*
X17820952Y-11687476D02*
X17840000Y-11697000D01*
X17840000Y-11697000D02*
X17849524Y-11706524D01*
X17849524Y-11706524D02*
X17859048Y-11725571D01*
X17859048Y-11725571D02*
X17868571Y-11763667D01*
X17868571Y-11763667D02*
X17868571Y-11811286D01*
X17868571Y-11811286D02*
X17859048Y-11849381D01*
X17859048Y-11849381D02*
X17849524Y-11868428D01*
X17849524Y-11868428D02*
X17840000Y-11877952D01*
X17840000Y-11877952D02*
X17820952Y-11887476D01*
X17820952Y-11887476D02*
X17801905Y-11887476D01*
X17801905Y-11887476D02*
X17782857Y-11877952D01*
X17782857Y-11877952D02*
X17773333Y-11868428D01*
X17773333Y-11868428D02*
X17763810Y-11849381D01*
X17763810Y-11849381D02*
X17754286Y-11811286D01*
X17754286Y-11811286D02*
X17754286Y-11763667D01*
X17754286Y-11763667D02*
X17763810Y-11725571D01*
X17763810Y-11725571D02*
X17773333Y-11706524D01*
X17773333Y-11706524D02*
X17782857Y-11697000D01*
X17782857Y-11697000D02*
X17801905Y-11687476D01*
X17992381Y-11687476D02*
X18011429Y-11687476D01*
X18011429Y-11687476D02*
X18030476Y-11697000D01*
X18030476Y-11697000D02*
X18040000Y-11706524D01*
X18040000Y-11706524D02*
X18049524Y-11725571D01*
X18049524Y-11725571D02*
X18059048Y-11763667D01*
X18059048Y-11763667D02*
X18059048Y-11811286D01*
X18059048Y-11811286D02*
X18049524Y-11849381D01*
X18049524Y-11849381D02*
X18040000Y-11868428D01*
X18040000Y-11868428D02*
X18030476Y-11877952D01*
X18030476Y-11877952D02*
X18011429Y-11887476D01*
X18011429Y-11887476D02*
X17992381Y-11887476D01*
X17992381Y-11887476D02*
X17973333Y-11877952D01*
X17973333Y-11877952D02*
X17963810Y-11868428D01*
X17963810Y-11868428D02*
X17954286Y-11849381D01*
X17954286Y-11849381D02*
X17944762Y-11811286D01*
X17944762Y-11811286D02*
X17944762Y-11763667D01*
X17944762Y-11763667D02*
X17954286Y-11725571D01*
X17954286Y-11725571D02*
X17963810Y-11706524D01*
X17963810Y-11706524D02*
X17973333Y-11697000D01*
X17973333Y-11697000D02*
X17992381Y-11687476D01*
X18144762Y-11887476D02*
X18144762Y-11754143D01*
X18144762Y-11773190D02*
X18154286Y-11763667D01*
X18154286Y-11763667D02*
X18173333Y-11754143D01*
X18173333Y-11754143D02*
X18201905Y-11754143D01*
X18201905Y-11754143D02*
X18220952Y-11763667D01*
X18220952Y-11763667D02*
X18230476Y-11782714D01*
X18230476Y-11782714D02*
X18230476Y-11887476D01*
X18230476Y-11782714D02*
X18240000Y-11763667D01*
X18240000Y-11763667D02*
X18259048Y-11754143D01*
X18259048Y-11754143D02*
X18287619Y-11754143D01*
X18287619Y-11754143D02*
X18306667Y-11763667D01*
X18306667Y-11763667D02*
X18316191Y-11782714D01*
X18316191Y-11782714D02*
X18316191Y-11887476D01*
X18411429Y-11887476D02*
X18411429Y-11754143D01*
X18411429Y-11773190D02*
X18420952Y-11763667D01*
X18420952Y-11763667D02*
X18440000Y-11754143D01*
X18440000Y-11754143D02*
X18468572Y-11754143D01*
X18468572Y-11754143D02*
X18487619Y-11763667D01*
X18487619Y-11763667D02*
X18497143Y-11782714D01*
X18497143Y-11782714D02*
X18497143Y-11887476D01*
X18497143Y-11782714D02*
X18506667Y-11763667D01*
X18506667Y-11763667D02*
X18525714Y-11754143D01*
X18525714Y-11754143D02*
X18554286Y-11754143D01*
X18554286Y-11754143D02*
X18573333Y-11763667D01*
X18573333Y-11763667D02*
X18582857Y-11782714D01*
X18582857Y-11782714D02*
X18582857Y-11887476D01*
X18940952Y-11677952D02*
X18769524Y-11935095D01*
X19165714Y-11687476D02*
X19184762Y-11687476D01*
X19184762Y-11687476D02*
X19203810Y-11697000D01*
X19203810Y-11697000D02*
X19213333Y-11706524D01*
X19213333Y-11706524D02*
X19222857Y-11725571D01*
X19222857Y-11725571D02*
X19232381Y-11763667D01*
X19232381Y-11763667D02*
X19232381Y-11811286D01*
X19232381Y-11811286D02*
X19222857Y-11849381D01*
X19222857Y-11849381D02*
X19213333Y-11868428D01*
X19213333Y-11868428D02*
X19203810Y-11877952D01*
X19203810Y-11877952D02*
X19184762Y-11887476D01*
X19184762Y-11887476D02*
X19165714Y-11887476D01*
X19165714Y-11887476D02*
X19146667Y-11877952D01*
X19146667Y-11877952D02*
X19137143Y-11868428D01*
X19137143Y-11868428D02*
X19127619Y-11849381D01*
X19127619Y-11849381D02*
X19118095Y-11811286D01*
X19118095Y-11811286D02*
X19118095Y-11763667D01*
X19118095Y-11763667D02*
X19127619Y-11725571D01*
X19127619Y-11725571D02*
X19137143Y-11706524D01*
X19137143Y-11706524D02*
X19146667Y-11697000D01*
X19146667Y-11697000D02*
X19165714Y-11687476D01*
X19318095Y-11868428D02*
X19327619Y-11877952D01*
X19327619Y-11877952D02*
X19318095Y-11887476D01*
X19318095Y-11887476D02*
X19308572Y-11877952D01*
X19308572Y-11877952D02*
X19318095Y-11868428D01*
X19318095Y-11868428D02*
X19318095Y-11887476D01*
X19451429Y-11687476D02*
X19470476Y-11687476D01*
X19470476Y-11687476D02*
X19489524Y-11697000D01*
X19489524Y-11697000D02*
X19499048Y-11706524D01*
X19499048Y-11706524D02*
X19508572Y-11725571D01*
X19508572Y-11725571D02*
X19518095Y-11763667D01*
X19518095Y-11763667D02*
X19518095Y-11811286D01*
X19518095Y-11811286D02*
X19508572Y-11849381D01*
X19508572Y-11849381D02*
X19499048Y-11868428D01*
X19499048Y-11868428D02*
X19489524Y-11877952D01*
X19489524Y-11877952D02*
X19470476Y-11887476D01*
X19470476Y-11887476D02*
X19451429Y-11887476D01*
X19451429Y-11887476D02*
X19432381Y-11877952D01*
X19432381Y-11877952D02*
X19422857Y-11868428D01*
X19422857Y-11868428D02*
X19413333Y-11849381D01*
X19413333Y-11849381D02*
X19403810Y-11811286D01*
X19403810Y-11811286D02*
X19403810Y-11763667D01*
X19403810Y-11763667D02*
X19413333Y-11725571D01*
X19413333Y-11725571D02*
X19422857Y-11706524D01*
X19422857Y-11706524D02*
X19432381Y-11697000D01*
X19432381Y-11697000D02*
X19451429Y-11687476D01*
X19584762Y-11687476D02*
X19718095Y-11687476D01*
X19718095Y-11687476D02*
X19632381Y-11887476D01*
X19822857Y-11773190D02*
X19803810Y-11763667D01*
X19803810Y-11763667D02*
X19794286Y-11754143D01*
X19794286Y-11754143D02*
X19784762Y-11735095D01*
X19784762Y-11735095D02*
X19784762Y-11725571D01*
X19784762Y-11725571D02*
X19794286Y-11706524D01*
X19794286Y-11706524D02*
X19803810Y-11697000D01*
X19803810Y-11697000D02*
X19822857Y-11687476D01*
X19822857Y-11687476D02*
X19860953Y-11687476D01*
X19860953Y-11687476D02*
X19880000Y-11697000D01*
X19880000Y-11697000D02*
X19889524Y-11706524D01*
X19889524Y-11706524D02*
X19899048Y-11725571D01*
X19899048Y-11725571D02*
X19899048Y-11735095D01*
X19899048Y-11735095D02*
X19889524Y-11754143D01*
X19889524Y-11754143D02*
X19880000Y-11763667D01*
X19880000Y-11763667D02*
X19860953Y-11773190D01*
X19860953Y-11773190D02*
X19822857Y-11773190D01*
X19822857Y-11773190D02*
X19803810Y-11782714D01*
X19803810Y-11782714D02*
X19794286Y-11792238D01*
X19794286Y-11792238D02*
X19784762Y-11811286D01*
X19784762Y-11811286D02*
X19784762Y-11849381D01*
X19784762Y-11849381D02*
X19794286Y-11868428D01*
X19794286Y-11868428D02*
X19803810Y-11877952D01*
X19803810Y-11877952D02*
X19822857Y-11887476D01*
X19822857Y-11887476D02*
X19860953Y-11887476D01*
X19860953Y-11887476D02*
X19880000Y-11877952D01*
X19880000Y-11877952D02*
X19889524Y-11868428D01*
X19889524Y-11868428D02*
X19899048Y-11849381D01*
X19899048Y-11849381D02*
X19899048Y-11811286D01*
X19899048Y-11811286D02*
X19889524Y-11792238D01*
X19889524Y-11792238D02*
X19880000Y-11782714D01*
X19880000Y-11782714D02*
X19860953Y-11773190D01*
X19965714Y-11687476D02*
X20099048Y-11687476D01*
X20099048Y-11687476D02*
X20013333Y-11887476D01*
X20165714Y-11687476D02*
X20165714Y-11725571D01*
X20241905Y-11687476D02*
X20241905Y-11725571D01*
X20504762Y-11963667D02*
X20495238Y-11954143D01*
X20495238Y-11954143D02*
X20476191Y-11925571D01*
X20476191Y-11925571D02*
X20466667Y-11906524D01*
X20466667Y-11906524D02*
X20457143Y-11877952D01*
X20457143Y-11877952D02*
X20447619Y-11830333D01*
X20447619Y-11830333D02*
X20447619Y-11792238D01*
X20447619Y-11792238D02*
X20457143Y-11744619D01*
X20457143Y-11744619D02*
X20466667Y-11716048D01*
X20466667Y-11716048D02*
X20476191Y-11697000D01*
X20476191Y-11697000D02*
X20495238Y-11668428D01*
X20495238Y-11668428D02*
X20504762Y-11658905D01*
X20609524Y-11773190D02*
X20590476Y-11763667D01*
X20590476Y-11763667D02*
X20580953Y-11754143D01*
X20580953Y-11754143D02*
X20571429Y-11735095D01*
X20571429Y-11735095D02*
X20571429Y-11725571D01*
X20571429Y-11725571D02*
X20580953Y-11706524D01*
X20580953Y-11706524D02*
X20590476Y-11697000D01*
X20590476Y-11697000D02*
X20609524Y-11687476D01*
X20609524Y-11687476D02*
X20647619Y-11687476D01*
X20647619Y-11687476D02*
X20666667Y-11697000D01*
X20666667Y-11697000D02*
X20676191Y-11706524D01*
X20676191Y-11706524D02*
X20685714Y-11725571D01*
X20685714Y-11725571D02*
X20685714Y-11735095D01*
X20685714Y-11735095D02*
X20676191Y-11754143D01*
X20676191Y-11754143D02*
X20666667Y-11763667D01*
X20666667Y-11763667D02*
X20647619Y-11773190D01*
X20647619Y-11773190D02*
X20609524Y-11773190D01*
X20609524Y-11773190D02*
X20590476Y-11782714D01*
X20590476Y-11782714D02*
X20580953Y-11792238D01*
X20580953Y-11792238D02*
X20571429Y-11811286D01*
X20571429Y-11811286D02*
X20571429Y-11849381D01*
X20571429Y-11849381D02*
X20580953Y-11868428D01*
X20580953Y-11868428D02*
X20590476Y-11877952D01*
X20590476Y-11877952D02*
X20609524Y-11887476D01*
X20609524Y-11887476D02*
X20647619Y-11887476D01*
X20647619Y-11887476D02*
X20666667Y-11877952D01*
X20666667Y-11877952D02*
X20676191Y-11868428D01*
X20676191Y-11868428D02*
X20685714Y-11849381D01*
X20685714Y-11849381D02*
X20685714Y-11811286D01*
X20685714Y-11811286D02*
X20676191Y-11792238D01*
X20676191Y-11792238D02*
X20666667Y-11782714D01*
X20666667Y-11782714D02*
X20647619Y-11773190D01*
X20891429Y-11887476D02*
X20891429Y-11687476D01*
X20977143Y-11887476D02*
X20977143Y-11782714D01*
X20977143Y-11782714D02*
X20967619Y-11763667D01*
X20967619Y-11763667D02*
X20948572Y-11754143D01*
X20948572Y-11754143D02*
X20920000Y-11754143D01*
X20920000Y-11754143D02*
X20900953Y-11763667D01*
X20900953Y-11763667D02*
X20891429Y-11773190D01*
X21100953Y-11887476D02*
X21081905Y-11877952D01*
X21081905Y-11877952D02*
X21072381Y-11868428D01*
X21072381Y-11868428D02*
X21062857Y-11849381D01*
X21062857Y-11849381D02*
X21062857Y-11792238D01*
X21062857Y-11792238D02*
X21072381Y-11773190D01*
X21072381Y-11773190D02*
X21081905Y-11763667D01*
X21081905Y-11763667D02*
X21100953Y-11754143D01*
X21100953Y-11754143D02*
X21129524Y-11754143D01*
X21129524Y-11754143D02*
X21148572Y-11763667D01*
X21148572Y-11763667D02*
X21158095Y-11773190D01*
X21158095Y-11773190D02*
X21167619Y-11792238D01*
X21167619Y-11792238D02*
X21167619Y-11849381D01*
X21167619Y-11849381D02*
X21158095Y-11868428D01*
X21158095Y-11868428D02*
X21148572Y-11877952D01*
X21148572Y-11877952D02*
X21129524Y-11887476D01*
X21129524Y-11887476D02*
X21100953Y-11887476D01*
X21281905Y-11887476D02*
X21262857Y-11877952D01*
X21262857Y-11877952D02*
X21253334Y-11858905D01*
X21253334Y-11858905D02*
X21253334Y-11687476D01*
X21434286Y-11877952D02*
X21415238Y-11887476D01*
X21415238Y-11887476D02*
X21377143Y-11887476D01*
X21377143Y-11887476D02*
X21358095Y-11877952D01*
X21358095Y-11877952D02*
X21348572Y-11858905D01*
X21348572Y-11858905D02*
X21348572Y-11782714D01*
X21348572Y-11782714D02*
X21358095Y-11763667D01*
X21358095Y-11763667D02*
X21377143Y-11754143D01*
X21377143Y-11754143D02*
X21415238Y-11754143D01*
X21415238Y-11754143D02*
X21434286Y-11763667D01*
X21434286Y-11763667D02*
X21443810Y-11782714D01*
X21443810Y-11782714D02*
X21443810Y-11801762D01*
X21443810Y-11801762D02*
X21348572Y-11820809D01*
X21520000Y-11877952D02*
X21539048Y-11887476D01*
X21539048Y-11887476D02*
X21577143Y-11887476D01*
X21577143Y-11887476D02*
X21596191Y-11877952D01*
X21596191Y-11877952D02*
X21605715Y-11858905D01*
X21605715Y-11858905D02*
X21605715Y-11849381D01*
X21605715Y-11849381D02*
X21596191Y-11830333D01*
X21596191Y-11830333D02*
X21577143Y-11820809D01*
X21577143Y-11820809D02*
X21548572Y-11820809D01*
X21548572Y-11820809D02*
X21529524Y-11811286D01*
X21529524Y-11811286D02*
X21520000Y-11792238D01*
X21520000Y-11792238D02*
X21520000Y-11782714D01*
X21520000Y-11782714D02*
X21529524Y-11763667D01*
X21529524Y-11763667D02*
X21548572Y-11754143D01*
X21548572Y-11754143D02*
X21577143Y-11754143D01*
X21577143Y-11754143D02*
X21596191Y-11763667D01*
X21672381Y-11963667D02*
X21681905Y-11954143D01*
X21681905Y-11954143D02*
X21700953Y-11925571D01*
X21700953Y-11925571D02*
X21710476Y-11906524D01*
X21710476Y-11906524D02*
X21720000Y-11877952D01*
X21720000Y-11877952D02*
X21729524Y-11830333D01*
X21729524Y-11830333D02*
X21729524Y-11792238D01*
X21729524Y-11792238D02*
X21720000Y-11744619D01*
X21720000Y-11744619D02*
X21710476Y-11716048D01*
X21710476Y-11716048D02*
X21700953Y-11697000D01*
X21700953Y-11697000D02*
X21681905Y-11668428D01*
X21681905Y-11668428D02*
X21672381Y-11658905D01*
X22001905Y-11963667D02*
X21992381Y-11954143D01*
X21992381Y-11954143D02*
X21973334Y-11925571D01*
X21973334Y-11925571D02*
X21963810Y-11906524D01*
X21963810Y-11906524D02*
X21954286Y-11877952D01*
X21954286Y-11877952D02*
X21944762Y-11830333D01*
X21944762Y-11830333D02*
X21944762Y-11792238D01*
X21944762Y-11792238D02*
X21954286Y-11744619D01*
X21954286Y-11744619D02*
X21963810Y-11716048D01*
X21963810Y-11716048D02*
X21973334Y-11697000D01*
X21973334Y-11697000D02*
X21992381Y-11668428D01*
X21992381Y-11668428D02*
X22001905Y-11658905D01*
X22078095Y-11754143D02*
X22078095Y-11887476D01*
X22078095Y-11773190D02*
X22087619Y-11763667D01*
X22087619Y-11763667D02*
X22106667Y-11754143D01*
X22106667Y-11754143D02*
X22135238Y-11754143D01*
X22135238Y-11754143D02*
X22154286Y-11763667D01*
X22154286Y-11763667D02*
X22163810Y-11782714D01*
X22163810Y-11782714D02*
X22163810Y-11887476D01*
X22287619Y-11887476D02*
X22268572Y-11877952D01*
X22268572Y-11877952D02*
X22259048Y-11868428D01*
X22259048Y-11868428D02*
X22249524Y-11849381D01*
X22249524Y-11849381D02*
X22249524Y-11792238D01*
X22249524Y-11792238D02*
X22259048Y-11773190D01*
X22259048Y-11773190D02*
X22268572Y-11763667D01*
X22268572Y-11763667D02*
X22287619Y-11754143D01*
X22287619Y-11754143D02*
X22316191Y-11754143D01*
X22316191Y-11754143D02*
X22335238Y-11763667D01*
X22335238Y-11763667D02*
X22344762Y-11773190D01*
X22344762Y-11773190D02*
X22354286Y-11792238D01*
X22354286Y-11792238D02*
X22354286Y-11849381D01*
X22354286Y-11849381D02*
X22344762Y-11868428D01*
X22344762Y-11868428D02*
X22335238Y-11877952D01*
X22335238Y-11877952D02*
X22316191Y-11887476D01*
X22316191Y-11887476D02*
X22287619Y-11887476D01*
X22411429Y-11754143D02*
X22487619Y-11754143D01*
X22440000Y-11687476D02*
X22440000Y-11858905D01*
X22440000Y-11858905D02*
X22449524Y-11877952D01*
X22449524Y-11877952D02*
X22468572Y-11887476D01*
X22468572Y-11887476D02*
X22487619Y-11887476D01*
X22674286Y-11754143D02*
X22674286Y-11954143D01*
X22674286Y-11763667D02*
X22693333Y-11754143D01*
X22693333Y-11754143D02*
X22731429Y-11754143D01*
X22731429Y-11754143D02*
X22750476Y-11763667D01*
X22750476Y-11763667D02*
X22760000Y-11773190D01*
X22760000Y-11773190D02*
X22769524Y-11792238D01*
X22769524Y-11792238D02*
X22769524Y-11849381D01*
X22769524Y-11849381D02*
X22760000Y-11868428D01*
X22760000Y-11868428D02*
X22750476Y-11877952D01*
X22750476Y-11877952D02*
X22731429Y-11887476D01*
X22731429Y-11887476D02*
X22693333Y-11887476D01*
X22693333Y-11887476D02*
X22674286Y-11877952D01*
X22883810Y-11887476D02*
X22864762Y-11877952D01*
X22864762Y-11877952D02*
X22855238Y-11858905D01*
X22855238Y-11858905D02*
X22855238Y-11687476D01*
X23045714Y-11887476D02*
X23045714Y-11782714D01*
X23045714Y-11782714D02*
X23036191Y-11763667D01*
X23036191Y-11763667D02*
X23017143Y-11754143D01*
X23017143Y-11754143D02*
X22979048Y-11754143D01*
X22979048Y-11754143D02*
X22960000Y-11763667D01*
X23045714Y-11877952D02*
X23026667Y-11887476D01*
X23026667Y-11887476D02*
X22979048Y-11887476D01*
X22979048Y-11887476D02*
X22960000Y-11877952D01*
X22960000Y-11877952D02*
X22950476Y-11858905D01*
X22950476Y-11858905D02*
X22950476Y-11839857D01*
X22950476Y-11839857D02*
X22960000Y-11820809D01*
X22960000Y-11820809D02*
X22979048Y-11811286D01*
X22979048Y-11811286D02*
X23026667Y-11811286D01*
X23026667Y-11811286D02*
X23045714Y-11801762D01*
X23112381Y-11754143D02*
X23188572Y-11754143D01*
X23140953Y-11687476D02*
X23140953Y-11858905D01*
X23140953Y-11858905D02*
X23150476Y-11877952D01*
X23150476Y-11877952D02*
X23169524Y-11887476D01*
X23169524Y-11887476D02*
X23188572Y-11887476D01*
X23331429Y-11877952D02*
X23312381Y-11887476D01*
X23312381Y-11887476D02*
X23274286Y-11887476D01*
X23274286Y-11887476D02*
X23255238Y-11877952D01*
X23255238Y-11877952D02*
X23245714Y-11858905D01*
X23245714Y-11858905D02*
X23245714Y-11782714D01*
X23245714Y-11782714D02*
X23255238Y-11763667D01*
X23255238Y-11763667D02*
X23274286Y-11754143D01*
X23274286Y-11754143D02*
X23312381Y-11754143D01*
X23312381Y-11754143D02*
X23331429Y-11763667D01*
X23331429Y-11763667D02*
X23340953Y-11782714D01*
X23340953Y-11782714D02*
X23340953Y-11801762D01*
X23340953Y-11801762D02*
X23245714Y-11820809D01*
X23512381Y-11887476D02*
X23512381Y-11687476D01*
X23512381Y-11877952D02*
X23493334Y-11887476D01*
X23493334Y-11887476D02*
X23455238Y-11887476D01*
X23455238Y-11887476D02*
X23436191Y-11877952D01*
X23436191Y-11877952D02*
X23426667Y-11868428D01*
X23426667Y-11868428D02*
X23417143Y-11849381D01*
X23417143Y-11849381D02*
X23417143Y-11792238D01*
X23417143Y-11792238D02*
X23426667Y-11773190D01*
X23426667Y-11773190D02*
X23436191Y-11763667D01*
X23436191Y-11763667D02*
X23455238Y-11754143D01*
X23455238Y-11754143D02*
X23493334Y-11754143D01*
X23493334Y-11754143D02*
X23512381Y-11763667D01*
X23588572Y-11963667D02*
X23598095Y-11954143D01*
X23598095Y-11954143D02*
X23617143Y-11925571D01*
X23617143Y-11925571D02*
X23626667Y-11906524D01*
X23626667Y-11906524D02*
X23636191Y-11877952D01*
X23636191Y-11877952D02*
X23645714Y-11830333D01*
X23645714Y-11830333D02*
X23645714Y-11792238D01*
X23645714Y-11792238D02*
X23636191Y-11744619D01*
X23636191Y-11744619D02*
X23626667Y-11716048D01*
X23626667Y-11716048D02*
X23617143Y-11697000D01*
X23617143Y-11697000D02*
X23598095Y-11668428D01*
X23598095Y-11668428D02*
X23588572Y-11658905D01*
M02*
