%TF.GenerationSoftware,KiCad,Pcbnew,7.0.0-da2b9df05c~163~ubuntu22.04.1*%
%TF.CreationDate,2023-02-19T22:43:29+00:00*%
%TF.ProjectId,userioswitch,75736572-696f-4737-9769-7463682e6b69,rev?*%
%TF.SameCoordinates,Original*%
%TF.FileFunction,Legend,Top*%
%TF.FilePolarity,Positive*%
%FSLAX46Y46*%
G04 Gerber Fmt 4.6, Leading zero omitted, Abs format (unit mm)*
G04 Created by KiCad (PCBNEW 7.0.0-da2b9df05c~163~ubuntu22.04.1) date 2023-02-19 22:43:29*
%MOMM*%
%LPD*%
G01*
G04 APERTURE LIST*
G04 Aperture macros list*
%AMRoundRect*
0 Rectangle with rounded corners*
0 $1 Rounding radius*
0 $2 $3 $4 $5 $6 $7 $8 $9 X,Y pos of 4 corners*
0 Add a 4 corners polygon primitive as box body*
4,1,4,$2,$3,$4,$5,$6,$7,$8,$9,$2,$3,0*
0 Add four circle primitives for the rounded corners*
1,1,$1+$1,$2,$3*
1,1,$1+$1,$4,$5*
1,1,$1+$1,$6,$7*
1,1,$1+$1,$8,$9*
0 Add four rect primitives between the rounded corners*
20,1,$1+$1,$2,$3,$4,$5,0*
20,1,$1+$1,$4,$5,$6,$7,0*
20,1,$1+$1,$6,$7,$8,$9,0*
20,1,$1+$1,$8,$9,$2,$3,0*%
G04 Aperture macros list end*
%ADD10C,0.254000*%
%ADD11C,0.150000*%
%ADD12C,0.100000*%
%ADD13C,0.200000*%
%ADD14C,0.120000*%
%ADD15C,0.001000*%
%ADD16R,2.600000X0.900000*%
%ADD17R,2.150000X0.900000*%
%ADD18C,3.438000*%
%ADD19R,0.900000X2.600000*%
%ADD20R,0.900000X2.150000*%
%ADD21C,3.800000*%
%ADD22R,0.700000X1.800000*%
%ADD23R,1.475000X0.450000*%
%ADD24R,1.700000X1.700000*%
%ADD25O,1.700000X1.700000*%
%ADD26RoundRect,0.250000X0.250000X0.475000X-0.250000X0.475000X-0.250000X-0.475000X0.250000X-0.475000X0*%
%ADD27C,3.600000*%
%ADD28C,6.400000*%
G04 APERTURE END LIST*
D10*
%TO.C,J6*%
X226272073Y-92625332D02*
X227179216Y-92625332D01*
X227179216Y-92625332D02*
X227360645Y-92685809D01*
X227360645Y-92685809D02*
X227481597Y-92806761D01*
X227481597Y-92806761D02*
X227542073Y-92988190D01*
X227542073Y-92988190D02*
X227542073Y-93109142D01*
X226272073Y-91476285D02*
X226272073Y-91718190D01*
X226272073Y-91718190D02*
X226332550Y-91839142D01*
X226332550Y-91839142D02*
X226393026Y-91899618D01*
X226393026Y-91899618D02*
X226574454Y-92020571D01*
X226574454Y-92020571D02*
X226816359Y-92081047D01*
X226816359Y-92081047D02*
X227300169Y-92081047D01*
X227300169Y-92081047D02*
X227421121Y-92020571D01*
X227421121Y-92020571D02*
X227481597Y-91960094D01*
X227481597Y-91960094D02*
X227542073Y-91839142D01*
X227542073Y-91839142D02*
X227542073Y-91597237D01*
X227542073Y-91597237D02*
X227481597Y-91476285D01*
X227481597Y-91476285D02*
X227421121Y-91415809D01*
X227421121Y-91415809D02*
X227300169Y-91355332D01*
X227300169Y-91355332D02*
X226997788Y-91355332D01*
X226997788Y-91355332D02*
X226876835Y-91415809D01*
X226876835Y-91415809D02*
X226816359Y-91476285D01*
X226816359Y-91476285D02*
X226755883Y-91597237D01*
X226755883Y-91597237D02*
X226755883Y-91839142D01*
X226755883Y-91839142D02*
X226816359Y-91960094D01*
X226816359Y-91960094D02*
X226876835Y-92020571D01*
X226876835Y-92020571D02*
X226997788Y-92081047D01*
%TO.C,J5*%
X213444667Y-69933573D02*
X213444667Y-70840716D01*
X213444667Y-70840716D02*
X213384190Y-71022145D01*
X213384190Y-71022145D02*
X213263238Y-71143097D01*
X213263238Y-71143097D02*
X213081809Y-71203573D01*
X213081809Y-71203573D02*
X212960857Y-71203573D01*
X214654190Y-69933573D02*
X214049428Y-69933573D01*
X214049428Y-69933573D02*
X213988952Y-70538335D01*
X213988952Y-70538335D02*
X214049428Y-70477859D01*
X214049428Y-70477859D02*
X214170381Y-70417383D01*
X214170381Y-70417383D02*
X214472762Y-70417383D01*
X214472762Y-70417383D02*
X214593714Y-70477859D01*
X214593714Y-70477859D02*
X214654190Y-70538335D01*
X214654190Y-70538335D02*
X214714667Y-70659288D01*
X214714667Y-70659288D02*
X214714667Y-70961669D01*
X214714667Y-70961669D02*
X214654190Y-71082621D01*
X214654190Y-71082621D02*
X214593714Y-71143097D01*
X214593714Y-71143097D02*
X214472762Y-71203573D01*
X214472762Y-71203573D02*
X214170381Y-71203573D01*
X214170381Y-71203573D02*
X214049428Y-71143097D01*
X214049428Y-71143097D02*
X213988952Y-71082621D01*
%TO.C,J4*%
X181568573Y-92371332D02*
X182475716Y-92371332D01*
X182475716Y-92371332D02*
X182657145Y-92431809D01*
X182657145Y-92431809D02*
X182778097Y-92552761D01*
X182778097Y-92552761D02*
X182838573Y-92734190D01*
X182838573Y-92734190D02*
X182838573Y-92855142D01*
X181991907Y-91222285D02*
X182838573Y-91222285D01*
X181508097Y-91524666D02*
X182415240Y-91827047D01*
X182415240Y-91827047D02*
X182415240Y-91040856D01*
%TO.C,J3*%
X188806667Y-69933573D02*
X188806667Y-70840716D01*
X188806667Y-70840716D02*
X188746190Y-71022145D01*
X188746190Y-71022145D02*
X188625238Y-71143097D01*
X188625238Y-71143097D02*
X188443809Y-71203573D01*
X188443809Y-71203573D02*
X188322857Y-71203573D01*
X189290476Y-69933573D02*
X190076667Y-69933573D01*
X190076667Y-69933573D02*
X189653333Y-70417383D01*
X189653333Y-70417383D02*
X189834762Y-70417383D01*
X189834762Y-70417383D02*
X189955714Y-70477859D01*
X189955714Y-70477859D02*
X190016190Y-70538335D01*
X190016190Y-70538335D02*
X190076667Y-70659288D01*
X190076667Y-70659288D02*
X190076667Y-70961669D01*
X190076667Y-70961669D02*
X190016190Y-71082621D01*
X190016190Y-71082621D02*
X189955714Y-71143097D01*
X189955714Y-71143097D02*
X189834762Y-71203573D01*
X189834762Y-71203573D02*
X189471905Y-71203573D01*
X189471905Y-71203573D02*
X189350952Y-71143097D01*
X189350952Y-71143097D02*
X189290476Y-71082621D01*
%TO.C,J1*%
X201724667Y-105622573D02*
X201724667Y-106529716D01*
X201724667Y-106529716D02*
X201664190Y-106711145D01*
X201664190Y-106711145D02*
X201543238Y-106832097D01*
X201543238Y-106832097D02*
X201361809Y-106892573D01*
X201361809Y-106892573D02*
X201240857Y-106892573D01*
X202994667Y-106892573D02*
X202268952Y-106892573D01*
X202631809Y-106892573D02*
X202631809Y-105622573D01*
X202631809Y-105622573D02*
X202510857Y-105804002D01*
X202510857Y-105804002D02*
X202389905Y-105924954D01*
X202389905Y-105924954D02*
X202268952Y-105985430D01*
%TO.C,IC2*%
X208310237Y-96732573D02*
X208310237Y-95462573D01*
X209640714Y-96611621D02*
X209580238Y-96672097D01*
X209580238Y-96672097D02*
X209398809Y-96732573D01*
X209398809Y-96732573D02*
X209277857Y-96732573D01*
X209277857Y-96732573D02*
X209096428Y-96672097D01*
X209096428Y-96672097D02*
X208975476Y-96551145D01*
X208975476Y-96551145D02*
X208914999Y-96430192D01*
X208914999Y-96430192D02*
X208854523Y-96188288D01*
X208854523Y-96188288D02*
X208854523Y-96006859D01*
X208854523Y-96006859D02*
X208914999Y-95764954D01*
X208914999Y-95764954D02*
X208975476Y-95644002D01*
X208975476Y-95644002D02*
X209096428Y-95523050D01*
X209096428Y-95523050D02*
X209277857Y-95462573D01*
X209277857Y-95462573D02*
X209398809Y-95462573D01*
X209398809Y-95462573D02*
X209580238Y-95523050D01*
X209580238Y-95523050D02*
X209640714Y-95583526D01*
X210124523Y-95583526D02*
X210184999Y-95523050D01*
X210184999Y-95523050D02*
X210305952Y-95462573D01*
X210305952Y-95462573D02*
X210608333Y-95462573D01*
X210608333Y-95462573D02*
X210729285Y-95523050D01*
X210729285Y-95523050D02*
X210789761Y-95583526D01*
X210789761Y-95583526D02*
X210850238Y-95704478D01*
X210850238Y-95704478D02*
X210850238Y-95825430D01*
X210850238Y-95825430D02*
X210789761Y-96006859D01*
X210789761Y-96006859D02*
X210064047Y-96732573D01*
X210064047Y-96732573D02*
X210850238Y-96732573D01*
%TO.C,IC1*%
X194086237Y-96732573D02*
X194086237Y-95462573D01*
X195416714Y-96611621D02*
X195356238Y-96672097D01*
X195356238Y-96672097D02*
X195174809Y-96732573D01*
X195174809Y-96732573D02*
X195053857Y-96732573D01*
X195053857Y-96732573D02*
X194872428Y-96672097D01*
X194872428Y-96672097D02*
X194751476Y-96551145D01*
X194751476Y-96551145D02*
X194690999Y-96430192D01*
X194690999Y-96430192D02*
X194630523Y-96188288D01*
X194630523Y-96188288D02*
X194630523Y-96006859D01*
X194630523Y-96006859D02*
X194690999Y-95764954D01*
X194690999Y-95764954D02*
X194751476Y-95644002D01*
X194751476Y-95644002D02*
X194872428Y-95523050D01*
X194872428Y-95523050D02*
X195053857Y-95462573D01*
X195053857Y-95462573D02*
X195174809Y-95462573D01*
X195174809Y-95462573D02*
X195356238Y-95523050D01*
X195356238Y-95523050D02*
X195416714Y-95583526D01*
X196626238Y-96732573D02*
X195900523Y-96732573D01*
X196263380Y-96732573D02*
X196263380Y-95462573D01*
X196263380Y-95462573D02*
X196142428Y-95644002D01*
X196142428Y-95644002D02*
X196021476Y-95764954D01*
X196021476Y-95764954D02*
X195900523Y-95825430D01*
D11*
%TO.C,J2*%
X196427380Y-85931333D02*
X197141666Y-85931333D01*
X197141666Y-85931333D02*
X197284523Y-85978952D01*
X197284523Y-85978952D02*
X197379761Y-86074190D01*
X197379761Y-86074190D02*
X197427380Y-86217047D01*
X197427380Y-86217047D02*
X197427380Y-86312285D01*
X196522619Y-85502761D02*
X196475000Y-85455142D01*
X196475000Y-85455142D02*
X196427380Y-85359904D01*
X196427380Y-85359904D02*
X196427380Y-85121809D01*
X196427380Y-85121809D02*
X196475000Y-85026571D01*
X196475000Y-85026571D02*
X196522619Y-84978952D01*
X196522619Y-84978952D02*
X196617857Y-84931333D01*
X196617857Y-84931333D02*
X196713095Y-84931333D01*
X196713095Y-84931333D02*
X196855952Y-84978952D01*
X196855952Y-84978952D02*
X197427380Y-85550380D01*
X197427380Y-85550380D02*
X197427380Y-84931333D01*
%TO.C,C2*%
X208809333Y-92220142D02*
X208761714Y-92267761D01*
X208761714Y-92267761D02*
X208618857Y-92315380D01*
X208618857Y-92315380D02*
X208523619Y-92315380D01*
X208523619Y-92315380D02*
X208380762Y-92267761D01*
X208380762Y-92267761D02*
X208285524Y-92172523D01*
X208285524Y-92172523D02*
X208237905Y-92077285D01*
X208237905Y-92077285D02*
X208190286Y-91886809D01*
X208190286Y-91886809D02*
X208190286Y-91743952D01*
X208190286Y-91743952D02*
X208237905Y-91553476D01*
X208237905Y-91553476D02*
X208285524Y-91458238D01*
X208285524Y-91458238D02*
X208380762Y-91363000D01*
X208380762Y-91363000D02*
X208523619Y-91315380D01*
X208523619Y-91315380D02*
X208618857Y-91315380D01*
X208618857Y-91315380D02*
X208761714Y-91363000D01*
X208761714Y-91363000D02*
X208809333Y-91410619D01*
X209190286Y-91410619D02*
X209237905Y-91363000D01*
X209237905Y-91363000D02*
X209333143Y-91315380D01*
X209333143Y-91315380D02*
X209571238Y-91315380D01*
X209571238Y-91315380D02*
X209666476Y-91363000D01*
X209666476Y-91363000D02*
X209714095Y-91410619D01*
X209714095Y-91410619D02*
X209761714Y-91505857D01*
X209761714Y-91505857D02*
X209761714Y-91601095D01*
X209761714Y-91601095D02*
X209714095Y-91743952D01*
X209714095Y-91743952D02*
X209142667Y-92315380D01*
X209142667Y-92315380D02*
X209761714Y-92315380D01*
%TO.C,J7*%
X174159666Y-84164380D02*
X174159666Y-84878666D01*
X174159666Y-84878666D02*
X174112047Y-85021523D01*
X174112047Y-85021523D02*
X174016809Y-85116761D01*
X174016809Y-85116761D02*
X173873952Y-85164380D01*
X173873952Y-85164380D02*
X173778714Y-85164380D01*
X174540619Y-84164380D02*
X175207285Y-84164380D01*
X175207285Y-84164380D02*
X174778714Y-85164380D01*
%TO.C,C1*%
X194397333Y-92220142D02*
X194349714Y-92267761D01*
X194349714Y-92267761D02*
X194206857Y-92315380D01*
X194206857Y-92315380D02*
X194111619Y-92315380D01*
X194111619Y-92315380D02*
X193968762Y-92267761D01*
X193968762Y-92267761D02*
X193873524Y-92172523D01*
X193873524Y-92172523D02*
X193825905Y-92077285D01*
X193825905Y-92077285D02*
X193778286Y-91886809D01*
X193778286Y-91886809D02*
X193778286Y-91743952D01*
X193778286Y-91743952D02*
X193825905Y-91553476D01*
X193825905Y-91553476D02*
X193873524Y-91458238D01*
X193873524Y-91458238D02*
X193968762Y-91363000D01*
X193968762Y-91363000D02*
X194111619Y-91315380D01*
X194111619Y-91315380D02*
X194206857Y-91315380D01*
X194206857Y-91315380D02*
X194349714Y-91363000D01*
X194349714Y-91363000D02*
X194397333Y-91410619D01*
X195349714Y-92315380D02*
X194778286Y-92315380D01*
X195064000Y-92315380D02*
X195064000Y-91315380D01*
X195064000Y-91315380D02*
X194968762Y-91458238D01*
X194968762Y-91458238D02*
X194873524Y-91553476D01*
X194873524Y-91553476D02*
X194778286Y-91601095D01*
D12*
%TO.C,J6*%
X219886500Y-98752000D02*
X221886500Y-98752000D01*
X226885500Y-98752000D02*
X236186500Y-98752000D01*
X236186500Y-98752000D02*
X236186500Y-85652000D01*
D13*
X217253500Y-95952000D02*
X217253500Y-95952000D01*
X217453500Y-95952000D02*
X217453500Y-95952000D01*
D12*
X219886500Y-85652000D02*
X221886500Y-85652000D01*
X236186500Y-85652000D02*
X226885500Y-85652000D01*
D13*
X217453500Y-95952000D02*
G75*
G03*
X217253500Y-95952000I-100000J0D01*
G01*
X217253500Y-95952000D02*
G75*
G03*
X217453500Y-95952000I100000J0D01*
G01*
D12*
%TO.C,J5*%
X220418000Y-77926000D02*
X220418000Y-75926000D01*
X220418000Y-70927000D02*
X220418000Y-61626000D01*
X220418000Y-61626000D02*
X207318000Y-61626000D01*
D13*
X217618000Y-80559000D02*
X217618000Y-80559000D01*
X217618000Y-80359000D02*
X217618000Y-80359000D01*
D12*
X207318000Y-77926000D02*
X207318000Y-75926000D01*
X207318000Y-61626000D02*
X207318000Y-70927000D01*
D13*
X217618000Y-80359000D02*
G75*
G03*
X217618000Y-80559000I0J-100000D01*
G01*
X217618000Y-80559000D02*
G75*
G03*
X217618000Y-80359000I0J100000D01*
G01*
%TO.C,J4*%
X187493000Y-88198000D02*
G75*
G03*
X187293000Y-88198000I-100000J0D01*
G01*
X187293000Y-88198000D02*
G75*
G03*
X187493000Y-88198000I100000J0D01*
G01*
D12*
X168560000Y-98498000D02*
X177861000Y-98498000D01*
X184860000Y-98498000D02*
X182860000Y-98498000D01*
D13*
X187293000Y-88198000D02*
X187293000Y-88198000D01*
X187493000Y-88198000D02*
X187493000Y-88198000D01*
D12*
X168560000Y-85398000D02*
X168560000Y-98498000D01*
X177861000Y-85398000D02*
X168560000Y-85398000D01*
X184860000Y-85398000D02*
X182860000Y-85398000D01*
%TO.C,J3*%
X195780000Y-77926000D02*
X195780000Y-75926000D01*
X195780000Y-70927000D02*
X195780000Y-61626000D01*
X195780000Y-61626000D02*
X182680000Y-61626000D01*
D13*
X192980000Y-80559000D02*
X192980000Y-80559000D01*
X192980000Y-80359000D02*
X192980000Y-80359000D01*
D12*
X182680000Y-77926000D02*
X182680000Y-75926000D01*
X182680000Y-61626000D02*
X182680000Y-70927000D01*
D13*
X192980000Y-80359000D02*
G75*
G03*
X192980000Y-80559000I0J-100000D01*
G01*
X192980000Y-80559000D02*
G75*
G03*
X192980000Y-80359000I0J100000D01*
G01*
D12*
%TO.C,J1*%
X208148000Y-109601000D02*
X208148000Y-109141000D01*
X199148000Y-105691000D02*
X205148000Y-105691000D01*
X196148000Y-109601000D02*
X208148000Y-109601000D01*
X196148000Y-109141000D02*
X196148000Y-109601000D01*
D13*
%TO.C,IC2*%
X205875000Y-93416000D02*
X207350000Y-93416000D01*
X211400000Y-98766000D02*
X207700000Y-98766000D01*
X207700000Y-93766000D02*
X211400000Y-93766000D01*
X211400000Y-93766000D02*
X211400000Y-98766000D01*
X207700000Y-98766000D02*
X207700000Y-93766000D01*
%TO.C,IC1*%
X191651000Y-93416000D02*
X193126000Y-93416000D01*
X197176000Y-98766000D02*
X193476000Y-98766000D01*
X193476000Y-93766000D02*
X197176000Y-93766000D01*
X197176000Y-93766000D02*
X197176000Y-98766000D01*
X193476000Y-98766000D02*
X193476000Y-93766000D01*
D14*
%TO.C,J2*%
X198060000Y-88198000D02*
X198060000Y-86868000D01*
X199390000Y-88198000D02*
X198060000Y-88198000D01*
X200660000Y-88198000D02*
X205800000Y-88198000D01*
X200660000Y-88198000D02*
X200660000Y-85598000D01*
X205800000Y-88198000D02*
X205800000Y-82998000D01*
X198060000Y-85598000D02*
X198060000Y-82998000D01*
X200660000Y-85598000D02*
X198060000Y-85598000D01*
X198060000Y-82998000D02*
X205800000Y-82998000D01*
%TO.C,C2*%
X212097252Y-92683000D02*
X211574748Y-92683000D01*
X212097252Y-91213000D02*
X211574748Y-91213000D01*
%TO.C,J7*%
X171893000Y-85797000D02*
X173223000Y-85797000D01*
X171893000Y-87127000D02*
X171893000Y-85797000D01*
X171893000Y-88397000D02*
X171893000Y-98617000D01*
X171893000Y-88397000D02*
X174493000Y-88397000D01*
X171893000Y-98617000D02*
X177093000Y-98617000D01*
X174493000Y-85797000D02*
X177093000Y-85797000D01*
X174493000Y-88397000D02*
X174493000Y-85797000D01*
X177093000Y-85797000D02*
X177093000Y-98617000D01*
%TO.C,C1*%
X197873252Y-92683000D02*
X197350748Y-92683000D01*
X197873252Y-91213000D02*
X197350748Y-91213000D01*
%TD*%
%LPC*%
D15*
%TO.C,J6*%
X224406500Y-95602000D03*
X224406500Y-88802000D03*
D16*
X219186499Y-95951999D03*
X219186499Y-93451999D03*
X219186499Y-90951999D03*
X219186499Y-88451999D03*
D17*
X218961499Y-87201999D03*
X218961499Y-89701999D03*
X218961499Y-92201999D03*
X218961499Y-94701999D03*
X218961499Y-97201999D03*
D18*
X224406500Y-99002000D03*
X224406500Y-85402000D03*
%TD*%
D15*
%TO.C,J5*%
X217268000Y-73406000D03*
X210468000Y-73406000D03*
D19*
X217617999Y-78625999D03*
X215117999Y-78625999D03*
X212617999Y-78625999D03*
X210117999Y-78625999D03*
D20*
X208867999Y-78850999D03*
X211367999Y-78850999D03*
X213867999Y-78850999D03*
X216367999Y-78850999D03*
X218867999Y-78850999D03*
D18*
X220668000Y-73406000D03*
X207068000Y-73406000D03*
%TD*%
%TO.C,J4*%
X180340000Y-98748000D03*
X180340000Y-85148000D03*
D17*
X185784999Y-86947999D03*
X185784999Y-89447999D03*
X185784999Y-91947999D03*
X185784999Y-94447999D03*
X185784999Y-96947999D03*
D16*
X185559999Y-95697999D03*
X185559999Y-93197999D03*
X185559999Y-90697999D03*
X185559999Y-88197999D03*
D15*
X180340000Y-95348000D03*
X180340000Y-88548000D03*
%TD*%
%TO.C,J3*%
X192630000Y-73406000D03*
X185830000Y-73406000D03*
D19*
X192979999Y-78625999D03*
X190479999Y-78625999D03*
X187979999Y-78625999D03*
X185479999Y-78625999D03*
D20*
X184229999Y-78850999D03*
X186729999Y-78850999D03*
X189229999Y-78850999D03*
X191729999Y-78850999D03*
X194229999Y-78850999D03*
D18*
X196030000Y-73406000D03*
X182430000Y-73406000D03*
%TD*%
D21*
%TO.C,J1*%
X207998000Y-106601000D03*
X196298000Y-106601000D03*
D22*
X206147999Y-104150999D03*
X204147999Y-104150999D03*
X202147999Y-104150999D03*
X200147999Y-104150999D03*
X198147999Y-104150999D03*
X199147999Y-104150999D03*
X201147999Y-104150999D03*
X203147999Y-104150999D03*
X205147999Y-104150999D03*
D15*
X204398000Y-106601000D03*
X199898000Y-106601000D03*
%TD*%
D23*
%TO.C,IC2*%
X206611999Y-93990999D03*
X206611999Y-94640999D03*
X206611999Y-95290999D03*
X206611999Y-95940999D03*
X206611999Y-96590999D03*
X206611999Y-97240999D03*
X206611999Y-97890999D03*
X206611999Y-98540999D03*
X212487999Y-98540999D03*
X212487999Y-97890999D03*
X212487999Y-97240999D03*
X212487999Y-96590999D03*
X212487999Y-95940999D03*
X212487999Y-95290999D03*
X212487999Y-94640999D03*
X212487999Y-93990999D03*
%TD*%
%TO.C,IC1*%
X192387999Y-93990999D03*
X192387999Y-94640999D03*
X192387999Y-95290999D03*
X192387999Y-95940999D03*
X192387999Y-96590999D03*
X192387999Y-97240999D03*
X192387999Y-97890999D03*
X192387999Y-98540999D03*
X198263999Y-98540999D03*
X198263999Y-97890999D03*
X198263999Y-97240999D03*
X198263999Y-96590999D03*
X198263999Y-95940999D03*
X198263999Y-95290999D03*
X198263999Y-94640999D03*
X198263999Y-93990999D03*
%TD*%
D24*
%TO.C,J2*%
X199389999Y-86867999D03*
D25*
X199389999Y-84327999D03*
X201929999Y-86867999D03*
X201929999Y-84327999D03*
X204469999Y-86867999D03*
X204469999Y-84327999D03*
%TD*%
D26*
%TO.C,C2*%
X212786000Y-91948000D03*
X210886000Y-91948000D03*
%TD*%
D27*
%TO.C,H1*%
X175000000Y-71000000D03*
D28*
X175000000Y-71000000D03*
%TD*%
D24*
%TO.C,J7*%
X173222999Y-87126999D03*
D25*
X175762999Y-87126999D03*
X173222999Y-89666999D03*
X175762999Y-89666999D03*
X173222999Y-92206999D03*
X175762999Y-92206999D03*
X173222999Y-94746999D03*
X175762999Y-94746999D03*
X173222999Y-97286999D03*
X175762999Y-97286999D03*
%TD*%
D27*
%TO.C,H4*%
X229000000Y-71000000D03*
D28*
X229000000Y-71000000D03*
%TD*%
D27*
%TO.C,H2*%
X175000000Y-105000000D03*
D28*
X175000000Y-105000000D03*
%TD*%
D27*
%TO.C,H3*%
X229000000Y-105000000D03*
D28*
X229000000Y-105000000D03*
%TD*%
D26*
%TO.C,C1*%
X198562000Y-91948000D03*
X196662000Y-91948000D03*
%TD*%
M02*
