%TF.GenerationSoftware,KiCad,Pcbnew,7.0.0-da2b9df05c~163~ubuntu22.04.1*%
%TF.CreationDate,2023-02-19T22:43:29+00:00*%
%TF.ProjectId,userioswitch,75736572-696f-4737-9769-7463682e6b69,rev?*%
%TF.SameCoordinates,Original*%
%TF.FileFunction,Paste,Top*%
%TF.FilePolarity,Positive*%
%FSLAX46Y46*%
G04 Gerber Fmt 4.6, Leading zero omitted, Abs format (unit mm)*
G04 Created by KiCad (PCBNEW 7.0.0-da2b9df05c~163~ubuntu22.04.1) date 2023-02-19 22:43:29*
%MOMM*%
%LPD*%
G01*
G04 APERTURE LIST*
G04 Aperture macros list*
%AMRoundRect*
0 Rectangle with rounded corners*
0 $1 Rounding radius*
0 $2 $3 $4 $5 $6 $7 $8 $9 X,Y pos of 4 corners*
0 Add a 4 corners polygon primitive as box body*
4,1,4,$2,$3,$4,$5,$6,$7,$8,$9,$2,$3,0*
0 Add four circle primitives for the rounded corners*
1,1,$1+$1,$2,$3*
1,1,$1+$1,$4,$5*
1,1,$1+$1,$6,$7*
1,1,$1+$1,$8,$9*
0 Add four rect primitives between the rounded corners*
20,1,$1+$1,$2,$3,$4,$5,0*
20,1,$1+$1,$4,$5,$6,$7,0*
20,1,$1+$1,$6,$7,$8,$9,0*
20,1,$1+$1,$8,$9,$2,$3,0*%
G04 Aperture macros list end*
%ADD10R,2.600000X0.900000*%
%ADD11R,2.150000X0.900000*%
%ADD12R,0.900000X2.600000*%
%ADD13R,0.900000X2.150000*%
%ADD14R,0.700000X1.800000*%
%ADD15R,1.475000X0.450000*%
%ADD16RoundRect,0.250000X0.250000X0.475000X-0.250000X0.475000X-0.250000X-0.475000X0.250000X-0.475000X0*%
G04 APERTURE END LIST*
D10*
%TO.C,J6*%
X219186499Y-95951999D03*
X219186499Y-93451999D03*
X219186499Y-90951999D03*
X219186499Y-88451999D03*
D11*
X218961499Y-87201999D03*
X218961499Y-89701999D03*
X218961499Y-92201999D03*
X218961499Y-94701999D03*
X218961499Y-97201999D03*
%TD*%
D12*
%TO.C,J5*%
X217617999Y-78625999D03*
X215117999Y-78625999D03*
X212617999Y-78625999D03*
X210117999Y-78625999D03*
D13*
X208867999Y-78850999D03*
X211367999Y-78850999D03*
X213867999Y-78850999D03*
X216367999Y-78850999D03*
X218867999Y-78850999D03*
%TD*%
D11*
%TO.C,J4*%
X185784999Y-86947999D03*
X185784999Y-89447999D03*
X185784999Y-91947999D03*
X185784999Y-94447999D03*
X185784999Y-96947999D03*
D10*
X185559999Y-95697999D03*
X185559999Y-93197999D03*
X185559999Y-90697999D03*
X185559999Y-88197999D03*
%TD*%
D12*
%TO.C,J3*%
X192979999Y-78625999D03*
X190479999Y-78625999D03*
X187979999Y-78625999D03*
X185479999Y-78625999D03*
D13*
X184229999Y-78850999D03*
X186729999Y-78850999D03*
X189229999Y-78850999D03*
X191729999Y-78850999D03*
X194229999Y-78850999D03*
%TD*%
D14*
%TO.C,J1*%
X206147999Y-104150999D03*
X204147999Y-104150999D03*
X202147999Y-104150999D03*
X200147999Y-104150999D03*
X198147999Y-104150999D03*
X199147999Y-104150999D03*
X201147999Y-104150999D03*
X203147999Y-104150999D03*
X205147999Y-104150999D03*
%TD*%
D15*
%TO.C,IC2*%
X206611999Y-93990999D03*
X206611999Y-94640999D03*
X206611999Y-95290999D03*
X206611999Y-95940999D03*
X206611999Y-96590999D03*
X206611999Y-97240999D03*
X206611999Y-97890999D03*
X206611999Y-98540999D03*
X212487999Y-98540999D03*
X212487999Y-97890999D03*
X212487999Y-97240999D03*
X212487999Y-96590999D03*
X212487999Y-95940999D03*
X212487999Y-95290999D03*
X212487999Y-94640999D03*
X212487999Y-93990999D03*
%TD*%
%TO.C,IC1*%
X192387999Y-93990999D03*
X192387999Y-94640999D03*
X192387999Y-95290999D03*
X192387999Y-95940999D03*
X192387999Y-96590999D03*
X192387999Y-97240999D03*
X192387999Y-97890999D03*
X192387999Y-98540999D03*
X198263999Y-98540999D03*
X198263999Y-97890999D03*
X198263999Y-97240999D03*
X198263999Y-96590999D03*
X198263999Y-95940999D03*
X198263999Y-95290999D03*
X198263999Y-94640999D03*
X198263999Y-93990999D03*
%TD*%
D16*
%TO.C,C2*%
X212786000Y-91948000D03*
X210886000Y-91948000D03*
%TD*%
%TO.C,C1*%
X198562000Y-91948000D03*
X196662000Y-91948000D03*
%TD*%
M02*
