G04 #@! TF.GenerationSoftware,KiCad,Pcbnew,7.0.0-da2b9df05c~163~ubuntu22.04.1*
G04 #@! TF.CreationDate,2023-03-12T19:03:42+00:00*
G04 #@! TF.ProjectId,simpleadapter14f,73696d70-6c65-4616-9461-707465723134,rev?*
G04 #@! TF.SameCoordinates,Original*
G04 #@! TF.FileFunction,Copper,L2,Bot*
G04 #@! TF.FilePolarity,Positive*
%FSLAX46Y46*%
G04 Gerber Fmt 4.6, Leading zero omitted, Abs format (unit mm)*
G04 Created by KiCad (PCBNEW 7.0.0-da2b9df05c~163~ubuntu22.04.1) date 2023-03-12 19:03:42*
%MOMM*%
%LPD*%
G01*
G04 APERTURE LIST*
G04 #@! TA.AperFunction,ComponentPad*
%ADD10C,3.438000*%
G04 #@! TD*
G04 #@! TA.AperFunction,ComponentPad*
%ADD11R,1.700000X1.700000*%
G04 #@! TD*
G04 #@! TA.AperFunction,ComponentPad*
%ADD12O,1.700000X1.700000*%
G04 #@! TD*
G04 #@! TA.AperFunction,ViaPad*
%ADD13C,0.800000*%
G04 #@! TD*
G04 #@! TA.AperFunction,Conductor*
%ADD14C,1.000000*%
G04 #@! TD*
G04 APERTURE END LIST*
D10*
X151970000Y-87800000D03*
X151970000Y-101400000D03*
D11*
X165699999Y-102219999D03*
D12*
X163159999Y-102219999D03*
X165699999Y-99679999D03*
X163159999Y-99679999D03*
X165699999Y-97139999D03*
X163159999Y-97139999D03*
X165699999Y-94599999D03*
X163159999Y-94599999D03*
X165699999Y-92059999D03*
X163159999Y-92059999D03*
X165699999Y-89519999D03*
X163159999Y-89519999D03*
X165699999Y-86979999D03*
X163159999Y-86979999D03*
D13*
X160770000Y-87570000D03*
X160540000Y-98380000D03*
X160510000Y-99680000D03*
X159700000Y-88640000D03*
D14*
X151970000Y-101400000D02*
X152840000Y-102270000D01*
X154060000Y-99310000D02*
X151970000Y-101400000D01*
X151970000Y-87800000D02*
X154060000Y-89890000D01*
X163110000Y-102270000D02*
X163160000Y-102220000D01*
X152840000Y-102270000D02*
X163110000Y-102270000D01*
X154060000Y-89890000D02*
X154060000Y-99310000D01*
G04 #@! TA.AperFunction,Conductor*
G36*
X168437500Y-78617113D02*
G01*
X168482887Y-78662500D01*
X168499500Y-78724500D01*
X168499500Y-110475500D01*
X168482887Y-110537500D01*
X168437500Y-110582887D01*
X168375500Y-110599500D01*
X146624500Y-110599500D01*
X146562500Y-110582887D01*
X146517113Y-110537500D01*
X146500500Y-110475500D01*
X146500500Y-107100000D01*
X148394551Y-107100000D01*
X148414317Y-107351148D01*
X148415452Y-107355877D01*
X148415453Y-107355881D01*
X148471989Y-107591374D01*
X148471991Y-107591382D01*
X148473127Y-107596111D01*
X148569534Y-107828859D01*
X148572081Y-107833016D01*
X148572082Y-107833017D01*
X148698617Y-108039504D01*
X148698622Y-108039511D01*
X148701164Y-108043659D01*
X148704324Y-108047358D01*
X148704327Y-108047363D01*
X148861615Y-108231523D01*
X148864776Y-108235224D01*
X149056341Y-108398836D01*
X149060491Y-108401379D01*
X149060495Y-108401382D01*
X149172300Y-108469896D01*
X149271141Y-108530466D01*
X149503889Y-108626873D01*
X149748852Y-108685683D01*
X149937118Y-108700500D01*
X150060437Y-108700500D01*
X150062882Y-108700500D01*
X150251148Y-108685683D01*
X150496111Y-108626873D01*
X150728859Y-108530466D01*
X150943659Y-108398836D01*
X151135224Y-108235224D01*
X151298836Y-108043659D01*
X151430466Y-107828859D01*
X151526873Y-107596111D01*
X151585683Y-107351148D01*
X151605449Y-107100000D01*
X163394551Y-107100000D01*
X163414317Y-107351148D01*
X163415452Y-107355877D01*
X163415453Y-107355881D01*
X163471989Y-107591374D01*
X163471991Y-107591382D01*
X163473127Y-107596111D01*
X163569534Y-107828859D01*
X163572081Y-107833016D01*
X163572082Y-107833017D01*
X163698617Y-108039504D01*
X163698622Y-108039511D01*
X163701164Y-108043659D01*
X163704324Y-108047358D01*
X163704327Y-108047363D01*
X163861615Y-108231523D01*
X163864776Y-108235224D01*
X164056341Y-108398836D01*
X164060491Y-108401379D01*
X164060495Y-108401382D01*
X164172300Y-108469896D01*
X164271141Y-108530466D01*
X164503889Y-108626873D01*
X164748852Y-108685683D01*
X164937118Y-108700500D01*
X165060437Y-108700500D01*
X165062882Y-108700500D01*
X165251148Y-108685683D01*
X165496111Y-108626873D01*
X165728859Y-108530466D01*
X165943659Y-108398836D01*
X166135224Y-108235224D01*
X166298836Y-108043659D01*
X166430466Y-107828859D01*
X166526873Y-107596111D01*
X166585683Y-107351148D01*
X166605449Y-107100000D01*
X166585683Y-106848852D01*
X166526873Y-106603889D01*
X166430466Y-106371141D01*
X166298836Y-106156341D01*
X166135224Y-105964776D01*
X166131523Y-105961615D01*
X165947363Y-105804327D01*
X165947358Y-105804324D01*
X165943659Y-105801164D01*
X165939511Y-105798622D01*
X165939504Y-105798617D01*
X165733017Y-105672082D01*
X165733016Y-105672081D01*
X165728859Y-105669534D01*
X165496111Y-105573127D01*
X165491382Y-105571991D01*
X165491374Y-105571989D01*
X165255881Y-105515453D01*
X165255877Y-105515452D01*
X165251148Y-105514317D01*
X165246295Y-105513935D01*
X165065316Y-105499691D01*
X165065301Y-105499690D01*
X165062882Y-105499500D01*
X164937118Y-105499500D01*
X164934699Y-105499690D01*
X164934683Y-105499691D01*
X164753704Y-105513935D01*
X164753702Y-105513935D01*
X164748852Y-105514317D01*
X164744124Y-105515451D01*
X164744118Y-105515453D01*
X164508625Y-105571989D01*
X164508613Y-105571992D01*
X164503889Y-105573127D01*
X164499392Y-105574989D01*
X164499388Y-105574991D01*
X164275645Y-105667668D01*
X164275640Y-105667670D01*
X164271141Y-105669534D01*
X164266988Y-105672078D01*
X164266982Y-105672082D01*
X164060495Y-105798617D01*
X164060482Y-105798626D01*
X164056341Y-105801164D01*
X164052646Y-105804319D01*
X164052636Y-105804327D01*
X163868476Y-105961615D01*
X163868469Y-105961621D01*
X163864776Y-105964776D01*
X163861621Y-105968469D01*
X163861615Y-105968476D01*
X163704327Y-106152636D01*
X163704319Y-106152646D01*
X163701164Y-106156341D01*
X163698626Y-106160482D01*
X163698617Y-106160495D01*
X163572082Y-106366982D01*
X163572078Y-106366988D01*
X163569534Y-106371141D01*
X163473127Y-106603889D01*
X163471992Y-106608613D01*
X163471989Y-106608625D01*
X163415453Y-106844118D01*
X163415451Y-106844124D01*
X163414317Y-106848852D01*
X163394551Y-107100000D01*
X151605449Y-107100000D01*
X151585683Y-106848852D01*
X151526873Y-106603889D01*
X151430466Y-106371141D01*
X151298836Y-106156341D01*
X151135224Y-105964776D01*
X151131523Y-105961615D01*
X150947363Y-105804327D01*
X150947358Y-105804324D01*
X150943659Y-105801164D01*
X150939511Y-105798622D01*
X150939504Y-105798617D01*
X150733017Y-105672082D01*
X150733016Y-105672081D01*
X150728859Y-105669534D01*
X150496111Y-105573127D01*
X150491382Y-105571991D01*
X150491374Y-105571989D01*
X150255881Y-105515453D01*
X150255877Y-105515452D01*
X150251148Y-105514317D01*
X150246295Y-105513935D01*
X150065316Y-105499691D01*
X150065301Y-105499690D01*
X150062882Y-105499500D01*
X149937118Y-105499500D01*
X149934699Y-105499690D01*
X149934683Y-105499691D01*
X149753704Y-105513935D01*
X149753702Y-105513935D01*
X149748852Y-105514317D01*
X149744124Y-105515451D01*
X149744118Y-105515453D01*
X149508625Y-105571989D01*
X149508613Y-105571992D01*
X149503889Y-105573127D01*
X149499392Y-105574989D01*
X149499388Y-105574991D01*
X149275645Y-105667668D01*
X149275640Y-105667670D01*
X149271141Y-105669534D01*
X149266988Y-105672078D01*
X149266982Y-105672082D01*
X149060495Y-105798617D01*
X149060482Y-105798626D01*
X149056341Y-105801164D01*
X149052646Y-105804319D01*
X149052636Y-105804327D01*
X148868476Y-105961615D01*
X148868469Y-105961621D01*
X148864776Y-105964776D01*
X148861621Y-105968469D01*
X148861615Y-105968476D01*
X148704327Y-106152636D01*
X148704319Y-106152646D01*
X148701164Y-106156341D01*
X148698626Y-106160482D01*
X148698617Y-106160495D01*
X148572082Y-106366982D01*
X148572078Y-106366988D01*
X148569534Y-106371141D01*
X148473127Y-106603889D01*
X148471992Y-106608613D01*
X148471989Y-106608625D01*
X148415453Y-106844118D01*
X148415451Y-106844124D01*
X148414317Y-106848852D01*
X148394551Y-107100000D01*
X146500500Y-107100000D01*
X146500500Y-101400000D01*
X149975418Y-101400000D01*
X149975734Y-101404418D01*
X149995403Y-101679436D01*
X149995404Y-101679445D01*
X149995720Y-101683859D01*
X149996660Y-101688183D01*
X149996662Y-101688192D01*
X150025120Y-101819009D01*
X150056213Y-101961939D01*
X150057762Y-101966092D01*
X150154116Y-102224430D01*
X150154118Y-102224436D01*
X150155664Y-102228579D01*
X150157786Y-102232465D01*
X150289924Y-102474458D01*
X150289928Y-102474465D01*
X150292051Y-102478352D01*
X150294708Y-102481901D01*
X150459943Y-102702630D01*
X150459948Y-102702636D01*
X150462596Y-102706173D01*
X150663827Y-102907404D01*
X150667364Y-102910052D01*
X150667369Y-102910056D01*
X150752163Y-102973532D01*
X150891648Y-103077949D01*
X151141421Y-103214336D01*
X151408061Y-103313787D01*
X151686141Y-103374280D01*
X151970000Y-103394582D01*
X152253859Y-103374280D01*
X152531939Y-103313787D01*
X152798579Y-103214336D01*
X153048352Y-103077949D01*
X153065339Y-103065232D01*
X153100491Y-103046845D01*
X153139649Y-103040500D01*
X162348794Y-103040500D01*
X162393588Y-103048873D01*
X162432332Y-103072863D01*
X162451727Y-103090544D01*
X162481855Y-103118009D01*
X162658411Y-103227327D01*
X162852047Y-103302342D01*
X163056170Y-103340500D01*
X163258101Y-103340500D01*
X163263830Y-103340500D01*
X163467953Y-103302342D01*
X163661589Y-103227327D01*
X163838145Y-103118009D01*
X163861586Y-103096640D01*
X164579500Y-103096640D01*
X164580688Y-103102615D01*
X164580689Y-103102620D01*
X164584350Y-103121025D01*
X164595195Y-103175544D01*
X164654981Y-103265019D01*
X164744456Y-103324805D01*
X164823360Y-103340500D01*
X166570544Y-103340500D01*
X166576640Y-103340500D01*
X166655544Y-103324805D01*
X166745019Y-103265019D01*
X166804805Y-103175544D01*
X166820500Y-103096640D01*
X166820500Y-101343360D01*
X166804805Y-101264456D01*
X166745019Y-101174981D01*
X166692261Y-101139729D01*
X166665697Y-101121979D01*
X166665696Y-101121978D01*
X166655544Y-101115195D01*
X166643566Y-101112812D01*
X166643565Y-101112812D01*
X166582620Y-101100689D01*
X166582615Y-101100688D01*
X166576640Y-101099500D01*
X164823360Y-101099500D01*
X164817385Y-101100688D01*
X164817379Y-101100689D01*
X164756434Y-101112812D01*
X164756432Y-101112812D01*
X164744456Y-101115195D01*
X164734305Y-101121977D01*
X164734302Y-101121979D01*
X164665134Y-101168196D01*
X164665131Y-101168198D01*
X164654981Y-101174981D01*
X164648198Y-101185131D01*
X164648196Y-101185134D01*
X164601979Y-101254302D01*
X164601977Y-101254305D01*
X164595195Y-101264456D01*
X164592812Y-101276432D01*
X164592812Y-101276434D01*
X164580689Y-101337379D01*
X164580688Y-101337385D01*
X164579500Y-101343360D01*
X164579500Y-103096640D01*
X163861586Y-103096640D01*
X163991607Y-102978110D01*
X164116749Y-102812394D01*
X164209311Y-102626505D01*
X164266140Y-102426773D01*
X164285300Y-102220000D01*
X164266140Y-102013227D01*
X164209311Y-101813495D01*
X164116749Y-101627606D01*
X164113296Y-101623034D01*
X164113294Y-101623030D01*
X164039322Y-101525075D01*
X163991607Y-101461890D01*
X163987371Y-101458029D01*
X163987369Y-101458026D01*
X163842379Y-101325851D01*
X163842380Y-101325851D01*
X163838145Y-101321991D01*
X163833276Y-101318976D01*
X163833273Y-101318974D01*
X163666463Y-101215691D01*
X163666464Y-101215691D01*
X163661589Y-101212673D01*
X163546781Y-101168196D01*
X163473300Y-101139729D01*
X163473295Y-101139727D01*
X163467953Y-101137658D01*
X163384080Y-101121979D01*
X163269459Y-101100552D01*
X163269456Y-101100551D01*
X163263830Y-101099500D01*
X163056170Y-101099500D01*
X163050544Y-101100551D01*
X163050540Y-101100552D01*
X162857684Y-101136604D01*
X162857681Y-101136604D01*
X162852047Y-101137658D01*
X162846707Y-101139726D01*
X162846699Y-101139729D01*
X162663753Y-101210603D01*
X162663748Y-101210605D01*
X162658411Y-101212673D01*
X162653539Y-101215689D01*
X162653536Y-101215691D01*
X162486726Y-101318974D01*
X162486718Y-101318979D01*
X162481855Y-101321991D01*
X162477624Y-101325847D01*
X162477620Y-101325851D01*
X162332632Y-101458025D01*
X162332628Y-101458028D01*
X162330829Y-101459669D01*
X162330821Y-101459675D01*
X162328393Y-101461890D01*
X162328136Y-101461608D01*
X162290160Y-101488934D01*
X162240072Y-101499500D01*
X154087146Y-101499500D01*
X154027719Y-101484332D01*
X153982830Y-101442539D01*
X153963462Y-101384346D01*
X153959278Y-101325851D01*
X153944280Y-101116141D01*
X153883787Y-100838061D01*
X153840406Y-100721753D01*
X153832624Y-100675471D01*
X153842601Y-100629609D01*
X153868905Y-100590744D01*
X154635420Y-99824232D01*
X154635423Y-99824227D01*
X154666213Y-99793438D01*
X154685672Y-99762467D01*
X154693715Y-99751131D01*
X154716529Y-99722525D01*
X154732409Y-99689545D01*
X154737685Y-99680000D01*
X164574700Y-99680000D01*
X164593860Y-99886773D01*
X164595429Y-99892287D01*
X164649119Y-100080990D01*
X164649122Y-100080998D01*
X164650689Y-100086505D01*
X164653241Y-100091630D01*
X164653243Y-100091635D01*
X164740696Y-100267264D01*
X164740698Y-100267268D01*
X164743251Y-100272394D01*
X164746701Y-100276962D01*
X164746705Y-100276969D01*
X164783385Y-100325541D01*
X164868393Y-100438110D01*
X164872627Y-100441970D01*
X164872630Y-100441973D01*
X164962054Y-100523493D01*
X165021855Y-100578009D01*
X165198411Y-100687327D01*
X165392047Y-100762342D01*
X165596170Y-100800500D01*
X165798101Y-100800500D01*
X165803830Y-100800500D01*
X166007953Y-100762342D01*
X166201589Y-100687327D01*
X166378145Y-100578009D01*
X166531607Y-100438110D01*
X166656749Y-100272394D01*
X166749311Y-100086505D01*
X166806140Y-99886773D01*
X166825300Y-99680000D01*
X166806140Y-99473227D01*
X166749311Y-99273495D01*
X166656749Y-99087606D01*
X166653296Y-99083034D01*
X166653294Y-99083030D01*
X166535063Y-98926467D01*
X166531607Y-98921890D01*
X166527371Y-98918029D01*
X166527369Y-98918026D01*
X166382379Y-98785851D01*
X166382380Y-98785851D01*
X166378145Y-98781991D01*
X166373276Y-98778976D01*
X166373273Y-98778974D01*
X166255537Y-98706076D01*
X166201589Y-98672673D01*
X166196246Y-98670603D01*
X166013300Y-98599729D01*
X166013295Y-98599727D01*
X166007953Y-98597658D01*
X165903030Y-98578044D01*
X165809459Y-98560552D01*
X165809456Y-98560551D01*
X165803830Y-98559500D01*
X165596170Y-98559500D01*
X165590544Y-98560551D01*
X165590540Y-98560552D01*
X165397684Y-98596604D01*
X165397681Y-98596604D01*
X165392047Y-98597658D01*
X165386707Y-98599726D01*
X165386699Y-98599729D01*
X165203753Y-98670603D01*
X165203748Y-98670605D01*
X165198411Y-98672673D01*
X165193539Y-98675689D01*
X165193536Y-98675691D01*
X165026726Y-98778974D01*
X165026718Y-98778979D01*
X165021855Y-98781991D01*
X165017624Y-98785847D01*
X165017620Y-98785851D01*
X164872630Y-98918026D01*
X164872622Y-98918034D01*
X164868393Y-98921890D01*
X164864939Y-98926462D01*
X164864936Y-98926467D01*
X164746705Y-99083030D01*
X164746697Y-99083041D01*
X164743251Y-99087606D01*
X164740701Y-99092726D01*
X164740696Y-99092735D01*
X164653243Y-99268364D01*
X164653239Y-99268372D01*
X164650689Y-99273495D01*
X164649123Y-99278998D01*
X164649119Y-99279009D01*
X164602898Y-99441462D01*
X164593860Y-99473227D01*
X164593331Y-99478932D01*
X164593331Y-99478934D01*
X164588175Y-99534575D01*
X164574700Y-99680000D01*
X154737685Y-99680000D01*
X154739118Y-99677408D01*
X154758589Y-99646423D01*
X154770668Y-99611900D01*
X154775991Y-99599049D01*
X154782437Y-99585664D01*
X154791864Y-99566090D01*
X154800007Y-99530411D01*
X154803848Y-99517077D01*
X154815935Y-99482537D01*
X154820030Y-99446178D01*
X154822361Y-99432468D01*
X154828535Y-99405418D01*
X154830499Y-99396815D01*
X154830499Y-99353276D01*
X154830500Y-99353267D01*
X154830500Y-97140000D01*
X164574700Y-97140000D01*
X164593860Y-97346773D01*
X164595429Y-97352287D01*
X164649119Y-97540990D01*
X164649122Y-97540998D01*
X164650689Y-97546505D01*
X164653241Y-97551630D01*
X164653243Y-97551635D01*
X164740696Y-97727264D01*
X164740698Y-97727268D01*
X164743251Y-97732394D01*
X164746701Y-97736962D01*
X164746705Y-97736969D01*
X164813960Y-97826029D01*
X164868393Y-97898110D01*
X164872627Y-97901970D01*
X164872630Y-97901973D01*
X164918370Y-97943670D01*
X165021855Y-98038009D01*
X165198411Y-98147327D01*
X165392047Y-98222342D01*
X165596170Y-98260500D01*
X165798101Y-98260500D01*
X165803830Y-98260500D01*
X166007953Y-98222342D01*
X166201589Y-98147327D01*
X166378145Y-98038009D01*
X166531607Y-97898110D01*
X166656749Y-97732394D01*
X166749311Y-97546505D01*
X166806140Y-97346773D01*
X166825300Y-97140000D01*
X166806140Y-96933227D01*
X166749311Y-96733495D01*
X166656749Y-96547606D01*
X166653296Y-96543034D01*
X166653294Y-96543030D01*
X166535063Y-96386467D01*
X166531607Y-96381890D01*
X166527371Y-96378029D01*
X166527369Y-96378026D01*
X166382379Y-96245851D01*
X166382380Y-96245851D01*
X166378145Y-96241991D01*
X166373276Y-96238976D01*
X166373273Y-96238974D01*
X166206463Y-96135691D01*
X166206464Y-96135691D01*
X166201589Y-96132673D01*
X166196246Y-96130603D01*
X166013300Y-96059729D01*
X166013295Y-96059727D01*
X166007953Y-96057658D01*
X166002315Y-96056604D01*
X165809459Y-96020552D01*
X165809456Y-96020551D01*
X165803830Y-96019500D01*
X165596170Y-96019500D01*
X165590544Y-96020551D01*
X165590540Y-96020552D01*
X165397684Y-96056604D01*
X165397681Y-96056604D01*
X165392047Y-96057658D01*
X165386707Y-96059726D01*
X165386699Y-96059729D01*
X165203753Y-96130603D01*
X165203748Y-96130605D01*
X165198411Y-96132673D01*
X165193539Y-96135689D01*
X165193536Y-96135691D01*
X165026726Y-96238974D01*
X165026718Y-96238979D01*
X165021855Y-96241991D01*
X165017624Y-96245847D01*
X165017620Y-96245851D01*
X164872630Y-96378026D01*
X164872622Y-96378034D01*
X164868393Y-96381890D01*
X164864939Y-96386462D01*
X164864936Y-96386467D01*
X164746705Y-96543030D01*
X164746697Y-96543041D01*
X164743251Y-96547606D01*
X164740701Y-96552726D01*
X164740696Y-96552735D01*
X164653243Y-96728364D01*
X164653239Y-96728372D01*
X164650689Y-96733495D01*
X164649123Y-96738998D01*
X164649119Y-96739009D01*
X164597694Y-96919752D01*
X164593860Y-96933227D01*
X164574700Y-97140000D01*
X154830500Y-97140000D01*
X154830500Y-94600000D01*
X164574700Y-94600000D01*
X164593860Y-94806773D01*
X164595429Y-94812287D01*
X164649119Y-95000990D01*
X164649122Y-95000998D01*
X164650689Y-95006505D01*
X164653241Y-95011630D01*
X164653243Y-95011635D01*
X164740696Y-95187264D01*
X164740698Y-95187268D01*
X164743251Y-95192394D01*
X164746701Y-95196962D01*
X164746705Y-95196969D01*
X164850389Y-95334269D01*
X164868393Y-95358110D01*
X164872627Y-95361970D01*
X164872630Y-95361973D01*
X164962054Y-95443493D01*
X165021855Y-95498009D01*
X165198411Y-95607327D01*
X165392047Y-95682342D01*
X165596170Y-95720500D01*
X165798101Y-95720500D01*
X165803830Y-95720500D01*
X166007953Y-95682342D01*
X166201589Y-95607327D01*
X166378145Y-95498009D01*
X166531607Y-95358110D01*
X166656749Y-95192394D01*
X166749311Y-95006505D01*
X166806140Y-94806773D01*
X166825300Y-94600000D01*
X166806140Y-94393227D01*
X166749311Y-94193495D01*
X166656749Y-94007606D01*
X166653296Y-94003034D01*
X166653294Y-94003030D01*
X166535063Y-93846467D01*
X166531607Y-93841890D01*
X166527371Y-93838029D01*
X166527369Y-93838026D01*
X166382379Y-93705851D01*
X166382380Y-93705851D01*
X166378145Y-93701991D01*
X166373276Y-93698976D01*
X166373273Y-93698974D01*
X166206463Y-93595691D01*
X166206464Y-93595691D01*
X166201589Y-93592673D01*
X166196246Y-93590603D01*
X166013300Y-93519729D01*
X166013295Y-93519727D01*
X166007953Y-93517658D01*
X166002315Y-93516604D01*
X165809459Y-93480552D01*
X165809456Y-93480551D01*
X165803830Y-93479500D01*
X165596170Y-93479500D01*
X165590544Y-93480551D01*
X165590540Y-93480552D01*
X165397684Y-93516604D01*
X165397681Y-93516604D01*
X165392047Y-93517658D01*
X165386707Y-93519726D01*
X165386699Y-93519729D01*
X165203753Y-93590603D01*
X165203748Y-93590605D01*
X165198411Y-93592673D01*
X165193539Y-93595689D01*
X165193536Y-93595691D01*
X165026726Y-93698974D01*
X165026718Y-93698979D01*
X165021855Y-93701991D01*
X165017624Y-93705847D01*
X165017620Y-93705851D01*
X164872630Y-93838026D01*
X164872622Y-93838034D01*
X164868393Y-93841890D01*
X164864939Y-93846462D01*
X164864936Y-93846467D01*
X164746705Y-94003030D01*
X164746697Y-94003041D01*
X164743251Y-94007606D01*
X164740701Y-94012726D01*
X164740696Y-94012735D01*
X164653243Y-94188364D01*
X164653239Y-94188372D01*
X164650689Y-94193495D01*
X164649123Y-94198998D01*
X164649119Y-94199009D01*
X164595429Y-94387712D01*
X164593860Y-94393227D01*
X164574700Y-94600000D01*
X154830500Y-94600000D01*
X154830500Y-92060000D01*
X164574700Y-92060000D01*
X164593860Y-92266773D01*
X164595429Y-92272287D01*
X164649119Y-92460990D01*
X164649122Y-92460998D01*
X164650689Y-92466505D01*
X164653241Y-92471630D01*
X164653243Y-92471635D01*
X164740696Y-92647264D01*
X164740698Y-92647268D01*
X164743251Y-92652394D01*
X164746701Y-92656962D01*
X164746705Y-92656969D01*
X164850389Y-92794269D01*
X164868393Y-92818110D01*
X164872627Y-92821970D01*
X164872630Y-92821973D01*
X164962054Y-92903493D01*
X165021855Y-92958009D01*
X165198411Y-93067327D01*
X165392047Y-93142342D01*
X165596170Y-93180500D01*
X165798101Y-93180500D01*
X165803830Y-93180500D01*
X166007953Y-93142342D01*
X166201589Y-93067327D01*
X166378145Y-92958009D01*
X166531607Y-92818110D01*
X166656749Y-92652394D01*
X166749311Y-92466505D01*
X166806140Y-92266773D01*
X166825300Y-92060000D01*
X166806140Y-91853227D01*
X166749311Y-91653495D01*
X166656749Y-91467606D01*
X166653296Y-91463034D01*
X166653294Y-91463030D01*
X166535063Y-91306467D01*
X166531607Y-91301890D01*
X166527371Y-91298029D01*
X166527369Y-91298026D01*
X166382379Y-91165851D01*
X166382380Y-91165851D01*
X166378145Y-91161991D01*
X166373276Y-91158976D01*
X166373273Y-91158974D01*
X166206463Y-91055691D01*
X166206464Y-91055691D01*
X166201589Y-91052673D01*
X166146840Y-91031463D01*
X166013300Y-90979729D01*
X166013295Y-90979727D01*
X166007953Y-90977658D01*
X166002315Y-90976604D01*
X165809459Y-90940552D01*
X165809456Y-90940551D01*
X165803830Y-90939500D01*
X165596170Y-90939500D01*
X165590544Y-90940551D01*
X165590540Y-90940552D01*
X165397684Y-90976604D01*
X165397681Y-90976604D01*
X165392047Y-90977658D01*
X165386707Y-90979726D01*
X165386699Y-90979729D01*
X165203753Y-91050603D01*
X165203748Y-91050605D01*
X165198411Y-91052673D01*
X165193539Y-91055689D01*
X165193536Y-91055691D01*
X165026726Y-91158974D01*
X165026718Y-91158979D01*
X165021855Y-91161991D01*
X165017624Y-91165847D01*
X165017620Y-91165851D01*
X164872630Y-91298026D01*
X164872622Y-91298034D01*
X164868393Y-91301890D01*
X164864939Y-91306462D01*
X164864936Y-91306467D01*
X164746705Y-91463030D01*
X164746697Y-91463041D01*
X164743251Y-91467606D01*
X164740701Y-91472726D01*
X164740696Y-91472735D01*
X164653243Y-91648364D01*
X164653239Y-91648372D01*
X164650689Y-91653495D01*
X164649123Y-91658998D01*
X164649119Y-91659009D01*
X164595429Y-91847712D01*
X164593860Y-91853227D01*
X164593331Y-91858932D01*
X164593331Y-91858934D01*
X164590297Y-91891681D01*
X164574700Y-92060000D01*
X154830500Y-92060000D01*
X154830500Y-89846733D01*
X154830499Y-89846724D01*
X154830499Y-89803185D01*
X154822359Y-89767525D01*
X154820030Y-89753816D01*
X154816983Y-89726773D01*
X154815935Y-89717463D01*
X154803850Y-89682927D01*
X154800006Y-89669584D01*
X154791864Y-89633910D01*
X154775991Y-89600950D01*
X154770669Y-89588101D01*
X154758589Y-89553577D01*
X154739122Y-89522596D01*
X154737687Y-89520000D01*
X164574700Y-89520000D01*
X164593860Y-89726773D01*
X164595429Y-89732287D01*
X164649119Y-89920990D01*
X164649122Y-89920998D01*
X164650689Y-89926505D01*
X164653241Y-89931630D01*
X164653243Y-89931635D01*
X164740696Y-90107264D01*
X164740698Y-90107268D01*
X164743251Y-90112394D01*
X164746701Y-90116962D01*
X164746705Y-90116969D01*
X164848074Y-90251203D01*
X164868393Y-90278110D01*
X164872627Y-90281970D01*
X164872630Y-90281973D01*
X164962054Y-90363493D01*
X165021855Y-90418009D01*
X165198411Y-90527327D01*
X165392047Y-90602342D01*
X165596170Y-90640500D01*
X165798101Y-90640500D01*
X165803830Y-90640500D01*
X166007953Y-90602342D01*
X166201589Y-90527327D01*
X166378145Y-90418009D01*
X166531607Y-90278110D01*
X166656749Y-90112394D01*
X166749311Y-89926505D01*
X166806140Y-89726773D01*
X166825300Y-89520000D01*
X166806140Y-89313227D01*
X166749311Y-89113495D01*
X166656749Y-88927606D01*
X166653296Y-88923034D01*
X166653294Y-88923030D01*
X166535063Y-88766467D01*
X166531607Y-88761890D01*
X166527371Y-88758029D01*
X166527369Y-88758026D01*
X166389634Y-88632465D01*
X166378145Y-88621991D01*
X166373276Y-88618976D01*
X166373273Y-88618974D01*
X166206463Y-88515691D01*
X166206464Y-88515691D01*
X166201589Y-88512673D01*
X166112710Y-88478241D01*
X166013300Y-88439729D01*
X166013295Y-88439727D01*
X166007953Y-88437658D01*
X166002315Y-88436604D01*
X165809459Y-88400552D01*
X165809456Y-88400551D01*
X165803830Y-88399500D01*
X165596170Y-88399500D01*
X165590544Y-88400551D01*
X165590540Y-88400552D01*
X165397684Y-88436604D01*
X165397681Y-88436604D01*
X165392047Y-88437658D01*
X165386707Y-88439726D01*
X165386699Y-88439729D01*
X165203753Y-88510603D01*
X165203748Y-88510605D01*
X165198411Y-88512673D01*
X165193539Y-88515689D01*
X165193536Y-88515691D01*
X165026726Y-88618974D01*
X165026718Y-88618979D01*
X165021855Y-88621991D01*
X165017624Y-88625847D01*
X165017620Y-88625851D01*
X164872630Y-88758026D01*
X164872622Y-88758034D01*
X164868393Y-88761890D01*
X164864939Y-88766462D01*
X164864936Y-88766467D01*
X164746705Y-88923030D01*
X164746697Y-88923041D01*
X164743251Y-88927606D01*
X164740701Y-88932726D01*
X164740696Y-88932735D01*
X164653243Y-89108364D01*
X164653239Y-89108372D01*
X164650689Y-89113495D01*
X164649123Y-89118998D01*
X164649119Y-89119009D01*
X164596408Y-89304271D01*
X164593860Y-89313227D01*
X164593331Y-89318932D01*
X164593331Y-89318934D01*
X164578060Y-89483744D01*
X164574700Y-89520000D01*
X154737687Y-89520000D01*
X154732404Y-89510442D01*
X154716529Y-89477475D01*
X154693720Y-89448874D01*
X154685673Y-89437532D01*
X154669922Y-89412465D01*
X154666213Y-89406562D01*
X154635423Y-89375772D01*
X154635420Y-89375768D01*
X153868907Y-88609256D01*
X153842601Y-88570388D01*
X153832624Y-88524526D01*
X153840408Y-88478241D01*
X153854773Y-88439729D01*
X153883787Y-88361939D01*
X153944280Y-88083859D01*
X153964582Y-87800000D01*
X153944280Y-87516141D01*
X153883787Y-87238061D01*
X153787536Y-86980000D01*
X162034700Y-86980000D01*
X162053860Y-87186773D01*
X162055429Y-87192287D01*
X162109119Y-87380990D01*
X162109122Y-87380998D01*
X162110689Y-87386505D01*
X162113241Y-87391630D01*
X162113243Y-87391635D01*
X162200696Y-87567264D01*
X162200698Y-87567268D01*
X162203251Y-87572394D01*
X162206701Y-87576962D01*
X162206705Y-87576969D01*
X162310389Y-87714269D01*
X162328393Y-87738110D01*
X162332627Y-87741970D01*
X162332630Y-87741973D01*
X162391437Y-87795582D01*
X162481855Y-87878009D01*
X162658411Y-87987327D01*
X162852047Y-88062342D01*
X163056170Y-88100500D01*
X163258101Y-88100500D01*
X163263830Y-88100500D01*
X163467953Y-88062342D01*
X163661589Y-87987327D01*
X163838145Y-87878009D01*
X163991607Y-87738110D01*
X164116749Y-87572394D01*
X164209311Y-87386505D01*
X164266140Y-87186773D01*
X164285300Y-86980000D01*
X164574700Y-86980000D01*
X164593860Y-87186773D01*
X164595429Y-87192287D01*
X164649119Y-87380990D01*
X164649122Y-87380998D01*
X164650689Y-87386505D01*
X164653241Y-87391630D01*
X164653243Y-87391635D01*
X164740696Y-87567264D01*
X164740698Y-87567268D01*
X164743251Y-87572394D01*
X164746701Y-87576962D01*
X164746705Y-87576969D01*
X164850389Y-87714269D01*
X164868393Y-87738110D01*
X164872627Y-87741970D01*
X164872630Y-87741973D01*
X164931437Y-87795582D01*
X165021855Y-87878009D01*
X165198411Y-87987327D01*
X165392047Y-88062342D01*
X165596170Y-88100500D01*
X165798101Y-88100500D01*
X165803830Y-88100500D01*
X166007953Y-88062342D01*
X166201589Y-87987327D01*
X166378145Y-87878009D01*
X166531607Y-87738110D01*
X166656749Y-87572394D01*
X166749311Y-87386505D01*
X166806140Y-87186773D01*
X166825300Y-86980000D01*
X166806140Y-86773227D01*
X166749311Y-86573495D01*
X166656749Y-86387606D01*
X166653296Y-86383034D01*
X166653294Y-86383030D01*
X166535063Y-86226467D01*
X166531607Y-86221890D01*
X166527371Y-86218029D01*
X166527369Y-86218026D01*
X166382379Y-86085851D01*
X166382380Y-86085851D01*
X166378145Y-86081991D01*
X166373276Y-86078976D01*
X166373273Y-86078974D01*
X166255537Y-86006076D01*
X166201589Y-85972673D01*
X166196246Y-85970603D01*
X166013300Y-85899729D01*
X166013295Y-85899727D01*
X166007953Y-85897658D01*
X166002315Y-85896604D01*
X165809459Y-85860552D01*
X165809456Y-85860551D01*
X165803830Y-85859500D01*
X165596170Y-85859500D01*
X165590544Y-85860551D01*
X165590540Y-85860552D01*
X165397684Y-85896604D01*
X165397681Y-85896604D01*
X165392047Y-85897658D01*
X165386707Y-85899726D01*
X165386699Y-85899729D01*
X165203753Y-85970603D01*
X165203748Y-85970605D01*
X165198411Y-85972673D01*
X165193539Y-85975689D01*
X165193536Y-85975691D01*
X165026726Y-86078974D01*
X165026718Y-86078979D01*
X165021855Y-86081991D01*
X165017624Y-86085847D01*
X165017620Y-86085851D01*
X164872630Y-86218026D01*
X164872622Y-86218034D01*
X164868393Y-86221890D01*
X164864939Y-86226462D01*
X164864936Y-86226467D01*
X164746705Y-86383030D01*
X164746697Y-86383041D01*
X164743251Y-86387606D01*
X164740701Y-86392726D01*
X164740696Y-86392735D01*
X164653243Y-86568364D01*
X164653239Y-86568372D01*
X164650689Y-86573495D01*
X164649123Y-86578998D01*
X164649119Y-86579009D01*
X164607428Y-86725541D01*
X164593860Y-86773227D01*
X164574700Y-86980000D01*
X164285300Y-86980000D01*
X164266140Y-86773227D01*
X164209311Y-86573495D01*
X164116749Y-86387606D01*
X164113296Y-86383034D01*
X164113294Y-86383030D01*
X163995063Y-86226467D01*
X163991607Y-86221890D01*
X163987371Y-86218029D01*
X163987369Y-86218026D01*
X163842379Y-86085851D01*
X163842380Y-86085851D01*
X163838145Y-86081991D01*
X163833276Y-86078976D01*
X163833273Y-86078974D01*
X163715537Y-86006076D01*
X163661589Y-85972673D01*
X163656246Y-85970603D01*
X163473300Y-85899729D01*
X163473295Y-85899727D01*
X163467953Y-85897658D01*
X163462315Y-85896604D01*
X163269459Y-85860552D01*
X163269456Y-85860551D01*
X163263830Y-85859500D01*
X163056170Y-85859500D01*
X163050544Y-85860551D01*
X163050540Y-85860552D01*
X162857684Y-85896604D01*
X162857681Y-85896604D01*
X162852047Y-85897658D01*
X162846707Y-85899726D01*
X162846699Y-85899729D01*
X162663753Y-85970603D01*
X162663748Y-85970605D01*
X162658411Y-85972673D01*
X162653539Y-85975689D01*
X162653536Y-85975691D01*
X162486726Y-86078974D01*
X162486718Y-86078979D01*
X162481855Y-86081991D01*
X162477624Y-86085847D01*
X162477620Y-86085851D01*
X162332630Y-86218026D01*
X162332622Y-86218034D01*
X162328393Y-86221890D01*
X162324939Y-86226462D01*
X162324936Y-86226467D01*
X162206705Y-86383030D01*
X162206697Y-86383041D01*
X162203251Y-86387606D01*
X162200701Y-86392726D01*
X162200696Y-86392735D01*
X162113243Y-86568364D01*
X162113239Y-86568372D01*
X162110689Y-86573495D01*
X162109123Y-86578998D01*
X162109119Y-86579009D01*
X162067428Y-86725541D01*
X162053860Y-86773227D01*
X162034700Y-86980000D01*
X153787536Y-86980000D01*
X153784336Y-86971421D01*
X153647949Y-86721648D01*
X153477404Y-86493827D01*
X153276173Y-86292596D01*
X153272636Y-86289948D01*
X153272630Y-86289943D01*
X153051901Y-86124708D01*
X153048352Y-86122051D01*
X153044465Y-86119928D01*
X153044458Y-86119924D01*
X152802465Y-85987786D01*
X152798579Y-85985664D01*
X152794436Y-85984118D01*
X152794430Y-85984116D01*
X152536092Y-85887762D01*
X152531939Y-85886213D01*
X152515556Y-85882649D01*
X152258192Y-85826662D01*
X152258183Y-85826660D01*
X152253859Y-85825720D01*
X152249445Y-85825404D01*
X152249436Y-85825403D01*
X151974418Y-85805734D01*
X151970000Y-85805418D01*
X151965582Y-85805734D01*
X151690563Y-85825403D01*
X151690552Y-85825404D01*
X151686141Y-85825720D01*
X151681817Y-85826660D01*
X151681807Y-85826662D01*
X151412395Y-85885270D01*
X151412392Y-85885270D01*
X151408061Y-85886213D01*
X151403911Y-85887760D01*
X151403907Y-85887762D01*
X151145569Y-85984116D01*
X151145558Y-85984120D01*
X151141421Y-85985664D01*
X151137539Y-85987783D01*
X151137534Y-85987786D01*
X150895541Y-86119924D01*
X150895528Y-86119932D01*
X150891648Y-86122051D01*
X150888102Y-86124704D01*
X150888098Y-86124708D01*
X150667369Y-86289943D01*
X150667356Y-86289953D01*
X150663827Y-86292596D01*
X150660701Y-86295721D01*
X150660694Y-86295728D01*
X150465728Y-86490694D01*
X150465721Y-86490701D01*
X150462596Y-86493827D01*
X150459953Y-86497356D01*
X150459943Y-86497369D01*
X150294708Y-86718098D01*
X150294704Y-86718102D01*
X150292051Y-86721648D01*
X150289932Y-86725528D01*
X150289924Y-86725541D01*
X150157786Y-86967534D01*
X150155664Y-86971421D01*
X150154120Y-86975558D01*
X150154116Y-86975569D01*
X150057762Y-87233907D01*
X150056213Y-87238061D01*
X150055270Y-87242392D01*
X150055270Y-87242395D01*
X149996662Y-87511807D01*
X149996660Y-87511817D01*
X149995720Y-87516141D01*
X149995404Y-87520552D01*
X149995403Y-87520563D01*
X149991369Y-87576969D01*
X149975418Y-87800000D01*
X149975734Y-87804418D01*
X149995403Y-88079436D01*
X149995404Y-88079445D01*
X149995720Y-88083859D01*
X149996660Y-88088183D01*
X149996662Y-88088192D01*
X150052649Y-88345556D01*
X150056213Y-88361939D01*
X150057761Y-88366089D01*
X150057762Y-88366092D01*
X150154116Y-88624430D01*
X150154118Y-88624436D01*
X150155664Y-88628579D01*
X150157786Y-88632465D01*
X150289924Y-88874458D01*
X150289928Y-88874465D01*
X150292051Y-88878352D01*
X150294708Y-88881901D01*
X150459943Y-89102630D01*
X150459948Y-89102636D01*
X150462596Y-89106173D01*
X150663827Y-89307404D01*
X150667364Y-89310052D01*
X150667369Y-89310056D01*
X150679229Y-89318934D01*
X150891648Y-89477949D01*
X150895538Y-89480073D01*
X150895541Y-89480075D01*
X150951136Y-89510432D01*
X151141421Y-89614336D01*
X151408061Y-89713787D01*
X151592070Y-89753816D01*
X151613772Y-89758537D01*
X151671557Y-89788621D01*
X151706117Y-89843847D01*
X151707911Y-89908970D01*
X151676444Y-89966014D01*
X151620403Y-89999234D01*
X151534201Y-90023024D01*
X151534194Y-90023026D01*
X151528830Y-90024507D01*
X151523812Y-90026923D01*
X151523808Y-90026925D01*
X151331048Y-90119752D01*
X151331039Y-90119757D01*
X151326027Y-90122171D01*
X151321525Y-90125441D01*
X151321518Y-90125446D01*
X151148429Y-90251203D01*
X151148425Y-90251205D01*
X151143922Y-90254478D01*
X151140083Y-90258492D01*
X151140074Y-90258501D01*
X150992218Y-90413147D01*
X150992212Y-90413154D01*
X150988368Y-90417175D01*
X150985299Y-90421823D01*
X150985296Y-90421828D01*
X150867435Y-90600380D01*
X150867431Y-90600386D01*
X150864365Y-90605032D01*
X150862178Y-90610148D01*
X150862173Y-90610158D01*
X150778088Y-90806884D01*
X150778085Y-90806892D01*
X150775897Y-90812012D01*
X150774657Y-90817441D01*
X150774656Y-90817447D01*
X150737617Y-90979729D01*
X150725809Y-91031463D01*
X150725559Y-91037019D01*
X150725558Y-91037030D01*
X150717307Y-91220757D01*
X150715710Y-91256330D01*
X150716455Y-91261833D01*
X150716456Y-91261844D01*
X150721881Y-91301890D01*
X150745925Y-91479387D01*
X150747644Y-91484680D01*
X150747646Y-91484685D01*
X150813761Y-91688167D01*
X150813764Y-91688175D01*
X150815483Y-91693464D01*
X150818121Y-91698366D01*
X150919512Y-91886784D01*
X150919516Y-91886790D01*
X150922148Y-91891681D01*
X150925612Y-91896025D01*
X150925615Y-91896029D01*
X151059022Y-92063315D01*
X151062492Y-92067666D01*
X151232004Y-92215765D01*
X151236783Y-92218620D01*
X151236784Y-92218621D01*
X151330399Y-92274553D01*
X151425236Y-92331215D01*
X151635976Y-92410307D01*
X151857453Y-92450500D01*
X152023378Y-92450500D01*
X152026155Y-92450500D01*
X152194188Y-92435377D01*
X152411170Y-92375493D01*
X152613973Y-92277829D01*
X152796078Y-92145522D01*
X152951632Y-91982825D01*
X153040819Y-91847712D01*
X153062013Y-91815605D01*
X153108710Y-91773685D01*
X153169951Y-91759996D01*
X153230052Y-91778044D01*
X153273621Y-91823206D01*
X153289500Y-91883916D01*
X153289500Y-97321019D01*
X153272514Y-97383661D01*
X153226210Y-97429141D01*
X153163274Y-97444999D01*
X153100947Y-97426891D01*
X153056306Y-97379778D01*
X153020489Y-97313220D01*
X153017852Y-97308319D01*
X152948877Y-97221828D01*
X152880977Y-97136684D01*
X152877508Y-97132334D01*
X152707996Y-96984235D01*
X152703218Y-96981380D01*
X152703215Y-96981378D01*
X152519545Y-96871641D01*
X152519540Y-96871638D01*
X152514764Y-96868785D01*
X152509547Y-96866827D01*
X152309239Y-96791650D01*
X152309236Y-96791649D01*
X152304024Y-96789693D01*
X152298546Y-96788698D01*
X152298543Y-96788698D01*
X152088030Y-96750495D01*
X152088029Y-96750494D01*
X152082547Y-96749500D01*
X151913845Y-96749500D01*
X151911097Y-96749747D01*
X151911081Y-96749748D01*
X151751360Y-96764123D01*
X151751352Y-96764124D01*
X151745812Y-96764623D01*
X151740448Y-96766103D01*
X151740439Y-96766105D01*
X151534201Y-96823024D01*
X151534194Y-96823026D01*
X151528830Y-96824507D01*
X151523812Y-96826923D01*
X151523808Y-96826925D01*
X151331048Y-96919752D01*
X151331039Y-96919757D01*
X151326027Y-96922171D01*
X151321525Y-96925441D01*
X151321518Y-96925446D01*
X151148429Y-97051203D01*
X151148425Y-97051205D01*
X151143922Y-97054478D01*
X151140083Y-97058492D01*
X151140074Y-97058501D01*
X150992218Y-97213147D01*
X150992212Y-97213154D01*
X150988368Y-97217175D01*
X150985299Y-97221823D01*
X150985296Y-97221828D01*
X150867435Y-97400380D01*
X150867431Y-97400386D01*
X150864365Y-97405032D01*
X150862178Y-97410148D01*
X150862173Y-97410158D01*
X150778088Y-97606884D01*
X150778085Y-97606892D01*
X150775897Y-97612012D01*
X150774657Y-97617441D01*
X150774656Y-97617447D01*
X150727049Y-97826029D01*
X150725809Y-97831463D01*
X150725559Y-97837019D01*
X150725558Y-97837030D01*
X150717307Y-98020757D01*
X150715710Y-98056330D01*
X150716455Y-98061833D01*
X150716456Y-98061844D01*
X150745177Y-98273867D01*
X150745925Y-98279387D01*
X150747644Y-98284680D01*
X150747646Y-98284685D01*
X150813761Y-98488167D01*
X150813764Y-98488175D01*
X150815483Y-98493464D01*
X150818121Y-98498366D01*
X150919512Y-98686784D01*
X150919516Y-98686790D01*
X150922148Y-98691681D01*
X150925612Y-98696025D01*
X150925615Y-98696029D01*
X151059022Y-98863315D01*
X151062492Y-98867666D01*
X151232004Y-99015765D01*
X151425236Y-99131215D01*
X151623850Y-99205756D01*
X151675272Y-99242146D01*
X151702176Y-99299109D01*
X151697618Y-99361941D01*
X151662774Y-99414425D01*
X151606638Y-99443014D01*
X151412392Y-99485270D01*
X151412380Y-99485273D01*
X151408061Y-99486213D01*
X151403911Y-99487760D01*
X151403907Y-99487762D01*
X151145569Y-99584116D01*
X151145558Y-99584120D01*
X151141421Y-99585664D01*
X151137539Y-99587783D01*
X151137534Y-99587786D01*
X150895541Y-99719924D01*
X150895528Y-99719932D01*
X150891648Y-99722051D01*
X150888102Y-99724704D01*
X150888098Y-99724708D01*
X150667369Y-99889943D01*
X150667356Y-99889953D01*
X150663827Y-99892596D01*
X150660701Y-99895721D01*
X150660694Y-99895728D01*
X150465728Y-100090694D01*
X150465721Y-100090701D01*
X150462596Y-100093827D01*
X150459953Y-100097356D01*
X150459943Y-100097369D01*
X150294708Y-100318098D01*
X150294704Y-100318102D01*
X150292051Y-100321648D01*
X150289932Y-100325528D01*
X150289924Y-100325541D01*
X150157786Y-100567534D01*
X150155664Y-100571421D01*
X150154120Y-100575558D01*
X150154116Y-100575569D01*
X150070615Y-100799447D01*
X150056213Y-100838061D01*
X150055270Y-100842392D01*
X150055270Y-100842395D01*
X149996662Y-101111807D01*
X149996660Y-101111817D01*
X149995720Y-101116141D01*
X149995404Y-101120552D01*
X149995403Y-101120563D01*
X149981213Y-101318974D01*
X149975418Y-101400000D01*
X146500500Y-101400000D01*
X146500500Y-82100000D01*
X148394551Y-82100000D01*
X148414317Y-82351148D01*
X148415452Y-82355877D01*
X148415453Y-82355881D01*
X148471989Y-82591374D01*
X148471991Y-82591382D01*
X148473127Y-82596111D01*
X148569534Y-82828859D01*
X148572081Y-82833016D01*
X148572082Y-82833017D01*
X148698617Y-83039504D01*
X148698622Y-83039511D01*
X148701164Y-83043659D01*
X148704324Y-83047358D01*
X148704327Y-83047363D01*
X148861615Y-83231523D01*
X148864776Y-83235224D01*
X149056341Y-83398836D01*
X149060491Y-83401379D01*
X149060495Y-83401382D01*
X149172300Y-83469896D01*
X149271141Y-83530466D01*
X149503889Y-83626873D01*
X149748852Y-83685683D01*
X149937118Y-83700500D01*
X150060437Y-83700500D01*
X150062882Y-83700500D01*
X150251148Y-83685683D01*
X150496111Y-83626873D01*
X150728859Y-83530466D01*
X150943659Y-83398836D01*
X151135224Y-83235224D01*
X151298836Y-83043659D01*
X151430466Y-82828859D01*
X151526873Y-82596111D01*
X151585683Y-82351148D01*
X151605449Y-82100000D01*
X163394551Y-82100000D01*
X163414317Y-82351148D01*
X163415452Y-82355877D01*
X163415453Y-82355881D01*
X163471989Y-82591374D01*
X163471991Y-82591382D01*
X163473127Y-82596111D01*
X163569534Y-82828859D01*
X163572081Y-82833016D01*
X163572082Y-82833017D01*
X163698617Y-83039504D01*
X163698622Y-83039511D01*
X163701164Y-83043659D01*
X163704324Y-83047358D01*
X163704327Y-83047363D01*
X163861615Y-83231523D01*
X163864776Y-83235224D01*
X164056341Y-83398836D01*
X164060491Y-83401379D01*
X164060495Y-83401382D01*
X164172300Y-83469896D01*
X164271141Y-83530466D01*
X164503889Y-83626873D01*
X164748852Y-83685683D01*
X164937118Y-83700500D01*
X165060437Y-83700500D01*
X165062882Y-83700500D01*
X165251148Y-83685683D01*
X165496111Y-83626873D01*
X165728859Y-83530466D01*
X165943659Y-83398836D01*
X166135224Y-83235224D01*
X166298836Y-83043659D01*
X166430466Y-82828859D01*
X166526873Y-82596111D01*
X166585683Y-82351148D01*
X166605449Y-82100000D01*
X166585683Y-81848852D01*
X166526873Y-81603889D01*
X166430466Y-81371141D01*
X166298836Y-81156341D01*
X166135224Y-80964776D01*
X166131523Y-80961615D01*
X165947363Y-80804327D01*
X165947358Y-80804324D01*
X165943659Y-80801164D01*
X165939511Y-80798622D01*
X165939504Y-80798617D01*
X165733017Y-80672082D01*
X165733016Y-80672081D01*
X165728859Y-80669534D01*
X165496111Y-80573127D01*
X165491382Y-80571991D01*
X165491374Y-80571989D01*
X165255881Y-80515453D01*
X165255877Y-80515452D01*
X165251148Y-80514317D01*
X165246295Y-80513935D01*
X165065316Y-80499691D01*
X165065301Y-80499690D01*
X165062882Y-80499500D01*
X164937118Y-80499500D01*
X164934699Y-80499690D01*
X164934683Y-80499691D01*
X164753704Y-80513935D01*
X164753702Y-80513935D01*
X164748852Y-80514317D01*
X164744124Y-80515451D01*
X164744118Y-80515453D01*
X164508625Y-80571989D01*
X164508613Y-80571992D01*
X164503889Y-80573127D01*
X164499392Y-80574989D01*
X164499388Y-80574991D01*
X164275645Y-80667668D01*
X164275640Y-80667670D01*
X164271141Y-80669534D01*
X164266988Y-80672078D01*
X164266982Y-80672082D01*
X164060495Y-80798617D01*
X164060482Y-80798626D01*
X164056341Y-80801164D01*
X164052646Y-80804319D01*
X164052636Y-80804327D01*
X163868476Y-80961615D01*
X163868469Y-80961621D01*
X163864776Y-80964776D01*
X163861621Y-80968469D01*
X163861615Y-80968476D01*
X163704327Y-81152636D01*
X163704319Y-81152646D01*
X163701164Y-81156341D01*
X163698626Y-81160482D01*
X163698617Y-81160495D01*
X163572082Y-81366982D01*
X163572078Y-81366988D01*
X163569534Y-81371141D01*
X163473127Y-81603889D01*
X163471992Y-81608613D01*
X163471989Y-81608625D01*
X163415453Y-81844118D01*
X163415451Y-81844124D01*
X163414317Y-81848852D01*
X163394551Y-82100000D01*
X151605449Y-82100000D01*
X151585683Y-81848852D01*
X151526873Y-81603889D01*
X151430466Y-81371141D01*
X151298836Y-81156341D01*
X151135224Y-80964776D01*
X151131523Y-80961615D01*
X150947363Y-80804327D01*
X150947358Y-80804324D01*
X150943659Y-80801164D01*
X150939511Y-80798622D01*
X150939504Y-80798617D01*
X150733017Y-80672082D01*
X150733016Y-80672081D01*
X150728859Y-80669534D01*
X150496111Y-80573127D01*
X150491382Y-80571991D01*
X150491374Y-80571989D01*
X150255881Y-80515453D01*
X150255877Y-80515452D01*
X150251148Y-80514317D01*
X150246295Y-80513935D01*
X150065316Y-80499691D01*
X150065301Y-80499690D01*
X150062882Y-80499500D01*
X149937118Y-80499500D01*
X149934699Y-80499690D01*
X149934683Y-80499691D01*
X149753704Y-80513935D01*
X149753702Y-80513935D01*
X149748852Y-80514317D01*
X149744124Y-80515451D01*
X149744118Y-80515453D01*
X149508625Y-80571989D01*
X149508613Y-80571992D01*
X149503889Y-80573127D01*
X149499392Y-80574989D01*
X149499388Y-80574991D01*
X149275645Y-80667668D01*
X149275640Y-80667670D01*
X149271141Y-80669534D01*
X149266988Y-80672078D01*
X149266982Y-80672082D01*
X149060495Y-80798617D01*
X149060482Y-80798626D01*
X149056341Y-80801164D01*
X149052646Y-80804319D01*
X149052636Y-80804327D01*
X148868476Y-80961615D01*
X148868469Y-80961621D01*
X148864776Y-80964776D01*
X148861621Y-80968469D01*
X148861615Y-80968476D01*
X148704327Y-81152636D01*
X148704319Y-81152646D01*
X148701164Y-81156341D01*
X148698626Y-81160482D01*
X148698617Y-81160495D01*
X148572082Y-81366982D01*
X148572078Y-81366988D01*
X148569534Y-81371141D01*
X148473127Y-81603889D01*
X148471992Y-81608613D01*
X148471989Y-81608625D01*
X148415453Y-81844118D01*
X148415451Y-81844124D01*
X148414317Y-81848852D01*
X148394551Y-82100000D01*
X146500500Y-82100000D01*
X146500500Y-78724500D01*
X146517113Y-78662500D01*
X146562500Y-78617113D01*
X146624500Y-78600500D01*
X168375500Y-78600500D01*
X168437500Y-78617113D01*
G37*
G04 #@! TD.AperFunction*
M02*
