M48
; DRILL file {KiCad 7.0.0-da2b9df05c~163~ubuntu22.04.1} date Sun Mar 12 19:31:43 2023
; FORMAT={-:-/ absolute / inch / decimal}
; #@! TF.CreationDate,2023-03-12T19:31:43+00:00
; #@! TF.GenerationSoftware,Kicad,Pcbnew,7.0.0-da2b9df05c~163~ubuntu22.04.1
; #@! TF.FileFunction,Plated,1,2,PTH
FMAT,2
INCH
; #@! TA.AperFunction,Plated,PTH,ComponentDrill
T1C0.0394
%
G90
G05
T1
X5.6315Y-3.6
X5.6315Y-3.7
X5.6315Y-3.8
X5.6315Y-3.9
X5.6315Y-4.0
X5.6315Y-4.1
X5.6315Y-4.2
X5.7315Y-3.6
X5.7315Y-3.7
X5.7315Y-3.8
X5.7315Y-3.9
X5.7315Y-4.0
X5.7315Y-4.1
X5.7315Y-4.2
X5.905Y-3.6
X5.905Y-3.7
X5.905Y-3.8
X5.905Y-3.9
X5.905Y-4.0
X5.905Y-4.1
X5.905Y-4.2
X6.005Y-3.6
X6.005Y-3.7
X6.005Y-3.8
X6.005Y-3.9
X6.005Y-4.0
X6.005Y-4.1
X6.005Y-4.2
T0
M30
